<svg xmlns="http://www.w3.org/2000/svg" height="480" width="640"><defs><clipPath id="a"><path fill-opacity=".67" d="M0 0h640v480H0z"/></clipPath></defs><g fill-rule="evenodd" clip-path="url(#a)"><g stroke-width="1pt"><path d="M-160.218 33.142l.118 114.17L799.905 346.66V233.313l-960.12-200.17z" fill="#fff"/><path d="M-160.1 246.65V480h960.005v-33.325L-160.1 246.648z" fill="#fdd114"/><path d="M799.905 233.344V-.006H-160.1v33.325l960.005 200.025z" fill="#fdd114"/><path d="M-160.1 146.713v100.004l960.314 199.96-.31-100.015-960.004-199.95z"/></g><g><path stroke="#000" stroke-width="1.138.562" fill="#cf1126" d="M314.08 189.7h10.854v28.973H314.08z"/><path d="M415.12 645.68c-.24-33.566 1.125-65.845 3.766-75.002s6.556-11.06 11.416-15.608c-11.512-1.043-24.218 8.647-30.06 21.408-3.707-14.398-10.64-24.156-16.74-29.056-6.098 4.9-13.29 14.808-16.567 29.183-6.01-10.712-16.555-22.588-29.028-21.254 4.434 4.62 8.48 6.333 11.178 15.286s4.044 41.016 3.075 74.6" transform="matrix(.518 0 0 .592 120.62 -116.48)" stroke="#000" stroke-width="3.207" fill="#cf1126"/><path d="M414.44 641.96c-.24-33.565 1.37-62.22 3.677-71.327 2.31-9.106 5.993-10.806 11.258-14.746-11.512-1.043-22.48 1.756-28.902 17.355-3.592-14.5-10.64-21.623-16.74-26.523-6.098 4.9-13.29 12.273-16.567 26.648-7.053-15.474-16.903-18.94-29.376-17.606 5.186 4.316 9.262 5.927 11.8 14.855s2.86 37.315 1.89 70.9" transform="matrix(.566 0 0 .711 102.504 -140.641)" stroke="#000" stroke-width="2.804" fill="#cf1126"/><path d="M343.292 329.038c-.22-5.554.54-13.013 1.803-15.896 1.263-2.883 3.024-4.988 4.802-7.432-7.623-1.1-15.375-.538-19.49 10.642-2.668-10.22-6.667-15.553-11.004-19.037-4.336 3.484-8.103 8.817-10.77 19.037-4.115-11.18-11.905-11.858-19.762-10.642 1.78 2.444 3.61 4.55 4.94 7.432 1.33 2.883 2.16 10.342 1.937 15.896" stroke="#000" stroke-width="1.422.5" fill="#cf1126"/><path d="M315.387 133.28v22.9h8.084v-22.9h-8.083z" stroke="#000" stroke-width="1.422.5" fill="#cf1126"/><path opacity=".99" stroke-linejoin="bevel" d="M371.514 415.75c2 1.336 9.98 2.737 24.44.22 25.25-4.422 25.04-29.33 64.367-17.775-1.776-3.555-7.998-14.44-23.33-14.88 1.557-5.113 2.667-12.664-.22-17.335-2.963 6.59-7.55 9.655-10.876 11.81-1.025-.555-6.968-5.41-7.612-12.727-.893-14.505-7.97-17.064-8.723-16.68-4.544-.13-31.903 43.122-90.49 43.406-57.725.276-86.614-43.024-89.877-43.408-.752-.383-7.83 2.176-8.723 16.68-.644 7.317-6.657 11.96-7.667 12.607-3.312-2.063-7.857-5.1-10.82-11.69-2.888 4.67-1.778 12.222-.222 17.334-15.33.44-21.55 11.326-23.33 14.88 39.33-11.553 39.408 13.354 64.657 17.776 14.463 2.517 21.96 1.337 23.96.007" stroke="#000" stroke-width="1.422.5" fill="#cf1126"/><path opacity=".99" stroke-linejoin="bevel" d="M249.5 403.307c-13.698-.547-40.42-21.38-36.627-25.667 1.203-1.216 7.09.036 17.283 7.167 15.126 10.31 28.105 42.816 88.79 42.568 61.842-.25 74.533-32.26 89.656-42.568 10.193-7.13 16.552-8.27 17.27-6.875 3.64 4.11-23.108 24.892-36.805 25.44" stroke="#000" stroke-width="1.422.5" fill="#cf1126"/><path d="M230.74 193.03c-54.113 57.012-25.003 187.96 87.468 189.852 113.078 1.267 146.06-131.01 89.878-190.1m-166.388 2.206c-28.79 48.475 1.14 133.412 78.124 133.412 77.62 0 106.067-85.554 77.556-133.703" stroke="#000" stroke-width="1.422.5" fill="#cf1126"/><path d="M339.548 399.678c3.935.874 7.525 4.937 6.08 9.113-1.606 4.98-7.532 6.19-9.772 5.826-2.41-1.446-.965-3.533 6.424-4.337 4.817-1.768.43-5.026-3.212-6.586-1.98-.85-1.367-4.426.48-4.016z" stroke="#cf1126" stroke-width=".26642000000000005" fill="#fdd114"/><path d="M327.345 398.395c1.83-2.082 3.316 4.298 3.722 8.72.533 4.32.59 9.647-1.152 9.91-1.062.18-.17-4.958-1.268-9.67-1.432-5.458-2.05-8.045-1.302-8.96z" stroke="#cf1126" stroke-width=".26642000000000005" fill="#fdd114"/><path d="M323.143 406.264c4.594 4.452-3.187 17.347-20.21 11.726-.965-1.767 6.76-.02 12.204-.964 10.36-1.636 5.916-12.737 8.006-10.762z" stroke="#cb4f46" stroke-width=".26642000000000005" fill="#fdd114"/><path d="M314.814 397.426c1.83-2.08.764 4.507 1.145 8.934.372 4.16-.093 9.22-2.066 8.565-1.07-.515.683-5.186-.414-9.577-1.176-5.52-.055-6.525 1.334-7.922z" stroke="#cf1126" stroke-width=".26642000000000005" fill="#fdd114"/><path d="M303.13 395.658c3.25-.02 2.378.89 2.147 9.57-.254 9.723-8.466 10.81-10.418 8.143-1.64-2.092-1.04-2.722-8.38-2.02-1.64-.828-1.578-2.587-6.94-2.137-1.386.256-1.34-2.374-3.84-3.945-4.362-2.606-5.814 1.92-14.13-2.87-.52-.29-3.893-2.428-3.276-6.655.642-5.34-4.228.653-9.58-1.678-1.036-.462-4.173-1.767-6.94-4.196-3.907-3.36.184-4.04 5.462-.615 3.26 2.067 8.047-2.69 8.176-7.448.292-5.037-2.214-6.36 1.67-6.237 2.166.065 1.65 8.8-2.03 12.668-4.925 5.323-1.6 4.297.158 4.03 1.834-.46 10.178-10.8 11.57-9.912 2.166 1.473-6.506 8.083-4.564 14.34.928 2.79 6.097 5.46 10.353 5.894 5.003.833 5.017-5.962 7.045-4.675 2.807 1.842-5.363 5.31 3.215 7.838 1.894.568 2.99-4.257 4.11-4.047 2.69.44-1.76 5.634 3.053 6.46 3.355.558 2.436-4.85 4.516-4.522 2.406-.154.147 8.653 6.82 7.755 2.812-.37-1.588-15.722 1.8-15.742z" stroke="#cf1126" stroke-width=".26642000000000005" fill="#fdd114"/><path d="M242.656 384.23c1.932-.413 5.244-2.208 5.382-5.106.276-3.173-4.14-4.278-9.383-3.45-2.76.415-7.45-1.38-10.21-3.726-2.76-3.45-2.76-7.31-6.07-5.656-2.484 1.103 3.45 7.45 6.346 8.97 2.9 1.517 7.59 1.38 7.866 3.586.276 2.208-1.104 5.657 6.07 5.38z" stroke="#cf1126" stroke-width=".26642000000000005" fill="#fdd114"/><path d="M360.07 399.036c-1.066.516-1.93 10.158 4.09 10.366 7.564.27 11.367-3.565 13.262-4.928 3.146-2.392 8.817-7.17 6.192-11.293-1.313-1.495-2.04 2.754-3.553 5.24-2.06 3.648-9.114 7.975-14.518 7.385-6.62-.407-4.125-7.114-5.472-6.77z" stroke="#cf1126" stroke-width=".26642000000000005" fill="#fdd114"/><path d="M375.615 394.57c-1.54-1.165 3.422-3.07 3.935-4.87.515-1.8-2.19-3.496-.687-5.468 1.578-2.597 1.664 4.895 3.67 5.11 5.55.58 1.587 4.165-.507 3.472-2.37-.707-5.482 2.63-6.41 1.755z" stroke="#cf1126" stroke-width=".26642000000000005" fill="#fdd114"/><path d="M371.317 383.225c-.357 2.5 1.16 3.126 1.61 1.697.534-2.68-.985-3.93-1.61-1.697z" stroke="#cf1126" stroke-width=".26642000000000005" fill="#fdd114"/><path d="M375.337 380.634c-.894.07-1.018 3.173.145 3.26 1.256.098.676 2.216 1.73 2.188 1.254-.033 1.35-3.552-.07-3.585-1.32-.033-1.007-1.85-1.805-1.863z" stroke="#cf1126" stroke-width=".26642000000000005" fill="#fdd114"/><path d="M385.386 380.04c-1.062 1.344-3.078-5.178 3.704-6.11 3.224.283 5.974 5.593 5.69 10.713-.108 1.894-.19 6.164-1.232 8.25-.855 1.992-3.983 8.536-5.5 7.967-1.517-.57.397-3.31 2.94-7.113 2.055-3.114 2.845-11.76 1.8-13.276s-2.092 3.795-4.266 4.933c-1.808.948-3.697-1.795-3.982-3.122-.225-1.573 1.21-2.54 2.18-.67.775 1.405 3.156-1.384 3.1-3.377.063-3.223-2.074-.667-4.434 1.807z" stroke="#cf1126" stroke-width=".26642000000000005" fill="#fdd114"/><path d="M400 365.488c-.855 1.233-3.793 3.983-4.362 5.12s-.665 3.13.283 5.027c.95 1.896 2.94 4.93 2.562 7.68-.38 2.75-2.276 8.44-1.233 7.966 1.042-.474 3.602-6.07 3.033-10.336-.57-4.267-2.56-6.637-2.18-8.06.377-1.42 2.748-4.076 3.223-5.878.474-1.803-.285-6.638-.948-7.017s-3.034.473-2.276 2.085c.76 1.612 2.37.663 1.897 3.413z" stroke="#cf1126" stroke-width=".26642000000000005" fill="#fdd114"/><path d="M403.897 367.69c-1.065.97-.535 6.253.93 4.367 1.33-1.838-.078-5.23-.93-4.366z" stroke="#cf1126" stroke-width=".250677" fill="#fdd114"/><path d="M376.027 406.918c-.5 2.312 1.778 3.044 2.404 1.723.75-2.476-1.53-3.786-2.403-1.722z" stroke="#cf1126" stroke-width=".30275" fill="#fdd114"/><path d="M379.514 404.957c-.74 1.897 2.56 2.063 3.488.98 1.11-2.034-2.193-2.674-3.488-.98z" stroke="#cf1126" stroke-width=".33423600000000003" fill="#fdd114"/><path d="M242.244 377.607c-1.765-.79-1.655 2.76-.826 3.725.826.966 5.64-1.51.826-3.725z" stroke="#cf1126" stroke-width=".26642000000000005" fill="#cf1126"/><path d="M320.15 182.7c-17.735 3.55-29.913 13.947-24.203 17.483 3.496 2.33 19.917-4.072 23.382-9.508 6.3 9.615 23.39 13.242 27.518 11.086" stroke="#000" stroke-linecap="round" stroke-width="1.422.5" fill="#cf1126"/><path d="M228.162 177.013c2.944 4.55 18.194 15.52 29.164 16.322 10.97.803 35.854 5.886 40.67 3.745 4.817-2.14 18.462-11.505 21.94-9.9 3.48 1.606 23.814 12.844 31.306 12.576 7.492-.267 55.92-13.913 57.526-16.59 1.605-2.675-9.633-9.63-16.856-9.63-7.225 0-163.75 3.745-163.75 3.477z" stroke-width=".711pt" fill="#cf1126"/><path d="M270.772 199.09c.088 2.734 2.19 4.71 7.233 4.763 8.468.177 22.793-3.828 31.35-13.443" stroke="#000" stroke-linecap="round" stroke-width="1.422.5" fill="#cf1126"/><path d="M245.368 195.03c-.44 2.294 3.353 5.293 10.762 5.38s33.255-3.086 41.546-11.73" stroke="#000" stroke-linecap="round" stroke-width="1.422.5" fill="#cf1126"/><path d="M227.87 188.083c-3.97 5.116 8.678 6.95 16.263 6.86 7.587-.087 27.165-.188 35.933-6.715" stroke="#000" stroke-linecap="round" stroke-width="1.422.5" fill="#cf1126"/><path d="M214.013 179.502c-3.793 5.028 8.952 9.444 24.477 9.09 14.29-.352 28.845-5.292 28.845-5.292" stroke="#000" stroke-linecap="round" stroke-width="1.422.5" fill="#cf1126"/><path d="M367.667 199.09c-.088 2.734-2.19 4.71-7.233 4.763-8.468.177-22.792-3.828-31.348-13.443" stroke="#000" stroke-linecap="round" stroke-width="1.422.5" fill="#cf1126"/><path d="M393.07 195.03c.442 2.294-3.35 5.293-10.76 5.38s-33.255-3.086-41.547-11.73" stroke="#000" stroke-linecap="round" stroke-width="1.422.5" fill="#cf1126"/><path d="M410.455 188.19c3.97 5.116-8.566 6.838-16.152 6.75-7.586-.09-27.164-.19-35.933-6.717" stroke="#000" stroke-linecap="round" stroke-width="1.422.5" fill="#cf1126"/><path d="M424.47 179.416c3.792 5.028-8.996 9.53-24.52 9.178-14.29-.353-28.845-5.293-28.845-5.293" stroke="#000" stroke-linecap="round" stroke-width="1.422.5" fill="#cf1126"/><path d="M244.472 179.032c-19.72 2.848-28.802 1.397-32.738-.485-4.916-2.163-13.336-8.75-.9-8.99 8.24-.162 12.394.468 21.762.42 23.965-.3 58.558-19.224 69.046-19.3 9.74-.073 12.326 4.43 17.88 4.522 5.686.065 7.527-4.596 17.268-4.524 10.487.077 45.08 19 69.045 19.3 9.368.05 13.52-.58 21.762-.42 12.437.24 4.017 6.828-.9 8.99-3.935 1.883-13.018 3.334-32.738.486" stroke="#000" stroke-linecap="round" stroke-width="1.422.5" fill="#cf1126"/><path d="M319.154 108.244c-9.277.466-22.046-1.12-26.146 9.227-6.245 11.837-4.484 25.254-1.678 25.537 5.023.554 5.5-13.4 7.642-13.42 2.24-.026 2.237 12.115 6.618 12.022 3.262-.094 5.312-12.21 6.337-12.117s3.17 11.65 7.295 11.65c4.406 0 6.27-11.557 7.295-11.65s3.076 12.023 6.338 12.116c4.38.092 4.378-12.05 6.617-12.024 2.142.02 3.085 13.882 8.11 13.328 2.804-.283 4.193-13.607-2.052-25.443-4.1-10.345-17.15-8.76-26.376-9.226z" stroke="#000" stroke-width="1.422.5" fill="#cf1126"/><path d="M296.878 112.482c2.492 4.185 21.924 4.086 23.02 4.086s18.038.2 22.024-3.886" stroke="#000" stroke-width="1.422.5" fill="#cf1126"/><path d="M315.65 68.833v41.26s.222 2.305 3.642 2.38 3.94-1.933 3.94-2.23l-.15-41.484" stroke="#000" stroke-width="1.422.5" fill="#cf1126"/><path d="M319.652 73.618c15.545-.797 20.18 8.372 24.565 10.365s6.377 2.79 12.357 2.39c5.98-.397-10.364 9.967-10.364 10.365l5.98 10.762c-5.58.798-16.15-4.354-20.33-7.174-4.728-2.792-9.965-1.196-11.958-1.595l-.25-25.112z" stroke="#000" stroke-width="1.422.5" fill="#cf1126"/><path d="M313.4 264.67c0 4.333-3.893 7.85-8.69 7.85-4.796 0-8.69-3.517-8.69-7.85 0-4.332 3.894-7.848 8.69-7.848 4.797 0 8.69 3.516 8.69 7.848z" transform="matrix(1.033 0 0 1.092 4.885 -227.99)" stroke="#000" stroke-width="1.674" fill="#cf1126"/><g stroke="#cf1126" stroke-width=".375" fill="#fdd114"><path d="M223.22 265.968c-1.184 1.657-2.206-2.7-6.275.355-2.296 1.96-3.215 4.967-3.2 11.25.016 5.325 3.08 8.88 4.858 8.525 2.723-.355 1.3-6.868 4.262-8.052 4.263-2.013 10.302 1.065 11.368 4.973s-2.013 8.17-5.33 7.696c-1.894-.71 1.067-3.433 1.304-4.618.237-1.184.59-5.092-2.25-6.157-2.842-1.065-2.368 2.843-2.487 3.91-.118 1.064-2.13 4.38-4.38 4.26-2.25-.117-5.826-.105-9.356-3.906-1.872-1.95-4.145-7.224-2.13-13.855 2.012-6.632 5.446-7.224 7.34-7.343 1.895-.118 6.75 1.066 6.277 2.96z"/><path d="M218.364 293.562c-1.975-1.056.743-4.903-4.38-3.552-2.063.574 3.078 6.512 5.327 6.75 2.49-.238 1.795-1.852-.946-3.198z"/><path d="M223.81 296.76c1.066 4.856 2.075 4.444 2.25 6.87.088 3.096-5.21 1.775-5.92 3.195-.71 1.422-1.658 5.093 1.775 5.33 3.434.236 8.363-1.084 9.355 1.302 2.674 6.714 8.377 5.74 11.036 4.696 3.007-1.204 10.085-7.582 11.7-8.13 2.403-.88-2.25-2.605-4.973-.237-.71.71-6.632 6.75-9.71 6.868-2.25.25-5.733-5.45-5.566-7.46.237-1.42 5.418-.248 6.158-3.197.55-2.107.59-4.382-1.066-4.5-1.66-.12-9.474.947-9.71-.237-1.422-3.434 1.42-4.854.354-5.802-1.184-.474-5.565-1.184-5.683 1.303z"/><path d="M250.14 315.588c-2.507 2.625-9.103 6.826-9.103 9.794 0 1.682 1.84 4.32 3.363 4.946 2.273.895 5.758.67 8.41-1.385 2.998-2.436 4.347-4.905 3.067-5.342-4.535-1.295-4.65 4.956-6.827 5.145-2.08.173-5.242-3.166-1.087-7.32 4.154-4.155 9.892-8.31 9.694-9.497-.198-1.187-5.72 1.848-7.518 3.66z"/><path d="M239.355 332.994c-.186 1.67 4.254 1.68 5.045.197.593-1.087-4.847-1.878-5.045-.196z"/><path d="M254.306 334.096c-2.505 2.624.297 5.607 2.21 8.052 1.06 1.307 3.495 2.58 5.018 3.206 2.272.895 6.8.585 9.452-1.47 3-2.437 3.235-6.715 1.414-6.735-4.706-.054-1.43 6.258-3.606 6.448-2.08.173-7.91-1.142-10.747-7.148-1.62-3.54 2.987-4.216 2.298-5.754-.703-1.653-4.24 1.587-6.04 3.4z"/><path d="M266.146 333.722c.974 1.37 4.29-1.576 3.892-3.21-.28-1.204-4.863 1.825-3.892 3.21z"/><path d="M273.16 346.353c-.134 1.926.436 4.525-1.826 4.613-2.263.086-5.134-2.96-7.397-2.872-2.262.087-3.22 1.827-2.96 2.785.262.956 4.178 2.087 10.88 1.652s5.22 3.655 9.92 3.306c4.698-.348 5.394-1.914 5.046-2.958-.348-1.044-4.35-.348-5.83-.61-1.48-.26-4.09-2.61-4.438-4.61-.348-2.003-.348-5.452 1.392-5.483 3.22-.056 1.733 2.926 1.856 3.972.108.926 1.16 1.886 2.582.203 1.886-2.233.87-5.743-.957-6.96s-7.926 2.274-8.267 6.96z"/><path d="M289.777 346.702c-.342 3.45-2.812 3.7-2.523 4.96.357 1.446 1.25 1.9 1.827 5.482.328 1.766 2.524 2.514 5.31 2.35 2.275-.063 3.83-3.146 5.307-3.047 2.087.112.348 4.836 5.222 4.787 3.914-.037 4.872-3.394 6.264-3.48 1.392-.09 1.218 3.914 4.438 3.914 3.22 0 4.612-3.654 6.09-3.74 1.568.086 1.568 3.915 6.353 3.654 4.787-.262 8.355-.957 9.486-1.914 1.132-.958 1.654-4.09 3.22-4.265 1.566-.173 4.003 2.958 6.18 2.958s6.698-5.48 8.09-5.567c1.393-.087 2.525 3.394 5.657 3.394 4.874-.087 5.443-6.423 7.713-6.722 4.09-.398 4.252-2.067 4.47-2.502.435-1.22-.032-6.932-.96-9.54-.452-1.377-5.653-12.998-8.003-13.26-2.35-.26-1.653 3.133-.26 5.135 1.392 2 8.527 11.312 7.57 14.01-.957 2.698-6.005-1.132-10.008-1.132-5.57 0-8.954 11.26-12.88 11.66-1.724.186-3.567-1.478-2.958-2.697 1.132-1.74 2.436-5.918-1.914-5.308-4.35.608-8.79 2.61-8.093 4.96.696 2.35 3.307 4.698.435 5.655s-7.83 1.22-10.268.436c-2.437-.783-.958-6.266-2.437-6.266-1.653 0-1.74 6.44-4.09 6.614-2.348.174-4.437-.783-4.96-2.61-.522-1.827.87-4.09-.695-4.35-1.567-.262-3.134 7.222-5.483 7.048s-2.436-.696-3.83-2.176c-1.39-1.48 1.22-6.526-1.13-6.96-2.35-.436-4.7 7.483-6.265 7.396-1.567-.088-3.916-.174-4.612-1.74-.35-.784-.25-5.684-.173-7.67-.044-.94-2.263-.527-2.09.534z"/><path d="M368.876 325.38c4.288 6.49 8.15 15.27 10.53 15.75 1.583.23-4.96-11.747-7.136-14.446-1.828-2.784-7.083-6.964-3.394-1.305z"/><path d="M289.482 341.333c-.64 1.576-.412 3.096.686 2.87s2.515-2.87 2.15-3.377-1.967-.956-2.836.507z"/><path d="M381.475 328.258c-.015 3.52 2.478 7.502 7.116 7.25 4.64-.25 9.727-5.38 10.103-10.645s-6.123-9.132-7.753-8.003c-1.63 1.128.612 5.055 4.776 5.297 1.783.108 1.2 3.595-2.216 6.354-3.58 2.83-8.88 2.777-10.176.824-1.002-2.758-1.915-2.778-1.85-1.076z"/><path d="M384.27 317.593c-.68 1.395.735 4.608 2.27 4.466 1.554-.153-1.773-5.39-2.27-4.467z"/><path d="M397.885 315.098c.903 2.088 1.976 5.27 3.88 5.27s3.44.514 3.44 2.124-4.962 6.972-5.124 8.786c-.276 3.092 1.978 2.93 3.076 1.244 1.098-1.683 4.068-9.603 4.686-11.787.268-1.727 2.403-4.972 2.49-8.35-.138-3.804 3.366-.728 5.05-.582 1.543.068 3.222-2.782 3.442-4.832.22-2.05-1.61-2.415-1.61-4.245 0-1.025 1.957-4.32 2.048-6.516.22-1.944-3.806-7.542-5.49-7.47-1.39.074-.22 2.124.586 3.003.805.88 2.855 2.71 2.123 4.32-1.317 3.148-7.76 3.953-8.053 7.32-.292 2.417.293 10.03-1.684 10.03s-3.595-4.755-6.662-4.758c-3.44-.092-2.908 4.852-2.195 6.443z"/><path d="M402.94 286.18c.095 1.357 2.93 7.25 4.612 7.25 2.416 0-1.098-2.782-.88-3.807s3.682-2.57 2.27-2.93c-2.523-.772-6.127-2.304-6.002-.512z"/><path d="M402.72 278.567c.512 1.903 8.345 4.758 11.713 5.71s7.468 4.98 9.006 3.66c1.536-1.317-10.324-6.002-12.08-6.66s-9.007-4.614-8.64-2.71z"/><path d="M426.367 290.867c2.93.072 1.318-5.71.586-7.102-.732-1.392-1.83 2.635-1.684 3.807.145 1.17.22 3.222 1.097 3.295z"/><path d="M409.31 262.093c-.024 1.31 8.09.38 11.86 1.39 1.628.456 7.176 3.44 8.2 2.71 1.172-1.538-7.54-4.833-12.52-4.833-1.61.025-7.51-.812-7.54.733z"/><path d="M407.185 265.826c-1.453 1.555 4.894 3.294 10.542 3.513 5.627.22 9.273 3.6 8.786 6.076-.805 4.174-7.834 1.464-6.955 3.734.512 1.757 3.603 1.112 3.953 3.002.244 1.904 2.227 2.24 2.122-.108-.012-1.868 4.36-4.944 4.25-5.822-.22-1.757-2.856-7.907-9.592-8.566-6.735-.66-11.25-3.904-13.105-1.83z"/></g><path d="M227.17 306.975c-.902-.522-4.12 2.37-2.966 3.017 2.19 1.24 4.34-2.25 2.967-3.017z" stroke="#cf1126" stroke-width=".088403" fill="#cf1126"/><path d="M234.084 303.536c-1.563-.195-2.318 3.124-1.01 3.32 3.322.46 3.977-2.96 1.01-3.32z" stroke="#cf1126" stroke-width=".088403" fill="#cf1126"/><path d="M402.59 312.847c-.74-.004-3.076 1.025-2.27 2.636.806 1.61 3.117 1.65 4.174.733.942-.892.73-3.354-1.904-3.37z" stroke="#cf1126" stroke-width=".088403" fill="#cf1126"/><path d="M411.742 305.812c.237 1.772 1.532 1.485 2.562 1.098 1.172-.512 1.514-2.06.367-2.635-1.195-.598-3.17.273-2.928 1.537z" stroke="#cf1126" stroke-width=".088403" fill="#cf1126"/><path d="M358.835 347.23c-1.578 3.485-.22 6.893 2.297 6.237s5.032-5.47 3.173-7.003-4.423-1.548-5.47.766z" stroke="#cf1126" stroke-width=".088403" fill="#cf1126"/><g fill="#cf1126"><path d="M146.54 202.595c-5.87-.533-19.21-3.202-19.744-.533-.533 2.667 7.204 33.884 11.206 37.885 4.002 4.002 22.678 12.54 24.546 11.473 1.867-1.067-3.736-20.544-5.87-24.012-2.134-3.47-8.538-16.008-8.004-16.542.534-.533-2.4-8.27-2.134-8.27z" stroke-width=".711pt"/><path d="M134.792 201.536c1.43-7.51 10.163 1.48 9.298 11.263-.426 3.32 1.43 6.975 3.22 8.763" stroke="#000" stroke-width="1.422.5"/><path d="M142.3 201.89l-.328.438c4.38-7.41 8.615 3.14 9.27 15.3" stroke="#000" stroke-width="1.422.5"/><path d="M127.24 200.733c-.252-6.07 9.606-7.813 8.996 14.127 4.298 2.782 9.356 13.402 9.61 17.196 3.225.76 8.597 4.726 9.905 8.013" stroke="#000" stroke-width="1.422.5"/><path d="M151.415 322.306c.46-16.705.724-52.476-1.025-56.356-3.076-7.184-18.55-15.513-23.266-26.806-4.72-11.948-8.744-39.2-6.828-42.486 2.51-4.734 10.875 5.817 8.6 17.45 10.115 11.886 7.988 18.966 9.86 20.484 6.24 4.804 15.764 8.092 17.45 12.39 3.467 7.692-.758-10.874-3.54-14.667-2.782-3.793-7.587-12.138-4.3-14.16 3.288-2.024 9.104 3.287 9.863 4.804s8.597 10.114 10.873 12.137c4.046 3.035 14.266 9.818 14.062 15.634-.01 9.402.824 71.25.824 71.25" stroke="#000" stroke-width="1.422.5"/><path d="M149.53 344.326s-.063 6.724-.063 6.85c2.918 3.553 15.098 3.948 17.824 3.933 2.668-.08 14.128.126 16.792-4.25.064-.127.165-5.712.165-7.247" stroke="#000" stroke-width="1.422.5"/><path d="M148.983 334.393c-3.373.75-4.255 4.872-1.875 7.873 1.93 2.435 9.935 5.248 19.12 5.437 9.184.186 21.368-3 21.93-8.06.188-5.062-4.565-4.753-4.003-4.566" stroke="#000" stroke-width="1.422.5"/><path d="M148.983 325.086c-3.373.75-4.004 5-1.624 8 1.93 2.434 10.058 5.81 19.242 5.998 9.184.187 20.806-3.562 21.368-8.622.188-5.06-3.307-4.625-3.56-4.5" stroke="#000" stroke-width="1.422.5"/><path d="M168.102 330.27c12.183.187 20.056-5.81 20.056-8.997 0-3.186-3.936-3.374-6.374-2.437-2.436.937-6.185 3.317-14.057 3.374-8.058.245-15.182-5.623-17.62-5.436-2.436.188-4.345 2.83-3.56 5.623.964 2.77 9.56 8.247 21.555 7.873z" stroke="#000" stroke-width="1.422.5"/></g><g fill="#cf1126"><path d="M493.43 202.595c5.87-.533 19.21-3.202 19.743-.533.533 2.667-7.204 33.884-11.206 37.885-4.002 4.002-22.678 12.54-24.546 11.473-1.866-1.067 3.737-20.544 5.87-24.012 2.135-3.47 8.54-16.008 8.005-16.542-.534-.533 2.4-8.27 2.134-8.27z" stroke-width=".711pt"/><path d="M505.18 201.536c-1.43-7.51-10.162 1.48-9.297 11.263.426 3.32-1.43 6.975-3.22 8.763" stroke="#000" stroke-width="1.422.5"/><path d="M497.673 201.89l.328.438c-4.38-7.41-8.614 3.14-9.268 15.3" stroke="#000" stroke-width="1.422.5"/><path d="M512.732 200.733c.253-6.07-9.605-7.813-8.995 14.127-4.298 2.782-9.356 13.402-9.61 17.196-3.225.76-8.597 4.726-9.905 8.013" stroke="#000" stroke-width="1.422.5"/><path d="M488.558 322.306c-.46-16.705-.724-52.476 1.025-56.356 3.076-7.184 18.55-15.513 23.266-26.806 4.72-11.948 8.743-39.2 6.827-42.486-2.51-4.734-10.875 5.817-8.6 17.45-10.115 11.886-7.988 18.966-9.86 20.484-6.24 4.804-15.764 8.092-17.45 12.39-3.467 7.692.758-10.874 3.54-14.667 2.782-3.793 7.587-12.138 4.3-14.16-3.288-2.024-9.104 3.287-9.863 4.804s-8.598 10.114-10.874 12.137c-4.046 3.035-14.266 9.818-14.062 15.634.01 9.402-.824 71.25-.824 71.25" stroke="#000" stroke-width="1.422.5"/><path d="M490.442 344.326s.064 6.724.064 6.85c-2.918 3.553-15.098 3.948-17.824 3.933-2.667-.08-14.127.126-16.79-4.25-.065-.127-.166-5.712-.166-7.247" stroke="#000" stroke-width="1.422.5"/><path d="M490.99 334.393c3.373.75 4.255 4.872 1.875 7.873-1.93 2.435-9.935 5.248-19.12 5.437-9.184.186-21.368-3-21.93-8.06-.188-5.062 4.565-4.753 4.003-4.566" stroke="#000" stroke-width="1.422.5"/><path d="M490.99 325.086c3.373.75 4.004 5 1.624 8-1.93 2.434-10.06 5.81-19.243 5.998-9.183.187-20.805-3.562-21.367-8.622-.188-5.06 3.307-4.625 3.56-4.5" stroke="#000" stroke-width="1.422.5"/><path d="M471.87 330.27c-12.182.187-20.055-5.81-20.055-8.997 0-3.186 3.936-3.374 6.374-2.437 2.435.937 6.184 3.317 14.056 3.374 8.058.245 15.182-5.623 17.62-5.436 2.436.188 4.345 2.83 3.56 5.623-.964 2.77-9.56 8.247-21.555 7.873z" stroke="#000" stroke-width="1.422.5"/></g></g></g></svg>