<svg xmlns="http://www.w3.org/2000/svg" height="480" width="640"><defs><clipPath id="a"><path fill-opacity=".67" d="M0 0h682.6v512H0z"/></clipPath></defs><g fill-rule="evenodd" clip-path="url(#a)" transform="scale(.938 .938)" stroke-width="1pt"><path fill="#b20000" d="M0 0h1024v340.11H0z"/><path fill="#429f00" d="M0 340.11h1024V512H0z"/><path fill="#fff" d="M0 0h113.37v512H0z"/><g fill="#b20000"><path d="M5.313 8.635h5.4v8.68h-5.4z"/><path d="M21.513 8.635h16.2v8.68h-16.2z"/><path d="M26.908-.05h5.4v8.68h-5.4z"/><path d="M53.913-.05h5.4v8.68h-5.4z"/><path d="M75.508 8.635h16.2v8.68h-16.2z"/><path d="M80.918-.05h5.4v8.68h-5.4z"/><path d="M16.118 17.316h10.8v8.682h-10.8z"/><path d="M32.318 17.316h10.8v8.682h-10.8z"/><path d="M70.113 17.316h10.8v8.682h-10.8z"/><path d="M86.313 17.316h10.8v8.682h-10.8z"/><path d="M10.708 25.998h10.8v8.68h-10.8z"/><path d="M37.713 25.998h10.8v8.68h-10.8z"/><path d="M64.718 25.998h10.8v8.68h-10.8z"/><path d="M91.708 25.998h10.8v8.68h-10.8z"/><path d="M102.513 8.635h5.4v8.68h-5.4z"/><path d="M5.313 34.68h10.8v8.68h-10.8z"/><path d="M43.108 34.68h10.8v8.68h-10.8z"/><path d="M97.118 34.68h10.8v8.68h-10.8z"/><path d="M10.708 60.72h10.8v8.683h-10.8z"/><path d="M16.118 69.403h10.8v8.682h-10.8z"/><path d="M37.713 60.72h10.8v8.683h-10.8z"/><path d="M32.318 69.403h10.8v8.682h-10.8z"/><path d="M21.513 78.085h16.2v8.68h-16.2z"/><path d="M26.908 86.765h5.4v8.682h-5.4z"/><path d="M64.718 60.723h10.8v8.68h-10.8z"/><path d="M70.113 69.403h10.8v8.682h-10.8z"/><path d="M91.708 60.72h10.8v8.683h-10.8z"/><path d="M86.313 69.403h10.8v8.682h-10.8z"/><path d="M75.508 78.085h16.2v8.68h-16.2z"/><path d="M80.918 86.765h5.4v8.682h-5.4z"/><path d="M53.913 78.085h5.4v8.68h-5.4z"/><path d="M-.082 78.085h5.4v8.68h-5.4z"/><path d="M107.908 78.085h5.4v8.68h-5.4z"/><path d="M26.908 121.49h5.4v8.682h-5.4z"/><path d="M21.513 130.17h16.2v8.682h-16.2z"/><path d="M16.118 138.852h27v8.682h-27z"/><path d="M80.918 121.49h5.4v8.682h-5.4z"/><path d="M75.508 130.17h16.2v8.682h-16.2z"/><path d="M70.113 138.852h27v8.682h-27z"/><path d="M75.508 182.257h27v8.682h-27z"/><path d="M64.718 147.534h37.8v8.68h-37.8z"/><path d="M10.708 147.534h37.8v8.68h-37.8z"/><path d="M16.118 190.94h16.2v8.68h-16.2z"/><path d="M10.708 182.257h27v8.682h-27z"/><path d="M86.313 164.895h27v8.682h-27z"/><path d="M80.918 190.94h16.2v8.68h-16.2z"/><path d="M21.513 199.62h5.4v8.68h-5.4z"/><path d="M86.313 199.62h5.4v8.68h-5.4z"/><path d="M-.082 164.895h27v8.682h-27z"/><path d="M48.518 182.257h16.2v8.682h-16.2z"/><path d="M53.913 190.94h5.4v8.68h-5.4z"/><path d="M37.713 164.895h37.8v8.682h-37.8z"/><path d="M59.308 34.68h10.8v8.68h-10.8z"/><path d="M48.518 43.36h16.2v8.68h-16.2z"/><path d="M43.108 52.04h10.8v8.683h-10.8z"/><path d="M59.308 52.04h10.8v8.683h-10.8z"/><path d="M-.082 43.36h10.8v8.68h-10.8z"/><path d="M5.313 52.04h10.8v8.683h-10.8z"/><path d="M102.513 43.36h10.8v8.68h-10.8z"/><path d="M97.118 52.04h10.8v8.683h-10.8z"/><path d="M-.082 130.17h5.4v8.682h-5.4z"/><path d="M107.908 130.17h5.4v8.682h-5.4z"/><path d="M48.518 199.62h16.2v8.68h-16.2z"/><path d="M43.108 208.3h10.8v8.682h-10.8z"/><path d="M59.308 208.3h10.8v8.682h-10.8z"/><path d="M37.713 216.983h10.8v8.68h-10.8z"/><path d="M64.718 216.983h10.8v8.68h-10.8z"/><path d="M32.318 225.663h10.8v8.68h-10.8z"/><path d="M70.113 225.663h10.8v8.68h-10.8z"/><path d="M26.908 234.344h10.8v8.682h-10.8z"/><path d="M75.508 234.344h10.8v8.682h-10.8z"/><path d="M16.118 243.025h16.2v8.68h-16.2z"/><path d="M80.918 243.025h16.2v8.68h-16.2z"/><path d="M91.708 234.344h10.8v8.682h-10.8z"/><path d="M97.118 225.663h10.8v8.68h-10.8z"/><path d="M102.513 216.983h10.8v8.68h-10.8z"/><path d="M10.708 234.344h10.8v8.682h-10.8z"/><path d="M5.313 225.663h10.8v8.68h-10.8z"/><path d="M-.082 216.983h10.8v8.68h-10.8z"/><path d="M21.513 251.706h5.4v8.682h-5.4z"/><path d="M86.313 251.706h5.4v8.682h-5.4z"/><path d="M53.913 225.663h5.4v8.68h-5.4z"/><path d="M37.713 251.706h5.4v8.682h-5.4z"/><path d="M70.113 251.706h5.4v8.682h-5.4z"/><path d="M53.913 251.706h5.4v8.682h-5.4z"/><path d="M-.082 251.706h5.4v8.682h-5.4z"/><path d="M107.908 251.706h5.4v8.682h-5.4z"/><path d="M53.913 130.17h5.4v8.682h-5.4z"/><path d="M26.908 43.36h5.4v8.68h-5.4z"/><path d="M80.918 43.36h5.4v8.68h-5.4z"/><path d="M48.518 104.128h16.2v8.682h-16.2z"/><path d="M37.713 112.808h16.2v8.682h-16.2z"/><path d="M43.108 121.49h5.4v8.682h-5.4z"/><path d="M32.318 104.128h10.8v8.682h-10.8z"/><path d="M37.713 95.447h16.2v8.68h-16.2z"/><path d="M43.108 86.765h5.4v8.682h-5.4z"/><path d="M59.308 95.447h16.2v8.68h-16.2z"/><path d="M64.718 86.765h5.4v8.682h-5.4z"/><path d="M70.113 104.128h10.8v8.682h-10.8z"/><path d="M59.308 112.808h16.2v8.682h-16.2z"/><path d="M64.718 121.49h5.4v8.682h-5.4z"/><path d="M86.313 104.128h10.8v8.682h-10.8z"/><path d="M91.708 95.447h16.2v8.68h-16.2z"/><path d="M102.513 104.128h10.8v8.682h-10.8z"/><path d="M91.708 112.808h16.2v8.682h-16.2z"/><path d="M97.118 121.49h5.4v8.682h-5.4z"/><path d="M97.118 86.765h5.4v8.682h-5.4z"/><path d="M-.082 104.128h10.8v8.682h-10.8z"/><path d="M5.313 95.447h16.2v8.68h-16.2z"/><path d="M16.118 104.128h10.8v8.682h-10.8z"/><path d="M5.313 112.808h16.2v8.682h-16.2z"/><path d="M10.708 121.49h5.4v8.682h-5.4z"/><path d="M10.708 86.765h5.4v8.682h-5.4z"/><path d="M5.313 156.214h21.6v8.682h-21.6z"/><path d="M32.318 156.214h21.6v8.682h-21.6z"/><path d="M59.308 156.214h21.6v8.682h-21.6z"/><path d="M86.313 156.214h21.6v8.682h-21.6z"/><path d="M43.108 173.576h27v8.68h-27z"/><path d="M5.313 173.576h27v8.68h-27z"/><path d="M80.918 173.576h27v8.68h-27z"/><path d="M107.908 208.3h5.4v8.682h-5.4z"/><path d="M-.082 208.3h5.4v8.682h-5.4z"/><path d="M5.313 503.46h5.4v-8.68h-5.4z"/><path d="M21.513 503.46h16.2v-8.68h-16.2z"/><path d="M26.908 512.134h5.4v-8.682h-5.4z"/><path d="M53.913 512.134h5.4v-8.682h-5.4z"/><path d="M75.508 503.46h16.2v-8.68h-16.2z"/><path d="M80.918 512.134h5.4v-8.682h-5.4z"/><path d="M16.118 494.776h10.8v-8.682h-10.8z"/><path d="M32.318 494.776h10.8v-8.682h-10.8z"/><path d="M70.113 494.776h10.8v-8.682h-10.8z"/><path d="M86.313 494.776h10.8v-8.682h-10.8z"/><path d="M37.713 486.09h10.8v-8.68h-10.8z"/><path d="M64.718 486.09h10.8v-8.68h-10.8z"/><path d="M91.708 486.09h10.8v-8.68h-10.8z"/><path d="M102.513 503.46h5.4v-8.68h-5.4z"/><path d="M5.313 477.418h10.8v-8.682h-10.8z"/><path d="M43.108 477.418h10.8v-8.682h-10.8z"/><path d="M97.118 477.418h10.8v-8.682h-10.8z"/><path d="M10.708 451.374h10.8v-8.682h-10.8z"/><path d="M16.118 442.69h10.8v-8.683h-10.8z"/><path d="M37.713 451.374h10.8v-8.682h-10.8z"/><path d="M32.318 442.69h10.8v-8.683h-10.8z"/><path d="M21.513 434.004h16.2v-8.682h-16.2z"/><path d="M26.908 425.33h5.4v-8.68h-5.4z"/><path d="M64.718 451.374h10.8v-8.682h-10.8z"/><path d="M70.113 442.69h10.8v-8.683h-10.8z"/><path d="M91.708 451.374h10.8v-8.682h-10.8z"/><path d="M86.313 442.69h10.8v-8.683h-10.8z"/><path d="M75.508 434.004h16.2v-8.682h-16.2z"/><path d="M80.918 425.33h5.4v-8.68h-5.4z"/><path d="M53.913 434.004h5.4v-8.682h-5.4z"/><path d="M-.082 434.004h5.4v-8.682h-5.4z"/><path d="M107.908 434.004h5.4v-8.682h-5.4z"/><path d="M26.908 390.602h5.4v-8.682h-5.4z"/><path d="M21.513 381.93h16.2v-8.683h-16.2z"/><path d="M16.118 373.244h27v-8.682h-27z"/><path d="M80.918 390.602h5.4v-8.682h-5.4z"/><path d="M75.508 381.93h16.2v-8.683h-16.2z"/><path d="M70.113 373.244h27v-8.682h-27z"/><path d="M75.508 329.842h27v-8.682h-27z"/><path d="M64.718 364.558h37.8v-8.68h-37.8z"/><path d="M10.708 364.558h37.8v-8.68h-37.8z"/><path d="M16.118 321.157h16.2v-8.686h-16.2z"/><path d="M10.708 329.842h27v-8.682h-27z"/><path d="M86.313 347.2h27v-8.682h-27z"/><path d="M80.918 321.157h16.2v-8.682h-16.2z"/><path d="M-.082 347.2h27v-8.682h-27z"/><path d="M48.518 329.842h16.2v-8.682h-16.2z"/><path d="M53.913 321.157h5.4v-8.682h-5.4z"/><path d="M37.713 347.2h37.8v-8.682h-37.8z"/><path d="M59.308 477.418h10.8v-8.682h-10.8z"/><path d="M48.518 468.732h16.2v-8.68h-16.2z"/><path d="M43.108 460.047h10.8v-8.682h-10.8z"/><path d="M59.308 460.047h10.8v-8.682h-10.8z"/><path d="M-.082 468.732h10.8v-8.68h-10.8z"/><path d="M5.313 460.047h10.8v-8.682h-10.8z"/><path d="M102.513 468.732h10.8v-8.68h-10.8z"/><path d="M97.118 460.047h10.8v-8.682h-10.8z"/><path d="M-.082 381.93h5.4v-8.683h-5.4z"/><path d="M107.908 381.93h5.4v-8.683h-5.4z"/><path d="M43.108 303.798h10.8v-8.68h-10.8z"/><path d="M59.308 303.798h10.8v-8.68h-10.8z"/><path d="M37.713 295.113h10.8v-8.682h-10.8z"/><path d="M64.718 295.113h10.8v-8.682h-10.8z"/><path d="M32.318 286.428h10.8v-8.682h-10.8z"/><path d="M70.113 286.428h10.8v-8.682h-10.8z"/><path d="M26.908 277.755h10.8v-8.682h-10.8z"/><path d="M75.508 277.755h10.8v-8.682h-10.8z"/><path d="M16.118 269.07h16.2v-8.682h-16.2z"/><path d="M80.918 269.07h16.2v-8.682h-16.2z"/><path d="M91.708 277.755h10.8v-8.682h-10.8z"/><path d="M97.118 286.428h10.8v-8.682h-10.8z"/><path d="M102.513 295.113h10.8v-8.682h-10.8z"/><path d="M10.708 277.755h10.8v-8.682h-10.8z"/><path d="M5.313 286.428h10.8v-8.682h-10.8z"/><path d="M-.082 295.113h10.8v-8.682h-10.8z"/><path d="M21.513 260.388h5.4v-8.682h-5.4z"/><path d="M53.913 286.428h5.4v-8.682h-5.4z"/><path d="M53.913 381.93h5.4v-8.683h-5.4z"/><path d="M26.908 468.732h5.4v-8.68h-5.4z"/><path d="M80.918 468.732h5.4v-8.68h-5.4z"/><path d="M48.518 407.972h16.2v-8.68h-16.2z"/><path d="M37.713 399.287h16.2v-8.682h-16.2z"/><path d="M43.108 390.602h5.4v-8.682h-5.4z"/><path d="M32.318 407.972h10.8v-8.68h-10.8z"/><path d="M37.713 416.645h16.2v-8.68h-16.2z"/><path d="M43.108 425.33h5.4v-8.68h-5.4z"/><path d="M59.308 416.645h16.2v-8.68h-16.2z"/><path d="M64.718 425.33h5.4v-8.68h-5.4z"/><path d="M70.113 407.972h10.8v-8.68h-10.8z"/><path d="M59.308 399.287h16.2v-8.682h-16.2z"/><path d="M64.718 390.602h5.4v-8.682h-5.4z"/><path d="M86.313 407.972h10.8v-8.68h-10.8z"/><path d="M91.708 416.645h16.2v-8.68h-16.2z"/><path d="M102.513 407.972h10.8v-8.68h-10.8z"/><path d="M91.708 399.287h16.2v-8.682h-16.2z"/><path d="M97.118 390.602h5.4v-8.682h-5.4z"/><path d="M97.118 425.33h5.4v-8.68h-5.4z"/><path d="M-.082 407.972h10.8v-8.68h-10.8z"/><path d="M5.313 416.645h16.2v-8.68h-16.2z"/><path d="M16.118 407.972h10.8v-8.68h-10.8z"/><path d="M5.313 399.287h16.2v-8.682h-16.2z"/><path d="M10.708 390.602h5.4v-8.682h-5.4z"/><path d="M10.708 425.33h5.4v-8.68h-5.4z"/><path d="M5.313 355.885h21.6v-8.68h-21.6z"/><path d="M32.318 355.885h21.6v-8.68h-21.6z"/><path d="M59.308 355.885h21.6v-8.68h-21.6z"/><path d="M86.313 355.885h21.6v-8.68h-21.6z"/><path d="M43.108 338.515h27v-8.682h-27z"/><path d="M5.313 338.515h27v-8.682h-27z"/><path d="M80.918 338.515h27v-8.682h-27z"/><path d="M107.908 303.798h5.4v-8.68h-5.4z"/><path d="M-.082 303.798h5.4v-8.68h-5.4z"/><path d="M48.518 260.388h5.4v8.682h-5.4z"/><path d="M59.308 260.388h5.4v8.682h-5.4z"/><path d="M59.308 243.025h5.4v8.68h-5.4z"/><path d="M48.518 243.025h5.4v8.68h-5.4z"/><path d="M10.708 477.418h10.8v8.68h-10.8z"/><path d="M86.313 312.47h5.4v-8.68h-5.4z"/><path d="M21.513 312.47h5.4v-8.68h-5.4z"/><path d="M48.585 303.734H64.78v8.677H48.585z"/></g></g></svg>