<svg xmlns="http://www.w3.org/2000/svg" height="480" width="640"><desc>The United States of America flag, produced by Daniel McRae</desc><defs><clipPath id="a"><path fill-opacity=".67" d="M-123.43 0h682.67v512h-682.67z"/></clipPath></defs><g fill-rule="evenodd" clip-path="url(#a)" transform="matrix(.938 0 0 .938 115.72 0)"><path stroke-width="1pt" fill="#fff" d="M-123.43 233.05H723.1v205.97h-846.53z"/><path stroke-width="1pt" fill="#081873" d="M-122.76 0h845.95v256.64h-845.95z"/><path stroke-width="1pt" fill="#081873" d="M-122.52 385.87H729.6V512h-852.12z"/><path stroke-width="1pt" fill="#de3929" d="M-122.52 302.55h845.95v39.65h-845.95z"/><path fill="#ffce08" stroke-width=".92475" d="M130.92 399.168l6.65 20.468h21.522l-17.412 12.65 6.65 20.47-17.41-12.65-17.41 12.65 6.65-20.47-17.412-12.65h21.522z"/><path fill="#ffce08" stroke-width=".92475" d="M316.91 250.498l6.65 20.468h21.522l-17.412 12.65 6.65 20.47-17.41-12.65-17.41 12.65 6.65-20.47-17.412-12.65h21.522z"/><path fill="#ffce08" stroke-width=".92475" d="M88.27 335.448l6.65 20.468h21.523l-17.412 12.65 6.652 20.47-17.41-12.65-17.412 12.65 6.65-20.47-17.41-12.65h21.52z"/><path fill="#ffce08" stroke-width=".92475" d="M316.91 329.458l6.65 20.468h21.522l-17.412 12.65 6.65 20.47-17.41-12.65-17.41 12.65 6.65-20.47-17.412-12.65h21.522z"/><path fill="#ffce08" stroke-width=".92475" d="M269.82 188.178l6.65 20.468h21.522l-17.412 12.65 6.65 20.47-17.41-12.65-17.41 12.65 6.65-20.47-17.412-12.65h21.522z"/><path fill="#ffce08" stroke-width=".92475" d="M198.74 163.428l6.65 20.468h21.522l-17.412 12.65 6.65 20.47-17.41-12.65-17.41 12.65 6.65-20.47-17.412-12.65h21.522z"/><path fill="#ffce08" stroke-width=".92475" d="M127.65 186.788l6.65 20.468h21.522l-17.412 12.65 6.65 20.47-17.41-12.65-17.41 12.65 6.65-20.47-17.412-12.65H121z"/><path fill="#ffce08" stroke-width=".92475" d="M86.184 250.498l6.65 20.468h21.522l-17.412 12.65 6.65 20.47-17.41-12.65-17.41 12.65 6.65-20.47-17.412-12.65h21.522z"/><path fill="#ffce08" stroke-width=".92475" d="M198.74 420.408l6.65 20.468h21.522l-17.412 12.65 6.65 20.47-17.41-12.65-17.41 12.65 6.65-20.47-17.412-12.65h21.522z"/><path fill="#ffce08" stroke-width=".92475" d="M274.26 399.168l6.65 20.468h21.522l-17.412 12.65 6.65 20.47-17.41-12.65-17.41 12.65 6.65-20.47-17.412-12.65h21.522z"/></g></svg>