<svg xmlns="http://www.w3.org/2000/svg" height="480" width="640"><g fill-rule="evenodd"><path stroke-width="1pt" fill="#f00" d="M0 0h640v480H0z"/><g><path stroke-width="1pt" fill="#009a00" d="M145.996 83.454h360.91v314.41h-360.91z"/><path d="M145.996 397.865h360.91l-180.46-157.19-180.46 157.19z" stroke-width="1pt" fill="#ffca00"/><path d="M145.996 83.528l180.46 157.19 180.45-157.19h-360.91z" stroke-width="1pt" fill="#ffca00"/><path fill="#ffce00" stroke-width=".958pt" d="M177.74 61.373l-16.448-11.728-16.468 11.7 6.073-19.265-16.21-12.045 20.196-.177 6.447-19.144 6.41 19.156 20.194.212-16.238 12.016z"/><path fill="#ffce00" stroke-width=".958pt" d="M342.628 61.862l-16.45-11.728-16.467 11.7 6.074-19.265-16.21-12.046 20.196-.177 6.447-19.144 6.41 19.156 20.194.21-16.237 12.017z"/><path fill="#ffce00" stroke-width=".958pt" d="M507.62 61.597L491.173 49.87l-16.468 11.7 6.073-19.266-16.21-12.045 20.196-.178 6.447-19.144 6.41 19.156 20.194.212-16.238 12.016z"/><path fill="#ffce00" stroke-width=".958pt" d="M177.74 468.8l-16.448-11.73-16.468 11.7 6.073-19.264-16.21-12.045 20.196-.176 6.447-19.144 6.41 19.156 20.194.212-16.238 12.016z"/><path fill="#ffce00" stroke-width=".958pt" d="M342.628 469.29l-16.45-11.73-16.467 11.7 6.074-19.264-16.21-12.045 20.196-.176 6.447-19.144 6.41 19.156 20.194.212-16.237 12.016z"/><path fill="#ffce00" stroke-width=".958pt" d="M507.62 469.03l-16.448-11.73-16.468 11.7 6.073-19.264-16.21-12.045 20.196-.176 6.447-19.144 6.41 19.156 20.194.212-16.238 12.016z"/><path d="M369.777 243.127c0 24.174-19.597 43.77-43.77 43.77-24.174 0-43.77-19.597-43.77-43.77 0-24.174 19.597-43.77 43.77-43.77 24.174 0 43.77 19.597 43.77 43.77z" fill="#f00"/><path fill="#ffce00" stroke-width="1.138pt" d="M345.807 270.05l-19.54-13.932-19.562 13.898 7.215-22.884-19.255-14.308 23.99-.21 7.658-22.74 7.613 22.753 23.99.253-19.29 14.274z"/><g><path d="M169.972 273.428s2.22-18.39.952-30.758c-1.27-12.366-32.978-15.855-32.978-15.855l-.317 28.856s25.367 20.612 32.342 17.758z" fill="#f00"/><path d="M123.676 200.5s3.056 16.203-1.268 48.515c-2.31 17.543 16.806 29.49 40.27 34.88-4.755-8.244-17.438-21.563-14.268-45.98 17.123 2.22 33.295 35.516 33.295 35.516s12.81-47.21-13-54.54c-25.087-7.047-45.03-18.073-45.03-18.39z" fill="#ffce00"/></g></g></g></svg>