<svg xmlns="http://www.w3.org/2000/svg" height="480" width="640"><g><g fill-rule="evenodd" stroke-width="1pt"><path fill="#06f" d="M0 0h640v479.987H0z"/><path fill="#fff" d="M213.336 0h213.336v479.997H213.336z"/></g><g><path d="M312.498 360.856c3.608-3.754 22.812-9.615 36.465-10.79 11.798-.932 19.408-8.69 26.398-9.456 20.206-20.315 46.62-28.08 63.894-67.63 3.284-11.87 5.62-26.323 5.97-40.15-6.52-46.185-10.74-44.94-20.47-75.475" stroke="#000" stroke-width="1.025" fill="none"/><path d="M348.66 354.536c.354 3.408 10.764 15.976 28.742 13.766-1.607-3.468-5.512-5.957-11.115-11.178-2.565-2.643-17.755-4.2-17.626-2.588z" fill-rule="evenodd" stroke-width=".7687499999999999" fill="#0c5c1d"/><path d="M370.06 350.965c-2.09.182-3.95 1.427-.376 4.565 6.027 5.066 27.646 9.726 30.904 3.295-9.57-1.292-15.95-3.32-16.933-3.282-4.445-1.456-10.175-4.9-13.594-4.578z" fill-rule="evenodd" stroke-width=".7687499999999999" fill="#0c5c1d"/><path d="M359.28 349.417c4.36-3 7.738-2.75 10.56-3.344 7.223-.5 12.163.492 15.187 1.743 4.475 1.927 10.994 6.75 11.82 10.254-6.644-.125-11.047-5.14-19.602-7.04-4.364-.377-12.43-.94-17.966-1.613z" fill-rule="evenodd" stroke-width=".5125" fill="#0c5c1d"/><path d="M380.79 299.84c-6.462-3.216-12.89-9.6-14.135-16.765 8.185 5.294 14.148 13.466 14.135 16.765z" fill-rule="evenodd" transform="matrix(-2.042 .184 .184 2.042 1070.168 -334.17)" stroke-width=".25" fill="#0c5c1d"/><path d="M354.85 347.96c10.657-4.62 25.093-14.976 26.846-36.51-14.62 9.2-19.297 22.81-26.845 36.51z" fill-rule="evenodd" stroke-width=".5125" fill="#0c5c1d"/><path d="M377.34 337.582c-.823-6.078 13.773-37.838 22.29-46.014.93 12.226-10.96 46.564-22.29 46.014z" fill-rule="evenodd" stroke-width=".5125" fill="#0c5c1d"/><path d="M376.89 338.8c2.216 9.42 26.307 11.866 34.085.823-9.684-1.615-21.656-2.556-34.086-.822z" fill-rule="evenodd" stroke-width=".5125" fill="#0c5c1d"/><path d="M387.664 332.264c9.853 6.206 33.868 1.856 47.863-9.24-20.906-6.3-46.785 5.715-47.863 9.24z" fill-rule="evenodd" stroke-width=".5125" fill="#0c5c1d"/><path d="M406.47 318.755c1.564-6.845 21.832-20.363 34.905-19.614-8.305 11.27-11.152 9.342-15.478 14.342-2.956 3.71-13.27 6.433-19.427 5.273z" fill-rule="evenodd" stroke-width=".5125" fill="#0c5c1d"/><path d="M351.73 280.55c3.41-1.526 1.996-11.444-.6-15.364-2.015 5.636-2.103 14.23.6 15.364z" fill-rule="evenodd" transform="matrix(-2.046 .129 .131 2.068 1096.387 -322.616)" stroke-width=".25" fill="#0c5c1d"/><path d="M423.034 295.554c-9.55-5.31-6.107-31.287-1.02-38.57 3.99 7.757 6.083 34.796 1.02 38.57z" fill-rule="evenodd" stroke-width=".5125" fill="#0c5c1d"/><path d="M426.906 295.12c5.53-8.703 24.783-9.075 33.235-5.71-9.188 8.99-23.333 9.44-33.234 5.71z" fill-rule="evenodd" stroke-width=".5125" fill="#0c5c1d"/><path d="M432.38 289.73c-7.955-12.44-3.014-19.032 1.842-34.434 2.35 13.08.455 26.88-1.84 34.434z" fill-rule="evenodd" stroke-width=".5125" fill="#0c5c1d"/><path d="M442.66 262.153c1.368-11.53 11.81-16.975 23.683-20.94-2.464 8.49-7.586 17.676-23.683 20.94z" fill-rule="evenodd" stroke-width=".51225" fill="#0c5c1d"/><path d="M439.68 268.288c-12.427-2.13-13.007-13.985-12.744-25.58 3.543 6.387 12.043 14.612 12.745 25.58z" fill-rule="evenodd" stroke-width=".5125" fill="#0c5c1d"/><path d="M436.45 248.443c2.942-7.205-2.22-26.69-14.91-33.87.2 11.93 8.318 26.757 14.91 33.87z" fill-rule="evenodd" stroke-width=".5125" fill="#0c5c1d"/><path d="M443.742 244.08c1.82-4.297 2.997-6.48 5.74-11.954 4.762-9.997 1.687-6.65 8.12-18.746 3.475 13.503-3.478 29.618-13.86 30.7z" fill-rule="evenodd" stroke-width=".51225" fill="#0c5c1d"/><path d="M444.48 207.968c-8.602 4.72-17.327 1.66-29.27-7.906 9.854-.89 18.696 3.846 29.27 7.906z" fill-rule="evenodd" stroke-width=".5125" fill="#0c5c1d"/><path d="M442.01 203.003c5.144-17.084 8.168-19.994 12.39-38.538-10.557 8.548-15.987 27.068-12.39 38.538z" fill-rule="evenodd" stroke-width=".51225" fill="#0c5c1d"/><path d="M440.31 202.19c-11.59-8.414-14.316-17.966-27.653-21.453.282 4.776 19.46 24.72 27.654 21.454z" fill-rule="evenodd" stroke-width=".5125" fill="#0c5c1d"/><path d="M437.317 190.487c-7.4-9.207-11.485-16.722-22.445-23.378 1.754 11.23 14.025 27.55 22.445 23.377z" fill-rule="evenodd" stroke-width=".5125" fill="#0c5c1d"/><path d="M423.084 169.54c2.347-12.847-13.56-21.366-19.08-27.95-.62 11.347 9.314 24.7 19.08 27.95z" fill-rule="evenodd" stroke-width=".5125" fill="#0c5c1d"/><path d="M343.46 269.86c3.472-4.803-.14-10.016-1.636-13.538-1.336 5.36-2.317 11.02 1.636 13.538z" fill-rule="evenodd" transform="matrix(1.947 -.64 .64 1.947 -418.458 -150.957)" stroke-width=".25" fill="#0c5c1d"/><path d="M438.207 177.887c4.565-7.46 1.963-24.57-.993-31.78-3.688 3.952-5.446 30.432.993 31.78z" fill-rule="evenodd" stroke-width=".5125" fill="#0c5c1d"/><path d="M430.89 162.627c5.174-9.145 2.27-18.914-.766-26.11-3.35 10.68-5.773 20.957.765 26.11z" fill-rule="evenodd" stroke-width=".51225" fill="#0c5c1d"/><path d="M441.572 235.054c7.676-.985 13.107-16.994 7.82-31.31-4.917 12.742-4.906 18.805-7.82 31.31z" fill-rule="evenodd" stroke-width=".51225" fill="#0c5c1d"/><path d="M439.735 206.794c9.553.487 15.57-7.772 20.63-22.21-7.863 5.054-11.73 18.403-20.63 22.21z" fill-rule="evenodd" stroke-width=".5125" fill="#0c5c1d"/><path d="M445.908 239.255c-8.738 2.092-18.59-20.798-11.826-33.696 7.416 14.783 9.09 20.982 11.826 33.695z" fill-rule="evenodd" stroke-width=".5125" fill="#0c5c1d"/><path d="M347.21 274.08c3.767-2.08 1.488-11.004-1.038-14.952-1.433 4.49-.448 12.12 1.038 14.952z" fill-rule="evenodd" transform="matrix(-.738 -1.913 -1.913 .738 1217.091 734.741)" stroke-width=".25" fill="#0c5c1d"/><path d="M347.73 275.84c-.228-3.294 3.665-5.04-1.917-17.473-1.114 9.7 1.24 15.694 1.917 17.473z" fill-rule="evenodd" transform="matrix(1.396 1.863 -1.714 1.283 419.579 -715.285)" stroke-width=".25" fill="#0c5c1d"/><path d="M325.674 360.862c-2.895-4.11-18.177-8.544-31.83-9.72-11.798.495-22.616-2.27-32.458-7.316-20.207-20.315-42.697-33.784-59.97-73.334-3.285-11.87-5.265-22.76-5.616-36.584 6.52-46.187 7.173-50.644 25.105-81.18" stroke="#000" stroke-width="1.025" fill="none"/><path d="M282.296 354.815c-.353 3.407-12.275 13.958-28.74 13.765 1.606-3.468 17.8-7.183 22.207-13.448 1.303-1.886 6.662-1.93 6.533-.317z" fill-rule="evenodd" stroke-width=".7687499999999999" fill="#0c5c1d"/><path d="M270.207 349.982c2.07-.35 3.194.67-.38 3.81-6.026 5.064-16.3 7.455-31.407 10.1 5.032-5.072 17.21-9.37 18.193-9.332 4.445-1.456 9.67-3.89 13.594-4.578z" fill-rule="evenodd" stroke-width=".7687499999999999" fill="#0c5c1d"/><path d="M278.975 349.444c-1.587-3.504-3.2-5.273-6.02-5.866-7.225-.5-12.922.745-15.19 1.743-2.457 1.424-10.237 6.5-11.063 10.003 5.887-1.638 9.787-6.148 18.34-7.292 4.113-1.385 9.91-1.19 13.933 1.414z" fill-rule="evenodd" stroke-width=".5125" fill="#0c5c1d"/><path d="M380.79 299.84c-6.462-3.216-10.742-7.695-11.988-14.86 8.185 5.294 12 11.56 11.988 14.86z" fill-rule="evenodd" transform="matrix(2.042 .184 -.184 2.042 -427.218 -336.665)" stroke-width=".25" fill="#0c5c1d"/><path d="M287.196 347.742c-11.917-5.127-16.27-14.725-24.576-30.463 14.873 7.436 21.062 15.247 24.576 30.462z" fill-rule="evenodd" stroke-width=".5125" fill="#0c5c1d"/><path d="M260.423 342.392c2.585-10.617-1.927-26.243-9.687-33.914-.678 11.974 1.632 31.94 9.687 33.914z" fill-rule="evenodd" stroke-width=".5125" fill="#0c5c1d"/><path d="M256.322 339.583c-2.216 9.42-26.81 9.596-34.085.822 7.415 1.663 23.674 1.982 34.085-.822z" fill-rule="evenodd" stroke-width=".5125" fill="#0c5c1d"/><path d="M249.596 332.036c-7.584 5.7-38.15-3.69-38.536-8.988 4.017-.503 37.458 5.463 38.536 8.988z" fill-rule="evenodd" stroke-width=".5125" fill="#0c5c1d"/><path d="M247.57 330.132c4.43-8.753-7.758-36.457-12.633-36.235 2.88 20.72 8.09 30.14 12.632 36.236z" fill-rule="evenodd" stroke-width=".5125" fill="#0c5c1d"/><path d="M239.594 322.814c-2.824-6.593-24.1-17.84-34.905-19.614 8.808 9.253 14.476 7.954 17.494 13.837 2.2 3.96 11.76 4.668 17.41 5.777z" fill-rule="evenodd" stroke-width=".5125" fill="#0c5c1d"/><path d="M235.597 317.832c2.216-8.31 1.107-11.635-4.323-17.62-.554 8.754.555 12.19 4.323 17.62z" fill-rule="evenodd" stroke-width=".5125" fill="#0c5c1d"/><path d="M351.73 280.55c2.918-1.89 1.135-11.566-1.46-14.27-.54 6.974-1.243 13.135 1.46 14.27z" fill-rule="evenodd" transform="matrix(2.05 0 0 2.073 -493.429 -273.133)" stroke-width=".25" fill="#0c5c1d"/><path d="M216.983 293.56c10.305-3.546 2.325-22.716-.998-30.25-3.99 7.756 2.993 11.856.998 30.25z" fill-rule="evenodd" stroke-width=".5125" fill="#0c5c1d"/><path d="M214.885 294.628c-8.554-8.198-23.775-8.824-32.226-5.458 10.194 3.444 25.852 5.657 32.225 5.458z" fill-rule="evenodd" stroke-width=".5125" fill="#0c5c1d"/><path d="M205.91 276.345c-2.238-8.53-21.116-8.492-30.23-5.458 8.2 5.105 23.858 6.987 30.23 5.458z" fill-rule="evenodd" stroke-width=".5125" fill="#0c5c1d"/><path d="M347.73 275.84c-.228-3.294 3.665-5.04-1.917-17.473-1.114 9.7 1.24 15.694 1.917 17.473z" fill-rule="evenodd" transform="matrix(-1.396 1.863 1.714 1.283 224.809 -711.985)" stroke-width=".25" fill="#0c5c1d"/><path d="M209.91 290.26c7.957-12.44 3.016-19.032-1.84-34.434-2.35 13.08-.456 26.88 1.84 34.434z" fill-rule="evenodd" stroke-width=".5125" fill="#0c5c1d"/><path d="M197.604 261.927c-2.377-11.277-13.07-16.975-23.934-18.42 2.968 5.717 11.115 7.847 23.934 18.42z" fill-rule="evenodd" stroke-width=".51225" fill="#0c5c1d"/><path d="M199.62 267.593c12.56-1.142 14.072-12.916 14.725-24.498-4.036 6.09-13.16 13.62-14.724 24.498z" fill-rule="evenodd" stroke-width=".5125" fill="#0c5c1d"/><path d="M199.43 252.67c7.326.736 16.47-15.188 13.204-27.988-5.974 14.18-6.506 19.155-13.203 27.988z" fill-rule="evenodd" stroke-width=".51225" fill="#0c5c1d"/><path d="M196.314 239.128c7.725-.464 14.226-16.07 9.92-30.71-3.573 13.54-1.944 19.475-9.92 30.71z" fill-rule="evenodd" stroke-width=".51225" fill="#0c5c1d"/><path d="M195.042 246.12c-1.86-4.517-5.395-5.967-7.05-11.862-2.998-10.545-8.705-12.208-7.832-20.45 13.273 15.455 16.78 24.692 14.882 32.31z" fill-rule="evenodd" stroke-width=".51225" fill="#0c5c1d"/><path d="M195.703 234.553c-3.33-29.878 2.588-17.165-10.353-45.332 19.276 17.267 13.95 44.166 10.353 45.333z" fill-rule="evenodd" stroke-width=".51225" fill="#0c5c1d"/><path d="M196.35 222.235c-.643-9.544 7.52-15.7 21.877-21-4.926 7.948-18.215 12.04-21.878 21z" fill-rule="evenodd" stroke-width=".5125" fill="#0c5c1d"/><path d="M200.017 200.01c-5.145-17.083-8.17-19.993-12.392-38.537 10.558 8.548 15.988 27.068 12.392 38.538z" fill-rule="evenodd" stroke-width=".51225" fill="#0c5c1d"/><path d="M204.503 199.69c11.59-8.415 14.317-17.967 27.654-21.454-.282 4.776-19.46 24.72-27.654 21.454z" fill-rule="evenodd" stroke-width=".5125" fill="#0c5c1d"/><path d="M203.717 191.778c7.4-9.207 11.485-16.722 22.445-23.378-1.754 11.23-14.025 27.55-22.445 23.378z" fill-rule="evenodd" stroke-width=".5125" fill="#0c5c1d"/><path d="M220.587 162.898c.378-13.054 17.716-18.083 24.485-23.378-1.755 11.23-14.253 22.227-24.485 23.378z" fill-rule="evenodd" stroke-width=".5125" fill="#0c5c1d"/><path d="M219.277 153.618c-2.305-11.928 8.916-18.498 14.738-23.753-2.147 11.118-5.215 22.49-14.738 23.753z" fill-rule="evenodd" stroke-width=".5125" fill="#0c5c1d"/><path d="M203.84 172.87c-4.566-7.46-1.964-24.572.992-31.78 3.688 3.95 5.446 30.43-.993 31.78z" fill-rule="evenodd" stroke-width=".5125" fill="#0c5c1d"/><path d="M211.937 162.2c-3.807-9.794.47-19.046 4.51-25.73 1.78 11.052 2.702 21.57-4.51 25.73z" fill-rule="evenodd" stroke-width=".5125" fill="#0c5c1d"/><path d="M273.48 324.187c34.732-33.972 64.93-63.416 113.25-93.77-78.217 60.93-75.8 65.685-108.72 96.263-1.358-1.133-3.17-1.36-4.53-2.493z" fill-rule="evenodd" stroke-width=".5125" fill="#6f8593"/><path d="M211.673 332.203l12.94 14.22 39.217-59.54 16.504-17.535-3.995-5.814-25.345 24.776-2.916 5.808-36.407 38.085z" fill-rule="evenodd" stroke-width=".5125" fill="#6a0d06"/><path d="M425.576 333.11l-16.564 14.67-36.95-59.99-21.49-23.426 5.81-4 28.514 28.852 2.915 5.808 37.766 38.085z" fill-rule="evenodd" stroke-width=".5125" fill="#6a0d06"/><path d="M372.03 296.8c.34-2.152 3.168-6.34-3.172-12.004.15-3.02 3.245-6.152 5.664-7.7 2.037 0 7.925 4.113 10.53 8.72 1.475 3.21 2.23 8.19.34 12.004-1.397 2.113-3.02 4.567-4.755 5.55-.83.602-2.68.413-4.19-.228-2.378-1.208-4.19-4.68-4.416-6.34z" fill-rule="evenodd" stroke-width=".5125" fill="#bbcdcd"/><path d="M292.777 190.825L263.86 161.64l-1.733.07-.6 1.926-.93 2.68-3.424 3.22-45.168-42.36 42.476 46.333 2.006.022 6.197-6.45 2.61.607 21.297 24.942 6.187-1.807z" fill-rule="evenodd" stroke-width=".5125"/><path d="M330.676 364.774c52.92-85.942 99.017-145.17 14.57-221.113-3.158-3.18-14.066-13.248-20.898-15.417-.952-6.152 3.71-15.867-8.202-16.67-5.066.268-7.567 2.078-7.464 6.652.01 3.554 1.888 5.11.92 8.29-.357 1.59-4.303 5.213-4.06 9.836 1.532 9.85 5.335 12.26 6.49 13.662 2.066 2.054 3.302 3.5 9.37 6.006.672.808 2.464 2.315 3.384 3.328 11.15 2.386 21.314 1.168 28.518 4.76 3.14.967 8.177 6.297 9.815 8.966 20.346 22.308 29.15 58.108-1.96 95.903 6.23.51 21.147-25.024 24.554-46.71-4.766 32.344-15.315 43.64-20.543 53.305 10.452-6.962 18.863-31.477 20.82-36.514-8.285 44.624-51.194 99.724-78.19 111.292 24.436-5.666 40.83-30.018 49.524-38.743-8.467 17.462-25.88 42.173-26.648 53.18z" fill-rule="evenodd" stroke-width=".5125"/><path d="M366.885 326.452c-33.825-34.198-87.806-85.84-114.61-91.503 41.753 26.952 78.52 63.192 110.08 93.995 1.36-1.133 3.17-1.36 4.53-2.493z" fill-rule="evenodd" stroke-width=".5125" fill="#6f8593"/><path d="M345.862 193.1l31.81-31.456 1.733.07.6 1.926.93 2.68 3.424 3.22 45.167-42.36-42.476 46.333-2.004.023-6.197-6.45-2.61.607-27.08 30.004-3.298-4.596z" fill-rule="evenodd" stroke-width=".5125"/><path d="M261.714 181.487c1.663-9.06 4.455-15.63 13.817-17.214 24.537-1.058 47.264-1.21 72.932-.68 7.322 5.813-.302 17.742-7.928 18.347 11.704 20.23 27.71 35.71 29.9 59.567.754 12.534-3.66 20.658-8.094 25.17-33.73.822-50.073 5.02-78.27 7.206-7.875.947-13.797-8.215-13.72-15.84.044-7.883 3.285-14.047 12.042-15.138 2.72-.295 6.503-.115 9.9-.04-6.568-19.628-31.935-42.88-30.578-61.378z" fill-rule="evenodd" stroke-width=".5125" fill="#e3cf6e"/><path d="M306.005 133.207c-2.91 9.348 4.403 17.376 5.558 18.778 2.066 2.054 3.415 3.73 9.483 6.234.672.807 9.356 5.757 10.598 6.93 9.236 2.42 14.14-1.728 24.658.853-2.706-6.683-30.802-34.092-50.297-32.796z" fill-rule="evenodd" stroke-width=".5125" fill="#336446"/><path d="M306.24 137.453c-2.83 4.623 4.643 15.693 5.797 17.095 2.067 2.054 3.416 3.73 9.484 6.234.673.808 3.68 2.33 4.12 2.86l7.955 1.455c-2.706-6.683-18.075-29.803-27.355-27.644z" fill-rule="evenodd" stroke-width=".5125" fill="#402e08"/><path d="M309.24 121.65l-1.89 1.377 2.75 1.376-.86-2.752z" fill-rule="evenodd"/><path d="M305.523 140.692c1.533 9.848 5.2 12.528 6.437 13.854 1.984 2.13 3.495 3.49 9.563 6.234 2.435 2.01 3.36 2.57 5.244 3.58l6.424.957c-2.705-6.683-18.727-21.91-27.667-24.625z" fill-rule="evenodd" stroke-width=".5125" fill="#8c361d"/><path d="M263.97 296c-.34-2.153-3.168-6.34 3.172-12.005-.15-3.02-3.245-6.152-5.664-7.7-2.037 0-7.925 4.113-10.53 8.72-1.475 3.21-2.23 8.19-.34 12.004 1.397 2.112 3.02 4.566 4.755 5.548.83.603 2.68.414 4.19-.227 2.378-1.207 4.19-4.68 4.416-6.34z" fill-rule="evenodd" stroke-width=".5125" fill="#bbcdcd"/><path d="M268.5 327.365c-2.87 3.323-14.117 9.815-16.308 12.007-1.812 2.415 2.49 5.738 5.21 6.115 4.83-3.624 9.663-8.608 14.04-11.55 6.106-5.64 5.702-6.105 15.63-3.173-1.434-5.285-11.475-9.436-17.213-10.644-9.667 1.056-14.122 5.058-16.084 10.644 6.417-4.832 10.798-7.173 14.724-3.4z" fill-rule="evenodd" stroke-width=".5125" fill="#d4be72"/><path d="M373.69 296.66c.18-1.034.76-1.59.777-3.62 2.118 3.045 3.13 4.595 5.882 8.464-.993 1.324-2.424.7-3.773.057-1.257-.805-3.06-3.4-2.886-4.9z" fill-rule="evenodd" stroke-width=".5125" fill="#fff"/><path d="M262.596 295.98c-.18-1.034-.76-1.59-.777-3.62-2.12 3.045-3.13 4.595-5.883 8.464.992 1.324 2.423.7 3.772.057 1.256-.805 3.06-3.4 2.886-4.9z" fill-rule="evenodd" stroke-width=".5125" fill="#fff"/><path d="M369.837 329.63c2.87 3.323 14.116 9.815 16.307 12.007 1.812 2.415-2.49 5.738-5.21 6.115-4.83-3.624-9.663-8.608-14.04-11.55-5.003-6.01-7.174-5.738-15.63-3.173 1.434-5.286 11.475-9.437 17.213-10.645 9.666 1.056 14.12 5.058 16.083 10.644-6.417-4.833-10.798-7.174-14.724-3.4z" fill-rule="evenodd" stroke-width=".5125" fill="#d4be72"/><path d="M292.136 242.946c2.403 3.444 4.403 11.05 4.725 15.935.428 9.45-9.156 14.254-12.414 13.855-6.19-.75-11.264-5.42-11.77-12.653.985-8.434 4.536-13.108 10.41-13.454 3.845.668 8.168 5.26 8.168 10.81-.106 4.593-1.414 9.183-4.245 9.29-6.887-.533-6.487-4.51-7.61-6.646-.292-1.574-.538-5.836.243-6.886 1.027-1.275 5.765-2.962 8.085.32 2.51 2.56-3.708-1.36-6.164.397-1.254 1.79-.426 4.7-.08 5.847.43 1.148.375 4.94 5.125 4.725 1.736-.264 2.348-3.82 2.482-7.287.268-2.374-3.07-7.153-6.407-8.168-2.322-.373-8.007 4.377-7.767 11.052.455 7.58 6.673 10.197 10.01 9.688 3.39-.906 10.463-3.575 10.17-11.13-.748-8.328-2.298-11.772-4.967-15.776 1.042 0 .965 0 2.006.082z" fill-rule="evenodd" stroke-width=".5125"/><path d="M341.787 184.09l-1.443-2.322h-31.07c-8.81.8-22.224 2.136-26.84 4.137-11.825 5.82-15.046-4.457-15.687-7.02-.687-2.35.78-6.592 3.077-8.087.908-1.736 5.984-3.636 9.053-2.488 3.47 1.467 4.98 5.848 4.426 8.813-1.042 4.405-9.377 7.125-6.413 2.642.373-1.97 1.874-7.448-.77-11.37l-2.418.478c3.362 7 .277 10.474.117 12.475-.16 3.364 2.716 3.07 4.942 2.984 1.52-.08 4.088-2.005 5.13-3.046 1.25-1.093 1.444-3.212 1.598-5.683.394-6.52-5.578-11.158-9.608-10.57-12.25 3.043-12.546 13.264-9.77 18.576 1.547 2.668 3.337 4.298 6.326 5.845 2.51.75 6.303.32 9.288-.8 5.91-2.123 15.488-4.005 27.42-4.298l32.64-.267z" fill-rule="evenodd" stroke-width=".5125"/></g><g stroke-width="1pt" fill="#8c361d"><path d="M330.982 235.01l1.283 1.87-.192.02c-.41-.42-.75-.716-1.016-.887-.27-.176-.563-.307-.883-.393-.175-.046-.434-.052-.772-.016l-.54.058 3.66 5.33c.24.352.412.57.51.655.105.084.24.154.403.21.165.05.35.066.557.043l.24-.025.13.19-3.79.403-.13-.19.24-.025c.21-.022.354-.076.433-.16.06-.058.078-.148.052-.268-.017-.086-.145-.302-.382-.65l-3.658-5.328-.523.056c-.488.05-.774.188-.862.407-.12.31-.046.722.222 1.24l-.203.022-1.283-1.87 6.505-.693z"/><path d="M312.147 237.45l1.93 2.813.144-.015c.46-.05.7-.222.716-.52.02-.296-.13-.716-.44-1.26l.203-.02 2.48 3.616-.2.022c-.314-.39-.627-.702-.938-.94-.308-.236-.583-.388-.822-.453-.242-.07-.536-.085-.882-.05l1.337 1.95c.26.38.437.61.527.69.094.083.206.146.336.19.13.044.297.055.504.033l.432-.046c.677-.072 1.116-.278 1.316-.62.204-.343.185-.83-.055-1.46l.197-.02 1.18 2.23-6.258.666-.13-.19.242-.024c.21-.022.355-.076.433-.16.06-.06.075-.147.046-.268-.017-.086-.145-.302-.382-.648l-3.12-4.545c-.214-.31-.356-.503-.422-.572-.117-.116-.246-.2-.387-.255-.2-.08-.42-.108-.652-.083l-.24.025-.13-.188 6.06-.645 1.402 2.042-.2.022c-.448-.49-.84-.83-1.178-1.028-.334-.198-.708-.33-1.118-.395-.243-.04-.638-.03-1.186.028l-.747.08z"/><path d="M305.957 244.888l.13.19-3.786.402-.128-.19.24-.024c.21-.023.355-.076.433-.16.06-.06.076-.147.047-.268-.017-.086-.145-.302-.382-.648l-3.12-4.546c-.242-.352-.413-.57-.513-.656-.1-.083-.233-.15-.398-.203-.166-.056-.35-.073-.552-.052l-.24.027-.13-.19 3.787-.402.13.188-.24.026c-.212.02-.355.076-.435.16-.06.058-.077.148-.05.27.016.084.143.3.38.647l3.12 4.544c.243.354.414.573.514.656.103.084.238.154.4.21.166.05.35.065.554.043l.24-.025z"/><path d="M300.026 243.12l1.392 2.455-6.43.685-.128-.188.24-.026c.21-.022.355-.076.434-.16.06-.06.075-.147.045-.268-.018-.086-.144-.302-.382-.65l-3.12-4.543c-.242-.354-.414-.573-.514-.657s-.232-.152-.396-.203c-.165-.056-.35-.073-.552-.05l-.24.024-.13-.19 3.862-.41.13.188-.317.033c-.208.024-.353.077-.432.162-.06.058-.077.147-.05.27.015.084.143.3.382.647l3.02 4.4c.244.355.42.578.53.672.107.09.24.153.398.188.11.02.336.013.678-.023l.603-.065c.384-.04.66-.14.827-.296.168-.156.25-.384.243-.682-.003-.298-.107-.728-.312-1.29l.218-.024z"/><path d="M344.1 241.024l-.128-.188.24-.026c.21-.022.35-.07.417-.143.07-.077.094-.17.072-.286-.017-.074-.147-.29-.392-.646l-3.117-4.545c-.242-.355-.414-.573-.513-.657s-.232-.153-.397-.203c-.166-.057-.35-.074-.553-.052l-.24.025-.128-.188 3.242-.345c.866-.092 1.64-.054 2.32.113.834.208 1.606.57 2.32 1.093.716.52 1.316 1.133 1.8 1.837.332.485.558.943.676 1.372.115.424.135.785.06 1.08-.08.294-.233.54-.463.74-.23.194-.56.363-.99.504-.19.062-.517.12-.984.17l-3.242.344zm-1.708-6.81l3.698 5.39c.196.285.33.46.403.52.072.062.154.106.245.133.132.04.287.05.47.03.594-.062.915-.303.964-.724.068-.57-.275-1.403-1.03-2.503-.61-.888-1.24-1.58-1.896-2.08-.515-.39-1.006-.64-1.472-.75-.33-.078-.79-.083-1.382-.017z"/><path d="M339.26 239.432l-2.56.272.156.706c.054.234.13.424.23.57.133.194.313.328.54.402.134.045.4.06.794.047l.13.188-2.41.256-.13-.188c.235-.066.38-.19.433-.374.05-.188.018-.558-.097-1.11l-1.19-5.79.1-.01 6.5 5.387c.617.51 1.053.825 1.31.947.192.092.406.136.64.13l.128.188-3.504.374-.13-.19.143-.016c.283-.03.454-.09.517-.175.04-.063.026-.146-.044-.248-.04-.06-.095-.123-.16-.185-.03-.03-.17-.152-.422-.365l-.975-.82zm-.442-.357l-2.712-2.266.522 2.498 2.19-.233z"/><path d="M321.605 240.044l1.328 1.936c.256.373.44.608.555.702.116.09.254.156.414.202.16.044.406.05.738.013l.13.19-3.71.394-.128-.188c.335-.036.542-.088.62-.158.08-.074.108-.162.09-.262-.016-.1-.152-.337-.408-.71l-3.075-4.485c-.258-.374-.443-.605-.558-.694-.114-.095-.252-.164-.412-.21s-.407-.05-.74-.014l-.127-.188 3.366-.36c.874-.092 1.555-.103 2.04-.03.485.072.964.25 1.435.535.468.283.846.632 1.132 1.05.35.51.445.95.29 1.325-.102.237-.338.432-.706.584l3.346 2.153c.435.277.727.448.874.513.22.09.426.13.626.12l.13.188-2.28.243-4.495-2.9-.475.05zm-2.325-3.39l2.077 3.028.305-.032c.494-.053.835-.135 1.023-.246.185-.114.27-.292.256-.53-.013-.243-.144-.546-.394-.91-.36-.526-.758-.9-1.19-1.125-.43-.225-.93-.307-1.504-.246l-.572.06z"/><path d="M308.615 240.876c.793.08 1.402.213 1.83.4.61.267 1.084.647 1.422 1.14.356.518.432.972.226 1.358-.255.47-.896.757-1.922.867l-3.68.393-.128-.188c.335-.036.54-.09.62-.16.077-.074.107-.16.09-.26s-.153-.338-.41-.712l-3.075-4.484c-.256-.375-.442-.606-.556-.695-.114-.095-.25-.164-.41-.208-.162-.045-.408-.05-.74-.015l-.128-.188 3.472-.37c.83-.088 1.466-.08 1.91.026.44.102.858.284 1.25.544.39.258.694.544.91.86.228.333.307.644.233.933-.075.284-.38.537-.912.76zm-2.04.07c.506-.055.84-.15 1.005-.283.167-.135.25-.306.242-.518-.008-.21-.116-.47-.325-.774-.21-.306-.446-.548-.706-.728-.26-.183-.54-.314-.847-.39-.304-.078-.716-.086-1.233-.028l1.865 2.72zm.274.397l1.52 2.216.17.255c.124.183.27.317.43.4.162.083.34.112.532.092.284-.03.505-.117.662-.26.16-.15.224-.344.196-.585-.03-.245-.143-.508-.336-.79-.22-.323-.497-.603-.83-.842-.333-.24-.67-.398-1.016-.47-.343-.073-.788-.08-1.33-.017z"/></g><g stroke-width="1pt" fill="#8c361d"><path d="M327.756 235.852l1.82 2.812.146-.015c.462-.05.706-.223.735-.52.03-.297-.102-.717-.39-1.26l.203-.022 2.342 3.618-.204.022c-.298-.39-.598-.703-.9-.94-.3-.236-.567-.388-.804-.453-.24-.07-.533-.086-.88-.05l1.26 1.948c.247.38.414.61.5.692.092.082.202.145.33.19.128.043.295.055.502.033l.435-.047c.68-.07 1.128-.277 1.34-.62.218-.342.22-.83 0-1.46l.2-.02 1.095 2.23-6.285.668-.122-.19.24-.025c.212-.022.36-.076.44-.16.064-.06.083-.147.058-.268-.014-.085-.133-.302-.358-.648l-2.942-4.545c-.203-.312-.335-.504-.4-.573-.112-.116-.237-.2-.377-.256-.197-.08-.414-.108-.65-.083l-.242.027-.122-.188 6.087-.647 1.323 2.043-.205.02c-.425-.487-.804-.83-1.134-1.027-.328-.2-.695-.33-1.104-.396-.24-.04-.635-.03-1.185.028l-.75.08z"/><path d="M310.014 237.313l3.405-.36.307 1.37-2.863.304.172.717c1.262-.087 2.4.105 3.415.574.836.387 1.47.912 1.897 1.574.275.425.417.855.427 1.29.008.43-.147.78-.465 1.05-.32.267-.757.43-1.307.488-.594.063-1.118.006-1.572-.17-.317-.127-.54-.285-.662-.475-.095-.146-.12-.282-.08-.406.047-.125.146-.196.3-.213.14-.015.298-.002.476.037s.515.156 1.012.35c.31.12.56.198.754.236.138.03.276.036.414.02.294-.03.477-.158.55-.383.074-.226.02-.482-.165-.767-.39-.6-1.018-1.05-1.89-1.357-.87-.307-1.784-.41-2.74-.307-.1.01-.243.027-.434.05l-.952-3.623z"/><path d="M306.337 237.55l3.658 5.65c.275.424.47.694.587.81.114.11.257.196.43.258s.4.077.674.05l.166-.02.122.19-3.83.405-.12-.188.193-.02c.31-.033.51-.09.6-.173.087-.082.116-.185.086-.308-.03-.125-.187-.404-.47-.84l-2.318-3.58c-.207-.32-.352-.517-.435-.59-.084-.08-.188-.14-.313-.186-.124-.05-.242-.067-.356-.055-.18.02-.368.097-.56.233l-.215-.173 1.925-1.444.177-.02z"/><path d="M321.337 243.512l-.122-.188.24-.026c.213-.022.354-.07.424-.143.072-.077.1-.172.085-.286-.015-.076-.138-.292-.37-.65l-2.942-4.543c-.23-.354-.39-.573-.488-.657s-.226-.152-.39-.203c-.163-.057-.346-.073-.548-.05l-.242.024-.122-.187 3.256-.345c.868-.093 1.64-.054 2.314.113.826.207 1.584.572 2.278 1.094.696.52 1.274 1.133 1.728 1.837.315.486.523.944.625 1.373.1.424.105.784.018 1.08-.09.293-.253.54-.49.74-.237.194-.573.363-1.01.504-.192.063-.52.12-.99.17l-3.256.345zm-1.447-6.81l3.49 5.39c.186.285.313.458.384.52.07.062.15.105.24.133.13.04.285.05.47.03.596-.062.926-.303.99-.725.09-.568-.22-1.403-.932-2.503-.576-.887-1.18-1.58-1.818-2.08-.5-.388-.98-.638-1.443-.75-.324-.077-.785-.083-1.38-.016z"/></g><g stroke-width="1pt" fill="#8c361d"><path d="M348.905 233.473l1.96 2.812.143-.015c.46-.05.695-.222.71-.52.015-.296-.137-.716-.453-1.26l.202-.02 2.52 3.617-.202.022c-.317-.39-.633-.704-.947-.94-.31-.237-.586-.39-.826-.454-.243-.07-.537-.086-.883-.05l1.357 1.95c.264.378.443.61.534.69.095.082.208.145.338.19.13.043.298.055.505.033l.432-.047c.676-.072 1.112-.28 1.31-.622.2-.34.176-.827-.07-1.457l.196-.02 1.205 2.23-6.25.666-.134-.19.24-.026c.212-.02.355-.076.434-.16.06-.058.074-.147.043-.267-.018-.086-.147-.302-.388-.65l-3.167-4.544c-.218-.312-.36-.504-.428-.573-.12-.115-.25-.2-.39-.254-.202-.08-.42-.11-.654-.083l-.238.025-.13-.188 6.053-.646 1.422 2.042-.2.022c-.453-.488-.848-.83-1.19-1.028-.335-.198-.71-.33-1.12-.395-.243-.04-.638-.03-1.185.028l-.747.08z"/><path d="M328.54 240.106l-1.212-4.765 2.945-.313.13.188-.233.026c-.214.023-.36.077-.438.162-.055.057-.07.145-.046.263.018.086.146.3.385.642l3.175 4.556c.246.353.42.572.52.656.1.084.235.153.403.208.166.05.35.066.553.044l.235-.024.13.188-3.775.403-.132-.19.235-.024c.214-.024.36-.077.438-.162.056-.058.07-.146.045-.267-.02-.086-.148-.303-.39-.648l-3.566-5.123 1.616 6.6-.13.013-7.175-5.956 3.39 4.866c.238.34.392.547.465.623.164.165.36.294.59.386.23.09.51.115.84.08l.132.188-2.474.264-.133-.19.075-.007c.162-.013.295-.053.4-.12.1-.068.154-.15.164-.246s-.023-.227-.095-.39c-.02-.04-.136-.212-.35-.52l-3.047-4.374c-.243-.35-.415-.565-.513-.645-.1-.083-.234-.152-.4-.202-.168-.056-.353-.073-.556-.05l-.23.023-.13-.187 2.955-.315 5.204 4.338z"/><path d="M316.126 236.964l1.96 2.813.143-.015c.458-.05.694-.223.71-.52.014-.297-.138-.717-.453-1.26l.2-.02 2.52 3.616-.2.022c-.318-.39-.634-.703-.947-.94-.31-.236-.587-.387-.827-.453-.243-.07-.537-.085-.88-.048l1.354 1.946c.265.38.444.61.535.692.095.08.207.144.338.19.13.043.297.054.504.032l.433-.046c.675-.072 1.112-.278 1.31-.62.2-.344.176-.83-.072-1.46l.197-.02 1.205 2.23-6.252.666-.13-.188.237-.026c.21-.022.354-.076.433-.16.06-.06.075-.147.044-.268-.02-.086-.15-.302-.39-.65l-3.166-4.543c-.218-.313-.36-.504-.427-.573-.12-.116-.25-.2-.39-.255-.202-.08-.42-.11-.655-.083l-.24.025-.13-.19 6.054-.645 1.423 2.043-.204.02c-.45-.487-.846-.83-1.186-1.027-.337-.196-.71-.328-1.123-.393-.24-.04-.637-.03-1.185.028l-.746.08z"/><path d="M317.3 243.632l.13.19-3.78.402-.132-.19.24-.024c.21-.023.354-.076.432-.16.06-.06.075-.147.043-.27-.017-.085-.147-.3-.388-.646l-3.167-4.546c-.245-.353-.418-.57-.52-.656-.1-.084-.233-.152-.4-.203-.164-.057-.348-.075-.55-.053l-.24.025-.13-.187 3.78-.403.13.187-.24.025c-.21.022-.353.076-.43.16-.06.06-.076.148-.05.27.018.085.148.302.39.647l3.165 4.546c.246.353.42.57.52.655.104.084.24.154.404.21.166.05.35.066.553.044l.24-.025z"/><path d="M308.23 237.384l1.303 1.87-.192.02c-.413-.42-.756-.716-1.024-.887-.27-.175-.566-.306-.887-.393-.178-.046-.436-.052-.774-.016l-.538.058 3.712 5.33c.246.353.42.572.52.655.105.086.24.155.404.21.165.052.352.067.558.045l.24-.026.13.188-3.786.404-.13-.19.238-.024c.21-.022.354-.077.433-.16.06-.06.076-.148.05-.27-.02-.085-.15-.3-.39-.647l-3.713-5.33-.523.057c-.486.052-.77.188-.855.408-.117.308-.04.72.234 1.24l-.204.02-1.303-1.868 6.498-.693z"/><path d="M290.624 239.686l1.96 2.812.143-.015c.46-.05.696-.222.71-.52.015-.296-.136-.716-.453-1.26l.202-.02 2.52 3.616-.202.02c-.318-.388-.633-.7-.946-.938-.31-.237-.586-.388-.827-.454-.243-.07-.535-.085-.88-.048l1.355 1.947c.265.38.444.61.534.692.095.08.206.144.338.188.13.044.298.055.504.033l.432-.045c.675-.072 1.113-.278 1.31-.62.2-.343.176-.83-.07-1.46l.196-.02 1.204 2.23-6.252.666-.13-.187.24-.026c.21-.022.353-.076.43-.16.06-.06.075-.147.045-.268-.018-.087-.147-.303-.39-.65l-3.166-4.544c-.216-.312-.36-.504-.426-.573-.118-.116-.248-.2-.39-.255-.2-.08-.42-.108-.653-.083l-.24.025-.13-.188 6.053-.645 1.424 2.043-.203.02c-.452-.488-.847-.83-1.186-1.027-.337-.198-.71-.33-1.124-.395-.24-.04-.636-.03-1.183.028l-.746.08z"/><path d="M286.315 239.546l1.662 2.296-.218.023c-.506-.566-1.085-1.003-1.732-1.31-.648-.31-1.207-.44-1.677-.39-.362.04-.584.164-.668.374-.082.204-.04.427.13.67.105.152.237.283.396.394.214.148.49.29.825.42.245.096.77.253 1.573.474 1.123.307 1.957.622 2.498.943.537.323.963.712 1.28 1.167.403.578.513 1.1.332 1.57-.18.463-.634.734-1.36.81-.227.026-.457.027-.692.004-.232-.022-.545-.077-.936-.167-.218-.05-.38-.068-.493-.057-.092.01-.166.054-.222.133-.055.078-.066.19-.033.338l-.198.02-1.817-2.61.197-.02c.667.717 1.36 1.246 2.072 1.585.716.337 1.332.477 1.847.422.4-.043.644-.18.735-.412.094-.232.044-.487-.148-.762-.114-.162-.27-.314-.468-.458-.197-.143-.434-.273-.714-.39-.28-.118-.734-.264-1.357-.434-.875-.24-1.53-.452-1.97-.638-.44-.187-.83-.407-1.174-.658-.34-.252-.623-.54-.848-.863-.383-.55-.498-1.042-.344-1.474.153-.433.55-.684 1.196-.752.234-.025.48-.023.738.01.197.022.452.076.77.162.316.084.523.12.62.11.09-.01.145-.045.16-.105.016-.06-.025-.195-.123-.407l.16-.017z"/><path d="M300.407 242.306l1.334 1.915c.262.376.45.61.564.703.117.09.254.157.417.202.165.044.41.05.738.014l.13.188-3.675.392-.132-.19c.337-.035.543-.087.62-.157.077-.075.106-.162.087-.262-.016-.1-.156-.337-.415-.71l-3.125-4.484c-.26-.374-.448-.605-.564-.695-.116-.093-.254-.162-.415-.207s-.407-.05-.74-.015l-.13-.187 3.154-.336c1.04-.11 1.907-.013 2.605.29.698.307 1.232.724 1.6 1.254.313.45.435.848.366 1.198-.068.35-.32.61-.75.78-.29.12-.845.222-1.666.31zm-2.357-3.383l2.08 2.986c.122-.008.213-.013.274-.02.434-.046.683-.205.747-.473.064-.273-.086-.67-.446-1.184-.357-.514-.736-.877-1.136-1.09-.4-.212-.834-.293-1.3-.244l-.218.023z"/><path d="M337.763 237.738c.792.08 1.405.214 1.833.402.613.266 1.092.646 1.436 1.138.36.52.442.972.24 1.36-.25.468-.887.756-1.91.865l-3.677.392-.133-.188c.335-.036.54-.09.62-.158.076-.076.105-.163.085-.263-.016-.1-.154-.337-.415-.71l-3.124-4.486c-.26-.372-.45-.603-.565-.692-.115-.095-.252-.164-.414-.21-.162-.043-.41-.05-.74-.014l-.13-.188 3.468-.37c.828-.087 1.466-.08 1.91.026.442.103.86.285 1.255.545.395.258.7.544.92.86.233.332.315.644.244.933-.073.284-.374.537-.904.758zm-2.038.07c.505-.054.84-.15 1-.282.167-.135.245-.308.236-.518-.01-.21-.12-.47-.33-.775-.215-.306-.454-.548-.716-.73-.262-.182-.546-.313-.85-.39-.307-.076-.718-.085-1.235-.026l1.895 2.72zm.277.397l1.545 2.217.17.255c.13.183.275.318.436.402.164.08.34.11.534.09.284-.03.504-.117.66-.262.156-.147.22-.343.19-.583-.034-.245-.148-.51-.345-.79-.225-.323-.505-.603-.84-.842-.335-.242-.676-.398-1.02-.47-.345-.074-.79-.08-1.33-.018z"/><path d="M343.45 237.686l1.35 1.936c.26.374.447.607.562.7.116.09.255.158.416.203.16.045.406.05.738.014l.132.188-3.704.395-.132-.19c.335-.034.54-.088.618-.158.078-.074.107-.16.088-.26-.018-.1-.155-.338-.415-.713l-3.125-4.483c-.26-.375-.45-.606-.564-.696-.115-.094-.255-.164-.415-.207-.16-.045-.41-.05-.74-.015l-.13-.188 3.36-.36c.878-.092 1.558-.103 2.044-.03s.966.25 1.44.535c.47.282.852.632 1.143 1.05.355.508.456.95.305 1.324-.1.237-.333.43-.7.583l3.37 2.155c.437.277.73.45.878.512.22.09.428.13.627.12l.132.188-2.28.244-4.525-2.9-.475.05zm-2.362-3.39l2.11 3.028.305-.032c.494-.053.833-.135 1.02-.247.184-.114.267-.29.25-.53-.016-.242-.15-.545-.404-.908-.37-.527-.77-.902-1.204-1.126-.43-.223-.933-.305-1.507-.244l-.572.06z"/></g><g stroke-width="1pt" fill="#8c361d"><path d="M337.1 234.46l2.663 5.65c.2.426.35.695.444.81.095.112.224.197.386.26.163.06.385.077.665.048l.17-.02.09.19-3.9.407-.09-.19.195-.02c.318-.032.527-.09.63-.17.103-.084.15-.187.14-.31-.007-.124-.114-.404-.32-.838l-1.69-3.583c-.15-.32-.26-.515-.328-.59-.072-.08-.166-.14-.282-.184-.115-.05-.23-.067-.347-.055-.185.02-.387.096-.6.233l-.186-.174 2.18-1.444.18-.02z"/><path d="M335.816 241.986l-4.36.455-.052-.112c.637-1.623.977-2.707 1.02-3.25.044-.542-.05-1.058-.28-1.547-.167-.356-.425-.64-.772-.85-.35-.212-.694-.302-1.037-.266-.56.06-.873.366-.935.922l-.234-.046c-.11-.672-.04-1.185.213-1.54.254-.354.642-.558 1.167-.613.375-.04.755.006 1.142.137.384.13.733.33 1.042.597.307.264.52.52.637.768.213.453.293.925.244 1.418-.072.667-.46 1.627-1.17 2.88l1.6-.166c.394-.04.64-.083.744-.126.106-.043.18-.104.223-.184.042-.082.07-.246.083-.494l.197-.02.526 2.04z"/><path d="M320.318 236.21l2.664 5.65c.2.426.35.695.444.81.095.112.224.197.387.26.162.06.383.077.664.048l.17-.018.09.188-3.902.407-.09-.19.198-.02c.317-.032.526-.09.63-.17.1-.084.15-.187.14-.31-.008-.124-.115-.404-.32-.838l-1.69-3.583c-.15-.32-.26-.515-.33-.59-.07-.078-.165-.14-.28-.184-.116-.05-.23-.067-.348-.055-.185.02-.386.096-.6.233l-.185-.174 2.178-1.444.18-.02z"/><path d="M309.71 237.882l1.327 2.812.148-.016c.47-.05.745-.22.826-.52.083-.295.026-.716-.17-1.26l.21-.02 1.706 3.618-.21.022c-.228-.39-.473-.703-.734-.94-.256-.236-.498-.39-.723-.453-.23-.07-.52-.086-.873-.05l.918 1.947c.18.38.305.612.378.693.077.082.176.144.295.19.122.043.287.055.498.033l.443-.047c.69-.07 1.173-.277 1.448-.62.278-.342.364-.83.257-1.46l.203-.02.7 2.23-6.4.668-.09-.19.246-.025c.215-.023.37-.076.468-.16.073-.06.108-.147.104-.268.002-.086-.08-.302-.243-.648l-2.143-4.546c-.147-.31-.246-.502-.298-.57-.092-.116-.203-.2-.332-.256-.183-.08-.395-.108-.636-.084l-.246.027-.088-.188 6.2-.647.964 2.042-.21.022c-.34-.488-.658-.83-.954-1.028-.292-.2-.636-.33-1.034-.396-.233-.04-.63-.03-1.19.028l-.765.08z"/><path d="M301.767 245.542l-.09-.19.247-.024c.215-.022.364-.07.448-.143.086-.077.132-.172.135-.287 0-.074-.085-.29-.254-.646l-2.14-4.545c-.167-.354-.29-.572-.373-.657-.08-.083-.2-.152-.354-.203-.153-.056-.333-.073-.54-.052l-.246.026-.09-.187 3.32-.346c.884-.09 1.65-.054 2.294.114.79.208 1.483.572 2.084 1.094.605.52 1.073 1.133 1.405 1.837.23.486.356.943.382 1.372.025.424-.033.786-.172 1.082-.14.292-.35.538-.62.738-.272.195-.637.364-1.1.505-.202.063-.543.12-1.02.17l-3.316.345zm-.246-6.81l2.54 5.39c.135.285.233.46.292.52.06.062.132.106.217.132.122.04.275.052.462.032.608-.064.98-.304 1.12-.726.19-.568.027-1.403-.493-2.503-.418-.887-.9-1.58-1.45-2.078-.432-.39-.87-.642-1.31-.752-.313-.08-.77-.083-1.38-.017z"/><path d="M327.532 238.76c.69.303 1.206.6 1.552.886.35.285.616.626.804 1.023.262.557.26 1.053-.01 1.487-.268.43-.788.685-1.56.765-.733.077-1.378-.032-1.938-.327-.558-.295-.952-.684-1.18-1.17-.176-.37-.213-.707-.115-1.01.1-.302.367-.596.797-.884-.783-.356-1.32-.658-1.613-.906-.29-.248-.517-.547-.682-.896-.218-.463-.2-.89.055-1.283.255-.398.75-.635 1.483-.71.707-.074 1.323.025 1.85.298.527.27.893.622 1.098 1.057.155.326.187.625.097.898-.086.27-.3.527-.638.773zm-.54-.216c.057-.185.067-.384.035-.602-.035-.218-.11-.452-.23-.703-.208-.443-.468-.77-.783-.983-.238-.164-.492-.232-.76-.204-.245.025-.414.13-.507.314-.093.18-.084.394.03.638.118.248.334.496.65.745.32.245.84.51 1.566.794zm-.585 1.19c-.067.106-.108.2-.117.283-.017.127 0 .308.048.54.05.234.132.475.25.723.15.32.32.584.51.792.187.205.383.346.59.425.208.077.4.108.57.09.265-.028.446-.14.544-.34.095-.203.07-.462-.08-.778-.31-.66-1.082-1.238-2.315-1.737z"/></g></g></svg>