<svg xmlns="http://www.w3.org/2000/svg" height="480" width="640" version="1"><defs><clipPath id="a"><path fill-opacity=".67" d="M-89.048 0h682.67v512h-682.67z"/></clipPath></defs><g clip-path="url(#a)" transform="matrix(.938 0 0 .938 83.483 0)"><path fill-rule="evenodd" stroke-width="1pt" fill="#ba0000" d="M618 512h-731.43V0H618z"/><g><g><path d="M241.832 247.775s-51.614-22.223-44.208-79.808c7.17-27.72 19.834-46.597 42.773-56.87 10.753-3.347 21.746-4.78 32.976-5.736-2.947 2.788-5.416 5.576-6.69 9.08-2.47 6.293-.638 12.347 2.627 18.4 4.142 7.01 6.61 14.258 7.407 23.656 1.513 13.222-4.14 25.967-14.576 33.694-6.61 5.097-14.415 6.85-20.788 12.664-4.938 4.86-7.964 9.718-9.08 18.16-.16 16.09 4.223 18.32 9.56 26.763z" fill-rule="evenodd" fill="#fff"/><path d="M232.034 164.458v-.24" fill-rule="evenodd" stroke="#000" stroke-width="1.376.345pt" fill="#ba0000"/><path d="M235.296 241.796c-20.076-17.764-18.322-62.443-3.028-77.338" stroke="#ba0000" stroke-width="1.376.345pt" fill="none"/><path fill-rule="evenodd" fill="#ba0000" d="M244.556 154.592l3.32 5.533-6.118-2.506-4.535 4.91.762-6.454-6.122-2.5 6.59-1.48.75-6.455 3.31 5.54 6.585-1.493z"/></g><g><path d="M246.417 244.19s6.1-55.887 63.348-65.71c28.616-1.283 50.388 5.287 66.95 24.21 6.356 9.3 10.955 19.393 15.166 29.853-3.53-2-6.92-3.542-10.647-3.732-6.743-.514-11.995 3.016-16.826 7.916-5.487 6.02-11.695 10.507-20.45 14.03-12.2 5.328-26.05 3.662-36.503-4.048-6.817-4.827-10.784-11.777-18.216-16.165-6.097-3.296-11.633-4.764-20.034-3.352-15.435 4.573-16.283 9.42-22.79 17z" fill-rule="evenodd" fill="#fff"/><path d="M323.224 210.36l.228-.072" fill-rule="evenodd" stroke="#000" stroke-width="1.376.345pt" fill="#ba0000"/><path d="M250.216 236.184c11.095-24.416 54.34-35.856 73.077-25.602" stroke="#ba0000" stroke-width="1.376.345pt" fill="none"/><path fill-rule="evenodd" fill="#ba0000" d="M336.88 219.453l-4.267 4.784.544-6.587-6.04-2.92 6.373-1.14.534-6.59 3.394 5.882 6.37-1.153-4.274 4.776 3.404 5.877z"/></g><g><path d="M250.045 247.886s54.932-11.92 82.383 39.258c10.28 26.73 10.947 49.46-1.75 71.158-6.808 8.975-14.922 16.533-23.507 23.84.78-3.982 1.167-7.687.167-11.28-1.648-6.558-6.66-10.42-12.836-13.448-7.445-3.298-13.668-7.763-19.782-14.95-8.918-9.882-11.726-23.543-7.725-35.898 2.418-7.993 7.752-13.957 9.56-22.395 1.193-6.825.83-12.54-3.17-20.06-9.223-13.19-14.087-12.457-23.34-16.226z" fill-rule="evenodd" fill="#fff"/><path d="M306.46 310.006l.138.195" fill-rule="evenodd" stroke="#000" stroke-width="1.376.345pt" fill="#ba0000"/><path d="M258.84 248.953c26.67 2.787 51.218 40.173 47.43 61.19" stroke="#ba0000" stroke-width="1.376.345pt" fill="none"/><path fill-rule="evenodd" fill="#ba0000" d="M301.788 325.37l-5.916-2.552 6.458-1.524.873-6.608 3.107 5.667 6.456-1.533-4.538 5.024 3.118 5.66-5.912-2.56-4.53 5.032z"/></g><g><path d="M249.038 253.712s26.857 49.36-14.538 90.065c-22.762 17.368-44.38 24.388-68.765 18.297-10.522-4.01-20.052-9.675-29.473-15.86 4.04-.372 7.703-1.04 10.87-3.008 5.83-3.422 8.128-9.314 9.3-16.09 1.072-8.07 3.61-15.295 8.788-23.178 6.978-11.332 19.298-17.86 32.275-17.49 8.348.075 15.568 3.52 24.17 2.883 6.885-.77 12.267-2.72 18.358-8.67 10.065-12.553 7.998-17.015 9.016-26.95z" fill-rule="evenodd" fill="#fff"/><path d="M205.274 325.28l-.148.187" fill-rule="evenodd" stroke="#000" stroke-width="1.376.345pt" fill="#ba0000"/><path d="M250.484 262.45c4.813 26.37-24.166 60.42-45.394 62.685" stroke="#ba0000" stroke-width="1.376.345pt" fill="none"/><path fill-rule="evenodd" fill="#ba0000" d="M189.378 325.53l.807-6.356 3.258 5.725 6.592-1.03-4.58 4.556 3.265 5.72-6.09-2.91-4.57 4.563.817-6.354-6.094-2.9z"/></g><g><path d="M242.96 252.462s-37.64 41.775-89.833 16.26c-23.966-15.7-37.787-33.765-40.156-58.804.285-11.265 2.457-22.143 5.16-33.093 1.694 3.69 3.543 6.924 6.455 9.257 5.17 4.362 11.495 4.57 18.28 3.42 7.973-1.673 15.635-1.684 24.798.58 13.016 2.813 23.278 12.266 27.248 24.636 2.708 7.903 1.862 15.862 5.325 23.77 3.02 6.24 6.65 10.67 14.293 14.437 15.197 5.32 18.72 1.884 28.434-.462z" fill-rule="evenodd" fill="#fff"/><path d="M160.855 234.984l-.226-.077" fill-rule="evenodd" stroke="#000" stroke-width="1.376.345pt" fill="#ba0000"/><path d="M235.194 256.736c-23.284 13.32-65.06-2.695-74.264-21.974" stroke="#ba0000" stroke-width="1.376.345pt" fill="none"/><path fill-rule="evenodd" fill="#ba0000" d="M155.38 220.032l6.28-1.343-4.323 4.98 3.178 5.9-5.842-2.826-4.317 4.99.715-6.73-5.845-2.814 6.282-1.333.704-6.73z"/></g></g></g></svg>