<svg xmlns="http://www.w3.org/2000/svg" height="480" width="640"><defs><clipPath id="a"><path fill-opacity=".67" d="M-85.31 0h682.67v512H-85.31z"/></clipPath></defs><g clip-path="url(#a)" fill-rule="evenodd" transform="matrix(.938 0 0 .938 79.98 0)"><path stroke-width="1pt" fill="#fff" d="M-191.96 0h896v512h-896z"/><path stroke-width="1pt" fill="#da0000" d="M-191.96 343.84h896V512h-896z"/><g stroke-width="1pt" fill="#fff"><path d="M-21.628 350.958h49.07v3.377h-49.07z"/><path d="M-14.312 367.842h3.377v3.28h-3.377z"/><path d="M27.59 367.8v3.38h-9.81v-3.38z"/><path d="M32.844 350.958h3.377v20.16h-3.376z"/><path d="M52.403 367.8v3.38H33.815v-3.38z"/><path d="M17.763 359.85h3.377v11.27h-3.377z"/><path d="M49.635 351.02h3.377v20.165h-3.377z"/><path d="M41.172 350.958h3.377v20.16H41.17z"/><path d="M-3.613 359.046v3.377h-17.914v-3.377z"/><path d="M35.693 359.046v3.377H17.78v-3.377z"/><path d="M17.763 359.85h3.377v11.27h-3.377z"/><path d="M17.763 359.85h3.377v11.27h-3.377z"/><path d="M17.763 359.85h3.377v11.27h-3.377z"/><path d="M-21.528 359.912h3.378v11.273h-3.378z"/><path d="M7.27 359.85h3.376v11.27H7.27z"/><path d="M-6.99 359.912h3.378v11.273H-6.99z"/><path d="M9.654 367.8v3.38H-5.488v-3.38z"/><path d="M10.662 359.046v3.377h-9.6v-3.377z"/></g><g stroke-width="1pt" fill="#fff"><path d="M-102.228 350.958h49.07v3.377h-49.07z"/><path d="M-94.912 367.842h3.377v3.28h-3.377z"/><path d="M-53.01 367.8v3.38h-9.81v-3.38z"/><path d="M-47.756 350.958h3.377v20.16h-3.376z"/><path d="M-28.197 367.8v3.38h-18.588v-3.38z"/><path d="M-62.837 359.85h3.377v11.27h-3.377z"/><path d="M-30.965 351.02h3.377v20.165h-3.377z"/><path d="M-39.428 350.958h3.377v20.16h-3.378z"/><path d="M-84.213 359.046v3.377h-17.914v-3.377z"/><path d="M-44.907 359.046v3.377H-62.82v-3.377z"/><path d="M-62.837 359.85h3.377v11.27h-3.377z"/><path d="M-62.837 359.85h3.377v11.27h-3.377z"/><path d="M-62.837 359.85h3.377v11.27h-3.377z"/><path d="M-102.128 359.912h3.378v11.273h-3.378z"/><path d="M-73.33 359.85h3.376v11.27h-3.377z"/><path d="M-87.59 359.912h3.378v11.273h-3.378z"/><path d="M-70.946 367.8v3.38h-15.142v-3.38z"/><path d="M-69.938 359.046v3.377h-9.6v-3.377z"/></g><g stroke-width="1pt" fill="#fff"><path d="M58.297 350.958h49.07v3.377h-49.07z"/><path d="M65.613 367.842h3.376v3.28h-3.377z"/><path d="M107.514 367.8v3.38h-9.81v-3.38z"/><path d="M112.77 350.958h3.376v20.16h-3.377z"/><path d="M132.328 367.8v3.38H113.74v-3.38z"/><path d="M97.687 359.85h3.377v11.27h-3.377z"/><path d="M129.56 351.02h3.376v20.165h-3.377z"/><path d="M121.097 350.958h3.377v20.16h-3.377z"/><path d="M76.312 359.046v3.377H58.398v-3.377z"/><path d="M115.618 359.046v3.377H97.705v-3.377z"/><path d="M97.687 359.85h3.377v11.27h-3.377z"/><path d="M97.687 359.85h3.377v11.27h-3.377z"/><path d="M97.687 359.85h3.377v11.27h-3.377z"/><path d="M58.397 359.912h3.378v11.273h-3.378z"/><path d="M87.194 359.85h3.377v11.27h-3.376z"/><path d="M72.935 359.912h3.378v11.273h-3.378z"/><path d="M89.58 367.8v3.38H74.436v-3.38z"/><path d="M90.587 359.046v3.377h-9.6v-3.377z"/></g><g stroke-width="1pt" fill="#fff"><path d="M622.682 350.958h49.07v3.377h-49.07z"/><path d="M629.998 367.842h3.377v3.28h-3.377z"/><path d="M671.9 367.8v3.38h-9.81v-3.38z"/><path d="M677.154 350.958h3.377v20.16h-3.376z"/><path d="M696.713 367.8v3.38h-18.588v-3.38z"/><path d="M662.073 359.85h3.377v11.27h-3.377z"/><path d="M693.945 351.02h3.377v20.165h-3.377z"/><path d="M685.482 350.958h3.377v20.16h-3.378z"/><path d="M640.697 359.046v3.377h-17.914v-3.377z"/><path d="M680.003 359.046v3.377H662.09v-3.377z"/><path d="M662.073 359.85h3.377v11.27h-3.377z"/><path d="M662.073 359.85h3.377v11.27h-3.377z"/><path d="M662.073 359.85h3.377v11.27h-3.377z"/><path d="M622.782 359.912h3.378v11.273h-3.378z"/><path d="M651.58 359.85h3.376v11.27h-3.377z"/><path d="M637.32 359.912h3.378v11.273h-3.378z"/><path d="M653.964 367.8v3.38h-15.142v-3.38z"/><path d="M654.972 359.046v3.377h-9.6v-3.377z"/></g><g stroke-width="1pt" fill="#fff"><path d="M138.742 350.958h49.07v3.377h-49.07z"/><path d="M146.058 367.842h3.377v3.28h-3.377z"/><path d="M187.96 367.8v3.38h-9.81v-3.38z"/><path d="M193.214 350.958h3.377v20.16h-3.376z"/><path d="M212.773 367.8v3.38h-18.588v-3.38z"/><path d="M178.133 359.85h3.377v11.27h-3.377z"/><path d="M210.005 351.02h3.377v20.165h-3.377z"/><path d="M201.542 350.958h3.377v20.16h-3.378z"/><path d="M156.757 359.046v3.377h-17.914v-3.377z"/><path d="M196.063 359.046v3.377H178.15v-3.377z"/><path d="M178.133 359.85h3.377v11.27h-3.377z"/><path d="M178.133 359.85h3.377v11.27h-3.377z"/><path d="M178.133 359.85h3.377v11.27h-3.377z"/><path d="M138.842 359.912h3.378v11.273h-3.378z"/><path d="M167.64 359.85h3.376v11.27h-3.377z"/><path d="M153.38 359.912h3.378v11.273h-3.378z"/><path d="M170.024 367.8v3.38h-15.142v-3.38z"/><path d="M171.032 359.046v3.377h-9.6v-3.377z"/></g><g stroke-width="1pt" fill="#fff"><path d="M219.482 350.958h49.07v3.377h-49.07z"/><path d="M226.798 367.842h3.377v3.28h-3.377z"/><path d="M268.7 367.8v3.38h-9.81v-3.38z"/><path d="M273.954 350.958h3.377v20.16h-3.376z"/><path d="M293.513 367.8v3.38h-18.588v-3.38z"/><path d="M258.873 359.85h3.377v11.27h-3.377z"/><path d="M290.745 351.02h3.377v20.165h-3.377z"/><path d="M282.282 350.958h3.377v20.16h-3.378z"/><path d="M237.497 359.046v3.377h-17.914v-3.377z"/><path d="M276.803 359.046v3.377H258.89v-3.377z"/><path d="M258.873 359.85h3.377v11.27h-3.377z"/><path d="M258.873 359.85h3.377v11.27h-3.377z"/><path d="M258.873 359.85h3.377v11.27h-3.377z"/><path d="M219.582 359.912h3.378v11.273h-3.378z"/><path d="M248.38 359.85h3.376v11.27h-3.377z"/><path d="M234.12 359.912h3.378v11.273h-3.378z"/><path d="M250.764 367.8v3.38h-15.142v-3.38z"/><path d="M251.772 359.046v3.377h-9.6v-3.377z"/></g><path stroke-width="1pt" fill="#239f40" d="M-191.96 0h896v168.16h-896z"/><g stroke-width="1pt" fill="#fff"><path d="M300.692 350.958h49.07v3.377h-49.07z"/><path d="M308.008 367.842h3.377v3.28h-3.377z"/><path d="M349.91 367.8v3.38h-9.81v-3.38z"/><path d="M355.164 350.958h3.377v20.16h-3.376z"/><path d="M374.723 367.8v3.38h-18.588v-3.38z"/><path d="M340.083 359.85h3.377v11.27h-3.377z"/><path d="M371.955 351.02h3.377v20.165h-3.377z"/><path d="M363.492 350.958h3.377v20.16h-3.378z"/><path d="M318.707 359.046v3.377h-17.914v-3.377z"/><path d="M358.013 359.046v3.377H340.1v-3.377z"/><path d="M340.083 359.85h3.377v11.27h-3.377z"/><path d="M340.083 359.85h3.377v11.27h-3.377z"/><path d="M340.083 359.85h3.377v11.27h-3.377z"/><path d="M300.792 359.912h3.378v11.273h-3.378z"/><path d="M329.59 359.85h3.376v11.27h-3.377z"/><path d="M315.33 359.912h3.378v11.273h-3.378z"/><path d="M331.974 367.8v3.38h-15.142v-3.38z"/><path d="M332.982 359.046v3.377h-9.6v-3.377z"/></g><g stroke-width="1pt" fill="#fff"><path d="M381.422 350.958h49.07v3.377h-49.07z"/><path d="M388.738 367.842h3.377v3.28h-3.377z"/><path d="M430.64 367.8v3.38h-9.81v-3.38z"/><path d="M435.894 350.958h3.377v20.16h-3.376z"/><path d="M455.453 367.8v3.38h-18.588v-3.38z"/><path d="M420.813 359.85h3.377v11.27h-3.377z"/><path d="M452.685 351.02h3.377v20.165h-3.377z"/><path d="M444.222 350.958h3.377v20.16h-3.378z"/><path d="M399.437 359.046v3.377h-17.914v-3.377z"/><path d="M438.743 359.046v3.377H420.83v-3.377z"/><path d="M420.813 359.85h3.377v11.27h-3.377z"/><path d="M420.813 359.85h3.377v11.27h-3.377z"/><path d="M420.813 359.85h3.377v11.27h-3.377z"/><path d="M381.522 359.912h3.378v11.273h-3.378z"/><path d="M410.32 359.85h3.376v11.27h-3.377z"/><path d="M396.06 359.912h3.378v11.273h-3.378z"/><path d="M412.704 367.8v3.38h-15.142v-3.38z"/><path d="M413.712 359.046v3.377h-9.6v-3.377z"/></g><g stroke-width="1pt" fill="#fff"><path d="M462.162 350.958h49.07v3.377h-49.07z"/><path d="M469.478 367.842h3.377v3.28h-3.377z"/><path d="M511.38 367.8v3.38h-9.81v-3.38z"/><path d="M516.634 350.958h3.377v20.16h-3.376z"/><path d="M536.193 367.8v3.38h-18.588v-3.38z"/><path d="M501.553 359.85h3.377v11.27h-3.377z"/><path d="M533.425 351.02h3.377v20.165h-3.377z"/><path d="M524.962 350.958h3.377v20.16h-3.378z"/><path d="M480.177 359.046v3.377h-17.914v-3.377z"/><path d="M519.483 359.046v3.377H501.57v-3.377z"/><path d="M501.553 359.85h3.377v11.27h-3.377z"/><path d="M501.553 359.85h3.377v11.27h-3.377z"/><path d="M501.553 359.85h3.377v11.27h-3.377z"/><path d="M462.262 359.912h3.378v11.273h-3.378z"/><path d="M491.06 359.85h3.376v11.27h-3.377z"/><path d="M476.8 359.912h3.378v11.273H476.8z"/><path d="M493.444 367.8v3.38h-15.142v-3.38z"/><path d="M494.452 359.046v3.377h-9.6v-3.377z"/></g><g stroke-width="1pt" fill="#fff"><path d="M543.372 350.958h49.07v3.377h-49.07z"/><path d="M550.688 367.842h3.377v3.28h-3.377z"/><path d="M592.59 367.8v3.38h-9.81v-3.38z"/><path d="M597.844 350.958h3.377v20.16h-3.376z"/><path d="M617.403 367.8v3.38h-18.588v-3.38z"/><path d="M582.763 359.85h3.377v11.27h-3.377z"/><path d="M614.635 351.02h3.377v20.165h-3.377z"/><path d="M606.172 350.958h3.377v20.16h-3.378z"/><path d="M561.387 359.046v3.377h-17.914v-3.377z"/><path d="M600.693 359.046v3.377H582.78v-3.377z"/><path d="M582.763 359.85h3.377v11.27h-3.377z"/><path d="M582.763 359.85h3.377v11.27h-3.377z"/><path d="M582.763 359.85h3.377v11.27h-3.377z"/><path d="M543.472 359.912h3.378v11.273h-3.378z"/><path d="M572.27 359.85h3.376v11.27h-3.377z"/><path d="M558.01 359.912h3.378v11.273h-3.378z"/><path d="M574.654 367.8v3.38h-15.142v-3.38z"/><path d="M575.662 359.046v3.377h-9.6v-3.377z"/></g><g stroke-width="1pt" fill="#fff"><path d="M-183.788 350.958h49.07v3.377h-49.07z"/><path d="M-176.472 367.842h3.377v3.28h-3.377z"/><path d="M-134.57 367.8v3.38h-9.81v-3.38z"/><path d="M-129.316 350.958h3.377v20.16h-3.376z"/><path d="M-109.757 367.8v3.38h-18.588v-3.38z"/><path d="M-144.397 359.85h3.377v11.27h-3.377z"/><path d="M-112.525 351.02h3.377v20.165h-3.377z"/><path d="M-120.988 350.958h3.377v20.16h-3.378z"/><path d="M-165.773 359.046v3.377h-17.914v-3.377z"/><path d="M-126.467 359.046v3.377h-17.913v-3.377z"/><path d="M-144.397 359.85h3.377v11.27h-3.377z"/><path d="M-144.397 359.85h3.377v11.27h-3.377z"/><path d="M-144.397 359.85h3.377v11.27h-3.377z"/><path d="M-183.688 359.912h3.378v11.273h-3.378z"/><path d="M-154.89 359.85h3.376v11.27h-3.377z"/><path d="M-169.15 359.912h3.378v11.273h-3.378z"/><path d="M-152.506 367.8v3.38h-15.142v-3.38z"/><path d="M-151.498 359.046v3.377h-9.6v-3.377z"/></g><g stroke-width="1pt" fill="#fff"><path d="M-21.628 143.442h49.07v3.377h-49.07z"/><path d="M-14.312 160.326h3.377v3.28h-3.377z"/><path d="M27.59 160.285v3.378h-9.81v-3.378z"/><path d="M32.844 143.442h3.377v20.16h-3.376z"/><path d="M52.403 160.285v3.378H33.815v-3.378z"/><path d="M17.763 152.333h3.377v11.27h-3.377z"/><path d="M49.635 143.504h3.377v20.165h-3.377z"/><path d="M41.172 143.442h3.377v20.16H41.17z"/><path d="M-3.613 151.53v3.377h-17.914v-3.377z"/><path d="M35.693 151.53v3.377H17.78v-3.377z"/><path d="M17.763 152.333h3.377v11.27h-3.377z"/><path d="M17.763 152.333h3.377v11.27h-3.377z"/><path d="M17.763 152.333h3.377v11.27h-3.377z"/><path d="M-21.528 152.396h3.378v11.273h-3.378z"/><path d="M7.27 152.333h3.376v11.27H7.27z"/><path d="M-6.99 152.396h3.378v11.273H-6.99z"/><path d="M9.654 160.285v3.378H-5.488v-3.378z"/><path d="M10.662 151.53v3.377h-9.6v-3.377z"/></g><g stroke-width="1pt" fill="#fff"><path d="M-102.228 143.442h49.07v3.377h-49.07z"/><path d="M-94.912 160.326h3.377v3.28h-3.377z"/><path d="M-53.01 160.285v3.378h-9.81v-3.378z"/><path d="M-47.756 143.442h3.377v20.16h-3.376z"/><path d="M-28.197 160.285v3.378h-18.588v-3.378z"/><path d="M-62.837 152.333h3.377v11.27h-3.377z"/><path d="M-30.965 143.504h3.377v20.165h-3.377z"/><path d="M-39.428 143.442h3.377v20.16h-3.378z"/><path d="M-84.213 151.53v3.377h-17.914v-3.377z"/><path d="M-44.907 151.53v3.377H-62.82v-3.377z"/><path d="M-62.837 152.333h3.377v11.27h-3.377z"/><path d="M-62.837 152.333h3.377v11.27h-3.377z"/><path d="M-62.837 152.333h3.377v11.27h-3.377z"/><path d="M-102.128 152.396h3.378v11.273h-3.378z"/><path d="M-73.33 152.333h3.376v11.27h-3.377z"/><path d="M-87.59 152.396h3.378v11.273h-3.378z"/><path d="M-70.946 160.285v3.378h-15.142v-3.378z"/><path d="M-69.938 151.53v3.377h-9.6v-3.377z"/></g><g stroke-width="1pt" fill="#fff"><path d="M58.297 143.442h49.07v3.377h-49.07z"/><path d="M65.613 160.326h3.376v3.28h-3.377z"/><path d="M107.514 160.285v3.378h-9.81v-3.378z"/><path d="M112.77 143.442h3.376v20.16h-3.377z"/><path d="M132.328 160.285v3.378H113.74v-3.378z"/><path d="M97.687 152.333h3.377v11.27h-3.377z"/><path d="M129.56 143.504h3.376v20.165h-3.377z"/><path d="M121.097 143.442h3.377v20.16h-3.377z"/><path d="M76.312 151.53v3.377H58.398v-3.377z"/><path d="M115.618 151.53v3.377H97.705v-3.377z"/><path d="M97.687 152.333h3.377v11.27h-3.377z"/><path d="M97.687 152.333h3.377v11.27h-3.377z"/><path d="M97.687 152.333h3.377v11.27h-3.377z"/><path d="M58.397 152.396h3.378v11.273h-3.378z"/><path d="M87.194 152.333h3.377v11.27h-3.376z"/><path d="M72.935 152.396h3.378v11.273h-3.378z"/><path d="M89.58 160.285v3.378H74.436v-3.378z"/><path d="M90.587 151.53v3.377h-9.6v-3.377z"/></g><g stroke-width="1pt" fill="#fff"><path d="M622.682 143.442h49.07v3.377h-49.07z"/><path d="M629.998 160.326h3.377v3.28h-3.377z"/><path d="M671.9 160.285v3.378h-9.81v-3.378z"/><path d="M677.154 143.442h3.377v20.16h-3.376z"/><path d="M696.713 160.285v3.378h-18.588v-3.378z"/><path d="M662.073 152.333h3.377v11.27h-3.377z"/><path d="M693.945 143.504h3.377v20.165h-3.377z"/><path d="M685.482 143.442h3.377v20.16h-3.378z"/><path d="M640.697 151.53v3.377h-17.914v-3.377z"/><path d="M680.003 151.53v3.377H662.09v-3.377z"/><path d="M662.073 152.333h3.377v11.27h-3.377z"/><path d="M662.073 152.333h3.377v11.27h-3.377z"/><path d="M662.073 152.333h3.377v11.27h-3.377z"/><path d="M622.782 152.396h3.378v11.273h-3.378z"/><path d="M651.58 152.333h3.376v11.27h-3.377z"/><path d="M637.32 152.396h3.378v11.273h-3.378z"/><path d="M653.964 160.285v3.378h-15.142v-3.378z"/><path d="M654.972 151.53v3.377h-9.6v-3.377z"/></g><g stroke-width="1pt" fill="#fff"><path d="M138.742 143.442h49.07v3.377h-49.07z"/><path d="M146.058 160.326h3.377v3.28h-3.377z"/><path d="M187.96 160.285v3.378h-9.81v-3.378z"/><path d="M193.214 143.442h3.377v20.16h-3.376z"/><path d="M212.773 160.285v3.378h-18.588v-3.378z"/><path d="M178.133 152.333h3.377v11.27h-3.377z"/><path d="M210.005 143.504h3.377v20.165h-3.377z"/><path d="M201.542 143.442h3.377v20.16h-3.378z"/><path d="M156.757 151.53v3.377h-17.914v-3.377z"/><path d="M196.063 151.53v3.377H178.15v-3.377z"/><path d="M178.133 152.333h3.377v11.27h-3.377z"/><path d="M178.133 152.333h3.377v11.27h-3.377z"/><path d="M178.133 152.333h3.377v11.27h-3.377z"/><path d="M138.842 152.396h3.378v11.273h-3.378z"/><path d="M167.64 152.333h3.376v11.27h-3.377z"/><path d="M153.38 152.396h3.378v11.273h-3.378z"/><path d="M170.024 160.285v3.378h-15.142v-3.378z"/><path d="M171.032 151.53v3.377h-9.6v-3.377z"/></g><g stroke-width="1pt" fill="#fff"><path d="M219.482 143.442h49.07v3.377h-49.07z"/><path d="M226.798 160.326h3.377v3.28h-3.377z"/><path d="M268.7 160.285v3.378h-9.81v-3.378z"/><path d="M273.954 143.442h3.377v20.16h-3.376z"/><path d="M293.513 160.285v3.378h-18.588v-3.378z"/><path d="M258.873 152.333h3.377v11.27h-3.377z"/><path d="M290.745 143.504h3.377v20.165h-3.377z"/><path d="M282.282 143.442h3.377v20.16h-3.378z"/><path d="M237.497 151.53v3.377h-17.914v-3.377z"/><path d="M276.803 151.53v3.377H258.89v-3.377z"/><path d="M258.873 152.333h3.377v11.27h-3.377z"/><path d="M258.873 152.333h3.377v11.27h-3.377z"/><path d="M258.873 152.333h3.377v11.27h-3.377z"/><path d="M219.582 152.396h3.378v11.273h-3.378z"/><path d="M248.38 152.333h3.376v11.27h-3.377z"/><path d="M234.12 152.396h3.378v11.273h-3.378z"/><path d="M250.764 160.285v3.378h-15.142v-3.378z"/><path d="M251.772 151.53v3.377h-9.6v-3.377z"/></g><g stroke-width="1pt" fill="#fff"><path d="M300.692 143.442h49.07v3.377h-49.07z"/><path d="M308.008 160.326h3.377v3.28h-3.377z"/><path d="M349.91 160.285v3.378h-9.81v-3.378z"/><path d="M355.164 143.442h3.377v20.16h-3.376z"/><path d="M374.723 160.285v3.378h-18.588v-3.378z"/><path d="M340.083 152.333h3.377v11.27h-3.377z"/><path d="M371.955 143.504h3.377v20.165h-3.377z"/><path d="M363.492 143.442h3.377v20.16h-3.378z"/><path d="M318.707 151.53v3.377h-17.914v-3.377z"/><path d="M358.013 151.53v3.377H340.1v-3.377z"/><path d="M340.083 152.333h3.377v11.27h-3.377z"/><path d="M340.083 152.333h3.377v11.27h-3.377z"/><path d="M340.083 152.333h3.377v11.27h-3.377z"/><path d="M300.792 152.396h3.378v11.273h-3.378z"/><path d="M329.59 152.333h3.376v11.27h-3.377z"/><path d="M315.33 152.396h3.378v11.273h-3.378z"/><path d="M331.974 160.285v3.378h-15.142v-3.378z"/><path d="M332.982 151.53v3.377h-9.6v-3.377z"/></g><g stroke-width="1pt" fill="#fff"><path d="M381.422 143.442h49.07v3.377h-49.07z"/><path d="M388.738 160.326h3.377v3.28h-3.377z"/><path d="M430.64 160.285v3.378h-9.81v-3.378z"/><path d="M435.894 143.442h3.377v20.16h-3.376z"/><path d="M455.453 160.285v3.378h-18.588v-3.378z"/><path d="M420.813 152.333h3.377v11.27h-3.377z"/><path d="M452.685 143.504h3.377v20.165h-3.377z"/><path d="M444.222 143.442h3.377v20.16h-3.378z"/><path d="M399.437 151.53v3.377h-17.914v-3.377z"/><path d="M438.743 151.53v3.377H420.83v-3.377z"/><path d="M420.813 152.333h3.377v11.27h-3.377z"/><path d="M420.813 152.333h3.377v11.27h-3.377z"/><path d="M420.813 152.333h3.377v11.27h-3.377z"/><path d="M381.522 152.396h3.378v11.273h-3.378z"/><path d="M410.32 152.333h3.376v11.27h-3.377z"/><path d="M396.06 152.396h3.378v11.273h-3.378z"/><path d="M412.704 160.285v3.378h-15.142v-3.378z"/><path d="M413.712 151.53v3.377h-9.6v-3.377z"/></g><g stroke-width="1pt" fill="#fff"><path d="M462.162 143.442h49.07v3.377h-49.07z"/><path d="M469.478 160.326h3.377v3.28h-3.377z"/><path d="M511.38 160.285v3.378h-9.81v-3.378z"/><path d="M516.634 143.442h3.377v20.16h-3.376z"/><path d="M536.193 160.285v3.378h-18.588v-3.378z"/><path d="M501.553 152.333h3.377v11.27h-3.377z"/><path d="M533.425 143.504h3.377v20.165h-3.377z"/><path d="M524.962 143.442h3.377v20.16h-3.378z"/><path d="M480.177 151.53v3.377h-17.914v-3.377z"/><path d="M519.483 151.53v3.377H501.57v-3.377z"/><path d="M501.553 152.333h3.377v11.27h-3.377z"/><path d="M501.553 152.333h3.377v11.27h-3.377z"/><path d="M501.553 152.333h3.377v11.27h-3.377z"/><path d="M462.262 152.396h3.378v11.273h-3.378z"/><path d="M491.06 152.333h3.376v11.27h-3.377z"/><path d="M476.8 152.396h3.378v11.273H476.8z"/><path d="M493.444 160.285v3.378h-15.142v-3.378z"/><path d="M494.452 151.53v3.377h-9.6v-3.377z"/></g><g stroke-width="1pt" fill="#fff"><path d="M543.372 143.442h49.07v3.377h-49.07z"/><path d="M550.688 160.326h3.377v3.28h-3.377z"/><path d="M592.59 160.285v3.378h-9.81v-3.378z"/><path d="M597.844 143.442h3.377v20.16h-3.376z"/><path d="M617.403 160.285v3.378h-18.588v-3.378z"/><path d="M582.763 152.333h3.377v11.27h-3.377z"/><path d="M614.635 143.504h3.377v20.165h-3.377z"/><path d="M606.172 143.442h3.377v20.16h-3.378z"/><path d="M561.387 151.53v3.377h-17.914v-3.377z"/><path d="M600.693 151.53v3.377H582.78v-3.377z"/><path d="M582.763 152.333h3.377v11.27h-3.377z"/><path d="M582.763 152.333h3.377v11.27h-3.377z"/><path d="M582.763 152.333h3.377v11.27h-3.377z"/><path d="M543.472 152.396h3.378v11.273h-3.378z"/><path d="M572.27 152.333h3.376v11.27h-3.377z"/><path d="M558.01 152.396h3.378v11.273h-3.378z"/><path d="M574.654 160.285v3.378h-15.142v-3.378z"/><path d="M575.662 151.53v3.377h-9.6v-3.377z"/></g><g stroke-width="1pt" fill="#fff"><path d="M-183.788 143.442h49.07v3.377h-49.07z"/><path d="M-176.472 160.326h3.377v3.28h-3.377z"/><path d="M-134.57 160.285v3.378h-9.81v-3.378z"/><path d="M-129.316 143.442h3.377v20.16h-3.376z"/><path d="M-109.757 160.285v3.378h-18.588v-3.378z"/><path d="M-144.397 152.333h3.377v11.27h-3.377z"/><path d="M-112.525 143.504h3.377v20.165h-3.377z"/><path d="M-120.988 143.442h3.377v20.16h-3.378z"/><path d="M-165.773 151.53v3.377h-17.914v-3.377z"/><path d="M-126.467 151.53v3.377h-17.913v-3.377z"/><path d="M-144.397 152.333h3.377v11.27h-3.377z"/><path d="M-144.397 152.333h3.377v11.27h-3.377z"/><path d="M-144.397 152.333h3.377v11.27h-3.377z"/><path d="M-183.688 152.396h3.378v11.273h-3.378z"/><path d="M-154.89 152.333h3.376v11.27h-3.377z"/><path d="M-169.15 152.396h3.378v11.273h-3.378z"/><path d="M-152.506 160.285v3.378h-15.142v-3.378z"/><path d="M-151.498 151.53v3.377h-9.6v-3.377z"/></g><g stroke-width="1pt" fill="#d90000"><path d="M-68.83 339.507h6.048v10.505h-6.048z"/><path d="M91.702 339.507h6.048v10.505h-6.048z"/><path d="M-192.003 339.507h6.048v10.505h-6.048z"/><path d="M-110.532 339.492h6.047v10.503h-6.047z"/><path d="M-29.637 339.492h6.047v10.503h-6.047z"/><path d="M10.388 339.492h6.047v10.503h-6.047z"/><path d="M51.25 339.492h6.046v10.503H51.25z"/><path d="M131.727 339.507h6.048v10.505h-6.048z"/><path d="M334.783 339.507h6.048v10.505h-6.047z"/><path d="M172.582 339.492h6.047v10.503h-6.048z"/><path d="M212.617 339.492h6.047v10.503h-6.047z"/><path d="M253.055 339.492h6.047v10.503h-6.047z"/><path d="M293.503 339.492h6.047v10.503h-6.047z"/><path d="M616.65 339.507h6.047v10.505h-6.048z"/><path d="M373.976 339.492h6.047v10.503h-6.047z"/><path d="M414.837 339.492h6.047v10.503h-6.047z"/><path d="M456.12 339.492h6.048v10.503h-6.047z"/><path d="M494.897 339.492h6.047v10.503h-6.047z"/><path d="M536.17 339.492h6.047v10.503h-6.047z"/><path d="M576.618 339.492h6.047v10.503h-6.047z"/><path d="M696.296 339.507h6.048v10.505h-6.048z"/><path d="M657.514 339.492h6.047v10.503h-6.046z"/><path d="M-151.39 339.507h6.048v10.505h-6.048z"/></g><g stroke-width="1pt" fill="#239e3f"><path d="M-68.83 162.607h6.048v10.505h-6.048z"/><path d="M91.702 162.607h6.048v10.505h-6.048z"/><path d="M-192.003 162.607h6.048v10.505h-6.048z"/><path d="M-110.532 162.592h6.047v10.503h-6.047z"/><path d="M-29.637 162.592h6.047v10.503h-6.047z"/><path d="M10.388 162.592h6.047v10.503h-6.047z"/><path d="M51.25 162.592h6.046v10.503H51.25z"/><path d="M131.727 162.607h6.048v10.505h-6.048z"/><path d="M334.783 162.607h6.048v10.505h-6.047z"/><path d="M172.582 162.592h6.047v10.503h-6.048z"/><path d="M212.617 162.592h6.047v10.503h-6.047z"/><path d="M253.055 162.592h6.047v10.503h-6.047z"/><path d="M293.503 162.592h6.047v10.503h-6.047z"/><path d="M616.65 162.607h6.047v10.505h-6.048z"/><path d="M373.976 162.592h6.047v10.503h-6.047z"/><path d="M414.837 162.592h6.047v10.503h-6.047z"/><path d="M456.12 162.592h6.048v10.503h-6.047z"/><path d="M494.897 162.592h6.047v10.503h-6.047z"/><path d="M536.17 162.592h6.047v10.503h-6.047z"/><path d="M576.618 162.592h6.047v10.503h-6.047z"/><path d="M696.296 162.607h6.048v10.505h-6.048z"/><path d="M657.514 162.592h6.047v10.503h-6.046z"/><path d="M-151.39 162.607h6.048v10.505h-6.048z"/></g><g fill="#da0000"><path d="M279.8 197.49c8.453 10.36 34.51 67.65-15.73 105.18-23.62 17.776-8.994 18.674-8.296 21.662 37.966-20.167 50.366-47.49 50.078-71.966-.29-24.476-13.266-46.102-26.052-54.873z"/><path d="M284.826 194.826c18.75 9.6 59.553 57.88 15.635 112.344 27.29-6.056 61.982-86.417-15.634-112.344z"/><path d="M227.245 194.826c-18.75 9.6-59.553 57.88-15.635 112.344-27.288-6.056-61.98-86.417 15.635-112.344z"/><path d="M232.2 197.49c-8.454 10.36-34.512 67.65 15.73 105.18 23.618 17.776 8.993 18.674 8.294 21.662-37.965-20.167-50.365-47.49-50.077-71.966.29-24.476 13.265-46.102 26.052-54.873z"/><path d="M304.198 319.11c-14.86.237-33.593-2.046-47.486-9.266 2.288 4.45 4.19 7.252 6.477 11.7 13.25 1.223 31.534 2.735 41.008-2.433z"/><path d="M209.225 319.11c14.86.237 33.593-2.046 47.487-9.266-2.29 4.45-4.19 7.252-6.478 11.7-13.25 1.223-31.535 2.735-41.01-2.433z"/><path d="M236.482 180.397c3.01 8.002 10.91 9.165 19.365 4.454 6.16 3.698 15.69 3.932 18.976-4.066 2.5 19.784-18.305 15.104-19.08 11.23-7.745 7.488-22.165 3.164-19.26-11.617z"/><path d="M256.402 331.57l7.813-8.93 1.117-120.18-9.302-8.184-9.3 7.813 1.86 120.92 7.812 8.557z"/></g></g></svg>