<svg xmlns="http://www.w3.org/2000/svg" height="480" width="640"><defs><clipPath id="a"><path fill-opacity=".67" d="M-84.95 0h682.67v512H-84.95z"/></clipPath></defs><g clip-path="url(#a)" fill-rule="evenodd" transform="matrix(.938 0 0 .938 79.64 0)"><path stroke-width="1pt" fill="#be0027" d="M-128 0h768.77v512H-128z"/><path d="M105.45 261.14c13.658-16.61 41.95-.4 65.045-12.36-27.358 1.505-42.27-13.128-63.884-11.077 22.396-13.757 41.462 4.5 66.503-2.84-33.165-2.79-31.727-17.614-61.884-19.72 26.787-11.425 40.035 11.75 66.275 6.48-30.927-7.14-35.045-25.356-58.04-29.212 33.61-5.072 31.418 14.795 64.365 17.22-33.44-14.344-24.676-26.796-52.645-37.722 31.297-.74 29.222 20.95 60.93 26.64-27.144-17.22-23.79-32.935-46.15-45.232 26.525.48 29.115 27.63 56.185 36.04-24.148-19.16-17.797-35.313-38.664-52.423 26.383 6.188 22.542 29.61 50.02 44.552-20.364-22.615-12.55-38.805-30.315-57.318 25.375 8.172 15.736 30.432 42.066 51.595-15.094-24.855-5.775-40.707-20.63-61.677 23.56 12.166 12.152 34.872 34.024 57.558-10.295-25.508.015-41.352-10.507-63.94 20.152 15.056 8.166 39.322 24.422 62.47-5.926-31.918 7.84-37.17 3.557-65.123 15.306 18.79-1.802 37.58 9.95 65.26-1.432-31.476 15.293-38.795 12.393-64.067 15.17 22.645-8.507 42.353 1.395 66.605 2.56-29.864 22.185-37.597 22.49-60.836 11.933 21.332-14.11 36.672-9.884 64.955 8.57-31.196 29.476-35.05 31.943-56.025 7.234 24.678-21.266 36.15-19.6 63.5 8.49-27.735 34.62-30.988 39.963-51.475 3.297 26.107-22.4 30.742-29.635 59.585 13.512-23.54 37.143-25.47 47.783-44.09-.834 25.816-29.843 29.2-38.747 53.373 16.725-20.51 37.69-16.95 54.415-35.135-1.765 23.3-31.293 21.982-47.01 46.104 18.137-16.732 45.436-11.718 59.33-26.125-.673 20.607-36.907 19.058-53.995 37.478 21.075-11.545 47.757-4.764 63.225-15.487-2.826 18.07-41.076 13.846-59.356 27.947 25.21-6.985 44.677 3.81 65.102-3.995-9.94 17.587-44.634 6.455-63.054 17.888 21.88-3.705 45.126 9.55 65.09 5.297-6.56 15.2-44.58-.918-65.09 8.538 24.51-.215 40.403 15.434 63.134 14.4-12.363 13.762-45.788-5.163-65.262-1.93 23.76 4.914 41.91 24.6 59.926 25.55-14.784 11.35-42.423-14.498-64.864-11.216 23.105 6.184 42.516 32.47 55.774 33.047-14.284 9.762-42.517-22.464-61.86-21.32 23.495 10.62 34.27 37.516 49.697 41.297-19.1 6.128-37.868-29.217-58.39-30.442 23.77 14.993 25.114 37.918 43.417 48.124-19.257 4.708-32.964-35.167-53.26-38.532 19.49 14.327 22.43 44.93 35.352 54.608-19.607 1.036-26.692-40.714-46.787-46.678 17.216 14.38 13.094 45.58 26.48 58.863-20.426-4.19-17.793-40.538-39.118-52.778 15.32 19.32 7.526 46.845 17.51 62.336-19.87-8.038-11.24-40.568-30.21-58.99 10.35 20.582-.773 44.586 7.388 64.486-18.153-8.854-5.944-47.384-19.856-62.666 6.395 23.786-5.4 43.47-.646 64.794-18.56-21.526 2.817-43.19-13.28-65.125 4.272 25.177-13.337 42.697-10.568 63.77-14.716-17.19 7.905-44.773-3.528-66.477 2.462 24.754-20.276 46.44-18.715 62.03-11.978-19.968 13.298-43.583 6.53-66.286-1.425 23.572-24.37 36.382-28.69 57.856-7.714-23.69 19.563-40.812 17.208-64.09-7.81 22.144-29.982 31.023-37.793 52.484-6.395-23.623 25.914-36.167 26.768-61.02-9.987 23.308-36.522 28.426-45.28 46.264-3.27-23.5 33.808-34.007 35.188-56.275-11.936 21.383-40.97 22.25-50.99 39.255-1.52-23.416 37.58-26.316 43.72-50.825-11.883 18.278-43.735 15.907-56.987 30.767 2.088-21.722 44.387-23.066 51.128-42.6-15.723 15.168-44.963 8.882-61.426 20.913 9.163-21.335 48.838-16.812 57.808-32.267-17.564 9.164-48.68.28-63.997 9.444 13.92-20.206 44.803-8.135 62.28-22.05-28.428 4.143-45.506-7.17-65.182-1.933z" fill="#ff0"/><path d="M355.94 256.11c0 54.8-44.425 99.224-99.224 99.224-54.8 0-99.222-44.424-99.222-99.223 0-54.8 44.424-99.22 99.222-99.22 54.8 0 99.223 44.422 99.223 99.22z" fill="#ff0"/><path d="M343.17 256.307c0 47.644-38.623 86.265-86.265 86.265-47.643 0-86.264-38.622-86.264-86.265s38.623-86.264 86.265-86.264c47.644 0 86.265 38.622 86.265 86.264z" fill="#be0027"/><path d="M331.156 256.487c0 40.91-33.164 74.075-74.074 74.075s-74.075-33.165-74.075-74.075c0-40.91 33.165-74.075 74.075-74.075 40.91 0 74.074 33.165 74.074 74.075z" fill="#ff0"/><path d="M194.04 207.95c20.5-.45 46.033 1.418 62.86 14.893 17.858-11.154 39.004-16.31 60.54-14.313 3.674 6.705 7.348 13.41 11.024 20.115-15.99-1.613-31.59.646-50.095 8.124 23.596 18.695 35.394 42.808 34.62 72.143-2.706 3.352-6.962 7.09-9.67 10.443 3.933-28.496-11.088-60.28-32.88-76.978 17.73 25.596 28.304 48.676 25.34 80.46-3.16 1.87-6.9 4.513-10.06 6.383 4.64-28.044-1.932-60.925-22.628-80.073 11.926 17.537 23.854 49 16.44 81.04-3.225.968-8.19 3.676-11.412 4.643 8.317-26.24 3.093-59.056-10.832-78.72-13.796 19.795-18.31 50.03-10.445 77.947-3.87-.967-6.77-2.128-10.637-3.095-5.673-30.043 2.193-63.957 15.86-81.62-13.925 8.06-27.078 42.614-23.404 77.946-3.352-1.547-5.932-2.708-9.283-4.256-4.514-26.37 7.412-60.666 24.563-80.46-19.47 12.25-35.266 42.294-32.494 74.658-2.967-2.643-5.74-3.932-8.705-6.575-3.417-28.24 12.894-56.67 32.106-73.69-16.18-7.223-30.042-8.64-50.093-8.32 3.16-6.51 6.125-14.182 9.284-20.694z" fill="#be0027"/></g></svg>