<svg xmlns="http://www.w3.org/2000/svg" height="480" width="640" version="1"><g stroke-width="1pt" fill-rule="evenodd"><g><path fill="#f41408" d="M0 0h639.998v480H0z"/><path fill="#21873b" d="M0 319.997h639.998V480H0z"/><path d="M0 0h639.998v160.003H0z"/></g><g><path d="M220.48 141.06c22.307-49.262 84.5-72.826 138.83-52.597 27.36 10.188 46.74 27.754 57.986 52.56l-196.81.037z" fill="#f31509"/><path d="M194.51 147.425c-23.45-1.577-48.377-6.456-52.444-7.798-4.066-1.343-4.223-3.585-3.722-5.303.5-1.717 3.096-3.667 6.127-2.94 5.683 1.363 28.79 6.905 50.035 16.044z" fill="#f31509"/><path d="M319.14 61.514c-4.21-20.98-5.272-44.078-4.86-47.985.41-3.907 2.764-4.61 4.723-4.6 1.96.007 4.693 1.795 4.68 4.637-.027 5.33-.132 27.003-4.544 47.948z" fill="#f31509"/><path d="M330.68 62c-2.21-21.23-1.087-44.325-.31-48.185.78-3.86 3.19-4.376 5.142-4.216 1.952.16 4.507 2.152 4.224 4.983-.53 5.308-2.682 26.893-9.057 47.418z" fill="#f31509"/><path d="M341.14 63.286c-.277-21.322 2.94-44.256 4.065-48.046 1.126-3.79 3.576-4.123 5.506-3.818 1.93.305 4.296 2.483 3.758 5.283-1.01 5.25-5.113 26.6-13.33 46.58z" fill="#f31509"/><path d="M352.15 65.52c1.792-21.263 7.22-43.85 8.71-47.537 1.49-3.684 3.963-3.82 5.855-3.364 1.894.457 4.04 2.815 3.23 5.56-1.514 5.15-7.673 26.09-17.796 45.34z" fill="#f31509"/><path d="M363 68.653c3.866-21.034 11.485-43.097 13.33-46.647 1.843-3.55 4.32-3.488 6.16-2.88 1.84.61 3.747 3.13 2.674 5.8-2.01 5.007-10.2 25.37-22.16 43.726z" fill="#f31509"/><path d="M373.11 72.484c5.835-20.657 15.506-42.048 17.678-45.443 2.172-3.393 4.634-3.14 6.41-2.39 1.777.75 3.438 3.408 2.117 5.986-2.478 4.833-12.552 24.486-26.206 41.848z" fill="#f31509"/><path d="M383.06 77.207c7.807-20.113 19.506-40.655 21.998-43.863 2.49-3.21 4.92-2.76 6.617-1.873 1.697.888 3.095 3.67 1.53 6.13-2.935 4.62-14.868 23.397-30.146 39.608z" fill="#f31509"/><path d="M392.47 82.675c9.71-19.42 23.34-38.958 26.13-41.958 2.79-3 5.166-2.36 6.771-1.343 1.607 1.018 2.733 3.9.937 6.228-3.367 4.368-17.06 22.132-33.838 37.074z" fill="#f31509"/><path d="M401.33 88.875c11.543-18.577 27-36.963 30.07-39.73 3.067-2.768 5.373-1.943 6.874-.802 1.502 1.14 2.345 4.1.332 6.278-3.775 4.086-19.126 20.698-37.277 34.255z" fill="#f31509"/><path d="M409.58 95.765c13.29-17.59 30.463-34.68 33.786-37.192 3.324-2.514 5.54-1.51 6.926-.254 1.386 1.255 1.94 4.27-.275 6.28-4.154 3.77-21.05 19.1-40.44 31.166z" fill="#f31509"/><path d="M417.16 103.31c14.942-16.466 33.7-32.123 37.254-34.362 3.554-2.24 5.665-1.062 6.924.3 1.26 1.36 1.52 4.407-.88 6.234-4.505 3.424-22.816 17.352-43.3 27.828z" fill="#f31509"/><path d="M423.68 111.045c16.41-15.274 36.548-29.45 40.296-31.413 3.748-1.96 5.743-.63 6.872.823 1.13 1.452 1.108 4.508-1.454 6.146-4.803 3.072-24.338 15.56-45.715 24.445z" fill="#f31509"/><path d="M429.58 119.433c17.79-13.944 39.192-26.508 43.112-28.172 3.92-1.663 5.782-.18 6.77 1.354.987 1.534.678 4.578-2.03 6.01-5.075 2.688-25.715 13.615-47.853 20.808z" fill="#f31509"/><path d="M435.05 128.99c19.137-12.39 41.73-23.103 45.803-24.43 4.073-1.328 5.775.304 6.602 1.915.827 1.61.208 4.615-2.633 5.814-5.33 2.25-26.996 11.396-49.773 16.7z" fill="#f31509"/><path d="M439.23 138.22c20.24-10.855 43.762-19.77 47.945-20.777 4.183-1.006 5.725.753 6.396 2.422.673 1.67-.228 4.614-3.172 5.588-5.522 1.827-27.974 9.255-51.17 12.768z" fill="#f31509"/><path d="M442.59 148.006c21.215-9.197 45.513-16.198 49.778-16.867 4.265-.668 5.63 1.207 6.136 2.923.507 1.716-.676 4.578-3.704 5.313-5.678 1.378-28.765 6.984-52.21 8.63z" fill="#f31509"/><path d="M307.85 61.912c-6.33-20.538-9.745-43.448-9.734-47.373.01-3.925 2.283-4.82 4.234-4.977 1.952-.157 4.856 1.394 5.132 4.225.518 5.31 2.624 26.898.367 48.123z" fill="#f31509"/><path d="M296.75 63.213c-8.284-19.958-13.89-42.51-14.257-46.42-.367-3.91 1.81-4.983 3.74-5.294 1.928-.31 4.97 1.004 5.518 3.802 1.028 5.248 5.205 26.587 5 47.91z" fill="#f31509"/><path d="M285.72 65.413C275.53 46.195 267.75 24.178 267 20.31c-.747-3.864 1.318-5.106 3.21-5.57 1.89-.463 5.05.603 5.867 3.347 1.532 5.146 7.766 26.07 9.633 47.325z" fill="#f31509"/><path d="M275.32 68.36c-11.95-18.366-21.76-39.704-22.86-43.5-1.106-3.793.835-5.19 2.676-5.796 1.84-.608 5.088.212 6.16 2.883 2.01 5.008 10.18 25.376 14.03 46.412z" fill="#f31509"/><path d="M265.16 72.13c-13.65-17.368-25.44-37.866-26.9-41.56-1.46-3.696.342-5.238 2.118-5.986 1.778-.748 5.09-.184 6.41 2.395 2.475 4.833 12.54 24.49 18.362 45.15z" fill="#f31509"/><path d="M254.89 76.934c-15.314-16.183-29.09-35.636-30.91-39.196-1.82-3.56-.18-5.243 1.516-6.133 1.695-.89 5.05-.6 6.62 1.86 2.945 4.613 14.922 23.37 22.774 43.47z" fill="#f31509"/><path d="M245.54 82.306c-16.8-14.924-32.37-33.226-34.53-36.63-2.154-3.404-.678-5.21.926-6.23 1.605-1.02 4.975-.99 6.774 1.337 3.372 4.364 17.09 22.113 26.826 41.524z" fill="#f31509"/><path d="M236.78 88.282c-18.14-13.57-35.383-30.6-37.848-33.825-2.465-3.226-1.165-5.14.337-6.278 1.502-1.14 4.863-1.375 6.874.805 3.77 4.088 19.108 20.71 30.635 39.297z" fill="#f31509"/><path d="M228.27 95.23c-19.4-12.053-38.25-27.62-41.02-30.634-2.774-3.014-1.666-5.024-.282-6.28 1.385-1.258 4.71-1.762 6.926.247 4.158 3.766 21.068 19.083 34.377 36.663z" fill="#f31509"/><path d="M220.92 102.358c-20.448-10.533-40.67-24.614-43.71-27.406-3.04-2.792-2.124-4.88-.86-6.237 1.263-1.358 4.53-2.112 6.924-.28 4.492 3.438 22.758 17.416 37.645 33.922z" fill="#f31509"/><path d="M213.88 110.5c-21.4-8.842-42.92-21.237-46.224-23.772-3.303-2.536-2.594-4.69-1.47-6.143 1.127-1.454 4.306-2.47 6.872-.837 4.81 3.062 24.375 15.51 40.82 30.753z" fill="#f31509"/><path d="M207.57 119.324c-22.192-7.056-44.86-17.638-48.4-19.893-3.543-2.254-3.05-4.456-2.075-5.996.976-1.54 4.04-2.812 6.76-1.396 5.095 2.655 25.818 13.453 43.715 27.287z" fill="#f31509"/><path d="M202.33 128.292c-22.786-5.275-46.384-14.025-50.13-15.992-3.744-1.967-3.466-4.2-2.642-5.81.825-1.613 3.756-3.122 6.6-1.926 5.33 2.243 27.014 11.362 46.17 23.728z" fill="#f31509"/><path d="M198.13 137.278c-23.193-3.524-47.517-10.45-51.43-12.126-3.915-1.675-3.844-3.922-3.17-5.59.67-1.67 3.453-3.395 6.397-2.42 5.52 1.83 27.97 9.27 48.202 20.136z" fill="#f31509"/><path d="M194.51 147.425c-23.45-1.577-48.377-6.456-52.444-7.798-4.066-1.343-4.223-3.585-3.722-5.303.5-1.717 3.096-3.667 6.127-2.94 5.683 1.363 28.79 6.905 50.035 16.044z" fill="#f31509"/><path d="M129.386 141.522h381.23v12.562h-381.23z"/></g></g></svg>