<svg xmlns="http://www.w3.org/2000/svg" height="480" width="640" version="1"><g stroke-width="1pt" fill-rule="evenodd"><path fill="#e80008" d="M.9 0h640v480H.9z"/><path fill="#fff" d="M.9 34.286h640v34.286H.9z"/><path fill="#fff" d="M.9 102.86h640v34.286H.9z"/><path fill="#fff" d="M.9 171.43h640v34.286H.9z"/><path fill="#fff" d="M.9 240h640v34.286H.9z"/><path fill="#fff" d="M.9 308.57h640v34.286H.9z"/><path fill="#fff" d="M.9 377.14h640v34.286H.9z"/><path fill="#fff" d="M.9 445.71h640v34.286H.9z"/><path fill="#000689" d="M0 0h245.17v141.39H0z"/><g fill="#fe0"><path d="M124.467 120.178c-26.378 14.678-59.355 4.76-73.61-21.827-14.253-26.585-4.412-59.823 21.966-74.188 16.31-8.883 34.224-9.06 50.5-.322-9.185-2.21-17.386-2.092-26.297.555-25.96 7.712-40.882 35.425-33.31 61.862 7.574 26.435 34.79 41.63 60.747 33.92z"/><path d="M168.817 54.198l27.827-15.81-22.107 23.14 31.93-2.168-29.958 11.26 29.707 11.897-31.873-2.854 21.603 23.608-27.478-16.4 9.215 30.644-17.638-26.7-4.994 31.608-4.305-31.71-18.212 26.32 9.877-30.444-27.827 15.81 22.108-23.14-31.93 2.168 29.957-11.258-29.707-11.9 31.873 2.855-21.603-23.608 27.48 16.4-9.218-30.642 17.638 26.698 4.994-31.607 4.305 31.71 18.212-26.315z"/></g></g></svg>