<svg xmlns="http://www.w3.org/2000/svg" height="480" width="640"><defs><clipPath id="a"><path fill-opacity=".67" d="M0-15.957h512v512H0z"/></clipPath></defs><g><path fill="#fff" d="M0 0h640v480H0z"/><g clip-path="url(#a)" transform="matrix(.938 0 0 .938 0 14.96)"><g fill-rule="evenodd"><path d="M6.54 489.54l378.786-.01L137.4 238.11l257.262.3L6.562-9.473 6.54 489.54z" stroke="#000063" stroke-width="13.559.26" fill="#ce0000"/><path fill="#fff" transform="matrix(1.283 0 0 1.252 -200.321 -298.992)" stroke-width="1pt" d="M296.98 523.24l-21.03 7.14 16.45 15.87-22.16-1.46 9.13 20.96-19.91-9.82.41 22.85-14.64-16.7-8.37 21.28-7.13-21.03-15.87 16.45 1.45-22.16-20.95 9.13 9.82-19.91-22.86.41 16.7-14.64-21.27-8.37 21.03-7.13-16.46-15.87 22.16 1.45-9.12-20.95 19.91 9.82-.41-22.86 14.64 16.7 8.36-21.27 7.14 21.03 15.87-16.46-1.46 22.16 20.96-9.12-9.82 19.91 22.85-.41-16.7 14.64z"/><path d="M148.32 171.125l-11.33 8.387 5.584 4.614c13.56-10.482 23.21-20.062 30.753-35.96 1.77 21.22-17.683 68.855-68.73 69.38-54.633-.045-73.59-50.586-71.482-70.275 10.037 18.21 16.16 27.09 31.916 36.57l4.82-4.425-10.67-8.89 13.737-3.573-7.39-12.44 14.39 1.05-1.807-14.486 12.616 7.383 3.948-13.485 9.065 10.86 8.49-10.296 4.624 13.99 11.79-8.204-1.512 14.228 14.133-1.66-6.626 13.154 13.68 4.077z" stroke-width="1.043pt" fill="#fff"/></g></g></g></svg>