<svg xmlns="http://www.w3.org/2000/svg" height="480" width="640" version="1"><defs><linearGradient id="b" y2="-5035.4" gradientUnits="userSpaceOnUse" y1="-5035.4" gradientTransform="matrix(.085 0 0 .142 -225.71 715.44)" x2="4203.4" x1="359.59"><stop offset="0"/><stop stop-color="#fff" offset="1"/></linearGradient><clipPath id="a"><path fill-opacity=".67" d="M-72.352 0h682.67v512h-682.67z"/></clipPath></defs><g clip-path="url(#a)" transform="matrix(.938 0 0 .938 67.83 0)"><path stroke="url(#b)" stroke-width=".11pt" fill="#090" d="M-114.94.065h307.43v511.87h-307.43z"/><path fill-rule="evenodd" stroke-width="1pt" fill="#f00" d="M191.82 0h461.15v512H191.82z"/><g fill-rule="evenodd" stroke-width="1pt"><g><path d="M174.4 193.713l-1.03 19.04 127.09-11.296 1.028-19.04z"/><path fill="#efef00" d="M175.525 195.822l-.788 14.582 124.596-11.075.788-14.583z"/><g><path d="M173.765 189.758l-.338 6.25 128.37-11.41.34-6.25z"/><path fill="#efef00" d="M174.783 191.9l-.095 1.77 126.09-11.21.095-1.77z"/></g><g><path d="M172.64 210.59l-.34 6.25 128.372-11.41.338-6.25z"/><path fill="#efef00" d="M173.657 212.73l-.095 1.77 126.09-11.207.095-1.77z"/></g></g><g><path d="M193.787 254.64l-1.03 19.042 127.09-11.297 1.03-19.04z"/><path fill="#efef00" d="M194.913 256.75l-.788 14.582 124.596-11.075.79-14.582z"/><g><path d="M193.153 250.686l-.338 6.25 128.37-11.41.34-6.25z"/><path fill="#efef00" d="M194.17 252.827l-.094 1.77 126.09-11.208.095-1.77z"/></g><g><path d="M192.027 271.518l-.338 6.25 128.37-11.41.338-6.25z"/><path fill="#efef00" d="M193.045 273.66l-.095 1.77 126.09-11.21.095-1.77z"/></g></g><g><path d="M186.03 323.304l-1.03 19.04 127.09-11.296 1.03-19.04z"/><path fill="#efef00" d="M187.156 325.413l-.788 14.582 124.596-11.075.788-14.582z"/><g><path d="M185.396 319.35l-.338 6.248 128.37-11.41.34-6.25z"/><path fill="#efef00" d="M186.414 321.49l-.095 1.77 126.09-11.208.094-1.77z"/></g><g><path d="M184.27 340.18l-.338 6.25 128.37-11.41.34-6.25z"/><path fill="#efef00" d="M185.288 342.322l-.095 1.77 126.09-11.208.095-1.77z"/></g></g><g><path d="M203.242 318.47l1.03 19.04-127.09-11.297-1.03-19.04z"/><path fill="#efef00" d="M202.116 320.578l.788 14.582-124.596-11.075-.788-14.582z"/><g><path d="M203.876 314.514l.338 6.25-128.37-11.41-.34-6.25z"/><path fill="#efef00" d="M202.858 316.655l.095 1.77-126.09-11.208-.095-1.77z"/></g><g><path d="M205.002 335.346l.338 6.25-128.37-11.41-.34-6.25z"/><path fill="#efef00" d="M203.984 337.487l.095 1.77L77.99 328.05l-.096-1.77z"/></g></g><g><path d="M193.398 263.038l-5.66 17.154-135.562-14.12 5.66-17.155z"/><path fill="#efef00" d="M191.41 264.9l-4.336 13.137-132.902-13.844 4.335-13.137z"/><g><path d="M195.506 259.5l-1.858 5.63-136.93-14.262 1.86-5.63z"/><path fill="#efef00" d="M193.624 261.395l-.527 1.595L58.6 248.98l.528-1.595z"/></g><g><path d="M189.313 278.27l-1.858 5.63-136.93-14.264 1.86-5.63z"/><path fill="#efef00" d="M187.43 280.163l-.526 1.595-134.496-14.01.527-1.595z"/></g></g><g><path d="M176.56 261.105l-13.895 14.752-101.67-67.78 13.894-14.753z"/><path fill="#efef00" d="M173.943 262.16l-10.64 11.298-99.678-66.45 10.64-11.3z"/><g><path d="M180.184 258.437l-4.56 4.842-102.698-68.466 4.56-4.842z"/><path fill="#efef00" d="M177.636 259.566l-1.292 1.372L75.472 193.69l1.292-1.372z"/></g><g><path d="M164.982 274.577l-4.56 4.842-102.698-68.466 4.56-4.842z"/><path fill="#efef00" d="M162.434 275.706l-1.292 1.372L60.27 209.83l1.292-1.372z"/></g></g><g><path d="M304.516 260.875c.05 63.61-51.535 115.236-115.144 115.236-63.61.102-115.277-51.44-115.33-115.05-.152-63.612 51.35-115.318 114.96-115.42 63.61-.203 115.36 51.26 115.514 114.864.003.13.003.238.003.367zm27.03 0c.06 78.532-63.622 142.263-142.15 142.263-78.53.125-142.324-63.51-142.376-142.037-.19-78.533 63.393-142.365 141.924-142.49 78.532-.248 142.418 63.285 142.603 141.812.004.16.004.293.004.453z" fill="#efef00"/><path d="M328.72 261.035c.06 77.008-62.388 139.5-139.39 139.5-77.008.124-139.562-62.275-139.623-139.278-.186-77.008 62.164-139.602 139.178-139.723 77.008-.245 139.653 62.055 139.835 139.057.003.157.003.29.003.445zm-2.79 0c.057 75.467-61.14 136.714-136.603 136.714-75.467.118-136.764-61.033-136.824-136.503-.183-75.468 60.92-136.814 136.39-136.936 75.467-.24 136.855 60.815 137.037 136.28.003.154.003.283.003.436z"/><path d="M310.36 262.01c.05 67.096-54.36 121.546-121.45 121.546-67.095.107-121.598-54.26-121.65-121.352-.163-67.096 54.16-121.633 121.263-121.74 67.096-.212 121.678 54.07 121.836 121.16.002.136.002.25.002.387zm-2.432 0c.05 65.754-53.27 119.118-119.02 119.118-65.754.103-119.16-53.176-119.214-118.932-.16-65.755 53.08-119.205 118.836-119.31 65.753-.21 119.24 52.985 119.398 118.738.003.133.003.246.003.38z"/></g><g><path d="M181.946 118.102h17.67v285.244h-17.67z"/><path fill="#efef00" d="M184.006 120.9h13.53v279.647h-13.53z"/><g><path d="M178.206 116.188h5.8V404.31h-5.8z"/><path fill="#efef00" d="M180.286 118.746h1.643v283.002h-1.644z"/></g><g><path d="M197.536 116.188h5.8V404.31h-5.8z"/><path fill="#efef00" d="M199.616 118.746h1.643v283.002h-1.644z"/></g></g><g><path d="M183.325 286.058l6.52 18.01-127.09 25.42-6.52-18.013z"/><path fill="#efef00" d="M182.84 288.407l4.99 13.794-124.595 24.92-4.992-13.794z"/><g><path d="M182.8 282.074l2.138 5.91-128.37 25.676-2.14-5.912z"/><path fill="#efef00" d="M182.426 284.423l.607 1.675-126.09 25.218-.607-1.675z"/></g><g><path d="M189.93 301.78l2.14 5.91-128.372 25.676-2.14-5.912z"/><path fill="#efef00" d="M189.557 304.13l.607 1.674-126.09 25.218-.607-1.675z"/></g></g><g><path d="M177.286 232.47l.857 18.353-132.737 14.12-.858-18.353z"/><path fill="#efef00" d="M176.084 234.747l.657 14.057L46.61 262.648l-.657-14.057z"/><g><path d="M177.995 228.488l.28 6.024L44.2 248.776l-.282-6.025z"/><path fill="#efef00" d="M176.905 230.776l.08 1.707-131.694 14.01-.08-1.707z"/></g><g><path d="M178.933 248.57l.28 6.023-134.076 14.264-.28-6.025z"/><path fill="#efef00" d="M177.843 250.857l.08 1.707-131.694 14.01-.08-1.707z"/></g></g><g><path d="M180.648 228.404l-10.978 16.983-110.144-48.012 10.98-16.982z"/><path fill="#efef00" d="M178.288 229.913l-8.407 13.006L61.9 195.85l8.407-13.006z"/><g><path d="M183.71 225.13l-3.602 5.575L68.852 182.21l3.604-5.575z"/><path fill="#efef00" d="M181.43 226.7l-1.02 1.58-109.278-47.634 1.02-1.58z"/></g><g><path d="M171.7 243.71l-3.603 5.575L56.84 200.79l3.605-5.575z"/><path fill="#efef00" d="M169.42 245.28l-1.02 1.58-109.28-47.634 1.02-1.58z"/></g></g><g><path d="M333.886 234.363l-.172 18.355-132.737-5.648.172-18.355z"/><path fill="#efef00" d="M332.565 236.448l-.132 14.056-130.133-5.537.13-14.057z"/><g><path d="M334.813 230.515l-.056 6.025-134.077-5.706.056-6.024z"/><path fill="#efef00" d="M333.603 232.626l-.016 1.707-131.694-5.604.016-1.708z"/></g><g><path d="M334.625 250.596l-.056 6.025-134.078-5.705.056-6.024z"/><path fill="#efef00" d="M333.415 252.707l-.016 1.707-131.695-5.604.016-1.707z"/></g></g><g><path d="M308.66 180.272l5.147 16.296-110.144-2.824-5.146-16.297z"/><path fill="#efef00" d="M308.18 182.144l3.942 12.48-107.983-2.77-3.943-12.48z"/><g><path d="M308.31 176.84l1.69 5.35-111.256-2.854-1.69-5.35z"/><path fill="#efef00" d="M307.93 178.734l.477 1.515-109.278-2.803-.48-1.515z"/></g><g><path d="M313.94 194.67l1.69 5.35-111.256-2.854-1.69-5.35z"/><path fill="#efef00" d="M313.56 196.564l.477 1.515-109.278-2.803-.48-1.515z"/></g></g><g><path d="M324.37 310.23l-7.89 16.983-121.44-45.188 7.89-16.982z"/><path fill="#efef00" d="M322.26 311.767l-6.044 13.006-119.058-44.3 6.043-13.007z"/><g><path d="M326.855 306.938l-2.59 5.574L201.6 266.87l2.59-5.575z"/><path fill="#efef00" d="M324.837 308.533l-.734 1.58-120.486-44.833.734-1.58z"/></g><g><path d="M318.222 325.518l-2.59 5.574-122.666-45.643 2.59-5.575z"/><path fill="#efef00" d="M316.204 327.113l-.734 1.58-120.486-44.833.734-1.58z"/></g></g><g><g><g fill="#f6f6fb"><g transform="matrix(.103 0 0 .103 193.533 903.024)"><path d="M-850.89-7147h1590.9v1171.1h-1590.9z"/><ellipse transform="matrix(1.075 0 0 1.063 -3130.4 -10547)" cx="2861.4" rx="740.21" cy="4267.3" ry="696.02"/></g><g transform="matrix(.103 0 0 .103 -420.738 546.273)"><path d="M5478.8-3340.7h859.09v632.38H5478.8z"/><ellipse transform="matrix(.58 0 0 .574 4247.9 -5088.5)" cx="2861.4" rx="740.21" cy="4267.3" ry="696.02"/></g></g><g><g fill="#f00"><g transform="matrix(.098 0 0 .098 193.235 871.053)"><path d="M-850.89-7147h1590.9v1171.1h-1590.9z"/><ellipse transform="matrix(1.075 0 0 1.063 -3130.4 -10547)" cx="2861.4" rx="740.21" cy="4267.3" ry="696.02"/></g><g transform="matrix(.098 0 0 .098 -391.217 531.62)"><path d="M5478.8-3340.7h859.09v632.38H5478.8z"/><ellipse transform="matrix(.58 0 0 .574 4247.9 -5088.5)" cx="2861.4" rx="740.21" cy="4267.3" ry="696.02"/></g></g><g fill="#400"><g transform="matrix(.058 0 0 .058 191.051 626.15)"><path d="M-850.89-7147h1590.9v1171.1h-1590.9z"/><ellipse transform="matrix(1.075 0 0 1.063 -3130.4 -10547)" cx="2861.4" rx="740.21" cy="4267.3" ry="696.02"/></g><g transform="matrix(.058 0 0 .058 -154.849 425.261)"><path d="M5478.8-3340.7h859.09v632.38H5478.8z"/><ellipse transform="matrix(.58 0 0 .574 4247.9 -5088.5)" cx="2861.4" rx="740.21" cy="4267.3" ry="696.02"/></g></g><g fill="#fff"><g transform="matrix(.053 0 0 .053 190.732 590.801)"><path d="M-850.89-7147h1590.9v1171.1h-1590.9z"/><ellipse transform="matrix(1.075 0 0 1.063 -3130.4 -10547)" cx="2861.4" rx="740.21" cy="4267.3" ry="696.02"/></g><g transform="matrix(.053 0 0 .053 -125.349 407.23)"><path d="M5478.8-3340.7h859.09v632.38H5478.8z"/><ellipse transform="matrix(.58 0 0 .574 4247.9 -5088.5)" cx="2861.4" rx="740.21" cy="4267.3" ry="696.02"/></g></g></g></g><g transform="matrix(.103 0 0 .103 -117.548 477.044)"><g fill="#3b3bff"><g><g transform="matrix(.15 0 0 .15 2979.24 -840.14)"><path d="M-850.89-7147h1590.9v1171.1h-1590.9z"/><ellipse transform="matrix(1.075 0 0 1.063 -3130.4 -10547)" cx="2861.4" rx="740.21" cy="4267.3" ry="696.02"/></g><g transform="matrix(.15 0 0 .15 2084.67 -1359.68)"><path d="M5478.8-3340.7h859.09v632.38H5478.8z"/><ellipse transform="matrix(.58 0 0 .574 4247.9 -5088.5)" cx="2861.4" rx="740.21" cy="4267.3" ry="696.02"/></g></g><g><g><g transform="matrix(.142 0 0 .142 2978.805 -886.7)"><path d="M-850.89-7147h1590.9v1171.1h-1590.9z"/><ellipse transform="matrix(1.075 0 0 1.063 -3130.4 -10547)" cx="2861.4" rx="740.21" cy="4267.3" ry="696.02"/></g><g transform="matrix(.142 0 0 .142 2131.945 -1378.531)"><path d="M5478.8-3340.7h859.09v632.38H5478.8z"/><ellipse transform="matrix(.58 0 0 .574 4247.9 -5088.5)" cx="2861.4" rx="740.21" cy="4267.3" ry="696.02"/></g></g><g><g transform="matrix(.085 0 0 .085 2975.625 -1243.355)"><path d="M-850.89-7147h1590.9v1171.1h-1590.9z"/><ellipse transform="matrix(1.075 0 0 1.063 -3130.4 -10547)" cx="2861.4" rx="740.21" cy="4267.3" ry="696.02"/></g><g transform="matrix(.085 0 0 .085 2468.702 -1537.761)"><path d="M5478.8-3340.7h859.09v632.38H5478.8z"/><ellipse transform="matrix(.58 0 0 .574 4247.9 -5088.5)" cx="2861.4" rx="740.21" cy="4267.3" ry="696.02"/></g></g><g><g transform="matrix(.077 0 0 .077 2975.16 -1294.835)"><path d="M-850.89-7147h1590.9v1171.1h-1590.9z"/><ellipse transform="matrix(1.075 0 0 1.063 -3130.4 -10547)" cx="2861.4" rx="740.21" cy="4267.3" ry="696.02"/></g><g transform="matrix(.077 0 0 .077 2515.947 -1561.532)"><path d="M5478.8-3340.7h859.09v632.38H5478.8z"/><ellipse transform="matrix(.58 0 0 .574 4247.9 -5088.5)" cx="2861.4" rx="740.21" cy="4267.3" ry="696.02"/></g></g></g></g><ellipse fill="#fff" transform="translate(-3.782 -7.563)" cx="2903" rx="35.688" cy="-1854.9" ry="35.688"/><ellipse fill="#fff" transform="translate(129.99 -7.563)" cx="2903" rx="35.688" cy="-1854.9" ry="35.688"/><ellipse fill="#fff" transform="translate(61.922 67.595)" cx="2903" rx="35.688" cy="-1854.9" ry="35.688"/><ellipse fill="#fff" transform="translate(1.418 140.39)" cx="2903" rx="35.688" cy="-1854.9" ry="35.688"/><ellipse fill="#fff" transform="translate(128.57 142.75)" cx="2903" rx="35.688" cy="-1854.9" ry="35.688"/></g><path d="M112.806 188.59v2.337h31.16v-2.337h-31.16zm2.704-6.448v6.505h26.485v-6.505H115.51zm-2.337 21.385v2.337h31.16v-2.337h-31.16zm8.35-.723c-.003-4.242 3.257-7.686 7.278-7.686 4.02-.006 7.286 3.43 7.29 7.674v.096m-15.377.34c-.003-4.715 3.62-8.54 8.086-8.54 4.467-.01 8.095 3.81 8.098 8.525v.106m-21.388-11.752v11.684h26.485v-11.684H115.51zm-2.705-11.654v2.21h31.16v-2.21h-31.16zm-.003-3.118v3.14h2.4v-3.14h-2.4zm28.774 0v3.14h2.4v-3.14h-2.4zm-23.988.063V180h2.4v-3.14h-2.4zm19.077-.065v3.14h2.4v-3.14h-2.4zm-14.42-2.958v3.14h2.402v-3.14h-2.4zm9.572 0v3.14h2.4v-3.14h-2.4zm-4.66-.064v3.14h2.4v-3.14h-2.4zM122.24 177v3h11.963v-3H122.24z" fill="#ff0"/><g fill="#f00"><path d="M122.144 181.7h2.4v3.14h-2.4z"/><path d="M132.91 181.637h2.4v3.14h-2.4z"/></g><path d="M232.746 188.964v2.337h31.16v-2.336h-31.16zm2.704-6.448v6.505h26.485v-6.504H235.45zm-2.337 21.385v2.338h31.16V203.9h-31.16zm8.35-.722c-.003-4.242 3.257-7.686 7.278-7.686 4.02-.006 7.286 3.43 7.29 7.674v.096m-15.377.34c-.003-4.715 3.62-8.54 8.086-8.54 4.467-.01 8.095 3.81 8.098 8.525v.106m-21.388-11.75v11.683h26.485v-11.684H235.45zm-2.705-11.655v2.21h31.16v-2.21h-31.16zm-.003-3.118v3.14h2.4v-3.14h-2.4zm28.774 0v3.14h2.4v-3.14h-2.4zm-23.988.063v3.14h2.4v-3.14h-2.4zm19.077-.064v3.14h2.4v-3.14h-2.4zm-14.42-2.96v3.14h2.402v-3.14h-2.4zm9.572 0v3.14h2.4v-3.14h-2.4zm-4.66-.063v3.14h2.4v-3.14h-2.4zm-4.917 3.226v3.002h11.963v-3.002H242.18z" fill="#ff0"/><g fill="#f00"><path d="M242.074 182.075h2.4v3.14h-2.4z"/><path d="M252.84 182.01h2.4v3.14h-2.4z"/></g><path d="M173.902 188.964v2.337h31.16v-2.336h-31.16zm2.704-6.448v6.505h26.485v-6.504h-26.484zM174.27 203.9v2.338h31.16V203.9h-31.16zm8.35-.722c-.004-4.242 3.256-7.686 7.277-7.686 4.02-.006 7.285 3.43 7.29 7.674 0 .034 0 .062-.002.096m-15.376.34c-.004-4.715 3.618-8.54 8.085-8.54 4.468-.01 8.096 3.81 8.1 8.525v.106m-21.39-11.75v11.683h26.486v-11.684h-26.484zm-2.704-11.655v2.21h31.16v-2.21H173.9zm-.002-3.118v3.14h2.4v-3.14h-2.4zm28.774 0v3.14h2.4v-3.14h-2.4zm-23.988.063v3.14h2.4v-3.14h-2.4zm19.077-.064v3.14h2.402v-3.14h-2.4zm-14.418-2.96v3.14h2.4v-3.14h-2.4zm9.57 0v3.14h2.402v-3.14h-2.4zm-4.658-.063v3.14h2.4v-3.14h-2.4zm-4.918 3.226v3.002H195.3v-3.002h-11.964z" fill="#ff0"/><g fill="#f00"><path d="M183.23 182.075h2.4v3.14h-2.4z"/><path d="M193.997 182.01h2.4v3.14h-2.4z"/></g><path d="M110.183 261.885v2.337h31.16v-2.337h-31.16zm2.704-6.448v6.505h26.485v-6.505h-26.485zm-2.337 21.385v2.337h31.16v-2.338h-31.16zm8.35-.723c-.003-4.243 3.257-7.687 7.278-7.687 4.02-.006 7.285 3.43 7.29 7.674 0 .034 0 .062-.002.096m-15.376.34c-.003-4.715 3.62-8.54 8.086-8.54 4.468-.01 8.096 3.81 8.1 8.525v.106m-21.39-11.75v11.683h26.486v-11.684h-26.485zm-2.704-11.655v2.21h31.16v-2.21h-31.16zm-.003-3.12v3.14h2.4v-3.14h-2.4zm28.773 0v3.14h2.4v-3.14h-2.4zm-23.988.064v3.14h2.4v-3.14h-2.4zm19.077-.064v3.14h2.4v-3.14h-2.4zm-14.42-2.958v3.14h2.402v-3.14h-2.4zm9.572 0v3.14h2.4v-3.14h-2.4zm-4.66-.064v3.14h2.4v-3.14h-2.4zm-4.917 3.226v3.002h11.963v-3.002h-11.963z" fill="#ff0"/><g fill="#f00"><path d="M119.52 255h2.4v3.14h-2.4z"/><path d="M130.287 254.937h2.4v3.14h-2.4z"/></g><path d="M234.998 261.143v2.337h31.16v-2.337h-31.16zm2.704-6.448v6.505h26.485v-6.505h-26.485zm-2.337 21.385v2.337h31.16v-2.337h-31.16zm8.35-.723c-.003-4.242 3.257-7.686 7.278-7.686 4.02-.005 7.285 3.432 7.29 7.675 0 .034 0 .062-.002.096m-15.375.34c-.003-4.714 3.62-8.54 8.086-8.54 4.47-.008 8.097 3.812 8.1 8.526v.106m-21.388-11.75v11.683h26.485V264.12h-26.485zm-2.705-11.655v2.21h31.16v-2.21h-31.16zm-.003-3.118v3.14h2.4v-3.14h-2.4zm28.774 0v3.14h2.4v-3.14h-2.4zm-23.988.062v3.14h2.4v-3.14h-2.4zm19.077-.064v3.14h2.4v-3.14h-2.4zm-14.42-2.958v3.14h2.402v-3.14h-2.402zm9.572 0v3.14h2.4v-3.14h-2.4zm-4.66-.064v3.14h2.4v-3.14h-2.4zm-4.918 3.226v3.002h11.963v-3.002h-11.963z" fill="#ff0"/><g fill="#f00"><path d="M244.326 254.25h2.4v3.14h-2.4z"/><path d="M255.093 254.185h2.4v3.14h-2.4z"/></g><path d="M137.15 332.45l1.77 1.52 20.27-23.596-1.77-1.52-20.27 23.597zm-3.123-6.24l4.925 4.23 17.23-20.057-4.927-4.23-17.228 20.056zm14.674 15.68l1.77 1.52 20.27-23.597-1.77-1.52-20.27 23.596zm4.885-6.794c-3.215-2.758-3.702-7.466-1.086-10.51 2.61-3.05 7.336-3.286 10.55-.53.027.023.048.04.073.063m-9.745 11.864c-3.572-3.064-4.113-8.296-1.207-11.68 2.9-3.386 8.154-3.65 11.726-.586l.08.07m-22.81 8.552l8.847 7.6 17.228-20.056-8.847-7.6-17.228 20.056zm-10.587-5.532l1.673 1.438 20.27-23.597-1.675-1.44-20.27 23.598zm-2.363-2.026l2.377 2.042 1.562-1.818-2.378-2.042-1.56 1.818zm18.717-21.79l2.378 2.042 1.56-1.818-2.377-2.042-1.56 1.818zM131.377 321.2l2.378 2.04 1.562-1.817-2.378-2.042-1.563 1.82zm12.362-14.49l2.377 2.043 1.56-1.818-2.377-2.043-1.56 1.818zm-11.62 8.995l2.377 2.043 1.56-1.82-2.376-2.04-1.56 1.817zm6.224-7.248l2.378 2.043 1.56-1.818-2.376-2.043-1.562 1.817zm-3.08 3.488l2.38 2.042 1.56-1.818-2.377-2.043-1.562 1.818zm-.755 5.822l2.273 1.953 7.782-9.06-2.274-1.953-7.78 9.06z" fill="#ff0"/><g fill="#f00"><path d="M138.003 320.905l1.562-1.818 2.378 2.042-1.562 1.818z"/><path d="M144.96 312.71l1.56-1.818 2.378 2.043-1.562 1.818z"/></g><path d="M240.56 332.08l-1.77 1.52-20.268-23.597 1.77-1.52 20.268 23.597zm3.124-6.242l-4.925 4.23-17.23-20.056 4.926-4.23 17.228 20.056zm-14.674 15.68l-1.77 1.52-20.27-23.596 1.77-1.52 20.27 23.596zm-4.884-6.793c3.215-2.758 3.702-7.466 1.086-10.51-2.61-3.05-7.337-3.286-10.552-.53l-.072.063m9.745 11.865c3.572-3.064 4.113-8.296 1.207-11.68-2.9-3.386-8.153-3.65-11.725-.586l-.08.07m22.81 8.552l-8.847 7.6-17.228-20.057 8.848-7.6 17.228 20.056zm10.587-5.533l-1.674 1.438-20.27-23.597 1.675-1.438 20.27 23.597zm2.362-2.026l-2.377 2.043-1.562-1.818 2.378-2.042 1.56 1.818zm-18.717-21.79l-2.378 2.043-1.562-1.818 2.378-2.042 1.56 1.818zm15.557 18.208l-2.378 2.042-1.562-1.818 2.378-2.042 1.562 1.818zm-12.362-14.49l-2.378 2.044-1.56-1.818 2.377-2.043 1.562 1.82zm11.62 8.996l-2.378 2.043-1.56-1.82 2.376-2.04 1.562 1.817zm-6.225-7.248l-2.378 2.043-1.562-1.82 2.377-2.042 1.562 1.818zm3.08 3.488l-2.38 2.042-1.56-1.818 2.377-2.042 1.562 1.818zm.755 5.822l-2.274 1.953-7.782-9.06 2.274-1.954 7.782 9.06z" fill="#ff0"/><g fill="#f00"><path d="M239.707 320.534l-1.562-1.818-2.378 2.042 1.562 1.82z"/><path d="M232.75 312.34l-1.56-1.82-2.378 2.044 1.562 1.818z"/></g><g><g transform="matrix(.103 0 0 .103 -117.942 412.776)"><g fill="#3b3bff"><g><g transform="matrix(.15 0 0 .15 2979.24 -840.14)"><path d="M-850.89-7147h1590.9v1171.1h-1590.9z"/><ellipse transform="matrix(1.075 0 0 1.063 -3130.4 -10547)" cx="2861.4" rx="740.21" cy="4267.3" ry="696.02"/></g><g transform="matrix(.15 0 0 .15 2084.67 -1359.68)"><path d="M5478.8-3340.7h859.09v632.38H5478.8z"/><ellipse transform="matrix(.58 0 0 .574 4247.9 -5088.5)" cx="2861.4" rx="740.21" cy="4267.3" ry="696.02"/></g></g><g><g><g transform="matrix(.142 0 0 .142 2978.805 -886.7)"><path d="M-850.89-7147h1590.9v1171.1h-1590.9z"/><ellipse transform="matrix(1.075 0 0 1.063 -3130.4 -10547)" cx="2861.4" rx="740.21" cy="4267.3" ry="696.02"/></g><g transform="matrix(.142 0 0 .142 2131.945 -1378.531)"><path d="M5478.8-3340.7h859.09v632.38H5478.8z"/><ellipse transform="matrix(.58 0 0 .574 4247.9 -5088.5)" cx="2861.4" rx="740.21" cy="4267.3" ry="696.02"/></g></g><g><g transform="matrix(.085 0 0 .085 2975.625 -1243.355)"><path d="M-850.89-7147h1590.9v1171.1h-1590.9z"/><ellipse transform="matrix(1.075 0 0 1.063 -3130.4 -10547)" cx="2861.4" rx="740.21" cy="4267.3" ry="696.02"/></g><g transform="matrix(.085 0 0 .085 2468.702 -1537.761)"><path d="M5478.8-3340.7h859.09v632.38H5478.8z"/><ellipse transform="matrix(.58 0 0 .574 4247.9 -5088.5)" cx="2861.4" rx="740.21" cy="4267.3" ry="696.02"/></g></g><g><g transform="matrix(.077 0 0 .077 2975.16 -1294.835)"><path d="M-850.89-7147h1590.9v1171.1h-1590.9z"/><ellipse transform="matrix(1.075 0 0 1.063 -3130.4 -10547)" cx="2861.4" rx="740.21" cy="4267.3" ry="696.02"/></g><g transform="matrix(.077 0 0 .077 2515.947 -1561.532)"><path d="M5478.8-3340.7h859.09v632.38H5478.8z"/><ellipse transform="matrix(.58 0 0 .574 4247.9 -5088.5)" cx="2861.4" rx="740.21" cy="4267.3" ry="696.02"/></g></g></g></g><ellipse fill="#fff" transform="translate(-3.782 -7.563)" cx="2903" rx="35.688" cy="-1854.9" ry="35.688"/><ellipse fill="#fff" transform="translate(129.99 -7.563)" cx="2903" rx="35.688" cy="-1854.9" ry="35.688"/><ellipse fill="#fff" transform="translate(61.922 67.595)" cx="2903" rx="35.688" cy="-1854.9" ry="35.688"/><ellipse fill="#fff" transform="translate(1.418 140.39)" cx="2903" rx="35.688" cy="-1854.9" ry="35.688"/><ellipse fill="#fff" transform="translate(128.57 142.75)" cx="2903" rx="35.688" cy="-1854.9" ry="35.688"/></g><g transform="matrix(.103 0 0 .103 -117.941 444.715)"><g fill="#3b3bff"><g><g transform="matrix(.15 0 0 .15 2979.24 -840.14)"><path d="M-850.89-7147h1590.9v1171.1h-1590.9z"/><ellipse transform="matrix(1.075 0 0 1.063 -3130.4 -10547)" cx="2861.4" rx="740.21" cy="4267.3" ry="696.02"/></g><g transform="matrix(.15 0 0 .15 2084.67 -1359.68)"><path d="M5478.8-3340.7h859.09v632.38H5478.8z"/><ellipse transform="matrix(.58 0 0 .574 4247.9 -5088.5)" cx="2861.4" rx="740.21" cy="4267.3" ry="696.02"/></g></g><g><g><g transform="matrix(.142 0 0 .142 2978.805 -886.7)"><path d="M-850.89-7147h1590.9v1171.1h-1590.9z"/><ellipse transform="matrix(1.075 0 0 1.063 -3130.4 -10547)" cx="2861.4" rx="740.21" cy="4267.3" ry="696.02"/></g><g transform="matrix(.142 0 0 .142 2131.945 -1378.531)"><path d="M5478.8-3340.7h859.09v632.38H5478.8z"/><ellipse transform="matrix(.58 0 0 .574 4247.9 -5088.5)" cx="2861.4" rx="740.21" cy="4267.3" ry="696.02"/></g></g><g><g transform="matrix(.085 0 0 .085 2975.625 -1243.355)"><path d="M-850.89-7147h1590.9v1171.1h-1590.9z"/><ellipse transform="matrix(1.075 0 0 1.063 -3130.4 -10547)" cx="2861.4" rx="740.21" cy="4267.3" ry="696.02"/></g><g transform="matrix(.085 0 0 .085 2468.702 -1537.761)"><path d="M5478.8-3340.7h859.09v632.38H5478.8z"/><ellipse transform="matrix(.58 0 0 .574 4247.9 -5088.5)" cx="2861.4" rx="740.21" cy="4267.3" ry="696.02"/></g></g><g><g transform="matrix(.077 0 0 .077 2975.16 -1294.835)"><path d="M-850.89-7147h1590.9v1171.1h-1590.9z"/><ellipse transform="matrix(1.075 0 0 1.063 -3130.4 -10547)" cx="2861.4" rx="740.21" cy="4267.3" ry="696.02"/></g><g transform="matrix(.077 0 0 .077 2515.947 -1561.532)"><path d="M5478.8-3340.7h859.09v632.38H5478.8z"/><ellipse transform="matrix(.58 0 0 .574 4247.9 -5088.5)" cx="2861.4" rx="740.21" cy="4267.3" ry="696.02"/></g></g></g></g><ellipse fill="#fff" transform="translate(-3.782 -7.563)" cx="2903" rx="35.688" cy="-1854.9" ry="35.688"/><ellipse fill="#fff" transform="translate(129.99 -7.563)" cx="2903" rx="35.688" cy="-1854.9" ry="35.688"/><ellipse fill="#fff" transform="translate(61.922 67.595)" cx="2903" rx="35.688" cy="-1854.9" ry="35.688"/><ellipse fill="#fff" transform="translate(1.418 140.39)" cx="2903" rx="35.688" cy="-1854.9" ry="35.688"/><ellipse fill="#fff" transform="translate(128.57 142.75)" cx="2903" rx="35.688" cy="-1854.9" ry="35.688"/></g><g transform="matrix(.103 0 0 .103 -90.677 444.715)"><g fill="#3b3bff"><g><g transform="matrix(.15 0 0 .15 2979.24 -840.14)"><path d="M-850.89-7147h1590.9v1171.1h-1590.9z"/><ellipse transform="matrix(1.075 0 0 1.063 -3130.4 -10547)" cx="2861.4" rx="740.21" cy="4267.3" ry="696.02"/></g><g transform="matrix(.15 0 0 .15 2084.67 -1359.68)"><path d="M5478.8-3340.7h859.09v632.38H5478.8z"/><ellipse transform="matrix(.58 0 0 .574 4247.9 -5088.5)" cx="2861.4" rx="740.21" cy="4267.3" ry="696.02"/></g></g><g><g><g transform="matrix(.142 0 0 .142 2978.805 -886.7)"><path d="M-850.89-7147h1590.9v1171.1h-1590.9z"/><ellipse transform="matrix(1.075 0 0 1.063 -3130.4 -10547)" cx="2861.4" rx="740.21" cy="4267.3" ry="696.02"/></g><g transform="matrix(.142 0 0 .142 2131.945 -1378.531)"><path d="M5478.8-3340.7h859.09v632.38H5478.8z"/><ellipse transform="matrix(.58 0 0 .574 4247.9 -5088.5)" cx="2861.4" rx="740.21" cy="4267.3" ry="696.02"/></g></g><g><g transform="matrix(.085 0 0 .085 2975.625 -1243.355)"><path d="M-850.89-7147h1590.9v1171.1h-1590.9z"/><ellipse transform="matrix(1.075 0 0 1.063 -3130.4 -10547)" cx="2861.4" rx="740.21" cy="4267.3" ry="696.02"/></g><g transform="matrix(.085 0 0 .085 2468.702 -1537.761)"><path d="M5478.8-3340.7h859.09v632.38H5478.8z"/><ellipse transform="matrix(.58 0 0 .574 4247.9 -5088.5)" cx="2861.4" rx="740.21" cy="4267.3" ry="696.02"/></g></g><g><g transform="matrix(.077 0 0 .077 2975.16 -1294.835)"><path d="M-850.89-7147h1590.9v1171.1h-1590.9z"/><ellipse transform="matrix(1.075 0 0 1.063 -3130.4 -10547)" cx="2861.4" rx="740.21" cy="4267.3" ry="696.02"/></g><g transform="matrix(.077 0 0 .077 2515.947 -1561.532)"><path d="M5478.8-3340.7h859.09v632.38H5478.8z"/><ellipse transform="matrix(.58 0 0 .574 4247.9 -5088.5)" cx="2861.4" rx="740.21" cy="4267.3" ry="696.02"/></g></g></g></g><ellipse fill="#fff" transform="translate(-3.782 -7.563)" cx="2903" rx="35.688" cy="-1854.9" ry="35.688"/><ellipse fill="#fff" transform="translate(129.99 -7.563)" cx="2903" rx="35.688" cy="-1854.9" ry="35.688"/><ellipse fill="#fff" transform="translate(61.922 67.595)" cx="2903" rx="35.688" cy="-1854.9" ry="35.688"/><ellipse fill="#fff" transform="translate(1.418 140.39)" cx="2903" rx="35.688" cy="-1854.9" ry="35.688"/><ellipse fill="#fff" transform="translate(128.57 142.75)" cx="2903" rx="35.688" cy="-1854.9" ry="35.688"/></g><g transform="matrix(.103 0 0 .103 -145.206 444.715)"><g fill="#3b3bff"><g><g transform="matrix(.15 0 0 .15 2979.24 -840.14)"><path d="M-850.89-7147h1590.9v1171.1h-1590.9z"/><ellipse transform="matrix(1.075 0 0 1.063 -3130.4 -10547)" cx="2861.4" rx="740.21" cy="4267.3" ry="696.02"/></g><g transform="matrix(.15 0 0 .15 2084.67 -1359.68)"><path d="M5478.8-3340.7h859.09v632.38H5478.8z"/><ellipse transform="matrix(.58 0 0 .574 4247.9 -5088.5)" cx="2861.4" rx="740.21" cy="4267.3" ry="696.02"/></g></g><g><g><g transform="matrix(.142 0 0 .142 2978.805 -886.7)"><path d="M-850.89-7147h1590.9v1171.1h-1590.9z"/><ellipse transform="matrix(1.075 0 0 1.063 -3130.4 -10547)" cx="2861.4" rx="740.21" cy="4267.3" ry="696.02"/></g><g transform="matrix(.142 0 0 .142 2131.945 -1378.531)"><path d="M5478.8-3340.7h859.09v632.38H5478.8z"/><ellipse transform="matrix(.58 0 0 .574 4247.9 -5088.5)" cx="2861.4" rx="740.21" cy="4267.3" ry="696.02"/></g></g><g><g transform="matrix(.085 0 0 .085 2975.625 -1243.355)"><path d="M-850.89-7147h1590.9v1171.1h-1590.9z"/><ellipse transform="matrix(1.075 0 0 1.063 -3130.4 -10547)" cx="2861.4" rx="740.21" cy="4267.3" ry="696.02"/></g><g transform="matrix(.085 0 0 .085 2468.702 -1537.761)"><path d="M5478.8-3340.7h859.09v632.38H5478.8z"/><ellipse transform="matrix(.58 0 0 .574 4247.9 -5088.5)" cx="2861.4" rx="740.21" cy="4267.3" ry="696.02"/></g></g><g><g transform="matrix(.077 0 0 .077 2975.16 -1294.835)"><path d="M-850.89-7147h1590.9v1171.1h-1590.9z"/><ellipse transform="matrix(1.075 0 0 1.063 -3130.4 -10547)" cx="2861.4" rx="740.21" cy="4267.3" ry="696.02"/></g><g transform="matrix(.077 0 0 .077 2515.947 -1561.532)"><path d="M5478.8-3340.7h859.09v632.38H5478.8z"/><ellipse transform="matrix(.58 0 0 .574 4247.9 -5088.5)" cx="2861.4" rx="740.21" cy="4267.3" ry="696.02"/></g></g></g></g><ellipse fill="#fff" transform="translate(-3.782 -7.563)" cx="2903" rx="35.688" cy="-1854.9" ry="35.688"/><ellipse fill="#fff" transform="translate(129.99 -7.563)" cx="2903" rx="35.688" cy="-1854.9" ry="35.688"/><ellipse fill="#fff" transform="translate(61.922 67.595)" cx="2903" rx="35.688" cy="-1854.9" ry="35.688"/><ellipse fill="#fff" transform="translate(1.418 140.39)" cx="2903" rx="35.688" cy="-1854.9" ry="35.688"/><ellipse fill="#fff" transform="translate(128.57 142.75)" cx="2903" rx="35.688" cy="-1854.9" ry="35.688"/></g></g></g></g></g></svg>