<svg xmlns="http://www.w3.org/2000/svg" height="480" width="640"><defs><clipPath id="a"><path fill-opacity=".67" d="M-170.67 0H512v512h-682.67z"/></clipPath></defs><g clip-path="url(#a)" fill-rule="evenodd" transform="matrix(.938 0 0 .938 160 0)"><path stroke-width="1pt" fill="#009af4" d="M-256 0h768v256h-768z"/><path stroke-width="1pt" fill="#1c8f31" d="M-256 384h768v128h-768z"/><path stroke-width="1pt" fill="#efef00" d="M-256 256h768v128h-768z"/><path stroke-width="1.032pt" fill="#ffda00" d="M441.318 178.193l-37.176-20.498 22.097 36.237-30.592-29.425 11.962 40.737-21.943-36.34 1.022 42.43-11.788-40.78-10 41.254-.826-42.44-20.343 37.26 10.187-41.213-29.29 30.736 20.496-37.175-36.237 22.097 29.414-30.59-40.727 11.96 36.34-21.942-42.43 1.022 40.78-11.786-41.254-10 42.44-.837-37.26-20.335 41.203 10.188L306.67 79.46l37.177 20.5-22.098-36.243 30.59 29.423-11.96-40.727 21.94 36.34-1.02-42.437 11.786 40.78 10-41.254.827 42.44 20.342-37.258-10.186 41.21 29.29-30.726-20.498 37.17 36.237-22.1-29.416 30.596L450.41 95.21l-36.34 21.944 42.43-1.02-40.778 11.785 41.253 10-42.44.826 37.26 20.343L410.59 148.9z"/><path d="M406.375 128.827c0 17.88-14.494 32.373-32.373 32.373s-32.373-14.494-32.373-32.373S356.122 96.454 374 96.454s32.373 14.494 32.373 32.373z" fill="#0098f6"/><path d="M400.043 128.83c0 14.584-11.652 26.406-26.027 26.406s-26.027-11.822-26.027-26.406 11.652-26.406 26.026-26.406 26.027 11.822 26.027 26.406z" fill="#ffd900"/></g></svg>