<svg xmlns="http://www.w3.org/2000/svg" height="480" width="640" version="1"><defs><clipPath id="a"><path fill-opacity=".67" d="M0 0h682.67v512H0z"/></clipPath></defs><g clip-path="url(#a)" transform="scale(.938 .938)"><path d="M0 0h768v256H341.33L0 0z" fill-rule="evenodd" fill="#ed2939"/><path d="M0 512h768V256H341.33L0 512z" fill-rule="evenodd" fill="#002395"/><path d="M0 0l341.33 256L0 512V0z" fill-rule="evenodd" fill="#fff"/><g><path fill="#ff0" d="M172.318 193.168l.104-3.963s-2.128-3.39.342-7.033c0 0-5.248-2.776-4.026-7.123 0 0-4.746-1.214-4.397-6.433 0 0-5.12-.355-5.65-4.716 0 0-5.124.845-7.378-3.404 0 0-4.996.977-6.406-2.526 0 0-4.857 1.683-7.74-2.435 0 0-5.128 2.073-7.278-1.813-2.12 3.872-7.25 1.813-7.25 1.813-2.848 4.103-7.74 2.4-7.74 2.4-1.36 3.517-6.343 2.52-6.343 2.52-2.247 4.248-7.363 3.404-7.363 3.404-.502 4.346-5.617 4.7-5.617 4.7.404 5.233-4.334 6.42-4.334 6.42 1.25 4.347-3.99 7.116-3.99 7.116 2.532 3.663.425 7.026.425 7.026l-.12 3.655 84.776.392"/><path d="M172.318 193.168l.104-3.963s-2.128-3.39.342-7.033c0 0-5.248-2.776-4.026-7.123 0 0-4.746-1.214-4.397-6.433 0 0-5.12-.355-5.65-4.716 0 0-5.124.845-7.378-3.404 0 0-4.996.977-6.406-2.526 0 0-4.857 1.683-7.74-2.435 0 0-5.128 2.073-7.278-1.813-2.12 3.872-7.25 1.813-7.25 1.813-2.848 4.103-7.74 2.4-7.74 2.4-1.36 3.517-6.343 2.52-6.343 2.52-2.247 4.248-7.363 3.404-7.363 3.404-.502 4.346-5.617 4.7-5.617 4.7.404 5.233-4.334 6.42-4.334 6.42 1.25 4.347-3.99 7.116-3.99 7.116 2.532 3.663.425 7.026.425 7.026l-.12 3.655 84.776.392h-.013z" stroke="#000" stroke-width=".33119399999999993" fill="none"/><path fill="#f00" d="M170.346 188.217c-13.316-1.332-28.648-4.493-40.483 2.17-7.935-4.674-18.982-4.388-28.388-3.474-5.108.914-11.117.914-16.456 1.786l-.838.117c-9.686.643-18.472-2.218-26.89-5.98 2.674 15.17 5.64 30.713 7.098 46.593 3.176 23.518-11.13 43.263-5.262 66.495 3.504 11.148 15.765 17.63 26.987 18.914 10.865.64 22.108 2.42 32.164 4.603 1.91.398 4.18 1.285 5.498 1.856 2.77 1.157 4.8 2.86 6.58 4.68 6.072-6.32 14.97-8.08 23.75-9.007 15.82-1.85 35.324-.843 45.01-15.173v-.81c5.262-7.925 4.564-20.015 2.282-28.995-.154-3.133-.99-5.895-1.445-8.88-9.665-25.522-1.39-54.224 2.77-79.948-5.08 2.777-10.746 4.088-16.4 5.477-4.507.6-9.53.328-14.095.083l-1.89-.51"/><path fill="#80cfe1" d="M190.224 261.464c-.062 1.68.845 3 1.173 4.556 1.85 11.155 3.636 25.932-7.85 32.854-12.71 8.078-29.374 4.618-44.078 8.894-2.94.817-6.986 3.517-9.052 5.428-1.326-.872-2.66-2.21-4.37-3-12.1-6.432-27.83-4.277-41.486-7.75-6.86-2.17-14.012-7.514-15.75-14.534-4.466-18.417 6.232-34.116 4.97-52.387-.818-13.953-3.163-27.348-6.387-40.43 10.677 4.974 23.036 5.805 35.04 3.42 8.89-1.243 19.24-1.27 27.572 2.49 4.592-1.975 9.965-2.86 14.914-3.405 9.408.914 19.52 2.616 29.206 2.547 6.47-.336 12.346-2.206 17.97-4.696-3.336 21.622-9.742 44.27-1.877 66.015"/><path fill="#fff" d="M171.022 265.774l-.104-20.33h2.505L142.34 225.37l-.055-10.43h3l-15.54-11.126-15.466 11.12h2.993l.056 10.424-30.916 20.045 2.47.013.105 20.317 82.025.056"/><path d="M171.022 265.774l-.104-20.33h2.505L142.34 225.37l-.055-10.43h3l-15.54-11.126-15.466 11.12h2.993l.056 10.424-30.916 20.045 2.47.013.105 20.317 82.025.056.007-.016z" stroke="#000" stroke-width="1.146.242" fill="none"/><path fill="#fff" d="M180.583 292.478l.007 6.362-100.134-.112-.042-6.335 100.177.085"/><path d="M180.583 292.478l.007 6.362-100.134-.112-.042-6.335 100.177.085h-.006z" stroke="#000" stroke-width="1.146.242" fill="none"/><path fill="#fff" d="M87.106 292.1l-.084-21.53 4.054-.01-.223 21.783.244-21.607-5.84-.167v-4.62l89.492.098.04 4.577h-5.52l.105 21.802-.195-21.802h4.11l.09 21.557"/><path d="M87.106 292.1l-.084-21.53 4.054-.01-.223 21.783.244-21.607-5.84-.167v-4.62l89.492.098.04 4.577h-5.52l.105 21.802-.195-21.802h4.11l.09 21.557" stroke="#000" stroke-width="1.146.242" fill="none"/><path d="M106.342 286.793l-.062-15.014H94.263l.07 14.998 12.01.015" stroke="#000" stroke-width="1.146.242" fill="none"/><path d="M97.538 274.908l.035 8.72h5.5l-.03-8.72H97.54" stroke="#000" stroke-width="1.146.242" fill="none"/><path d="M165.084 286.84l-.07-15-11.975-.014.055 15.013h11.99" stroke="#000" stroke-width="1.146.242" fill="none"/><path d="M156.28 274.966l.062 8.692h5.492l-.048-8.692h-5.506" stroke="#000" stroke-width="1.146.242" fill="none"/><path d="M164.992 262.393l-.07-15.015h-11.99l.043 15.015H165h-.008z" stroke="#000" stroke-width="1.146.242" fill="none"/><path d="M156.188 250.53l.035 8.708h5.492l-.007-8.707h-5.52" stroke="#000" stroke-width="1.146.242" fill="none"/><path d="M106.24 262.336l-.084-14.987-11.996-.016.055 14.994h12.024v.008z" stroke="#000" stroke-width="1.146.242" fill="none"/><path d="M97.435 250.473l.028 8.694 5.506.013-.043-8.707h-5.492" stroke="#000" stroke-width="1.146.242" fill="none"/><path d="M127.986 262.358l-.055-14.986-12.002-.013.05 14.998h12.008" stroke="#000" stroke-width="1.146.242" fill="none"/><path d="M119.194 250.496l.027 8.693 5.5.027-.034-8.72h-5.493" stroke="#000" stroke-width="1.146.242" fill="none"/><path d="M144.747 262.393l-.084-15.015-11.996-.014.056 15 12.023.028" stroke="#000" stroke-width="1.146.242" fill="none"/><path d="M135.942 250.508l.042 8.72h5.5l-.03-8.72h-5.512" stroke="#000" stroke-width="1.146.242" fill="none"/><path fill="#fff" d="M147.727 257.785l.133 34.612-34.774-.056-.125-34.582 34.76.027"/><path d="M147.727 257.785l.133 34.612-34.774-.056-.125-34.582 34.76.027h.008z" stroke="#000" stroke-width="1.146.242" fill="none"/><path d="M112.75 267.665l35.012.028" stroke="#000" stroke-width="1.146.242" fill="none"/><path d="M117.12 292.386l-.12-24.46" stroke="#000" stroke-width="1.146.242" fill="none"/><path d="M143.623 292.398l-.118-24.445" stroke="#000" stroke-width="1.146.242" fill="none"/><path d="M160.418 243.047l-19.582-14.297-22.002-.028-19.428 14.268 61.013.056" stroke="#000" stroke-width="1.146.242" fill="none"/><path d="M120.523 216.88l.035 8.722 18.508.014-.035-8.72-18.507-.015" stroke="#000" stroke-width="1.146.242" fill="none"/><path d="M125.545 219.047l.028 4.346h8.5l-.028-4.346h-8.5" stroke="#000" stroke-width="1.146.242" fill="none"/><path d="M129.752 206.956l10.293 7.276-20.51-.027 10.217-7.25" stroke="#000" stroke-width="1.146.242" fill="none"/><path fill="#fff" d="M171.366 202.028c2.924-.07 3.678 12.042 3.685 18.042 2.513.704 8.082 4.207 10.545 7.374l-28.25-.042c2.43-3.125 7.956-6.642 10.448-7.346 0-6.007.614-18.11 3.573-18.042"/><path d="M171.366 202.028c2.924-.07 3.678 12.042 3.685 18.042 2.513.704 8.082 4.207 10.545 7.374l-28.25-.042c2.43-3.125 7.956-6.642 10.448-7.346 0-6.007.614-18.11 3.573-18.042" stroke="#000" stroke-width="1.146.242" fill="none"/><path d="M114.585 258.748h2.533l-.74 1.36s1.222 1.57.02 3.37l.664 1.25h-2.442l.663-1.188s-1.25-2.085.056-3.432l-.755-1.36" stroke="#000" stroke-width="1.146.242" fill="none"/><path d="M119.744 258.748h2.533l-.733 1.36s1.22 1.528.007 3.37l.657 1.25h-2.435l.656-1.188s-1.222-2.085.062-3.432l-.746-1.36" stroke="#000" stroke-width="1.146.242" fill="none"/><path d="M125.384 258.748h2.526l-.753 1.36s1.235 1.57.02 3.37l.664 1.276-2.42-.027.648-1.186s-1.235-2.072.05-3.432l-.74-1.36h.006z" stroke="#000" stroke-width="1.146.242" fill="none"/><path d="M131.735 258.77h2.547l-.746 1.376s1.22 1.542.006 3.348l.684 1.27h-2.456l.656-1.186s-1.22-2.1.084-3.432l-.768-1.375h-.007z" stroke="#000" stroke-width="1.146.242" fill="none"/><path d="M137.387 258.77h2.526l-.747 1.376s1.23 1.542.014 3.34l.67 1.278h-2.435l.635-1.186s-1.228-2.086.097-3.432l-.76-1.375" stroke="#000" stroke-width="1.146.242" fill="none"/><path d="M143.004 258.783l2.526-.014-.746 1.373s1.25 1.543.035 3.35l.634 1.27h-2.443l.657-1.187s-1.22-2.086.084-3.433l-.746-1.36" stroke="#000" stroke-width="1.146.242" fill="none"/><path fill="#ff0" d="M130.508 336.763c13.022.042 29.038-2.616 36.54-6.494l16.476-1.46.328 20.1c-13.958 7.695-46.184 9.348-53.275 9.292-7.097.056-39.72-1.625-53.742-9.348l.182-20.114 16.51 1.486c7.503 3.86 24.007 6.537 37.015 6.537h-.035"/><path d="M130.508 336.763c13.022.042 29.038-2.616 36.54-6.494l16.476-1.46.328 20.1c-13.958 7.695-46.184 9.348-53.275 9.292-7.097.056-39.72-1.625-53.742-9.348l.182-20.114 16.51 1.486c7.503 3.86 24.007 6.537 37.015 6.537h-.035" stroke="#000" stroke-width=".33119399999999993" fill="none"/><path fill="#ff0" d="M34.417 251.023l14.516 4.62-4.39 23.498-13.74 2.135s-2.317-12.356 3.614-30.265"/><path d="M34.417 251.023l14.516 4.62-4.39 23.498-13.74 2.135s-2.317-12.356 3.614-30.265v.014z" stroke="#000" stroke-width=".33119399999999993" fill="none"/><path fill="#7e7e7e" d="M44.54 278.885l-13.734 2.393 8.688-12.356 5.046 9.963"/><path d="M44.54 278.885l-13.734 2.393 8.688-12.356 5.046 9.963" stroke="#000" stroke-width=".33119399999999993" fill="none"/><path fill="#ff0" d="M25.74 267.95l13.99 1.012c.315 11.854 1.752 57.09 55.78 59.547l-1.682 16.457c-65.765.683-70.762-55.486-68.09-77.016"/><path d="M25.74 267.95l13.99 1.012c.315 11.854 1.752 57.09 55.78 59.547l-1.682 16.457c-65.765.683-70.762-55.486-68.09-77.016z" stroke="#000" stroke-width=".33119399999999993" fill="none"/><path d="M77.098 348.34l16.49-3.6" stroke="#000" stroke-width=".33119399999999993" fill="none"/><path fill="#ff0" d="M225.453 251.195l-14.46 4.577 4.586 23.463 13.767 2.21s2.212-12.347-3.894-30.263"/><path d="M225.453 251.195l-14.46 4.577 4.586 23.463 13.767 2.21s2.212-12.347-3.894-30.263v.013z" stroke="#000" stroke-width=".33119399999999993" fill="none"/><path fill="#7e7e7e" d="M215.57 278.988l13.77 2.47-8.807-12.362-4.962 9.892"/><path d="M215.57 278.988l13.77 2.47-8.807-12.362-4.962 9.892" stroke="#000" stroke-width=".33119399999999993" fill="none"/><path fill="#ff0" d="M234.292 268.135l-14.012.956c-.203 11.84-1.236 57.098-55.264 59.498l1.836 16.444c65.75.76 70.274-55.382 67.44-76.905"/><path d="M234.292 268.135l-14.012.956c-.203 11.84-1.236 57.098-55.264 59.498l1.836 16.444c65.75.76 70.274-55.382 67.44-76.905v.006z" stroke="#000" stroke-width=".33119399999999993" fill="none"/><path d="M183.633 348.42l-16.53-3.61" stroke="#000" stroke-width=".33119399999999993" fill="none"/><path fill="#009fc5" d="M121.76 346.666c-.368.237-.87.3-1.45.272l-2.61-.133.223-3.257 2.59.138c.51.035.913.134 1.165.287.523.272.753.775.704 1.472-.034.6-.244.99-.628 1.22m-4.382 5.13l.258-3.97 3.043.21c.984.075 1.716-.183 2.212-.686.516-.49.782-1.13.816-1.856.064-.845-.152-1.535-.655-2.045-.48-.49-1.165-.747-2.023-.83l-4.348-.272-.6 9.348 1.29.084"/><path fill="#009fc5" d="M126.84 343.972l3.182.035c.46.042.824.098 1.09.223.487.23.718.69.718 1.36 0 .63-.182 1.048-.538 1.3-.342.23-.837.333-1.43.333l-3.057-.035.028-3.216m-.05 8.282l.03-3.99 2.986.04c.53 0 .92.043 1.192.175.44.2.656.628.677 1.213l.076 1.57c.02.376.028.607.05.76.04.112.06.23.117.315h1.605l-.028-.203c-.18-.098-.328-.286-.39-.572-.056-.182-.084-.454-.098-.796l-.028-1.248c-.02-.567-.12-.957-.335-1.174-.19-.25-.447-.467-.845-.6.446-.236.78-.508 1.026-.844.23-.37.35-.837.35-1.408 0-1.075-.44-1.808-1.333-2.205-.482-.217-1.096-.33-1.822-.343l-4.487-.042-.035 9.376h1.29"/><path fill="#009fc5" d="M136.745 350.3c-.572-.698-.88-1.57-.95-2.603-.062-1.298.19-2.288.782-2.96.6-.724 1.375-1.072 2.387-1.128 1.02-.057 1.856.27 2.477.912.637.63 1 1.5 1.062 2.59.035 1.045-.146 1.973-.628 2.79-.474.83-1.263 1.297-2.428 1.325-1.215.063-2.122-.223-2.7-.928m-1.536-5.904c-.6.928-.845 2.003-.782 3.3.09 1.403.523 2.562 1.34 3.434.907.872 2.108 1.31 3.587 1.227 1.584-.07 2.777-.67 3.587-1.772.656-.997.97-2.156.9-3.586-.09-1.278-.46-2.318-1.15-3.092-.874-1.04-2.15-1.5-3.88-1.43-1.634.104-2.835.704-3.61 1.918"/><path fill="#009fc5" d="M179.276 330.907c.9-.154 1.682-.11 2.394.132 1.047.327 1.752 1.102 2.19 2.288l-1.29.18c-.28-.64-.677-1.08-1.214-1.325-.523-.23-1.18-.286-1.933-.173-.88.132-1.584.57-2.08 1.276-.488.753-.635 1.758-.418 3.042.18 1.06.572 1.96 1.214 2.56.592.614 1.464.83 2.602.67.85-.14 1.535-.48 2.017-1.068.5-.557.648-1.402.48-2.49l-3.008.46-.153-1.032 4.186-.642.816 4.96-.83.126-.516-1.144c-.35.517-.698.914-1.005 1.144-.516.405-1.214.663-2.086.79-1.13.173-2.163-.03-3.098-.63-1.026-.76-1.69-1.89-1.94-3.46-.273-1.54-.028-2.86.684-3.9.676-1.004 1.66-1.59 2.986-1.78"/><path fill="#009fc5" d="M188.746 330.185l3-1.09c.412-.152.768-.2 1.075-.165.552.04.957.37 1.187 1.024.217.56.217 1.047-.027 1.39-.26.355-.663.613-1.25.83l-2.82 1.01-1.164-3m3 7.752l-1.465-3.76 2.792-1.005c.524-.167.887-.258 1.16-.23.494.063.87.364 1.122.935l.635 1.43c.14.356.25.572.34.67.043.126.134.203.204.286l1.514-.556-.084-.203c-.223 0-.44-.124-.6-.37-.118-.173-.23-.424-.39-.717l-.496-1.173c-.223-.51-.454-.822-.72-1.01-.264-.148-.6-.246-.997-.273.308-.356.532-.712.615-1.13.09-.426.05-.9-.153-1.43-.384-.998-1.09-1.542-2.08-1.612-.523-.042-1.123.07-1.814.313l-4.215 1.5 3.405 8.82 1.235-.455"/><path fill="#009fc5" d="M202.72 333.29l-5.352-7.807 5.876-3.747.65.943-4.817 3.075 1.647 2.386 4.446-2.86.607.915-4.446 2.86 1.816 2.63 4.9-3.132.648.92-5.98 3.818"/><path fill="#009fc5" d="M207.41 319.48l1.534-1.688c.712-.754 1.466-1.096 2.29-.998.823.07 1.66.502 2.553 1.284.245.188.46.432.684.704.392.51.622.957.77 1.403.124.56.097 1.068-.1 1.556-.117.245-.327.53-.64.873l-1.543 1.675-5.548-4.82m8.108 3.675c1.09-1.2 1.326-2.49.69-3.948-.37-.79-.934-1.557-1.716-2.226-.984-.874-2.01-1.32-3.09-1.403-1.202-.09-2.22.342-3.107 1.31l-2.617 2.805 7.216 6.294 2.617-2.82"/><path fill="#009fc5" d="M221.108 315.87l-8.304-4.877.677-1.074 8.32 4.848-.685 1.116"/><path fill="#009fc5" d="M224.364 310.208l-8.967-3.587 2.645-6.306 1.088.42-2.156 5.197 2.7 1.062 2.017-4.787 1.034.426-1.996 4.78 3.022 1.228 2.212-5.26 1.09.41-2.695 6.42"/><path fill="#009fc5" d="M228.48 299.194l-9.435-2.086.314-1.458 8.715-2.944-7.655-1.69.28-1.143 9.434 2.03-.3 1.416-8.73 3.007 7.655 1.653-.273 1.214"/><path fill="#009fc5" d="M227.735 287.217l.118-1.186c.545.016 1.005-.068 1.354-.256.684-.37 1.082-1.074 1.186-2.115.042-.488.02-.915-.09-1.32-.203-.78-.642-1.213-1.347-1.283-.523-.056-.9.07-1.173.356-.244.328-.502.802-.697 1.472l-.433 1.235c-.28.81-.537 1.367-.817 1.68-.446.588-1.074.79-1.877.734-.86-.09-1.557-.432-2.052-1.088-.51-.6-.72-1.458-.594-2.52.084-.968.405-1.785.977-2.44.532-.6 1.355-.887 2.41-.776l-.1 1.186c-.515 0-.927.09-1.227.3-.544.3-.844.935-.935 1.863-.077.767.028 1.283.32 1.674.294.328.664.537 1.096.572.46.04.824-.105 1.075-.46.18-.245.397-.775.69-1.633l.426-1.298c.21-.6.46-1.06.753-1.388.523-.544 1.207-.775 2.065-.71 1.047.11 1.794.543 2.177 1.338.377.803.524 1.69.433 2.693-.12 1.137-.488 2.03-1.172 2.63-.684.614-1.536.823-2.568.74"/><path fill="#009fc5" d="M32.147 286.644l.217 1.172c-.524.104-.942.314-1.25.586-.55.516-.74 1.29-.55 2.345.083.446.244.885.446 1.235.42.71.963.997 1.654.885.51-.09.844-.285 1.005-.648.152-.358.264-.902.3-1.6l.062-1.318c.04-.816.132-1.457.314-1.814.286-.642.823-1.04 1.626-1.17.858-.156 1.612.04 2.26.528.657.454 1.09 1.242 1.25 2.288.202.957.112 1.815-.265 2.59-.363.753-1.06 1.213-2.13 1.408l-.208-1.185c.494-.182.864-.357 1.108-.6.42-.468.545-1.145.384-2.072-.125-.755-.384-1.243-.774-1.486-.384-.288-.768-.4-1.187-.33-.466.07-.773.33-.92.747-.09.28-.16.858-.223 1.744l-.063 1.368c-.035.642-.132 1.173-.35 1.536-.34.67-.92 1.08-1.764 1.213-1.068.18-1.892-.063-2.478-.747-.6-.67-.97-1.472-1.158-2.47-.21-1.185-.056-2.106.42-2.845.48-.76 1.24-1.2 2.274-1.347"/><path fill="#009fc5" d="M31.55 299.01l9.227-2.776 2.15 6.495-1.124.354-1.76-5.337-2.804.845 1.625 4.932-1.075.342-1.612-4.946-3.126.934 1.786 5.456-1.102.315-2.185-6.614"/><path fill="#009fc5" d="M35.644 310.277l8.486-4.5.907 1.584-5.834 6.168 8.52-1.458.88 1.57-8.465 4.472-.6-1.04 4.996-2.63c.182-.105.46-.258.866-.474.397-.18.844-.426 1.29-.656l-8.485 1.444-.62-1.102 5.79-6.147-.278.14c-.182.104-.496.258-.92.502-.42.258-.734.418-.936.5l-4.982 2.673-.614-1.06"/><path fill="#009fc5" d="M51.453 322.77c-.426-.098-.845-.342-1.256-.768l-1.794-1.85 2.415-2.21 1.807 1.842c.35.342.572.676.69.963.17.55 0 1.053-.508 1.527-.46.426-.922.6-1.354.495m-6.818.857l2.96-2.714 2.1 2.128c.676.692 1.367 1.006 2.093.993.74-.043 1.375-.315 1.933-.845.63-.558.93-1.214.93-1.918-.008-.684-.322-1.326-.9-1.926l-3.016-3.077-7.02 6.446.907.914"/><path fill="#009fc5" d="M53.104 331.16l5.087-7.976 6.016 3.656-.628.95-4.94-2.958-1.53 2.414L61.653 330l-.586.915-4.55-2.74-1.73 2.698 5.003 3.008-.6.942-6.086-3.663"/><path fill="#009fc5" d="M68.156 329.623l3.056.97c.433.132.747.3.956.49.39.37.496.898.266 1.54-.19.558-.475.92-.92 1.075-.4.07-.902.07-1.488-.112l-2.882-.92 1.012-3.043m-2.638 7.835l1.27-3.802 2.847.928c.51.133.88.314 1.06.502.35.314.455.78.28 1.36l-.426 1.514c-.098.37-.147.614-.19.726 0 .12 0 .245.022.328l1.5.488.09-.216c-.16-.126-.25-.355-.243-.64.034-.177.083-.455.18-.777l.363-1.215c.147-.53.203-.927.07-1.213-.112-.3-.3-.573-.614-.83.473-.084.885-.23 1.234-.49.328-.285.607-.683.775-1.24.34-1.013.152-1.857-.6-2.5-.378-.333-.916-.62-1.62-.885l-4.27-1.318-2.988 8.894 1.25.384"/><path fill="#bc715f" d="M78.485 175.576c1.102-2.66 11.32-9.908 44.844-6.733 0 0 5.665 3.46 8.994 3.014 1.898-.245-1.117.118-3.594-1.94-2.526-2.058-3.064-6.278 2.708-6.167 5.743.147 27.244 1.36 27.65 3.292.375 1.954-11.37 2.77-15.738 2.66-4.39-.12-3.88 2.1.488 1.932 13.65-.49 28.55-5.296 44.286 5.832 1.877 1.353-4.746 1.57-9.868-.607 0 0-13.88.718-19.882-.266 0 0-4.613 3.753-10.62 3.384.78 1.946-2.22 9.21-21.11 3.746-3.12.956-14.488 2.86-13.246-.516-2.994 0-8.242.963-9.024-.74-.753-1.674 9.24-4.207 10.992-6.02 0 0-21.14.202-25.144-1.257 0 0-12.47 2.8-11.738.372"/><path fill="#008737" d="M85.26 205.168c.454-.613.635-1.716 1.598-1.688 2.094.558 3.517 4.388 6.092 1.904.915-.202 1.263 1.04 2.017 1.187.482 2.13 2.19-.432 3.468-.286 2.73-1.214 6.107-1.5 9.338-.9.097 2.086-1.536 4.39-3.587 5.575.042 2.1 1.947 3.446 1.912 5.56-.328.788-.056 2.03-1.25 2.287-1.514-.272-3.007-.432-4.263-1.276-.154-.153-.28-.453-.6-.355-.154.704.95 1.403 1.38 2.12-.76 1.298-2.022.112-3.083.126-.314.748-.014 1.69-.782 2.17-1.34-.04-1.612-1.498-2.435-2.224-.845.913.593 1.458.795 2.183-.516 2.748-.446 5.434-3.196 7.234l-1.842.915c-.503-1.383-.19-3.476-.524-4.92-1.088 1.772-1.94 3.32-3.538 4.82-1.87-.614-2.96-2.818-3.37-4.646-.782-2.128-.335-4.675 1.347-6.216-.573-1.117-2.534-.858-2.813-2.448-2.938-1.913-4.564 3.348-6.462.613-.614-2.553.12-5.728 1.968-7.633-.412-1.046-1.78-.773-2.59-1.373-1.848-1.57-4.514-3.23-4.382-6.064 5.06-1.91 11.11-.51 14.788 3.335"/><path fill="#ff0" d="M87.885 204.882c-.118 2.315 1.564.627 2.813 2.03-.977-.385-1.69 1.687-2.645.5l-.6.574c.35.795 1.026.9.32 1.772-1.046.397-1.255-.914-1.744-1.43-.085-.23.16-.663-.224-.817-.593.503-1.214.685-2.03.602-.224-.447-.657-1.033-.217-1.375.8-1.082 2.043.39 2.65-.37.098-.67-.488-1.485.273-1.947.523.09 1.193-.194 1.41.462"/><path fill="#ff0" d="M94.145 206.784c.062.447-.23 1.074.356 1.39.76-.413 1.57-.1 2.01.655-.006.403.12.933-.41 1.128l-1.188-.222c.084-.23-.293-.377-.44-.6-.523-.16-.83.264-1.22.522.293.447.97.69.81 1.264-.7.697-1.04-.6-1.808-.273-.524-.203.188-1.29-.635-1.62-.978 0-.33 1.605-1.58.978-.445-.503-.885-1.18-.403-1.744.523-.35 1.41-.26 1.856.194.76-.843.837-4.1 2.66-1.674"/><path fill="#ff0" d="M86.35 210.142c.51.733-.113 1.73.536 2.547 1.02-1.905 2.003.41 3.218.23.37.452.125 1.08.195 1.597-1.5.397-3.31.872-4.635-.328l-.37.424c.79.733 1.536 1.563.908 2.79-1.124.245-2.862.273-3.427-.885-.293-.956.684-1.647-.35-2.415-.745.928-.71 2.17-2.267 1.325-.964-.53-1.25-1.624-.768-2.546 1.004-1.584 2.763.05 3.852-.726.153-1.36-.35-2.546.9-3.3 1.068-.188 1.563.614 2.212 1.284"/><path fill="#fff" d="M90.602 210.98c-.502 2.315-2.247-.12-3.063-.218 1.087-1.93 1.77.63 3.062.217"/><path fill="#fff" d="M96.036 213.5c-1.214.34-1.026-1.173-1.626-1.766l.468-.425c.44.53.774 1.486 1.158 2.19"/><path fill="#ff0" d="M94.397 213.03c.35.803-.79 1.445.18 2.03.308-.257.685-.613.846-.76.83.245 1.793.39 2.372 1.214.622 1.703-1.102 1.66-2.08 2.135l-.97-.043c.23-.474-.418-.677-.578-1.004-.447-.112-.817.027-1.068.404.215 1.082 1.534 1.926.173 2.888-1.15-.076-2.938.37-2.833-1.22-.433-.9 1.172-2.29-.544-2.344-.566 1.215-1.187 2.386-2.66 1.236l.182-1.73c1.41.04 3.078.285 3.713-1.29.406-1.145-.704-2.2.287-3.106 1.438-.328 2.247.635 2.98 1.59"/><path d="M93.365 215.632c.363.86-.614.915-1.075 1.34-.62.05-1.053-.196-1.43-.614-.28-1.04.495-1.145 1.088-1.556.69-.286.977.516 1.417.83"/><path fill="#fff" d="M92.517 216.194c-.154.202-.37.14-.6.195l-.217-1.04c.46.04 1.06.188.817.844"/></g></g></svg>