<svg xmlns="http://www.w3.org/2000/svg" height="480" width="640"><defs><clipPath id="a"><path fill-opacity=".67" d="M-85.648 0h682.67v512h-682.67z"/></clipPath></defs><g clip-path="url(#a)" fill-rule="evenodd" transform="matrix(.938 0 0 .938 80.295 0)"><path stroke-width="1pt" fill="#fff" d="M-256 0H767.4v512H-256z"/><path stroke-width="1pt" fill="#239f40" d="M-256 372.43H766.6v139.12H-256z"/><path stroke-width="1pt" fill="#cd1738" d="M-256 0H766.6v139.12H-256z"/><path fill="#ff0" d="M159.88 212.256l3.68 12.12 11.915-.27-9.884 7.406 3.928 11.774-9.78-7.536-9.494 7.536 3.834-12.065-9.792-7.115 12.152.086z"/><path fill="#ff0" d="M148.04 264.183l3.68 12.12 11.915-.27-9.884 7.406 3.928 11.773-9.78-7.536-9.494 7.536 3.834-12.065-9.792-7.116 12.152.086z"/><path fill="#ff0" d="M199.96 169.89l3.68 12.12 11.915-.27-9.884 7.407 3.928 11.774-9.78-7.535-9.494 7.536 3.834-12.064-9.792-7.116 12.152.086z"/><path fill="#ff0" d="M253.94 155.77l3.68 12.12 11.915-.27-9.884 7.407 3.928 11.774-9.78-7.535-9.494 7.536 3.834-12.064-9.792-7.116 12.152.086z"/><path fill="#ff0" d="M308.373 169.89l3.68 12.12 11.914-.27-9.884 7.407 3.927 11.774-9.78-7.535-9.494 7.536 3.834-12.064-9.792-7.116 12.152.086z"/><path fill="#ff0" d="M348.457 212.484l3.68 12.12 11.914-.27-9.883 7.406 3.927 11.774-9.78-7.536-9.494 7.536 3.834-12.065-9.792-7.117 12.152.086z"/><path fill="#ff0" d="M360.072 264.183l3.68 12.12 11.914-.27-9.884 7.406 3.927 11.773-9.782-7.536-9.493 7.536 3.834-12.065-9.793-7.116 12.152.086z"/><path d="M274.717 235.853c0 8.605-9.248 15.58-20.654 15.58s-20.654-6.975-20.654-15.58 9.247-15.58 20.653-15.58 20.654 6.975 20.654 15.58z" fill="#ff0"/><path fill="#ff0" d="M248.11 246.85h11.796v54.916H248.11z"/><path d="M357.58 297.62c-5.134 10.894-12.042 14.76-23.32 14.458-19.734.468-24.194-14.028-26.767-20.427-6.976 9.195-10.94 12.85-22.52 12.628-16.498.37-24.827-9.022-30.977-26.776-6.15 17.64-14.48 27.032-30.977 26.663-11.58.222-15.546-3.433-22.52-12.627-2.574 6.4-7.033 20.895-26.77 20.427-11.276.302-18.184-3.564-22.806-14.61 5.365 15.426 10.68 24.058 27.152 24.596 14.92.18 21.753-8.46 24.986-14.37 10.75 5.71 11.854 6.977 27.093 6.62 11.376-.367 17.91-7.8 23.797-14.87 5.887 7.07 12.422 14.503 23.797 14.87 15.24.357 16.344-.91 27.092-6.62 3.233 5.91 10.066 14.55 24.986 14.37 16.473-.537 21.788-9.17 27.75-24.33z" fill="#ff0"/><path d="M204.17 313.52l5.385 7.463 10.326-.303-7.968 9.03-15.6.4-4.88-6.537 9.01-1.456 3.784-8.575" fill="#ff0"/><path d="M303.62 313.52l-5.385 7.463-10.326-.303 7.968 9.03 15.6.4 4.88-6.537-9.01-1.456-3.784-8.575" fill="#ff0"/><path d="M241.02 318.31c0-.04 7.086.04 7.086.04l5.958-4.75 5.818 4.69 7.026.1-6.322 9.34H247.3l-6.28-9.42z" fill="#ff0"/><path d="M330.66 351.58c-27.55-5.688-45.99-8.487-76.696-8.487s-49.145 2.8-76.522 8.42l-.038-11.88c27.415-5.672 45.855-8.47 76.56-8.47s49.145 2.798 76.56 8.47l.136 11.947z" fill="#ff0"/><path d="M264.823 235.907c0 3.38-4.83 6.12-10.79 6.12-5.96 0-10.79-2.74-10.79-6.12s4.83-6.12 10.79-6.12c5.96 0 10.79 2.74 10.79 6.12z" fill="#fff"/></g></svg>