<svg xmlns="http://www.w3.org/2000/svg" height="480" width="640"><g><path fill-rule="evenodd" stroke-width="1pt" fill="#f31930" d="M0 0h640v480H0z"/><g><path d="M500.776 214.096" stroke="#000" stroke-width=".728826pt" fill="none"/><path d="M406.974 247.647c0 66.254-54.606 119.96-121.966 119.96S163.043 313.9 163.043 247.647s54.605-119.96 121.965-119.96 121.966 53.707 121.966 119.96z" fill-rule="evenodd" fill="#fff"/><path d="M413.07 247.502c0 52.98-43.7 95.927-97.607 95.927s-97.607-42.95-97.607-95.928 43.7-95.927 97.607-95.927 97.607 42.948 97.607 95.927z" fill-rule="evenodd" fill="#f31830"/><path d="M430.726 191.465l-.985 44.318-41.345 11.225 40.756 14.514-.984 40.642 26.58-31.738 40.164 13.934-23.233-34.06 28.352-33.868-43.513 11.998-25.793-36.964z" fill-rule="evenodd" stroke-width=".938pt" fill="#fff"/></g></g></svg>