<svg xmlns="http://www.w3.org/2000/svg" height="480" width="640"><defs><clipPath id="a"><path fill-opacity=".67" d="M0 0h640v480H0z"/></clipPath></defs><g clip-path="url(#a)"><g fill-rule="evenodd" transform="matrix(.645 0 0 .921 0 23.331)" stroke-width="1pt" fill="#009fca"><path d="M505.97-19.81h486.16v515.87H505.97z"/><rect ry="0" height="521.41" width="523.49" y="-25.343"/></g><g><path fill-rule="evenodd" fill="#fff" d="M.017 0h395.857v196.597H.017z"/><path d="M.016 0L0 14.757l94.465 48.54 35.543 1.028L.018 0z" fill="#c00"/><path d="M40.463 0l114.523 59.822V.002H40.463z" fill="#006"/><path fill="#c00" d="M170.26 0V76.37H.018v43.64H170.26v76.366h52.386v-76.367H392.89v-43.64H222.646V.002H170.26z"/><path d="M237.92 0V56.37L349.968.438 237.92 0z" fill="#006"/><path d="M241.462 62.513l31.514-.253L395.394.437l-32.49.53-121.442 61.546z" fill="#c00"/><path d="M.016 132.736v41.82l78.576-41.39-78.576-.435z" fill="#006"/><path d="M302.588 134.462l-32.755-.255 123.474 61.477-.813-14.065-89.904-47.158zm-271.884 62.25l115.774-60.777-30.407.2L.02 196.63" fill="#c00"/></g><path d="M394.55 17.27l-93.502 46.37 92.257.344v69.093H314.73l77.848 42.18 1.143 21.46-41.58-.498-113.8-55.87v56.366H155.4V140.35L48.65 196.565l-48.213.152v196.37h785.75V.347l-390.82-.34M.417 22.17L.002 62.955l82.722 1.037L.417 22.17z" fill="#006"/><g fill-rule="evenodd" transform="matrix(.792 0 0 .8 .006 0)" fill="#009fca"><path d="M496.06 0h496.06v496.06H496.06z"/><rect rx="0" ry="0" height="251.45" width="525.79" y="244.61" x="-2.303"/></g><g fill-rule="evenodd" stroke-width="1pt" fill="#fff40d"><path d="M593.194 122.58l27.553-.018-22.305 15.218 8.535 24.65-22.278-15.254-22.28 15.25 8.54-24.646-22.302-15.225 27.553.025 8.492-24.66z"/><path d="M523.993 319.36l27.553-.018-22.305 15.218 8.536 24.65-22.278-15.254-22.278 15.25 8.538-24.646-22.3-15.225 27.552.025 8.49-24.66z"/><path d="M593.194 274.815l27.553-.018-22.305 15.218 8.535 24.65-22.278-15.254-22.28 15.252 8.54-24.647-22.302-15.225 27.553.025 8.492-24.66z"/><path d="M295.64 417.534l27.554-.018-22.305 15.218 8.534 24.65-22.278-15.254-22.279 15.25 8.54-24.646-22.302-15.225 27.553.024 8.49-24.66z"/><path d="M358.508 341.272l-27.553.018 22.305-15.218-8.535-24.65 22.278 15.254 22.279-15.25-8.54 24.646 22.302 15.225-27.553-.025-8.49 24.66z"/><path d="M439.815 228.827l-27.553.018 22.305-15.218-8.535-24.65 22.278 15.254 22.279-15.25-8.54 24.647 22.3 15.225-27.552-.025-8.49 24.66z"/><path d="M508.15 205.467l-27.553.018 22.305-15.218-8.535-24.65 22.278 15.254 22.28-15.25-8.54 24.647 22.3 15.225-27.552-.025-8.49 24.66z"/><path d="M439.815 400.083l-27.553.018 22.305-15.217-8.535-24.65 22.278 15.254 22.279-15.25-8.54 24.646 22.3 15.225-27.552-.025-8.49 24.66z"/><path d="M358.508 419.98l-27.553.02 22.305-15.22-8.535-24.65 22.278 15.255 22.279-15.25-8.54 24.646 22.302 15.226-27.553-.025-8.49 24.662z"/></g></g></svg>