<svg xmlns="http://www.w3.org/2000/svg" height="480" width="640"><defs><clipPath id="a"><path fill-opacity=".67" d="M-85.333 0h682.67v512h-682.67z"/></clipPath></defs><g clip-path="url(#a)" transform="matrix(.938 0 0 .938 80 0)"><path fill-rule="evenodd" stroke-width="1pt" fill="#ffe700" d="M-128 341.36h768v85.32h-768z"/><path fill-rule="evenodd" stroke-width="1pt" d="M-128 256h768v85.32h-768z"/><path fill-rule="evenodd" stroke-width="1pt" fill="#de3908" d="M-128 170.68h768V256h-768z"/><path fill-rule="evenodd" stroke-width="1pt" fill="#ffe700" d="M-128 85.358h768v85.32h-768z"/><path fill-rule="evenodd" stroke-width="1pt" d="M-128 0h768v85.32h-768z"/><g><path d="M335.644 255.967c0 44.014-35.68 79.695-79.695 79.695s-79.696-35.68-79.696-79.695 35.68-79.695 79.695-79.695 79.694 35.68 79.694 79.695z" fill-rule="evenodd" stroke="#000" stroke-width=".693.067pt" fill="#fffdff"/><path d="M241.936 194.89l-5.175-9.53c1.998-1.998 5.357-3.542 10.713-3.542 0 .364-.545 10.44-.545 10.44l-4.992 2.633z" fill-rule="evenodd" stroke="#000" stroke-width=".693.067pt" fill="#de3108"/><path d="M246.926 192.354l.727-10.53s10.712-.636 16.522 6.354c.09-.09-5.72 8.17-5.72 8.17l-11.53-3.994z" fill-rule="evenodd" stroke="#000" stroke-width=".693.067pt" fill="#ffe700"/><path d="M258.64 196.256l5.265-8.17c3.54 3.723 4.993 6.355 5.538 10.35.09.09-8.352 2.087-8.352 1.996s-2.36-4.085-2.45-4.176z" fill-rule="evenodd" stroke="#000" stroke-width=".693.067pt" fill="#de3108"/><path stroke-linejoin="round" d="M244.57 331.153s9.895-11.348 29.14-8.896c-2.905-4.72-12.255-4.176-12.255-4.176s-2.905-22.06-.636-23.148 11.89.09 11.89.09c1.272 0 3.45-3.45 1.727-5.628-1.726-2.18-6.81-10.53-4.72-12.165 2.087-1.635 13.434.907 13.434.907l-32.044-41.032s-3.268-15.433 3.268-22.877c7.898-6.536 7.08-13.617 6.81-13.527-1.09-7.17-11.984-12.345-19.338-5.718-4.357 5.265-1.452 9.26-1.452 9.26s-11.44 3.086-11.893 5.083c-.453 1.998 12.892-.362 12.892-.362l-1.27 9.17s-25.964 23.6-6.083 44.027c.18-.09.635-.908.635-.908s6.99 8.624 14.342 10.53c6.9 7.082 6.265 5.992 6.265 5.992s1.36 11.166.09 13.345c-1.724-.546-19.335-1.18-21.97-.183-2.36.727-11.437.273-9.167 15.07 1.724-3.994 3.268-7.535 3.268-7.535s-.273 5.356 1.906 7.263c-.364-5.63 2.087-9.44 2.087-9.44s.454 6.172 1.816 7.08c1.362.907 1.362-9.987 8.897-9.08 7.534.91 12.98.637 12.98.637s2.543 21.333 1.726 23.33c-5.448-1.27-18.43.545-19.246 3.813 7.625-.454 11.167.454 11.167.454s-6.173 5.446-4.267 8.623z" fill-rule="evenodd" stroke="#000" stroke-linecap="round" stroke-width=".693.333"/><path stroke-linejoin="round" d="M247.626 214.75s-18.892 20.822-10.74 36.756c.433-2.222.244-3.618.516-3.527-.454-.273 2.343 1.916 2.13 1.49.06-1.152-.852-3.62-.852-3.62l2.556.638-1.49-2.77 3.62.427s-1.278-3.408-.85-3.408c.424 0 2.98.212 2.98.212-5.372-9.642-.304-17.65 2.13-26.2z" fill-rule="evenodd" stroke="#9ca69c" stroke-linecap="round" stroke-width=".693.333" fill="#9ca69c"/><path d="M254.19 196.887s1 7.172-2.905 9.26c-.635.454-3.086 1.27-2.723 2.724.454 1.998 1.543 1.634 3.087 1.27 4.083-.725 8.804-9.44 2.54-13.253z" fill-rule="evenodd" stroke="#9ca69c" stroke-width=".693.067pt" fill="#9ca69c"/><path d="M247.204 203.063c0 .852-.69 1.543-1.544 1.543-.852 0-1.543-.69-1.543-1.543 0-.852.69-1.543 1.543-1.543s1.544.69 1.544 1.543z" fill-rule="evenodd" fill="#fff"/><path d="M241.118 209.052c-1 .817-6.264 6.264-1.09 8.26 5.357-1.452 3.904-2.45 5.084-3.63.03-2.45-2.663-3.087-3.994-4.63z" fill-rule="evenodd" stroke="#000" stroke-width=".693.067pt" fill="#de3108"/><path stroke-linejoin="round" d="M252.554 260.53c-.272 1.18-1.452 5.538.182 8.897 4.54-1.907 6.627-1.362 8.17-.364-3.72-2.995-5.174-4.267-8.352-8.533z" fill-rule="evenodd" stroke="#9ca69c" stroke-linecap="round" stroke-width=".693.333" fill="#9ca69c"/><path stroke-linejoin="round" d="M260.366 281.137l.272 10.168s3.54.635 5.175 0c1.634-.636-.09-7.08-5.447-10.168z" fill-rule="evenodd" stroke="#fff" stroke-linecap="round" stroke-width=".693.333" fill="#fff"/><path d="M286.053 282.405s-6.536-15.795-23.24-19.79-14.525-21.787-13.163-22.877c.727-1.543 1.27-3.903 6.082-1.633 4.812 2.27 26.963 13.435 30.14 13.98s.454 30.684.18 30.32z" fill-rule="evenodd" stroke="#000" stroke-width=".693.067pt" fill="#9ca69c"/><path stroke-linejoin="round" d="M270.167 262.526c-.272.182 22.332 13.345 15.523 24.693 6.446-4.268 4.358-11.712 4.358-11.712s5.265 13.708-7.535 20.426c1.362 1.18 2.27.907 2.27.907l-2.18 2.18s-.998 1.634 7.627-2.542c-2.36 1.907-2.542 3.268-2.542 3.268s.635 1.816 6.264-3.086c-4.54 4.902-5.538 7.444-5.538 7.353 12.255-1.09 38.944-40.942-8.443-52.744 2.544 2.633 2.18 2.27 2.18 2.27l-11.983 8.986z" fill-rule="evenodd" stroke="#000" stroke-width=".693.333" fill="#de3108"/><path stroke-linejoin="round" d="M271.165 258.624c3.087 2.18 4.175 2.905 4.54 3.995-2.815-.636-5.357-.455-5.357-.455s-6.082-5.81-7.172-6.264c-.817 0-5.537-2.995-5.537-2.995-2.362-1.18-4.54-9.35 4.175-6.99 8.986 4.266 10.257 4.63 10.257 4.63l10.713 3.36c2.058 2.3 4.115 4.6 6.173 6.898 0 0-10.984-5.447-12.346-5.538 2.995 2.45 4.72 5.81 4.72 5.81-3.48-1-6.505-1.906-10.167-2.45z" fill-rule="evenodd" stroke="#000" stroke-linecap="round" stroke-width=".693.333" fill="#fff"/><path d="M228.413 209.87s10.53-2.542 11.8-2.18" stroke="#fff" stroke-linecap="round" stroke-width=".693.333" fill="none"/></g><path fill-rule="evenodd" stroke-width="1pt" fill="#de3908" d="M-128 426.68h768V512h-768z"/></g></svg>