<svg xmlns="http://www.w3.org/2000/svg" height="480" width="640" version="1" xmlns:xlink="http://www.w3.org/1999/xlink"><defs><linearGradient id="a"><stop stop-color="#f00" offset="0"/><stop stop-color="#ff0" offset="1"/></linearGradient><linearGradient id="c" y2="107.76" xlink:href="#a" gradientUnits="userSpaceOnUse" y1="111.28" gradientTransform="matrix(.643 0 0 1.453 -94.683 29.21)" x2="92.551" x1="103.08"/><linearGradient id="d" y2="107.76" xlink:href="#a" gradientUnits="userSpaceOnUse" y1="111.28" gradientTransform="matrix(.643 0 0 1.453 -94.666 30.155)" x2="92.551" x1="103.08"/><linearGradient id="e" y2="107.76" xlink:href="#a" gradientUnits="userSpaceOnUse" y1="111.28" gradientTransform="matrix(.643 0 0 1.453 -97.986 31.014)" x2="92.551" x1="103.08"/><linearGradient id="f" y2="107.76" xlink:href="#a" gradientUnits="userSpaceOnUse" y1="111.28" gradientTransform="matrix(.643 0 0 1.453 -94.743 31.932)" x2="92.551" x1="103.08"/><linearGradient id="g" y2="107.76" xlink:href="#a" gradientUnits="userSpaceOnUse" y1="111.28" gradientTransform="matrix(.643 0 0 1.453 -94.75 32.835)" x2="92.551" x1="103.08"/><linearGradient id="h" y2="107.76" xlink:href="#a" gradientUnits="userSpaceOnUse" y1="111.28" gradientTransform="matrix(.643 0 0 1.453 -94.767 33.751)" x2="92.551" x1="103.08"/><linearGradient id="i" y2="107.76" xlink:href="#a" gradientUnits="userSpaceOnUse" y1="111.28" gradientTransform="matrix(.643 0 0 1.453 -98.011 33.736)" x2="92.551" x1="103.08"/><linearGradient id="j" y2="107.76" xlink:href="#a" gradientUnits="userSpaceOnUse" y1="111.28" gradientTransform="matrix(.643 0 0 1.453 -97.981 32.837)" x2="92.551" x1="103.08"/><linearGradient id="k" y2="107.76" xlink:href="#a" gradientUnits="userSpaceOnUse" y1="111.28" gradientTransform="matrix(.643 0 0 1.453 -97.942 31.918)" x2="92.551" x1="103.08"/><linearGradient id="l" y2="107.76" xlink:href="#a" gradientUnits="userSpaceOnUse" y1="111.28" gradientTransform="matrix(.828 0 0 1.873 602.82 148.17)" x2="92.551" x1="103.08"/><linearGradient id="m" y2="107.76" xlink:href="#a" gradientUnits="userSpaceOnUse" y1="111.28" gradientTransform="matrix(.643 0 0 1.453 -97.976 30.11)" x2="92.551" x1="103.08"/><linearGradient id="n" y2="107.76" xlink:href="#a" gradientUnits="userSpaceOnUse" y1="111.28" gradientTransform="matrix(.643 0 0 1.453 -95.336 30.955)" x2="92.551" x1="103.08"/><clipPath id="b"><path fill-opacity=".67" d="M0 0h640v480H0z"/></clipPath></defs><g clip-path="url(#b)"><path stroke-width="1pt" fill="#006" d="M0 0h960v480H0z"/><g><path fill-rule="evenodd" fill="#006" d="M0 0h350.002v175H0z"/><g stroke-width="1pt"><path d="M0 0v19.564L310.852 174.99h39.128v-19.563L39.128 0H0zm349.98 0v19.564L39.128 174.99H0v-19.564L310.852 0h39.128z" fill="#fff"/><path d="M145.825 0v174.99h58.33V0h-58.33zM0 58.33v58.33h349.98V58.33H0z" fill="#fff"/><path d="M0 69.996v34.998h349.98V69.996H0zM157.49 0v174.99h35V0h-35z" fill="#c00"/><path d="M0 174.99l116.66-58.33h26.085l-116.66 58.33H0zM0 0l116.66 58.33H90.575L0 13.043V0zm207.235 58.33L323.895 0h26.085L233.32 58.33h-26.085zM349.98 174.99l-116.66-58.33h26.085l90.575 45.287v13.043z" fill="#c00"/></g></g><g><path d="M378.474 154.457l219.342-.814-.407 195.333s7.73 29.706-91.968 74.876c35.81-3.663 74.876-41.914 74.876-41.914s15.87-20.347 23.603-8.953c7.732 11.394 15.057 17.09 20.754 21.568 5.697 4.476 10.174 16.685 1.628 25.637-8.546 8.952-21.974 10.173-25.637-.814-5.697 2.85-40.693 45.17-112.31 47.205-72.84-1.22-112.72-47.61-112.72-47.61s-9.766 15.463-23.602 3.255c-13.428-15.87-3.255-26.044-3.255-26.044s11.394-6.51 14.65-10.987c5.29-6.104 6.917-14.243 15.87-14.243 10.58.814 14.65 9.36 14.65 9.36s36.624 38.66 76.096 43.542c-89.12-42.728-92.375-69.18-91.968-75.69l.407-193.7z" fill-rule="evenodd" fill="#fff"/><path d="M383.76 159.743l209.16-1.22v188.003c.407 24.416-40.694 49.24-104.99 80.98-66.323-34.183-104.57-54.94-104.98-81.38l.813-186.373z" fill-rule="evenodd" stroke="#000" stroke-width="1.026.255pt" fill="#006129"/><g><path d="M408.944 366.98l12.35-18.14 12.412 18.18" stroke="#f7c600" stroke-width="1.288602pt" fill="none"/><path d="M423.768 360.175c0 1.355-1.098 2.454-2.453 2.454-1.355 0-2.453-1.1-2.452-2.455 0-1.354 1.097-2.453 2.452-2.453s2.453 1.1 2.453 2.453z" fill-rule="evenodd" stroke="#000" stroke-width=".80528" fill="#f7c600"/><path d="M411.266 380.382l19.148.055s.3-2.485-2-3.996c10.03-1.378 7.423-10.224 15.823-10.725 1.63.25-4.388 3.76-4.388 3.76s-5.065 3.574-2.76 5.39c1.832 1.444 2.634-.876 2.884-2.63.25-1.757 8.15-2.885 7.02-7.9-1.88-4.136-12.912 2.76-12.912 2.76l-7.87-.045c-.49-.883-2.66-4.426-4.9-4.442-2.658.097-4.53 4.486-4.53 4.486H398.98s-.61 4.567 8.417 5.445c2.032 2.653 3.607 3.394 5.374 4.08-1.177.983-1.508 2.17-1.504 3.762z" fill-rule="evenodd" stroke="#000" stroke-width=".805707" fill="#f7c600"/><path d="M412.644 376.493l15.95-.055" stroke="#000" stroke-width=".805707" fill="none"/><path d="M405.34 367.086s1.276 7.46 7.165 9.226" stroke="#000" stroke-width=".805707" fill="none"/><path d="M66.32 170.54c.445-2.15 1.26-2.522 2.15-5.267.15-2.67-2.15-2.374-1.482-4.08 1.187-1.855.593-3.635-1.632-5.045.445 2.448-2.894 4.748-2.894 6.75 0 2.004 1.707 1.56 1.484 4.6.148 1.78-.445 1.336-.593 3.042h2.967z" fill-rule="evenodd" stroke="#000" stroke-width=".609" fill="url(#c)" transform="matrix(1.321 0 0 1.321 316.316 141.314)"/><path d="M423.58 349.3c0 1.245-1.01 2.256-2.258 2.256-1.246 0-2.257-1.01-2.256-2.257 0-1.248 1.01-2.26 2.256-2.26 1.247 0 2.257 1.012 2.257 2.26z" fill-rule="evenodd" stroke="#000" stroke-width=".805707" fill="#f7c600"/></g><g><path d="M408.246 329.658l12.35-18.14 12.412 18.18" stroke="#f7c600" stroke-width="1.288602pt" fill="none"/><path d="M423.07 322.853c0 1.355-1.098 2.454-2.453 2.454-1.355 0-2.453-1.1-2.452-2.454 0-1.354 1.097-2.453 2.452-2.453s2.453 1.1 2.453 2.453z" fill-rule="evenodd" stroke="#000" stroke-width=".80528" fill="#f7c600"/><path d="M410.568 343.06l19.148.055s.3-2.485-2-3.996c10.03-1.38 7.423-10.226 15.823-10.727 1.628.25-4.39 3.76-4.39 3.76s-5.063 3.574-2.757 5.39c1.83 1.444 2.633-.876 2.883-2.63.25-1.757 8.15-2.885 7.02-7.9-1.88-4.136-12.912 2.76-12.912 2.76l-7.87-.045c-.49-.883-2.66-4.426-4.9-4.442-2.658.097-4.53 4.486-4.53 4.486h-17.801s-.61 4.567 8.416 5.445c2.03 2.654 3.606 3.395 5.373 4.082-1.178.98-1.51 2.168-1.505 3.76z" fill-rule="evenodd" stroke="#000" stroke-width=".805707" fill="#f7c600"/><path d="M411.946 339.17l15.95-.054" stroke="#000" stroke-width=".805707" fill="none"/><path d="M404.642 329.764s1.276 7.46 7.165 9.226" stroke="#000" stroke-width=".805707" fill="none"/><path d="M66.32 170.54c.445-2.15 1.26-2.522 2.15-5.267.15-2.67-2.15-2.374-1.482-4.08 1.187-1.855.593-3.635-1.632-5.045.445 2.448-2.894 4.748-2.894 6.75 0 2.004 1.707 1.56 1.484 4.6.148 1.78-.445 1.336-.593 3.042h2.967z" fill-rule="evenodd" stroke="#000" stroke-width=".609" fill="url(#d)" transform="matrix(1.321 0 0 1.321 315.618 104.01)"/><path d="M422.88 311.977c0 1.246-1.01 2.257-2.256 2.257-1.246 0-2.257-1.01-2.256-2.257 0-1.247 1.01-2.258 2.256-2.258 1.247 0 2.257 1.01 2.257 2.257z" fill-rule="evenodd" stroke="#000" stroke-width=".805707" fill="#f7c600"/></g><g><path d="M539.412 295.73l12.35-18.14 12.412 18.18" stroke="#f7c600" stroke-width="1.288602pt" fill="none"/><path d="M554.236 288.925c0 1.355-1.098 2.454-2.453 2.454-1.355 0-2.453-1.1-2.452-2.455 0-1.354 1.098-2.453 2.453-2.453 1.355 0 2.453 1.1 2.453 2.453z" fill-rule="evenodd" stroke="#000" stroke-width=".80528" fill="#f7c600"/><path d="M541.734 309.132l19.148.055s.3-2.485-2-3.996c10.03-1.378 7.423-10.224 15.823-10.725 1.63.25-4.388 3.76-4.388 3.76s-5.064 3.574-2.758 5.39c1.83 1.444 2.632-.876 2.882-2.63.25-1.757 8.15-2.885 7.02-7.9-1.88-4.136-12.912 2.76-12.912 2.76l-7.87-.045c-.49-.883-2.66-4.426-4.9-4.442-2.658.097-4.53 4.486-4.53 4.486H529.45s-.612 4.567 8.415 5.445c2.032 2.653 3.607 3.394 5.374 4.08-1.18.983-1.51 2.17-1.506 3.762z" fill-rule="evenodd" stroke="#000" stroke-width=".805707" fill="#f7c600"/><path d="M543.112 305.243l15.95-.055" stroke="#000" stroke-width=".805707" fill="none"/><path d="M535.808 295.836s1.276 7.46 7.165 9.226" stroke="#000" stroke-width=".805707" fill="none"/><path d="M66.32 170.54c.445-2.15 1.26-2.522 2.15-5.267.15-2.67-2.15-2.374-1.482-4.08 1.187-1.855.593-3.635-1.632-5.045.445 2.448-2.894 4.748-2.894 6.75 0 2.004 1.707 1.56 1.484 4.6.148 1.78-.445 1.336-.593 3.042h2.967z" fill-rule="evenodd" stroke="#000" stroke-width=".609" fill="url(#e)" transform="matrix(1.321 0 0 1.321 446.721 70.098)"/><path d="M554.047 278.05c0 1.245-1.01 2.256-2.257 2.256-1.246 0-2.257-1.01-2.256-2.257 0-1.248 1.01-2.26 2.256-2.26 1.247 0 2.257 1.012 2.257 2.26z" fill-rule="evenodd" stroke="#000" stroke-width=".805707" fill="#f7c600"/></g><g><path d="M411.305 259.45l12.35-18.14 12.412 18.178" stroke="#f7c600" stroke-width="1.288602pt" fill="none"/><path d="M426.13 252.644c0 1.355-1.1 2.454-2.454 2.454-1.355 0-2.453-1.1-2.452-2.454 0-1.354 1.097-2.453 2.452-2.453s2.453 1.1 2.453 2.454z" fill-rule="evenodd" stroke="#000" stroke-width=".80528" fill="#f7c600"/><path d="M413.627 272.85l19.148.056s.3-2.485-2-3.996c10.03-1.38 7.423-10.225 15.823-10.726 1.63.25-4.388 3.76-4.388 3.76s-5.064 3.574-2.758 5.39c1.83 1.444 2.633-.876 2.883-2.63.25-1.757 8.15-2.885 7.02-7.9-1.88-4.136-12.912 2.76-12.912 2.76l-7.87-.045c-.49-.884-2.66-4.427-4.9-4.443-2.658.097-4.53 4.486-4.53 4.486h-17.801s-.61 4.567 8.416 5.445c2.032 2.654 3.607 3.395 5.374 4.082-1.178.982-1.51 2.17-1.505 3.76z" fill-rule="evenodd" stroke="#000" stroke-width=".805707" fill="#f7c600"/><path d="M415.005 268.962l15.95-.055" stroke="#000" stroke-width=".805707" fill="none"/><path d="M407.7 259.555s1.277 7.46 7.166 9.226" stroke="#000" stroke-width=".805707" fill="none"/><path d="M66.32 170.54c.445-2.15 1.26-2.522 2.15-5.267.15-2.67-2.15-2.374-1.482-4.08 1.187-1.855.593-3.635-1.632-5.045.445 2.448-2.894 4.748-2.894 6.75 0 2.004 1.707 1.56 1.484 4.6.148 1.78-.445 1.336-.593 3.042h2.967z" fill-rule="evenodd" stroke="#000" stroke-width=".609" fill="url(#f)" transform="matrix(1.321 0 0 1.321 318.676 33.835)"/><path d="M425.94 241.768c0 1.246-1.01 2.257-2.257 2.257-1.246 0-2.257-1.01-2.256-2.257 0-1.247 1.01-2.258 2.256-2.258 1.247 0 2.257 1.01 2.257 2.258z" fill-rule="evenodd" stroke="#000" stroke-width=".805707" fill="#f7c600"/></g><g><path d="M411.582 223.79l12.35-18.14 12.412 18.18" stroke="#f7c600" stroke-width="1.288602pt" fill="none"/><path d="M426.406 216.985c0 1.355-1.098 2.454-2.453 2.454-1.355 0-2.453-1.1-2.452-2.455 0-1.354 1.098-2.453 2.453-2.453 1.355 0 2.453 1.1 2.453 2.453z" fill-rule="evenodd" stroke="#000" stroke-width=".80528" fill="#f7c600"/><path d="M413.904 237.192l19.148.055s.3-2.485-2-3.996c10.03-1.378 7.423-10.224 15.823-10.725 1.63.25-4.388 3.76-4.388 3.76s-5.064 3.574-2.758 5.39c1.83 1.444 2.632-.876 2.882-2.63.25-1.757 8.15-2.885 7.02-7.9-1.88-4.136-12.912 2.76-12.912 2.76l-7.87-.045c-.49-.883-2.66-4.426-4.9-4.442-2.658.097-4.53 4.486-4.53 4.486H401.62s-.612 4.567 8.415 5.445c2.032 2.653 3.607 3.394 5.374 4.08-1.18.983-1.51 2.17-1.506 3.762z" fill-rule="evenodd" stroke="#000" stroke-width=".805707" fill="#f7c600"/><path d="M415.282 233.303l15.95-.055" stroke="#000" stroke-width=".805707" fill="none"/><path d="M407.978 223.896s1.276 7.46 7.165 9.226" stroke="#000" stroke-width=".805707" fill="none"/><path d="M66.32 170.54c.445-2.15 1.26-2.522 2.15-5.267.15-2.67-2.15-2.374-1.482-4.08 1.187-1.855.593-3.635-1.632-5.045.445 2.448-2.894 4.748-2.894 6.75 0 2.004 1.707 1.56 1.484 4.6.148 1.78-.445 1.336-.593 3.042h2.967z" fill-rule="evenodd" stroke="#000" stroke-width=".609" fill="url(#g)" transform="matrix(1.321 0 0 1.321 318.953 -1.806)"/><path d="M426.217 206.11c0 1.245-1.01 2.256-2.257 2.256-1.246 0-2.257-1.01-2.256-2.257 0-1.248 1.01-2.26 2.256-2.26 1.247 0 2.257 1.012 2.257 2.26z" fill-rule="evenodd" stroke="#000" stroke-width=".805707" fill="#f7c600"/></g><g><path d="M412.26 187.61l12.35-18.14 12.412 18.18" stroke="#f7c600" stroke-width="1.288602pt" fill="none"/><path d="M427.084 180.805c0 1.355-1.098 2.454-2.453 2.454-1.354 0-2.452-1.1-2.45-2.455-.002-1.354 1.096-2.453 2.45-2.453 1.356 0 2.454 1.1 2.454 2.453z" fill-rule="evenodd" stroke="#000" stroke-width=".80528" fill="#f7c600"/><path d="M414.582 201.012l19.148.055s.3-2.485-2-3.996c10.03-1.378 7.423-10.224 15.823-10.725 1.63.25-4.388 3.76-4.388 3.76s-5.064 3.574-2.758 5.39c1.83 1.444 2.633-.876 2.883-2.63.25-1.757 8.15-2.885 7.02-7.9-1.88-4.136-12.912 2.76-12.912 2.76l-7.87-.045c-.49-.883-2.66-4.426-4.9-4.442-2.658.097-4.53 4.486-4.53 4.486h-17.801s-.61 4.567 8.416 5.445c2.032 2.653 3.607 3.394 5.374 4.08-1.178.983-1.51 2.17-1.505 3.762z" fill-rule="evenodd" stroke="#000" stroke-width=".805707" fill="#f7c600"/><path d="M415.96 197.123l15.95-.055" stroke="#000" stroke-width=".805707" fill="none"/><path d="M408.656 187.716s1.276 7.46 7.165 9.226" stroke="#000" stroke-width=".805707" fill="none"/><path d="M66.32 170.54c.445-2.15 1.26-2.522 2.15-5.267.15-2.67-2.15-2.374-1.482-4.08 1.187-1.855.593-3.635-1.632-5.045.445 2.448-2.894 4.748-2.894 6.75 0 2.004 1.707 1.56 1.484 4.6.148 1.78-.445 1.336-.593 3.042h2.967z" fill-rule="evenodd" stroke="#000" stroke-width=".609" fill="url(#h)" transform="matrix(1.321 0 0 1.321 319.63 -37.968)"/><path d="M426.895 169.93c0 1.245-1.01 2.256-2.257 2.256-1.246 0-2.257-1.01-2.256-2.257 0-1.248 1.01-2.26 2.256-2.26 1.247 0 2.257 1.012 2.257 2.26z" fill-rule="evenodd" stroke="#000" stroke-width=".805707" fill="#f7c600"/></g><g><path d="M540.387 188.2l12.35-18.14 12.412 18.18" stroke="#f7c600" stroke-width="1.288602pt" fill="none"/><path d="M555.21 181.395c0 1.355-1.097 2.454-2.452 2.454s-2.453-1.1-2.452-2.455c0-1.354 1.097-2.453 2.452-2.453s2.453 1.1 2.453 2.453z" fill-rule="evenodd" stroke="#000" stroke-width=".80528" fill="#f7c600"/><path d="M542.71 201.602l19.147.055s.3-2.485-2-3.996c10.03-1.378 7.423-10.224 15.823-10.725 1.63.25-4.388 3.76-4.388 3.76s-5.064 3.574-2.758 5.39c1.83 1.444 2.633-.876 2.883-2.63.25-1.757 8.15-2.885 7.02-7.9-1.88-4.136-12.912 2.76-12.912 2.76l-7.87-.045c-.49-.883-2.66-4.426-4.9-4.442-2.658.097-4.53 4.486-4.53 4.486h-17.801s-.61 4.567 8.416 5.445c2.032 2.653 3.607 3.394 5.374 4.08-1.178.983-1.51 2.17-1.505 3.762z" fill-rule="evenodd" stroke="#000" stroke-width=".805707" fill="#f7c600"/><path d="M544.087 197.713l15.95-.055" stroke="#000" stroke-width=".805707" fill="none"/><path d="M536.783 188.306s1.276 7.46 7.165 9.226" stroke="#000" stroke-width=".805707" fill="none"/><path d="M66.32 170.54c.445-2.15 1.26-2.522 2.15-5.267.15-2.67-2.15-2.374-1.482-4.08 1.187-1.855.593-3.635-1.632-5.045.445 2.448-2.894 4.748-2.894 6.75 0 2.004 1.707 1.56 1.484 4.6.148 1.78-.445 1.336-.593 3.042h2.967z" fill-rule="evenodd" stroke="#000" stroke-width=".609" fill="url(#i)" transform="matrix(1.321 0 0 1.321 447.695 -37.379)"/><path d="M555.022 170.52c0 1.245-1.01 2.256-2.257 2.256-1.246 0-2.257-1.01-2.256-2.257-.002-1.248 1.01-2.26 2.255-2.26 1.247 0 2.257 1.012 2.257 2.26z" fill-rule="evenodd" stroke="#000" stroke-width=".805707" fill="#f7c600"/></g><g><path d="M539.217 223.716l12.35-18.14 12.412 18.18" stroke="#f7c600" stroke-width="1.288602pt" fill="none"/><path d="M554.04 216.91c0 1.356-1.097 2.455-2.452 2.455s-2.453-1.1-2.452-2.454c0-1.353 1.097-2.452 2.452-2.452s2.453 1.1 2.453 2.453z" fill-rule="evenodd" stroke="#000" stroke-width=".80528" fill="#f7c600"/><path d="M541.54 237.118l19.147.055s.3-2.485-2-3.996c10.03-1.38 7.423-10.225 15.823-10.726 1.63.25-4.388 3.762-4.388 3.762s-5.064 3.573-2.758 5.39c1.83 1.443 2.633-.877 2.883-2.632.25-1.756 8.15-2.884 7.02-7.898-1.88-4.137-12.912 2.758-12.912 2.758l-7.87-.044c-.49-.883-2.66-4.426-4.9-4.442-2.658.097-4.53 4.486-4.53 4.486h-17.801s-.61 4.567 8.416 5.445c2.032 2.654 3.607 3.395 5.374 4.082-1.178.982-1.51 2.17-1.505 3.76z" fill-rule="evenodd" stroke="#000" stroke-width=".805707" fill="#f7c600"/><path d="M542.917 233.23l15.95-.056" stroke="#000" stroke-width=".805707" fill="none"/><path d="M535.613 223.822s1.276 7.46 7.165 9.226" stroke="#000" stroke-width=".805707" fill="none"/><path d="M66.32 170.54c.445-2.15 1.26-2.522 2.15-5.267.15-2.67-2.15-2.374-1.482-4.08 1.187-1.855.593-3.635-1.632-5.045.445 2.448-2.894 4.748-2.894 6.75 0 2.004 1.707 1.56 1.484 4.6.148 1.78-.445 1.336-.593 3.042h2.967z" fill-rule="evenodd" stroke="#000" stroke-width=".609" fill="url(#j)" transform="matrix(1.321 0 0 1.321 446.526 -1.881)"/><path d="M553.852 206.035c0 1.246-1.01 2.257-2.257 2.257-1.246 0-2.257-1.01-2.256-2.257-.002-1.247 1.01-2.258 2.255-2.258 1.247 0 2.257 1.01 2.257 2.258z" fill-rule="evenodd" stroke="#000" stroke-width=".805707" fill="#f7c600"/></g><g><path d="M537.647 260.017l12.35-18.14 12.412 18.18" stroke="#f7c600" stroke-width="1.288602pt" fill="none"/><path d="M552.47 253.212c0 1.355-1.097 2.454-2.452 2.454s-2.453-1.1-2.452-2.454c0-1.354 1.097-2.453 2.452-2.453s2.453 1.098 2.453 2.452z" fill-rule="evenodd" stroke="#000" stroke-width=".80528" fill="#f7c600"/><path d="M539.97 273.42l19.147.054s.3-2.485-2-3.996c10.03-1.38 7.423-10.225 15.823-10.726 1.63.25-4.388 3.76-4.388 3.76s-5.064 3.574-2.758 5.39c1.83 1.444 2.633-.876 2.883-2.63.25-1.757 8.15-2.885 7.02-7.9-1.88-4.136-12.912 2.76-12.912 2.76l-7.87-.045c-.49-.883-2.66-4.426-4.9-4.442-2.658.097-4.53 4.486-4.53 4.486h-17.801s-.61 4.568 8.416 5.446c2.032 2.654 3.607 3.395 5.374 4.082-1.178.982-1.51 2.17-1.505 3.76z" fill-rule="evenodd" stroke="#000" stroke-width=".805707" fill="#f7c600"/><path d="M541.347 269.53l15.95-.055" stroke="#000" stroke-width=".805707" fill="none"/><path d="M534.043 260.123s1.276 7.46 7.165 9.226" stroke="#000" stroke-width=".805707" fill="none"/><path d="M66.32 170.54c.445-2.15 1.26-2.522 2.15-5.267.15-2.67-2.15-2.374-1.482-4.08 1.187-1.855.593-3.635-1.632-5.045.445 2.448-2.894 4.748-2.894 6.75 0 2.004 1.707 1.56 1.484 4.6.148 1.78-.445 1.336-.593 3.042h2.967z" fill-rule="evenodd" stroke="#000" stroke-width=".609" fill="url(#k)" transform="matrix(1.321 0 0 1.321 444.956 34.403)"/><path d="M552.282 242.336c0 1.246-1.01 2.257-2.257 2.257-1.246 0-2.257-1.01-2.256-2.257-.002-1.247 1.01-2.258 2.255-2.258 1.247 0 2.257 1.01 2.257 2.258z" fill-rule="evenodd" stroke="#000" stroke-width=".805707" fill="#f7c600"/></g><path d="M539.183 367.27l12.346-18.132 12.406 18.17" stroke="#f7c600" stroke-width="1.026.255" fill="none"/><path d="M554.005 360.496c0 1.354-1.097 2.453-2.452 2.453s-2.452-1.1-2.452-2.454 1.1-2.453 2.453-2.453c1.355 0 2.453 1.1 2.452 2.453z" fill-rule="evenodd" stroke="#000" stroke-width=".8043840000000001" fill="#f7c600"/><path d="M541.503 380.667l19.14.054s.3-2.483-2-3.993c10.027-1.378 7.423-10.222 15.82-10.723 1.628.25-4.387 3.76-4.387 3.76s-5.063 3.572-2.757 5.39c1.83 1.44 2.63-.878 2.88-2.633.252-1.753 8.147-2.88 7.02-7.894-1.88-4.136-12.91 2.757-12.91 2.757l-7.867-.044c-.49-.884-2.66-4.425-4.898-4.44-2.657.096-4.528 4.483-4.528 4.483H529.222s-.61 4.566 8.412 5.443c2.03 2.653 3.606 3.394 5.372 4.08-1.177.982-1.51 2.17-1.504 3.76z" fill-rule="evenodd" stroke="#000" stroke-width=".8043840000000001" fill="#f7c600"/><path d="M542.878 376.776l15.943-.054" stroke="#000" stroke-width=".8043840000000001" fill="none"/><path d="M535.58 367.384s1.275 7.456 7.162 9.222" stroke="#000" stroke-width=".8043840000000001" fill="none"/><path d="M814.5 330.27c.573-2.772 1.625-3.25 2.772-6.786.19-3.44-2.772-3.06-1.912-5.257 1.53-2.39.765-4.683-2.103-6.5.574 3.155-3.727 6.118-3.727 8.698s2.198 2.008 1.91 5.926c.193 2.295-.572 1.722-.763 3.92h3.823z" fill-rule="evenodd" stroke="#000" stroke-width=".784" fill="url(#l)" transform="matrix(1.026 0 0 1.026 -301.49 28.259)"/><path d="M553.394 349.448c0 1.246-1.01 2.256-2.255 2.256-1.246 0-2.256-1.01-2.256-2.256 0-1.245 1.01-2.255 2.255-2.255s2.254 1.01 2.254 2.255z" fill-rule="evenodd" stroke="#000" stroke-width=".8043840000000001" fill="#f7c600"/><g><path d="M539.022 331.442l12.35-18.14 12.412 18.18" stroke="#f7c600" stroke-width="1.288602pt" fill="none"/><path d="M553.846 324.637c0 1.355-1.098 2.454-2.453 2.454-1.355 0-2.453-1.098-2.452-2.453 0-1.354 1.098-2.453 2.453-2.453 1.355 0 2.453 1.1 2.453 2.453z" fill-rule="evenodd" stroke="#000" stroke-width=".80528" fill="#f7c600"/><path d="M541.344 344.844l19.148.055s.3-2.486-2-3.997c10.03-1.38 7.423-10.225 15.823-10.726 1.63.25-4.388 3.76-4.388 3.76s-5.064 3.574-2.758 5.39c1.83 1.444 2.632-.876 2.882-2.63.25-1.757 8.15-2.885 7.02-7.9-1.88-4.136-12.912 2.76-12.912 2.76l-7.87-.045c-.49-.883-2.66-4.426-4.9-4.442-2.658.097-4.53 4.486-4.53 4.486H529.06s-.612 4.567 8.415 5.445c2.032 2.655 3.607 3.396 5.374 4.083-1.18.982-1.51 2.17-1.506 3.76z" fill-rule="evenodd" stroke="#000" stroke-width=".805707" fill="#f7c600"/><path d="M542.722 340.955l15.95-.055" stroke="#000" stroke-width=".805707" fill="none"/><path d="M535.418 331.548s1.276 7.46 7.165 9.226" stroke="#000" stroke-width=".805707" fill="none"/><path d="M66.32 170.54c.445-2.15 1.26-2.522 2.15-5.267.15-2.67-2.15-2.374-1.482-4.08 1.187-1.855.593-3.635-1.632-5.045.445 2.448-2.894 4.748-2.894 6.75 0 2.004 1.707 1.56 1.484 4.6.148 1.78-.445 1.336-.593 3.042h2.967z" fill-rule="evenodd" stroke="#000" stroke-width=".609" fill="url(#m)" transform="matrix(1.321 0 0 1.321 446.331 105.793)"/><path d="M553.657 313.76c0 1.247-1.01 2.258-2.257 2.258-1.246 0-2.257-1.01-2.256-2.257 0-1.246 1.01-2.257 2.256-2.257 1.247 0 2.257 1.01 2.257 2.258z" fill-rule="evenodd" stroke="#000" stroke-width=".805707" fill="#f7c600"/></g><g><path d="M434.71 298.067l12.35-18.14 12.41 18.18" stroke="#f7c600" stroke-width="1.288602pt" fill="none"/><path d="M449.533 291.262c0 1.355-1.098 2.454-2.453 2.454-1.355 0-2.453-1.1-2.452-2.454 0-1.354 1.097-2.453 2.452-2.453s2.453 1.098 2.453 2.452z" fill-rule="evenodd" stroke="#000" stroke-width=".80528" fill="#f7c600"/><path d="M437.03 311.47l19.15.054s.3-2.485-2-3.996c10.028-1.38 7.422-10.225 15.822-10.726 1.63.25-4.388 3.76-4.388 3.76s-5.064 3.574-2.758 5.39c1.83 1.444 2.633-.876 2.883-2.63.25-1.757 8.148-2.885 7.02-7.9-1.88-4.136-12.913 2.76-12.913 2.76l-7.87-.045c-.49-.883-2.66-4.426-4.9-4.442-2.658.097-4.53 4.486-4.53 4.486h-17.802s-.61 4.568 8.416 5.446c2.032 2.654 3.607 3.395 5.374 4.082-1.178.982-1.51 2.17-1.505 3.76z" fill-rule="evenodd" stroke="#000" stroke-width=".805707" fill="#f7c600"/><path d="M438.41 307.58l15.948-.055" stroke="#000" stroke-width=".805707" fill="none"/><path d="M431.105 298.173s1.276 7.46 7.165 9.226" stroke="#000" stroke-width=".805707" fill="none"/><path d="M66.32 170.54c.445-2.15 1.26-2.522 2.15-5.267.15-2.67-2.15-2.374-1.482-4.08 1.187-1.855.593-3.635-1.632-5.045.445 2.448-2.894 4.748-2.894 6.75 0 2.004 1.707 1.56 1.484 4.6.148 1.78-.445 1.336-.593 3.042h2.967z" fill-rule="evenodd" stroke="#000" stroke-width=".609" fill="url(#n)" transform="matrix(1.321 0 0 1.321 342.068 72.434)"/><path d="M449.344 280.386c0 1.246-1.01 2.257-2.257 2.257-1.246 0-2.257-1.01-2.256-2.257 0-1.247 1.01-2.258 2.257-2.258s2.257 1.01 2.257 2.258z" fill-rule="evenodd" stroke="#000" stroke-width=".805707" fill="#f7c600"/></g><g stroke="#000"><path d="M500.805 384.258s4.997 11.52 10.688 4.44 3.608-10.13 3.608-10.13l-12.768-6.94-3.748 7.91 2.22 4.72z" fill-rule="evenodd" stroke-width=".805707" fill="#f7c600"/><path d="M511.773 382.736s.832.14 1.526-1.11-1.527-1.805-2.5-3.193l-1.11 2.22 2.083 2.083z" fill-rule="evenodd" stroke-width=".805707" fill="#ffc6b5"/><path d="M482.892 379.68l-11.243 6.107s-5.553 1.11-5.97 0c-.416-1.11.14-2.082 3.054-2.22 2.915-.14 10.826-7.357 10.826-7.357l3.332 3.47z" fill-rule="evenodd" stroke-width=".805707" fill="#ffc6b5"/><path d="M483.037 179.947s.278 2.637.417 4.025-2.22 4.303-2.36 4.164-1.25.14-1.11.972 1.804 1.11 1.804 1.11-.694 2.915 0 3.053c.694.14-1.804 3.75 0 4.72 1.804.972 4.858 2.22 6.246 1.944 1.388-.278 0 5.413 0 5.413l-3.886 8.328 21.374-2.22-4.442-7.08s-2.08-1.388-1.526-5.413c.555-4.025-.278-22.208-.278-22.208l-15.267-2.082-.973 5.275z" fill-rule="evenodd" stroke-width=".805707" fill="#ffc6b5"/><path d="M479.148 211.593s-6.94 3.192-6.663 11.798c-1.804 8.33-2.776 16.656-2.776 16.656s-8.19 9.3-10.688 12.63c-2.5 3.332-6.246 10.133-7.634 11.937s-6.8 7.773-6.663 9.994c.14 2.22-1.25 12.075 4.164 13.186 1.387.555 5.83-11.382 5.83-11.382s.277-5.134-1.25-6.106S456.8 266 456.8 266s9.3-6.8 11.383-8.465 7.772-8.05 7.772-8.05l3.193-37.893z" fill-rule="evenodd" stroke-width=".805707" fill="#ffc6b5"/><path d="M487.06 205.07s1.804 4.857 5.83 4.024c4.024-.832 8.743-4.58 8.743-4.58s3.748-.14 4.303.416c.555.556 10.132 9.855 9.854 12.77-.277 2.915-4.44 2.082-5.968 4.025s-4.025 6.8-3.33 10.41 2.775 8.328 2.497 10.132-1.805 2.36-1.805 3.33c0 .973 1.25 2.638 1.25 4.443s-1.667 4.44-1.39 6.246c.28 1.804.418 7.078.418 7.078l-.417 24.43s1.388.832 1.527 2.22c.14 1.388 9.438 41.778 9.438 41.778s-.415 1.25-1.387 1.11 3.748 6.246 3.887 8.05 4.858 15.963 4.72 17.906c-.14 1.943-.834 6.246-1.25 6.385-.417.14 3.053 8.883 2.498 10.27-.555 1.39-6.246 1.25-6.246 1.25l-1.527-.277s.14 1.804-.97 1.943-9.3-.418-9.3-.418-2.36 3.61-3.748 3.47c-1.388-.138-3.193-2.637-3.61-2.22-.416.416 1.25 2.775.834 3.47-.416.694-7.495 2.22-8.883-1.11-1.388-3.332.833-2.5.417-3.193-.417-.695-3.61-2.5-4.58-1.944s2.498 1.388 2.36 2.776c-.14 1.388-3.055 3.47-4.165 3.47s-3.748-5.136-7.635-4.58c-3.886.554-6.385 1.526-6.385 1.526s-4.58 1.943-6.523 1.527c-1.943-.417-2.776-1.943-2.776-2.776 0-.834 1.39-4.443 1.25-5.553s-1.25-2.22-1.25-3.887c0-1.665 3.193-7.356 3.193-7.356l-.138-25.54s-2.915 0-3.054-1.803 4.443-40.39 5.136-42.888c.694-2.5 2.5-11.382 2.5-11.382s-2.083.972-2.222 0 6.246-23.04 6.246-23.04 1.11-10.965 1.11-13.88c0-2.914-.555-6.94-.555-6.94s-5.698-2.412-5.83-6.107c-.52-5.878 5.414-9.16 6.108-11.104l2.776-7.773s3.052-5.275 8.05-6.107z" fill-rule="evenodd" stroke-width=".805707" fill="#fff"/><path d="M484.982 381.347s-13.463 7.08-15.406 7.634c-1.944.556-3.193-2.358-1.25-2.914 1.944-.555 4.997-.833 4.997-.833s-4.58-3.608-4.44-3.747c.138-.14 6.245-2.36 6.383-2.36s1.944 3.61 3.193 3.33 4.857-3.052 4.857-3.052 1.943 2.22 1.665 1.943z" fill-rule="evenodd" stroke-width=".805707" fill="#f7c600"/><path d="M503.954 385.223c1.273 1.642 1.77 4.49 4.685 2.824 2.914-1.665-1.494-4.757-1.494-4.757l-3.192 1.933z" fill-rule="evenodd" stroke-width=".805707" fill="#ffc6b5"/><path d="M509.272 384.946s1.388 1.11 2.637-.14-2.5-3.885-2.5-3.885l-1.803 2.083 1.665 1.943z" fill-rule="evenodd" stroke-width=".805707" fill="#ffc6b5"/><path d="M505.105 210.482s-12.353 7.91-12.076 10.687" stroke-width=".805707" fill="none"/><path d="M507.883 211.87s-2.776 3.053-2.915 3.053" stroke-width=".805707" fill="none"/><path d="M511.627 215.2s-6.107 4.997-5.135 8.19" stroke-width=".805707" fill="none"/><path d="M482.76 209.788s-1.805 3.748-1.39 4.997c.418 1.25 3.47 5.97 3.888 8.883.416 2.915 0 4.997 0 4.997" stroke-width=".805707" fill="none"/><path d="M479.57 216.728s.556 4.44 1.39 5.274c.832.833 3.052 4.58 3.33 6.107" stroke-width=".805707" fill="none"/><path d="M478.46 235.187s3.608 1.805 6.94-5.135" stroke-width=".805707" fill="none"/><path d="M490.803 225.195c-.14 0-2.637 6.8 1.805 9.3s7.772 2.22 9.715 1.526c1.944-.693 4.026-1.942 4.026-1.942" stroke-width=".805707" fill="none"/><path d="M488.872 233.523s.277 9.16 13.74 18.183" stroke-width=".805707" fill="none"/><path d="M489.427 242.128s-.14 8.05 5.136 11.66" stroke-width=".805707" fill="none"/><path d="M486.65 232.69s-4.026 11.936-7.22 13.185" stroke-width=".805707" fill="none"/><path d="M485.392 241.435s-.14 8.605-1.25 11.66" stroke-width=".805707" fill="none"/><path d="M483.037 255.175s2.776 3.47 5.83 3.193c3.053-.278 4.302-3.887 6.384-3.332 2.083.556 4.027 2.22 8.885 1.805" stroke-width=".805707" fill="none"/><path d="M497.193 260.45s0 7.077 1.25 7.77.693 7.22.693 7.22" stroke-width=".805707" fill="none"/><path d="M480.26 257.12s-.14 6.66-.973 9.02c-.832 2.36-2.498 6.385-2.22 9.855" stroke-width=".805707" fill="none"/><path d="M471.792 279.886c.694-.277 3.053-2.36 3.053-2.36" stroke-width=".805707" fill="none"/><path d="M476.09 279.053s-5.967 25.54-4.3 40.806" stroke-width=".805707" fill="none"/><path d="M477.48 280.296s-3.053 19.155-1.665 22.764" stroke-width=".805707" fill="none"/><path d="M475.96 279.74c.138 0 11.658.833 11.658.833" stroke-width=".805707" fill="none"/><path d="M489.282 279.053s3.192 1.665 7.634 1.388" stroke-width=".805707" fill="none"/><path d="M487.893 288.353s-.556 32.757-1.388 39.975" stroke-width=".805707" fill="none"/><path d="M504.973 295.842s3.608 28.73 5.69 31.368" stroke-width=".805707" fill="none"/><path d="M498.027 299.453s2.22 25.4 3.47 27.622" stroke-width=".805707" fill="none"/><path d="M466.526 335.955s4.303-1.388 8.19-5.552c4.44 5.968 11.242.278 11.242.278s10.55 7.218 15.267-.832c7.218 4.72 10.826-.694 10.826-.694s2.64 4.025 4.582 3.61" stroke-width=".805707" fill="none"/><path d="M505.105 335.545s5.413 25.4 13.463 32.617" stroke-width=".805707" fill="none"/><path d="M477.203 332.9s.694 21.236 1.943 36.225" stroke-width=".805707" fill="none"/><path d="M476.237 356.91s-.694 13.88-1.527 14.853" stroke-width=".805707" fill="none"/><path d="M468.048 373.158s1.526 5.968 9.16.416 7.773 2.082 8.05 2.915c.278.832 1.527 6.8 4.442 1.803" stroke-width=".805707" fill="none"/><path d="M495.804 370.102s-1.25 12.352 9.716 3.33c10.965-9.02 12.77-.138 13.047 2.638" stroke-width=".805707" fill="none"/><path d="M482.614 179.113s3.053.417 4.72-.555c1.665-.97 3.608-1.388 4.996.555s2.36 1.805 2.36 1.805-2.083 5.135 0 5.69c2.08.556 3.053.556 3.192 1.25.14.694-1.805 2.22-1.25 2.914.556.694 1.527 1.527 1.666 2.082.14.555-1.25 2.915-.833 3.47.417.555 1.666 2.776 2.5 2.776.83 0 .276 3.47 2.775 2.637s2.36-3.053 2.36-3.053 2.636-.417 3.33-2.776c.694-2.36 2.36-2.915 2.36-2.915s3.33-1.804-1.11-4.58c0-19.432-12.77-17.35-12.77-17.35s-1.527-3.47-4.025-3.054c-2.498.416-2.637 3.33-4.442 3.053-1.804-.278-2.22-1.527-2.36-1.388-.138.14-1.665 2.915-1.665 3.61 0 .693-4.858-.973-4.44 2.636s2.775 3.47 2.636 3.193z" fill-rule="evenodd" stroke-width=".805707" fill="#9c5100"/><path d="M495.95 174.394s-.972 6.107 5.552 5.552c-.833 3.33 1.665 4.442 1.665 4.442" stroke-width=".805707" fill="none"/><path d="M508.015 188.135c.14 0 2.915 1.804-.138 4.025" stroke-width=".805707" fill="none"/><path d="M498.582 192.993s1.388 1.666 2.915 1.25c1.527-.417 4.025 1.526 4.025 1.526s2.082.693 2.36.277" stroke-width=".805707" fill="none"/><path d="M490.115 198.268s4.72 1.804 7.773-5.69" stroke-width=".805707" fill="none"/><path d="M481.37 190.356l2.776.14" stroke-width=".805707" fill="none"/><path stroke-linejoin="round" d="M481.794 193.132h2.498l-2.22.97" stroke-width=".805707" fill="none"/><path stroke-linejoin="round" d="M485.26 185.36c.416 0 1.943-.556 2.22-.14.278.417-1.665.694-2.22.14z" stroke-width="1.323.096" fill="none"/><path d="M515.24 218.336c.138 0 4.58 13.74 5.134 17.21.556 3.47 2.36 17.35 1.666 19.295-.694 1.944-7.773 11.243-8.605 13.602-.833 2.36-5.83 11.382-5.83 11.382s-1.25 8.883-1.804 9.3c-.555.416 1.434 2.596 1.25 3.33-.276.827-4.025 4.72-5.69 4.303-1.667-.416-4.304-2.36-4.442-4.164s.138-7.772 1.388-9.3 7.772-16.932 8.19-17.905c.415-.97 5.967-13.047 6.106-15.128.14-2.082-1.727-6.897-3.69-8.663-4.37-12.857-2.652-20.61 6.327-23.26z" fill-rule="evenodd" stroke-width=".805707" fill="#ffc6b5"/><path d="M450.57 277.89l.218 6.08" stroke-width=".805707" fill="none"/><path d="M444.87 277.44s3.9 6.52 3.575 9.997" stroke-width=".805707" fill="none"/><path stroke-linejoin="round" d="M497.14 291.066s2.916-.307 2.824 4.56c1.862-6.046 5.65-6.19 5.65-6.19" stroke-width=".805707" fill="none"/></g><path d="M486.735 429.753c58.57-1.627 96.396-43.927 95.99-44.334-.408-.408 7.727-11.796 14.235-10.17 6.508 1.627 15.863 20.744 27.25 24.81 5.696 8.95-1.626 17.084-4.066 18.71-2.44 1.628-13.422 6.102-15.05-.405-1.626-6.508-4.88-5.288-4.88-5.288s-52.063 50.842-112.255 48.81c-62.228.41-113.477-48.808-113.477-48.808l-4.474 4.88s-4.882 5.287-7.322 4.88c-2.44-.406-13.016-7.32-13.83-14.235-.813-6.915 6.508-11.39 6.508-11.39s17.897-13.828 19.93-21.15c4.068-4.066 11.795 2.848 11.795 2.848s47.183 54.096 99.65 50.843z" fill-rule="evenodd" stroke="#000" stroke-width="1.026.255pt" fill="#f7c600"/><path d="M354.145 398.296s4.84-1.29 6.614.726c1.774 2.017 13.954 13.955 13.954 13.955" stroke="#000" stroke-width="1.026.255pt" fill="none"/><path d="M365.195 403.94l-4.84 3.63s12.18 2.42 9.437 10.405" stroke="#000" stroke-width="1.026.255pt" fill="none"/><path d="M619.848 397.886s-2.42-1.29-6.21 1.532c-3.793 2.824-13.392 13.552-13.392 13.552" stroke="#000" stroke-width="1.026.255pt" fill="none"/><path d="M608.962 403.62l5.243 4.034s-10.97.726-8.55 11.13" stroke="#000" stroke-width="1.026.255pt" fill="none"/><path d="M416.146 411.203l-.353.495c-.736-.364-1.575-.43-2.517-.203-.692.18-1.996.83-3.91 1.95l-16.117 9.395-.442-.314 4.06-18.84c.49-2.272.715-3.65.672-4.14-.033-.48-.373-1.01-1.02-1.593l.353-.495 8.687 6.196-.352.494-.294-.21c-.784-.56-1.39-.842-1.814-.85-.3-.012-.542.11-.727.37-.114.16-.215.377-.303.65-.08.265-.256 1.02-.527 2.266l-2.57 11.777 9.31-5.477c1.12-.667 1.847-1.13 2.18-1.39.333-.26.582-.505.747-.737.19-.267.288-.554.292-.86.003-.307-.095-.612-.295-.916-.275-.425-.73-.863-1.362-1.314l.353-.495 5.948 4.243m5.787 28.005l-.29.533-10.213-5.584.29-.533.65.355c.566.31 1.077.458 1.533.445.323.002.64-.123.954-.376.232-.173.616-.75 1.15-1.728l7.027-12.85c.546-.997.835-1.65.866-1.958.03-.307-.067-.64-.294-1.002-.212-.365-.59-.698-1.14-.997l-.647-.355.29-.532 10.212 5.584-.29.533-.65-.355c-.566-.31-1.077-.458-1.533-.445-.324-.002-.647.12-.97.368-.23.174-.615.75-1.15 1.73l-7.026 12.847c-.546.998-.835 1.65-.866 1.96-.02.31.074.65.286 1.016.227.36.614.69 1.16.99l.65.355m37.304-8.75l-2.632 7.392-.573-.204c.03-2.267-.46-4.172-1.467-5.716-1.006-1.543-2.33-2.607-3.97-3.19-1.566-.56-3.028-.58-4.385-.064-1.352.505-2.526 1.47-3.52 2.892-.996 1.423-1.79 2.965-2.38 4.625-.716 2.01-1.107 3.858-1.173 5.542s.3 3.07 1.1 4.155c.808 1.09 1.94 1.894 3.392 2.41.505.18 1.038.313 1.6.398.577.077 1.18.112 1.81.104l1.554-4.36c.294-.826.426-1.377.397-1.654-.024-.288-.182-.594-.473-.92-.28-.32-.674-.57-1.18-.75l-.54-.192.204-.573 10.192 3.63-.204.573c-.792-.224-1.372-.31-1.74-.254-.354.048-.68.228-.976.54-.163.164-.38.626-.652 1.39l-1.553 4.36c-1.553.12-3.11.072-4.67-.147-1.554-.205-3.11-.585-4.665-1.14-1.99-.708-3.55-1.565-4.678-2.57-1.115-1.014-2.02-2.14-2.72-3.375-.684-1.243-1.113-2.517-1.287-3.822-.215-1.68-.008-3.4.62-5.164 1.123-3.154 3.18-5.425 6.172-6.81 2.99-1.386 6.167-1.48 9.528-.284 1.04.37 1.95.788 2.726 1.25.424.244 1.072.742 1.942 1.494.885.745 1.42 1.15 1.606 1.217.29.103.593.096.914-.022.325-.13.695-.45 1.11-.964l.572.204m15.717 25.226l-.09.6-11.51-1.743.092-.6.73.11c.64.098 1.17.062 1.594-.106.305-.11.56-.336.768-.68.16-.242.32-.915.49-2.02l2.192-14.477c.17-1.125.217-1.837.14-2.137-.076-.3-.282-.58-.62-.84-.323-.27-.794-.453-1.41-.547l-.73-.11.09-.6 11.508 1.742-.09.6-.732-.11c-.638-.096-1.17-.06-1.593.108-.304.108-.566.335-.784.678-.16.243-.322.915-.49 2.02l-2.192 14.477c-.17 1.125-.218 1.837-.14 2.137.086.3.292.587.616.857.337.262.814.44 1.43.533l.73.11m29.872-7.255l-.438 7.846-19.74 1.008-.03-.607.737-.038c.645-.033 1.158-.174 1.54-.423.277-.168.482-.44.616-.82.108-.27.133-.96.076-2.076l-.746-14.623c-.058-1.137-.155-1.844-.29-2.122-.134-.278-.393-.512-.775-.7-.372-.2-.87-.285-1.492-.253l-.738.038-.03-.607 11.852-.604.03.607-.966.05c-.644.032-1.157.173-1.54.423-.275.167-.486.44-.63.82-.108.27-.133.96-.076 2.076l.723 14.165c.058 1.137.16 1.86.308 2.17.147.3.415.516.806.65.28.084.943.1 1.992.046l1.853-.094c1.18-.062 2.153-.32 2.92-.775.765-.456 1.41-1.146 1.93-2.07.535-.927 1.014-2.277 1.438-4.052l.673-.035m21.592-3.746l-7.534 2.25-.277 2.345c-.087.78-.063 1.395.072 1.846.177.598.55.966 1.117 1.105.333.084 1.068 0 2.205-.247l.174.583-7.094 2.12-.174-.583c.73-.344 1.266-.846 1.606-1.508.336-.67.623-1.928.86-3.77l2.545-19.297.298-.09 12.917 15.194c1.23 1.436 2.143 2.3 2.744 2.588.452.22 1.012.257 1.678.116l.174.582-10.32 3.082-.173-.582.424-.127c.828-.248 1.376-.538 1.642-.87.18-.235.224-.51.13-.825-.056-.19-.145-.374-.268-.554-.05-.087-.324-.434-.824-1.038l-1.927-2.32m-.882-1.004l-5.372-6.396-1.077 8.323 6.45-1.927m28.446-28.988l2.852 5.307-.52.28c-.967-1.06-1.78-1.752-2.44-2.08-.668-.338-1.414-.49-2.24-.455-.46.023-1.148.28-2.063.774l-1.46.785 8.132 15.125c.54 1.003.93 1.6 1.17 1.794.25.188.586.293 1.008.315.426.007.918-.14 1.477-.44l.65-.35.29.534-10.267 5.52-.288-.536.65-.35c.57-.306.973-.653 1.21-1.042.18-.27.252-.608.22-1.013-.018-.29-.29-.925-.82-1.908l-8.13-15.125-1.418.762c-1.32.71-2.13 1.504-2.426 2.385-.42 1.23-.35 2.63.205 4.195l-.55.295-2.852-5.306 17.61-9.47m13.353-7.916l5.457 7.234.354-.267c1.127-.85 1.677-1.82 1.65-2.91s-.49-2.377-1.393-3.863l.5-.375 7.018 9.305-.498.375c-.87-.934-1.718-1.596-2.547-1.986-.82-.396-1.534-.535-2.145-.417-.617.108-1.35.482-2.196 1.12l3.776 5.008c.738.978 1.23 1.547 1.472 1.706.252.152.545.213.877.18.333-.03.753-.237 1.26-.62l1.06-.8c1.66-1.252 2.7-2.638 3.115-4.16.425-1.525.263-3.24-.487-5.142l.485-.366 3.46 6.252-15.36 11.585-.365-.485.59-.444c.516-.39.86-.794 1.038-1.215.134-.295.15-.636.05-1.025-.063-.283-.43-.87-1.102-1.76l-8.817-11.69c-.607-.804-1-1.282-1.183-1.432-.318-.24-.657-.354-1.02-.342-.515.007-1.062.227-1.638.662l-.59.445-.366-.485 14.875-11.22 3.965 5.255-.498.376c-1.222-1.093-2.275-1.745-3.16-1.955-.876-.216-1.833-.14-2.87.23-.607.213-1.584.827-2.93 1.84l-1.834 1.385"/><path d="M380.205 412.876c72.753 59.01 144.06 60.092 213.83 0" fill="none"/></g></g></svg>