<svg xmlns="http://www.w3.org/2000/svg" height="480" width="640"><g fill-rule="evenodd" stroke-width="1pt"><path fill="#f00" d="M0 0h640v480H0z"/><g><path fill="#00006b" d="M0 0h314.407v157.21H0z"/><g fill="#fff"><path d="M162.858 144.354l-12.475-8.413-11.957 8.553 3.798-15.003-11.48-9.248 14.827-.857 4.866-14.27 5.36 14.472 14.486.427-11.51 9.807z"/><path d="M160.636 44.557l-9.97-6.407-9.79 6.36 2.716-11.948-8.776-7.814 11.655-.976 4.356-11.187 4.49 11.343 11.473.9-8.885 7.987z"/><path d="M116.5 80.46l-9.7-6.657-9.913 6.656 3.086-11.67-9.138-7.763 11.596-.554 4.27-11.454 4.088 11.324 11.77.685-9.07 7.552z"/><path d="M205.026 72.417l-9.317-6-9.067 6.073 2.608-11.07-8.35-7.086 10.928-.84 3.9-10.455 4.145 10.55 10.765.624-8.364 7.36z"/><path d="M178.95 98.672l-6.21-3.866-6.19 3.905 1.613-7.342-5.485-4.922 7.21-.673 2.806-6.947 2.842 6.928 7.215.63-5.454 4.953z"/></g></g></g></svg>