<svg xmlns="http://www.w3.org/2000/svg" height="480" width="640"><defs><clipPath id="a"><path fill-opacity=".67" d="M-170.67 0H512v512h-682.67z"/></clipPath></defs><g fill-rule="evenodd" clip-path="url(#a)" transform="matrix(.938 0 0 .938 160 0)"><path stroke-width="1pt" fill="#198a00" d="M-256 0h768v512h-768z"/><path stroke-width="1pt" fill="#ef7d00" d="M421.87 183.94h90.126v328.03H421.87z"/><path stroke-width="1pt" d="M331.85 183.78h90.03v328.1h-90.03z"/><path stroke-width="1pt" fill="#de2010" d="M239.95 183.98h91.935V512H239.95z"/><g stroke="#000" fill="#ef7d00"><path stroke-linejoin="round" d="M451.606 65.588s33.916-14.493 37.202-17.48c1.495 1.792-13.596 20.02-42.88 26.743 26.595-6.274 49.305-25.996 53.937-25.398 1.345.3 1.045 19.274-59.913 35.708 42.133-11.056 66.636-31.375 66.337-29.134.298.448-4.184 15.986-41.088 28.088 10.31-2.39 38.25-19.422 37.95-16.135.896 1.343-27.043 37.2-77.54 25.548 40.34 10.458 66.486-14.792 70.222-14.344.747.15-7.47 22.112-58.27 23.457 24.355-2.54 17.332-.15 17.332-.15s-14.344 11.207-31.674 3.588c13.596 3.735 15.09 3.884 15.388 5.08-.896 1.493-12.102 3.735-22.86-2.093 8.666 3.586 16.436 4.184 16.585 5.53-.15.447-5.677 3.585-10.607 1.344-4.93-2.243-50.35-30.182-50.35-30.182l77.39-21.216 2.838 1.046z" stroke-width=".745.333"/><path stroke-linejoin="round" d="M360.62 141.166c-6.806 0-6.994 6.056-6.994 6.056s-.562.437-.187 3.373c1.122-2 1.685-2.624 1.685-2.624.75.127 3.87 1.063 8.803-2.808-4.496 4.682-1.81 6.43-1.81 6.43s-1.062 3.685 2.372 4.434c-1.06-1.5-.436-2.81-.436-2.81s4.807-.5 4.495-6.368c.187 5.307 3.06 6.618 3.06 6.618s0 2.934 3.12 3.185c-1.685-1.498-1.31-3.81-1.31-3.81s4.058-2.933.623-7.928c2.06-1.187 3.747-4.496 3.747-4.496s-2.81-1.186-4.12-2.185c-.626-1.31-.063-8.49-.063-8.49l-1.686-9.305-4.807 14.487c.187-2.06.312 6.244-6.494 6.244z" stroke-width=".745.333"/><path stroke-linejoin="round" d="M394.234 120.27c.15.148 5.08 5.677 9.86 5.377 1.793-1.493-3.735-4.78-3.735-5.527 1.94 1.793 10.16 8.814 15.388 6.275 2.092-2.988-3.735-2.54-10.16-10.608 4.482 2.988 15.688 9.562 20.917 7.022 2.242-2.392-11.654-9.863-16.285-15.69l-11.952-6.125-16.286 13.298 12.252 5.976z" stroke-width=".745.333"/><path stroke-linejoin="round" d="M375.854 74.85s5.528-3.286 27.64-1.642c2.39.298 15.09-4.333 19.125-5.678 6.423-1.195 26.892-5.677 32.42-9.86 3.885-.45-1.046 7.17-5.976 8.964-5.23 2.39-24.204 8.965-30.928 8.068 8.068.15 3.587 6.724-9.86 3.586 6.424 3.586 4.033 4.184 4.033 4.184s-11.355.597-14.343-1.943c7.62 2.838 4.482 3.884 4.482 3.884s-7.77.747-11.357-.897c5.528 1.644 2.69 2.69 2.69 2.69s-4.482.747-8.218-.598c-3.734-1.346-9.412-10.758-9.71-10.758z" stroke-linecap="round" stroke-width=".745.333"/><path stroke-linejoin="round" d="M384.72 123.368l.812 14.61s-.437.75-.812 1.188c-.375.436-10.365-1.562-8.992 6.056 0 3.122.063 3.933 2.186 5.682-.562-2.06-.374-3.497-.374-3.497s2.81 1.686 5.557-2.934c-1.873 4.558-.563 6.18-.126 6.306.44.81-.747 4.495 3 4.432-1.437-1.374-.75-3.372-.75-3.372s3.933-.623 2.56-7.742c1.436-1.436 1.998-.062 1.998-.062s.436 4.245 3.87 3.37c1.562.875-.25 3.186-.25 3.186s2.498.062 3.248-2.06c.75-2.124 1.623-5.933-2.498-7.494-.5-1.498 1.624-1.623 1.624-1.623s2.622.874 3.37 2.185c.75 1.31.5-3.434-2.746-3.933-3.996-.126-4.245-.937-4.245-1.124 0-.188-.686-10.615-1-13.612l-6.43.438z" stroke-width=".745.333"/><path stroke-linejoin="round" d="M398.622 135.817c.05-.67-6.817-9.915-5.075-11.11 1.74.36 4.596 4.563 6.91 3.2-.702-1.64-2.768-.717-5.115-4.913-2.346-4.744-2.69-11.864-10.906-19.632 5.32 8.22 17.388 13.038 17.9 10.64s-10.627-11.458-10.057-13.643c2.214 4.485 13.397 14.48 21.637 13.652.565-1.924-6.747-5.808-8.63-9.435-5.263-3.535-19.348-15.677-19.63-18.493-5.126-7.475-8.326-9.737-9.816-10.598-.575-.678-.72-1.327-.832-1.74-3.182-7.5 1.033-9.936 3.5-10.297 2.03-.226 2.62.078 4.08-.63-1.73-.676-3.46-1.31-5.188-1.986 2.255 1.654 8.015.198 6.766 4.962 2.526-.96 7.9-7.354-6.09-8.797-4.553-5.223-23.27-8.225-27.956 14.57.374.32.57.582 1.76 1.47-5.915-2.857-21.858-5.067-27.602-5.995-15.526-4.48-31.648-15.273-33.197-13.945-2.072.92 9.38 11.574 8.784 11.81-9.93-5.79-19-9.892-27.44-13.625-5.94-2.22-11.887-7.387-12.543-6.404-2.184 4.528 9.52 15.908 11.7 17.246 2.177 1.28 19.302 9.225 19.05 9.324-25.794-11.708-30.12-13.83-31.413-15.18-2.274-.512-7.812-7.99-9.355-7.508-.845.83.85 12.645 13.158 17.948 2.007 1.463 26.384 10.208 26.145 10.893-.06.17-27.92-11.5-29.003-11.916-5.372-2.107-11.963-9.49-13.195-8.66-1.176.754 3.04 8.746 8.466 11.252 2.845 1.254 13.758 6.66 23.59 10.1.628.226-17.672-6.94-26.47-10.618-3.99-2.214-5.87-4.974-6.477-4.38-.9.594 1.452 12.4 29.727 19.06.745.317 9.953-2.18 9.498-1.85-.113.083-9.143 2.05-10.022 1.982-.782-.12-5.73.585-5.818.842-.3.798 1.792 5.025 16.39 4.144 1.867-.112 11.996-3.69 11.145-2.92-.426.385-13.792 4.73-14.81 4.815-.884.124-5.58.615-5.754 1.115-.21.68 3.477 3.69 11.317 4.17 6.942.37 20.132-4.24 19.868-3.94-.265.298-12.716 4.564-13.042 4.824-.45.255-5.01.502-5.17.853-.372.87 6.577 7.368 27.127.434-2.064 2.79-12.025 4.697-12.01 5.2-.047.363 2.194 2.528 5.676 3.303 1.74.387 4.125.308 6.303-.036 3.91-.783 8.032-2.33 13.27-7.17.625 1.52-13.084 8.456-12.44 9.118 2.973 2.756 12.847-.356 13.494-.717.647-.362 19.014-10.72 18.95-11.918.286 1.536-23.68 14.558-23.42 15.092 1.538 2.455 9.725-.13 10.116-.354.39-.225 10.448-5.66 10.724-5.82.274-.16-11.82 7.08-10.743 8.182-.52 4.7 18.89-3.244 20.41-4.234.762-.494-9.323 4.434-9.35 6.776 3.248 5.49 13.646 3.75 15.25 2.54.803-.603-.944 4.08-.38 3.655.195-.088 2.26-2.53 3.055-4.3-.253 1.535-1.393 3.952-2.06 6.725-.665 2.773-.855 5.902-1.77 9.226-.21 1.46 6.408-2.855 5.447-13.17.566 5.365-2.09 15.398-1.394 15.92 1.39 1.043 5.233-4.997 5.62-9.08 1.143 2.062 3.538 6.368 5.6 7.36-.226-3.122.038-2.98-.89-6.046.535-4.073.61-9.708.74-16.072 5.6 10.726 7.832 15.256 6.268 23.47 1.665.695 4.325-5.733 4.11-9.042 2.138 9.193 11.367 10.572 11.514 10.304z" stroke-linecap="round" stroke-width=".745.067pt"/><path stroke-linejoin="round" d="M305.354 67.718s-3.81 2.88-8.554 2.71c1.186 4.743 11.01 1.1 11.01 1.1s-4.742 5.252-8.13 6.1c2.032 1.693 10.586 1.1 12.026.253 1.44-.846 3.98-4.15 3.98-4.15s-8.807 10.164-10.078 10.08c-.17 1.185 9.232.762 11.18-1.017 1.947-1.78 6.86-4.404 6.86-4.404s-12.874 8.976-13.467 8.976c4.83 1.27 14.484-1.524 20.667-5.335-9.147 6.1-9.994 7.2-14.652 9.232 4.15.932 6.267 3.727 20.326-2.372 8.047-3.81 12.62-10.756 12.62-10.756-4.997 6.69-12.873 12.366-21.596 17.955-.51 1.016 9.316 5.165 21.85-7.877" stroke-linecap="round" stroke-width=".745.067pt"/><path d="M373.448 96.004s.847 3.98 4.235 7.03c3.388 3.048 3.642 6.013 3.642 6.013" stroke-linecap="round" stroke-width=".745.067pt"/><path d="M371.757 70.09s1.185 3.556 4.658 5.843c3.557 2.287 8.893 9.485 9.317 10.756.41 1.537 2.455 12.62 2.286 13.804" stroke-linecap="round" stroke-width=".745.067pt"/><path d="M350.16 75.594c.253 1.355-4.998 8.215 2.2 16.26-6.52 7.96-6.52 8.978-6.52 8.978s3.64 2.033 10.163-3.557c10.756 13.212 7.172 19.26 7.172 19.26" stroke-linecap="round" stroke-width=".745.067pt"/><path stroke-linejoin="round" d="M362.318 107.21s-.99-1.42.775-6.72c1.59 1.916 3.36 2.325 4.135 3.1.775.776 8.896 1.95 9.412 7.38" stroke-linecap="round" stroke-width=".745.067pt"/><path d="M371.86 57.46c0-.398-1.634-3.907-7.735.48 3.27.198 6.5 2.073 7.736-.48z" stroke-width=".745.067pt"/><path stroke-linejoin="round" d="M430.09 73.506c.3.15 18.228 4.034 24.205 2.092-7.62 10.16-22.86 3.287-22.86 3.287 7.47 2.24 7.77 2.092 10.16 4.184.747 1.94-13.746 1.044-18.527-1.645 13.298 4.183 13.596 3.885 14.045 5.528.598 2.24-21.814-.598-23.756-3.586 5.976 4.632 9.263 5.528 12.55 7.62-4.034 1.793-11.504 3.586-25.25-6.125 18.078 16.434 34.364 15.388 36.904 18.376-6.274 9.264-30.628-5.527-41.833-12.998-11.206-7.47 24.503 18.078 27.79 17.63-1.644 2.54-13.447.298-14.194-.897" stroke-width=".745.067pt"/><path d="M434.724 90.688c-2.09.3-8.366.3-9.262.15" stroke-linecap="round" stroke-width=".745.067pt"/><path stroke-linejoin="round" d="M300.104 65.007s13.635 7.2 19.394 6.69c-1.524 1.44-3.81 2.034-3.81 2.034 1.44.594 5.42 2.71 11.433 1.356-1.44 1.44-3.302 3.05-3.302 3.05s5.166 1.947 11.01-1.102c-1.778 2.202-2.795 3.81-2.795 3.81l4.065.255" stroke-linecap="round" stroke-width=".745.067pt"/></g></g></svg>