<svg xmlns="http://www.w3.org/2000/svg" height="480" width="640"><defs><clipPath id="a"><path fill-opacity=".67" d="M0 0h682.67v512H0z"/></clipPath></defs><g clip-path="url(#a)" transform="scale(.938 .938)"><path fill-rule="evenodd" stroke-width="1pt" fill="#319208" d="M0 438.86h1024v73.143H0z"/><path fill-rule="evenodd" stroke-width="1pt" fill="#de2010" d="M0 292.57h1024v73.143H0z"/><path fill-rule="evenodd" stroke-width="1pt" fill="#ffd200" d="M0 365.71h1024v73.143H0z"/><path fill-rule="evenodd" stroke-width="1pt" fill="#de2010" d="M0 146.29h1024v73.143H0z"/><path fill-rule="evenodd" stroke-width="1pt" fill="#ffd200" d="M0 73.143h1024v73.143H0z"/><path fill-rule="evenodd" stroke-width="1pt" fill="#319208" d="M0 0h1024v73.143H0z"/><path d="M28.89 0v512l343.77-256L28.89 0z" fill-rule="evenodd" stroke-width="1pt"/><path fill-rule="evenodd" stroke-width="1pt" d="M0 0h29.257v512H0z"/><path d="M0 0v512l373.03-256L0 0z" fill-rule="evenodd" stroke-width="1pt"/><path fill-rule="evenodd" stroke-width="1pt" d="M0 219.43h1024v73.143H0z"/><path d="M0 0v512l343.77-256L0 0z" fill-rule="evenodd" stroke-width="1pt" fill="#fff"/><g><path fill="#d62419" fill-rule="evenodd" stroke-width="1.058pt" d="M131.97 114.9l27.242 90.384 97.415.888-77.55 53.843 29.268 92.906-75.166-57.112-79.326 56.546 31.088-89.142-78.298-57.964 94.397 2.018z"/><path d="M50.042 166.226c1.657-2.985 1.988-4.643 10.612-8.292 11.275-32.832 40.13-19.898 56.048 25.537 14.592 6.302 101.814 71.304 100.488 74.952-.663 3.317-11.608.664-11.608.664s-17.245 73.625-17.576 73.625c-32.17-4.31-82.25-4.974-116.41-4.31.33-5.64-9.287-42.45-9.287-42.45s-8.293-2.654 5.637-30.844c14.924-35.485 17.91-93.192-17.908-88.88z" fill-rule="evenodd" stroke="#000" stroke-width="1.032.067pt" fill="#f7df00"/><path d="M79.55 152.953c0 2.015-1.634 3.648-3.65 3.648s-3.647-1.632-3.647-3.647 1.634-3.648 3.648-3.648 3.65 1.633 3.65 3.648z" stroke="#000" stroke-width="1.032.067pt" fill="none"/><path d="M115.704 183.472s-28.522 16.25-36.813 15.918" stroke="#000" stroke-width="1.032.067pt" fill="none"/><path d="M205.58 259.084c-1.99-1.66-105.79-6.633-101.484-41.788" stroke="#000" stroke-width="1.032.067pt" fill="none"/><path d="M120.68 259.745s11.274 6.633 20.89-10.613" stroke="#000" stroke-width="1.032.067pt" fill="none"/><path d="M133.28 259.414s7.96 7.296 19.568-8.622" stroke="#000" stroke-width="1.032.067pt" fill="none"/><path d="M62.644 285.95s7.295.995 8.623-3.317" stroke="#000" stroke-width="1.032.067pt" fill="none"/><path d="M97.126 328.73c0-.33-7.296-47.094-7.296-47.094 36.04 3.206 73.404 3.428 108.113 9.62" stroke="#000" stroke-width="1.032.067pt" fill="none"/><path d="M93.483 282.296l9.948 11.607 10.283-9.95 8.622 9.287" stroke="#000" stroke-width="1.032.067pt" fill="none"/><path d="M124.993 293.577l8.622-7.628 9.287 8.953" stroke="#000" stroke-width="1.032.067pt" fill="none"/><path d="M144.55 294.898l9.62-8.622 7.295 8.623" stroke="#000" stroke-width="1.032.067pt" fill="none"/><path d="M165.45 295.238l8.624-5.97 7.627 7.297" stroke="#000" stroke-width="1.032.067pt" fill="none"/><path d="M187.672 296.23l6.3-5.97" stroke="#000" stroke-width="1.032.067pt" fill="none"/><path d="M91.82 292.906l10.614 12.272 10.612-9.62 9.286 9.95 10.613-9.285 8.955 10.612 10.944-9.286s8.29 10.28 9.286 10.28 10.944-8.622 10.944-8.622l9.618 10.612 13.265-10.612" stroke="#000" stroke-width="1.032.067pt" fill="none"/><path d="M93.483 304.847s85.564 3.317 99.492 6.634" stroke="#000" stroke-width="1.032.067pt" fill="none"/><path d="M107.746 266.05s81.252 4.312 94.187 9.286" stroke="#000" stroke-width="1.032.067pt" fill="none"/><path d="M91.16 232.218c.664 4.975-5.306 22.22-11.606 28.19-8.624 6.965-7.63 21.557-7.63 21.557.996 5.97 13.93 5.306 15.59 2.322 1.325-13.598 15.917-16.583 15.917-16.583s20.232-5.637 28.855-22.55" stroke="#000" stroke-width="1.032.067pt" fill="none"/><path d="M131.95 275.33c0 2.38-1.93 4.31-4.312 4.31s-4.312-1.93-4.312-4.31c0-2.382 1.93-4.312 4.312-4.312s4.31 1.93 4.31 4.31z" stroke="#000" stroke-width="1.032.067pt" fill="none"/><path d="M151.187 276.99c0 2.382-1.93 4.312-4.31 4.312s-4.312-1.93-4.312-4.31c0-2.382 1.93-4.312 4.31-4.312s4.312 1.93 4.312 4.31z" stroke="#000" stroke-width="1.032.067pt" fill="none"/></g></g></svg>