<svg xmlns="http://www.w3.org/2000/svg" height="480" width="640"><defs><clipPath id="a"><path fill-opacity=".67" d="M-12.355 32h640v480h-640z"/></clipPath></defs><g clip-path="url(#a)" fill-rule="evenodd" transform="translate(12.355 -32)"><path stroke-width="1pt" fill="#00f" d="M-52 32h719.29v118.94H-52z"/><path fill="#ff0" d="M-52 391.65h719.29V512H-52z"/><path stroke-width="1pt" fill="#009a00" d="M-52 271.3h719.29v120.35H-52z"/><path stroke-width="1pt" fill="#fff" d="M-52 150.94h719.29v120.35H-52z"/><path stroke-width="1pt" fill="#f00" d="M247.7 32.474h119.88v479.53H247.7z"/><path transform="matrix(.967 0 0 .97 -52 30.593)" stroke-width="1pt" fill="#ff0" d="M156.47 110.32l-32.5-22.386-32.394 22.606 11.244-37.835-31.506-23.82 39.456-1 12.92-37.323 13.14 37.214 39.49.754-31.33 23.998z"/></g></svg>