<svg xmlns="http://www.w3.org/2000/svg" height="480" width="640"><defs><clipPath id="a"><path fill-opacity=".67" d="M-85.333 0h682.67v512h-682.67z"/></clipPath></defs><g clip-path="url(#a)" transform="matrix(.938 0 0 .938 80 0)"><g fill-rule="evenodd"><path stroke-width="1.032pt" fill="#fff" d="M-128 168.222h767.975v171.886H-128z"/><path stroke-width="1.032pt" d="M-128 340.108h767.975v171.886H-128z"/><path stroke-width="1.032pt" fill="#f00" d="M-128 0h767.975v168.222H-128z"/><g><path d="M322.44-322.44h7.087l3.75 60.236-7.294 7.087-7.086-7.087 3.543-60.236z" transform="matrix(.625 -.033 .059 .783 65.255 520.569)" stroke="#fff" stroke-width="1pt" fill="#d7b900"/><path d="M322.44-322.44h7.087l3.75 60.236-7.294 7.087-7.086-7.087 3.543-60.236z" transform="matrix(.625 .024 -.042 .783 23.799 502.242)" stroke="#fff" stroke-width="1pt" fill="#d7b900"/><g stroke="#fff" stroke-width="4.824" fill="#d7b900"><path d="M307.01 212.084l4.872 86.81-9.744-6.945-4.872-79.867h9.744z"/><path d="M297.26 212.08l4.872 79.866-9.744-6.945-4.872-72.92h9.744z"/><path d="M287.507 212.087l4.873 72.922-9.744-6.946-4.873-65.976h9.744z"/><path d="M277.76 212.085l4.87 65.978-9.743-6.945-4.872-59.032h9.744z"/></g><g stroke="#fff" stroke-width="4.824" fill="#d7b900"><path d="M188.206 212.024l-4.34 86.81 8.68-6.945 4.34-79.867h-8.68z"/><path d="M196.882 212.02l-4.34 79.866 8.68-6.945 4.34-72.92h-8.68z"/><path d="M205.55 212.027l-4.342 72.922 8.68-6.946 4.342-65.976h-8.68z"/><path d="M214.594 212.94l-4.34 65.978 8.68-6.945 4.34-59.032h-8.68z"/></g><path d="M181.73 256.05c-1.004-1.312 19.847-18.646 55.28-18.646 53.15 0 61.307 18.646 96.74 18.646h152.02c35.434 0 45.724-18.646 98.873-18.646 35.433 0 52.168 18.293 53.15 18.646 0 0-17.717-.93-53.15-.93s-49.3 39.04-85.052 38.222c-26.787.818-144.23 0-179.66 0-35.432 0-47.485-37.292-82.92-37.292-35.432 0-56.283-1.312-55.28 0z" transform="matrix(.264 0 0 .196 139.517 161.879)" stroke="#d7b900" stroke-width="4.824" fill="#fff"/><path d="M400.39-109.84v3.543l3.543 3.543-3.543 3.543v3.543c-14.174 7.086-28.85 7.086-42.52 7.086-13.67 0-28.346 0-46.063-7.087v-3.544l-3.543-3.544 3.543-3.543v-3.543c14.173 3.543 28.347 7.086 46.063 7.086 17.717 0 28.347-3.543 42.52-7.086z" transform="matrix(1.365 0 0 1.243 -238.112 442.804)" stroke="#d7b900" stroke-width="1pt" fill="#fff"/><g transform="matrix(-1.097 .294 .315 1.024 681.121 318.816)" stroke="#d7b900" fill="#fff"><rect transform="matrix(-.564 -.826 -.888 .459 0 0)" rx="2.395" ry="4.505" height="40.13" width="4.789" y="-406.53" x="-73.159" stroke-width=".623"/><g stroke-width="4.713"><path d="M385.002-129.014l.94 8.38-5.263-5.12.938 8.38-5.262-5.12.94 8.38c-2.292-3.108-4.872-8.068-6.378-13.924 1.996-8.594 6.184-11.15 13.284-9.408 2.307 3.92 4.55 8.843 6.2 13.5l-5.4-5.068z"/><path d="M381.73-136.123l.938 8.38-5.262-5.12.94 8.38-5.263-5.12.94 8.38c-2.292-3.108-4.872-8.068-6.378-13.924 1.996-8.594 6.184-11.15 13.284-9.408 2.306 3.92 4.55 8.843 6.2 13.5l-5.4-5.068z"/><path d="M378.455-143.233l.94 8.38-5.263-5.12.94 8.38-5.263-5.12.938 8.38c-2.29-3.108-4.87-8.068-6.377-13.924 1.997-8.594 6.185-11.15 13.285-9.408 2.307 3.92 4.55 8.843 6.2 13.5l-5.4-5.068z"/><path d="M374.338-151.987l.94 8.38-5.263-5.12.94 8.38-5.263-5.12.94 8.38c-2.292-3.108-4.872-8.068-6.378-13.924 1.996-8.595 6.184-11.15 13.284-9.41 2.307 3.92 4.55 8.844 6.2 13.5l-5.4-5.067z"/><path d="M371.065-159.094l.94 8.38-5.263-5.12.94 8.38-5.263-5.12.938 8.38c-2.29-3.108-4.87-8.068-6.377-13.924 1.997-8.594 6.185-11.15 13.285-9.408 2.307 3.92 4.55 8.843 6.2 13.5l-5.4-5.068z"/><path d="M367.792-166.204l.94 8.38-5.263-5.12.938 8.38-5.262-5.12.94 8.38c-2.292-3.108-4.872-8.068-6.378-13.924 1.996-8.594 6.184-11.15 13.284-9.408 2.307 3.92 4.55 8.843 6.2 13.5l-5.4-5.068z"/></g><path d="M345.63-96.125c0 3.28-1.12 5.938-2.5 5.938s-2.5-2.66-2.5-5.938 1.12-5.938 2.5-5.938 2.5 2.66 2.5 5.938z" transform="matrix(.498 -.385 .291 .659 228.03 87.159)" stroke-width="1pt"/><path d="M345.63-96.125c0 3.28-1.12 5.938-2.5 5.938s-2.5-2.66-2.5-5.938 1.12-5.938 2.5-5.938 2.5 2.66 2.5 5.938z" transform="matrix(.498 -.43 .291 .736 242.09 102.86)" stroke-width="1pt"/><path d="M345.63-96.125c0 3.28-1.12 5.938-2.5 5.938s-2.5-2.66-2.5-5.938 1.12-5.938 2.5-5.938 2.5 2.66 2.5 5.938z" transform="matrix(.535 -.415 .312 .71 245.2 88.253)" stroke-width="1pt"/></g><path d="M268.29 261.84s32.89-42.16 32.89-95.31c0 .002 70.866.002 70.866 0 0 53.15 34.308 95.31 35.434 88.585-17.717 0-53.15-17.717-70.866-53.15-17.716 35.434-50.608 59.875-68.324 59.875z" transform="matrix(.318 0 0 .196 138.898 168.051)" stroke="#d7b900" stroke-width="4.824" fill="#fff"/><path d="M253.46 240.41s47.94-58.726 47.94-111.88V53.946c0-17.717 23.97-18.646 35.954-18.646 17.717 0 35.954.93 35.954 18.646v74.584c0 53.15 47.94 111.88 47.94 111.88-35.433 0-54.193-39.15-71.91-74.584 0 17.717 4.994 53.862-12.723 71.58-17.716-17.718-11.246-53.863-11.246-71.58-17.718 35.433-36.476 74.584-71.91 74.584z" transform="matrix(.305 0 0 .196 143.181 168.598)" stroke="#d7b900" stroke-width="4.824" fill="#fff"/><path d="M283.12 77.953h53.15c0 17.716 0 35.433-17.717 35.433S283.12 95.67 283.12 77.953z" transform="matrix(.25 .079 -.056 .122 162.325 142.086)" stroke="#d7b900" stroke-width="5.909" fill="#fff"/><path d="M183.96 42.52c11.81 0 11.81 17.716 11.81 35.433-17.715 0-29.527-17.717-47.243 0 0-19.56 0-35.433 17.716-35.433h17.717z" transform="matrix(.375 .12 -.056 .122 171.994 147.648)" stroke="#d7b900" stroke-width="4.824" fill="#fff"/><path d="M336.61 69.094c0 4.892-3.966 8.858-8.858 8.858s-8.86-3.966-8.86-8.858 3.967-8.858 8.86-8.858 8.858 3.966 8.858 8.858z" transform="matrix(.25 .079 -.084 .184 168.341 139.795)" stroke="#d7b900" stroke-width="4.824" fill="#fff"/><path d="M322.44-322.44h7.087l3.75 60.236-7.294 7.087-7.086-7.087 3.543-60.236z" transform="matrix(.626 0 0 .784 41.601 510.282)" stroke="#fff" stroke-width="1pt" fill="#d7b900"/><g transform="matrix(1.196 .313 -.367 1.019 -234.841 310.199)" stroke="#d7b900" fill="#fff"><rect transform="matrix(-.564 -.826 -.888 .459 0 0)" rx="2.395" ry="4.505" height="40.13" width="4.789" y="-406.53" x="-73.159" stroke-width=".623"/><g stroke-width="4.713"><path d="M385.002-129.014l.94 8.38-5.263-5.12.938 8.38-5.262-5.12.94 8.38c-2.292-3.108-4.872-8.068-6.378-13.924 1.996-8.594 6.184-11.15 13.284-9.408 2.307 3.92 4.55 8.843 6.2 13.5l-5.4-5.068z"/><path d="M381.73-136.123l.938 8.38-5.262-5.12.94 8.38-5.263-5.12.94 8.38c-2.292-3.108-4.872-8.068-6.378-13.924 1.996-8.594 6.184-11.15 13.284-9.408 2.306 3.92 4.55 8.843 6.2 13.5l-5.4-5.068z"/><path d="M378.455-143.233l.94 8.38-5.263-5.12.94 8.38-5.263-5.12.938 8.38c-2.29-3.108-4.87-8.068-6.377-13.924 1.997-8.594 6.185-11.15 13.285-9.408 2.307 3.92 4.55 8.843 6.2 13.5l-5.4-5.068z"/><path d="M374.338-151.987l.94 8.38-5.263-5.12.94 8.38-5.263-5.12.94 8.38c-2.292-3.108-4.872-8.068-6.378-13.924 1.996-8.595 6.184-11.15 13.284-9.41 2.307 3.92 4.55 8.844 6.2 13.5l-5.4-5.067z"/><path d="M371.065-159.094l.94 8.38-5.263-5.12.94 8.38-5.263-5.12.938 8.38c-2.29-3.108-4.87-8.068-6.377-13.924 1.997-8.594 6.185-11.15 13.285-9.408 2.307 3.92 4.55 8.843 6.2 13.5l-5.4-5.068z"/><path d="M367.792-166.204l.94 8.38-5.263-5.12.938 8.38-5.262-5.12.94 8.38c-2.292-3.108-4.872-8.068-6.378-13.924 1.996-8.594 6.184-11.15 13.284-9.408 2.307 3.92 4.55 8.843 6.2 13.5l-5.4-5.068z"/></g><path d="M345.63-96.125c0 3.28-1.12 5.938-2.5 5.938s-2.5-2.66-2.5-5.938 1.12-5.938 2.5-5.938 2.5 2.66 2.5 5.938z" transform="matrix(.498 -.385 .291 .659 228.03 87.159)" stroke-width="1pt"/><path d="M345.63-96.125c0 3.28-1.12 5.938-2.5 5.938s-2.5-2.66-2.5-5.938 1.12-5.938 2.5-5.938 2.5 2.66 2.5 5.938z" transform="matrix(.498 -.43 .291 .736 242.09 102.86)" stroke-width="1pt"/><path d="M345.63-96.125c0 3.28-1.12 5.938-2.5 5.938s-2.5-2.66-2.5-5.938 1.12-5.938 2.5-5.938 2.5 2.66 2.5 5.938z" transform="matrix(.535 -.415 .312 .71 245.2 88.253)" stroke-width="1pt"/></g><g><path d="M301.18 290.55c0 194.88 35.433 177.17 106.3 248.03 70.866-70.866 106.3-53.15 106.3-248.03-35.434 0-70.867 0-106.3-17.716-35.432 17.716-70.866 17.716-106.3 17.716z" transform="matrix(.255 0 0 .196 142.076 162.241)" stroke="#d7b900" stroke-width="4.824" fill="#fff"/><path d="M220.963 220.683c0 35.078 8.397 31.89 25.193 44.645 16.795-12.755 25.193-9.567 25.193-44.645-8.4 0-16.797 0-25.194-3.19-8.398 3.19-16.795 3.19-25.193 3.19z" fill="#d7b900"/><path d="M236.98 221.15v36.56l9 5.314 9-5.313v-36.56c-3.21-.403-6.308-1.134-8.985-1.975-2.977.896-6.01 1.6-9.014 1.976z" fill="#fff"/></g></g></g></g></svg>