<svg xmlns="http://www.w3.org/2000/svg" height="480" width="640"><g><path d="M0 0v480h640V0H0z" fill-rule="evenodd" stroke-width="1pt" fill="#67b1ff"/><g stroke-width="1pt"><path fill-rule="evenodd" fill="#0000b4" d="M0 0h431.43v277.167H0z"/><g><path d="M0 0v30.99l383.17 246.18h48.23v-30.987L48.23 0H0zm431.4 0v30.988L48.23 277.17H0v-30.988L383.17 0h48.23z" fill="#fff"/><path d="M179.75 0v277.17h71.9V0h-71.9zM0 92.39v92.39h431.4V92.39H0z" fill="#fff"/><path d="M0 110.868v55.434h431.4v-55.434H0zM194.13 0v277.17h43.14V0h-43.14z" fill="#c00"/><path d="M0 277.17l143.8-92.39h32.154l-143.8 92.39H0zM0 0l143.8 92.39h-32.154L0 20.66V0zm255.446 92.39L399.246 0H431.4L287.6 92.39h-32.154zM431.4 277.17l-143.8-92.39h32.154L431.4 256.512v20.658z" fill="#c00"/></g></g><g fill-rule="evenodd"><path d="M687.5 121.06v125c18.75 87.5 51.562 100 93.75 125 42.188-25 75-37.5 93.75-125v-125H687.5z" transform="matrix(1.095 0 0 1.274 -361.45 -17.196)" stroke-width="1pt" fill="#fff"/><path d="M768.75 121.06l.196 242.91 12.5 7.053 12.5-7.25-.196-242.71h-25z" stroke-width="1pt" fill="#da0000" transform="matrix(1.095 0 0 1.274 -361.45 -17.196)"/><path d="M687.5 247.38l9.377 34.047 169.24-.095 8.885-33.952h-187.5z" stroke-width="1pt" fill="#da0000" transform="matrix(1.095 0 0 1.274 -361.45 -17.196)"/><path stroke-width="1pt" fill="#da0000" d="M687.5 121.06H875v87.5H687.5z" transform="matrix(1.095 0 0 1.274 -361.45 -17.196)"/><g transform="matrix(.283 0 0 .387 309.686 297.864)"><rect rx="23.225" ry="27.989" height="55.978" width="46.45" stroke="#000" y="-281.68" x="306.09" stroke-width=".75" fill="#f6efec"/><path d="M850.4-296.57s47.64-3.573 64.315-22.63c16.675-19.056-11.314-53.596 6.55-57.17 7.147-.595 17.27 1.788 25.012 11.315-1.19-7.145-5.955-11.314-7.74-15.48-6.552-5.958-13.103-5.362-22.63-5.362-6.552 1.192-7.743-1.192-18.46-13.697-5.36-5.955-5.36-20.842-1.193-30.966-12.505 9.528-10.123 22.628-8.932 25.606 2.977 13.102 5.955 16.675 5.955 22.63-3.573-1.786-10.124-17.27-44.068-19.652-33.946-2.382-119.7 23.82-158.41 23.82-38.71 0-94.688-16.078-94.688-16.078s14.292-11.315-2.978-16.08c-17.27-4.763-55.382 16.676-66.102 4.765-7.74-11.314-4.764-8.932-5.955-14.29-2.977 1.785-4.764 8.932-.595 18.46 4.168 9.528 6.55 6.55 5.955 6.55-.596 0-13.697 0-14.888 4.765-1.192 3.572-2.98 7.74 3.572 20.842 2.382-13.1-6.55-14.887 13.1-16.078 19.654-1.192 33.35 7.74 50.024 10.718 16.675 2.978 16.675-7.146 17.27-6.55.596.595 51.214 14.292 97.664 11.314 46.45-2.977 121.49-28.585 156.02-23.225 34.54 5.36 57.17 30.37 57.765 53.596-.595 14.292-15.483 21.438-27.393 23.82-14.292 2.382-47.64 5.956-47.64 5.956l18.46 13.1z" transform="matrix(.88 0 0 .698 113.77 -89.63)" stroke="#000" stroke-width=".875" fill="#ff0"/><path d="M683.06-248.92c-.596 0-32.754.596-42.282 14.292-9.528 13.697-13.697 26.8-13.1 26.8.594 0 21.437-11.316 21.437-11.316s-15.483 22.63-7.146 42.877c8.336 20.247-22.01 19.056-39.508 19.65-7.742-5.954-32.473-16.078-41.292-17.864-5.507-2.085-16.32-2.354-27.616 10.346-6.653 7.83 9.888-7.37 26.295-6.178 1.773 1.786 2.915 3.574 3.23 7.74-8.74-.594-17.84-10.718-28.558 10.125 10.72-7.146 12.06-6.997 17.493-7.444 7.24-.537 6.31 3.275 6.01 3.275-1.19 0-4.144.595-8.616 4.764-2.383 2.976-8.338 9.527-7.147 9.527s4.752-3.573 10.327-6.55c3.484-2.383 6.793-2.383 17.322.595 57.765 13.696 88.73 3.573 92.304-1.787 1.787-2.38-33.35-69.675 60.147-87.54-1.19-.596-39.303-10.72-39.303-11.315z" transform="matrix(.855 0 0 1 231.25 -38.113)" stroke="#000" stroke-width=".5" fill="#ff0"/><path d="M472.84-212.6c32.753 27.394 253.69-29.18 281.68-48.832 16.08-11.315 44.068-19.652 44.068 19.056 7.146-26.203 7.147-32.753 7.147-32.158.595.596 11.314 10.125 20.843 42.283 2.382-28.587-4.17-45.26-.596-42.88 2.382-2.38 2.382 14.293 21.438 37.518-4.168-18.46-5.36-26.798-5.36-26.798s35.732 34.54 55.98 39.304c20.247 4.764 49.427-9.528 58.36-1.19 8.932 8.337 24.418 23.224 23.818 35.135-.59 11.91-33.347 1.785-36.92 11.313-3.573 9.53 2.382 9.53 2.382 9.53s2.977 7.145 5.36 13.1c1.786-4.17-1.787-13.102 4.764-13.697 4.764.595 4.764 8.337 5.955 12.506 1.388-4.764-.2-14.292 4.168-14.292 4.764-.993 5.36 7.543 8.932 13.1v-13.1c13.698-4.17 25.604-4.764 27.394-13.697 1.78-8.933-20.846-29.18-26.206-42.282-5.356-13.1 4.17-18.46-5.952-25.606-10.123-7.146-48.832 11.315-66.697 4.17-17.867-7.147-10.72-58.362-78.014-69.676-67.293-11.315-249.52 59.55-281.68 62.53-32.158 2.976-71.46-10.125-71.46-10.125l.594 54.787z" stroke="#000" stroke-width=".625" fill="#ff0"/><path d="M420.43-263.22s-28.585-37.518-51.81-41.09c-23.225-2.978-45.855 14.292-50.62 11.91-4.763-2.383-6.55.596-9.527 5.955-2.978 5.36.596 8.932.595 8.337 1.19 0 4.17-8.933 5.36-9.528 1.192-.596-5.955 10.72 1.192 11.91 2.382.596 3.573-8.337 6.55-11.91.596.595-4.764 12.506-1.786 13.1 2.977.597 6.55-11.91 11.91-14.887 7.742-5.36 19.056-7.147 33.35-7.146 14.29 4.17 43.47 38.71 46.45 38.113l8.336-4.763z" transform="matrix(.984 .227 .179 -1.246 64.173 -655.73)" stroke="#000" stroke-width=".5" fill="#ff0"/><path d="M420.43-263.22s-28.585-37.518-51.81-41.09c-23.225-2.978-45.855 14.292-50.62 11.91-4.763-2.383-6.55.596-9.527 5.955-2.978 5.36.596 8.932.595 8.337 1.19 0 4.17-8.933 5.36-9.528 1.192-.596-5.955 10.72 1.192 11.91 2.382.596 3.573-8.337 6.55-11.91.596.595-4.764 12.506-1.786 13.1 2.977.597 6.55-11.91 11.91-14.887 7.742-5.36 19.056-7.147 33.35-7.146 14.29 4.17 43.47 38.71 46.45 38.113l8.336-4.763z" transform="matrix(1 0 0 1.129 11.315 42.241)" stroke="#000" stroke-width=".5" fill="#ff0"/><path d="M417.46-267.98l-31.562 15.483 23.225 5.956-16.675 19.056 23.82-7.742-1.785 25.607 13.697-16.673 8.932 23.225 9.528-17.27 11.315 19.056 4.764-18.46 13.696 18.46 4.764-25.01 16.675 15.482-2.382-26.203 20.247 6.55-12.506-20.247s22.034-1.19 20.843-1.19-16.674-13.102-30.37-16.675l-76.227.595z" stroke="#000" stroke-width=".5" fill="#ff0"/><path d="M417.46-267.98l-31.562 15.483 23.225 5.956-16.675 19.056 23.82-7.742-1.785 25.607 13.697-16.673 8.932 23.225 9.528-17.27 11.315 19.056 4.764-18.46 13.696 18.46 4.764-25.01 16.675 15.482-2.382-26.203 20.247 6.55-12.506-20.247s22.034-1.19 20.843-1.19-16.674-13.102-30.37-16.675l-76.227.595z" transform="matrix(.548 0 0 .566 205.56 -123.01)" stroke="#000" stroke-width=".808" fill="#ff0"/><path d="M443.06-316.81s-8.93-7.146-12.504 0c-3.574 7.147 7.74 4.17 7.74 5.36s-7.74 9.528-7.74 19.057c0 9.528 5.955 25.607 5.955 27.99s2.383 8.93 10.72 11.313 11.315-7.74 13.1-8.932c1.788-1.19 13.103 1.786 17.27-8.337 4.17-10.123 4.17-28.584 4.17-28.584s7.146 5.36 7.146-5.36-7.742 0-7.742 0 1.19-11.314-17.27-16.674-20.247 5.36-20.843 4.168z" stroke="#000" stroke-width=".5" fill="#ff0"/><path d="M441.48-317.31c-2.38-4.827-9.14-23.32-9.14-23.32l16.205 6.942c-5.53-1.374-10.25-2.18-9.654-2.18.596 0 7.147 8.934 7.147 8.934 6.45-.374 12.903 1.774 20.843 3.503 0 0 6.55-7.287 5.955-7.287-.596 0-3.573-1.192-3.573-1.192l14.888-6.83-4.764 9.214h-2.978l-5.955 6.69c6.7 1.26 9.975 2.242 16.525 6.445 5.807-.84 10.72-3.852 13.846-6.13-5.21-1.437-7.592-2.558-6.997-2.558.596 0 21.885 1.12 21.885 1.12s-20.89 12.917-33.093 17.65c-11.29-3.245-39.95-9.215-41.14-11.002z" transform="matrix(.942 -.016 .033 1.416 35.5 137.73)" stroke="#000" stroke-width=".54" fill="#ff0"/><rect transform="matrix(.904 .427 -.994 -.108 0 0)" rx="6.865" ry="3.077" height="6.153" width="13.731" y="-1416.1" x="-1065.8" stroke-width="1pt"/><rect transform="matrix(.904 .427 -.994 -.108 0 0)" rx="6.865" ry="3.077" height="6.153" width="13.731" y="-1419.6" x="-1050" stroke-width="1pt"/><rect transform="matrix(.947 .322 -.997 -.078 0 0)" rx="12.761" ry="5.97" height="11.94" width="25.522" y="-1636.5" x="-1253.9" stroke-width="1pt"/><rect transform="matrix(.935 .354 -.996 -.086 0 0)" rx="5.781" ry="2.674" height="5.349" width="11.562" y="-1565.8" x="-1186.4" stroke-width="1pt"/><rect transform="matrix(.329 -.944 .136 .991 0 0)" rx="4.931" ry="2.046" height="4.093" width="9.861" y="734.39" x="1061.7" stroke-width="1pt"/></g><g stroke="#000" transform="matrix(1.095 0 0 1.274 -361.45 -17.196)"><path d="M737.05 319.5c1.663 4.742.814 0-.957 7.344 1.094-2.188 2.656-3.438 3.28-3.437.94 0 1.407 0 3.282 1.406-1.718-2.5-4.687-1.875-4.53-5.625-.157-.86-1 .08-1.075.312z" transform="matrix(1.047 0 0 1.389 -30.434 -120.97)" stroke-width=".375" fill="#ff7300"/><rect transform="matrix(.818 -.575 .197 .98 0 0)" rx=".685" ry=".506" height="18.038" width="1.369" y="717.59" x="708.8" stroke-width=".103" fill="#b2802e"/><path d="M734.06 312.16c.78-.47 6.562-11.094 34.062-9.532-15.625 5.313-25.313 16.563-27.656 17.03-1.72.47-5.47-5.78-6.406-7.498z" transform="matrix(.795 0 0 .978 152.8 3.901)" stroke-width=".375" fill="#fff"/><g stroke-width=".333" fill="#007500"><path d="M723.443 297.196l2.935 5.156-4.18-5.047-.19-2.038 1.435 1.93z"/><path d="M722.302 297.482l-.472 3.74-1.276-4.538 1.146-.704.602 1.502z"/><path d="M724.27 294.42l4.928 2.575-4.086-1.275-2.666-1.504 1.823.203z"/><path d="M724.693 295.06l7.485 2.14-5.867-.216-1.98-.325.363-1.6z"/><path d="M724.402 293.497l-4.582.726 1.6-2.894 3.48 1.232-.498.935z"/><path d="M720.518 291.14l-5.834-2.41 4.883.725 4.138 2.407-3.187-.723z"/><path d="M720.698 293.632l-6.216-3.515 5.53 2.014 4.594 3.55-3.908-2.048z"/><path d="M716.107 290.193l-3.59-5.326 5.61 6.01 1.748 2.516-3.768-3.2z"/><path d="M721.48 288.66l-.1-3.43 2.725 5.035.24 1.748-2.865-3.353z"/><path d="M719.91 292.277l2.71-2.083-.137 3.744-1.218.347-1.354-2.008z"/><path d="M728.094 293.98l1.978 2.918-2.712-2.883-1.3-2 2.034 1.965z"/><path d="M722.57 293.05l1.97 3.675-2.865-3.98-.397-1.116 1.29 1.42z"/><path d="M722.886 295.967l5.196 2.27-4.384-1.33-1.918-.998 1.106.057z"/><path d="M722.304 294.718l-4.763-1.422 3.59.586 1.877.693-.703.143z"/><path d="M720.136 292.68l1.44-.935-.75 1.4.082.677-.772-1.142z"/><path d="M719.02 288.357l-3.048-3.816 2.578 2.742 3.142 3.002-2.67-1.927z"/><path d="M717.322 293.8l-.872 1.013-.273-1.94 2.905 1.292-1.76-.365z"/><path d="M722.424 295.026l1.295 3.838-2.115-3.977-.197-1.214 1.016 1.353z"/></g><path d="M759.39 305.01c-3.24 1.066-4.827 1.573-6.465 1.782.835.357 2.69.14 4.807.71-1.886.042-5.374 1.48-6.825 1.516 1.003.602 4.58.022 5.238.18-1.913.118-4.99 1.6-6.908 1.6-.878.67 4.46-.46 6.602.807-2.216-.114-6.52 1.16-8.85.853 1.777 1.042 4.952-.112 7.6 1.017-.767.084-6.91.772-9.086.445 1.3.65 5.218.543 6.18 1.12-1.62-.21-5.927.69-7.425.332 1.348.972 5.413.424 6.16 1.01-2.657.925-6.683.186-8.535.437 1.242.58 2.267 1.167 3.366 1.71 1.605 1.127 6.61 4.294 9.6 5.245-3.31-.433-4.464-.49-6.603-.665l4.867 5.16c-2.03-1.095-5.61-3.162-7.988-4.23-5.264-2.577-9.058-2.13-12.704-4.313-5.122-4.966-7.966-10.885-8.222-12.464-.257-1.578-.48-4.407-5.153-2.933 4.51-.58 6.405-5.792 6.758-5.583.16.09.578 3.483 1.638 4.853.706.983 6.71 4.348 7.706 4.527 8.943-5.314 16.197-5.967 24.24-3.117z" transform="matrix(1.047 0 0 1.389 -29.616 -119.66)" stroke-width=".375" fill="#fff"/></g><g stroke="#000" stroke-width=".25" transform="matrix(1.095 0 0 1.274 -358.416 -17.196)"><rect transform="rotate(44.687)" rx="1.391" ry="5.563" height="11.127" width="2.782" y="-352.62" x="802.37" fill="#e4cc00"/><path d="M795.02 334.335c-.21-1.173-.348-1.765.244-3.303.864-1.083 1.317-2.043 2.893-3.164 1.71-.563 2.286-.055 4.528-2.134.72-1.37 1.82-2.405 2.445-3.882 1.46-2.177 1.95-3.252 3.12-4.927 1.55-1.74 2.8-3.302 3.708-4.636.97-1.71 1.84-2.768 3.245-4.174.57-1.604 1.79-2.794 3.245-4.172 1.113-2.033 3.247-4.36 4.173-6.027 1.642-1.88 2.284-2.697 3.71-4.636 1.254-.827 3.37-2.643 5.1-3.244 2.358-.99 3.62-1.97 5.172-.464 1.027 1.027 2.873 2.68 1.59 3.9-.675.748-1.78.84-3.054.273-1.31-.848-1.946-3.315-3.71-1.39-1.273 1.454-1.926 2.615-3.708 4.17-.886 1.305-1.525 2.28-2.318 4.174-1.048 1.208-1.914 2.567-2.78 4.635-1.125.928-2.094 2.77-2.783 4.172-1.113 1.166-1.916 2.364-2.783 4.173-1.75 1.677-2.405 3.095-3.71 4.172-.86 1.82-2.216 3.558-3.244 4.636-.812 1.32-1.618 2.695-2.318 4.173-1.475 1.506-1.54 1.83-3.71 4.173-1.805 2.355-1.197 2.07-4.025 4.8-1.548.51-3.103.685-5.03-1.298z" fill="#006000"/><rect transform="rotate(22.168)" rx="1.391" ry="5.563" height="11.127" width="2.782" y="-20.84" x="862.29" fill="#e4cc00"/><rect transform="rotate(24.033)" rx="1.391" ry="5.563" height="11.127" width="2.782" y="-48.488" x="863.44" fill="#e4cc00"/><rect transform="rotate(35.806)" rx="1.391" ry="5.563" height="11.127" width="2.782" y="-224.52" x="840.48" fill="#e4cc00"/><rect transform="rotate(49.526)" rx="1.391" ry="5.563" height="11.127" width="2.782" y="-420.33" x="773.6" fill="#e4cc00"/><rect transform="rotate(45.459)" rx="1.391" ry="5.563" height="11.127" width="2.782" y="-363.86" x="799.69" fill="#e4cc00"/><rect transform="rotate(35.806)" rx="1.391" ry="5.563" height="11.127" width="2.782" y="-224.23" x="844.16" fill="#e4cc00"/><rect transform="rotate(35.806)" rx="1.391" ry="5.563" height="11.127" width="2.782" y="-224.62" x="842.29" fill="#e4cc00"/><g transform="translate(-6.311 -1.115) rotate(35.848)" fill="#e4cc00"><rect rx="1.391" ry="5.563" height="11.127" width="2.782" y="-244.57" x="838.79"/><rect rx="1.391" ry="5.563" height="11.127" width="2.782" y="-244.68" x="840.85"/><rect rx="1.391" ry="5.563" height="11.127" width="2.782" y="-244.66" x="843"/><rect rx="1.391" ry="5.563" height="11.127" width="2.782" y="-244.7" x="845.3"/><rect rx="1.391" ry="5.563" height="11.127" width="2.782" y="-244.54" x="847.15"/><rect rx="1.391" ry="5.563" height="11.127" width="2.782" y="-245.75" x="857.84"/><rect rx="1.391" ry="5.563" height="11.127" width="2.782" y="-245.32" x="856.37"/><rect rx="1.391" ry="5.563" height="11.127" width="2.782" y="-245.1" x="854.94"/><rect rx="1.391" ry="5.563" height="11.127" width="2.782" y="-245.02" x="852.83"/><rect rx="1.391" ry="5.563" height="11.127" width="2.782" y="-244.68" x="850.76"/><rect rx="1.391" ry="5.563" height="11.127" width="2.782" y="-244.64" x="848.96"/></g><rect transform="matrix(.879 .477 -.477 .879 -.392 0)" rx="1.391" ry="5.563" height="11.127" width="2.782" y="-115.05" x="859.81" fill="#e4cc00"/><g transform="translate(-11.95 5.765) rotate(35.848)" fill="#e4cc00"><rect rx="1.391" ry="5.563" height="11.127" width="2.782" y="-244.57" x="838.79"/><rect rx="1.391" ry="5.563" height="11.127" width="2.782" y="-244.68" x="840.85"/><rect rx="1.391" ry="5.563" height="11.127" width="2.782" y="-244.66" x="843"/><rect rx="1.391" ry="5.563" height="11.127" width="2.782" y="-244.7" x="845.3"/><rect rx="1.391" ry="5.563" height="11.127" width="2.782" y="-244.54" x="847.15"/><rect rx="1.391" ry="5.563" height="11.127" width="2.782" y="-245.75" x="857.84"/><rect rx="1.391" ry="5.563" height="11.127" width="2.782" y="-245.32" x="856.37"/><rect rx="1.391" ry="5.563" height="11.127" width="2.782" y="-245.1" x="854.94"/><rect rx="1.391" ry="5.563" height="11.127" width="2.782" y="-245.02" x="852.83"/><rect rx="1.391" ry="5.563" height="11.127" width="2.782" y="-244.68" x="850.76"/><rect rx="1.391" ry="5.563" height="11.127" width="2.782" y="-244.64" x="848.96"/></g></g><g stroke="#000" transform="matrix(1.058 0 0 1.152 -335.889 12.295)"><rect transform="rotate(18.815)" rx="1.432" ry=".678" height="24.19" width="2.864" y="-28.09" x="774.89" stroke-width=".172" fill="#b2802e"/><rect rx="1.432" ry=".678" height="24.19" width="2.864" y="221.74" x="727.44" stroke-width=".172" fill="#b2802e"/><rect rx="1.432" ry=".678" height="24.19" width="2.864" y="221.28" x="707.97" stroke-width=".172" fill="#b2802e"/><g stroke-width=".25" fill="#004500"><path d="M720.484 209.646c3.502-.947 6.166 1.01 7.306 5.26.016.384.83.447.818.34-.605-7.218 7.28-13.158 12.303-2.954.502 1.618-2.394-.807-4.23-2.664-2.306-2.576-5.426.55-5.63 7.257-.21 1.52-.49 4.848-.49 4.848s-2.59-.306-2.655-.397c-.063-.09-2.152-8.317-5.96-9.166-2.84-.39-2.084 1.205-5.455 1.884-3.145.27-3.057-.15-.713-1.1 2.03-.098 3.356-2.858 4.707-3.308z"/><path d="M720.885 213.878c3.554-.73 6.09 1.388 6.965 5.7-.008.385.8.498.796.39-.157-7.24 11.073-7.452 15.454 3.043.4 1.646-.382 1.515-2.1-.45-2.14-2.715-10.4-7.486-11.02-.805-.304 1.505-.79 4.81-.79 4.81s-2.566-.467-2.624-.56c-.058-.094-1.632-8.435-5.38-9.518-2.812-.565-3.66 1.772-7.068 2.24-3.156.075-3.042-.338-.643-1.142.452-.066 5.033-3.342 6.41-3.707z"/><path d="M722.03 218.938c3.6-.44 5.963 1.873 6.49 6.242-.04.384.758.56.76.453.425-7.23 7.646-3.274 10.513 6.646.387 1.06-2.247-1.088-3.803-3.187-1.918-2.877-3.37-8.1-4.524-1.49-.423 1.475-1.172 4.73-1.172 4.73s-2.522-.67-2.573-.77c-.05-.097-.95-8.54-4.6-9.92-2.76-.79-4.388 5.845-7.823 6.04-3.154-.18-3.007-.583-.55-1.192.456-.028 5.88-7.298 7.282-7.552z"/></g><g stroke-width=".25" fill="#004500"><path d="M700.658 208.76c3.493-.972 6.17.96 7.34 5.197.018.385.832.44.82.333-.657-7.203 6.914-9.92 12.007.233.512 1.612-2.38-.738-4.23-2.578-2.322-2.555-5.17-2.735-5.326 3.964-.2 1.52-.457 4.845-.457 4.845s-2.59-.286-2.655-.376c-.064-.09-2.21-8.29-6.02-9.11-2.844-.368-2.916-.287-6.28.417-3.142.293-3.056-.127-.72-1.094.446-.097 4.173-1.372 5.52-1.832z"/><path d="M701.494 212.757c3.55-.754 6.106 1.34 7.013 5.637-.005.386.805.492.8.384-.212-7.227 7.52-9.47 11.984.975.414 1.64-2.333-.884-4.067-2.834-2.163-2.694-4.997-3.05-5.567 3.625-.293 1.504-.754 4.806-.754 4.806s-2.57-.444-2.63-.538c-.06-.093-1.697-8.407-5.455-9.46-2.82-.543-2.895-.466-6.3.028-3.158.098-3.046-.316-.653-1.136.452-.07 4.256-1.11 5.63-1.487z"/><path d="M702.62 218.418c3.598-.47 5.977 1.823 6.536 6.186-.036.384.763.555.766.446.368-7.232 8.255-8.856 11.866 1.925.28 1.67-2.255-1.067-3.827-3.152-1.94-2.86-4.735-3.44-5.838 3.178-.412 1.48-1.136 4.74-1.136 4.74s-2.527-.65-2.58-.748c-.05-.097-1.016-8.53-4.677-9.878-2.766-.766-2.848-.696-6.282-.473-3.155-.152-3.01-.556-.56-1.185.457-.033 4.33-.77 5.73-1.037z"/></g><g stroke-width=".25" fill="#004500"><path d="M741.153 206.185c3.614.295 5.458 3.035 5.09 7.413-.115.368.63.703.655.597 1.875-6.986 11.304-9.9 12.573 1.388-.075 1.69-1.978-1.57-3.077-3.935-1.296-3.2-5.29-1.32-7.754 4.914-.714 1.357-2.104 4.39-2.104 4.39s-2.333-1.164-2.362-1.27c-.03-.107.793-8.545-2.5-10.63-2.542-1.33-2.37.426-5.77-.076-3.05-.812-2.826-1.176-.3-1.276 1.944.595 4.126-1.55 5.55-1.515z"/><path d="M740.177 210.502c3.592.52 5.263 3.368 4.625 7.718-.138.36.585.74.617.636 2.304-6.86 12.944-3.255 13.512 8.095-.18 1.683-.872 1.296-1.822-1.135-1.096-3.276-7.253-10.558-10.1-4.488-.795 1.31-2.372 4.253-2.372 4.253s-2.257-1.307-2.28-1.416c-.023-.107 1.32-8.48-1.84-10.768-2.455-1.484-4.045.425-7.41-.288-2.996-1-2.75-1.35-.22-1.292.45.09 5.87-1.436 7.29-1.314z"/><path d="M739.394 215.637c3.54.806 4.978 3.78 3.992 8.067-.166.347.524.784.564.684 2.85-6.654 8.305-.488 7.64 9.808.005 1.13-1.746-1.783-2.498-4.283-.83-3.355-.427-8.757-3.753-2.934-.9 1.242-2.708 4.05-2.708 4.05s-2.146-1.486-2.16-1.596c-.014-.11 1.998-8.35-.97-10.884-2.33-1.677-6.11 4.008-9.408 3.027-2.908-1.237-2.632-1.566-.115-1.306.44.128 8.01-4.87 9.414-4.633z"/></g></g><g stroke="#000" transform="matrix(1.095 0 0 1.274 -361.45 -17.196)"><rect rx="1.432" ry=".678" height="24.19" width="2.864" y="222.49" x="826.05" stroke-width=".172" fill="#b2802e"/><g stroke-width=".333" fill="#007500"><path d="M824.345 227.207l-12.58 6.607 8.087-8.01 8.103-1.466-3.61 2.87z"/><path d="M825.53 226.997l-17.476 1.726 15.235-4.277 6.702.924-4.463 1.627z"/><path d="M833.112 226.537l4.845 7.39-7.698-5.6-2.145-4.064 4.997 2.274z"/><path d="M832.563 223.22l14.907 10.164-17.927-7.068-4.983-2.543 8.003-.552z"/><path d="M822.468 225.42l-17.857-4.964 17.568.126 5.904 4.855-5.614-.018z"/><path d="M820.172 223.066l-8.478-8.356 12.65 6.2 3.006 6.354-7.178-4.198z"/><path d="M821.582 218.92l-4.968-9.49 9.174 7.775-.4 7.584-3.806-5.87z"/><path d="M827.42 218.335l11.186-7.497-7.64 10.29-5.118 3.602 1.57-6.395z"/><path d="M834.48 218.25l14.376-2.202-12.76 6.286-6.72 1.345 5.105-5.43z"/><path d="M831.198 221.033l17.58 1.926-16.418 2.122-5.39-1.225 4.228-2.824z"/><path d="M828.872 227.427l-6.098 4.117 3.608-4.956 4.353-2.756-1.863 3.595z"/><path d="M825.517 226.367l-9.358 4.566 7.795-5.81 3.48-1.148-1.918 2.392z"/><path d="M833.453 222.726l6.994 7.52-8.43-5.98-1.887-2.876 3.323 1.336z"/><path d="M823.72 221.804l-9.237-6.485 9.036 4.595 3.067 2.634-2.868-.746z"/><path d="M829.01 224.884l8.605 1.115-8.386-.024-2.62.512 2.4-1.604z"/><path d="M828.14 218.654l6.528-5.93-3.432 4.716-2.73 5.54-.365-4.326z"/><path d="M825.71 221.037l-7.08-.403 7.345-1.516 3.818 4.217-4.083-2.298z"/><path d="M825.29 225.994l-12.23 3.867 10.185-4.917 4.55-.973-2.506 2.024z"/></g></g></g></g></svg>