<svg xmlns="http://www.w3.org/2000/svg" height="480" width="640" version="1"><defs><clipPath id="a"><path fill-opacity=".67" d="M0-48h640v480H0z"/></clipPath></defs><g fill-rule="evenodd" clip-path="url(#a)" transform="translate(0 48)" stroke-width="1pt"><path fill="#eb0013" d="M0-128h640v640H0z"/><path d="M371.01 263.71L204.26 380.32l42.967-131.57 22.318 16.163-16.012 48.063 108.75-78.37 8.73 29.106zm17.105-76.157l58.208 195.62-109.3-81.567 22.482-15.934 38.898 29.187-40.653-128.4 30.368 1.092zm-69-38.843l204.88.24-111.65 80.53-8.932-26.067 41.515-27.793-135.44 1.912 9.63-28.82zm-57.93 52.3L326.066 5.1l44.65 134.69-27.56.35-16.44-51.593-41.16 130.61-24.37-18.15zm33.25 70.407l-165.29-121.32 139.53-1.08-8.14 26.325-51.786-.21 110.45 78.67-24.762 17.615z" fill="#0b5035"/></g></svg>