<svg xmlns="http://www.w3.org/2000/svg" height="480" width="640"><g><g fill-rule="evenodd" stroke-width="1pt"><path fill="#ce0000" d="M320 0h320v480H320z"/><path fill="#fff" d="M0 0h320v480H0z"/></g><g transform="matrix(1.599 0 0 1.599 -12.38 -30.751)"><path d="M104.824 108.068c0 .81-.918 1.466-2.05 1.466-1.13 0-2.048-.656-2.048-1.466 0-.81.918-1.466 2.05-1.466 1.13 0 2.048.656 2.048 1.466z" fill-rule="evenodd" fill="#f1eeee"/><path d="M40.727 100.98v37.21h37.21c0 6.2 6.203 12.4 12.405 12.4V187.8h37.208V150.59c6.202 0 12.404-6.2 12.404-12.4h37.21v-37.21h-37.21c0-6.2-6.202-12.402-12.404-12.402V51.37H90.342V88.58c-6.202 0-12.404 6.202-12.404 12.402h-37.21z" fill-rule="evenodd" stroke-width="1pt" fill="#c00"/><path d="M41.97 102.22v34.727h37.21c0 6.2 6.2 12.404 12.402 12.404v37.208h34.73V149.35c6.202 0 12.402-6.203 12.402-12.403h37.21V102.22h-37.21c0-6.2-6.2-12.404-12.402-12.404V52.61h-34.73v37.206c-6.202 0-12.402 6.204-12.402 12.404H41.97z" fill-rule="evenodd" stroke-width="1pt" fill="#ffe600"/><path d="M43.21 103.46v32.25h37.207c0 6.2 6.202 12.4 12.404 12.4v37.208h32.25V148.11c6.2 0 12.403-6.2 12.403-12.4h37.208v-32.25h-37.207c0-6.2-6.202-12.402-12.404-12.402V53.85H92.82V91.06c-6.2 0-12.403 6.202-12.403 12.402H43.21z" fill-rule="evenodd" stroke-width="1pt" fill="#707070"/><path d="M44.45 104.7v29.766h37.208c0 6.2 6.202 12.404 12.404 12.404v37.207h29.767V146.87c6.2 0 12.403-6.204 12.403-12.404h37.208V104.7h-37.207c0-6.2-6.202-12.402-12.404-12.402V55.09H94.06V92.3c-6.202 0-12.404 6.202-12.404 12.402H44.45z" fill-rule="evenodd" stroke-width="1pt" fill="#a0a0a0"/><g fill-rule="evenodd"><path d="M94.432 89.443c2.184 2.183.423 7.485-3.933 11.84s-9.66 6.118-11.843 3.934c-2.184-2.184-.423-7.486 3.933-11.842s9.658-6.116 11.842-3.932z" fill="#d0d0d0"/><path d="M91.828 92.048c2.184 2.184 1.6 6.31-1.304 9.213s-7.03 3.488-9.213 1.304c-2.183-2.184-1.6-6.308 1.305-9.212s7.03-3.488 9.213-1.304z" fill="#808080"/><path d="M80.912 98.454l.878-.878 3.514 1.758-1.758-3.514.878-.878 3.517 7.028-7.028-3.516z" fill="#d0d0d0"/><path stroke-width=".35pt" fill="#d0d0d0" d="M86.037 93.167l.877-.877 5.263 5.262-.877.877z"/></g><g fill-rule="evenodd"><path d="M139.087 105.08c-2.184 2.183-7.486.422-11.842-3.934s-6.117-9.658-3.933-11.842c2.184-2.184 7.486-.423 11.842 3.933s6.116 9.658 3.933 11.842z" fill="#d0d0d0"/><path d="M136.482 102.474c-2.184 2.184-6.31 1.6-9.213-1.304s-3.488-7.03-1.304-9.213c2.184-2.184 6.308-1.6 9.212 1.304s3.488 7.03 1.304 9.214z" fill="#808080"/><path d="M130.075 91.555l.878.878-1.758 3.514 3.514-1.758.877.877-7.028 3.517 3.515-7.03z" fill="#d0d0d0"/><path stroke-width=".35pt" fill="#d0d0d0" d="M135.363 96.677l.877.877-5.262 5.262-.877-.877z"/></g><g fill-rule="evenodd"><path d="M123.458 149.727c-2.184-2.183-.423-7.485 3.933-11.84s9.66-6.118 11.843-3.934c2.184 2.184.423 7.486-3.933 11.842s-9.658 6.116-11.842 3.932z" fill="#d0d0d0"/><path d="M126.062 147.122c-2.184-2.184-1.6-6.31 1.304-9.213s7.03-3.488 9.213-1.304c2.183 2.184 1.6 6.308-1.305 9.212s-7.03 3.488-9.213 1.304z" fill="#808080"/><path d="M136.978 140.716l-.878.878-3.514-1.758 1.758 3.514-.878.878-3.517-7.028 7.028 3.516z" fill="#d0d0d0"/><path stroke-width=".35pt" fill="#d0d0d0" d="M131.853 146.003l-.877.877-5.263-5.262.877-.877z"/></g><g fill-rule="evenodd"><path d="M78.806 134.087c2.184-2.184 7.486-.423 11.842 3.933s6.117 9.658 3.933 11.842c-2.183 2.184-7.485.423-11.84-3.933s-6.117-9.66-3.934-11.843z" fill="#d0d0d0"/><path d="M81.41 136.692c2.185-2.184 6.31-1.6 9.214 1.304s3.487 7.03 1.303 9.213c-2.184 2.183-6.308 1.6-9.212-1.305s-3.488-7.03-1.304-9.213z" fill="#808080"/><path d="M87.818 147.61l-.878-.877 1.758-3.514-3.514 1.757-.878-.878 7.028-3.518-3.516 7.03z" fill="#d0d0d0"/><path stroke-width=".35pt" fill="#d0d0d0" d="M82.53 142.49l-.877-.878 5.262-5.262.877.877z"/></g><path d="M269.29 414.57c0 41.095-34.107 74.41-76.18 74.41s-76.182-33.315-76.182-74.41 34.107-74.41 76.18-74.41 76.182 33.315 76.182 74.41z" transform="matrix(.342 0 0 .35 42.921 -25.527)" stroke="#707070" stroke-width="1pt" fill="none"/><path d="M269.29 414.57c0 41.095-34.107 74.41-76.18 74.41s-76.182-33.315-76.182-74.41 34.107-74.41 76.18-74.41 76.182 33.315 76.182 74.41z" transform="matrix(.261 0 0 .267 58.641 9.023)" stroke="#707070" stroke-width="1pt" fill="none"/><path d="M100.265 140.667c0 .685-.556 1.24-1.24 1.24s-1.24-.555-1.24-1.24.554-1.24 1.24-1.24 1.24.555 1.24 1.24z" fill-rule="evenodd" fill="#d0d0d0"/><path d="M120.11 140.667c0 .685-.555 1.24-1.24 1.24s-1.24-.555-1.24-1.24.555-1.24 1.24-1.24 1.24.555 1.24 1.24z" fill-rule="evenodd" fill="#d0d0d0"/><path d="M108.12 140.67v1.293h-1.654c-1.654 0-1.654 1.293 0 1.293h1.654v1.294c.006 1.34 1.443 1.502 1.55.104l.104-1.398h1.654c1.653 0 1.653-1.293 0-1.293h-1.654v-1.293c0-1.293-1.654-1.293-1.654 0z" fill-rule="evenodd" fill="#d0d0d0"/><path d="M102.77 122.35v.733s-.39.56-2.868.733c-2.48.172-2.868 0-2.868 0 .065.64.547 1.852.41 3.3.096 1.685-.475 3.21-.475 3.21.064.09-.234.133-.755.09.41-.368.362-1.43.41-2.934.047-1.506-1.565-3.772-1.23-4.4.335-.626 7.375-.732 7.375-.732z" fill-rule="evenodd" stroke="#707070" stroke-width=".109pt" fill="#d0d0d0"/><path d="M112.61 119.69c2.412-.11 6.46-.087 6.46-.087s.953 1.914.914 2.97c-.04 1.06-.368 1.96-.82 1.51-.45-.45.21-.367.29-1.51.08-1.14-.77-2.324-.77-2.324s-1.73.754-4.332.602c-2.602-.153-1.45-1.117-1.742-1.162z" fill-rule="evenodd" stroke="#707070" stroke-width=".109pt" fill="#d0d0d0"/><path d="M113.43 121.58c2.412-.11 3.995.258 3.995.258s.954 1.915.915 2.972c-.04 1.057-.368 1.957-.82 1.507-.45-.45.21-.365.29-1.507.08-1.142-.77-2.326-.77-2.326s-1.73.756-4.332.603c-2.602-.152-1.86-.308-2.152-.353-.29-.045-.362.72-4.298.827-3.937.108-5.944-.826-5.944-.826s-.39.56-2.868.733c-2.48.172-2.868 0-2.868 0 .064.64.547 1.852.41 3.3.096 1.685-.475 3.21-.475 3.21.065.09-.233.133-.755.09.41-.368.363-1.43.41-2.934.047-1.506-1.564-3.772-1.23-4.4.336-.626 2.12-.04 2.46-.365.337-.326-1.59-2.62-1.23-4.766.36-2.145 2.404-1.54 4.917-1.466 2.512.074 8.078.724 9.423 0 1.345-.725.763-3.407 2.05-5.132.818-1.1 2.047-1.466 3.276-1.466.82 0 2.05 2.932 2.05 3.665l-.41.367h-.41v.366c-.936.094-1.066-.8-1.64-1.466-.246 1.033.82 4.4.82 6.598 0 1.833-.766 2.64-.814 2.512z" fill-rule="evenodd" stroke="#707070" stroke-width=".109pt" fill="#d0d0d0"/><path d="M105.54 118.4c.034.73-3.166 2.37-3.427 3.017-.26.65.814 1.008.48 1.378-.33.37-.604.233-.672.302-.067.068-1.203-2.54-1.203-2.54s3.002-1.355 2.888-1.94c-.114-.584-2.216-.94-2.6-2.41-.382-1.473-.17-4.316-.48-4.91-.31-.595-3.995-1.162-4-2.06-.002-.9 3.788-3.368 4.198-3.734.41-.367.82.366.41.733-.41.366-3.377 2.633-3.377 3 0 .366 2.458.733 3.277.733.82 0 1.23-.368 1.23-.734.004-.317-.82-.367-.82-1.1s.41-1.1 1.23-1.1c.41 0 1.196.47 1.228 1.1s-.728.684-.818 1.1c-.09.416.82.733 1.638.733.82 0 3.617 2.13 4.027 2.498.41.366.82.366.41.733s-.17.8-.58.435c-.348-.354-.41-.733-.41-.733-.035-.334-3.037-1.833-3.447-1.467-.41.367 0 4.766 0 5.132 0 .733.854.73.82 1.833z" fill-rule="evenodd" stroke="#707070" stroke-width=".109pt" fill="#d0d0d0"/><path fill-rule="evenodd" stroke-width="1pt" fill="#a7a7a7" d="M100.32 109.9h4.917v5.132h-4.917z"/><rect transform="matrix(.554 .832 -.882 .471 0 0)" fill-rule="evenodd" rx=".445" ry=".199" height=".399" width="30.647" y="-25.672" x="138.6" stroke-width="1pt" fill="#808080"/><path d="M180.71 42.52c0 3.914-3.173 7.087-7.087 7.087s-7.086-3.173-7.086-7.087 3.173-7.087 7.086-7.087 7.087 3.173 7.087 7.087z" fill-rule="evenodd" transform="matrix(.116 0 0 .103 80.65 101.47)" stroke="#707070" stroke-width="1pt" fill="#d0d0d0"/><path d="M115.88 112.54c0 .304-1.902.66-4.097.66-2.195 0-4.097-.356-4.097-.66 0-.304 1.902.44 4.097.44 2.195 0 4.097-.744 4.097-.44z" fill-rule="evenodd" stroke-width="1pt" fill="#808080"/><path fill-rule="evenodd" stroke-width="1pt" fill="#a7a7a7" d="M100.73 115.03h4.097v1.466h-4.097z"/><path d="M114.048 111.417c-.397.744-.774 1.275-.84 1.186-.07-.09.198-.764.595-1.508.397-.744.774-1.275.842-1.186.068.088-.2.763-.597 1.507z" fill-rule="evenodd" fill="#808080"/><path d="M115.083 113.343c-.452.397-.83.654-.842.574-.012-.08.345-.466.797-.863.453-.397.83-.654.842-.574.012.08-.344.466-.797.863z" fill-rule="evenodd" fill="#808080"/><path d="M114.564 112.414c.333.606.553 1.12.49 1.146-.06.027-.382-.443-.716-1.05-.334-.607-.553-1.12-.49-1.147.06-.027.382.444.716 1.05z" fill-rule="evenodd" fill="#808080"/><path d="M114.244 115.583c0 .1-1.284.183-2.868.183s-2.867-.082-2.867-.183c0-.102 1.283-.184 2.866-.184 1.584 0 2.868.08 2.868.183z" fill-rule="evenodd" fill="#808080"/><path d="M104.824 115.215c0 .102-.918.184-2.05.184-1.13 0-2.048-.083-2.048-.185 0-.1.918-.183 2.05-.183 1.13 0 2.048.082 2.048.183z" fill-rule="evenodd" fill="#808080"/><path d="M95.813 127.96s.676 1.643 3.556 1.666c2.88.022 3.87-.493 2.706-1.363-1.165-.87-3.333-.6-3.053.15.28.752-.813 1.002-1.07.474-.257-.527-1.29-2.09.567-2.195 1.855-.105 5.784-.674 6.766.416.982 1.09-1.11 2.078.472 2.31 1.582.23 1.807-.265 4.528-.414 2.722-.15 3.76.505 4.694.413.932-.09.8-1.694.062-2.1-.737-.407-2.154-.482-2.517-.928-.363-.447-1.35-.084-1.26-.588.093-.503 1.402.347 1.417.09 0-.008.216-.18.26-.222-.165-.038-.26.023-.383.09.134-.11.125-.158.17-.246-.023-.033-.186.124-.213.092-.028-.033.19-.257.09-.176-.033.024-.292.152-.295.064.004-.036.136-.128.09-.178-.038-.042-.235.048-.26.058.113-.15.105-.148-.004-.26-.094-.11-.163-.11-.317.017.065-.18.082-.218-.073-.286-.127-.07-.133-.135-.29.19.06-.348-.103-.363-.036-.527.04-.15.253-.214.6-.18.677.005 1.04.816 1.26.813.22-.002.468-.858 1.416-.51.948.347 1.065.417 1.542.624.477.206-.335.52-.063.927.273.408 2.134 1.765 1.605 3.18-.53 1.416-1.892 1.64-2.014 2.253-.122.613 4.314.362 5.445.568 1.13.207 1.844 1.052 1.89 1.193.045.142-1.984.133-1.984.133s-1.04-.538-3.525-.587c-2.482-.05-3.428-1.052-4.357-1.177-.93-.126-2.91.21-4.018.16-1.108-.05-2.23-.224-2.947-.32-.717-.1-4.286 1.61-4.274 2.008-.744-.028-2.495-.123-2.423-.075.073.047.315-.775 1.68-.92 1.366-.144 2.695-.798 2.65-1.228-.043-.43.265-1.904.38-2.536.113-.63.624-.937.502-1.267-.122-.33-1.682-.672-3.18-.663-1.496.01-3.156.094-3.398.454-.24.36-.06 1.408.252 1.287.31-.12-.075-.804.252-.945.327-.14 1.165-.266 1.95-.284.788-.017 2.155.67 2.14.89-.013.22.44.953-.187 1.23-.628.28-1.915.404-3.147.342-1.232-.062-2.478-.486-2.927-.757-.448-.272-.723-1.098-.723-1.155z" fill-rule="evenodd" stroke="#808080" stroke-width=".059pt" fill="#d0d0d0"/><path d="M114.053 125.53c0 .182-.147.33-.328.33-.182 0-.33-.148-.33-.33 0-.18.148-.328.33-.328.18 0 .328.147.328.328z" fill-rule="evenodd"/><path d="M129.51 120.77l1.595.344 2.665-1.824-.206.958-1.39.927c-.257.17-.513.326-.766.467.158.22.334.485.525.793l.86 1.39-.198.917-1.66-2.84-1.595-.345.17-.787z" stroke-width="1pt" fill="#d0d0d0"/><path d="M126.79 109.04l3.086-1.42-.838-1.822.413-.19 2.018 4.38-.413.19-.842-1.828-3.086 1.42-.337-.73z" stroke-width="1pt" fill="#d0d0d0"/><path d="M122.01 103.23l2.84-2.602.56.61-.074 4.398 2.23-2.042.522.57-2.84 2.6-.56-.608.076-4.402-2.233 2.045-.52-.57z" stroke-width="1pt" fill="#d0d0d0"/><path d="M109.59 98.214l.466-3.824.8.097-.412 3.373 2.974.362-.055.452-3.773-.46z" stroke-width="1pt" fill="#d0d0d0"/><path d="M103.48 98.762l-.69-3.79.793-.144.608 3.342 2.95-.536.08.448-3.74.68z" stroke-width="1pt" fill="#d0d0d0"/><path d="M92.198 104.33l-.283-.353 2.01-1.613.894 1.116c-.185.403-.41.776-.674 1.118-.266.34-.572.65-.917.927-.467.373-.942.65-1.425.83-.482.177-.916.224-1.302.14-.386-.084-.697-.273-.934-.57-.235-.29-.357-.64-.368-1.048-.01-.41.12-.822.383-1.235.264-.414.632-.81 1.106-1.19.344-.274.682-.486 1.015-.636.335-.153.632-.23.89-.23s.51.067.754.204l-.49.552c-.193-.096-.378-.146-.554-.148-.176-.003-.383.048-.62.153-.24.104-.48.252-.72.444-.287.23-.512.458-.677.682-.167.222-.28.43-.336.625-.055.192-.075.37-.06.536.028.283.13.533.304.75.214.268.466.435.755.5.292.062.612.026.96-.11.35-.135.68-.33.993-.58.272-.217.512-.463.718-.735.206-.275.345-.504.42-.686l-.45-.56-1.396 1.118z" stroke-width="1pt" fill="#d0d0d0"/><path d="M92.068 132.03l-3.14 2.23-2.377-3.346.37-.263 1.912 2.69.972-.69-1.653-2.328.372-.263 1.653 2.327 1.427-1.013.466.656z" stroke-width="1pt" fill="#d0d0d0"/><path d="M87.44 127.02c.448-.126.747-.414.898-.866.15-.453.143-.965-.02-1.538-.164-.583-.43-1.025-.794-1.328-.367-.304-.788-.39-1.266-.255-.3.086-.542.24-.72.466-.18.223-.29.508-.324.854-.037.345-.002.71.107 1.096.156.548.41.987.76 1.316.35.327.803.412 1.36.254zm.22.8c-.616.174-1.172.05-1.666-.375-.496-.423-.86-1.047-1.094-1.872-.152-.54-.21-1.05-.167-1.53s.176-.876.405-1.185c.228-.31.527-.52.898-.624.375-.106.746-.08 1.11.074.364.156.686.432.963.828.275.397.484.85.628 1.357.156.552.21 1.068.164 1.55-.046.48-.183.875-.412 1.18-.23.307-.506.506-.83.598z" stroke-width="1pt" fill="#d0d0d0"/><path d="M87.98 120l-3.85-.087.06-2.697c.013-.542.057-.953.134-1.234.074-.28.2-.503.38-.668.18-.164.374-.245.586-.24.273.006.5.15.682.435.18.283.29.717.328 1.3.07-.21.137-.37.203-.48.14-.23.317-.45.527-.656l1.072-1.034-.023 1.012-.82.787c-.237.23-.418.418-.544.568-.126.15-.215.284-.267.404-.053.118-.09.24-.11.363-.016.092-.025.24-.03.447l-.02.934 1.71.04-.02.804zm-2.133-.853l.04-1.73c.008-.37-.01-.657-.052-.865-.044-.21-.118-.368-.22-.478-.105-.11-.22-.167-.344-.17-.18-.004-.333.098-.455.306-.122.204-.188.53-.198.982l-.044 1.926 1.274.03z" stroke-width="1pt" fill="#d0d0d0"/><path d="M96.55 102.2l.026-4.505.745-.446 4.116 2.026-.787.47-1.21-.636-2.182 1.307.026 1.344-.734.44zm.694-2.26l1.77-1.058-1.093-.59c-.332-.178-.592-.333-.78-.463.06.25.093.517.097.798l.007 1.313z" stroke-width="1pt" fill="#d0d0d0"/><path d="M115.85 98.734l4.157-1.738.7.51-.255 4.58-.74-.54.112-1.36-2.056-1.498-1.227.55-.69-.504zm2.35-.245l1.667 1.214.115-1.237c.035-.375.076-.676.122-.9-.208.154-.44.288-.698.402l-1.205.52z" stroke-width="1pt" fill="#d0d0d0"/><path d="M128.5 112.83l3.747-.897.628 2.624c.126.527.188.936.185 1.227 0 .29-.067.538-.198.743-.13.205-.3.332-.506.38-.265.065-.522-.018-.77-.246-.247-.227-.463-.62-.648-1.175-.014.222-.038.395-.074.517-.078.26-.192.517-.343.77l-.772 1.272-.236-.984.592-.97c.17-.282.297-.512.382-.688.083-.177.135-.33.154-.46.02-.127.025-.253.015-.38-.01-.09-.038-.237-.087-.44l-.217-.907-1.663.398-.187-.783zm2.28.282l.403 1.683c.086.358.176.632.27.823.096.19.208.326.335.406.13.08.254.106.375.077.177-.042.298-.178.364-.41.066-.23.046-.563-.06-1.002l-.447-1.872-1.24.296z" stroke-width="1pt" fill="#d0d0d0"/></g></g></svg>