<svg xmlns="http://www.w3.org/2000/svg" height="480" width="640"><defs><clipPath id="a"><path fill-opacity=".67" d="M0 0h682.67v512H0z"/></clipPath></defs><g clip-path="url(#a)" transform="scale(.938 .938)"><path fill-rule="evenodd" stroke-width="1pt" fill="#009a00" d="M0 0h768v160H0z"/><path fill-rule="evenodd" stroke-width="1pt" fill="#fff" d="M0 159.96h768v16.018H0z"/><path fill-rule="evenodd" stroke-width="1pt" d="M0 175.98h768v160H0z"/><path fill-rule="evenodd" stroke-width="1pt" fill="#fff" d="M0 335.98h768v16.018H0z"/><path fill-rule="evenodd" stroke-width="1pt" fill="#ffca00" d="M0 352h768v160H0z"/><path d="M0 0v512l336.02-256L0 0z" fill-rule="evenodd" stroke-width="1pt" fill="#f00"/><g><path fill="#ffca00" fill-rule="evenodd" stroke-width=".856pt" d="M198.565 333.087l-51.245-37.534-51.195 37.52 19.863-60.333-51.506-37.094 63.523.248 19.357-60.447 19.393 60.49 63.472-.274-51.54 37.136z"/><path stroke-linejoin="round" d="M102.837 290.905h36.905c2.97 3.33 9.594 4.69 15.904-.04 11.567-6.334 33.945.04 33.945.04l4.408-4.682-10.742-35.252-3.856-4.13s-8.26-4.957-23.96-3.305c-15.698 1.653-21.207-.55-21.207-.55s-13.77 1.652-17.625 3.58c-.424.343-4.407 4.406-4.407 4.406l-9.363 39.935z" fill-rule="evenodd" stroke="#000" stroke-linecap="round" stroke-width=".882.25" fill="#fff"/><path stroke-linejoin="round" d="M110.274 281.82s35.25-4.408 45.442 9.087c-5.755 3.938-10.823 4.263-16.25.276.865-1.44 12.67-13.77 42.69-9.64" stroke="#000" stroke-linecap="round" stroke-width=".882.25" fill="none"/><path d="M148.002 246.567l-.273 38.833" stroke="#000" stroke-width=".882pt" fill="none"/><path d="M179.4 247.114l6.61 30.846" stroke="#000" stroke-width=".882pt" fill="none"/><path stroke-linejoin="round" d="M116.97 246.63l-3.667 15.906" stroke="#000" stroke-linecap="round" stroke-width=".882.25" fill="none"/><path stroke-linejoin="round" d="M78.868 295.14l8.68 10.175c1.018.608 1.924.57 2.83 0l12.86-15.434 5.403-6.688c.838-.99 1.105-2.096 1.03-3.086l10.328-9.178c.845.06 1.348.154 2.193.21-.997-.257-1.73-.743-.944-1.837l2.315-1.8 1.802 2.315s-2.572 3.344-2.83 3.344h-2.83l-5.402 4.888 2.362 2.087 3.555 9.746 4.374-3.087-2.83-10.032 6.175-6.687-2.316-3.602 1.543-2.057s21.368 13.453 29.6 9.852c.223.08.498-9.595.498-9.595s-22.122-2.315-22.637-6.688c-.515-4.373 4.888-4.888 4.888-4.888l-2.315-3.344.515-1.8 3.86 4.887 8.746-7.46 51.45 58.652c2.808-1.14 3.407-1.827 3.6-4.63-.072-.072-50.42-57.882-50.42-57.882l3.86-4.116c.76-.857 1.026-1.22 1.027-2.573l5.917-5.145c1.78.61 2.914 1.677 3.86 3.086l16.265-13.785c.43.43 1.73.858 2.615.376l26.888-25.815-29.305 20.703-1.033-.772c0-.858 1.064-1.07 0-2.573-1.138-1.366-2.83 1.286-3.086 1.286-.258 0-4.243-1.41-5.116-3.193l-.287 4.736-7.46 6.946-5.658-.26-8.233 7.976-1.03 3.087 1.287 2.573s-4.374 3.86-4.374 3.6c0-.256-.884-1.136-.922-1.25l3.753-3.38.514-2.315-1.25-1.953c-.38.275-5.18 5.3-5.438 4.784-.433-.476-13.895-15.69-13.895-15.69l.77-2.83-8.745-9.518c-3.19-1.1-8.232-1.286-9.26 5.66-.802 1.63-7.46.257-7.46.257l-3.603.77-20.322 28.812 11.32 13.634 23.15-29.326.69-8.308 4.856 5.432c1.62.208 3.164.227 4.632-.514l13.717 15.31-2.285 2.23c.772.857 1.303 1.404 2.075 2.262.772-.514 1.508-1.132 2.28-1.647.258.344.686.996.944 1.34-1.15.624-1.956 1.457-3.105 2.083-1.84-1.2-3.616-2.692-3.48-5.068l-7.72 6.43-.256 1.288-22.895 19.036-2.06.258-.514 5.916 14.92-12.347v-1.8l1.544 1.285 11.576-9.26s.772 1.03.515 1.03c-.256 0-10.29 9.26-10.29 9.26l-.256 1.028-1.8 1.544-1.03-.772-13.892 12.348h-2.058l-7.717 7.718c-1.99.174-3.715.385-5.402 1.544L78.86 295.14z" fill-rule="evenodd" stroke="#000" stroke-linecap="round" stroke-width=".882.25"/></g></g></svg>