<svg xmlns="http://www.w3.org/2000/svg" height="480" width="640"><g fill-rule="evenodd"><path stroke-width="1pt" fill="#fff" d="M194.79 0h250.45v480H194.79z"/><path stroke-width="1pt" fill="#198200" d="M0 0h194.79v480H0z"/><path stroke-width="1pt" fill="#198200" d="M445.23 0H640v480H445.23z"/><path stroke-linejoin="round" d="M313.5 351.29v52.63l21.27.22s-6.797-45.833-3.07-51.973c3.73-6.14 7.237-5.263 7.237-5.263s13.815 4.167 15.35 3.51c1.536-.66-.22-5.264 7.237-4.606 2.412-.877 1.097-5.044 3.29-5.263 2.193-.22 44.516 11.842 53.726.44-2.412-6.36-10.745-.44-12.938-.22-1.974 0-10.306-3.948-15.132 0-4.386-3.29-24.34-5.483-24.34-5.483-2.633-2.632 47.585 1.316 50.436-.658 5.92-5.92-10.964-5.263-13.596-3.29-4.678-2.85-10.545-2.63-14.127-.657-1.718-4.108-18.036-2.34-27.1-3.51-2.9-1.7-2.405-2.668-.44-3.726 18.933.805 37.773 3.26 56.797 2.413 5.142-6.704-6.478-9.218-13.596-3.51-4.18-6.87-12.72-.22-18.42-.876-5.7-.658-3.07-7.675 4.166-6.58 7.237 1.097 20.175-.437 22.588-3.727 2.412-3.29-1.44-6.63-13.377-3.508-4.038-3.95-12.937 0-17.103 1.315-5.543-3.092-18.42-.44-22.806.658-4.292-2.67 22.588-7.017 22.588-7.017 10.376-.184 16.228-1.974 19.516-2.85 15.686-8.41-.224-9.304-8.456-3.193-5.11-3.99-9.963.34-14.57 1.876-4.604 1.536-13.376 2.633-13.376 1.975 0-.658 12.5-8.334 12.5-8.334s15.35-1.095 18.42-1.533c3.07-.44 18.782-8.503-2.63-3.07-7.457.657-11.843.22-14.694.438-16.532-1.71 1.535-3.29 1.535-3.29s23.407-2.15 23.683-3.29c.46-9.125-19.078-4.823-19.297-4.823.056-6.52-18.202.22-18.202 0-3.49-2.056 1.974-4.166 1.974-4.166 4.824-1.17 12.036-1.513 13.923-3.05 0 0 13.626-.13 15.243-3.748-3.342-9.22-28.824 1.636-32.236 3.29-4.605 0 3.07-7.457 3.29-7.676.22-.22 21.05-1.096 30.92-14.473.685-8.144-11.623 4.604-11.623 4.604-.92-10.56-13.378.658-20.614 1.536-7.235.876-7.455-3.29-2.41-3.948 5.042-.658 10.744-.22 13.595-7.894 2.85-7.676 11.404.438 12.94-2.412 1.534-2.85-3.07-5.264-3.07-5.264s6.358-6.578-3.948-6.36c-10.307.22-23.684-1.314-23.684-1.314s10.746-4.167 20.833-3.948c10.09.22 4.606-7.236-5.043-7.236-9.648 0-14.692-3.29-14.692-3.29l16.447-6.14c-.366-1.534-.73-3.07-1.097-4.605 0 0 9.65-7.676-3.947-5.922-13.596 1.755-15.13 1.974-15.13 1.974s-27.193 4.167-27.412 4.167c-.22 0-7.456-2.194-.44-3.95 7.02-1.753 31.798-6.797 35.526-5.48 3.73 1.314-.438-9.21-13.596-10.527-13.157-1.315-21.27 3.29-21.27 3.29s-8.553-3.07-.658-5.702c7.894-2.63 20.394.878 20.394.878s14.035-4.166 2.412-5.92c-11.622-1.755-15.288 1.57-20.613 1.754-2.125-2.654 18.246-3.288 19.517-5.483-2.148-3.95-14.765 0-22.148 0-3.14-1.333-3.344-3.493.22-4.825 7.528-.293 14.597.15 22.127-.143-.22-4.02.02-8.775-.2-12.795-9.55-1.745-20.754 1.26-26.115 1.005 1.434-4.387 22.067-5.512 24.362-6.706 4.775-5.968-20.175 0-20.394 0-4.352-.643-4.07-3.39-1.316-5.044 6.36-.73 20.616.926 19.537-3.386-.825-4.04-9.888-1.877-13.616-1-3.727.877-9.21.22-9.21.22-2.387-3.214 21.49-1.907 21.27-4.386-.31-2.847-15.13-.877-20.174-.658-3.94-2.72 18.93-4.513 19.298-4.824.827-7.29-15.35 0-18.42 0-3.07 0-1.535-4.605-1.535-4.605s6.36-2.85 6.14-3.29c-.22-.438-4.824-1.973-5.263-1.973-.438 0 0-5.044 0-5.044s5.263-3.947 4.825-5.044c-.44-1.096-6.14.877-6.14.877v-4.386s4.166-.44 4.605-2.413c.44-1.972-5.044-2.19-5.044-2.19-.73-7.677-1.462-15.35-2.193-23.026l-1.973 21.49-7.237 1.096s5.044 2.85 5.92 5.7c.878 2.852-6.14 1.975-6.14 1.975s5.702 4.824 6.14 6.58c.44 1.753-7.894 2.192-7.894 2.192s7.017 5.043 7.455 7.894c.44 2.852 0 4.387 0 4.387s-11.622-10.087-19.08-7.237c-3.873 2.025 8.878 2.96 17.325 10.307-.02 1.636-20.517-4.992-21.27-.877.475 1.145 21.886 4.22 23.463 7.018-7.82.292-24-1.712-23.464.876-1.635 2.988 15.278 1.292 22.366 3.73 2.078 2.36 1.86 4.355-1.754 4.604-6.832-3.267-22.112-5.707-22.148-1.536.093 1.114 15.796.39 21.49 4.167-7.6 1.728-33.383-3.52-33.546-.964.735 1.193 4.82 6.445 11.836 6.226 7.018-.22 23.244 2.85 24.34 5.044 1.097 2.193-21.05-4.605-29.384-.658-8.332 3.947 23.902 1.535 29.165 6.36 5.264 4.824-10.526-.44-10.526-.44s-21.93-3.07-25.22-1.535c-3.288 1.536-7.016 5.044-7.016 5.044s2.193 4.386 4.386 3.51c2.193-.878-.658 2.63-.658 2.63s30.7 7.456 37.5 14.035c6.797 6.58-39.035-10.306-39.035-10.306s-18.42 6.798 1.096 7.237c-2.246 3.285 1.097 5.262 1.097 5.262s32.455 6.798 35.744 12.06c3.29 5.264-22.148-5.043-27.85-7.893-5.702-2.85-21.93 1.754-21.71 2.85.22 1.097 7.895 2.632 8.114 4.605.22 1.974-9.43 2.632-9.43 4.386 0 1.755 41.008 10.307 51.973 19.517 10.965 9.21-32.235-10.964-32.235-10.964s2.412 3.29 0 4.166c-2.412.877-10.964-12.28-25-4.166-2.555 3.338 12.244 5.992 16.01 6.36-1.287 3.305-2.413 4.385 2.85 7.674 5.263 3.29-10.307-4.824-10.307-4.386 0 .44 1.097 5.702 1.097 5.702-4.86-3.947-10.726-5.14-16.228-1.097 0 0-.22 3.947 5.482 6.36-3.114 6.36 3.508 4.385 14.034 10.305-15.644-4.088-16.885 3.51-5.7 5.263s41.883 2.85 49.12 12.28c7.236 9.43-10.28-3.615-12.28-3.947-.44.22-.878 4.826-.878 4.826-4.678-2.708-8.99-5.14-14.585-6.288-.438.877-.325 2.122-.764 2.998-5.078-3.662-9.51-6.222-16.886-6.578l-.877 3.51s-6.14-7.677-18.2 0c-6.736 4.827 25.437 1.753 30.7 7.455 5.263 5.7 1.096 6.578 1.096 6.578-4.387-1.606-8.772-3.215-13.158-4.823 0 0-15.57-2.85-19.955.657-4.386 3.51 64.033 12.06 66.006 21.49 1.33 5.115-16.08-5.368-31.14-9.867l-1.754 5.044s-5.98-6.007-12.72-7.017c-.22 0 1.316 5.922 1.316 5.922s-16.885-7.895-25.437-3.73c-8.554 4.168 29.823 6.36 33.33 10.308 3.51 3.947-11.62-2.63-12.937 0-1.317 2.632-19.956-4.824-19.737-1.316.22 3.51 2.63 5.483 2.63 5.483s38.815 3.727 40.132 8.333c1.316 4.605-21.49-2.632-21.49-2.632s-2.194 3.29-.44 4.825c1.755 1.536-13.157-8.77-11.842-1.973-4.835-1.926-17.324-7.894-15.57-3.29 1.756 4.606 35.307 11.185 35.307 11.185s-14.693 1.096-14.035 4.825c-18.9-11.515-18.42-4.168-17.982-3.948.44.22-24.34-6.14-5.7 3.948 18.64 10.087 10.087 8.332 10.306 8.552.22.22 1.973 5.043 1.534 5.043-.438 0-12.72-6.58-16.885-7.017-4.166-.44-23.902 5.482-2.85 14.692s33.99-2.193 45.612-.877 17.104 3.29 16.008 7.018c-1.096 3.727-11.873-12.217-23.215 1.576-12.902-2.555-21.658-4.036-14.998 5.445-21.07-7.874-33.934 2.407-7.4 6.574 26.076.767 42.104-6.36 42.104-6.36s4.387 8.113 10.747 2.41c6.36-5.7 6.58 2.194 6.798 2.194.22 0 6.14-2.632 6.14-2.632h1.535z" stroke="#000" stroke-linecap="round" stroke-width=".742" fill="#198200"/><path stroke-linejoin="round" d="M316.07 320.16v-3.673s-8.283-1.47-12.322-.643c-2.392-1.37-4.653-3.176-7.512-1.652-.55 1.193 5.234 4.315 7.162 4.315 2.26 1.43 12.672 1.837 12.672 1.653z" stroke="#000" stroke-linecap="round" stroke-width=".594pt" fill="#fff"/><path stroke-linejoin="round" d="M315.97 326.13s-8.283-3.028-11.59.46c.542 3.71 9.754 5.51 11.682 4.5 1.93-1.01 0-4.776-.092-4.96z" stroke="#000" stroke-linecap="round" stroke-width=".594pt" fill="#fff"/><path stroke-linejoin="round" d="M329.93 327.6v2.57s9.917 1.93 11.662-.182c1.744-2.112-7.897-3.49-11.662-2.388z" stroke="#000" stroke-linecap="round" stroke-width=".594pt" fill="#fff"/><path stroke-linejoin="round" d="M329.48 317.35l.366 2.9s8.54 1.93 11.845-2.754c3.306-4.683-7.503.038-12.21-.146z" stroke="#000" stroke-linecap="round" stroke-width=".594pt" fill="#fff"/><path stroke-linejoin="round" d="M329.93 307.4v1.928s6.428 1.01 7.897-1.744c1.47-2.755-7.713 0-7.897-.184z" stroke="#000" stroke-linecap="round" stroke-width=".594pt" fill="#fff"/><path stroke-linejoin="round" d="M316.51 301.46c-.99-1.41-4.48-4.904-13.846-5.914-6.51-.022 11.758 9.578 13.846 5.914z" stroke="#000" stroke-linecap="round" stroke-width=".594pt" fill="#fff"/><path stroke-linejoin="round" d="M329.75 291.69s-.367 2.663-.276 2.663c.092 0 22.038-6.52 27.18-6.06 4.593-1.3 5.51-4.5 5.326-4.5-3.92-2.857-22.864 2.296-32.23 7.897z" stroke="#000" stroke-linecap="round" stroke-width=".594pt" fill="#fff"/><path stroke-linejoin="round" d="M330.21 283.89c-.092.46-.276 2.57-.276 2.57s15.518-3.03 19.65-5.967c4.133-2.94-19.19 3.49-19.374 3.397z" stroke="#000" stroke-linecap="round" stroke-width=".594pt" fill="#fff"/><path stroke-linejoin="round" d="M329.57 276.27v2.59s10.36-.317 12.488-2.406c1.36-2.09-9.13-.297-12.488-.184z" stroke="#000" stroke-linecap="round" stroke-width=".594pt" fill="#fff"/><path stroke-linejoin="round" d="M351.18 298.01s5.38.752 6.39-.81c-.198-2.77-6.39.9-6.39.81z" stroke="#000" stroke-linecap="round" stroke-width=".594pt" fill="#fff"/><path stroke-linejoin="round" d="M330.02 266.63c-.092.46.09 5.693.09 5.693s24.886-7.897 26.447-9.367c1.56-1.47 5.025-5.89-26.538 3.674z" stroke="#000" stroke-linecap="round" stroke-width=".594pt" fill="#fff"/><path stroke-linejoin="round" d="M329.29 258.73v4.132s10.01-.735 14.6-4.5c4.592-3.764-14.6.46-14.6.368z" stroke="#000" stroke-linecap="round" stroke-width=".594pt" fill="#fff"/><path stroke-linejoin="round" d="M317.26 249.36l.643 3.765s-32.965-10.652-32.873-10.652c.09 0-1.66-5.426 32.23 6.887z" stroke="#000" stroke-linecap="round" stroke-width=".594pt" fill="#fff"/><path stroke-linejoin="round" d="M317.81 236.14c-.092.367-.092 3.58-.184 3.49-.092-.093-22.864-9.55-23.69-8.724-3.024-7.086 23.875 5.417 23.875 5.234z" stroke="#000" stroke-linecap="round" stroke-width=".594pt" fill="#fff"/><path stroke-linejoin="round" d="M328.92 242.02c0 .092.367 3.214.367 3.214s13.958-2.938 14.784-4.315c.828-1.38-15.15 1.192-15.15 1.1z" stroke="#000" stroke-linecap="round" stroke-width=".594pt" fill="#fff"/><path stroke-linejoin="round" d="M329.25 249.45c.13.79.404 3.306.404 3.306s5.602-.46 6.428-1.745c.827-1.284-6.832-1.468-6.832-1.56z" stroke="#000" stroke-linecap="round" stroke-width=".594pt" fill="#fff"/><path stroke-linejoin="round" d="M328.37 232.47c0 .276.09 3.122.09 3.122s15.336-3.03 16.99-4.5c1.652-1.468-17.356 1.378-17.08 1.378z" stroke="#000" stroke-linecap="round" stroke-width=".594pt" fill="#fff"/><path stroke-linejoin="round" d="M328.46 224.02c0 .184-.55 3.122-.184 3.122s18.64-3.122 21.487-5.693c2.848-2.572-21.028 2.846-21.303 2.57z" stroke="#000" stroke-linecap="round" stroke-width=".594pt" fill="#fff"/><path stroke-linejoin="round" d="M328.19 209.14v3.214s11.846-2.48 14.05-4.96c2.204-2.478-14.05 1.93-14.05 1.746z" stroke="#000" stroke-linecap="round" stroke-width=".594pt" fill="#fff"/><path stroke-linejoin="round" d="M326.17 187.47l.276 4.866s15.886-2.203 18.18-4.866c2.296-2.663-18.547 0-18.456 0z" stroke="#000" stroke-linecap="round" stroke-width=".594pt" fill="#fff"/><path stroke-linejoin="round" d="M318.82 151.02v3.03s-7.53-.367-5.694-1.653 5.694-1.102 5.694-1.377z" stroke="#000" stroke-linecap="round" stroke-width=".594pt" fill="#fff"/><path stroke-linejoin="round" d="M325.8 155.06l.184 4.132s9.733-.918 10.468-2.48c.734-1.56-10.468-1.652-10.652-1.652z" stroke="#000" stroke-linecap="round" stroke-width=".594pt" fill="#fff"/><path stroke-linejoin="round" d="M325.25 161.03s.184 2.57.367 2.57c.184 0 3.857-.274 4.683-1.284.826-1.01-4.683-1.102-5.05-1.286z" stroke="#000" stroke-linecap="round" stroke-width=".594pt" fill="#fff"/><path stroke-linejoin="round" d="M316.99 172.78c0 .275.275 3.95.09 3.856s-21.302-6.152-23.23-6.06c-1.928.092-2.48-4.867 23.14 2.204z" stroke="#000" stroke-linecap="round" stroke-width=".594pt" fill="#fff"/><path stroke-linejoin="round" d="M318.73 179.67c0 .735.46 4.59-.276 4.408-.734-.184-14.324-4.5-12.947-5.785 1.377-1.286 13.223 1.653 13.223 1.377z" stroke="#000" stroke-linecap="round" stroke-width=".594pt" fill="#fff"/><path stroke-linejoin="round" d="M317.54 208.68l.09 3.49s-23.69-7.163-24.516-8.356c-.826-1.194-3.122-6.795 24.426 4.866z" stroke="#000" stroke-linecap="round" stroke-width=".594pt" fill="#fff"/><path stroke-linejoin="round" d="M318.45 217.22c0 .092.184 3.306.092 3.306s-32.23-11.294-32.23-11.294-2.57-8.45 32.138 7.988z" stroke="#000" stroke-linecap="round" stroke-width=".594pt" fill="#fff"/><path stroke-linejoin="round" d="M280.26 328.68c0 .11-.11 3.517-.11 3.517s-6.264-1.76-8.242-5.275c3.627-.99 8.462 1.868 8.352 1.758z" stroke="#000" stroke-width=".594pt" fill="#fff"/></g></svg>