<svg xmlns="http://www.w3.org/2000/svg" height="480" width="640"><g fill-rule="evenodd" stroke-width="1pt"><path fill="#00006a" d="M.004 0h640v480h-640z"/><g><path d="M.03-.1l319.245 304.16h65.484L72.41.044.03-.1z" fill="#fff"/><path d="M360.5 304.2L48.12-.337 23.81.034 337.5 304.206h23z" fill="#f00"/><path d="M384.39-.1L65.148 304.06H-.337L312.013.044 384.39-.1z" fill="#fff"/><path d="M360.407.127l-312.38 304.54-24.31.01L337.404.128h23.002z" fill="#f00"/><path fill="#fff" d="M161.455.004h61.505v304.332h-61.505z"/><path fill="#fff" d="M.005 121.736h384.403v60.866H.005z"/><path fill="#f00" d="M174.915.004h34.597v304.332h-34.597z"/><path fill="#f00" d="M.005 136.96h384.403v30.432H.005z"/></g><g><g><path fill="#fff" d="M520.192 179.283l-19.584-14.462-20.305 13.418 7.645-23.175-18.98-15.25 24.305.14 8.57-22.844 7.388 23.26 24.27 1.13-19.735 14.238z"/><path fill="#f00" d="M512.358 167.482l-11.586-8.37-11.84 8.007 4.35-13.656-11.242-8.837 14.28-.07 4.895-13.468 4.47 13.61 14.262.515-11.5 8.484z"/></g><g><path fill="#fff" d="M445.062 304.002l-19.584-14.462-20.305 13.417 7.645-23.175-18.98-15.25 24.305.14 8.57-22.844 7.388 23.26 24.27 1.132-19.735 14.237z"/><path fill="#f00" d="M437.228 292.2l-11.586-8.368-11.84 8.006 4.35-13.655-11.242-8.837 14.28-.07 4.895-13.468 4.47 13.612 14.262.514-11.5 8.484z"/></g><g><path fill="#fff" d="M598.817 291.71l-19.584-14.462-20.305 13.417 7.645-23.175-18.98-15.25 24.305.14 8.57-22.844 7.388 23.26 24.27 1.132-19.736 14.237z"/><path fill="#f00" d="M590.983 279.91l-11.586-8.37-11.84 8.006 4.35-13.655-11.242-8.836 14.28-.07 4.895-13.468 4.47 13.612 14.262.514-11.5 8.484z"/></g><g><path fill="#fff" d="M518.445 469.127l-19.584-14.462-20.304 13.417 7.645-23.175-18.98-15.25 24.306.14 8.57-22.844 7.388 23.26 24.27 1.132-19.736 14.237z"/><path fill="#f00" d="M510.61 457.326l-11.585-8.37-11.84 8.007 4.35-13.655-11.242-8.837 14.28-.07 4.895-13.467 4.47 13.612 14.262.514-11.5 8.483z"/></g></g></g></svg>