<svg xmlns="http://www.w3.org/2000/svg" height="480" width="640" version="1" viewBox="-15 -7.5 30 15"><defs><clipPath id="a"><path d="M-15-7.5h30v15h-30z"/></clipPath></defs><g><path fill="#00247d" d="M-15-11.25h30v22.5h-30z"/><g><g clip-path="url(#a)" transform="translate(0 -3.75)"><circle r="20" fill="#00247d"/><path stroke-width="3" stroke="#fff" d="M-20-10l40 20m-40 0l40-20"/><path stroke-width="2" stroke="#cf142b" d="M-20-10l40 20m-40 0l40-20"/><path fill="#fff" d="M0 0l20 10h-3L-3 0m3 0l20-10h3L3 0M0 0l-20 10h-3L-3 0m3 0l-20-10h3L3 0"/><path stroke-width="5" stroke="#fff" d="M-20 0h40M0-10v20"/><path stroke-width="3" stroke="#cf142b" d="M-20 0h40M0-10v20"/></g></g><g><path d="M4.216 3.3c-.43.363-.84.895-.94 1.375-.283 1.352-.66 1.653-1.24 1.362 0 .726.637.782.916.358 0 .68.247 1.27.804 1.775.235.212.28.067.168-.167-.112-.235-.112-.994-.335-1.43.356.257.88.112.836-.592-.458.27-.913.26-.96-.378-.056-.75.236-1.834.75-2.303z" stroke="#000" stroke-width=".029574" fill="#f7e017"/><path d="M3.673-2.08c.03-.268-.027-.544-.223-.716-.38-.334-.75-.223-1.026.045-.413-.224-.633.568-1.102.434.078.257.2.368.436.28-.246.222 0 .49-.29.758.524.168.804-.122.78-.625.202.18.515.168.682-.033-.28-.09-.28-.333-.167-.56.167-.334.954-.32.91.416z" stroke="#000" stroke-width=".029574" fill="#f7e017"/><path d="M4.885 1.805c-.592.312-1.676.178-1.776-.592-.102-.77.647-1.117.848-1.217.313-.157.558.122.458.446.346-.123.424-.525.256-.76.458.034.883-.312 1.06-.803-.16.152-.597.048-.958.025.112-.123.11-.36.077-.484-.38.392-.926.213-1.652 1.34.112-.39.324-1.172.447-1.685.012-.052.022-.102.028-.155.044-.737-.742-.75-.91-.415.184.207.088.45.022.815-.078.436-.246 1.44-.39 1.776-.045-.525-.392-.558-.46-.815-.1.068-.155.247-.133.37-.123-.135-.547.033-.703-.168-.17.335.1.67.378.815-.162.01-.2.207-.38.207.24.28.486.39.77.413s.498.128.67.475c.28.558 1.344.92 2.347.413z" stroke="#000" stroke-width=".029574" fill="#337321"/><path d="M6.36 1.123C6.023 2.05 5.107 2.71 4.693 2.81c-.703.17-2.137.867-2.522 1.225-.06-.013-.117-.035-.158-.064-.19-.133-.346-.568-.01-.937 1.05-.983 2.177-.558 2.88-1.228-.592.312-1.675.178-1.775-.592.635.167 1.786.178 2.7-.804.124.133.482.557.55.713z" stroke="#000" stroke-width=".029574" fill="#f7e017"/><path d="M4.216 3.3c-.53.45-.806 1.553-.75 2.302.015.208.074.35.162.435.04-.424.335-1.52 1.09-2.01.635-.413 1.63-1.34 1.998-2.4-.067-.19-.18-.325-.39-.46C5.96 2.17 4.98 2.65 4.215 3.3z" stroke="#000" stroke-width=".029574" fill="#337321"/><path d="M6.02.694c-.19.284-.62.675-1.034.832.09-.1.117-.23.122-.336-.525.202-1.574.18-2 .023.638.167 1.788.18 2.704-.804.09.1.167.19.207.284z" stroke="#000" stroke-width=".029574" fill="#316d3a"/><path d="M2.003 3.033c-.853.8-.29 1.497.045 1.653-.09.558.436.49.424.96.213-.123.27-.446.235-.703.268.29.95-.034 1.094.502.09-.592-.367-1.184-.937-1.128.235-.212.1-.558-.122-.647-.044.435-.535.435-.725.3-.19-.133-.347-.568-.012-.937z" stroke="#000" stroke-width=".029574" fill="#337321"/><path d="M3.852 8.114c-.093.053-.086.173-.028.25.117.157-.082.512.296.587.112.024.198-.045.24-.172.118-.352-.257-.39-.29-.558-.034-.168-.14-.15-.218-.106z" stroke="#000" stroke-width=".029574" fill="#f7e017"/><path d="M4.17 8.773c-.125.058-.235.14-.184.54.02.168.01.57-.134.577.09.044.28.092.357-.012.074.126.245.09.312-.067.09.074.212-.05.212-.155.078.05.234-.022.195-.262.094.033.217-.034.262-.095-.14-.028-.492-.218-.576-.37-.083-.15-.3-.222-.446-.155z" stroke="#000" stroke-width=".029574" fill="#f7e017"/><g stroke="#000" stroke-width=".186" fill="none"><path d="M2.235-2.52c.057-.085.12-.163.19-.23"/><path d="M4.36-1.043c.1-.056.25-.063.415-.052"/><path d="M4.21 9.878c-.04-.055-.053-.29-.026-.432"/><path d="M4.522 9.812c-.06-.048-.178-.21-.198-.352"/><path d="M4.734 9.656c-.08-.036-.268-.282-.31-.44"/><path d="M4.93 9.394c-.093-.02-.375-.204-.492-.4"/></g><path d="M10.078 3.044c1.374 1.15 1.463 2.066 1.25 2.602-.11-.502-.68-1.284-1.272-1.485l.022-1.116z" stroke="#000" stroke-width=".029574" fill="#f7e017"/><g><g><path d="M7.62 2.397h2.548v3.015c0 2.568-1.43 4.087-2.882 4.89-1.452-.803-2.88-2.322-2.88-4.89V2.397H6.19c.003.156.017.39.2.625.422-.042.9-.357 1.23-.625z" stroke="#000" stroke-width=".029574" fill="#337321"/><path d="M10.167 2.397v3.015c0 .775-.13 1.455-.352 2.048L7.287 2.82l-2.53 4.64c-.22-.593-.35-1.273-.35-2.048V2.397h5.762z" stroke="#000" stroke-width=".029574" fill="#006ec7"/><path d="M9.893 7.237c-.045.137-.126.36-.19.496L7.288 3.24 4.87 7.733c-.063-.137-.144-.36-.19-.496l2.607-4.832 2.607 4.832z" fill="#f7e017"/></g><g stroke="#000" stroke-width=".186" fill="#f7e017"><path d="M8.436 8.89c.067.034.19.096.246.118.134-.268.157-.647.112-.983-.145.37-.637.358-.77.58.082.042.158.096.224.144-.167.166-.56.448-.783.515V6.87c0-.168-.056-.307-.056-.447v-.495c0-.112-.023-.274-.124-.274s-.122.162-.122.274v.495c0 .14-.056.3-.056.447v2.395c-.123-.357-.604-.235-.827-.592.088-.022.18-.028.27-.01-.168-.57-.626-.615-.715-.783 0 .235-.1.782.055 1.017.036-.042.088-.086.152-.124.19.413 1.043.414 1.244 1.095.162-.25.743-.54 1.15-.978z"/><path d="M7.286 6.897c.19 0 .793-.062 1.01-.062.057 0 .104-.084.104-.19s-.047-.19-.103-.19c-.218 0-.82-.06-1.01-.06s-.794.06-1.012.06c-.056 0-.102.086-.102.19s.046.19.102.19c.218 0 .82.062 1.01.062z"/><path d="M7.164 5.916c-.04-.033-.093-.053-.15-.053-.128 0-.23.094-.23.21 0 .115.102.21.23.21.125 0 .227-.095.227-.21 0-.09.13-.09.13 0 0 .18-.16.327-.357.327s-.36-.146-.36-.327c0-.18.16-.328.36-.328.06 0 .115.013.164.036-.004.03-.013.087-.013.136z"/><path d="M6.276 6.835c.057 0 .103-.084.103-.19s-.047-.19-.104-.19"/><path d="M6.36 6.835c.057 0 .103-.084.103-.19s-.046-.19-.103-.19"/><path d="M6.91 6.874c.07 0 .125-.102.125-.228s-.055-.23-.124-.23"/><path d="M7.04 6.885c.07 0 .13-.107.13-.24 0-.13-.06-.238-.13-.238"/><path d="M7.47 6.887c.07 0 .13-.108.13-.24 0-.135-.06-.243-.13-.243"/><path d="M7.604 6.88c.07 0 .13-.105.13-.234 0-.13-.06-.234-.13-.234"/><path d="M8.203 6.84c.057 0 .104-.087.104-.194s-.047-.193-.104-.193"/><path d="M6.04 8.773c.07-.042.152-.08.24-.1"/><path d="M8.314 8.795l-.066-.047"/><path d="M8.436 8.89c.156-.167.287-.357.358-.574"/></g><g stroke="#000" stroke-width=".186"><path d="M6.775 4.528c0-.054.044-.078.097-.117.062-.046.088-.07.145-.07h.733c.054 0 .067.015.067.065v.997c0 .05-.013.064-.067.064h-.975V4.52" fill="#fff"/><path d="M7.57 5.553c.095 0 .078-.002.145-.07.07-.07.064-.064.064-.13v-.91c0-.047-.012-.06-.063-.06H7.04c-.054 0-.077.02-.135.065-.05.037-.09.06-.09.11v.995h.754z" fill="#e5e5e5"/><path d="M7.64 5.532c0 .05-.012.064-.067.064H6.84c-.054 0-.066-.014-.066-.064v-.997c0-.05.012-.064.066-.064h.733c.055 0 .067.015.067.065v.997z" fill="#fff"/></g></g><g><path d="M9.062 1.813c.143.16.19.373.112.583h-.212c.09-.268.033-.524-.347-.558-.567-.05-1.228 1.05-2.222 1.184-.29-.346-.275-1.006.094-1.318-.19-.55-.593-1.154-.872-1.415-.182-.03-.393-.046-.53-.038.146-.312.56-.64.895-.775.055-.08.113-.156.167-.224.034-.43 2.077-.23 2.513.04 0 .48.19 2.084.402 2.52z" stroke="#000" stroke-width=".029574" fill="#96877d"/><g><path d="M6.584 2.106C6.534 1.36 6.234.748 5.812.33c.2.056.614.056.893-.145.37-.245 1.33-.675 1.68-.49.03.06.045.2.023.29-.084-.224-1.01.122-1.273.228-.25.118-.363.274-.274.626C6.717.715 6.767.6 6.617.51c.06.144.11.407.128.62C6.688.977 6.588.653 6.37.464c.19.368.355 1.253.277 1.722.15 0 .483-.148.616-.254-.117.168-.455.285-.672.33-.097.117-.164.418-.16.586-.015-.208.05-.71.154-.744z"/><path d="M9.062 1.813c-.185-.206-.53-.318-.972-.198.067-.034.213-.09.34-.112-.016-.117-.122-.62-.138-.742l.122-.05c.062.302.14.648.19.788.04.01.13.028.207.067-.033-.118-.223-.96-.217-1.05l.168-.09c.068.458.174 1.123.302 1.388z"/></g><g stroke="#000" stroke-width=".186" fill="#96877d"><path d="M8.962 2.396c.09-.268.033-.524-.346-.558-.295-.026-.614.26-.992.558h1.338z"/><path d="M6.494-.01c-.168.022-.542-.01-.732-.073.01-.05.03-.102.056-.158-.118.078-.34.23-.425.336.27.056.822.084 1.1-.106z"/></g><path d="M6.487 1.704c.062.178.102.35.108.503" stroke="#000" stroke-width=".029574" fill="none"/><path d="M5.98-.523c-.1.147-.19.306-.218.44.19.062.564.095.732.073" stroke="#000" stroke-width=".029574" fill="none"/><path d="M5.615.29c.072.01.14.025.197.04.2.056.614.056.894-.145S7.744-.64 8.604-.708" stroke="#000" stroke-width=".029574" fill="none"/><path d="M5.393.096c.268.056.82.084 1.1-.106.648-.44 1.273-.698 1.898-.732" stroke="#000" stroke-width=".029574" fill="none"/></g><path d="M10.078 3.044c.938.648 1.63 1.273 1.832 2.28.2 1.004.58 1.272 1.05 1.004-.112.58-.693.647-1.184.2.045.67-.224 1.475-.916 1.765-.045-.402.22-.72.145-1.05-.033-.145-.044-.48.145-.636-.368.123-.95-.112-1.005-.66.425.202.972.236 1.184-.3s.122-1.452-1.252-2.603z" stroke="#000" stroke-width=".029574" fill="#337321"/><path d="M11.262-2.182c.29-.76 1.05-.68 1.306-.357.75-.424.85.537 1.486.347-.012.178-.224.346-.458.335.245.223-.1.558.424.76-.447.223-1.072-.012-1.24-.626-.145.29-.67.29-.882.056.458-.123.425-.548.168-.715-.26-.17-.715-.1-.804.2z" stroke="#000" stroke-width=".029574" fill="#337321"/><path d="M8.997-.51c.208.672.64 1.297 1.104 1.723.537.49 1.346.368 1.8-.1.01.935-.96 1.007-1.498.714-.237-.13-.43-.06-.2.145.345.313 1.103.545 1.998.737 1.564.334 1.005 1.574.547 1.563.132-.003.24-.14.05-.31-1.356-1.22-4.115-.74-4.07-3.465-.29.715-1.485.436-.927-.413.18.145.492.156.58-.067.07-.174.025-.476-.288-.736.05-.004.162 0 .15-.128.015.075.083.187.26.15.05.08.102.13.173.103.014-.006.056-.027.04-.107.013.148.19.2.282.19z" stroke="#000" stroke-width=".029574" fill="#337321"/><path d="M10.402 1.827c.648.424 1.38.424 2.055-.357.212-.246.547-.458.782-.48.233-.023.222-.246.4-.29-.11-.034-.155-.168-.323-.152.42-.145.296-.48.503-.642-.168.062-.43-.19-.67.13.06-.147-.023-.32-.084-.387.022.167-.33.2-.397.625-.038.238-.168.223-.19-.145-.017-.27-.146-1.017-.302-1.396-.156-.38-.192-.9.02-.98-.032-.054-.077-.1-.132-.137-.258-.17-.714-.1-.804.2-.29.76.525 1.196.458 2.022-.123-.615-1.117-.77-1.105-1.374-.324.145-.28.413-.157.625-.2-.312-.66.202-1.05-.222-.044.558.447.77.85.792-.202.358.066.66.334.76.01-.626 1.294-.37 1.307.703.01.916-.973.994-1.498.704z" stroke="#000" stroke-width=".029574" fill="#f7e017"/><path d="M12.2 2.71c1.564.334 1.006 1.574.548 1.563-.292-.007-.57-.252-.587-.464-.334.178-.244.53.013.67-.704-.084-1 .38-1.017.887.13-.234.52-.25.665-.2.146.05.52.077.67-.09-.122.106.08.352-.094.54.586-.02.843-.568.743-.808.758-.694.613-1.822-.94-2.1z" stroke="#000" stroke-width=".029574" fill="#f7e017"/><path d="M11.01 8.015c.1.064.088.197.02.282-.138.17.07.574-.357.642-.125.02-.218-.062-.26-.205-.116-.398.304-.425.348-.61.046-.186.164-.163.25-.11z" stroke="#000" stroke-width=".029574" fill="#f7e017"/><path d="M10.626 8.736c.138.07.256.166.182.613-.03.184-.037.634.125.647-.102.046-.316.09-.398-.028-.09.136-.28.088-.347-.09-.103.077-.234-.065-.23-.184-.09.053-.26-.035-.206-.3-.108.032-.242-.048-.29-.118.158-.025.56-.222.66-.387.1-.163.345-.235.504-.154z" stroke="#000" stroke-width=".029574" fill="#f7e017"/><g stroke="#000" stroke-width=".186" fill="none"><path d="M10.534 9.97c.046-.062.072-.323.047-.483"/><path d="M10.188 9.882c.07-.05.208-.226.237-.384"/><path d="M9.958 9.697c.088-.037.31-.303.365-.48"/><path d="M9.75 9.395c.105-.017.428-.21.567-.424"/></g><path d="M8.727.498c-.02 1.145.457 1.724 1.116 2.1-.245-.146-.14-.648-.47-.81.08-.006.202.106.398.06-.094-.21-.25-.535-.613-.58.095-.01.3.023.435-.027C9.402.95 8.9 1.09 8.727.5z" stroke="#000" stroke-width=".029574" fill="#f7e017"/><path d="M8.608-.59c-.04-.014-.075-.054-.108-.107-.176.038-.244-.074-.258-.15.01.13-.1.124-.152.128.315.26.36.564.29.738-.09.223-.402.212-.58.067-.023.474.59.63.814.033 0 .1.13.09.162.224.16-.257.04-.626-.168-.932z" stroke="#000" stroke-width=".029574" fill="#f7e017"/><g><path d="M7.628-2.858c-.28-.257-.408-.687-.397-.932.012-.246.113-.514.47-.402-.112 0-.033.223-.15.245.094.034.223-.044.24-.095.022.08.167.056.178.146.056-.045-.005-.263-.09-.307.062-.034.096-.207.068-.29-.056.01-.14.088-.157.2.027-.09-.006-.313-.162-.346-.045.062-.056.213.005.297-.145-.034-.357.06-.408.184.012-.147.032-.357.123-.49.03-.045-.044-.123-.103-.017-.11-.212-.4-.324-.528-.218s-.3-.05-.407.118c-.106.167-.466.185-.447.362.01.107-.014.27-.067.33-.128.145.06.25.095.38-.02-.425.654-1.25 1.33-.927-.062.106-.115.318-.134.575-.028.38.028.916.396 1.228l.146-.038z" stroke="#000" stroke-width=".029574" fill="#337321"/><path d="M7.828-4.187c-.004-.1.17-.23.405-.23.282.004.5.26.725.236s.115.1.067.133c-.047.033-.075.084-.058.145s-.012.102-.103.045c-.2-.126-.403.05-.668-.048-.23-.084-.363-.13-.368-.282z" stroke="#000" stroke-width=".029574" fill="#cf142b"/><path d="M6.678-1.55c-.112-.353-.536-.738-.743-.828l-.01-.19c.11-.044.38-.256.502-.374.837.402 1.976-.167 2.5-.76l.202.124-.1.134-.107-.056c-.13.156-.608.608-.754.702.195.05.46.084.535.08.47-.335.837-.637 1.016-.66l.152.202-.134.095-.106-.063c-.503.414-1.072 1.318-1.296 1.92-.312-.066-1.43-.02-1.658-.328z" stroke="#000" stroke-width=".029574" fill="#96877d"/><path d="M8.17-2.798c-.073-.018-.135-.04-.175-.06-.09.084-.312.156-.597.168" stroke="#000" stroke-width=".029574" fill="none"/><path d="M6.722-1.674c-.075-.416.045-.877.257-1.016.463.307 1.256.307 1.725-.028" stroke="#000" stroke-width=".029574" fill="none"/><path d="M6.722-1.892c.358-.01 1.134.05 1.324.078.19.028.508.106.463.2" stroke="#000" stroke-width=".029574" fill="none"/><path d="M6.887-1.95l.103-.104-.103-.102-.102.102.102.103z" stroke="#000" stroke-width=".029574" fill="none"/><path d="M7.13-4.03c-.128-.18-.482-.236-.558.005-.034.106-.084.218-.168.268-.083.05-.064.203-.027.268.09.163.01.32.184.426 0-.13.19-.263.353-.296.162-.034.407-.18.44-.34.034-.163.09-.297-.223-.33z" stroke="#000" stroke-width=".029574" fill="#337321"/><path d="M6.325-2.422h.045v.305c.01.003.02.008.027.014l.263-.152.023.04-.264.152c0 .01.002.02 0 .03l.263.153-.023.038-.264-.152c-.008.007-.016.013-.026.016v.304h-.045v-.305c-.01-.003-.02-.007-.027-.013l-.263.15-.023-.037.264-.154c0-.01-.003-.02 0-.03l-.264-.152.023-.04.265.154c.007-.007.016-.013.025-.016v-.304z" stroke="#000" stroke-width=".029574" fill="#96877d"/><path d="M6.724-1.675c-.096.096-.23.156-.376.156-.292 0-.53-.236-.53-.528 0-.292.238-.53.53-.53.172 0 .325.083.42.21-.026.066-.058.215-.06.283-.018-.182-.173-.325-.36-.325-.2 0-.36.162-.36.362 0 .2.16.36.36.36.167 0 .312-.115.353-.27 0 .067.003.227.024.283z" stroke="#000" stroke-width=".029574" fill="#96877d"/><path d="M6.125-1.17c-.033-.04-.095-.147-.09-.225.05-.005.146.028.19.073-.005-.056-.027-.18-.016-.235.06.023.19.095.233.18-.01-.057-.033-.202-.01-.29.066.038.178.144.2.216.006-.112.045-.297.078-.34.052.05.13.094.18.16.01-.09.056-.195.123-.223.05.056.128.185.145.33.05-.017.117-.1.145-.145.028.044.056.122.04.217.06-.056.133-.135.15-.202.045.034.13.118.15.207-.01-.073-.005-.2-.027-.274.084.046.15.124.168.208.022-.078.072-.218.117-.25.045.088.09.194.085.283.027-.054.072-.155.117-.177.04.06.033.195.022.268.04-.055.112-.122.157-.144.006.033.012.1 0 .15.05-.028.135-.178.162-.257.08.04.157.173.162.24.056-.023.168-.123.2-.18 0 .04.018.146-.004.23.033-.034.067-.1.084-.13.022.057.005.19-.017.264.05-.045.123-.073.167-.073.006.096-.06.264-.123.387-.535-.15-1.657-.207-2.785-.268z" stroke="#000" stroke-width=".029574" fill="#337321"/><path d="M7.994-4.13c-.002-.04.09-.134.254-.133.197 0 .38.146.538.136s.08.04.047.054c-.033.014-.053.035-.04.06s-.01.04-.073.018c-.14-.05-.282.02-.468-.02-.16-.034-.254-.053-.258-.115z" fill="#f7e017"/></g><g stroke="#000" stroke-width=".186"><g fill="#f7e017"><path d="M6.298-.836c-.167.2-.335.167-.368.04-.034-.13.09-.19.044-.303-.044-.11.073-.16.13-.11.055.05.233-.112.312.055.078.168.14.285.094.352-.044.067-.178.034-.212-.033z"/><path d="M7.018-1.138c-.032-.073.142-.215.23-.114.09.1.23-.11.31.05.077.16.102.243.14.332.04.09-.21.137-.29.06.012.052-.216.093-.278-.057-.034-.08-.07-.173-.112-.27z"/><path d="M8.18-1.046c-.042-.078.162-.19.268-.047.028-.06.23-.07.243.1.015.17.02.27.026.338s-.122.128-.215-.042c-.163.034-.24-.058-.258-.156s-.04-.145-.062-.193z"/></g><g fill="#337321"><path d="M6.406-1.157c-.025-.056.143-.168.257-.084.115.083.273-.074.34.077.137.304.146.327.104.385-.042.06-.22.036-.265-.044-.01.055-.163.046-.243.002-.093-.05-.158-.237-.194-.337z"/><path d="M7.582-1.144c-.04-.086.223-.16.337-.01.058-.054.186-.057.26.108.072.165.083.257.03.3-.038.028-.173.052-.218-.023-.062.04-.25.006-.293-.1-.043-.106-.08-.198-.118-.274z"/><path d="M8.693-.98c-.005-.077.137-.113.19 0s.223.013.238.202c.003.036-.02.176-.072.243s-.313 0-.33-.142C8.703-.82 8.697-.9 8.694-.98z"/></g><g fill="none"><path d="M6.298-.836c-.06-.084-.145-.218-.25-.073"/><path d="M6.843-.823c-.036-.047-.084-.125-.1-.187"/><path d="M7.408-.81c-.04-.03-.097-.085-.128-.144"/><path d="M7.36-1.104c.097.01.164.103.195.145.03.043.095.118.145.126"/><path d="M7.993-.77c-.034-.053-.067-.1-.075-.14"/><path d="M7.92-1.155c.033.048.058.087.078.13"/><path d="M8.5-.697C8.458-.78 8.388-.862 8.33-.89"/><path d="M8.48-1.004c.004.165.225.176.233.293"/><path d="M8.882-.98c.023.043.03.085.034.155"/></g></g></g></g></svg>