<svg xmlns="http://www.w3.org/2000/svg" height="480" width="640"><defs><clipPath id="a"><path fill-opacity=".67" d="M0 0h682.67v512H0z"/></clipPath></defs><g fill-rule="evenodd" clip-path="url(#a)" transform="scale(.938)" stroke-width="1pt"><path d="M0 507.17L987.43 0H0v507.17z" fill="#0000d6"/><path d="M1024 0L27.17 512H1024V0z" fill="#006000"/><path d="M1024 0h-54.858L.002 485.36V512H54.86L1024 27.6V.004z" fill="#fc0"/><path fill="#fff" d="M71.397 9.124l11.857 34.442 38.47-.026-31.143 21.254 11.917 34.426-31.105-21.305-31.106 21.3 11.922-34.42L21.07 43.53l38.47.036z"/><path fill="#fff" d="M262.54 9.124l11.856 34.442 38.47-.026-31.143 21.254L293.64 99.22l-31.106-21.305-31.106 21.3 11.922-34.42-31.138-21.265 38.47.036z"/><path fill="#fff" d="M262.54 153.603l11.856 34.442 38.47-.026-31.143 21.253L293.64 243.7l-31.106-21.306-31.106 21.3 11.922-34.42-31.138-21.265 38.47.035z"/><path fill="#fff" d="M167.527 82.206l11.857 34.442 38.47-.026-31.143 21.254 11.917 34.426-31.105-21.305-31.106 21.3 11.922-34.42L117.2 116.61l38.47.036z"/><path fill="#fff" d="M71.397 153.603l11.857 34.442 38.47-.026-31.143 21.253 11.917 34.426-31.105-21.306-31.106 21.3 11.922-34.42-31.138-21.265 38.47.035z"/></g></svg>