<svg xmlns="http://www.w3.org/2000/svg" height="480" width="640" version="1"><g><g fill="#00009e"><path d="M640.013 480.02V.03H.003v479.99h640.01z" fill="#006"/></g><g><g fill="#fff"><path d="M-.057 73.33h76.024L-.057 26.755V.02H43.44l106.348 64.72V.02h59.884v64.72L316.02.02h43.872v26.736l-76.4 46.573h76.4v73.368h-76.4l76.4 46.573v26.747H316.02l-106.348-64.73v64.73h-59.884v-64.73L43.44 220.018H-.057V193.27L75.967 146.7H-.057v-73.37z"/></g><g fill="#ef072d"><path fill="#ce1126" d="M331.59.016L211.446 73.378h28.76L359.884.016H331.59z"/></g><g fill="#ef072d"><path fill="#ce1126" d="M359.9 220.017l-119.807-73.322h28.887l90.92 55.842v17.48z"/></g><g fill="#ef072d"><path fill="#ce1126" d="M120.312 73.36L-.062-.003v17.52L91.3 73.36h29.012z"/></g><g fill="#ef072d"><path fill="#ce1126" d="M120.062 146.673L-.065 219.996H28.68l120.144-73.323h-28.762z"/></g><g fill="#ef072d"><path fill="#ce1126" d="M-.057 88.548h162.6V.016h35.19v88.532h162.16v42.96h-162.16v88.506h-35.19V131.51H-.057V88.547z"/></g></g><g><g stroke="#fff" stroke-width="1.102" fill="#4fa8ff"><path d="M399.67 640.77c-.046 16.332-2.623 33.927-23.764 42.308-21.142-8.38-23.72-25.976-23.765-42.308h47.53z" stroke-width="1.112" fill="#8fc5ff" transform="matrix(4.486 0 0 4.487 -1190.9 -2609)"/></g><g stroke-width="1.102" stroke="#000" fill="#fff"><path d="M495.387 455.98c42.994-17.046 68.874-42.595 84.337-72.26-2.315.09-7.164-.048-9.26-.192-2.332-.152-90.935-9.054-101.427-12.904-9.13-3.348-43.96 2.845-60.216 8.655 15.168 31.552 41.438 58.806 86.567 76.7z" fill="#366cc9"/></g><g stroke-width=".138" stroke="#000"><path d="M429.13 410.527c1.448-.47 4.216-.36 5.306-.162 1.283.233 1.516.35 1.983-1.05s1.515-1.05 2.332-.35 2.91.35 3.728-.816c.816-1.164 1.05-1.047 1.866-.235.816.817 1.166.584 1.983.35.815-.23 2.215-1.162 2.914-2.445s1.745-1.75 2.33-1.05 1.165 1.05 1.98.933 1.05.7.935 1.746c-.118 1.05.348 1.282 2.33-.347 1.75 1.746 2.33 1.046 2.33-.817 0-1.866-.463-8.745-1.162-9.678s-1.4-3.617-1.517-5.716c-.218-3.962-.232-4.196-5.014-6.646 0-1.4-.35-1.983-3.728-1.75.117-.466-.466-1.866-1.166-2.45s-.817-.816-.467-2.445c1.4.118 2.916-.116 3.733-1.282.812-1.167 3.494-.934 5.127-.234s3.732.817 6.877.35c1.166-.933 3.15-1.983 5.25-3.15 2.094-1.166 2.677-1.633 2.794-3.266.3-4.186-1.167-8.978-2.333-11.19-1.162-2.217-1.512-5.017-3.145-8.517-1.776-3.808-1.75-4.778-3.732-7.11-.543-.642-1.167-1.167-1.283-2.446-.117-1.283-.583-3.033-1.98-4.317-3.525-3.235-4.897-13.645-6.297-21.34-.803-4.41-.233-14.807-2.095-16.44-3.148-2.567-4.664-2.1-6.764-2.917-1.516-2.1-2.21-6.295-3.61-10.028-2.217.35-3.733 2.683-5.25 3.5s-1.75.816-1.75 2.916c0 2.096-1.166 5.012-3.26 8.28-2.1 3.26-5.6 2.332-8.51 7.227-6.415-7.812-6.532-10.028-7-12.245-.465-2.212-1.515-2.68-5.126-5.828 0-.934-.467-4.662-.117-6.762-2.682-2.217-4.665-1.867-5.944-.234-1.284 1.634-2.217 4.08-4.2 5.012-1.188 1.512-4.773 5.326-7.706 9.867 2.67 40.58 11.825 80.865 39.355 113.082z" fill="#5d3100"/></g><g stroke="#fff" stroke-width=".275" fill="#ff0"><path d="M399.67 640.77c.018-6.152-.324-12.125-.168-17.36-7.9-3.534-18.295-4.26-23.596-4.26-5.302 0-15.697.726-23.597 4.26.155 5.235-.186 11.208-.17 17.36h47.53z" stroke-width="1.08" transform="matrix(4.486 0 0 4.487 -1190.9 -2609)"/></g><g fill="#cf6200"><path d="M394.542 298.082c1.166 1.867 3.266 5.075 3.5 6.82.816-1.69 1.457-2.445 1.632-3.495s1.4-3.09.933-4.2-.816-1.983.467-1.166c1.278.817 1.032 2.23.753 4.317-.753 5.712-3.144 6.88-3.494 10.73 3.44 8.102.875 11.02 4.602 18.947.584.35 2.14-.273 2.607-.157 1.978-1.4 3.458-.893 6.253-.31 2.8.584 4.316 2.563 4.316 4.313s0 2.216.584 3.266 1.75 2.683 1.516 3.85c-.233 1.162.234 1.862.583 2.446s-.116 1.866-.466 2.683-.233 1.866 1.166 3.616c1.4 1.747 4.66 9.096 4.66 13.408 0 4.317.234 6.3 1.984 7.112 1.75.817 2.333 1.517 2.1 3.384s.816 11.545 1.05 13.06.816 1.168 1.515 1.984c.696.813 1.162 1.746 3.495 1.746s4.585-.31 6.1-.076c2.1 2.916 3.383 6.878 3.85 9.328s.426 5.793 1.243 5.793 1.633.115 1.4-2.918-.467-3.5-1.517-5.012c-1.05-1.516-1.633-2.216-1.05-3.15s.7-2.45.467-3.616-.583-2.912 1.4-.583c1.982 2.334 2.565 2.917 3.15 3.734s.81 2.333.698 3.733c-.116 1.395.113 1.98.93 1.28.815-.697 1.865.465 1.4 1.982s.115 2.45 1.515 2.916 1.983.816 2.333 1.866 1.516 1.512 1.516-.583c0-2.1-.817-6.534-1.4-7.93-.583-1.4-1.05-4.433-1.166-6.183s-.467-2.212-1.283-2.562-1.516-.933-1.633-1.75-.816-1.108-1.34-1.108-.988-.408-1.28-.992-.583-.64-1.166-.7-1.516.292-1.808-.64-.7-2.276-1.283-3.035-1.108-.99-1.166-3.612c-.06-2.625-.117-2.974-.933-3.908s-2.217-3.378-2.8-4.428c-.578-1.05-1.162-2.1-1.162.116 0 2.212 0 3.38 1.396 4.196 1.4.816 1.75.816 1.166 1.983s0 1.983.233 2.8.7 1.633 0 2.445c-.7.817-1.4.583-1.283-.695.117-1.284-.35-2.8-.928-3.85-.584-1.05-1.05-1.75-1.75-1.167s-1.283-.117-.816-.583.35-.817 0-1.167-.467-.7.116-1.4.583-1.05.233-2.678c-.35-1.634-2.916-9.796-4.083-11.662s-1.05-3.267.467-1.4 2.8 3.5 2.916 5.012c.116 1.516.466 2.45.933 3.033s.816.35 1.05-.933 1.166-.817-.467-3.262c-1.633-2.45-4.665-6.533-5.832-13.88s-1.633-12.244-2.8-14.222c-1.16-1.984-1.51-2.45-1.628-4.317s0-3.732-.816-5.127c-.816-1.4-1.4-1.634-1.516.466-.117 2.095.116 6.76.7 7.578s.233 2.912.116 4.078-1.95 2.32 1.866 4.667c1.517.933 1.28 2.216 1.05 3.033-.233.812-.466.696-1.283-.583-.816-1.284-1.633-2.333-2.45-3.033s-.932-1.167-.816-2.8.467-2.8 0-3.38c-.466-.582-.7-.116-.933.813-.233.933-.466 3.5-.933 4.2s-.7.233-1.05-1.283.118-3.846.934-6.53 1.283-5.482.584-8.977c-.7-3.5-.35-4.55-3.033-7.462-2.678-2.916-5.71-5.716-6.994-9.328-1.282-3.616-1.515-6.766-2.914-8.4-1.396-1.628-3.378-3.728-4.66-4.31v-5.363c0-1.285-.585-2.1-2.1-1.868s-2.45 1.517-3.38 3.262c-.932 1.75-1.632.933-2.915 3.967s-3.148 4.546-3.148 7.812z"/></g><g fill="#cf6200"><path d="M402.976 332.273c.933.584 1.826.974 3.225.274s3.074-2.72 4.94-.736c1.862 1.98 2.912 5.247 2.912 7.813 0 2.562 0 7.345 2.916 10.03 2.916 2.677 4.427 5.477 4.544 8.977.117 3.495 1.4 8.862 1.75 10.262.35 1.395 1.166 3.03 2.1 3.962s1.632 3.616 1.748 6.412c.117 2.8-.35 4.783 0 6.183s0 2.565-1.05 1.865-1.282-1.05-1.865-2.216-1.283-.934-.7.815 2.332 3.38 3.85 3.38 1.982.232 2.915 1.166c.928.934 1.045 1.4 2.678 1.4s1.866 0 3.382.467 1.517.234 2.333 0 1.628.467 2.212 1.984 1.982 5.713 1.982 6.88 0 2.332.817 3.5.583 2.332-.35 1.632-.933-.466-1.633-.35-1.165-.233-2.094-.816c-.933-.584-.35-.467-1.283-1.867s-1.516-1.867-1.516-.818-.117 2.334-.817 1.75-1.05-.583-1.633 0-.816 1.05-1.516-.116-1.515-1.167-2.215-1.4-.7-.234-1.045-1.283c-.35-1.05-1.4-1.284-2.333-1.284s-1.4-.467-1.516-1.167c-.116-.696-.7-1.163-1.166-1.512s-.233-1.166-.35-1.983-.816-.466-1.282-.7-.817-.116-.817-1.283-.466-1.517-.816-2.333c-.347-.816 0-1.633.232-2.56.233-.935.117-1.518-.58-2.335-.7-.816-.115-1.633-1.982-3.266s-2.8-.234-3.382-4.08c-.583-3.85-1.75-11.778-2.8-13.06s-1.744-2.218-2.794-2.568-1.75-.117-1.866-2.333c-.117-2.213-.817-5.013-2.216-6.413s-1.983-1.867-2.683-2.45-.934-1.633 0-3.612c.932-1.983.582-4.667.466-5.95-.117-1.28-.467-2.912-.234-4.312s.117-3.15-.233-4.083-.817-1.167-.234-1.867z"/></g><g fill="#cf6200"><path d="M431.058 299.114c-1.58 2.033-3.26 3.734-5.437 5.286-2.175 1.557-4.974 2.8-3.422 5.443 1.557 2.643 2.8 2.957 3.11 4.976.313 2.018.78 3.732 2.332 4.2 1.556.46 2.176.15 2.176 3.418s0 4.51 1.4 5.752 1.242 2.486 1.865 5.443c.62 2.952.62 9.328 2.487 13.68s6.065 12.596 5.598 14.305-1.09 2.953.776 4.972c1.867 2.024 3.11 4.976 3.267 6.686.153 1.714.467 2.333 2.328 1.714 1.866-.624 2.8-1.248 3.423-2.024.62-.776 1.862-.62 3.575.31 1.71.933 4.352 1.866 5.904.933 1.557-.934 2.333-2.33 3.732-2.33 2.175-1.557 2.95-4.823 3.418-5.752.466-.934.157-.934-.776-1.867s-.467-2.49-.624-4.042c-.152-1.557-.776-3.885-2.642-7.31-1.862-3.418-2.952-7.618-4.195-8.704-1.24-1.09-1.865-3.733-2.022-4.976-.152-1.243-1.552-2.333-2.485-3.266-.933-.93-1.866-2.33-2.952-7.772-1.09-5.443-1.865-9.328-1.865-10.262s-.157-1.09-1.09-1.4-1.4-1.866-1.086-2.642c.31-.777-.315-1.553-.624-2.486s0-2.643.623-3.576c.618-.934.466-3.576-.158-5.753s-1.242-4.04-3.732-4.356c-2.485-.31-2.952-.928-3.885-2.952-.933-2.02-1.866-5.595-2.176-6.376-.31-.776-.777-.933-2.643.624-1.866 1.552-2.485 2.068-2.485 4.976 0 1.866.31 2.486.928 3.576.624 1.086.78 1.4 1.248 4.352s3.108 7.62-.314 10.262c-3.42 2.643-2.952 3.267-2.795 5.13.15 1.865-.934 3.108-1.558.465-.62-2.64 0-4.194 1.866-5.437 1.866-1.247 3.576-2.8 2.333-4.51-1.246-1.71-1.708-5.752-1.865-7.618s-.467-2.49-1.557-1.09z"/></g><g fill="#00b800"><path d="M403.335 338.735c-.086 1.265.197 2.656.296 3.773.117 1.283.467 3.967-.466 5.95-.933 1.98-.7 3.03 0 3.612.04.03.076.063.112.094 1.902-.637 2.15-2.76 1.638-3.787-.543-1.086-.386-2.41.233-3.495.624-1.09.624-1.71.08-2.49-.547-.777-.547-.777.077-2.953.547-1.917-.834-1.903-1.97-.705z"/></g><g fill="#00b800"><path d="M423.253 368.887c-.35-1.4-1.633-6.766-1.75-10.26-.117-3.5-1.628-6.3-4.544-8.98-2.276-2.095-2.774-5.46-2.88-8.06-1.71-1.044-2.433-.568-2.29 1.374.153 2.097 2.253 3.11 1.943 6.14-.31 3.033-.31 2.257 1.167 3.733s2.018 2.876 1.242 3.5c-.776.62-.857 1.71.233 2.095 1.086.39 1.167 1.557 1.01 2.643-.157 1.09.857 1.325 1.476 2.1.624.777.7 2.644.08 3.734-.622 1.086-.698 2.795.387 1.867 1.09-.933 1.557-.08 2.41 1.396.74 1.274 1.36.875 2.162.49-.28-.59-.504-1.2-.647-1.77z"/></g><g fill="#00b800"><path d="M438.415 396.034c-.7 1.4-1.516.933-2.216.233s-1.517-.7-1.167-1.983.233-1.517-.7-2.217c-.108-.08-.215-.152-.323-.224-.292-.01-.633-.01-1.077-.01-1.633 0-1.75-.466-2.678-1.4-.21-.206-.395-.376-.574-.52-.017.225-.008.52-.008.87 0 1.284 0 1.05-1.283 1.4s-1.05-1.282-1.284-2.332c-.063-.27-.135-.466-.202-.628-1.404-.27-2.884-1.75-3.414-3.333-.583-1.75.117-1.985.7-.818s.817 1.517 1.866 2.216 1.4-.466 1.05-1.866c-.112-.45-.14-.97-.126-1.548-.25-.453-.592-.82-1.04-1.02-1.867-.815-1.283-1.05-1.167-2.565.117-1.513-.233-1.513-1.4-.7-1.166.815-1.282-.118-1.282-2.447 0-2.333-1.516-2.333-1.86-.7-.35 1.634-.934.584-1.634-1.75s-1.633-2.916-1.75-.7c-.098 1.876-.62 2.325-1.84 1.284.217 1.355.405 2.62.558 3.616.583 3.846 1.516 2.446 3.382 4.08s1.283 2.45 1.983 3.266c.694.815.81 1.398.577 2.332-.233.93-.578 1.745-.233 2.562.35.816.817 1.166.817 2.333s.35 1.05.817 1.283c.292.144.67.063.942.18.3-.395.573-.88.923-1.23 1.4-1.4 3.5.117 4.2 1.867s1.51 2.217 2.56.817.7-1.167 1.867.116 1.633 1.05 1.633 1.05 1.166-.466 1.983.234 1.283.583 2.794-1.634c1.517-2.216-.695-1.516-1.395-.116z"/></g><g fill="#00b800"><path d="M442.542 332.05c.462-3.42.153-6.84 1.552-8.087 1.4-1.242 3.11-3.728 2.952 1.557-.152 5.286-.31 4.977-1.395 6.22-1.09 1.242-2.022 1.552-.932 3.576 1.086 2.02 1.243 2.176 1.086 5.285-.153 3.11-.153 4.354 1.09 5.91 1.242 1.553 1.552 1.71 1.866 3.42.31 1.71 1.395 4.043 2.795 5.285s2.956 4.82 3.108 7.31c.158 2.486 2.333 3.11 4.352 4.82 2.023 1.708-.462 2.95-2.02 2.175-1.55-.776-.932 0-1.865 1.086-.933 1.09-1.243 1.247-2.02-.62s-3.42-3.11-4.664-3.576-2.328-2.49-3.418-4.51c-.934-1.735-2.782-3.005-4.468-3.135.466 1.31.717 2.337.583 2.826-.467 1.71-1.09 2.954.776 4.973 1.865 2.024 3.108 4.976 3.265 6.686.152 1.713.466 2.332 2.328 1.713 1.866-.624 2.8-1.248 3.423-2.024.62-.777 1.86-.62 3.575.31 1.71.932 4.352 1.865 5.905.932 1.556-.933 2.332-2.33 3.732-2.33 2.176-1.556 2.952-4.822 3.418-5.75.467-.934.157-.934-.776-1.868s-.467-2.49-.624-4.043c-.153-1.556-.776-3.884-2.643-7.308-1.86-3.42-2.95-7.62-4.194-8.705-1.244-1.09-1.867-3.733-2.024-4.976-.153-1.242-1.552-2.332-2.485-3.265-.933-.93-1.866-2.33-2.95-7.772-.854-4.253-1.513-7.55-1.76-9.238-1.117 1.78-1.88 2.216-2.283.996-.467-1.395-1.09-2.176-1.71-1.242-.623.933-.78-.776-.78-1.553 0-.78-.152-.933-.933-.933-.776 0-.153-1.243-.467-3.576-.31-2.333-.776-2.643-1.085.157-.31 2.795-1.866 4.505-1.243 5.13.618.622.31 1.865-.315 3.732-.62 1.862-.31 2.952.157 4.195s-.31 3.576-.623 5.6c-.31 2.02 1.246 4.038 1.712.62z"/></g><g fill="#00b800"><path d="M414.146 304.14c-1.153.085-1.942 1.095-1.283 4.626.413 2.185-1.243 1.71-1.862.62-.622-1.087-1.09-3.42-2.33-5.444-1.25-2.02-.625 1.4-.778 3.267-.157 1.866 1.086 1.866 2.176 3.418 1.086 1.557.153 2.18-1.09 2.18s-.62 2.487-.31 4.196-.31 2.024-1.247.624c-.927-1.4-.308-3.576-.15-6.22.15-2.642.308-2.023-1.4-2.642-1.71-.624-1.4-.933-.777-2.49.62-1.553 1.243-2.334.467-3.11-.78-.776-.624-1.243.62-1.4 1.24-.152.78-1.086 1.865-1.4 1.09-.31 1.557.157 1.71-1.862.13-1.687.694-2.723 1.96-2.212.762 2.598 1.754 6.64 2.43 7.848z"/></g><g fill="#00b800"><path d="M429.802 322.447c0 3.266 0 4.51 1.4 5.752s1.242 2.485 1.866 5.442c.62 2.952.62 9.328 2.485 13.68.556 1.298 1.324 2.944 2.11 4.658 1.03-.812 1.928-2.207 2.246-2.948.46-1.09-.934-3.266-2.024-5.128-1.086-1.867.157-2.49 1.242-4.824 1.09-2.33-.152-2.486-1.86-3.11-1.715-.62-1.715-2.176-2.648-4.66s-.776-3.577-.152-4.977c.62-1.4.152-2.486-1.09-2.8-1.243-.31-.934-1.243-.467-2.796.467-1.557.777-1.866-1.085-1.4-1.413.35-1.754.615-2.175 1.127.103.448.152 1.072.152 1.983z"/></g><g><path d="M447.7 328.953c-.17 1.867-.156 2.8-.622 3.42-.462.623-.153 1.556.314 2.49s.776 2.176.31 3.885.31 3.11 1.242 3.576 1.4 0 1.09 2.176c-.314 2.177.933 4.51 2.02 5.443 1.09.933 1.865 2.486 1.708 3.42-.153.933.78 1.866 1.866 2.333 1.09.466.933.623.933 1.242 0 .624.468.624 1.71.934s2.176 1.09 3.576 2.8 3.418 2.642 3.108.776 0-3.11-1.866-4.043c-1.86-.933-3.26-5.443-4.042-8.552-.776-3.11-3.26-7.305-4.66-8.08-.158-2.182.156-3.268-1.243-4.358-1.4-1.086-1.866-2.486-1.866-3.576 0-1.087-.777-2.487-1.4-2.797-.62-.314-.933-1.09-.933-2.023s-1.086-.777-1.243.933z" fill="#5d3100"/></g><g fill="#00d860"><path d="M439.447 412.366c2.795-.233 10.376-2.45 11.188-3.15 1.866 1.284 5.132 3.034 6.532 3.034-2.683.583-4.432.233-5.132-.234.35.817 1.283 2.1 1.866 2.217-2.565-.117-5.477-.7-6.41-1.633-2.216.933-5.948 1.166-8.043-.234z"/></g><g fill="#00d860"><path d="M444.47 415.866c.993.292 5.945 1.108 6.587 1.108-1.633 1.396-.234 2.738 2.507 2.504-1.34.175-2.803.682-1.807.875 2.39.467 8.86-1.283 10.142-1.983-2.217 2.858-12.997 5.483-17.43-2.504z"/></g><g fill="#00d860"><path d="M448.912 422.956c1.337-.7 4.66-.467 6.236.29-1.75.643-5.186.643-6.236-.29z"/></g><g><path d="M453.892 422.866c2.39-.408 9.15 1.225 11.542-.233-.816 2.158-5.073 2.45-6.53 1.983-1.455-.467-2.854-1.05-3.846-.992.525-.29-.35-.35-1.166-.758z"/></g><g fill="#00d860"><path d="M456.36 426.186c1.807.287 8.276-.525 10.26-1.283 2.094.7 6.234 1.804 7.167 1.687-1.983 1.225-5.773.525-6.993 0-3.5 1.167-6.357 1.517-10.435-.404z"/></g><g fill="#00d860"><path d="M459.455 427.263c2.588.583 4.795.166 7.343-.686.794.34 2.665.758 4.423.673 1.172.668 2.747 1.602 4.263 1.718-1.575.642-7.348 0-8.51-.64-2.916.057-7.93.7-9.15 1.69-.06-.816.47-1.952 1.632-2.755z"/></g><g><path d="M456.36 414.116c2.018.673 9.326.35 13.053-1.4 1.472-.69 2.383.467.7 1.05-6.06 2.1-10.842 2.917-14.337 1.05-1.382-.736-1.516-1.4.583-.7z"/></g><g fill="#00d860"><path d="M492.157 404.2c-8.976 4.195-14.924 5.48-27.396 1.633-1.16-.36-1.98 0-.698.817 1.283.812 8.16 2.68 9.793 2.795s1.05.875.058 1.167-1.283.992.058.467 8.834-.724 11.894.874c1.336.7 1.686.583 1.57.058s.583-.875 1.574-.992 1.575-.466.817-.758-.875-.467-.292-.758.642-.584-.233-.76-1.458-.407-.642-.815c.817-.405 2.042-.7 2.975-.813.233-.642-.175-2.334.524-2.917z"/></g><g><path d="M477.22 405.277c5.13.363 14.574-1.983 19.59-6.88 1.745 1.047 4.194 2.213 5.477 2.447s2.45 1.4.466 1.4-4.782-.817-6.06-1.4c-6.648 4.083-14.427 5.424-19.357 5.016-1.395-.116-1.745-.7-.117-.583z"/></g><g fill="#00d860"><path d="M462.056 377.278c1.75 1.225 4.84 3.262 8.86 2.97 1.983 1.575 5.074 2.917 6.474 3.21-2.683 1.107-5.6 2.04-6.357 2.915-1.225-1.166-2.795-.99-3.203-1.575-1.166.933-.992 1.517-.233 1.983s6.643 1.46 8.1 1.05 1.85.8.643 1.222c-3.15 1.108-9.268.058-11.368-3.32-2.1-3.384-3.907-4.667-9.618-1.575-.64-1.634-.64-2.042-1.75-2.042s-3.148-1.458-1.574-1.4 6.24-.642 10.026-3.437z"/></g><g fill="#00d860"><path d="M463.447 384.77c-.973.244-3.732 1.75-4.72 1.868-.99.117-2.74 1.516-.932 1.575 1.803.058 4.136-1.925 5.42-2.1s1.398-1.633.232-1.342z"/></g><g fill="#00d860"><path d="M469.1 390.694c-.69.12-3.67.817-4.487.758s-1.632.175-1.574.76.29.932-.934.815-2.275.35-2.566.7-.525.7.7.817 1.866.233 3.265-.408 2.74-1.634 4.258-1.692c1.51-.058 3.028-2.042 1.336-1.75z"/></g><g><path d="M464.927 394.284c1.274.825 7.577 2.975 9.852 2.8s1.847.91.115 1.283c-3.557.754-7.9-.794-10.842-3.15-1.458-1.167-.117-1.575.874-.933z"/></g><g fill="#00d860"><path d="M494.76 397.38c-4.823 1.54-9.735.99-11.718.466s-3.79-.64-2.45.642c1.342 1.28 5.657 2.154 8.102 1.512-8.685 1.983-10.96 1.808-13.112 1.458-2.158-.35-6.21-.273-7.927-.116-1.283.116-3.033-.06-3.79-.525s-.992-1.342 1.282-1.11c2.27.235 2.566-.232.583-.523s-4.723.524-2.04 2.216 8.568-.117 12.3.933c3.728 1.05 11.655 1.81 19.178-4.258.385-.31 1.05-1.162-.41-.695z"/></g><g fill="#00d860"><path d="M471.073 390.29c.175.584.175 1.225 0 1.634s-.175.933.583.35 1.225-1.284 1.983-.875 2.682.35 3.552.232c.88-.117 1.167-.292-.112-.817-1.283-.525-2.566-.7-3.266-.64s-1.574-.118-2.158-.35-.758-.118-.583.465z"/></g><g fill="#00d860"><path d="M483.5 392.534c-.992.058-2.74-.584-3.675-.992s-2.27-.466-1.278.875c.987 1.342 5.302 2.1 6.82 1.458s.873-1.34 2.385-.408c1.516.933 3.09 1.575 4.2 1.575s1.515 0 .29-.7-1.807-.875-1.924-1.458-.29-.934.817-.584 2.39.992 3.265.525 2.504-1.516 3.962-1.516l.35-.876c-2.1-.175-3.437.467-4.02.7s-1.633.35-2.74.175-2.567-.293-2.917-.584-.35-.525.583-.7 1.225-.817-.058-.584-4.72.117-6.527-.466c-1.808-.58-2.566-.638-3.324-.35-.76.29-.643 1.108.465 1.166s3.616.292 4.49 1.11.76.873-.232.465-2.8-.175-.934 1.167z"/></g><g fill="#00d860"><path d="M498.707 390.425l-.35.875c2.158-.058 7.407.467 9.093 1.516 1.633-1.283 1.342-1.69 2.508-1.458s2.624.642 3.266.292 1.108-.292 1.808-.175c.695.117 2.21-.175 3.086-.7s2.683-1.225 3.732-1.225 2.33-.233.41-.525c-1.926-.292-4.842.292-5.833.642-.987.35-3.96.583-5.71.583s-4.137.875-6.12.35-4.724-.175-5.89-.175z"/></g><g><path d="M525.713 389.393c-3.495 2.566-7.694 3.15-12.705 3.5-1.458.103-1.01.516.234.64 5.244.526 11.31-1.4 13.287-3.498.573-.606.51-1.61-.817-.642z"/></g><g fill="#00d860"><path d="M501.892 395.36c1.516.06 6.76 1.4 8.452 1.984 1.283-.117 1.633-.408 1.4-.875s-.41-.993 1.924-.876c2.328.117 7.693.058 8.685.058.816-.35 2.62-1.75 3.436-1.808-2.096.117-10.84.583-11.947.467s-1.69 0-2.39.41-1.11.582-1.984.232-2.45-.816-3.32-.29c-.875.524-2.683.057-4.258.7z"/></g><g fill="#00d860"><path d="M522.348 395.63c.817-.35 2.62-1.75 3.437-1.808 1.516-.117 3.265.525 4.082.64s1.69-.057 1.108-.7-.058-1.75 2.333-1.457c2.386.292 3.61.7 5.944.467s3.382 1.516 7.81-.234c-.35 1.75.466 1.867 1.283 1.517s1.75-.233 3.15.817 9.908 1.166 11.89.816c1.98-.35 3.03.7 1.513 1.167-1.512.466-1.866 1.166-1.512 1.633.346.462.696 1.045-1.166.812-1.866-.233-2.216.35-3.15 1.05s-1.166.933-3.732.467c-2.56-.467-3.028-.117-4.427.116s-1.75.234-3.15-.233-4.426-.933-6.292-.35-3.266 1.167-4.9.7-1.75-.233-.7-1.283 1.284-.933 3.267-1.167c1.983-.23 3.5-.812 2.1-1.63s-1.867-.7-3.733.235-2.8 1.512-4.894.35c-2.1-1.167-3.15-.934-4.55-.584s-3.727-.465-5.71-1.34z"/></g><g fill="#00d860"><path d="M529.346 399.13c-2.67.38-3.387-1.337-6.177-.987-.934.116-2.508 1.278-.35 1.103 2.153-.175 4.485.992 6.585.817s1.166-1.108-.06-.933z"/></g><g fill="#00d860"><path d="M526.25 401.15c1.405-.513 4.317.465 5.54.232s2.392.525 1.11.933-4.375-.758-5.774-.35-2.795-.116-.875-.816z"/></g><g fill="#00d860"><path d="M498.393 408.687c1.925.063 8.86-.233 11.6-6.062.212-.45.41-.642 1.284-.058s4.082 2.508 10.084 3.033c1.684.148 3.5.992.118.758s-8.743-1.166-10.55-2.275c-3.034 4.78-8.48 5.344-12.535 5.246-2.445-.06-1.862-.7 0-.643z"/></g><g fill="#00d860"><path d="M513.376 400.745c-.933 1.283-4.14 3.5-5.598 3.617-1.454.116-5.828-.292-6.936-.7s-2.45-.292-.874.816 5.48 1.867 7.052 1.517c1.574-.35 3.382-.875 4.607-.117s3.5 2.212 4.836 1.92c1.34-.287 4.082-.287 4.957.117.874.41 2.39 1.633.116.934s-4.14-.118-5.19-.585c1.166 1.633 3.813 4.258 6.065 4.258.526 0 .876.934-.232 1.46 1.108.524 3.67.932 5.01-.293-.35.467-.174.758.41 1.05s1.282.7.232.817-3.436.408-4.136.116c2.27 1.454 8.16 3.787 14.162 2.62 1.144-.22 1.75-.695-.116-.64-3.85.116-4.078.057-4.778-.346-.7-.413-.583-.76.525-1.11 1.104-.35 3.903-.757 5.07-.757s2.332-.467-.06-.467-5.302 0-6.468-.408-2.042-.933-.817-1.75 2.507-.583 3.09-1.342c-3.85-.058-8.572-2.1-5.948-3.962.61-.434.408-.465-.583-.582s-3.903-.933-5.128-1.633-.408-1.283.584-1.458c-2.275.408-6.824-.817-9.852-3.092z"/></g><g fill="#00d860"><path d="M547.56 400.655c-2.1 1.575-6.06 2.217-7.752 2.217s-1.925.583-.583.758 2.8.35 3.382.175.933-.233 1.803.175c.875.408 2.74.642 4.374.117s4.31-.76 5.42-.7 2.332.116.116-.525c-2.212-.642-5.827-.175-6.702.058s-3.266.058-1.983-.35 2.39-1.05 3.033-1.575c-.467-.116-.76-.233-1.108-.35z"/></g><g fill="#00d860"><path d="M546.483 405.187c-1.808 1.342-4.428 2.62-7.11 2.737 2.45.875 4.49 3.383 6.06 3.267-.758.467-1.687 1.167-2.678 1.284 1.516.408 4.078-.058 6.177-1.225 3.5.99 8.044.35 9.56-.934-2.274 0-5.01-.817-6.236-1.867 1.108 0 2.154-.7 2.68-1.338-2.62.462-7.112-.817-8.453-1.925z"/></g><g fill="#00d860"><path d="M542.76 412.5c.99-.116 1.92-.816 2.678-1.282-1.92.64-10.318-.7-12.82-2.917-2.51-2.21-2.51-.524-.76 1.05s4.836 3.968 10.902 3.15z"/></g><g fill="#00d860"><path d="M548.905 417.84c-1.05.584-6.06.934-7.693.584s-2.333-.175-1.925.466.584 1.225-.758 1.05-3.733.117-4.72.467c-.99.35-2.216 1.225-.117.875 2.095-.35 4.02-.758 5.594-.35s7.17.525 8.277.058.35-.466-.175-.466-.76-.35 0-.7 1.34-1.342 1.515-1.984z"/></g><g fill="#00d860"><path d="M500.412 411.065c-2.1.933-9.093 2.8-10.96 2.917-2.332 1.05-4.194 1.633-5.36 1.633.816.7 3.96 1.395 5.244 1.05-.7.695-2.328 1.512-2.912 1.862 1.862-.233 4.078.233 5.01.35-2.448 1.4-5.826 1.867-7.576 1.633.584.817 1.4 1.633 2.45 1.633-2.216.584-4.9.584-6.3.117.585 1.167 1.168 1.867 1.984 1.983-1.866.234-4.2.584-6.177-.583 1.512 1.983 4.894 2.68 9.91 2.1 5.01-.583 9.21-2.8 10.376-3.733-2.1.233-4.898.35-6.298.116 2.8-.7 8.86-3.266 9.91-4.316-1.166 0-2.328-.35-3.15-.933 1.634.233 7.35-.462 9.098-1.162-2.1-.467-3.382-1.75-3.965-2.567 7.343 2.333 15.517 1.57 19.47.583.932-.233 1.044-1.418-.817-1.283-3.266.233-9.56-.7-11.193-1.517 1.516 1.167 3.382 1.867 4.665 2.1-3.032.817-7.227 1.4-13.408-1.983z"/></g><g fill="#00d860"><path d="M486.415 418.558c.584-.35 2.212-1.166 2.912-1.862-1.283.346-4.428-.35-5.244-1.05 1.166 0 3.028-.583 5.36-1.633-4.194-.117-7.11-.117-8.626-.933s-4.31-.584-5.36-.35-.7 1.983 3.727 1.516c-1.866 1.284-6.877 1.75-8.743 1.284.467 1.512.817 3.028.35 3.845 2.45 1.4 8.86 3.15 12.01 2.917-2.8-1.05-4.316-2.217-1.983-2.45s3.616-.7 5.598-1.284z"/></g><g><path d="M479.193 426.14c5.58-.465 13.054-.564 19.003-5.598 1.516-1.284 2.534-.853 1.05.466-3.145 2.8-10.96 6.646-18.42 6.762-3.037.05-4.428-1.4-1.633-1.63z"/></g><g fill="#00d860"><path d="M521.002 416.898c-1.4.525-5.306 1.167-6.468.992-1.167-.175-2.858-.234-3.79.35s-.992.933.29 1.05 2.916.233 3.733.175c-1.05.583-1.75 1.4-1.983 1.75 1.866-.467 5.303.35 6.294.933-.758.233-1.633-.058-2.274-.408 3.15 3.325 12.475 3.325 13.99 2.74-.698.526-1.34 1.05-2.04 1.226 2.625.467 5.653.408 8.627-1.34-.99.174-3.96-.118-4.718-.176.583-.584 1.453-1.11 2.27-1.342-1.162-.233-4.836-.117-5.71.35.35-.7.99-1.575 1.69-1.867-4.607 0-10.2-.057-12.242-1.165 3.266.35 6.88-1.575 8.393-1.575-2.56-.06-5.36-.642-6.06-1.692z"/></g><g fill="#00d860"><path d="M509.294 419.456c-2.274.466-5.71 1.4-6.644 1.925s-1.924.817.117.817 7.577.234 8.8.41c-3.09-.468-7.284-.585-8.1-.585s-1.75-.058-.234-.525 3.5-1.516 6.06-2.04z"/></g><g fill="#00d860"><path d="M504.673 424.885c.812 0 4.37 0 5.77-1.225 1.457 1.108 4.257 2.68 6.06 2.68 1.808 0 1.633.465.058.64-1.57.175-4.66-.753-6.234-1.92-2.1.758-3.845.117-5.653-.175z"/></g><g fill="#00d860"><path d="M477.668 440.59c3.61 1.4 8.393 2.45 11.888 1.283 1.982 1.75 6.065 1.866 8.276 1.4 2.216-.467 4.2-.7 6.65.116 2.443.816 7.46.874 8.858 2.037-1.283.062-4.024 0-4.665.18-.642.17-.292.578.875 1.22-3.96-.234-10.785 1.458-12.88 3.266.754-1.808 3.087-4.258 6.76-4.258-2.1-.754-8.8-.812-10.96.525-.64-.7-1.398-1.862-1.456-2.33-3.553 2.038-10.552-.874-13.346-3.44z"/></g><g fill="#00d860"><path d="M468.427 434.04c4.302-.616 7.23-1.985 8.514-3.268.76.7 3.904 1.4 7.345.35-.7.525-.76 1.517-.467 2.042-2.274.058-6.59 1.166-8.043 1.924-1.458.754-5.716 1.28-7.11.52-1.4-.753-1.46-1.394-.238-1.57z"/></g><g fill="#00d860"><path d="M483.814 433.186c-2.275.058-6.59 1.167-8.044 1.925.292.584.467 1.513.525 2.155 4.194-1.517 13.812-2.446 17.486-1.862-1.748.116-5.072 1.92-6.934 2.153 4.544-.35 8.977.584 10.138.875 1.167.293 1.4 1.168.525 1.985s-1.28.933.582.99c1.867.06 5.716-.174 7.465-1.865-.7-.76-2.508-.467-3.032-.992 1.224-.408 2.624-1.283 3.15-1.925-3.15-.058-4.317-.117-5.366-.35-1.05-.23-1.81-.525-.526-1.22 1.283-.7 1.866-1.284 2.274-1.75-2.274.64-5.827 1.166-8.8-1.167 1.107.292 3.726.117 4.66-.292-.992-.525-1.804-.933-2.62-.933 2.386-1.166 7.11-2.215 12.937.118 2.916-.234 6.065-.117 8.277.466.933-.933 2.916-3.15 3.966-3.733-6.877.585-19.236-.7-19.003-4.31-2.216 2.91-7.344 4.545-9.56 4.078-.233 1.05.7 2.333 1.517 3.033-2.333.468-6.3.818-8.16.468 1.05 1.05 3.028 1.983 4.194 1.866-2.445 0-3.728.467-5.652.292z"/></g><g fill="#00d860"><path d="M498.08 441.397c1.865.06 5.714-.175 7.464-1.866-.7-.758-2.508-.466-3.033-.99 1.226-.41 2.625-1.284 3.15-1.926 4.895-.404 9.268-.17 11.363-.812 2.1-.642 7.465-.292 8.515-.583-4.666.752-5.6 1.16-5.832 1.92s1.516 1.4 2.624 1.4c-2.1-.118-4.723 2.1-4.957 2.974-2.794-1.633-4.136.292-4.427.933-1.167-.466-5.016-.35-7 1.342-2.56-.76-4.25-1.168-6.817-.76 1.573-.35 1.282-1.4-1.05-1.633z"/></g><g fill="#00d860"><path d="M520.464 427.757c1.575-.06 5.01.116 6.236-.06-.817.41-1.862 1.168-2.095 1.518 3.96-.467 9.38-.758 10.955-.525-1.92-.292-3.903.933-4.895 1.575s-.408 1.05.933 1.225 3.15 1.225.7.875-7.285-.35-8.45-.175-1.81-.408-.118-.642 2.853-.816 3.67-1.283c-1.4.35-4.078.35-4.895.117s-1.34-.7-.408-.934.292-.583-.7-.466-3.5 1.166-4.898 2.508c1.515-1.575 2.856-2.975 3.964-3.733z"/></g><g><path d="M502.7 430.404c1.924 2.158 4.194 3.383 7.81 3.5.758.022 2.17 1.04.35 1.108-4.9.175-7.344-.99-9.502-4.14-.444-.647.377-1.55 1.342-.468z"/></g><g><path d="M531.903 389.617c2.575 1.216 7.752 2.275 11.776 2.1.7-.03 2.108.718.345.875-4.545.408-8.627-.23-12.413-2.333-1.05-.584-.7-1.11.29-.643z"/></g><g fill="#00d860"><path d="M534.505 389.572c3.96-.116 6.936-.058 8.16 1.11 2.27-.7 6.353-1.11 7.286-.935s1.983-.233-.174-.758c-2.158-.52-7.17-.696-8.744-.405-1.574.287-6.473.462-8.1.287.7.117 1.16.234 1.573.7z"/></g><g fill="#00d860"><path d="M549.892 391.143c1.866-.992 7.227-.06 8.86-.758-1.166 1.4 3.733 1.516 7.985.408-1.633 1.05-5.127 1.225-6.644 1.866s-2.332.174-3.5-.35-4.135-1.576-6.7-1.167z"/></g><g fill="#00d860"><path d="M566.76 390.784c-4.253 1.108-9.152.99-7.985-.408-1.633.7-6.994-.234-8.86.758 1.924-1.167 3.382-.233 4.777-2.625.875.178 2.916.295 3.616-.638 1.225.29 3.382.816 4.024 1.454.64.64 1.628-.175.812-1.163 1.924-.7.704.83 5.19-.29.933-.235 3.208-.643 3.966-.7-1.516 1.224-3.324 2.56-5.54 3.61z"/></g><g stroke-width=".138" stroke="#000" fill="#ff0"><path d="M483.993 371.22c-.076-8.82-.93-82.66-.93-99.728 0-4.083-2.098-3.266-2.098 0v99.262c.964.175 2.265.35 3.028.467z"/></g><g stroke-width=".138" stroke="#000" fill="#ff0"><path d="M516.427 266.135l3.642 105.27-.638.843-2.113.03-2.302-106.143h1.41z"/></g><g stroke-width=".138" stroke="#000" fill="#ff0"><path d="M547.11 355.022c-.295-10.72-1.64-60.34-2.16-84.804-.07-3.262-2.01-2.692-1.98.117.21 19.702 1.382 74.807 1.597 84.746.763 0 2.077-.075 2.544-.058z"/></g><g stroke-width=".138" stroke="#000" fill="#ff0"><path d="M498.528 283.634l-31.012-.466c-1.745 6.295 6.065 6.178 8.98 4.545 3.38 2.567 5.945 2.333 7.81.233 2.684 2.217 6.062 1.634 7.46.234 3.734 2.8 7.578 0 6.762-4.546z" fill="#fff"/></g><g stroke-width=".138" stroke="#000" fill="#ff0"><path d="M500.86 299.25l-31.71-.118c-5.48 5.246 1.632 7.812 7.697 4.196.816 1.75 4.544 2.8 7.46 1.4 2.683 2.1 6.06.583 7.81-1.167 3.266 1.518 7.11 1.984 8.743-4.31z" fill="#fff"/></g><g stroke-width=".138" stroke="#000" fill="#ff0"><path d="M499.963 319.082l-30.545-.234c-.583 5.48 5.598 4.78 8.043 3.383 2.334 3.613 7.466 2.797 9.45.697 2.91 1.983 5.593 1.517 7.11-.35 3.382 2.917 6.176-.812 5.943-3.495z" fill="#fff"/></g><g stroke-width=".138" stroke="#000" fill="#ff0"><path d="M501.488 338.914l-34.156-.583c-1.866 5.83 3.378 6.88 5.827 5.48.816 3.383 5.36 2.216 6.526-.234 1.75 1.75 3.966.817 5.016-.35.466 3.15 4.427 3.267 7.46.583 6.177 4.316 12.01-.7 9.326-4.896z" fill="#fff"/></g><g stroke-width=".138" stroke="#000" fill="#ff0"><path d="M531.77 330.748l-28.447-.234c1.283 5.83 4.078 7.346 8.627 3.962 3.382 3.5 8.976 2.217 10.376.467 6.177 5.017 9.56-.816 9.443-4.195z" fill="#fff"/></g><g stroke-width=".138" stroke="#000" fill="#ff0"><path d="M528.853 311.274l-27.513-.816c.467 6.995 7.11 6.76 10.493 3.728 2.566 3.267 7.11 2.334 8.743 0 3.5 3.5 9.21 1.4 8.277-2.912z" fill="#fff"/></g><g stroke-width=".138" stroke="#000" fill="#ff0"><path d="M532.487 289.333h-29.612c.35 4.895 6.877 7.695 11.892 3.033 1.395 5.595 6.76 3.845 9.093 1.63 3.378 4.315 11.188-.58 8.627-4.663z" fill="#fff"/></g><g stroke-width=".138" stroke="#000" fill="#ff0"><path d="M530.737 274.436l-26.463.35c-.466 4.312 5.827 6.18 8.16 2.68 1.283 2.215 5.71 1.982 6.994-.118 2.1 3.267 4.665 1.05 5.477 0 3.033 2.217 6.3 1.167 5.832-2.912z" fill="#fff"/></g><g stroke-width=".138" stroke="#000" fill="#ff0"><path d="M561.735 284.083l-32.41-.35c-.118 3.38 3.38 4.78 5.476 3.38 0 3.265 4.55 4.315 7.466 1.75 1.983 2.8 7.81 3.615 10.143-.235 4.777 3.967 9.91 1.167 9.325-4.545z" fill="#fff"/></g><g stroke-width=".138" stroke="#000" fill="#ff0"><path d="M561.287 310.69l-31.712-.116c.233 4.43 5.36 5.946 8.277 3.612.7 3.733 4.665 3.967 6.994 2.1 2.8 3.15 7.464 3.383 10.026-.116 3.85 1.4 6.765-1.867 6.415-5.48z" fill="#fff"/></g><g stroke-width=".138" stroke="#000" fill="#ff0"><path d="M559.627 334.607l-25.068-.35c0 4.433 5.248 5.016 7.58 2.683 2.445 2.916 6.178 2.916 8.277.583 3.378 2.917 8.51 2.1 9.21-2.916z" fill="#fff"/></g><g stroke-width=".138" stroke="#000"><path d="M519.432 372.253c-13.52.233-27.28.233-36.605-1.167s-12.265-2.71-18.653-6.53c-9.56-5.71-11.893-7.11-25.413-15.04-2.072-1.215-4.32.293-1.4 2.213 13.638 8.977 18.806 12.307 25.298 16.56 6.76 4.43 11.12 8.364 15.27 13.058 5.365 6.066 9.326 6.183 11.776 5.25s6.298-2.217 10.142-1.284c3.85.933 8.977 1.05 11.66.584 2.45 2.216 8.043 1.75 11.192 1.05 3.145-.7 5.478-1.05 7.694-.584s5.594.117 7.81-.233 8.043-.932 12.125-.35c4.078.584 8.277.234 10.96-.582 2.678-.817 7.577-.584 9.21-.117 2.328-1.75 3.494-3.966 4.077-6.294 2.74-.35 3.652-.69 4.257-2.275 1.11-2.916 2.155-5.774 2.51-7.053h1.103l.35-2.625-2.27-2.625.816-5.012 2.444-.583c.117-1.517-.583-3.85-1.05-4.783-14.687.582-29.087 1.05-39.4 1.282-1.167.933-2.45 3.383-2.683 4.9-6.293 1.045-10.025 1.512-11.658 1.862s-2.544.48-3.844 2.217c-2.1 2.8-4.083 6.063-5.716 8.163z"/></g><g stroke-width=".138" stroke="#000"><path d="M566.625 354.44c.713-2.473 2.62-9.132 6.074-21.718.578-2.1-1.46-2.93-2.212-.233-4.11 14.694-5.662 20.204-6.182 22.04.79-.015 1.92-.1 2.32-.09z"/></g><g stroke-width=".138" stroke="#000" fill="#fff"><path d="M589.37 329.806c-4.958 2.562-7.35 3.553-9.62 2.678-2.09-.803-5.162-1.256-6.96-.372-.006.188-.033.39-.095.606-2.127 7.75-3.665 13.245-4.702 16.907 3.67 1.296 9.99 1.47 11.467-.113 1.51-1.633 5.652-1.283 7.75-1.166 1.343-1.75 1.868-3.908 1.518-4.958s-.234-2.912.29-4.37 1.226-6.184.35-9.212z"/></g><g stroke-width=".138" stroke="#000" fill="none"><path d="M476.5 287.717c-5.48 15.858-24.483 51.426-35.95 62.88"/></g><g stroke-width=".138" stroke="#000" fill="none"><path d="M449.36 355.785c13.015-10.07 45.92-42.752 51.514-56.51"/></g><g stroke-width=".138" stroke="#000" fill="none"><path d="M469.413 318.857c-1.51 12.012-4.98 33.437-6.845 44.75"/></g><g stroke-width=".138" stroke="#000" fill="none"><path d="M474.483 345.6c-4.428 4.316-10.708 11.85-15.374 15.933"/></g><g stroke-width=".138" stroke="#000" fill="none"><path d="M516.202 321.64c-3.727 3.61-7.985 7.825-11.713 8.874"/></g><g stroke-width=".138" stroke="#000" fill="none"><path d="M518.356 322.222c3.28 3.496 7.94 7.444 11.79 8.494"/></g><g stroke-width=".138" stroke="#000" fill="none"><path d="M515.8 302.884c-3.38 2.912-8.395 6.34-12.94 7.623"/></g><g stroke-width=".138" stroke="#000" fill="none"><path d="M517.728 303.557c2.916 2.45 6.02 6.02 9.748 7.654"/></g><g stroke-width=".138" stroke="#000" fill="none"><path d="M503.552 289.333c3.61-1.05 8.99-3.85 11.79-6.762"/></g><g stroke-width=".138" stroke="#000" fill="none"><path d="M516.965 282.02c3.163 3.61 9.223 6.528 12.256 7.344"/></g><g stroke-width=".138" stroke="#000" fill="none"><path d="M504.27 274.795c3.728-.817 8.348-2.8 10.797-6.3"/></g><g stroke-width=".138" stroke="#000" fill="none"><path d="M516.472 267.526c3.144 2.683 8.67 6.56 12.282 6.91"/></g><g stroke-width=".138" stroke="#000" fill="none"><path d="M543.074 277.98c-2.024 2.1-6.98 5.874-10.125 5.816"/></g><g stroke-width=".138" stroke="#000" fill="none"><path d="M545.137 277.8c1.458 2.334 5.132 5.906 7.232 6.198"/></g><g stroke-width=".138" stroke="#000" fill="none"><path d="M530.827 310.556c4.078-1.4 9.793-4.738 12.65-8.18"/></g><g stroke-width=".138" stroke="#000" fill="none"><path d="M545.72 302.66c1.194 2.153 5.742 7.02 8.308 8.013"/></g><g stroke-width=".138" stroke="#000" fill="none"><path d="M535.672 334.248c1.866-.404 6.94-2.926 8.335-5.9"/></g><g stroke-width=".138" stroke="#000" fill="none"><path d="M546.348 326.71c1.925 2.39 6.644 6.76 9.56 7.81"/></g><g stroke-width=".138" stroke="#000" fill="none"><path d="M471.522 338.376c5.71-1.81 17.253-8.817 22.968-15.467"/></g><g stroke-width=".138" stroke="#000" fill="none"><path d="M483.544 331.33c4.778 3.38 10.332 6.763 14.584 7.52"/></g><g stroke-width=".138" stroke="#000" fill="none"><path d="M470.445 318.857c3.15-1.34 7.286-3.63 10.493-6.95"/></g><g stroke-width=".138" stroke="#000" fill="none"><path d="M483.365 311.454c1.283 1.803 10.712 7.565 14.732 7.623"/></g><g stroke-width=".138" stroke="#000" fill="none"><path d="M480.942 292.833c-2.45 1.978-8.335 5.537-11.192 6.295"/></g><g stroke-width=".138" stroke="#000" fill="none"><path d="M483.185 292.967c3.266 2.27 9.722 6.282 14.15 6.282"/></g><g stroke-width=".138" stroke="#000" fill="none"><path d="M480.942 274.615c-2.624 2.97-7.052 7.56-10.726 8.61"/></g><g stroke-width=".138" stroke="#000" fill="none"><path d="M483.05 275.288c2.042 3.267 7.506 7.682 11.063 8.266"/></g><g stroke-width=".138" stroke="#000" fill="none"><path d="M530.244 294.897c8.173 15.07 23.33 33.495 38.66 43.174"/></g><g stroke-width=".138" stroke="#000" fill="none"><path d="M505.705 278.205c12.413 17.84 36.78 56.962 59.965 71.406"/></g><g stroke-width=".138" stroke="#000" fill="none"><path d="M569.945 334.337c-3.733 5.192-10.435 13.295-21.51 20.672"/></g><g stroke-width=".138" stroke="#000" fill="none"><path d="M568.554 339.273c-7.81-12.474-11.847-28.246-17.688-49.016"/></g><g stroke-width=".138" stroke="#000" fill="none"><path d="M487.537 345.734l9.618 26.47"/></g><g stroke-width=".138" stroke="#000" fill="none"><path d="M485.742 345.106l8.506 26.998"/></g><g stroke-width=".138" stroke="#000" fill="none"><path d="M483.903 343.85l7.896 28.097"/></g><g stroke-width=".138" stroke="#000" fill="none"><path d="M483.096 344.3l6.096 27.495"/></g><g stroke-width=".138" stroke="#000" fill="none"><path d="M488.972 370.817h7.622"/></g><g stroke-width=".138" stroke="#000" fill="none"><path d="M495.612 367.945h-7.187"/></g><g stroke-width=".138" stroke="#000" fill="none"><path d="M494.804 365.702h-6.935"/></g><g stroke-width=".138" stroke="#000" fill="none"><path d="M493.997 363.458h-6.617"/></g><g stroke-width=".138" stroke="#000" fill="none"><path d="M493.1 361.035h-6.3"/></g><g stroke-width=".138" stroke="#000" fill="none"><path d="M486.37 358.88h5.976"/></g><g stroke-width=".138" stroke="#000" fill="none"><path d="M485.922 356.907h5.67"/></g><g stroke-width=".138" stroke="#000" fill="none"><path d="M485.428 354.753h5.393"/></g><g stroke-width=".138" stroke="#000" fill="none"><path d="M485.025 352.824h5.087"/></g><g stroke-width=".138" stroke="#000" fill="none"><path d="M484.576 350.85h4.836"/></g><g stroke-width=".138" stroke="#000" fill="none"><path d="M484.172 349.01h4.576"/></g><g stroke-width=".138" stroke="#000" fill="none"><path d="M483.724 347.305h4.445"/></g><g stroke-width=".138" stroke="#000" fill="none"><path d="M483.455 345.87h4.14"/></g><g stroke-width=".138" stroke="#000" fill="none"><path d="M475.963 345.914l-5.42 22.13"/></g><g stroke-width=".138" stroke="#000" fill="none"><path d="M477.533 345.51l-4.652 23.377"/></g><g stroke-width=".138" stroke="#000" fill="none"><path d="M478.79 344.657l-3.765 24.9"/></g><g stroke-width=".138" stroke="#000" fill="none"><path d="M480.404 344.164l-2.732 26.038"/></g><g stroke-width=".138" stroke="#000" fill="none"><path d="M480.942 368.708h-8.626"/></g><g stroke-width=".138" stroke="#000" fill="none"><path d="M480.942 366.33h-9.98"/></g><g stroke-width=".138" stroke="#000" fill="none"><path d="M480.942 363.862h-9.398"/></g><g stroke-width=".138" stroke="#000" fill="none"><path d="M480.942 361.53h-8.815"/></g><g stroke-width=".138" stroke="#000" fill="none"><path d="M480.942 359.15h-8.245"/></g><g stroke-width=".138" stroke="#000" fill="none"><path d="M480.942 356.503h-7.59"/></g><g stroke-width=".138" stroke="#000" fill="none"><path d="M480.942 354.215h-7.038"/></g><g stroke-width=".138" stroke="#000" fill="none"><path d="M480.942 351.882h-6.44"/></g><g stroke-width=".138" stroke="#000" fill="none"><path d="M480.942 349.638h-5.903"/></g><g stroke-width=".138" stroke="#000" fill="none"><path d="M480.942 347.664h-5.437"/></g><g stroke-width=".138" stroke="#000" fill="none"><path d="M480.942 346.093h-5.028"/></g><g stroke-width=".138" stroke="#000" fill="none"><path d="M480.942 370.772v-26.384"/></g><g stroke-width=".138" stroke="#000" fill="none"><path d="M509.967 335.683l-18.074 36.255"/></g><g stroke-width=".138" stroke="#000" fill="none"><path d="M511.088 335.1L495.7 372.136"/></g><g stroke-width=".138" stroke="#000" fill="none"><path d="M512.21 334.696l-12.207 37.615"/></g><g stroke-width=".138" stroke="#000" fill="none"><path d="M512.973 335.37l-9.493 36.963"/></g><g stroke-width=".138" stroke="#000" fill="none"><path d="M503.91 370.637h-11.367"/></g><g stroke-width=".138" stroke="#000" fill="none"><path d="M504.808 367.317h-10.582"/></g><g stroke-width=".138" stroke="#000" fill="none"><path d="M505.3 364.625h-9.733"/></g><g stroke-width=".138" stroke="#000" fill="none"><path d="M506.244 361.708h-9.21"/></g><g stroke-width=".138" stroke="#000" fill="none"><path d="M506.692 359.375h-8.51"/></g><g stroke-width=".138" stroke="#000" fill="none"><path d="M507.5 356.683h-8.017"/></g><g stroke-width=".138" stroke="#000" fill="none"><path d="M508.307 353.542h-7.258"/></g><g stroke-width=".138" stroke="#000" fill="none"><path d="M508.935 351.164h-6.675"/></g><g stroke-width=".138" stroke="#000" fill="none"><path d="M509.608 348.427h-6.047"/></g><g stroke-width=".138" stroke="#000" fill="none"><path d="M510.1 346.587h-5.593"/></g><g stroke-width=".138" stroke="#000" fill="none"><path d="M510.55 344.837h-5.127"/></g><g stroke-width=".138" stroke="#000" fill="none"><path d="M511 343.042h-4.725"/></g><g stroke-width=".138" stroke="#000" fill="none"><path d="M511.402 341.472h-4.342"/></g><g stroke-width=".138" stroke="#000" fill="none"><path d="M511.806 339.9h-3.98"/></g><g stroke-width=".138" stroke="#000" fill="none"><path d="M512.255 338.286h-3.59"/></g><g stroke-width=".138" stroke="#000" fill="none"><path d="M512.614 336.805h-3.235"/></g><g stroke-width=".138" stroke="#000" fill="none"><path d="M524.367 336.267l7.91 25.037"/></g><g stroke-width=".138" stroke="#000" fill="none"><path d="M525.892 336.805l9.596 24.028"/></g><g stroke-width=".138" stroke="#000" fill="none"><path d="M527.238 336.85l11.237 23.5"/></g><g stroke-width=".138" stroke="#000" fill="none"><path d="M541.19 358.343l-12.395-21.933"/></g><g stroke-width=".138" stroke="#000" fill="none"><path d="M541.19 358.298h-9.834"/></g><g stroke-width=".138" stroke="#000" fill="none"><path d="M539.485 355.337h-9.057"/></g><g stroke-width=".138" stroke="#000" fill="none"><path d="M537.825 352.375h-8.304"/></g><g stroke-width=".138" stroke="#000" fill="none"><path d="M536.12 349.37h-7.572"/></g><g stroke-width=".138" stroke="#000" fill="none"><path d="M534.46 346.407h-6.86"/></g><g stroke-width=".138" stroke="#000" fill="none"><path d="M532.756 343.446h-6.1"/></g><g stroke-width=".138" stroke="#000" fill="none"><path d="M531.096 340.485h-5.356"/></g><g stroke-width=".138" stroke="#000" fill="none"><path d="M529.39 337.478h-4.628"/></g><g stroke-width=".138" stroke="#000" fill="none"><path d="M539.53 338.196l-7.74 23.21"/></g><g stroke-width=".138" stroke="#000" fill="none"><path d="M541.862 337.164l-7.177 23.795"/></g><g stroke-width=".138" stroke="#000" fill="none"><path d="M538.004 360.407l5.267-22.4"/></g><g stroke-width=".138" stroke="#000" fill="none"><path d="M544.644 338.78l-4.432 21.313"/></g><g stroke-width=".138" stroke="#000" fill="none"><path d="M532.71 358.747h7.766"/></g><g stroke-width=".138" stroke="#000" fill="none"><path d="M533.698 355.83h7.402"/></g><g stroke-width=".138" stroke="#000" fill="none"><path d="M534.64 352.958h7.052"/></g><g stroke-width=".138" stroke="#000" fill="none"><path d="M535.582 350.087h6.69"/></g><g stroke-width=".138" stroke="#000" fill="none"><path d="M536.57 347.17h6.324"/></g><g stroke-width=".138" stroke="#000" fill="none"><path d="M537.556 344.3h5.962"/></g><g stroke-width=".138" stroke="#000" fill="none"><path d="M538.498 341.427h5.598"/></g><g stroke-width=".138" stroke="#000" fill="none"><path d="M539.44 338.51h4.607"/></g><g stroke-width=".138" stroke="#000" fill="none"><path d="M548.188 339.004l3.795 15.915"/></g><g stroke-width=".138" stroke="#000" fill="none"><path d="M549.578 338.24l5.244 16.59"/></g><g stroke-width=".138" stroke="#000" fill="none"><path d="M551.373 338.196l5.72 16.61"/></g><g stroke-width=".138" stroke="#000" fill="none"><path d="M553.705 339.094l5.73 15.6"/></g><g stroke-width=".138" stroke="#000" fill="none"><path d="M558.91 353.317h-7.35"/></g><g stroke-width=".138" stroke="#000" fill="none"><path d="M558.057 350.984h-6.98"/></g><g stroke-width=".138" stroke="#000" fill="none"><path d="M557.204 348.65h-6.688"/></g><g stroke-width=".138" stroke="#000" fill="none"><path d="M556.352 346.318h-6.415"/></g><g stroke-width=".138" stroke="#000" fill="none"><path d="M555.455 343.984h-6.092"/></g><g stroke-width=".138" stroke="#000" fill="none"><path d="M554.603 341.65h-5.76"/></g><g stroke-width=".138" stroke="#000" fill="none"><path d="M553.75 339.318h-5.464"/></g><g fill="#00b800"><path d="M479.552 380.51c3.616-2.33 9.793-1.863 12.942.465 3.732-2.095 10.493-1.516 13.642 1.284 4.777-3.263 8.86-3.73 13.52-.585 3.616-2.562 9.21-2.795 13.526.234 4.194-1.985 8.86-3.613 12.938.7-2.445-1.75-7.694-3.268-12.938.815-4.082-4.083-11.193-2.566-13.525.233-3.033-3.616-9.443-4.2-13.292.234-4.195-3.5-10.49-3.617-13.87-.933-2.684-2.1-6.645-3.847-12.943-2.45z"/></g><g fill="#cf6200"><path d="M543.253 375.528c-18.536 3.204-58.933.933-67.792-1.283-3.045-.763-2.215-1.867.35-1.284 10.21 2.32 32 2.335 44.008 1.75 2.333-3.09 6.002-8.335 7.11-9.794s1.597-1.593 3.908-1.983c4.136-.7 6.5-1.077 10.084-1.692.06.468.06 1.05.06 1.4-.293.235-.585.643-.818.76 0 2.39.467 8.22.933 10.32.467-.06 1.05-.234 1.342-.292.816-.233 1.628 1.867.816 2.1z"/></g><g fill="#cf6200"><path d="M573.623 376.425c.67-.017 2.064-.05 2.45-.058.758-.018 1.82-.538 2.287-1.705s1.91-5.48 2.436-7.287l-1.866-2.813c.408-2.32.933-5.465.992-6.107.933-.35 1.92-.7 2.386-.875.117-.525-.112-1.952-.583-2.418-7.985.305-31.882 1.135-36.256 1.193-1.05 0-1.522-.045-1.92 1.458-2.217 8.28.847 19.896 9.21 26.586.582.465 1.318.075.344-.818-1.395-1.283-3.553-3.908-5.01-6.5 1.632-.028 4.943-.082 5.934-.123.476 1.96 1.965 6.097 2.257 6.797s1.01.8.668-.247c-.803-2.45-1.224-5.24-1.574-6.582 1.515-.036 4.373-.01 6.122-.108.085 2.217.32 5.187.377 6.004s.757.875.77-.058c.018-.934.036-4.878.023-6.04 1.974-.054 4.495-.14 5.428-.14-.13 1.262-.37 5.34-.46 5.987-.136.95.362 1.4.596.058s.7-4.477.83-6.065c.79-.023 2.866-.108 3.74-.13-.084 1.242-1.25 5.02-1.6 6.012s.215 1.023.61.085c.412-.96 1.69-4.75 1.807-6.107z"/></g><g><path d="M547.156 375.483c-.642-1.283-2.624-5.846-2.8-9.167 1.692-.03 5.922-.112 7.963-.157.3 2.503 1.07 7.896 1.48 9.175-2.387.058-5.303.135-6.644.148z"/></g><g><path d="M553.705 366.105c.22 1.912 1.22 8.476 1.382 9.235 1.732-.104 5.742-.117 6.437-.175-.07-1.75-.354-8.315-.385-9.248-1.814.05-6.524.166-7.435.188z"/></g><g><path d="M544.69 357.984c-.324 1.678-.383 5.263-.293 6.793 2.04.04 7.065-.08 7.76-.14-.17-1.74-.443-4.89-.618-6.855-1.666.072-5.743.17-6.85.202z"/></g><g><path d="M553.032 357.76c.06 1.633.422 5.626.54 6.847 1.762-.05 6.077-.14 7.535-.19-.076-1.493-.314-6.307-.34-6.89-2.342.062-6.25.21-7.735.233z"/></g><g><path d="M562.274 357.49c.07 1.517.264 5.798.206 6.906 1.87-.05 5.446-.085 6.554-.175.085-1.52.332-5.868.215-6.976-2.1.08-5.447.192-6.976.246z"/></g><g><path d="M570.528 357.176c0 1.284-.162 5.793-.22 7.018 1.853-.072 6.06-.22 7.155-.247.292-1.503.875-5.407 1.05-7.053-1.75.058-6.707.246-7.985.282z"/></g><g><path d="M577.75 365.477c-2.39.076-6.235.18-7.536.23-.202 2.95-.57 8.053-.745 9.22 2.103-.045 6.356-.18 7.29-.207.7-1.4 2.215-5.77 2.565-7.112-.525-.816-.933-1.283-1.575-2.13z"/></g><g><path d="M562.543 365.88c0 1.05.184 8.567.23 9.208 1.367-.045 4.92-.094 5.445-.152.264-2.926.664-8.53.735-9.23-2.422.067-4.8.14-6.41.175z"/></g><g><path d="M531.59 364.086l-3.038.54c-1.4 2.26-6.585 9.255-7.227 10.072 3.612-.103 9.26-.21 10.62-.34-.1-1.877-.35-9.343-.356-10.272z"/></g><g><path d="M532.935 363.817c.072 2.392.3 8.763.36 10.455 1.79-.104 5.086-.32 6.428-.436-.31-3.006-.875-10.185-.992-11.06-1.502.274-4.453.794-5.795 1.04z"/></g><g stroke-width=".138" stroke="#000"><path d="M501.623 338.645c.408.004.462.354-.005.35l-34.443-.426c-.467-.006-.404-.356.004-.35l34.443.425z"/></g><g stroke-width=".138" stroke="#000"><path d="M528.718 311.05c.41.013.458.363-.01.35l-27.287-.75c-.465-.013-.398-.363.01-.35l27.288.75z"/></g><g stroke-width=".138" stroke="#000"><path d="M499.918 318.947c.408.004.462.354-.004.35l-30.54-.224c-.467 0-.405-.35 0-.35l30.544.224z"/></g><g stroke-width=".138" stroke="#000"><path d="M500.815 299.114c.41 0 .467.35 0 .35l-31.944-.166c-.466 0-.403-.35.005-.345l31.94.16z"/></g><g stroke-width=".138" stroke="#000"><path d="M498.617 283.455c.41.004.458.36-.004.35l-31.04-.467c-.465-.01-.403-.36.006-.35l31.037.467z"/></g><g stroke-width=".138" stroke="#000"><path d="M530.737 274.3c.408-.003.47.347.005.35l-26.638.257c-.467.005-.413-.345-.005-.35l26.637-.256z" fill="#fff"/></g><g stroke-width=".138" stroke="#000"><path d="M532.397 289.198c.408 0 .466.35 0 .35H502.96c-.467 0-.408-.35 0-.35h29.437z"/></g><g stroke-width=".138" stroke="#000"><path d="M561.287 310.422c.408 0 .466.35 0 .35h-31.725c-.467 0-.408-.35 0-.35h31.725z"/></g><g stroke-width=".138" stroke="#000"><path d="M561.735 283.904c.41.004.462.354-.004.35l-32.41-.32c-.467-.004-.404-.354.004-.35l32.41.32z"/></g><g stroke-width=".138" stroke="#000"><path d="M531.77 330.523c.407.005.46.355-.006.35l-28.513-.188c-.465-.005-.402-.355.006-.35l28.513.188z"/></g><g stroke-width=".138" stroke="#000"><path d="M559.627 334.382c.408.005.462.355-.005.35l-25.063-.332c-.467-.004-.4-.354.008-.35l25.06.332z"/></g><g stroke-width=".138" stroke="#000" fill="#ef072d"><path d="M582.236 339.183c.705-1.566.803-5.164.4-6.528-1.086.22-2.006.17-2.903-.18-.47-.18-.987-.34-1.53-.475-.098 1.803-.753 6.398-1.56 8.175-1.41.4-4.25-.067-5.864-.574-.427 1.53-.817 2.935-1.176 4.227 2.005.463 4.522.422 6.513-.04-.157 2.697-.51 5.15-1.97 6.847 2.383.054 4.514-.296 5.295-1.13.07-.08.152-.15.237-.216 1.098-1.84 1.13-4.236 1.394-5.85.812.057 1.862-.176 2.33-.643s1.223-.7 1.982-.64c.69.053 1.767-.09 3.135-.643.037-.826.2-1.723.48-2.504.154-.426.32-1.135.46-1.992-1.737.83-5.61 2.217-7.224 2.167z"/></g><g stroke-width=".138" stroke="#000"><path d="M470.984 187.298c-3.55.104-11.274.175-12.898 1.086-1.62.916-2.332 1.32.507 1.826s7.644 1.858 10.278 3.482c2.634 1.62 4.84 4.492 4.114 8.588-2.175 12.308 4.258 24.145 13.58 28.61.9.43 1.116.758.915 2.432s-.813 4.464-1.32 5.173c-.507.714-.758 1.88.86 1.32-1.112 2.08-3.597 6.24-4.355 7.304-7.45-.912-13.53.102-14.09 7.91-.054.762.206 1.978 1.368.054 1.166-1.93 2.485-3.756 5.675-4.263-1.876 2.89-2.48 5.48-2.176 7.153.3 1.674.758 2.688 1.57.557.812-2.127 2.306-4.12 3.903-5.327.605-.453 1.014-.556.556.763s.203 4.16 1.118 5.124c.91.96 1.368.557 1.113-1.014-.25-1.575.144-4.864 2.078-5.887 2.785-1.468 5.168-.71 6.285 1.22 1.112 1.925 2.077.1.86-2.082s-2.484-3.702-4.512-3.854c1.777-3.146 3.854-6.95 4.312-7.71.453-.762 1.166-1.116 1.772-.66.61.46 1.014.405 1.624-.86.605-1.27 1.67-5.02 3.19-6.542.762-.207 1.978-.507 2.43-.916 1.98 2.89 3.75 6.09 4.21 6.798.452.71.963 1.014.506 2.486s-2.028 6.138-2.28 7.152c-5.526.202-8.056.3-9.833 3.397-.775 1.35.46 1.875 1.778 1.166 1.314-.71 3.19-1.32 4.154-1.167.96.152 1.413.645.453 1.116-3.39 1.674-5.513 3.8-5.37 6.744.05 1.064.49 1.593 1.32.153 1.165-2.028 3.292-4.057 5.876-4.617-.152 2.485.41 6.138 1.925 6.9 1.52.76 1.63-.013 1.063-1.47-.91-2.334.036-4.68 1.167-5.937 2.382-2.64 7.805 1.013 8.82 1.928 1.013.91 1.937 1.292 1.368-1.068-.763-3.14-5.222-4.967-9.022-5.474 1.064-5.124 3.904-15.47 5.425-19.02 2.23 1.216 3.97-1.993 7.702-.61 6.28 2.333 15.706 8.215 17.33 9.534 1.62 1.32 2.23 1.014 3.04.305.81-.71 2.23 0 3.343.202 1.117.202 2.13.507.71-2.333-1.42-2.84-4.864-7.812-10.642-11.666 3.445.305 8.11.305 8.11-.606 0-.915-5.373-2.638-7.603-2.84 2.13-.507 5.374-1.728 6.89-3.45.902-1.02-.18-1.257-3.34-1.32-9.732-.202-14.594-.126-19.664-3.042-8.105-4.667-12.743-9.58-16.722-11.666-2.127-1.118-3.423-3.693-4.244-5.92-2.633-7.102-2.503-10.296-8.685-12.63s-13.293.525-16.536 3.464z"/></g><g stroke-width=".138" stroke="#000" fill="#fff"><path d="M471.387 188.914c-1.574-.06-4.665-.43-7.227-.175-.583.057-1.283.35.117.524s5.186 1.104 6.527 1.57.758 1.167-.408.875-1.597.138-.642.816c4.957 3.5 5.482 4.84 4.2 16.848.932.642 1.69 1.11 2.507 1.517s.584.993-.29.76-1.692.29-.292.583 2.036.933.7.875c-1.342-.06-2.916 1.108-.292.816 2.62-.29 3.67.934.583.992-3.092.058-1.925 1.05-.292 1.05 2.91 0 2.036.816 1.283.816-.758 0-1.107.992.817.817 1.92-.176 2.678-.234 3.378-.118s.99.696-.058.76c-1.05.053-.992.81.583.81s2.23.477.816.76c-.583.116-1.39.408.292.64 2.916.41 3.032 1.11 2.1 1.226s-1.05.64.29.758c1.338.117 2.504.525 1.4.817-1.107.29-1.69.933-.295 1.05 1.4.116 2.565.64 1.516.99s-1.284.993.057.935 1.866.7.933 1.22c-.933.525-1.574.875-2.158-.054-.578-.933-.928-1.225-1.103-.525-.176.695-.584.233-1.05-.817s-1.284-1.342-1.05-.525-.817.933-1.808.525c3.674 3.728 9.093 7.112 17.72 3.612.735-.296.874 0 1.457 1.225s2.215 3.908 2.798 4.9 1.046.098 1.337-.876c1.167-3.85 2.04-6.708 2.39-7.753.35-1.05 1.984-2.1 1.46 1.57 1.282-.874 6.966-1.7 11.367-.057 4.836 1.808 9.7 4.613 12.184 6.475.466.35 1.05.758 2.21.64 1.168-.115 1.46-.29-.757-2.332-2.212-2.04-1.28-3.033.116-2.04 1.4.99 2.158.407 1.108-.818s-3.553-3.612-4.37-4.195-.933-.817-2.8-.934-5.826-.117-6.992-.117-1.517.116 1.05 1.05c2.56.928 7.81 4.312 8.976 5.128s1.983 2.684-.583 1.05-10.61-6.644-15.97-8.51c-12.243.816-21.92 2.45-29.146-5.48-3.464-3.795-3.617-12.478 2.21-16.094-1.166-.992-.99-1.575-.524-1.808s.64-.467.175-1.05c-.46-.584-.408-1.104 0-1.337-1.278-.7-1.86-1.516-1.803-2.39-1.574-.35-2.274-2.218-4.374-1.634s-3.15.116-3.786-.41c-.646-.524-1.166-.757-2.332-.64s-2.1-.35-2.158-.934.987-.866 2.566-.175c3.32 1.46 6.002 2.16 8.043-.583 2.04-2.737-.583-5.304-4.49-6.062-3.903-.758-6.76 2.1-8.22 3.442z"/></g><g stroke-width=".138" stroke="#000" fill="#fff"><path d="M490.99 187.882c-1.174-1.275-3.265-2.45-4.31-2.8-1.05-.35-1.166.7-.583 1.225-.467.7-.642 2.39.175 2.858s.825 1.13.058 1.512c-1.166.583-.77 3.68.987 2.8.583-.292 1.05-.175.933.292s.117 1.05.642 1.165.466.875.35 1.167.058.408.64.467.643 1.457-.407 1.923c1.283 0 1.633-.233 1.983.817.35 1.046 1.75 1.28 1.75 2.562s-.234 1.517-1.75 1.283-2.1.234-2.566.817-.584 1.167.583 1.225 1.4.583.233 1.108-3.086.175-3.378 1.284c-.29 1.102 0 1.627.87 1.22.875-.405 2.683-1.163 3.383-1.57s1.34-.468 1.924.465.117 1.98-.874 1.167c-.992-.817-1.458-.063-2.042.404s-1.456.758-2.39.758c-.928 0-1.57.12-1.453 2.217.35 6.3 5.244 10.962 14.22 10.846s13.41-.234 14.75-.06c-2.974-1.632-4.84-2.507-5.89-2.39s-1.924.29-1.457-.525-.06-.816-.525-1.166-1.046-.816-1.98.175-3.148 2.1-4.256 2.332-2.45.175-1.4-.875 3.382-1.4 4.082-1.866.7-.753.7-1.103-.175-1.342 1.166-.583c2.678 1.516 6.877 3.787 7.985 3.728s1.866-.525.875-1.166-1.283-1.57-.992-1.92.467-.7 2.216.29c1.745.988 4.603 2.27 5.653 2.738s2.45.292.29-1.283c-2.156-1.57-8.858-6.003-10.725-7.403s-1.05.292-.874.817-1.283 1.167-2.042.525-1.283-1.343-.233-1.926 1.284-.642-.29-2.042c-1.57-1.395-2.037-1.278-1.687-.116.35 1.166.466 2.45-1.166 1.808s-2.45-1.4-1.4-2.042c1.05-.637 2.39-.987.64-2.445s-1.223 0-1.632.817-1.75.816-2.507.175-1.108-1.285-.583-1.81.466-.816 1.224-.408 1.924.175.524-1.05-1.924-.7-1.633 0-.815 1.925-2.56.292c-.83-.772-.817-1.81.058-1.984.87-.175.956-.628.345-1.516-3.552-5.187-2.094-9.387-5.652-13.232z"/></g><g fill="#cf6200"><path d="M491.574 188.6c-.305.457-.417.44-.982.816-.695.462-.852 1.786.314 1.63.807-.11 1.278-.59 1.597-.98-.256-.493-.56-.982-.93-1.466z"/></g><g fill="#cf6200"><path d="M487.94 185.683c-.897.87-1.054 1.26-.596 1.26.543 0 .31.077-.08.7-.387.625.78.934 1.246.468s.543-.623.776 0c.19.508.956.027 1.44-.462-.794-.767-1.86-1.476-2.785-1.965z"/></g><g fill="#cf6200"><path d="M486.326 190.71c-1.167.582-.772 3.678.987 2.798.583-.29 1.05-.175.933.292-.063.247-.023.53.107.754.696-.292 1.39-.776 1.934-1.396 1.09-1.242.076-1.166-1.552-1.166-1.633 0-2.1-.31-.548-1.243 1.39-.836.485-1.415-1.44-1.145.278.395.14.825-.42 1.104z"/></g><g fill="#cf6200"><path d="M493.01 197.574c-.857-.934-.314-1.4.62-1.867.228-.112.385-.256.497-.426-.265-1.027-.476-2.014-.754-2.974-.49.14-1.06 1.23-1.22 1.768-.233.776-.467 1.243-1.243 1.01-.69-.207-1.38.57-1.525 1.4.108.044.274.076.494.098.322.03.483.47.384.938 2.104-.068 2.463 1.386 2.822 2.382.39 1.09.857.934 1.166.314.31-.623-.39-1.71-1.242-2.642z"/></g><g fill="#ff0"><path d="M493.593 209.778c-.38.862-.39.777-1.633.853-1.243.082-2.808.292-3.494 1.015-.373.386-2.522.49-2.526 1.436-.01.952 0 1.75.933 1.81.93.057 1.045.174.7.874-.355.7-.583 1.867 1.045 1.983 1.633.117 2.8-.408 3.208.52.408.934-.032 2.424.29 2.976s1.428.906 3.137 1.435c1.14.355 5.44.557 6.765.404 1.32-.157.825-.947-.498-1.063-1.32-.118-2.293-.31-2.602-1.28-.31-.974-.583-1.48.157-2.293.736-.816 1.476-1.44 1.05-2.8-.43-1.36-1.13-2.957-2.683-3.383-1.557-.426-1.063-2.553-2.606-2.76-.584-.076-1.086-.076-1.243.274z"/></g><g fill="#cf6200"><path d="M486.057 222.432c1.336.116 2.503.525 1.4.816-1.11.292-1.692.934-.297 1.05 1.4.117 2.566.642 1.516.992s-1.283.99.06.933 1.865.7.932 1.22c-.933.526-1.575.876-2.158-.053-.58-.934-.93-1.225-1.104-.525-.175.695-.583.233-1.05-.817s-1.282-1.34-1.05-.525-.815.933-1.807.525c.977.992 2.076 1.956 3.328 2.773 1.43-.488 3.01-.09 3.548-.035.583.06 2.39.467 3.383.992s1.632-.408 1.223-1.458c-.408-1.047-.466-.697-.99-.118-.526.583-.643-.233-.584-1.454.048-1.032-.643-.758-.876-.117s-.758-.407-.467-1.05-.058-.873-.583-.698-.583 0-.64-1.167-.584-.992-.76-.525-.64-.175-1.34-1.108c-.61-.817-1.315-.337-2.535.148.15.09.43.166.847.202z"/></g><g fill="#ff0"><path d="M500.232 229.656c-6.37 2.584-10.964 1.436-14.422-.857 1.43-.49 3.04-.073 3.58-.02.583.06 2.39.467 3.382.992s1.633-.408 1.225-1.458c.875 1.108 1.516 1.867 2.56 1.808 1.05-.058 2.8-.233 3.675-.466z"/></g><g fill="#ff0"><path d="M486.64 200.31c-.39-1.318-.776-1.633-1.476-1.552-.7.076-1.01-.08-1.79-.39-.776-.31-1.786.076-1.943 1.476s-1.008 2.1-2.174 2.952c-1.167.858-1.866 1.557-1.866 2.957s-.31 1.786-1.086 2.8c-.345.45-.834.96-1.292 1.5.502.313.973.587 1.467.83.815.407.582.99-.293.757s-1.69.292-.29.584 2.035.933.7.875c-1.343-.06-2.917 1.107-.293.815 2.62-.29 3.67.934.583.992-3.09.058-1.924 1.05-.29 1.05 2.91 0 2.035.817 1.282.817-.76 0-1.11.99.815.816.027-.004.05-.01.08-.01.28-.286.485-.645.638-1.098.31-.933.62-3.657 1.71-4.433 1.085-.778 1.632-1.868 1.632-2.644s1.628-4.195 2.718-5.053 1.557-2.72 1.167-4.042z"/></g><g fill="#cf6200"><path d="M484.352 200.356c-1.104-.736-2.176-.31-2.176 1.09s-.7 1.786-1.633 2.252c-.928.467-1.785 1.634-1.942 2.724-.152 1.086.158 1.786-.618 2.643-.78.852-.857 1.552-.31 2.02.543.466.543.546.776 1.242.234.7 1.552-.076 1.552-.853s.314-.776 1.167-1.243c.857-.465 2.256-2.722 1.942-3.34-.31-.625-1.086-1.168-.077-2.025 1.01-.853 2.1-.933 2.1-1.786 0-.858.31-1.167.618-1.477.315-.314-.698-.78-1.398-1.247z"/></g><g><path d="M484.352 199.234c-.727-.283-1.162 1.243-.153 1.476s1.166-1.09.152-1.476z"/></g><g><path d="M484.172 201.208c-.77.094-1.633 1.108-.35.933s1.808-1.107.35-.932z"/></g><g><path d="M482.647 203.093c-.794.4-.64 1.458.525.7s1.458-1.692-.525-.7z"/></g><g><path d="M481.39 204.708c-.797.395-.64 1.454.526.7 1.166-.758 1.458-1.692-.525-.7z"/></g><g><path d="M479.776 205.47c-.794.4-.29 1.46.875.7s1.11-1.69-.874-.7z"/></g><g><path d="M480.763 206.458c-.794.4-.292 1.458.875.7s1.108-1.692-.875-.7z"/></g><g><path d="M479.372 206.862c-.794.4-.29 1.458.875.7s1.108-1.692-.875-.7z"/></g><g><path d="M480.27 207.983c-.8.4-.292 1.46.87.7 1.166-.758 1.108-1.69-.87-.7z"/></g><g><path d="M478.924 208.657c-.794.394-.292 1.453.875.695s1.107-1.687-.876-.695z"/></g><g><path d="M479.013 209.69c-.794.398-.29 1.457.875.7s1.108-1.693-.875-.7z"/></g><g fill="#cf6200"><path d="M478.385 219.515c-.803.103-1.318 1.247-.31 1.48s1.244.31 1.244 1.087.313 1.866 1.398 1.942c1.09.08 2.023-1.166 1.09-1.552-.933-.39-1.79-.7-1.866-1.557-.076-.853-.933-1.476-1.557-1.4z"/></g><g fill="#ff0"><path d="M507.006 212.83c.144.18.323.376.53.55.758.643 2.216 0 2.04-.524s-.99-2.216.875-.816 8.57 5.833 10.727 7.403c2.158 1.575.76 1.75-.29 1.284s-3.908-1.75-5.654-2.738c-1.75-.992-1.924-.642-2.216-.292-.246.29-.05.996.593 1.593-1.04.153-2.732-.076-3.217-1.184-.583-1.34-1.983-2.975-2.974-4.258-.37-.476-.477-.772-.414-1.02z"/></g><g fill="#00d860"><path d="M564.83 403.84c-1.453.993-3.377 2.743-2.1 5.188.154-.08.297-.175.445-.26 5.702-6.9 10.583-14.157 14.764-21.695.048-.26.093-.507.124-.722-1.633 1.4-4.2 2.796-5.248 3.146.7 1.867-2.562 4.317-4.31 5.017.7 1.166.465 2.916-1.05 3.266.35 1.045-.817 1.045-2.217 1.628s-2.1 1.05-2.563 1.75c.754-.41 1.804-.76 2.387-.584s.7 1.05-.35 1.284-1.745.816-2.1 1.283c1.517-.582 3.675-.29 2.217.7z"/></g><g stroke-width=".138" stroke="#000"><path d="M495.7 210.676c-1.72-1.503-2.156-.584-1.457.35s.175 1.4-1.34 1.633-3.792.524-4.725.524-2.036 1.283.175 1.167c2.216-.116 5.95-.874 6.94-1.283s1.804-1.166.408-2.39z"/></g><g stroke-width=".138" stroke="#000"><path d="M499.066 213.323c-1.422-1.28-1.925-.933-1.575 0s-.29 1.108-1.22 1.4c-.932.292-4.606 1.517-6.18 1.692s-1.925 1.283.408 1.224 6.818-1.925 7.343-2.275.7-1.05 1.284-.7 1.108-.292-.058-1.342z"/></g><g stroke-width=".138" stroke="#000"><path d="M500.143 217.047c-1.032.615-3.612 1.746-4.66 2.037s-1.926 1.46.29 1.284c2.212-.175 4.836-2.217 5.536-2.62.7-.41 1.05-.7 1.632-.642s1.633-.76-.292-1.81-3.09-.524-2.158.293.234 1.107-.35 1.457z"/></g><g><path d="M481.974 187.702c-2.848-1.87-6.1 2.05-2.952 4.2 2.76 1.885 5.675-2.41 2.952-4.2z"/></g><g fill="#fff"><path d="M478.43 189.407l.844.06c-.175.87.7 2.184 2.04 1.86-1.076.817-3.175-.116-2.884-1.92z"/></g><g fill="#fff"><path d="M489.466 231.9c.86.25 3.853.556 4.867.605-.507 1.068-.964 1.777-1.27 2.54-.304.758-.452.812-.506-.355-.05-1.17-.71-1.93-1.315-.713-.61 1.22-.915 1.673-1.215 2.18-.305.507-.763.714-.61-.556s.103-2.588.05-3.7z"/></g><g stroke="#000" stroke-width=".275" fill="none"><path d="M602.02 266.135c-.207 73.282-11.767 152.23-106.606 189.836-94.843-37.605-106.403-116.553-106.61-189.835H602.02z"/></g><g stroke="#000" stroke-width=".275" fill="none"><path d="M602.02 266.135c.08-27.604-1.454-54.405-.754-77.89-35.44-15.86-82.07-19.123-105.852-19.123-23.784 0-70.416 3.262-105.856 19.123.7 23.485-.83 50.286-.753 77.89H602.02z"/></g></g></g></svg>