<svg xmlns="http://www.w3.org/2000/svg" height="480" width="640" version="1"><g><path d="M640 480V0H0v480h640z" fill="#006"/><g><path fill-rule="evenodd" fill="#006" d="M0 0h373.68v232.168H0z"/><g stroke-width="1pt"><path d="M0 0v25.957L331.903 232.17h41.777v-25.956L41.777 0H0zm373.68 0v25.957L41.777 232.17H0v-25.957L331.903 0h41.777z" fill="#fff"/><path d="M155.7 0v232.17h62.28V0H155.7zM0 77.39v77.39h373.68V77.39H0z" fill="#fff"/><path d="M0 92.868v46.434h373.68V92.868H0zM168.156 0v232.17h37.368V0h-37.368z" fill="#c00"/><path d="M0 232.17l124.56-77.39h27.852l-124.56 77.39H0zM0 0l124.56 77.39H96.708L0 17.305V0zm221.268 77.39L345.828 0h27.852L249.12 77.39h-27.852zM373.68 232.17l-124.56-77.39h27.852l96.708 60.086v17.304z" fill="#c00"/></g></g><g><path d="M612.54 212.442v79.91c0 65.607-25.77 125.663-102.217 162.17-76.416-36.507-102.19-96.56-102.19-162.17v-79.91H612.58z" fill-opacity=".996" fill="#fff"/><path d="M605.69 220.585v74.535c0 61.192-24.035 117.21-95.34 151.256-71.306-34.048-95.34-90.063-95.34-151.256v-74.535H605.7z" fill-opacity=".996" fill="#fdc300"/><g stroke="#000" stroke-width=".091"><path d="M465.966 253.232c-1.38-1.035-2.877-1.668-4.945-1.725.458-5.06-3.22-7.246-5.867-8.166-2.642-.92-3.565-1.954-4.022-4.025-.46-2.07-1.84-3.335-4.256-4.025-2.416-.69-4.487-3.105-5.406-4.255-.92-1.15-1.267-.92-1.955 1.035-.69 1.955-3.45 5.635-.922 5.75-1.836 1.495-2.872 3.22-1.723 5.52-1.266 1.036-2.185 2.53-.46 3.106 1.727.575 2.184 1.035 2.3 1.495-1.55 0-1.953 3.107 1.725 3.797-.805.115-1.15 2.645.348 2.645-2.072 0-3.8 3.106-6.442 3.106-2.646 0-4.026.574-4.14 1.725-.117 1.15-1.497 2.53-2.185 3.105 1.955.23 3.217 0 4.253-.805s2.76-1.035 3.913-.115c1.148.92 3.564 1.38 4.713 1.15-2.53 1.725-4.37 4.025-4.6 6.21-.23 2.186-1.724 4.716-3.452 5.406-1.723.69-4.022 2.53-4.827 4.716 2.185 5.405 5.285 6.74 8.393 8.165 5.523 2.53 8.97 4.37 11.273 6.9 2.298 2.53 3.22.69 6.668 5.06 3.452 4.372 6.673 12.653 10.12 14.033 3.452 1.38 7.822.46 10.352-3.91 2.533-4.37 4.143-48.535-8.854-55.895z" fill="#ff9e3d"/><path d="M471.83 234.828c-3.222 3.45-7.365 6.9-6.674 13.112s1.38 16.332-4.37 19.782c-5.75 3.45-8.51 12.19-1.61 17.25 6.9 5.062 7.13 11.273 8.28 17.024 1.152 5.75 4.143 10.35 8.743 6.44 4.596.69 7.13-1.15 7.13-4.83s.23-5.75 3.678-6.9c3.45-1.15 4.37-2.302 5.98-5.407 1.61-3.106 2.53-4.486 1.61-6.327-.918-1.84-1.265-5.635-.574-8.395.692-2.76-.918-4.256-1.84-5.98-.92-1.726-1.263-3.22-.806-5.52.46-2.302-.688-3.797-2.298-4.947s-2.303-2.3-1.955-4.14c.344-1.84-1.153-2.99-2.877-4.37s-2.99-3.22-2.99-5.98c0-2.76-5.29-9.202-9.43-10.812z" fill="#ff927f"/><path d="M473.12 309.932c7.704-1.955 7.016-14.606 5.867-19.897-1.154-5.29-4.11-12.868-1.842-18.862 3.22-8.51-3.913-16.562-2.07-19.782 1.84-3.22 1.61-4.944 1.378-5.98-.226-1.035-1.954-1.84-2.067.346-.118 2.185-.692 2.99-2.072 4.37s-1.036 4.37 0 7.706c1.036 3.335 3.22 8.396-.23 15.066s-2.03 9.643-.69 12.767c2.07 4.83 7.018 21.622 1.725 24.267z" fill="#ff9ee1"/><path d="M438.603 237.82c.864 0 2.533-.347 2.533.804" fill="none"/><path d="M436.883 243.338c1.036-.748 2.877.115 4.714-.977" fill="none"/><path d="M438.72 247.94c1.38 0 3.22-.058 4.945-1.44" fill="none"/><path d="M440.44 251.735c1.266 0 3.624-.805 4.198-2.473" fill="none"/><path d="M440.792 254.38c2.47-.114 5.75.806 6.207-.056" fill="none"/><path d="M440.91 262.547c1.723-1.61 5.808-2.703 6.726-4.37" fill="none"/><path d="M445.287 236.9c2.873.92 1.685 2.698 3.104 3.796 2.534 1.955.23 4.14 2.303 4.715 2.068.576 2.033.926 1.493 3.22-.633 2.704 1.955 2.82 1.036 4.602" fill="none"/><path d="M461.04 251.508c-1.15 0-4.542.115-5.98 3.163" fill="none"/><path d="M436.492 284.688c1.325.23 1.986-.523 2.357-1.265.402-.806.574-1.38 1.78-1.438 1.21-.058 3.05-.403 3.453-1.323.403-.92 1.84-.057 3.05-2.473 1.207-2.416 2.012-5.29 5.23-6.326" fill="none"/></g><g stroke="#000" stroke-width=".091"><path d="M527.728 334.942c1.302 1.89-.047 3.935 2.162 4.753 2.587.958.328 4.36 3.38 5.56 2.706 1.064.02 4.318 2.944 5.78 2.615 1.307-.438 4.36 3.053 6.105 3.487 1.744-.657 5.67 1.963 7.195 2.615 1.527-.872 5.452 2.18 6.978 3.054 1.527-1.31 4.58 1.525 6.76 2.834 2.18-.653 5.45 2.18 7.414s-1.738 4.583 1.092 7.414c2.18 2.182-.786 4.317.872 7.633 1.09 2.18-1.092 10.903-7.198 10.03-2.18 3.708-10.683 6.98-13.736 5.888-3.053 2.182-12.864 5.235-17.884.438-5.01 4.797-14.826 1.744-17.88-.437-3.052 1.092-11.554-2.18-13.736-5.886-6.105.872-8.287-7.85-7.196-10.03 1.657-3.317-1.31-5.452.872-7.633 2.83-2.83-1.744-5.45 1.09-7.413s-.653-5.233 2.182-7.414c2.834-2.18-1.53-5.233 1.524-6.76 3.053-1.526-.434-5.45 2.18-6.978 2.62-1.526-1.523-5.45 1.964-7.195 3.49-1.745.437-4.798 3.052-6.106 2.924-1.46.24-4.715 2.944-5.78 3.053-1.198.793-4.6 3.38-5.56 2.245-.83.814-2.926 2.23-4.843 6.492 2.556 26.592 4.39 34.86.092z" fill="#00a728"/><g fill-opacity=".996" fill="#fdc300"><path d="M495.48 346.348c.002.98-.02 1.955-.928 3.162-1.962 2.617.872 3.926-1.31 6.76-2.177 2.835.438 4.58-1.962 6.978-2.396 2.4.438 4.58-1.962 7.196-2.396 2.617.438 4.36-1.962 6.76-2.397 2.398.437 5.015-1.963 7.413-2.396 2.4.438 5.452-2.18 8.287-2.616 2.834.437 5.015-1.744 7.196-2.182 2.18-.22 4.36-1.745 5.887 2.615-1.962 2.615-5.015 4.578-6.54 1.962-1.528-.653-3.71.438-4.8s.22-5.668 2.182-7.85c1.962-2.18.22-6.54 1.962-8.067s.434-6.105 2.615-7.632 0-5.233 1.743-7.196c1.747-1.962 0-5.015 1.747-7.414 1.743-2.398.078-4.576 1.306-6.542.547-.872.547-7.195-.817-3.598z"/><path d="M501.772 349.073c-1.524 2.835 1.09 3.49-.872 6.323s1.09 5.016-1.09 7.85 1.09 4.36-.872 7.197c-1.962 2.834.872 4.36-.872 6.54-1.747 2.182 1.306 4.362-.87 6.98-2.183 2.616.87 4.578-.877 6.977-1.744 2.398.656 5.015-.873 6.977-1.524 1.963 1.09 4.798-1.09 7.415s.438 4.36-.872 6.105c2.62-.872 1.638-4.47 2.62-5.233.98-.763-.33-5.78 1.195-7.087 1.53-1.308-.98-5.344.438-7.087 2.4-2.944.328-4.906 1.743-7.196 1.42-2.29-.538-5.23.55-6.76 1.852-2.616-.822-4.975.542-6.868 1.962-2.726-.38-4.97.98-6.76 2.073-2.726-.218-5.452.658-6.87.872-1.417 2.287-7.522-.438-8.503z"/><path d="M510.255 351.453c-1.525 3.8 1.09 5.32.22 8.36-.873 3.04 1.09 5.318-.22 8.61-1.306 3.294 1.747 5.826 0 10.133-1.744 4.306 1.125 5.378 0 9.625-1.306 4.94 2.18 7.557 0 11.046-2.178 3.49 2.497 4.644.22 8.286-1.092 1.745.108 6.215 1.85.873 1.75-5.343-1.304-5.997.22-8.177 1.53-2.18-.543-7.96.11-11.012.656-3.053-1.525-7.197-.11-10.467 1.42-3.272-2.18-6.76-.762-9.596 1.42-2.834-.653-6.323.653-8.613 1.31-2.288-.98-5.34-.434-6.65.543-1.308-.547-6.142-1.747-2.417z"/></g><path d="M526.594 337.514c0-24.64-3.487-33.145-16.355-33.145-12.866 0-16.352 8.503-16.352 33.144h32.706z" fill="#ef072d"/><g fill="none"><path d="M498.684 335.552c-2.4 2.398.438 4.143-1.962 6.977-2.4 2.834-.22 4.36-2.182 6.977s.872 3.925-1.31 6.76c-2.176 2.835.44 4.58-1.96 6.978-2.398 2.398.436 4.58-1.964 7.196-2.396 2.618.438 4.362-1.962 6.76-2.396 2.4.438 5.016-1.962 7.414-2.397 2.4.437 5.452-2.182 8.287-2.615 2.835.438 5.016-1.743 7.197-2.18 2.18-.22 4.36-1.743 5.887-1.53 1.526-1.744 3.653-1.09 4.58"/><path d="M503.257 336.423c-2.177 2.835 1.09 4.143-.87 6.542-1.964 2.4.87 3.27-.654 6.106s1.09 3.49-.872 6.324 1.092 5.016-1.09 7.85 1.09 4.36-.87 7.197c-1.963 2.835.87 4.36-.873 6.542-1.747 2.18 1.306 4.36-.87 6.978-2.183 2.617.87 4.58-.877 6.978-1.743 2.398.657 5.015-.872 6.977-1.524 1.963 1.09 4.798-1.09 7.415s.437 4.36-.872 6.105c-1.31 1.745-2.342 4.307-1.09 5.016"/><path d="M510.255 339.042c-1.087 4.56 1.528 8.612 0 12.41-1.525 3.8 1.09 5.32.22 8.36-.873 3.04 1.09 5.32-.22 8.612-1.306 3.293 1.747 5.825 0 10.132-1.744 4.306 1.125 5.378 0 9.625-1.306 4.94 2.18 7.557 0 11.046-2.178 3.49 1.966 4.362.22 8.286-1.745 3.926 1.09 5.452-.22 9.377"/><path d="M521.825 335.552c2.4 2.398-.438 4.143 1.963 6.977 2.4 2.834.218 4.36 2.18 6.977s-.87 3.925 1.31 6.76c2.178 2.835-.438 4.58 1.963 6.978 2.397 2.398-.437 4.58 1.963 7.196 2.396 2.618-.438 4.362 1.962 6.76 2.396 2.4-.438 5.016 1.963 7.414 2.396 2.4-.438 5.452 2.18 8.287 2.616 2.835-.437 5.016 1.744 7.197 2.18 2.18.22 4.36 1.744 5.887 1.528 1.526 1.747 3.653 1.09 4.58"/><path d="M517.252 336.423c2.177 2.835-1.09 4.143.87 6.542 1.964 2.4-.87 3.27.654 6.106 1.53 2.836-1.09 3.49.872 6.324s-1.09 5.016 1.09 7.85-1.09 4.36.872 7.197c1.963 2.835-.87 4.36.872 6.542 1.747 2.18-1.306 4.36.876 6.978 2.177 2.617-.876 4.58.87 6.978 1.745 2.398-.655 5.015.873 6.977 1.526 1.963-1.09 4.798 1.092 7.415s-.438 4.36.87 6.105c1.31 1.745 2.347 4.307 1.092 5.016"/></g><path d="M493.915 337.514c0-24.64 3.487-33.145 16.35-33.145-5.886 0-9.482 4.578-10.463 7.63s-.438 2.836.872 1.637.652 1.417-.434 2.834c-1.09 1.42-2.18 5.453-.657 4.144 1.528-1.308 2.725.22 1.09 2.508s-3.052 7.632-1.418 5.78c1.638-1.855 1.962 1.198.985 2.725-.985 1.526-.876 2.834 0 2.18.87-.654.762 2.508-.11 3.707h-6.215z"/><path d="M524.092 336.1c0-19.3-2.396-25.078-7.192-27.04-2.717-1.113-2.795-.872-1.497.872s1.098 4.252-.102 2.508c-1.195-1.745-1.594-2.072-2.094-1.308-.5.763 1.395 4.36 2.795 7.632 1.127 2.63.4 3.924-1.297 1.308s-1.696-.247-.207 1.962c1.91 2.835 1.853 11.448 1.853 15.046l7.742-.98z"/><path d="M510.255 341.114c5.124 0 10.734-.913 14.502-2.376 4.472-1.736 4.71-3.26 3.162-5.21-1.09-1.37-3.49-.547-5.778.458-2.29 1.005-8.616 1.645-11.887 1.645-3.268 0-9.593-.64-11.884-1.644-2.286-1.005-4.686-1.828-5.776-.457-1.548 1.947-1.31 3.472 3.162 5.208 3.764 1.463 9.378 2.376 14.5 2.376z" fill="#ef072d"/></g><g fill-rule="evenodd" fill="#b95a1e"><path d="M779.41 912.6s-.12 103.6 0 179.24c.12 75.63 19.822 104.91 54.262 103.59 34.44-1.33 41.108-58.83 34.53-92.08-6.576-33.26-53.24-198.97-53.24-198.97l-35.552 8.222z" transform="matrix(.053 -.034 .033 .056 488.796 284.101)" stroke="#000" stroke-width="6.377"/><path d="M779.41 912.6s-.12 103.6 0 179.24c.12 75.63 19.822 104.91 54.262 103.59 34.44-1.33 41.108-58.83 34.53-92.08-6.576-33.26-53.24-198.97-53.24-198.97l-35.552 8.222z" transform="matrix(.06 -.013 .013 .064 499.758 260.984)" stroke="#000" stroke-width="6.377"/><path d="M779.41 912.6s-.12 103.6 0 179.24c.12 75.63 19.822 104.91 54.262 103.59 34.44-1.33 41.108-58.83 34.53-92.08-6.576-33.26-53.24-198.97-53.24-198.97l-35.552 8.222z" transform="matrix(.062 0 0 .066 509.065 249.283)" stroke="#000" stroke-width="6.377"/><path d="M779.53 255.12c159.57-1.394 177.16-35.432 177.16-35.432s35.43-70.866 17.716-88.584c-17.717-17.716-194.88-17.716-194.88-17.716v141.73z" transform="matrix(.039 0 0 .066 527.444 292.232)" stroke="#000" stroke-width="8.095"/><path d="M779.53 255.12c106.3 0 124.02-35.432 124.02-35.432s35.43-70.866 17.716-88.584c-17.717-17.716-141.73-17.716-141.73-17.716v141.73z" transform="matrix(.062 0 0 .066 509.065 287.587)" stroke="#000" stroke-width="6.377"/><path d="M779.53 255.12c88.583 0 141.73-35.433 141.73-35.433s35.43-70.866 17.716-88.584c-17.72-17.72-159.45-17.71-159.45-17.71v141.73z" transform="matrix(.062 0 0 .066 509.065 282.942)" stroke="#000" stroke-width="6.377"/><path d="M832.68 113.39s70.866-88.583 194.88-177.17c124.01-88.582 213.73-156.72 230.31-141.73 0 17.717-106.3 106.3-194.88 177.17C974.4 42.52 868.1 148.82 868.1 148.82l-35.433-35.433z" transform="matrix(.077 0 0 .066 497.003 249.417)" stroke="#000" stroke-width="5.724"/><path d="M832.68 113.39s70.05-52.025 204.38-124.02c132.23-63.918 318.89-53.15 318.89-35.433-17.71 17.716-177.16 17.716-283.46 70.866-101.48 50.73-204.39 124.01-204.39 124.01l-35.433-35.433z" transform="matrix(.077 0 0 .066 497.641 254.062)" stroke="#000" stroke-width="5.724"/><path d="M832.68 113.39s61.675-35.068 204.38-88.583c141.72-53.15 329.87-17.717 329.87 0-17.7 17.713-170.4 6.944-276.7 35.43-109.99 27.757-222.09 88.583-222.09 88.583l-35.433-35.433z" transform="matrix(.077 0 0 .066 497.7 262.059)" stroke="#000" stroke-width="5.724"/><path d="M832.68 113.39s71.08-70.976 222.47-88.583c152.3-17.72 276.3 88.583 276.3 106.29-17.7 17.72-159.5-77.972-265.7-64.286-112.67 13.655-197.69 82.007-197.69 82.007l-35.433-35.433z" transform="matrix(.077 0 0 .066 498.221 270.174)" stroke="#000" stroke-width="5.724"/><path d="M779.53 255.12c159.57-1.394 159.45-45.508 159.45-45.508s35.43-70.866 17.716-88.584c-17.717-17.716-177.16-7.64-177.16-7.64v141.73z" transform="matrix(.062 0 0 .066 509.065 277.146)" stroke="#000" stroke-width="6.377"/><path d="M779.53 255.12c159.57-1.394 177.16-35.432 177.16-35.432s35.43-70.866 17.716-88.584c-17.717-17.716-194.88-17.716-194.88-17.716v141.73z" transform="matrix(.062 0 0 .066 509.065 272.5)" stroke="#000" stroke-width="6.377"/><path d="M779.53 255.12c159.57-1.394 194.88-35.433 194.88-35.433s35.43-70.866 17.716-88.583c-17.717-17.716-212.6-17.716-212.6-17.716v141.73z" transform="matrix(.062 0 0 .066 509.065 266.696)" stroke="#000" stroke-width="6.377"/><path d="M779.53 255.12c159.57-1.394 212.6-35.433 212.6-35.433s17.714-70.866 0-88.583c-17.717-17.716-212.6-17.716-212.6-17.716v141.73z" transform="matrix(.062 0 0 .066 509.065 260.892)" stroke="#000" stroke-width="6.377"/><path d="M832.68 113.39S946.89 24.807 946.89-46.06c0-70.866-50.35-141.73-64.625-177.17 28.552 0 93.176 106.3 93.176 177.17 0 77.444-107.32 194.88-107.32 194.88l-35.432-35.433z" transform="matrix(.077 0 0 .066 495.499 244.638)" stroke="#000" stroke-width="5.724"/><path d="M832.68 113.39s-14.276-53.15-14.276-159.45c0-124.02 63-202.89 85.654-230.32 5.898 27.422-57.102 124.02-57.102 230.32 0 77.444 21.157 194.88 21.157 194.88l-35.433-35.433z" transform="matrix(.077 0 0 .066 495.499 244.638)" stroke="#000" stroke-width="5.724"/><path d="M779.53 255.12c159.57-1.394 212.6-35.433 212.6-35.433s0-70.866-17.716-88.583c-17.717-17.716-194.88-17.716-194.88-17.716v141.73z" transform="matrix(.062 0 0 .066 509.065 255.087)" stroke="#000" stroke-width="6.377"/><path d="M779.53 255.12c159.57-1.394 194.88-35.433 194.88-35.433s0-70.866-17.716-88.583c-17.717-17.716-177.16-17.716-177.16-17.716v141.73z" transform="matrix(.062 0 0 .066 509.065 249.283)" stroke="#000" stroke-width="6.377"/><path d="M318.9 1318.1c55.065-122.32 70.866-336.61 70.866-372.05 0-99.782-32.948-585.11-35.433-779.53s124.02-301.18 248.03-301.18c106.3 0 177.17 70.866 177.17 177.17h-53.15c0-70.866-53.15-124.02-124.02-124.02-106.3 0-187.99 83.74-194.88 248.03-7.605 189.89 21.316 682.94 17.717 814.96s-51.234 249.72-106.3 336.61z" transform="matrix(-.062 0 0 .066 605.942 249.283)" stroke="#fdc301" stroke-width="16.071"/><path d="M779.41 912.6s-.12 103.6 0 179.24c.12 75.63 19.822 104.91 54.262 103.59 34.44-1.33 41.108-58.83 34.53-92.08-6.576-33.26-53.24-198.97-53.24-198.97l-35.552 8.222z" transform="matrix(-.053 -.034 -.033 .056 626.212 284.101)" stroke="#000" stroke-width="6.377"/><path d="M779.53 32.884c124.13.14 177.77 102.39 177.46 100.31l-35.734 33.347c-18.985 17.718-141.73 17.718-140.21 17.627l-1.52-151.29z" transform="matrix(.062 0 0 .066 509.065 249.283)" stroke="#000" stroke-width="6.377"/><path d="M779.41 912.6s-.12 103.6 0 179.24c.12 75.63 19.822 104.91 54.262 103.59 34.44-1.33 41.108-58.83 34.53-92.08-6.576-33.26-53.24-198.97-53.24-198.97l-35.552 8.222z" transform="matrix(-.06 -.013 -.013 .064 615.241 260.984)" stroke="#000" stroke-width="6.377"/><path d="M779.41 912.6s-.12 103.6 0 179.24c.12 75.63 19.822 104.91 54.262 103.59 34.44-1.33 41.108-58.83 34.53-92.08-6.576-33.26-53.24-198.97-53.24-198.97l-35.552 8.222z" transform="matrix(-.062 0 0 .066 605.934 249.283)" stroke="#000" stroke-width="6.377"/><path d="M779.53 255.12c159.57-1.394 177.16-35.432 177.16-35.432s35.43-70.866 17.716-88.584c-17.717-17.716-194.88-17.716-194.88-17.716v141.73z" transform="matrix(-.039 0 0 .066 587.555 292.232)" stroke="#000" stroke-width="8.095"/><path d="M779.53 255.12c106.3 0 124.02-35.432 124.02-35.432s35.43-70.866 17.716-88.584c-17.717-17.716-141.73-17.716-141.73-17.716v141.73z" transform="matrix(-.062 0 0 .066 605.934 287.587)" stroke="#000" stroke-width="6.377"/><path d="M779.53 255.12c88.583 0 141.73-35.433 141.73-35.433s35.43-70.866 17.716-88.584c-17.72-17.72-159.45-17.71-159.45-17.71v141.73z" transform="matrix(-.062 0 0 .066 605.934 282.942)" stroke="#000" stroke-width="6.377"/><path d="M832.68 113.39s70.866-88.583 194.88-177.17c124.01-88.582 213.73-156.72 230.31-141.73 0 17.717-106.3 106.3-194.88 177.17C974.4 42.52 868.1 148.82 868.1 148.82l-35.433-35.433z" transform="matrix(-.077 0 0 .066 617.996 249.417)" stroke="#000" stroke-width="5.724"/><path d="M832.68 113.39s70.05-52.025 204.38-124.02c132.23-63.918 318.89-53.15 318.89-35.433-17.71 17.716-177.16 17.716-283.46 70.866-101.48 50.73-204.39 124.01-204.39 124.01l-35.433-35.433z" transform="matrix(-.077 0 0 .066 617.366 254.062)" stroke="#000" stroke-width="5.724"/><path d="M832.68 113.39s61.675-35.068 204.38-88.583c141.72-53.15 329.87-17.717 329.87 0-17.7 17.713-170.4 6.944-276.7 35.43-109.99 27.757-222.09 88.583-222.09 88.583l-35.433-35.433z" transform="matrix(-.077 0 0 .066 617.308 262.059)" stroke="#000" stroke-width="5.724"/><path d="M832.68 113.39s71.08-70.976 222.47-88.583c152.3-17.72 276.3 88.583 276.3 106.29-17.7 17.72-159.5-77.972-265.7-64.286-112.67 13.655-197.69 82.007-197.69 82.007l-35.433-35.433z" transform="matrix(-.077 0 0 .066 616.787 270.174)" stroke="#000" stroke-width="5.724"/><path d="M779.53 255.12c159.57-1.394 159.45-45.508 159.45-45.508s35.43-70.866 17.716-88.584c-17.717-17.716-177.16-7.64-177.16-7.64v141.73z" transform="matrix(-.062 0 0 .066 605.934 277.146)" stroke="#000" stroke-width="6.377"/><path d="M779.53 255.12c159.57-1.394 177.16-35.432 177.16-35.432s35.43-70.866 17.716-88.584c-17.717-17.716-194.88-17.716-194.88-17.716v141.73z" transform="matrix(-.062 0 0 .066 605.934 272.5)" stroke="#000" stroke-width="6.377"/><path d="M779.53 255.12c159.57-1.394 194.88-35.433 194.88-35.433s35.43-70.866 17.716-88.583c-17.717-17.716-212.6-17.716-212.6-17.716v141.73z" transform="matrix(-.062 0 0 .066 605.934 266.696)" stroke="#000" stroke-width="6.377"/><path d="M779.53 255.12c159.57-1.394 212.6-35.433 212.6-35.433s17.714-70.866 0-88.583c-17.717-17.716-212.6-17.716-212.6-17.716v141.73z" transform="matrix(-.062 0 0 .066 605.934 260.892)" stroke="#000" stroke-width="6.377"/><path d="M832.68 113.39S946.89 24.807 946.89-46.06c0-70.866-50.35-141.73-64.625-177.17 28.552 0 93.176 106.3 93.176 177.17 0 77.444-107.32 194.88-107.32 194.88l-35.432-35.433z" transform="matrix(-.077 0 0 .066 619.508 244.638)" stroke="#000" stroke-width="5.724"/><path d="M832.68 113.39s-14.276-53.15-14.276-159.45c0-124.02 63-202.89 85.654-230.32 5.898 27.422-57.102 124.02-57.102 230.32 0 77.444 21.157 194.88 21.157 194.88l-35.433-35.433z" transform="matrix(-.077 0 0 .066 619.508 244.638)" stroke="#000" stroke-width="5.724"/><path d="M779.53 255.12c159.57-1.394 212.6-35.433 212.6-35.433s0-70.866-17.716-88.583c-17.717-17.716-194.88-17.716-194.88-17.716v141.73z" transform="matrix(-.062 0 0 .066 605.934 255.087)" stroke="#000" stroke-width="6.377"/><path d="M779.53 255.12c159.57-1.394 194.88-35.433 194.88-35.433s0-70.866-17.716-88.583c-17.717-17.716-177.16-17.716-177.16-17.716v141.73z" transform="matrix(-.062 0 0 .066 605.934 249.283)" stroke="#000" stroke-width="6.377"/><path d="M318.9 1318.1c55.065-122.32 70.866-336.61 70.866-372.05 0-99.782-32.948-585.11-35.433-779.53s124.02-301.18 248.03-301.18c106.3 0 177.17 70.866 177.17 177.17h-53.15c0-70.866-53.15-124.02-124.02-124.02-106.3 0-187.99 83.74-194.88 248.03-7.605 189.89 21.316 682.94 17.717 814.96s-51.234 249.72-106.3 336.61z" transform="matrix(.062 0 0 .066 509.057 249.283)" stroke="#fdc301" stroke-width="16.071"/><path d="M779.53 32.884c124.13.14 177.77 102.39 177.46 100.31l-35.734 33.347c-18.985 17.718-141.73 17.718-140.21 17.627l-1.52-151.29z" transform="matrix(-.062 0 0 .066 605.934 249.283)" stroke="#000" stroke-width="6.377"/></g></g></g></svg>