<svg xmlns="http://www.w3.org/2000/svg" height="480" width="640" version="1"><defs><clipPath id="a"><path fill-opacity=".67" d="M42.666 0h682.67v512H42.666z"/></clipPath></defs><g fill-rule="evenodd" clip-path="url(#a)" transform="matrix(.938 0 0 .938 -40 0)"><path stroke-width="1pt" fill="#004e00" d="M0 0h768v512H0z"/><g stroke-width="1pt"><path d="M260.48 171.77h14.115" fill="#ffef00"/><path d="M263.24 137.424c27.92 13.477 61.136-.01 73.14-18.57 12.31-17.32 13.795-46.42-7.54-73.142 33.105 27.453 40.447 58.546 24.015 84.13-21.922 29.232-70.62 28.34-89.616 7.582z" fill="#fff"/><path fill="#feffff" d="M312.863 69.41l5.617.07-4.445 3.527 1.667 5.517-4.635-3.26-4.588 3.336 1.582-5.54-4.5-3.45 5.61-.168 1.802-5.47z"/><path fill="#feffff" d="M285.152 104.15l5.617.072-4.446 3.527 1.667 5.516-4.634-3.26-4.588 3.336 1.583-5.54-4.5-3.45 5.612-.168 1.8-5.47z"/><path fill="#feffff" d="M286.978 76.73l5.617.072-4.445 3.527 1.667 5.516-4.635-3.26-4.588 3.336 1.583-5.54-4.5-3.45 5.61-.168 1.802-5.47z"/><path fill="#feffff" d="M286.978 49.295l5.617.07-4.445 3.528 1.667 5.517-4.635-3.26-4.588 3.336 1.583-5.54-4.5-3.45 5.61-.168 1.802-5.47z"/><path fill="#feffff" d="M256.18 84.045l5.618.07-4.445 3.528 1.667 5.517-4.635-3.26-4.588 3.336 1.583-5.54-4.5-3.45 5.61-.168 1.802-5.47z"/></g><g><path stroke-width="1.032pt" fill="#980000" d="M47.542 0H212.11v511.984H47.542z"/><g stroke-width="1pt" fill="#e69900"><path d="M47.532 133.453v-3.656l6.803-9.142-1.372-1.828 4.114-5.485-1.37-1.828-2.744 3.656-1.37-1.828 9.598-12.8 1.372 1.83-1.37 1.828 2.825 3.694 6.773-9.18-6.886-8.895-2.713 3.41 1.372 1.828-1.37 1.83-9.6-12.8 1.37-1.828 2.744 3.657 1.37-1.83-4.113-5.484 1.372-1.828-6.803-9.142v-3.656l9.545 12.798-1.37 1.828 4.113 5.485-2.743 3.657L59.82 91.4l4.113-5.483 9.653 13.016-9.653 12.58-4.113-5.484-2.743 3.655 2.743 3.657-4.114 5.485 1.37 1.828-9.544 12.798z"/><path d="M47.53 87.746l1.373 3.656v5.486h4.114l2.742 1.828-2.743 1.828h-4.114v5.486l-1.372 3.656v-21.94z"/></g><g stroke-width="1pt" fill="#e69900"><path d="M47.532 221.222v-3.656l6.803-9.142-1.372-1.828 4.114-5.485-1.37-1.827-2.744 3.656-1.37-1.83 9.598-12.798 1.372 1.83-1.37 1.827 2.825 3.693 6.773-9.18-6.886-8.895-2.713 3.41 1.372 1.83-1.37 1.828-9.6-12.8 1.37-1.827 2.744 3.656 1.37-1.83-4.113-5.484 1.372-1.828-6.803-9.142v-3.656l9.545 12.798-1.37 1.828 4.113 5.485-2.743 3.657 2.743 3.656 4.113-5.484 9.653 13.016-9.653 12.58-4.113-5.484-2.743 3.656 2.743 3.657-4.114 5.486 1.37 1.828-9.544 12.798z"/><path d="M47.53 175.515l1.373 3.656v5.487h4.114l2.742 1.828-2.743 1.828h-4.114v5.486l-1.372 3.655v-21.94z"/></g><g stroke-width="1pt" fill="#e69900"><path d="M47.533 308.992v-3.656l6.803-9.142-1.372-1.828 4.114-5.485-1.37-1.827-2.744 3.656-1.37-1.83 9.598-12.798 1.37 1.83-1.37 1.827 2.826 3.693 6.773-9.18-6.885-8.895-2.713 3.41 1.37 1.83-1.37 1.828-9.6-12.8 1.372-1.827 2.743 3.656 1.37-1.83-4.113-5.484 1.372-1.828-6.803-9.142v-3.656l9.545 12.798-1.37 1.828 4.113 5.485-2.742 3.657 2.743 3.656 4.114-5.484 9.653 13.016-9.653 12.58-4.113-5.484-2.742 3.656 2.743 3.657-4.113 5.486 1.37 1.828-9.544 12.798z"/><path d="M47.532 263.285l1.372 3.656v5.487h4.114l2.742 1.828-2.742 1.828h-4.114v5.486l-1.372 3.655v-21.94z"/></g><g stroke-width="1pt" fill="#e69900"><path d="M47.533 391.272v-3.656l6.803-9.142-1.372-1.828 4.114-5.485-1.37-1.827-2.744 3.656-1.37-1.83 9.598-12.798 1.37 1.83-1.37 1.827 2.826 3.693 6.773-9.18-6.885-8.895-2.713 3.41 1.37 1.83-1.37 1.828-9.6-12.8 1.372-1.827 2.743 3.656 1.37-1.83-4.113-5.484 1.372-1.828-6.803-9.142v-3.656l9.545 12.798-1.37 1.828 4.113 5.485-2.742 3.657 2.743 3.656 4.114-5.484 9.653 13.016-9.653 12.58-4.113-5.484-2.742 3.656 2.743 3.657-4.113 5.486 1.37 1.828-9.544 12.798z"/><path d="M47.532 345.565l1.372 3.656v5.487h4.114l2.742 1.828-2.742 1.828h-4.114v5.486l-1.372 3.655v-21.94z"/></g><g stroke-width="1pt" fill="#e69900"><path d="M212.116 133.453v-3.656l-6.803-9.142 1.372-1.828-4.114-5.485 1.372-1.828 2.743 3.656 1.37-1.828-9.598-12.8-1.37 1.83 1.37 1.828-2.826 3.694-6.772-9.18 6.886-8.895 2.713 3.41-1.37 1.828 1.37 1.83 9.6-12.8-1.372-1.828-2.743 3.657-1.37-1.83 4.113-5.484-1.372-1.828 6.803-9.142v-3.656l-9.545 12.798 1.372 1.828-4.114 5.485 2.743 3.657-2.742 3.656-4.113-5.483-9.653 13.016 9.653 12.58 4.113-5.484 2.743 3.655-2.742 3.657 4.114 5.485-1.37 1.828 9.544 12.798z"/><path d="M212.117 87.746l-1.372 3.656v5.486h-4.114l-2.74 1.828 2.74 1.828h4.115v5.486l1.372 3.656v-21.94z"/></g><g stroke-width="1pt" fill="#e69900"><path d="M212.57 221.223v-3.656l-6.803-9.142 1.372-1.828-4.115-5.485 1.37-1.828 2.744 3.656 1.37-1.828-9.6-12.8-1.37 1.83 1.37 1.828-2.825 3.694-6.773-9.18 6.886-8.895 2.713 3.41-1.37 1.828 1.37 1.83 9.6-12.8-1.37-1.828-2.744 3.657-1.37-1.83 4.113-5.484-1.373-1.828 6.803-9.142v-3.656l-9.545 12.798 1.37 1.828-4.113 5.485 2.743 3.657-2.743 3.656-4.113-5.483-9.654 13.016 9.653 12.58 4.112-5.484 2.743 3.655-2.743 3.657 4.114 5.485-1.37 1.828 9.544 12.798z"/><path d="M212.57 175.516l-1.37 3.656v5.486h-4.115l-2.742 1.828 2.742 1.828h4.114v5.486l1.37 3.656v-21.94z"/></g><g stroke-width="1pt" fill="#e69900"><path d="M212.116 308.992v-3.656l-6.803-9.142 1.372-1.828-4.114-5.485 1.372-1.827 2.743 3.656 1.37-1.83-9.598-12.798-1.37 1.83 1.37 1.827-2.826 3.693-6.772-9.18 6.886-8.895 2.713 3.41-1.37 1.83 1.37 1.828 9.6-12.8-1.372-1.827-2.743 3.656-1.37-1.83 4.113-5.484-1.372-1.828 6.803-9.142v-3.656l-9.545 12.798 1.372 1.828-4.114 5.485 2.743 3.657-2.742 3.656-4.113-5.484-9.653 13.016 9.653 12.58 4.113-5.484 2.743 3.656-2.742 3.657 4.114 5.486-1.37 1.828 9.544 12.798z"/><path d="M212.117 263.285l-1.372 3.656v5.487h-4.114l-2.74 1.828 2.74 1.828h4.115v5.486l1.372 3.655v-21.94z"/></g><g stroke-width="1pt" fill="#e69900"><path d="M212.116 391.272v-3.656l-6.803-9.142 1.372-1.828-4.114-5.485 1.372-1.827 2.743 3.656 1.37-1.83-9.598-12.798-1.37 1.83 1.37 1.827-2.826 3.693-6.772-9.18 6.886-8.895 2.713 3.41-1.37 1.83 1.37 1.828 9.6-12.8-1.372-1.827-2.743 3.656-1.37-1.83 4.113-5.484-1.372-1.828 6.803-9.142v-3.656l-9.545 12.798 1.372 1.828-4.114 5.485 2.743 3.657-2.742 3.656-4.113-5.484-9.653 13.016 9.653 12.58 4.113-5.484 2.743 3.656-2.742 3.657 4.114 5.486-1.37 1.828 9.544 12.798z"/><path d="M212.117 345.565l-1.372 3.656v5.487h-4.114l-2.74 1.828 2.74 1.828h4.115v5.486l1.372 3.655v-21.94z"/></g><g stroke-width="1pt" fill="#e69900"><path d="M47.545 34.737V31.08l6.803-9.14-1.372-1.83 4.114-5.484-1.37-1.828-2.744 3.656-1.37-1.828 9.598-12.8 1.37 1.83-1.37 1.828 2.826 3.694 6.773-9.18H73.6l-9.654 12.8-4.113-5.485-2.743 3.656 2.743 3.656-4.114 5.485 1.37 1.83-9.545 12.797z"/><path d="M47.546 0h8.228l-2.742 1.828h-4.114v5.486l-1.372 3.656V0z"/></g><g stroke-width="1pt" fill="#e69900"><path d="M212.104 34.737V31.08l-6.803-9.14 1.373-1.83-4.114-5.484 1.37-1.828 2.743 3.656 1.37-1.828-9.598-12.8-1.37 1.83 1.37 1.828-2.826 3.694-6.774-9.18h-2.796l9.653 12.8 4.113-5.485 2.743 3.656-2.744 3.656 4.114 5.485-1.37 1.83 9.544 12.797z"/><path d="M212.103 0h-8.228l2.742 1.828h4.114v5.486l1.373 3.656V0z"/></g><path d="M63.64 485.46s11.048-14.584 38.89-19.003c27.843-4.42 32.705 9.723 48.614 9.723 15.91 0 41.1-9.723 41.1-9.723s-25.19 18.56-44.635 18.12c-19.447-.442-26.076-9.723-45.963-8.397-19.888 1.325-38.007 9.722-38.007 9.28z" transform="matrix(.535 0 0 .711 82.106 159.609)" stroke-width="1pt" fill="#e69900"/><path d="M63.64 485.46s11.048-14.584 38.89-19.003c27.843-4.42 32.705 9.723 48.614 9.723 15.91 0 41.1-9.723 41.1-9.723s-25.19 18.56-44.635 18.12c-19.447-.442-26.076-9.723-45.963-8.397-19.888 1.325-38.007 9.722-38.007 9.28z" transform="matrix(-.535 0 0 .711 178.835 159.609)" stroke-width="1pt" fill="#e69900"/><g stroke-width="1pt" fill="#e69900"><path d="M96.197 487.466c-1.31-2.742-4.584-14.706-2.838-16.202 2.62-.996 9.605 11.217 8.95 22.185-4.584 2.49-20.085-.998-19.867-4.24 1.092-4.486 9.825-2.99 13.754-1.744z"/><path d="M86.878 477.082c-.858-3.044-2.215-15.655-.276-16.638 2.715-.254 7.662 13.623 5.33 24.177-4.867 1.178-19.485-6.505-18.772-9.617 1.76-4.09 10.068-.222 13.718 2.08z"/><path d="M79.188 465.13c-.58-3.154-.797-15.88 1.218-16.55 2.723.175 6.396 14.722 3.13 24.827-4.943.4-18.787-9.523-17.8-12.498 2.117-3.783 10.03 1.363 13.452 4.22z"/><path d="M73.442 453.115c-.21-3.242 1.045-15.877 3.113-16.122 2.67.74 4.62 15.895.228 25.212-4.93-.63-17.462-13.325-16.143-16.063 2.527-3.302 9.75 3.434 12.802 6.973z"/><path d="M69.038 439.806c.145-3.245 2.754-15.498 4.826-15.346 2.56 1.24 2.846 16.595-2.507 24.97-4.808-1.562-15.825-16.502-14.223-18.957 2.857-2.783 9.27 5.253 11.904 9.333z"/><path d="M70.427 425.057c-.34 12.993-2.7 13.15-7.022 3.55-1.912-3.626-2.163-18.695-.445-19.26 2.485-.053 7.394 10.687 7.467 15.71z"/></g><g stroke-width="1pt" fill="#e69900"><path d="M164.03 488.835c1.31-2.742 4.584-14.706 2.838-16.202-2.62-.996-9.606 11.217-8.952 22.185 4.585 2.492 20.086-.997 19.868-4.238-1.092-4.487-9.825-2.99-13.754-1.745z"/><path d="M173.35 478.45c.857-3.043 2.214-15.654.275-16.637-2.715-.254-7.662 13.623-5.33 24.177 4.867 1.177 19.485-6.506 18.772-9.618-1.76-4.09-10.068-.222-13.718 2.08z"/><path d="M181.04 466.5c.58-3.155.796-15.882-1.22-16.552-2.722.176-6.395 14.723-3.13 24.828 4.944.4 18.788-9.523 17.8-12.498-2.116-3.782-10.03 1.364-13.45 4.222z"/><path d="M186.785 454.484c.21-3.242-1.045-15.877-3.113-16.122-2.67.74-4.62 15.895-.228 25.212 4.93-.63 17.462-13.325 16.143-16.063-2.527-3.3-9.75 3.435-12.802 6.974z"/><path d="M191.19 441.175c-.146-3.245-2.755-15.498-4.827-15.346-2.56 1.24-2.846 16.594 2.507 24.97 4.808-1.563 15.825-16.503 14.223-18.958-2.857-2.783-9.27 5.253-11.904 9.333z"/><path d="M189.8 426.426c.34 12.993 2.7 13.15 7.022 3.55 1.912-3.626 2.163-18.695.445-19.26-2.485-.053-7.394 10.687-7.467 15.71z"/></g><g transform="matrix(1 0 0 1.265 188.257 -77.027)"><path d="M-3.543 290.55h-5.315v3.543h-5.315v3.543h-21.26l-3.543 3.544 1.77 1.77h8.86l1.77-1.77h-8.857l1.772-1.772h12.4l-5.314 5.315h-12.402l-3.544-1.772-3.543 1.772h-12.402l-5.315-5.316 12.402.002 1.77 1.772-8.857-.002 1.772 1.773h8.858l1.772-1.77-3.544-3.544h-19.488v-3.543h-5.315v-3.543h-5.315v-15.945h5.315v-3.543h5.315v-3.543h19.488l3.544-3.545-1.772-1.77h-8.858l-1.772 1.772 8.858-.002-1.77 1.772-12.403.002 5.315-5.318h12.402l3.543 1.772 3.544-1.772h12.402l5.315 5.315h-12.4l-1.773-1.772h8.858l-1.772-1.77h-8.858l-1.77 1.77 3.542 3.544h21.26v3.542h5.315v3.543h5.315v15.945z" transform="matrix(1.488 0 0 1.24 3.502 -39.474)" stroke="#000" stroke-width=".133" fill="#980000"/><path d="M375.59 499.67v24.803h10.63v7.02h10.63v7.086h35.432l14.174 10.63 14.173-10.63h38.975v-7.02l10.63-.068v-7.087h10.63v-24.803h-10.63v-7.086l-10.63.068v-7.155H460.63l-14.174-10.63-14.174 10.63H396.85v7.154h-10.63v7.086h-10.63z" transform="matrix(.744 0 0 .62 -392.03 -6.521)" stroke="#e69900" stroke-width="1.067pt" fill="#004e00"/><path d="M425.2 492.52l-21.26 17.716V492.52h21.26z" transform="matrix(.744 0 0 .62 -392.03 -8.718)" stroke-width="1pt" fill="#980000"/><path d="M425.2 492.52l-21.26 17.717V492.52h21.26z" transform="matrix(-.744 0 0 .62 272.46 -8.718)" stroke-width="1pt" fill="#980000"/><path d="M425.2 492.52l-21.26 17.716V492.52h21.26z" transform="matrix(.744 0 0 -.62 -392.03 630.57)" stroke-width="1pt" fill="#980000"/><path d="M425.2 492.52l-21.26 17.717V492.52h21.26z" transform="matrix(-.744 0 0 -.62 272.46 630.57)" stroke-width="1pt" fill="#980000"/><path d="M474.8 506.69l-7.086 7.087h14.173l-7.087-7.087z" transform="matrix(.744 0 0 .62 -392.03 -10.915)" stroke-width="1pt" fill="#980000"/><path d="M418.11 506.69l-7.086 7.087h14.173l-7.087-7.087z" transform="matrix(.744 0 0 .62 -392.03 -10.915)" stroke-width="1pt" fill="#980000"/><path d="M418.11 506.69l-7.086 7.087h14.173l-7.087-7.087z" transform="matrix(.744 0 0 -.62 -392.03 632.77)" stroke-width="1pt" fill="#980000"/><path d="M418.11 506.69l-7.086 7.087h14.173l-7.087-7.087z" transform="matrix(.744 0 0 -.62 -349.84 632.77)" stroke-width="1pt" fill="#980000"/><path d="M418.11 506.69l-7.086 7.087h14.173l-7.087-7.087z" transform="matrix(.744 0 0 -.62 -370.94 643.75)" stroke-width="1pt" fill="#e69900"/><path d="M418.11 506.69l-7.086 7.087h14.173l-7.087-7.087z" transform="matrix(.744 0 0 -.62 -370.94 621.78)" stroke-width="1pt" fill="#e69900"/><path d="M418.11 506.69l-7.086 7.087h14.173l-7.087-7.087z" transform="matrix(.744 0 0 .62 -370.94 -21.899)" stroke-width="1pt" fill="#e69900"/><path d="M418.11 506.69l-7.086 7.087h14.173l-7.087-7.087z" transform="matrix(.744 0 0 .62 -370.94 .069)" stroke-width="1pt" fill="#e69900"/><path transform="matrix(.744 0 0 .62 -392.03 -6.521)" stroke="#000" stroke-width=".133" fill="#e69900" d="M467.72 506.69h14.173v3.543H467.72z"/><path transform="matrix(.744 0 0 .62 -392.03 -6.521)" stroke="#000" stroke-width=".133" fill="#c00" d="M414.57 510.24h7.087v3.543h-7.087z"/><path transform="matrix(.744 0 0 .62 -392.03 -6.521)" stroke="#000" stroke-width=".133" fill="#c00" d="M471.26 510.24h7.087v3.543h-7.087z"/><path transform="matrix(.744 0 0 .62 -392.03 -6.521)" stroke="#000" stroke-width=".133" fill="#900" d="M439.37 488.98h14.173v3.543H439.37z"/><path transform="matrix(.744 0 0 .62 -392.03 -6.521)" stroke="#000" stroke-width=".133" fill="#900" d="M439.37 496.06h14.173v3.543H439.37z"/><path transform="matrix(.744 0 0 .62 -392.03 -6.521)" stroke="#000" stroke-width=".133" fill="#900" d="M435.83 492.52h21.26v3.543h-21.26z"/><path transform="matrix(.744 0 0 .62 -392.03 -6.521)" stroke="#000" stroke-width=".133" fill="#900" d="M439.37 524.41h14.173v3.543H439.37z"/><path transform="matrix(.744 0 0 .62 -392.03 -6.521)" stroke="#000" stroke-width=".133" fill="#900" d="M439.37 531.5h14.173v3.543H439.37z"/><path transform="matrix(.744 0 0 .62 -392.03 -6.521)" stroke="#000" stroke-width=".133" fill="#900" d="M435.83 527.95h21.26v3.543h-21.26z"/><path transform="matrix(.744 0 0 .62 -392.03 -6.521)" stroke="#000" stroke-width=".133" fill="#e69900" d="M467.72 513.78h14.173v3.543H467.72z"/><path transform="matrix(.744 0 0 .62 -392.03 -6.521)" stroke="#000" stroke-width=".133" fill="#e69900" d="M411.02 506.69h14.173v3.543H411.02z"/><path transform="matrix(.744 0 0 .62 -392.03 -6.521)" stroke="#000" stroke-width=".133" fill="#e69900" d="M411.02 513.78h14.173v3.543H411.02z"/><path transform="matrix(.744 0 0 .62 -392.03 -6.521)" stroke="#000" stroke-width=".133" fill="#e69900" d="M407.48 510.24h7.087v3.543h-7.087z"/><path transform="matrix(.744 0 0 .62 -392.03 -6.521)" stroke="#000" stroke-width=".133" fill="#e69900" d="M421.65 510.24h7.087v3.543h-7.087z"/><path transform="matrix(.744 0 0 .62 -392.03 -6.521)" stroke="#000" stroke-width=".133" fill="#e69900" d="M464.17 510.24h7.087v3.543h-7.087z"/><path transform="matrix(.744 0 0 .62 -392.03 -6.521)" stroke="#000" stroke-width=".133" fill="#e69900" d="M478.35 510.24h7.087v3.543h-7.087z"/><ellipse fill="#fff" transform="matrix(.744 0 0 .62 -374.14 -38.912)" cx="413.68" rx=".886" cy="581.99" ry=".886" stroke-width="1pt"/><ellipse fill="#fff" transform="matrix(.744 0 0 .62 -367.57 -38.912)" cx="413.68" rx=".886" cy="581.99" ry=".886" stroke-width="1pt"/><ellipse fill="#fff" transform="matrix(.744 0 0 .62 -361 -38.958)" cx="413.68" rx=".886" cy="581.99" ry=".886" stroke-width="1pt"/><ellipse fill="#fff" transform="matrix(.744 0 0 .62 -371.51 -41.102)" cx="413.68" rx=".886" cy="581.99" ry=".886" stroke-width="1pt"/><ellipse fill="#fff" transform="matrix(.744 0 0 .62 -363.68 -41.148)" cx="413.68" rx=".886" cy="581.99" ry=".886" stroke-width="1pt"/><ellipse fill="#fff" transform="matrix(.744 0 0 .62 -371.57 -36.768)" cx="413.68" rx=".886" cy="581.99" ry=".886" stroke-width="1pt"/><ellipse fill="#fff" transform="matrix(.744 0 0 .62 -363.68 -36.677)" cx="413.68" rx=".886" cy="581.99" ry=".886" stroke-width="1pt"/><ellipse fill="#fff" transform="matrix(.744 0 0 .62 -353.17 -49.999)" cx="413.68" rx=".886" cy="581.99" ry=".886" stroke-width="1pt"/><ellipse fill="#fff" transform="matrix(.744 0 0 .62 -346.59 -49.999)" cx="413.68" rx=".886" cy="581.99" ry=".886" stroke-width="1pt"/><ellipse fill="#fff" transform="matrix(.744 0 0 .62 -340.02 -50.045)" cx="413.68" rx=".886" cy="581.99" ry=".886" stroke-width="1pt"/><ellipse fill="#fff" transform="matrix(.744 0 0 .62 -350.54 -52.189)" cx="413.68" rx=".886" cy="581.99" ry=".886" stroke-width="1pt"/><ellipse fill="#fff" transform="matrix(.744 0 0 .62 -342.71 -52.235)" cx="413.68" rx=".886" cy="581.99" ry=".886" stroke-width="1pt"/><ellipse fill="#fff" transform="matrix(.744 0 0 .62 -350.59 -47.855)" cx="413.68" rx=".886" cy="581.99" ry=".886" stroke-width="1pt"/><ellipse fill="#fff" transform="matrix(.744 0 0 .62 -342.71 -47.764)" cx="413.68" rx=".886" cy="581.99" ry=".886" stroke-width="1pt"/><ellipse fill="#fff" transform="matrix(.744 0 0 .62 -374.2 -60.904)" cx="413.68" rx=".886" cy="581.99" ry=".886" stroke-width="1pt"/><ellipse fill="#fff" transform="matrix(.744 0 0 .62 -367.62 -60.904)" cx="413.68" rx=".886" cy="581.99" ry=".886" stroke-width="1pt"/><ellipse fill="#fff" transform="matrix(.744 0 0 .62 -361.05 -60.949)" cx="413.68" rx=".886" cy="581.99" ry=".886" stroke-width="1pt"/><ellipse fill="#fff" transform="matrix(.744 0 0 .62 -371.57 -63.094)" cx="413.68" rx=".886" cy="581.99" ry=".886" stroke-width="1pt"/><ellipse fill="#fff" transform="matrix(.744 0 0 .62 -363.74 -63.139)" cx="413.68" rx=".886" cy="581.99" ry=".886" stroke-width="1pt"/><ellipse fill="#fff" transform="matrix(.744 0 0 .62 -371.62 -58.759)" cx="413.68" rx=".886" cy="581.99" ry=".886" stroke-width="1pt"/><ellipse fill="#fff" transform="matrix(.744 0 0 .62 -363.74 -58.668)" cx="413.68" rx=".886" cy="581.99" ry=".886" stroke-width="1pt"/><ellipse fill="#fff" transform="matrix(.744 0 0 .62 -395.28 -49.817)" cx="413.68" rx=".886" cy="581.99" ry=".886" stroke-width="1pt"/><ellipse fill="#fff" transform="matrix(.744 0 0 .62 -388.71 -49.817)" cx="413.68" rx=".886" cy="581.99" ry=".886" stroke-width="1pt"/><ellipse fill="#fff" transform="matrix(.744 0 0 .62 -382.14 -49.862)" cx="413.68" rx=".886" cy="581.99" ry=".886" stroke-width="1pt"/><ellipse fill="#fff" transform="matrix(.744 0 0 .62 -392.65 -52.007)" cx="413.68" rx=".886" cy="581.99" ry=".886" stroke-width="1pt"/><ellipse fill="#fff" transform="matrix(.744 0 0 .62 -384.82 -52.052)" cx="413.68" rx=".886" cy="581.99" ry=".886" stroke-width="1pt"/><ellipse fill="#fff" transform="matrix(.744 0 0 .62 -392.71 -47.672)" cx="413.68" rx=".886" cy="581.99" ry=".886" stroke-width="1pt"/><ellipse fill="#fff" transform="matrix(.744 0 0 .62 -384.82 -47.581)" cx="413.68" rx=".886" cy="581.99" ry=".886" stroke-width="1pt"/></g><g><path d="M-79.724 145.28l3.543 3.543 3.543-3.543h-7.087z" transform="matrix(1.28 0 0 -.6 240.903 342.724)" stroke-width="1pt" fill="#fff"/><path d="M-79.724 145.28l3.543 3.543 3.543-3.543h-7.087z" transform="matrix(1.28 0 0 -.6 227.301 342.724)" stroke-width="1pt" fill="#fff"/><path d="M-79.724 145.28l3.543 3.543 3.543-3.543h-7.087z" transform="matrix(1.28 0 0 -.6 213.698 342.724)" stroke-width="1pt" fill="#fff"/><path d="M-79.724 145.28l3.543 3.543 3.543-3.543h-7.087z" transform="matrix(1.28 0 0 .6 240.903 119.698)" stroke-width="1pt" fill="#fff"/><path d="M-79.724 145.28l3.543 3.543 3.543-3.543h-7.087z" transform="matrix(1.28 0 0 .6 227.301 119.698)" stroke-width="1pt" fill="#fff"/><path d="M-79.724 145.28l3.543 3.543 3.543-3.543h-7.087z" transform="matrix(1.28 0 0 .6 213.698 119.698)" stroke-width="1pt" fill="#fff"/><path d="M-83.268 219.68l-5.315-3.544-5.315 3.544-5.315-3.544-5.314 3.544v-1.77l3.543-1.774-1.772-1.77v-1.773h1.772l1.77 1.772 1.773-1.772h1.77v1.772l-1.77 1.77 3.542 1.773 3.544-1.772-1.772-1.77v-1.773h1.772l1.77 1.772 1.773-1.772h1.77v1.772l-1.77 1.77 3.542 1.773 3.544-1.77-1.772-1.773v-1.772h1.772l1.77 1.772 1.773-1.772h1.77v1.772l-1.77 1.772 3.542 1.772v1.77l-5.315-3.543-5.315 3.543z" transform="matrix(.995 0 0 -1.199 217.981 525.391)" stroke-width="0" fill="#004e00"/><path d="M-83.268 219.68l-5.315-3.544-5.315 3.544-5.315-3.544-5.314 3.544v-1.77l3.543-1.774-1.772-1.77v-1.773h1.772l1.77 1.772 1.773-1.772h1.77v1.772l-1.77 1.77 3.542 1.773 3.544-1.772-1.772-1.77v-1.773h1.772l1.77 1.772 1.773-1.772h1.77v1.772l-1.77 1.77 3.542 1.773 3.544-1.77-1.772-1.773v-1.772h1.772l1.77 1.772 1.773-1.772h1.77v1.772l-1.77 1.772 3.542 1.772v1.77l-5.315-3.543-5.315 3.543z" transform="matrix(.995 0 0 1.199 217.982 -62.98)" stroke-width="0" fill="#004e00"/><path d="M-83.268 219.68l-5.315-3.544-5.315 3.544-5.315-3.544-5.314 3.544v-1.77l3.543-1.774-1.772-1.77v-1.773h1.772l1.77 1.772 1.773-1.772h1.77v1.772l-1.77 1.77 3.542 1.773 3.544-1.772-1.772-1.77v-1.773h1.772l1.77 1.772 1.773-1.772h1.77v1.772l-1.77 1.77 3.542 1.773 3.544-1.77-1.772-1.773v-1.772h1.772l1.77 1.772 1.773-1.772h1.77v1.772l-1.77 1.772 3.542 1.772v1.77l-5.315-3.543-5.315 3.543z" transform="matrix(0 .866 -1.6 0 526.548 307.917)" stroke-width="0" fill="#004e00"/><path d="M-83.268 219.68l-5.315-3.544-5.315 3.544-5.315-3.544-5.314 3.544v-1.77l3.543-1.774-1.772-1.77v-1.773h1.772l1.77 1.772 1.773-1.772h1.77v1.772l-1.77 1.77 3.542 1.773 3.544-1.772-1.772-1.77v-1.773h1.772l1.77 1.772 1.773-1.772h1.77v1.772l-1.77 1.77 3.542 1.773 3.544-1.77-1.772-1.773v-1.772h1.772l1.77 1.772 1.773-1.772h1.77v1.772l-1.77 1.772 3.542 1.772v1.77l-5.315-3.543-5.315 3.543z" transform="matrix(0 .866 1.6 0 -266.916 307.917)" stroke-width="0" fill="#004e00"/><path transform="matrix(1.28 0 0 1.199 211.43 -5.642)" stroke="#000" stroke-width=".267" fill="#004e00" d="M-26.575 214.37h1.772v1.772h-1.772z"/><path transform="matrix(1.28 0 0 1.199 211.43 -5.642)" stroke="#000" stroke-width=".267" fill="#004e00" d="M-28.346 216.14h1.772v1.772h-1.772z"/><path transform="matrix(1.28 0 0 1.199 211.43 -5.642)" stroke="#000" stroke-width=".267" fill="#004e00" d="M-37.205 225h1.772v1.772h-1.772z"/><path transform="matrix(1.28 0 0 1.199 211.43 -5.642)" stroke="#000" stroke-width=".267" fill="#004e00" d="M-35.433 223.23h1.772v1.772h-1.773z"/><path transform="matrix(1.28 0 0 1.199 211.43 -5.642)" stroke="#000" stroke-width=".267" fill="#004e00" d="M-93.898 223.23h1.772v1.772h-1.772z"/><path transform="matrix(1.28 0 0 1.199 211.43 -5.642)" stroke="#000" stroke-width=".267" fill="#004e00" d="M-102.76 214.37h1.772v1.772h-1.772z"/><path transform="matrix(1.28 0 0 1.199 211.43 -5.642)" stroke="#000" stroke-width=".267" fill="#004e00" d="M-100.98 216.14h1.772v1.772h-1.772z"/><path transform="matrix(1.28 0 0 1.199 211.43 -5.642)" stroke="#000" stroke-width=".267" fill="#004e00" d="M-100.98 177.17h1.772v1.772h-1.772z"/><path transform="matrix(1.28 0 0 1.199 211.43 -5.642)" stroke="#000" stroke-width=".267" fill="#004e00" d="M-102.76 178.94h1.772v1.772h-1.772z"/><path transform="matrix(1.28 0 0 1.199 211.43 -5.642)" stroke="#000" stroke-width=".267" fill="#004e00" d="M-92.126 168.31h1.772v1.772h-1.772z"/><path transform="matrix(1.28 0 0 1.199 211.43 -5.642)" stroke="#000" stroke-width=".267" fill="#004e00" d="M-93.898 170.08h1.772v1.772h-1.772z"/><path transform="matrix(1.28 0 0 1.199 211.43 -5.642)" stroke="#000" stroke-width=".267" fill="#004e00" d="M-37.205 168.31h1.772v1.772h-1.772z"/><path transform="matrix(1.28 0 0 1.199 211.43 -5.642)" stroke="#000" stroke-width=".267" fill="#004e00" d="M-35.433 170.08h1.772v1.772h-1.773z"/><path transform="matrix(1.28 0 0 1.199 211.43 -5.642)" stroke="#000" stroke-width=".267" fill="#004e00" d="M-28.346 177.17h1.772v1.772h-1.772z"/><path transform="matrix(1.28 0 0 1.199 211.43 -5.642)" stroke="#000" stroke-width=".267" fill="#004e00" d="M-26.575 178.94h1.772v1.772h-1.772z"/><path transform="matrix(1.28 0 0 1.199 211.43 -5.642)" stroke="#000" stroke-width=".267" fill="#004e00" d="M-92.126 225h1.772v1.772h-1.772z"/><path d="M423.42 278.15l-15.942-.002-.003-8.864 10.63.005v-8.313h10.63v-7.633h10.63v9.54c-8.802 0-15.945 6.464-15.945 15.266z" transform="matrix(.419 0 0 .471 -54.592 100.202)" stroke-width="1.25" fill="#fff"/><path d="M423.42 278.15l-15.942-.002-.003-8.864 10.63.005v-8.313h10.63v-7.633h10.63v9.54c-8.802 0-15.945 6.464-15.945 15.266z" transform="matrix(-.419 0 0 .471 313.749 100.202)" stroke-width="1.25" fill="#e69900"/><path d="M423.42 278.15l-15.942-.002-.003-8.864 10.63.005v-8.313h10.63v-7.633h10.63v9.54c-8.802 0-15.945 6.464-15.945 15.266z" transform="matrix(-.419 0 0 -.471 313.749 362.207)" stroke-width="1.25" fill="#fff"/><path d="M423.42 278.15l-15.942-.002-.003-8.864 10.63.005v-8.313h10.63v-7.633h10.63v9.54c-8.802 0-15.945 6.464-15.945 15.266z" transform="matrix(.419 0 0 -.471 -54.592 362.207)" stroke-width="1.25" fill="#e69900"/><path d="M437.6 273.72h-15.944v-15.06c8.8 0 15.944 6.748 15.944 15.06z" transform="matrix(.419 0 0 .477 -47.172 100.526)" stroke-width="1pt" fill="#004e00"/><path d="M437.6 273.72h-15.944v-15.06c8.8 0 15.944 6.748 15.944 15.06z" transform="matrix(.419 0 0 -.477 -47.172 361.884)" stroke-width="1pt" fill="#980000"/><path d="M437.6 273.72h-15.944v-15.06c8.8 0 15.944 6.748 15.944 15.06z" transform="matrix(-.419 0 0 -.477 306.329 361.884)" stroke-width="1pt" fill="#004e00"/><path d="M437.6 273.72h-15.944v-15.06c8.8 0 15.944 6.748 15.944 15.06z" transform="matrix(-.419 0 0 .477 306.329 100.526)" stroke-width="1pt" fill="#980000"/><path d="M-83.268 219.68l-5.315-3.544-5.315 3.544-5.315-3.544-5.314 3.544v-1.77l3.543-1.774-1.772-1.77v-1.773h1.772l1.77 1.772 1.773-1.772h1.77v1.772l-1.77 1.77 3.542 1.773 3.544-1.772-1.772-1.77v-1.773h1.772l1.77 1.772 1.773-1.772h1.77v1.772l-1.77 1.77 3.542 1.773 3.544-1.77-1.772-1.773v-1.772h1.772l1.77 1.772 1.773-1.772h1.77v1.772l-1.77 1.772 3.542 1.772v1.77l-5.315-3.543-5.315 3.543z" transform="matrix(1.28 0 0 1.199 243.171 -5.641)" stroke-width="0" fill="#004e00"/><path d="M-83.268 219.68l-5.315-3.544-5.315 3.544-5.315-3.544-5.314 3.544v-1.77l3.543-1.774-1.772-1.77v-1.773h1.772l1.77 1.772 1.773-1.772h1.77v1.772l-1.77 1.77 3.542 1.773 3.544-1.772-1.772-1.77v-1.773h1.772l1.77 1.772 1.773-1.772h1.77v1.772l-1.77 1.77 3.542 1.773 3.544-1.77-1.772-1.773v-1.772h1.772l1.77 1.772 1.773-1.772h1.77v1.772l-1.77 1.772 3.542 1.772v1.77l-5.315-3.543-5.315 3.543z" transform="matrix(1.28 0 0 -1.199 243.171 468.055)" stroke-width="0" fill="#004e00"/><path d="M-83.268 219.68l-5.315-3.544-5.315 3.544-5.315-3.544-5.314 3.544v-1.77l3.543-1.774-1.772-1.77v-1.773h1.772l1.77 1.772 1.773-1.772h1.77v1.772l-1.77 1.77 3.542 1.773 3.544-1.772-1.772-1.77v-1.773h1.772l1.77 1.772 1.773-1.772h1.77v1.772l-1.77 1.77 3.542 1.773 3.544-1.77-1.772-1.773v-1.772h1.772l1.77 1.772 1.773-1.772h1.77v1.772l-1.77 1.772 3.542 1.772v1.77l-5.315-3.543-5.315 3.543z" transform="matrix(0 .999 .96 0 -49.298 319.715)" stroke-width="0" fill="#004e00"/><path d="M-100.98 177.17l-7.087 7.086v26.575l7.087 7.088h31.89l7.086-7.087v-26.574l-7.087-7.086h-31.89zm-1.772-5.316l-17.717 17.716v15.945l17.718 17.717h35.433l17.717-17.717V189.57l-17.716-17.716h-35.432z" transform="matrix(1.28 0 0 1.199 238.637 -5.641)" stroke="#000" stroke-width=".427" fill="#004e00"/><path d="M-93.898 147.05l3.543 5.315 3.544-5.315H-93.9z" transform="matrix(1.024 0 0 .8 215.058 140.225)" stroke="#000" stroke-width=".267" fill="#e69900"/><path d="M-93.898 147.05l3.543 5.315 3.544-5.315H-93.9z" transform="matrix(1.024 0 0 -.8 215.058 322.197)" stroke="#000" stroke-width=".267" fill="#e69900"/><path d="M-93.898 147.05l3.543 5.315 3.544-5.315H-93.9z" transform="matrix(1.024 0 0 -.8 229.568 322.197)" stroke="#000" stroke-width=".267" fill="#e69900"/><path d="M-93.898 147.05l3.543 5.315 3.544-5.315H-93.9z" transform="matrix(1.024 0 0 .8 229.568 140.225)" stroke="#000" stroke-width=".267" fill="#e69900"/><path d="M-93.898 147.05l3.543 5.315 3.544-5.315H-93.9z" transform="matrix(1.024 0 0 -.8 207.803 322.197)" stroke="#000" stroke-width=".267" fill="#980000"/><path d="M-93.898 147.05l3.543 5.315 3.544-5.315H-93.9z" transform="matrix(1.024 0 0 -.8 222.313 322.197)" stroke="#000" stroke-width=".267" fill="#980000"/><path d="M-93.898 147.05l3.543 5.315 3.544-5.315H-93.9z" transform="matrix(1.024 0 0 -.8 236.823 322.197)" stroke="#000" stroke-width=".267" fill="#980000"/><path d="M-104.53 180.71l3.544-3.544h-3.544v3.544z" transform="matrix(1.92 0 0 -1.799 303.233 576.373)" stroke="#000" stroke-width=".267" fill="#980000"/><path d="M-83.268 219.68l-5.315-3.544-5.315 3.544-5.315-3.544-5.314 3.544v-1.77l3.543-1.774-1.772-1.77v-1.773h1.772l1.77 1.772 1.773-1.772h1.77v1.772l-1.77 1.77 3.542 1.773 3.544-1.772-1.772-1.77v-1.773h1.772l1.77 1.772 1.773-1.772h1.77v1.772l-1.77 1.77 3.542 1.773 3.544-1.77-1.772-1.773v-1.772h1.772l1.77 1.772 1.773-1.772h1.77v1.772l-1.77 1.772 3.542 1.772v1.77l-5.315-3.543-5.315 3.543z" transform="matrix(0 .999 -.96 0 308.919 319.715)" stroke-width="0" fill="#004e00"/><path d="M-76.18 154.13h7.086l1.77 1.772-1.77 1.77h-7.087v-3.542z" transform="matrix(1.28 0 0 1.079 261.308 59.143)" stroke="#000" stroke-width=".267" fill="#980000"/><path d="M-99.213 180.71l-3.543 3.544v26.575l3.543 3.542h-5.316l.002-33.662h5.315z" transform="matrix(1.28 0 0 1.199 229.568 -5.641)" stroke="#000" stroke-width=".4" fill="#980000"/><path d="M-93.898 147.05l3.543 5.315 3.544-5.315H-93.9z" transform="matrix(1.024 0 0 .8 207.803 140.225)" stroke="#000" stroke-width=".267" fill="#980000"/><path d="M-93.898 147.05l3.543 5.315 3.544-5.315H-93.9z" transform="matrix(1.024 0 0 .8 222.313 140.225)" stroke="#000" stroke-width=".267" fill="#980000"/><path d="M-93.898 147.05l3.543 5.315 3.544-5.315H-93.9z" transform="matrix(1.024 0 0 .8 236.823 140.225)" stroke="#000" stroke-width=".267" fill="#980000"/><path d="M-99.212 180.71l-3.544 3.544v26.575l3.544 3.542h-5.315V180.71h5.315z" transform="matrix(-1.28 0 0 1.199 30.063 -5.641)" stroke="#000" stroke-width=".4" fill="#980000"/><path d="M-104.53 180.71l3.544-3.544h-3.544v3.544z" transform="matrix(-1.92 0 0 -1.799 -43.612 576.373)" stroke="#000" stroke-width=".267" fill="#980000"/><path d="M-104.53 180.71l3.544-3.544h-3.544v3.544z" transform="matrix(-1.92 0 0 1.799 -43.612 -113.956)" stroke="#000" stroke-width=".267" fill="#980000"/><path d="M-104.53 180.71l3.544-3.544h-3.544v3.544z" transform="matrix(1.92 0 0 1.799 303.233 -113.956)" stroke="#000" stroke-width=".267" fill="#980000"/><path d="M-100.98 177.17l-7.087 7.086v26.575l7.087 7.088h31.89l7.086-7.087v-26.574l-7.087-7.086h-31.89zm0-1.773l-8.86 8.858v26.575l8.86 8.858h31.89l8.857-8.858v-26.575l-8.86-8.858h-31.888z" transform="matrix(1.28 0 0 1.199 238.637 -5.641)" stroke="#000" stroke-width=".427" fill="#004e00"/><path d="M-76.18 154.13h7.086l1.77 1.772-1.77 1.77h-7.087v-3.542z" transform="matrix(1.28 0 0 1.079 261.307 62.954)" stroke="#000" stroke-width=".267" fill="#e69900"/><path d="M-76.18 154.13h7.086l1.77 1.772-1.77 1.77h-7.087v-3.542z" transform="matrix(1.28 0 0 1.079 261.308 66.791)" stroke="#000" stroke-width=".267" fill="#980000"/><path d="M-76.18 154.13h7.086l1.77 1.772-1.77 1.77h-7.087v-3.542z" transform="matrix(1.28 0 0 1.079 261.308 70.601)" stroke="#000" stroke-width=".267" fill="#e69900"/><path d="M-76.18 154.13h7.086l1.77 1.772-1.77 1.77h-7.087v-3.542z" transform="matrix(1.28 0 0 1.079 261.308 55.307)" stroke="#000" stroke-width=".267" fill="#e69900"/><path d="M-76.18 154.13h7.086l1.77 1.772-1.77 1.77h-7.087v-3.542z" transform="matrix(-1.28 0 0 1.079 -1.682 59.143)" stroke="#000" stroke-width=".267" fill="#980000"/><path d="M-76.18 154.13h7.086l1.77 1.772-1.77 1.77h-7.087v-3.542z" transform="matrix(-1.28 0 0 1.079 -1.682 62.955)" stroke="#000" stroke-width=".267" fill="#e69900"/><path d="M-76.18 154.13h7.086l1.77 1.772-1.77 1.77h-7.087v-3.542z" transform="matrix(-1.28 0 0 1.079 -1.682 66.791)" stroke="#000" stroke-width=".267" fill="#980000"/><path d="M-76.18 154.13h7.086l1.77 1.772-1.77 1.77h-7.087v-3.542z" transform="matrix(-1.28 0 0 1.079 -1.682 70.602)" stroke="#000" stroke-width=".267" fill="#e69900"/><path d="M-76.18 154.13h7.086l1.77 1.772-1.77 1.77h-7.087v-3.542z" transform="matrix(-1.28 0 0 1.079 -1.682 55.308)" stroke="#000" stroke-width=".267" fill="#e69900"/><path d="M-100.98 178.94v37.205h8.858v8.858h56.693v-8.858h8.86V178.94h-8.86v-8.858H-92.12v8.858h-8.858zm1.77 1.772v33.66h8.86v8.86h53.15v-8.86h8.858v-33.66H-37.2v-8.86h-53.15v8.86h-8.86z" transform="matrix(1.28 0 0 1.199 211.43 -5.642)" stroke="#000" stroke-width=".267" fill="#970000"/></g><g><path d="M-28.347 69.094l-5.315-7.087v-5.315l-5.315-5.314h-10.63l-8.858-5.315H-86.81l-8.86 5.315h-10.63l-5.315 5.315v5.315l-5.315 7.086v14.173l5.315 7.087v5.315l5.315 5.314h10.63l8.86 5.315h28.345l8.858-5.316h10.63l5.315-5.315v-5.316l5.315-7.087V69.093z" transform="matrix(1.28 0 0 1.154 222.762 -36.689)" stroke="#000" stroke-width=".267" fill="#980000"/><path d="M345.47 251.58v5.315l5.315 7.086v5.316l5.315 5.315h10.63l8.86 5.316h12.4V251.58h-42.52z" transform="matrix(1.28 0 0 1.154 -366.733 -239.097)" stroke-width="1pt" fill="#e69900"/><path d="M328.36 268.9l-8.416 7.965h-5.027l1.676 2.654-3.35 5.31 1.674 2.654 5.027-2.655 1.676 2.654.774-7.094 9.28-8.397-3.314-3.093z" transform="matrix(.984 0 0 .66 -212.47 -111.965)" stroke-width="1pt" fill="#980000"/><path d="M328.36 268.9l-8.416 7.965h-5.027l1.676 2.654-3.35 5.31 1.674 2.654 5.027-2.655 1.676 2.654.774-7.094 9.28-8.397-3.314-3.093z" transform="matrix(.984 0 0 .66 -221.535 -116.054)" stroke-width="1pt" fill="#980000"/><path d="M328.36 268.9l-8.416 7.965h-5.027l1.676 2.654-3.35 5.31 1.674 2.654 5.027-2.655 1.676 2.654.774-7.094 9.28-8.397-3.314-3.093z" transform="matrix(.984 0 0 .66 -226.073 -124.228)" stroke-width="1pt" fill="#980000"/><path d="M345.47 251.58v5.315l5.315 7.086v5.316l5.315 5.315h10.63l8.86 5.316h12.4V251.58h-42.52z" transform="matrix(-1.28 0 0 -1.154 626.333 341.55)" stroke-width="1pt" fill="#e69900"/><path d="M-72.638 47.835h3.28l3.807 3.543h6.035l3.28 1.772-1.64 1.772-3.28-1.772h-3.28l-3.282 5.315-4.92-1.772V53.15h4.92l-4.92-5.315z" transform="matrix(-1.28 0 0 -1.154 36.843 139.138)" stroke-width="1pt" fill="#980000"/><path d="M345.47 251.58v5.315l5.315 7.086v5.316l5.315 5.315h10.63l8.86 5.316h12.4V251.58h-42.52z" transform="matrix(1.28 0 0 -1.154 -366.733 341.55)" stroke-width="1pt" fill="#fff"/><path d="M-72.638 47.835h3.28l3.807 3.543h6.035l3.28 1.772-1.64 1.772-3.28-1.772h-3.28l-3.282 5.315-4.92-1.772V53.15h4.92l-4.92-5.315z" transform="matrix(-1.28 0 0 1.154 36.843 -36.69)" stroke-width="1pt" fill="#980000"/><path d="M-72.638 47.835h3.28l3.807 3.543h6.035l3.28 1.772-1.64 1.772-3.28-1.772h-3.28l-3.282 5.315-4.92-1.772V53.15h4.92l-4.92-5.315z" transform="matrix(1.28 0 0 1.154 222.763 -36.69)" stroke-width="1pt" fill="#980000"/><path d="M345.47 251.58v5.315l5.315 7.086v5.316l5.315 5.315h10.63l8.86 5.316h12.4V251.58h-42.52z" transform="matrix(-1.28 0 0 1.154 626.333 -239.097)" stroke-width="1pt" fill="#fff"/><path d="M-72.638 47.835h3.28l3.807 3.543h6.035l3.28 1.772-1.64 1.772-3.28-1.772h-3.28l-3.282 5.315-4.92-1.772V53.15h4.92l-4.92-5.315z" transform="matrix(1.28 0 0 -1.154 222.763 139.138)" stroke-width="1pt" fill="#980000"/><path d="M328.36 268.9l-8.416 7.965h-5.027l1.676 2.654-3.35 5.31 1.674 2.654 5.027-2.655 1.676 2.654.774-7.094 9.28-8.397-3.314-3.093z" transform="matrix(.984 0 0 -.66 -221.535 218.499)" stroke-width="1pt" fill="#980000"/><path d="M328.36 268.9l-8.416 7.965h-5.027l1.676 2.654-3.35 5.31 1.674 2.654 5.027-2.655 1.676 2.654.774-7.094 9.28-8.397-3.314-3.093z" transform="matrix(-.984 0 0 -.66 472.069 214.414)" stroke-width="1pt" fill="#980000"/><path d="M328.36 268.9l-8.416 7.965h-5.027l1.676 2.654-3.35 5.31 1.674 2.654 5.027-2.655 1.676 2.654.774-7.094 9.28-8.397-3.314-3.093z" transform="matrix(.984 0 0 -.66 -212.47 214.414)" stroke-width="1pt" fill="#980000"/><path d="M328.36 268.9l-8.416 7.965h-5.027l1.676 2.654-3.35 5.31 1.674 2.654 5.027-2.655 1.676 2.654.774-7.094 9.28-8.397-3.314-3.093z" transform="matrix(.984 0 0 -.66 -226.073 226.681)" stroke-width="1pt" fill="#980000"/><path d="M334.75 269.29h1.555l1.554 1.635 1.553-1.635h32.636v22.894h-1.555l1.554 1.636v1.635l-4.663-4.906v-1.636h1.554v1.635h1.555v-1.636l-12.62-7.223h-10.63v-7.086l-4.724-3.68h-3.107l-1.554 1.636 1.553 1.636h-1.554l-3.11-4.906z" transform="matrix(1.351 0 0 1.25 -372.788 -285.441)" stroke-width="0" fill="#fff"/><path d="M334.75 269.29h1.555l1.554 1.635 1.553-1.635h32.636v22.894h-1.555l1.554 1.636v1.635l-4.663-4.906v-1.636h1.554v1.635h1.555v-1.636l-12.62-7.223h-10.63v-7.086l-4.724-3.68h-3.107l-1.554 1.636 1.553 1.636h-1.554l-3.11-4.906z" transform="matrix(1.351 0 0 -1.25 -372.788 387.894)" stroke-width="0" fill="#e69900"/><path d="M340.16 269.29h31.89v21.26l-14.173-8.858h-10.63v-7.087l-7.087-5.315z" transform="matrix(1.28 0 0 1.154 -346.339 -259.546)" stroke-width="0" fill="#004e00"/><path d="M328.36 268.9l-8.416 7.965h-5.027l1.676 2.654-3.35 5.31 1.674 2.654 5.027-2.655 1.676 2.654.774-7.094 9.28-8.397-3.314-3.093z" transform="matrix(-.984 0 0 -.66 481.135 218.499)" stroke-width="1pt" fill="#980000"/><path d="M328.36 268.9l-8.416 7.965h-5.027l1.676 2.654-3.35 5.31 1.674 2.654 5.027-2.655 1.676 2.654.774-7.094 9.28-8.397-3.314-3.093z" transform="matrix(-.984 0 0 -.66 485.673 226.681)" stroke-width="1pt" fill="#980000"/><path d="M334.75 269.29h1.555l1.554 1.635 1.553-1.635h32.636v22.894h-1.555l1.554 1.636v1.635l-4.663-4.906v-1.636h1.554v1.635h1.555v-1.636l-12.62-7.223h-10.63v-7.086l-4.724-3.68h-3.107l-1.554 1.636 1.553 1.636h-1.554l-3.11-4.906z" transform="matrix(-1.351 0 0 -1.25 632.388 387.894)" stroke-width="0" fill="#fff"/><path d="M340.16 269.29h31.89v21.26l-14.173-8.858h-10.63v-7.087l-7.087-5.315z" transform="matrix(-1.28 0 0 -1.154 605.939 361.999)" stroke-width="0" fill="#004e00"/><path d="M328.36 268.9l-8.416 7.965h-5.027l1.676 2.654-3.35 5.31 1.674 2.654 5.027-2.655 1.676 2.654.774-7.094 9.28-8.397-3.314-3.093z" transform="matrix(-.984 0 0 .66 472.069 -111.965)" stroke-width="1pt" fill="#980000"/><path d="M328.36 268.9l-8.416 7.965h-5.027l1.676 2.654-3.35 5.31 1.674 2.654 5.027-2.655 1.676 2.654.774-7.094 9.28-8.397-3.314-3.093z" transform="matrix(-.984 0 0 .66 481.135 -116.054)" stroke-width="1pt" fill="#980000"/><path d="M328.36 268.9l-8.416 7.965h-5.027l1.676 2.654-3.35 5.31 1.674 2.654 5.027-2.655 1.676 2.654.774-7.094 9.28-8.397-3.314-3.093z" transform="matrix(-.984 0 0 .66 485.673 -124.228)" stroke-width="1pt" fill="#980000"/><path d="M334.75 269.29h1.555l1.554 1.635 1.553-1.635h32.636v22.894h-1.555l1.554 1.636v1.635l-4.663-4.906v-1.636h1.554v1.635h1.555v-1.636l-12.62-7.223h-10.63v-7.086l-4.724-3.68h-3.107l-1.554 1.636 1.553 1.636h-1.554l-3.11-4.906z" transform="matrix(-1.351 0 0 1.25 632.388 -285.441)" stroke-width="0" fill="#e69900"/><path d="M340.16 269.29h31.89v21.26l-14.173-8.858h-10.63v-7.087l-7.087-5.315z" transform="matrix(-1.28 0 0 1.154 605.939 -259.546)" stroke-width="0" fill="#980000"/><path d="M340.16 269.29h31.89v21.26l-14.173-8.858h-10.63v-7.087l-7.087-5.315z" transform="matrix(1.28 0 0 -1.154 -346.339 361.999)" stroke-width="0" fill="#980000"/><path d="M328.36 268.9l-8.416 7.965h-5.027l1.676 2.654-3.35 5.31 1.674 2.654 5.027-2.655 1.676 2.654.774-7.094 9.28-8.397-3.314-3.093z" transform="matrix(-1.353 0 0 -.77 578.601 258.312)" stroke-width="1pt" fill="#980000"/><path d="M328.36 268.9l-8.416 7.965h-5.027l1.676 2.654-3.35 5.31 1.674 2.654 5.027-2.655 1.676 2.654.774-7.094 9.28-8.397-3.314-3.093z" transform="matrix(1.353 0 0 .77 -319.001 -155.87)" stroke-width="1pt" fill="#980000"/><path d="M328.36 268.9l-8.416 7.965h-5.027l1.676 2.654-3.35 5.31 1.674 2.654 5.027-2.655 1.676 2.654.774-7.094 9.28-8.397-3.314-3.093z" transform="matrix(1.353 0 0 -.77 -319.001 258.312)" stroke-width="1pt" fill="#004e00"/><path d="M328.36 268.9l-8.416 7.965h-5.027l1.676 2.654-3.35 5.31 1.674 2.654 5.027-2.655 1.676 2.654.774-7.094 9.28-8.397-3.314-3.093z" transform="matrix(-1.353 0 0 .77 578.601 -155.87)" stroke-width="1pt" fill="#004e00"/><path d="M311.81 217.91l8.858-5.315 8.86 5.315-8.86 5.315-8.858-5.315z" transform="matrix(1.536 0 0 1.924 -362.668 -367.895)" stroke-width="1.246" fill="#fff"/><path d="M-66.076 53.15l-1.64-1.772 1.64-1.77h1.64l4.922 7.085h-1.64l-3.282-5.315h-1.64l1.64 1.772-1.64 1.772h-3.28V53.15h3.28z" transform="matrix(-1.28 0 0 -1.154 1.15 116.647)" stroke-width="1pt" fill="#980000"/><path d="M-66.076 53.15l-1.64-1.772 1.64-1.77h1.64l4.922 7.085h-1.64l-3.282-5.315h-1.64l1.64 1.772-1.64 1.772h-3.28V53.15h3.28z" transform="matrix(-1.28 0 0 1.154 1.15 -14.2)" stroke-width="1pt" fill="#980000"/><path d="M-66.076 53.15l-1.64-1.772 1.64-1.77h1.64l4.922 7.085h-1.64l-3.282-5.315h-1.64l1.64 1.772-1.64 1.772h-3.28V53.15h3.28z" transform="matrix(1.28 0 0 -1.154 258.453 116.647)" stroke-width="1pt" fill="#980000"/><path d="M-66.076 53.15l-1.64-1.772 1.64-1.77h1.64l4.922 7.085h-1.64l-3.282-5.315h-1.64l1.64 1.772-1.64 1.772h-3.28V53.15h3.28z" transform="matrix(1.28 0 0 1.154 258.453 -14.2)" stroke-width="1pt" fill="#980000"/><path stroke-width="1pt" fill="#980000" d="M-81.496 44.29h3.543v14.174h-3.543z" transform="matrix(1.185 0 0 1.154 224.274 -8.066)"/><path stroke-width="1pt" fill="#980000" d="M-86.81 47.835h14.172v7.087H-86.81z" transform="matrix(1.185 0 0 1.154 224.274 -8.066)"/></g><g><path d="M333.07 170.08l-10.63 5.315v8.858l10.63 5.315h10.63l10.63-5.315v-8.858l-10.63-5.315h-10.63z" transform="matrix(3.554 0 0 3.846 -1073.053 -292.206)" stroke="#000" stroke-width=".07" fill="#004e00"/><path d="M302.95 233.86h1.77v-5.315h3.545v5.315h1.77v-12.4h-1.77v5.314h-3.544v-5.315h-1.77v12.4z" transform="matrix(1.29 0 0 .788 -303.676 211.844)" stroke-width="1pt" fill="#c00"/><path d="M302.95 233.86h1.77v-5.315h3.545v5.315h1.77v-12.4h-1.77v5.314h-3.544v-5.315h-1.77v12.4z" transform="matrix(1.29 0 0 .788 -245.781 244.434)" stroke-width="1pt" fill="#c00"/><path d="M302.95 233.86h1.77v-5.315h3.545v5.315h1.77v-12.4h-1.77v5.314h-3.544v-5.315h-1.77v12.4z" transform="matrix(1.29 0 0 .788 -282.345 195.549)" stroke-width="1pt" fill="#c00"/><path d="M302.95 233.86h1.77v-5.315h3.545v5.315h1.77v-12.4h-1.77v5.314h-3.544v-5.315h-1.77v12.4z" transform="matrix(1.29 0 0 .788 -248.825 195.549)" stroke-width="1pt" fill="#c00"/><path d="M302.95 233.86h1.77v-5.315h3.545v5.315h1.77v-12.4h-1.77v5.314h-3.544v-5.315h-1.77v12.4z" transform="matrix(1.29 0 0 .788 -227.504 211.844)" stroke-width="1pt" fill="#c00"/><path d="M302.95 233.86h1.77v-5.315h3.545v5.315h1.77v-12.4h-1.77v5.314h-3.544v-5.315h-1.77v12.4z" transform="matrix(1.29 0 0 .788 -227.504 228.139)" stroke-width="1pt" fill="#c00"/><path d="M-205.51 345.47v38.977h53.15V366.73l-35.433-21.26h-17.717z" transform="matrix(1.032 0 0 -.92 341.901 753.118)" stroke-width="1pt" fill="#e69900"/><path d="M-205.51 345.47v38.977h53.15V366.73l-35.433-21.26h-17.717z" transform="matrix(-1.032 0 0 .92 -82.271 45.867)" stroke-width="1pt" fill="#e69900"/><path d="M-205.51 345.47v38.977h53.15V366.73l-35.433-21.26h-17.717z" transform="matrix(1.032 0 0 .92 341.901 45.867)" stroke-width="1pt" fill="#fff"/><path d="M-205.51 345.47v38.976h53.15V366.73l-35.433-21.26h-17.717z" transform="matrix(-1.032 0 0 -.92 -82.271 753.118)" stroke-width="1pt" fill="#fff"/><path d="M-177.16 368.5h21.26l-21.26-10.63v10.63zm24.803-1.772v17.717h-33.662v-14.173h-7.085l-8.858-5.315v-12.402l5.314-5.315h-7.085v17.717h-1.772v-19.49h17.717l35.433 21.26z" transform="matrix(1.032 0 0 .92 341.901 45.868)" stroke="#000" stroke-width=".133" fill="#e69900"/><path d="M333.07 176.72v6.2h1.594l3.72 1.772 3.722-1.772h1.594v-6.2h-1.594l-3.72-1.772-3.722 1.772h-1.594z" transform="matrix(3.44 0 0 3.679 -1034.249 -262.143)" stroke-width=".625" fill="#980000"/><path d="M-177.16 368.5h21.26l-21.26-10.63v10.63zm24.803-1.772v17.717h-33.662v-14.173h-7.085l-8.858-5.315v-12.402l5.314-5.315h-7.085v17.717h-1.772v-19.49h17.717l35.433 21.26z" transform="matrix(-1.032 0 0 -.92 -82.271 753.118)" stroke="#000" stroke-width=".133" fill="#e69900"/><path d="M-177.16 368.5h21.26l-21.26-10.63v10.63zm24.803-1.772v17.717h-33.662v-14.173h-7.085l-8.858-5.315v-12.402l5.314-5.315h-7.085v17.717h-1.772v-19.49h17.717l35.433 21.26z" transform="matrix(-1.032 0 0 .92 -82.271 45.868)" stroke="#000" stroke-width=".133" fill="#fff"/><path d="M-177.16 368.5h21.26l-21.26-10.63v10.63zm24.803-1.772v17.717h-33.662v-14.173h-7.085l-8.858-5.315v-12.402l5.314-5.315h-7.085v17.717h-1.772v-19.49h17.717l35.433 21.26z" transform="matrix(1.032 0 0 -.92 341.902 753.118)" stroke="#000" stroke-width=".133" fill="#fff"/><path d="M302.95 233.86h1.77v-5.315h3.545v5.315h1.77v-12.4h-1.77v5.314h-3.544v-5.315h-1.77v12.4z" transform="matrix(1.29 0 0 .92 -304.894 197.417)" stroke-width="1pt" fill="#980000"/><path d="M302.95 233.86h1.77v-5.315h3.545v5.315h1.77v-12.4h-1.77v5.314h-3.544v-5.315h-1.77v12.4z" transform="matrix(1.29 0 0 .92 -282.964 213.712)" stroke-width="1pt" fill="#980000"/><path d="M302.95 233.86h1.77v-5.315h3.545v5.315h1.77v-12.4h-1.77v5.314h-3.544v-5.315h-1.77v12.4z" transform="matrix(1.29 0 0 -.92 -304.894 601.579)" stroke-width="1pt" fill="#980000"/><path d="M302.95 233.86h1.77v-5.315h3.545v5.315h1.77v-12.4h-1.77v5.314h-3.544v-5.315h-1.77v12.4z" transform="matrix(1.29 0 0 -.92 -282.964 585.283)" stroke-width="1pt" fill="#980000"/><path d="M302.95 233.86h1.77v-5.315h3.545v5.315h1.77v-12.4h-1.77v5.314h-3.544v-5.315h-1.77v12.4z" transform="matrix(1.29 0 0 .92 -248.216 213.712)" stroke-width="1pt" fill="#980000"/><path d="M302.95 233.86h1.77v-5.315h3.545v5.315h1.77v-12.4h-1.77v5.314h-3.544v-5.315h-1.77v12.4z" transform="matrix(1.29 0 0 .92 -226.276 182.741)" stroke-width="1pt" fill="#980000"/><path d="M302.95 233.86h1.77v-5.315h3.545v5.315h1.77v-12.4h-1.77v5.314h-3.544v-5.315h-1.77v12.4z" transform="matrix(1.29 0 0 .92 -248.216 213.712)" stroke-width="1pt" fill="#980000"/><path d="M302.95 233.86h1.77v-5.315h3.545v5.315h1.77v-12.4h-1.77v5.314h-3.544v-5.315h-1.77v12.4z" transform="matrix(1.29 0 0 .92 -248.216 213.712)" stroke-width="1pt" fill="#980000"/><path d="M302.95 233.86h1.77v-5.315h3.545v5.315h1.77v-12.4h-1.77v5.314h-3.544v-5.315h-1.77v12.4z" transform="matrix(1.29 0 0 .92 -226.276 197.406)" stroke-width="1pt" fill="#980000"/><path d="M302.95 233.86h1.77v-5.315h3.545v5.315h1.77v-12.4h-1.77v5.314h-3.544v-5.315h-1.77v12.4z" transform="matrix(1.29 0 0 .92 -248.216 166.446)" stroke-width="1pt" fill="#980000"/><path d="M-154.13 334.84l7.087-7.088h3.543v3.543h-3.543v1.772h5.314v-7.086h-5.313v-5.314h-7.087v5.314h1.772v-3.544h3.543v3.544l-7.086 7.087-7.088-7.086v-3.542h3.543v3.543h1.772v-5.314h-7.087v5.315h-5.315v7.09h5.315v-1.773h-3.544v-3.544h3.544l7.087 7.086-7.087 7.085h-3.543v-3.543h3.543v-1.772h-5.314v7.087h5.314v5.314l7.087.003v-5.316h-1.77v3.544h-3.544v-3.543l7.085-7.086 7.088 7.09v3.542h-3.543V343.7h-1.772v5.313h7.087V343.7l5.315-.003v-7.086h-5.315v1.773h3.544v3.544h-3.543l-7.087-7.087z" transform="matrix(1.032 0 0 .838 290.708 118.737)" stroke-width="1.247" fill="#004e00"/></g><g transform="matrix(1.032 0 0 .959 204.78 18.153)"><path d="M372.05 391.54l3.544-3.543h21.26l15.944-15.946h21.26l15.945 15.946h21.26l3.543 3.543-3.543 3.543h-21.26l-15.945 15.945h-21.26l-15.945-15.945h-21.26l-3.543-3.543z" transform="matrix(.968 0 0 1.053 -482.4 -277.85)" stroke-width="1pt" fill="#980000"/><path d="M372.05 391.54l1.903-1.95h22.834l17.126-19.488h19.03l17.125 19.49h22.835l1.903 1.948-1.903 1.948h-22.835l-15.223 17.54H412.01l-15.223-17.54h-22.834l-1.903-1.948z" transform="matrix(.931 0 0 .909 -466.86 -221.29)" stroke="#000" stroke-width=".29" fill="#980000"/><path d="M428.74 354.33l7.087 7.086-3.543 3.543-1.772-1.773h-1.77v1.772l1.77 1.77h3.544l3.543-3.543v-3.543l-7.087-7.086 7.086-7.087v-3.542l-3.544-3.543h-3.543l-1.772 1.77v1.773h1.773l1.77-1.772 3.544 3.544-7.086 7.086-7.086-7.086 7.087-7.087v-1.77h-1.77l-7.087 7.085-7.087-7.087h-1.772v1.772l7.087 7.087-7.086 7.086-7.087-7.086 3.543-3.544 1.772 1.772h1.772v-1.772l-1.772-1.77h-3.543l-3.545 3.542v3.543l7.087 7.088-7.087 7.087v3.543l3.544 3.543h3.542l1.772-1.77v-1.772h-1.772l-1.772 1.772-3.543-3.544 7.087-7.086 7.086 7.086-7.086 7.087v1.772h1.77l7.088-7.087 7.087 7.087h1.77v-1.772l-7.086-7.087 7.086-7.086zm-8.858-8.86l-7.087 7.088 7.087 7.087 7.087-7.087-7.088-7.087z" transform="matrix(.968 0 0 1.053 -478.98 -236.82)" stroke-width="0" fill="#e69900"/><path d="M412.8 411.02v14.173l1.772-1.772 1.772 1.773 1.77-1.772 1.773 1.773 1.772-1.772 1.77 1.773 1.772-1.772 1.772 1.773 1.77-1.772 1.773 1.773 1.77-1.772 1.773 1.773V411.02H412.8z" transform="matrix(.968 0 0 1.053 -482.4 -277.85)" stroke-width="1pt" fill="#e69900"/><path d="M412.8 411.02v14.173l1.772-1.772 1.772 1.773 1.77-1.772 1.773 1.773 1.772-1.772 1.77 1.773 1.772-1.772 1.772 1.773 1.77-1.772 1.773 1.773 1.77-1.772 1.773 1.773V411.02H412.8z" transform="matrix(-.968 0 0 -1.053 337.13 546.43)" stroke-width="1pt" fill="#e69900"/><path d="M419.88 411.02v14.173l1.772-1.772 1.77 1.773 1.773-1.772 1.772 1.773 1.77-1.772 1.773 1.773 1.77-1.772 1.773 1.773V411.02H419.88z" transform="matrix(-.968 0 0 -1.053 373.13 563.22)" stroke-width="1pt" fill="#e69900"/><path d="M419.88 411.02v14.173l1.772-1.772 1.77 1.773 1.773-1.772 1.772 1.773 1.77-1.772 1.773 1.773 1.77-1.772 1.773 1.773V411.02H419.88z" transform="matrix(-.968 0 0 -1.053 307.98 563.22)" stroke-width="1pt" fill="#e69900"/><path d="M419.88 411.02v14.173l1.772-1.772 1.77 1.773 1.773-1.772 1.772 1.773 1.77-1.772 1.773 1.773 1.77-1.772 1.773 1.773V411.02H419.88z" transform="matrix(-.968 0 0 1.053 373.13 -294.63)" stroke-width="1pt" fill="#e69900"/><path d="M419.88 411.02v14.173l1.772-1.772 1.77 1.773 1.773-1.772 1.772 1.773 1.77-1.772 1.773 1.773 1.77-1.772 1.773 1.773V411.02H419.88z" transform="matrix(-.968 0 0 1.053 307.98 -294.63)" stroke-width="1pt" fill="#e69900"/><path d="M412.8 411.02v8.858l1.77-1.772 1.773 1.772 1.77-1.772 1.773 1.772 1.772-1.772 1.77 1.772 1.773-1.772 1.772 1.772 1.772-1.772v-23.03L412.8 411.02z" transform="matrix(.968 0 0 1.053 -461.83 -277.85)" stroke-width="1pt" fill="#004e00"/><path d="M412.8 411.02v8.86l1.772-1.773 1.772 1.772 1.77-1.773 1.773 1.772 1.772-1.773 1.77 1.772 1.772-1.773 1.77 1.772 1.773-1.773v-23.032L412.8 411.02z" transform="matrix(-.968 0 0 1.053 316.55 -277.85)" stroke-width="1pt" fill="#004e00"/><path d="M412.8 411.02v8.858l1.77-1.772 1.773 1.772 1.77-1.772 1.773 1.772 1.772-1.772 1.77 1.772 1.773-1.772 1.772 1.772 1.772-1.772v-23.03L412.8 411.02z" transform="matrix(-.968 0 0 -1.053 316.55 546.43)" stroke-width="1pt" fill="#004e00"/><path d="M412.8 411.02v8.858l1.77-1.772 1.773 1.772 1.77-1.772 1.773 1.772 1.772-1.772 1.77 1.772 1.773-1.772 1.772 1.772 1.772-1.772v-23.03L412.8 411.02z" transform="matrix(.968 0 0 -1.053 -461.83 546.43)" stroke-width="1pt" fill="#004e00"/><path d="M380.9 414.57l-1.772-1.772-1.77 1.772-1.772-1.772-1.772 1.772-1.772-1.772-1.772 1.772-1.77-1.772-1.772 1.772v-28.347l1.77 1.772 1.772-1.772 1.772 1.772 1.77-1.772 1.773 1.772 1.772-1.772 1.77 1.772 1.773-1.772v10.63h-7.086l-3.544 3.544 3.544 3.543h7.086v10.63z" transform="matrix(.968 0 0 1.053 -480.69 -287.17)" stroke-width="1pt" fill="#004e00"/><path d="M380.9 414.57l-1.772-1.772-1.77 1.772-1.772-1.772-1.772 1.772-1.772-1.772-1.772 1.772-1.77-1.772-1.772 1.772v-28.347l1.77 1.772 1.772-1.772 1.772 1.772 1.77-1.772 1.773 1.772 1.772-1.772 1.77 1.772 1.773-1.772v10.63h-7.086l-3.544 3.544 3.544 3.543h7.086v10.63z" transform="matrix(-.968 0 0 1.053 335.41 -287.17)" stroke-width="1pt" fill="#004e00"/><path d="M357.87 396.85s-3.543 3.544-3.543 5.315c-.07 1.652 3.78 5.354 5.315 5.315 2.007.04 5.315-3.543 5.315-5.315 0-1.77-3.544-5.315-3.544-5.315v-7.086s7.696 12.183 7.696 6.868c0-3.812-7.697-10.412-7.697-10.412h-3.543s-7.696 7.727-7.696 10.412c0 5.315 7.696-6.868 7.696-6.868v7.086z" transform="matrix(.403 0 0 .416 -235.66 -9.092)" stroke-width="1pt" fill="#fff"/><path d="M357.87 396.85s-3.543 3.544-3.543 5.315c-.07 1.652 3.78 5.354 5.315 5.315 2.007.04 5.315-3.543 5.315-5.315 0-1.77-3.544-5.315-3.544-5.315v-7.086s6.276 11.593 6.276 6.278c0-3.437-6.277-9.822-6.277-9.822h-3.543s-7.244 7.994-6.275 9.82c0 5.316 6.275-6.276 6.275-6.276v7.086z" transform="matrix(.484 0 0 .582 -246.66 -69.429)" stroke-width="1pt" fill="#980000"/><ellipse fill="#004e00" transform="matrix(.968 0 0 1.053 -482.4 -277.85)" cx="403.94" rx="3.543" cy="391.54" ry="1.772" stroke-width="1pt"/><ellipse fill="#004e00" transform="matrix(.968 0 0 1.053 -463.54 -277.85)" cx="403.94" rx="3.543" cy="391.54" ry="1.772" stroke-width="1pt"/><ellipse fill="#004e00" transform="matrix(.968 0 0 1.053 -444.69 -277.85)" cx="403.94" rx="3.543" cy="391.54" ry="1.772" stroke-width="1pt"/><path d="M357.87 396.85s-3.543 3.544-3.543 5.315c-.07 1.652 3.78 5.354 5.315 5.315 2.007.04 5.315-3.543 5.315-5.315 0-1.77-3.544-5.315-3.544-5.315v-7.086s7.696 12.183 7.696 6.868c0-3.812-7.697-10.412-7.697-10.412h-3.543s-7.696 7.727-7.696 10.412c0 5.315 7.696-6.868 7.696-6.868v7.086z" transform="matrix(.403 0 0 -.416 -236.02 277.83)" stroke-width="1pt" fill="#fff"/><path d="M357.87 396.85s-3.543 3.544-3.543 5.315c-.07 1.652 3.78 5.354 5.315 5.315 2.007.04 5.315-3.543 5.315-5.315 0-1.77-3.544-5.315-3.544-5.315v-7.086s6.276 11.593 6.276 6.278c0-3.437-6.277-9.822-6.277-9.822h-3.543s-7.244 7.994-6.275 9.82c0 5.316 6.275-6.276 6.275-6.276v7.086z" transform="matrix(.484 0 0 -.582 -247.02 338.16)" stroke-width="1pt" fill="#980000"/><path d="M357.87 396.85s-3.543 3.544-3.543 5.315c-.07 1.652 3.78 5.354 5.315 5.315 2.007.04 5.315-3.543 5.315-5.315 0-1.77-3.544-5.315-3.544-5.315v-7.086s7.696 12.183 7.696 6.868c0-3.812-7.697-10.412-7.697-10.412h-3.543s-7.696 7.727-7.696 10.412c0 5.315 7.696-6.868 7.696-6.868v7.086z" transform="matrix(.403 0 0 .416 -199.16 -9.092)" stroke-width="1pt" fill="#fff"/><path d="M357.87 396.85s-3.543 3.544-3.543 5.315c-.07 1.652 3.78 5.354 5.315 5.315 2.007.04 5.315-3.543 5.315-5.315 0-1.77-3.544-5.315-3.544-5.315v-7.086s7.696 12.183 7.696 6.868c0-3.812-7.697-10.412-7.697-10.412h-3.543s-7.696 7.727-7.696 10.412c0 5.315 7.696-6.868 7.696-6.868v7.086z" transform="matrix(.403 0 0 -.416 -199.52 277.83)" stroke-width="1pt" fill="#fff"/><path d="M357.87 396.85s-3.543 3.544-3.543 5.315c-.07 1.652 3.78 5.354 5.315 5.315 2.007.04 5.315-3.543 5.315-5.315 0-1.77-3.544-5.315-3.544-5.315v-7.086s6.276 11.593 6.276 6.278c0-3.437-6.277-9.822-6.277-9.822h-3.543s-7.244 7.994-6.275 9.82c0 5.316 6.275-6.276 6.275-6.276v7.086z" transform="matrix(.536 0 0 .39 -298.12 -9.27)" stroke-width="1pt" fill="#980000"/><path d="M357.87 396.85s-3.543 3.544-3.543 5.315c-.07 1.652 3.78 5.354 5.315 5.315 2.007.04 5.315-3.543 5.315-5.315 0-1.77-3.544-5.315-3.544-5.315v-7.086s6.276 11.593 6.276 6.278c0-3.437-6.277-9.822-6.277-9.822h-3.543s-7.244 7.994-6.275 9.82c0 5.316 6.275-6.276 6.275-6.276v7.086z" transform="matrix(.536 0 0 -.39 -298.52 279.33)" stroke-width="1pt" fill="#980000"/><path d="M357.87 396.85s-3.543 3.544-3.543 5.315c-.07 1.652 3.78 5.354 5.315 5.315 2.007.04 5.315-3.543 5.315-5.315 0-1.77-3.544-5.315-3.544-5.315v-7.086s6.276 11.593 6.276 6.278c0-3.437-6.277-9.822-6.277-9.822h-3.543s-7.244 7.994-6.275 9.82c0 5.316 6.275-6.276 6.275-6.276v7.086z" transform="matrix(.536 0 0 .39 -232.27 -9.712)" stroke-width="1pt" fill="#980000"/><path d="M357.87 396.85s-3.543 3.544-3.543 5.315c-.07 1.652 3.78 5.354 5.315 5.315 2.007.04 5.315-3.543 5.315-5.315 0-1.77-3.544-5.315-3.544-5.315v-7.086s6.276 11.593 6.276 6.278c0-3.437-6.277-9.822-6.277-9.822h-3.543s-7.244 7.994-6.275 9.82c0 5.316 6.275-6.276 6.275-6.276v7.086z" transform="matrix(.536 0 0 -.39 -232.67 278.89)" stroke-width="1pt" fill="#980000"/><path d="M354.98 396.41c-1.526 3.07-1.123 4.474-1.123 6.245-.07 1.652 4.256 4.868 5.792 4.83 2.006.038 5.314-3.544 5.314-5.316 0-1.772.084-3.302-.738-6.356l-2.215 5.178c-2.688-7.346-2.834-7.517-4.43.178l-2.6-4.76z" transform="matrix(.403 0 0 -.416 -263.42 310.25)" stroke-width="1pt" fill="#fff"/><path d="M354.98 396.41c-1.526 3.07-1.123 4.474-1.123 6.245-.07 1.652 4.256 4.868 5.792 4.83 2.006.038 5.314-3.544 5.314-5.316 0-1.772.084-3.302-.738-6.356l-2.215 5.178c-2.688-7.346-2.834-7.517-4.43.178l-2.6-4.76z" transform="matrix(.403 0 0 .416 -263.36 -40.956)" stroke-width="1pt" fill="#fff"/><path d="M354.98 396.41c-1.526 3.07-1.123 4.474-1.123 6.245-.07 1.652 4.256 4.868 5.792 4.83 2.006.038 5.314-3.544 5.314-5.316 0-1.772.084-3.302-.738-6.356l-2.215 5.178c-2.688-7.346-2.834-7.517-4.43.178l-2.6-4.76z" transform="matrix(.403 0 0 -.416 -170.94 309.98)" stroke-width="1pt" fill="#fff"/><path d="M354.98 396.41c-1.526 3.07-1.123 4.474-1.123 6.245-.07 1.652 4.256 4.868 5.792 4.83 2.006.038 5.314-3.544 5.314-5.316 0-1.772.084-3.302-.738-6.356l-2.215 5.178c-2.688-7.346-2.834-7.517-4.43.178l-2.6-4.76z" transform="matrix(.403 0 0 .416 -170.89 -41.232)" stroke-width="1pt" fill="#fff"/><path d="M-83.27 170.073v-5.315h-15.944v-10.63h-14.173v-3.543h-12.402v-31.89h12.403v-3.543h14.173v-10.63h15.944V99.21h21.26v5.315h15.945v10.63h14.173v3.542h12.402v31.89h-12.402v3.543h-14.173v10.63H-62.01v5.315h-21.26zm-1.772 1.772v-5.315h-15.944V155.9h-14.173v-3.543h-12.4v-35.433h12.4v-3.544h14.174v-10.63h15.945v-5.314h24.802v5.315h15.945v10.63h14.173v3.544h12.402v35.433H-30.12v3.543h-14.173v10.63h-15.945v5.315h-24.804z" stroke="#000" stroke-width=".133" fill="#980000"/></g></g></g></svg>