<svg xmlns="http://www.w3.org/2000/svg" height="480" width="640"><desc>The United States of America flag, produced by Daniel McRae</desc><defs><clipPath id="a"><path fill-opacity=".67" d="M0 0h682.67v512H0z"/></clipPath></defs><g fill-rule="evenodd" clip-path="url(#a)" transform="scale(.938 .938)"><g stroke-width="1pt"><g fill="#bd3d44"><path d="M0 0h972.81v39.385H0z"/><path d="M0 78.77h972.81v39.385H0z"/><path d="M0 157.54h972.81v39.385H0z"/><path d="M0 236.31h972.81v39.385H0z"/><path d="M0 315.08h972.81v39.385H0z"/><path d="M0 393.85h972.81v39.385H0z"/><path d="M0 472.62h972.81v39.385H0z"/></g><g fill="#fff"><path d="M0 39.385h972.81V78.77H0z"/><path d="M0 118.155h972.81v39.385H0z"/><path d="M0 196.925h972.81v39.385H0z"/><path d="M0 275.695h972.81v39.385H0z"/><path d="M0 354.465h972.81v39.385H0z"/><path d="M0 433.235h972.81v39.385H0z"/></g></g><path stroke-width="1pt" fill="#192f5d" d="M0 0h389.12v275.69H0z"/><g fill="#fff"><g><g><path d="M32.427 11.802l3.54 10.896h11.456l-9.268 6.733 3.54 10.896-9.268-6.733-9.268 6.733L26.7 29.43 17.43 22.7h11.457z"/><path d="M97.28 11.802l3.54 10.896h11.457l-9.268 6.733 3.54 10.896-9.27-6.733-9.267 6.733 3.54-10.895-9.268-6.732H93.74z"/><path d="M162.136 11.802l3.54 10.896h11.456l-9.268 6.733 3.54 10.896-9.268-6.733-9.268 6.733 3.54-10.895-9.268-6.732h11.456z"/><path d="M226.988 11.802l3.54 10.896h11.456l-9.268 6.733 3.54 10.896-9.268-6.733-9.268 6.733 3.54-10.895-9.268-6.732h11.456z"/><path d="M291.843 11.802l3.54 10.896h11.456l-9.27 6.733 3.54 10.896-9.267-6.733-9.268 6.733 3.54-10.895-9.268-6.732h11.456z"/><path d="M356.698 11.802l3.54 10.896h11.456l-9.268 6.733 3.54 10.896-9.268-6.733-9.268 6.733 3.54-10.895-9.268-6.732h11.456z"/></g><g><path d="M64.855 39.37l3.54 10.897H79.85L70.584 57l3.54 10.895-9.268-6.733-9.268 6.733L59.127 57l-9.268-6.733h11.455z"/><path d="M129.707 39.37l3.54 10.897h11.456L135.435 57l3.54 10.895-9.268-6.733-9.268 6.733L123.98 57l-9.27-6.733h11.457z"/><path d="M194.562 39.37l3.54 10.897h11.456L200.29 57l3.54 10.895-9.268-6.733-9.268 6.733L188.834 57l-9.268-6.733h11.456z"/><path d="M259.417 39.37l3.54 10.897h11.456L265.145 57l3.54 10.895-9.268-6.733-9.268 6.733L253.69 57l-9.27-6.733h11.457z"/><path d="M324.27 39.37l3.54 10.897h11.455L329.997 57l3.54 10.895-9.268-6.733-9.27 6.733L318.54 57l-9.267-6.733h11.456z"/></g></g><g><g><path d="M32.423 66.937l3.54 10.896H47.42l-9.27 6.733 3.54 10.895-9.267-6.732-9.268 6.733 3.54-10.894-9.268-6.733h11.456z"/><path d="M97.27 66.937l3.54 10.896h11.455l-9.268 6.733 3.54 10.895-9.268-6.732L88 95.46l3.54-10.894-9.267-6.733H93.73z"/><path d="M162.116 66.937l3.54 10.896h11.456l-9.268 6.733 3.54 10.895-9.268-6.732-9.268 6.733 3.54-10.894-9.268-6.733h11.456z"/><path d="M226.96 66.937l3.54 10.896h11.455l-9.268 6.733 3.54 10.895-9.268-6.732-9.27 6.733 3.54-10.894-9.267-6.733h11.456z"/><path d="M291.806 66.937l3.54 10.896h11.456l-9.268 6.733 3.54 10.895-9.268-6.732-9.268 6.733 3.54-10.894-9.268-6.733h11.456z"/><path d="M356.653 66.937l3.54 10.896h11.456l-9.27 6.733 3.54 10.895-9.267-6.732-9.268 6.733 3.54-10.894-9.268-6.733h11.456z"/></g><g><path d="M64.847 94.503l3.54 10.896h11.456l-9.268 6.732 3.54 10.895-9.268-6.733-9.268 6.733 3.54-10.895-9.27-6.733h11.457z"/><path d="M129.69 94.503l3.54 10.896h11.456l-9.268 6.732 3.54 10.895-9.268-6.733-9.268 6.733 3.54-10.895-9.268-6.733h11.456z"/><path d="M194.537 94.503l3.54 10.896h11.456l-9.268 6.732 3.54 10.895-9.268-6.733-9.268 6.733 3.54-10.895-9.27-6.733h11.457z"/><path d="M259.384 94.503l3.54 10.896h11.456l-9.268 6.732 3.54 10.895-9.268-6.733-9.268 6.733 3.54-10.895-9.268-6.733h11.456z"/><path d="M324.227 94.503l3.54 10.896h11.456l-9.268 6.732 3.54 10.895-9.268-6.733-9.268 6.733 3.54-10.895-9.27-6.733h11.457z"/></g></g><g><g><path d="M32.423 122.076l3.54 10.896H47.42l-9.27 6.733 3.54 10.895-9.267-6.733-9.268 6.733 3.54-10.895-9.268-6.733h11.456z"/><path d="M97.27 122.076l3.54 10.896h11.455l-9.268 6.733 3.54 10.895-9.268-6.733L88 150.6l3.54-10.895-9.267-6.733H93.73z"/><path d="M162.116 122.076l3.54 10.896h11.456l-9.268 6.733 3.54 10.895-9.268-6.733-9.268 6.733 3.54-10.895-9.268-6.733h11.456z"/><path d="M226.96 122.076l3.54 10.896h11.455l-9.268 6.733 3.54 10.895-9.268-6.733-9.27 6.733 3.54-10.895-9.267-6.733h11.456z"/><path d="M291.806 122.076l3.54 10.896h11.456l-9.268 6.733 3.54 10.895-9.268-6.733-9.268 6.733 3.54-10.895-9.268-6.733h11.456z"/><path d="M356.653 122.076l3.54 10.896h11.456l-9.27 6.733 3.54 10.895-9.267-6.733-9.268 6.733 3.54-10.895-9.268-6.733h11.456z"/></g><g><path d="M64.847 149.642l3.54 10.896h11.456l-9.268 6.733 3.54 10.896-9.268-6.733-9.268 6.733 3.54-10.895-9.27-6.732h11.457z"/><path d="M129.69 149.642l3.54 10.896h11.456l-9.268 6.733 3.54 10.896-9.268-6.733-9.268 6.733 3.54-10.895-9.268-6.732h11.456z"/><path d="M194.537 149.642l3.54 10.896h11.456l-9.268 6.733 3.54 10.896-9.268-6.733-9.268 6.733 3.54-10.895-9.27-6.732h11.457z"/><path d="M259.384 149.642l3.54 10.896h11.456l-9.268 6.733 3.54 10.896-9.268-6.733-9.268 6.733 3.54-10.895-9.268-6.732h11.456z"/><path d="M324.227 149.642l3.54 10.896h11.456l-9.268 6.733 3.54 10.896-9.268-6.733-9.268 6.733 3.54-10.895-9.27-6.732h11.457z"/></g></g><g><g><path d="M32.423 177.215l3.54 10.896H47.42l-9.27 6.734 3.54 10.895-9.267-6.734-9.268 6.733 3.54-10.896-9.268-6.733h11.456z"/><path d="M97.27 177.215l3.54 10.896h11.455l-9.268 6.734 3.54 10.895-9.268-6.734L88 205.74l3.54-10.896-9.267-6.733H93.73z"/><path d="M162.116 177.215l3.54 10.896h11.456l-9.268 6.734 3.54 10.895-9.268-6.734-9.268 6.733 3.54-10.896-9.268-6.733h11.456z"/><path d="M226.96 177.215l3.54 10.896h11.455l-9.268 6.734 3.54 10.895-9.268-6.734-9.27 6.733 3.54-10.896-9.267-6.733h11.456z"/><path d="M291.806 177.215l3.54 10.896h11.456l-9.268 6.734 3.54 10.895-9.268-6.734-9.268 6.733 3.54-10.896-9.268-6.733h11.456z"/><path d="M356.653 177.215l3.54 10.896h11.456l-9.27 6.734 3.54 10.895-9.267-6.734-9.268 6.733 3.54-10.896-9.268-6.733h11.456z"/></g><g><path d="M64.847 204.78l3.54 10.897h11.456l-9.268 6.733 3.54 10.895-9.268-6.733-9.268 6.733 3.54-10.895-9.27-6.733h11.457z"/><path d="M129.69 204.78l3.54 10.897h11.456l-9.268 6.733 3.54 10.895-9.268-6.733-9.268 6.733 3.54-10.895-9.268-6.733h11.456z"/><path d="M194.537 204.78l3.54 10.897h11.456l-9.268 6.733 3.54 10.895-9.268-6.733-9.268 6.733 3.54-10.895-9.27-6.733h11.457z"/><path d="M259.384 204.78l3.54 10.897h11.456l-9.268 6.733 3.54 10.895-9.268-6.733-9.268 6.733 3.54-10.895-9.268-6.733h11.456z"/><path d="M324.227 204.78l3.54 10.897h11.456l-9.268 6.733 3.54 10.895-9.268-6.733-9.268 6.733 3.54-10.895-9.27-6.733h11.457z"/></g></g><g><path d="M32.423 232.354l3.54 10.896H47.42l-9.27 6.733 3.54 10.895-9.267-6.733-9.268 6.733 3.54-10.895-9.268-6.733h11.456z"/><path d="M97.27 232.354l3.54 10.896h11.455l-9.268 6.733 3.54 10.895-9.268-6.733-9.27 6.733 3.54-10.895-9.267-6.733H93.73z"/><path d="M162.116 232.354l3.54 10.896h11.456l-9.268 6.733 3.54 10.895-9.268-6.733-9.268 6.733 3.54-10.895-9.268-6.733h11.456z"/><path d="M226.96 232.354l3.54 10.896h11.455l-9.268 6.733 3.54 10.895-9.268-6.733-9.27 6.733 3.54-10.895-9.267-6.733h11.456z"/><path d="M291.806 232.354l3.54 10.896h11.456l-9.268 6.733 3.54 10.895-9.268-6.733-9.268 6.733 3.54-10.895-9.268-6.733h11.456z"/><path d="M356.653 232.354l3.54 10.896h11.456l-9.27 6.733 3.54 10.895-9.267-6.733-9.268 6.733 3.54-10.895-9.268-6.733h11.456z"/></g></g></g></svg>