<svg xmlns="http://www.w3.org/2000/svg" height="480" width="640"><defs><clipPath id="a"><path fill-opacity=".67" d="M0 0h640v480H0z"/></clipPath></defs><g fill-rule="evenodd" clip-path="url(#a)"><path stroke-width="1pt" fill="#fff" d="M0 0h960v480H0z"/><path stroke-width="1pt" fill="#94acd4" d="M0 0h960v166.14H0z"/><path stroke-width="1pt" fill="#b73000" d="M0 155.14h960v11.005H0z"/><path stroke-width="1pt" fill="#00a900" d="M0 324.86h960V480H0z"/><path stroke-width="1pt" fill="#b73000" d="M0 324.86h960v11.005H0z"/><path transform="matrix(.893 0 0 .898 69.068 -66.212)" stroke-width="1pt" fill="#feffff" d="M205.58 128.74l-10.01-6.85-9.91 7.01 3.42-11.64-9.72-7.25 12.12-.35 3.89-11.495 4.08 11.425 12.13.15-9.6 7.41z"/><path transform="matrix(.893 0 0 .898 26.91 16.736)" stroke-width="1pt" fill="#feffff" d="M205.58 128.74l-10.01-6.85-9.91 7.01 3.42-11.64-9.72-7.25 12.12-.35 3.89-11.495 4.08 11.425 12.13.15-9.6 7.41z"/><path transform="matrix(.893 0 0 .898 69.474 16.736)" stroke-width="1pt" fill="#feffff" d="M205.58 128.74l-10.01-6.85-9.91 7.01 3.42-11.64-9.72-7.25 12.12-.35 3.89-11.495 4.08 11.425 12.13.15-9.6 7.41z"/><path transform="matrix(.893 0 0 .898 108.79 16.736)" stroke-width="1pt" fill="#feffff" d="M205.58 128.74l-10.01-6.85-9.91 7.01 3.42-11.64-9.72-7.25 12.12-.35 3.89-11.495 4.08 11.425 12.13.15-9.6 7.41z"/><path transform="matrix(.893 0 0 .898 145.28 16.736)" stroke-width="1pt" fill="#feffff" d="M205.58 128.74l-10.01-6.85-9.91 7.01 3.42-11.64-9.72-7.25 12.12-.35 3.89-11.495 4.08 11.425 12.13.15-9.6 7.41z"/><path transform="matrix(.893 0 0 .898 -17.681 16.736)" stroke-width="1pt" fill="#feffff" d="M205.58 128.74l-10.01-6.85-9.91 7.01 3.42-11.64-9.72-7.25 12.12-.35 3.89-11.495 4.08 11.425 12.13.15-9.6 7.41z"/><path transform="matrix(.893 0 0 .898 26.099 -24.432)" stroke-width="1pt" fill="#feffff" d="M205.58 128.74l-10.01-6.85-9.91 7.01 3.42-11.64-9.72-7.25 12.12-.35 3.89-11.495 4.08 11.425 12.13.15-9.6 7.41z"/><path transform="matrix(.893 0 0 .898 69.068 -24.432)" stroke-width="1pt" fill="#feffff" d="M205.58 128.74l-10.01-6.85-9.91 7.01 3.42-11.64-9.72-7.25 12.12-.35 3.89-11.495 4.08 11.425 12.13.15-9.6 7.41z"/><path transform="matrix(.893 0 0 .898 109.6 -24.432)" stroke-width="1pt" fill="#feffff" d="M205.58 128.74l-10.01-6.85-9.91 7.01 3.42-11.64-9.72-7.25 12.12-.35 3.89-11.495 4.08 11.425 12.13.15-9.6 7.41z"/><path transform="matrix(.893 0 0 .898 144.87 -24.432)" stroke-width="1pt" fill="#feffff" d="M205.58 128.74l-10.01-6.85-9.91 7.01 3.42-11.64-9.72-7.25 12.12-.35 3.89-11.495 4.08 11.425 12.13.15-9.6 7.41z"/><path transform="matrix(.893 0 0 .898 144.47 -66.212)" stroke-width="1pt" fill="#feffff" d="M205.58 128.74l-10.01-6.85-9.91 7.01 3.42-11.64-9.72-7.25 12.12-.35 3.89-11.495 4.08 11.425 12.13.15-9.6 7.41z"/><path transform="matrix(.893 0 0 .898 109.2 -66.212)" stroke-width="1pt" fill="#feffff" d="M205.58 128.74l-10.01-6.85-9.91 7.01 3.42-11.64-9.72-7.25 12.12-.35 3.89-11.495 4.08 11.425 12.13.15-9.6 7.41z"/><path d="M137.83 25.11C89.992 12 59.69 45.866 60.147 76.215c.456 30.346 28.426 62.486 71.603 54.466C63.913 162.47 29.22 112.4 30.61 72.648c2.378-46.988 55.193-85.31 107.22-47.537z" fill="#fff"/></g></svg>