<svg xmlns="http://www.w3.org/2000/svg" height="480" width="640" version="1"><g fill-rule="evenodd"><path stroke-width="1pt" fill="#fff" d="M320 0h320v480H320z"/><g><path d="M282.43-735.13c0 .625 55.956 222.85 118.17 300.56 69.375 87.27 113.18 87.333 113.18 87.333l70.866-17.717s-41.496 2.093-123.8-104.21c-83.45-107.78-109.42-285.96-108.17-282.84l-70.24 16.875z" transform="matrix(-.24 0 0 .199 533.912 334.11)" stroke="#000" stroke-width=".898pt" fill="#fff"/><path d="M285-727.64c-1.535-9.37 33.898 220.95 140.2 327.24 53.15 53.15 88.583 53.15 88.583 53.15l88.582-17.717s-51.712 3.75-134.02-102.55c-83.45-107.78-108.58-263.25-107.96-263.87l-75.38 3.75z" transform="matrix(.24 0 0 .199 381.945 335.919)" stroke="#000" stroke-width=".898pt" fill="#fff"/><path d="M282.43-735.13c0 .625 55.956 222.85 118.17 300.56 69.375 87.27 113.18 87.333 113.18 87.333l70.866-17.717s-41.496 2.093-123.8-104.21c-83.45-107.78-109.42-285.96-108.17-282.84l-70.24 16.875z" transform="matrix(.24 0 0 .199 381.945 335.919)" stroke="#000" stroke-width=".898pt" fill="#fff"/><path d="M285-727.64c-1.535-9.37 33.898 220.95 140.2 327.24 53.15 53.15 88.583 53.15 88.583 53.15l88.582-17.717s-51.712 3.75-134.02-102.55c-83.45-107.78-108.58-263.25-107.96-263.87l-75.38 3.75z" transform="matrix(-.24 0 0 .199 533.912 334.11)" stroke="#000" stroke-width=".898pt" fill="#fff"/><path d="M344.54-596.29l9.152 22.14s1.455-9.766 8.526-11.533l7.07-1.768s26.865 49.327 32.17 58.166c5.3 8.838-3.537 16.793-1.77 16.793 1.77 0 26.517-11.49 26.517-11.49s-10.606.882-15.026-6.19-34.82-59.933-34.82-59.933 6.187-2.652 11.49-5.303c5.304-2.652 10.607 7.955 10.607 7.955L385.2-613.97s0 8.84-4.42 10.607c-4.42 1.766-7.956 3.534-7.956 3.534s-3.535-6.187-7.955-13.258c-4.42-7.07 4.42-14.142 4.42-14.142l-22.982 11.49s7.955 4.42 10.607 8.84c2.65 4.42 5.303 8.838 5.303 8.838s-3.223 1.768-8.214 3.482c-3.59 1.875-7.696.054-9.464-1.714z" transform="matrix(.24 .004 -.005 .199 380.069 342.042)" stroke="#000" stroke-width=".898pt" fill="#fff133"/><g stroke="#000" stroke-width="12.791" fill="#b00"><path d="M410.473 335.78c-.637-.107-.92-.64-.567-1.064s1.347-.744 1.985-.638l3.51.585c.636.106.92.638.565 1.063-.37.444-1.346.744-1.984.638l-3.507-.585z"/><path d="M408.616 337.096c-.603-.106-.85-.638-.496-1.063s1.31-.744 1.913-.638l3.313.585c.602.106.85.638.496 1.063-.37.444-1.31.744-1.913.638l-3.314-.584z"/><path d="M406.75 338.713c-.636-.106-.92-.638-.566-1.063s1.347-.744 1.985-.638l3.507.585c.637.106.92.638.566 1.063-.37.444-1.346.744-1.984.638l-3.51-.585z"/><path d="M430.703 318.06c-.638.037-1.063-.388-.85-.85s1.062-.956 1.7-.99l3.508-.196c.64-.035 1.064.39.85.85-.22.482-1.062.957-1.7.993l-3.507.194z"/><path d="M429.08 319.768c-.637 0-1.027-.46-.78-.92s1.135-.922 1.773-.922h3.508c.64 0 1.03.46.78.92-.26.482-1.133.922-1.77.922h-3.51z"/><path d="M427.518 321.54c-.638.037-1.028-.388-.78-.85s1.134-.956 1.772-.99l3.508-.196c.638-.035 1.028.39.78.85-.26.482-1.134.957-1.772.993l-3.508.194z"/><path d="M426.073 322.52c-.637-.035-.992-.53-.708-.992s1.205-.885 1.842-.85l3.508.195c.638.035.992.53.71.992-.297.48-1.206.886-1.844.85l-3.507-.194z"/><path d="M435.964 311.585c-.638.106-1.134-.284-.992-.78s.92-1.098 1.56-1.204l3.506-.584c.638-.106 1.134.283.993.78-.148.518-.92 1.098-1.56 1.204l-3.506.585z"/><path d="M434.32 313.52c-.602.072-1.027-.353-.85-.85s.957-1.062 1.56-1.133l3.312-.39c.602-.07 1.028.355.85.85-.185.52-.956 1.064-1.56 1.135l-3.312.39z"/><path d="M433.733 315.445c-.638.106-1.134-.284-.992-.78s.922-1.098 1.56-1.204l3.507-.584c.638-.106 1.134.283.993.78-.15.518-.922 1.098-1.56 1.204l-3.507.585z"/><path d="M432.104 317.164c-.638.07-1.098-.354-.92-.85s.99-1.063 1.63-1.134l3.507-.39c.638-.07 1.1.355.922.85-.185.52-.992 1.064-1.63 1.135l-3.508.39z"/><path d="M417.825 329.88c-.638-.07-.957-.566-.638-.99s1.276-.78 1.914-.71l3.508.39c.638.07.957.567.638.992-.333.444-1.275.78-1.913.708l-3.508-.39z"/><path d="M416.312 331.305c-.638-.07-.957-.567-.638-.992s1.276-.78 1.914-.71l3.507.39c.638.072.957.568.638.993-.333.444-1.275.78-1.913.708l-3.508-.39z"/><path d="M414.397 333.06c-.638-.072-.957-.568-.638-.993s1.275-.78 1.913-.71l3.507.39c.638.072.957.568.638.993-.333.444-1.275.78-1.913.708l-3.508-.39z"/><path d="M412.34 334.162c-.604-.106-.852-.638-.497-1.063s1.31-.745 1.913-.64l3.313.586c.6.106.85.638.495 1.063-.37.443-1.31.743-1.913.637l-3.313-.585z"/><path d="M424.363 324.207c-.637 0-.992-.46-.708-.92s1.205-.922 1.842-.922h3.508c.638 0 .992.46.71.92-.297.482-1.206.922-1.844.922h-3.507z"/><path d="M423.016 325.957c-.637-.036-.992-.532-.708-.993s1.205-.885 1.842-.85l3.508.195c.638.034.992.53.71.99-.297.482-1.206.887-1.844.85l-3.508-.193z"/><path d="M421.25 326.703c-.637-.07-.956-.567-.637-.992s1.276-.78 1.914-.708l3.507.39c.638.07.957.567.638.992-.333.444-1.275.78-1.913.708l-3.51-.39z"/><path d="M419.74 328.127c-.64-.07-.958-.567-.64-.992s1.277-.78 1.915-.71l3.507.39c.638.072.957.568.638.993-.333.444-1.275.78-1.913.708l-3.508-.39z"/><path d="M446.77 289.22c-.604.213-1.17-.07-1.135-.567s.673-1.205 1.275-1.417l3.313-1.17c.603-.212 1.17.07 1.134.567-.037.52-.673 1.205-1.275 1.418l-3.313 1.17z"/><path d="M445.836 290.236c-.603.142-1.1-.212-.993-.708s.815-1.134 1.418-1.276l3.314-.78c.602-.14 1.098.213.992.71-.11.517-.815 1.133-1.417 1.275l-3.314.78z"/><path d="M444.89 292.48c-.604.143-1.1-.21-.994-.707s.815-1.134 1.418-1.276l3.313-.78c.602-.14 1.098.213.992.71-.112.517-.816 1.133-1.418 1.275l-3.313.78z"/><path d="M444.157 294.29c-.603.142-1.1-.212-.993-.71s.815-1.132 1.418-1.274l3.313-.78c.602-.14 1.098.213.992.71-.11.517-.815 1.133-1.417 1.275l-3.313.78z"/><path d="M448.79 282.976c-.604.177-1.17-.142-1.135-.638s.673-1.17 1.275-1.347l3.313-.973c.603-.177 1.17.142 1.134.638-.037.518-.673 1.17-1.275 1.346l-3.313.976z"/><path d="M448.057 285.065c-.603.213-1.17-.07-1.134-.567s.673-1.205 1.275-1.417l3.313-1.17c.604-.21 1.17.072 1.135.568-.037.52-.673 1.205-1.275 1.418l-3.313 1.17z"/><path d="M447.5 287.13c-.602.178-1.17-.14-1.133-.637s.673-1.17 1.275-1.347l3.313-.974c.603-.177 1.17.142 1.134.638-.038.518-.674 1.17-1.276 1.346l-3.313.975z"/><path d="M439.873 303.984c-.602.106-1.063-.284-.92-.78s.885-1.098 1.487-1.204l3.313-.585c.602-.106 1.063.283.92.78-.147.518-.885 1.098-1.487 1.204l-3.313.584z"/><path d="M438.973 305.737c-.602.106-1.063-.284-.92-.78s.885-1.098 1.487-1.204l3.313-.585c.602-.106 1.063.283.92.78-.147.518-.885 1.098-1.487 1.204l-3.313.585z"/><path d="M437.814 307.91c-.602.107-1.063-.283-.92-.78s.885-1.097 1.487-1.203l3.314-.585c.602-.106 1.063.283.92.78-.147.518-.885 1.098-1.487 1.204l-3.313.585z"/><path d="M436.55 309.66c-.602.072-1.027-.353-.85-.85s.957-1.062 1.56-1.133l3.312-.39c.602-.07 1.028.355.85.85-.185.52-.956 1.064-1.56 1.135l-3.312.39z"/><path d="M443.21 296.535c-.604.142-1.1-.212-.994-.71s.815-1.132 1.418-1.274l3.313-.78c.602-.14 1.098.214.992.71-.112.518-.816 1.134-1.418 1.276l-3.313.78z"/><path d="M443.09 297.883c-.603.106-1.064-.284-.922-.78s.886-1.098 1.488-1.204l3.313-.586c.6-.106 1.062.283.92.78-.148.518-.886 1.098-1.488 1.204l-3.313.585z"/><path d="M441.93 300.057c-.6.106-1.062-.284-.92-.78s.886-1.098 1.488-1.204l3.313-.585c.603-.106 1.064.283.922.78-.148.518-.886 1.098-1.488 1.204l-3.313.585z"/><path d="M441.03 301.81c-.6.106-1.062-.284-.92-.78s.886-1.098 1.488-1.204l3.313-.585c.603-.105 1.064.284.922.78-.148.52-.886 1.1-1.488 1.205l-3.313.585z"/><path d="M452.84 271.02c-.532.283-1.135.07-1.206-.425s.39-1.276.922-1.56l2.923-1.56c.53-.282 1.133-.07 1.204.427.074.518-.39 1.275-.922 1.56l-2.923 1.558z"/><path d="M451.955 272.99c-.603.214-1.17-.07-1.134-.566s.674-1.205 1.276-1.417l3.313-1.17c.602-.212 1.17.07 1.133.567-.037.52-.673 1.205-1.275 1.418l-3.313 1.17z"/><path d="M451.226 275.065c-.567.177-1.098-.142-1.063-.638s.638-1.17 1.205-1.347l3.118-.974c.567-.177 1.098.142 1.063.638-.038.518-.64 1.17-1.206 1.346l-3.118.975z"/><path d="M453.152 264.584c-.532.248-1.1 0-1.134-.496s.46-1.24.992-1.488l2.923-1.364c.532-.248 1.098 0 1.134.496.037.518-.46 1.24-.992 1.488l-2.923 1.364z"/><path d="M453.32 266.743c-.53.283-1.134.07-1.205-.425s.39-1.276.922-1.56l2.923-1.56c.53-.282 1.134-.07 1.205.427.074.518-.39 1.275-.922 1.56l-2.923 1.558z"/><path d="M452.67 268.86c-.53.247-1.098 0-1.133-.497s.46-1.24.992-1.488l2.922-1.364c.532-.247 1.098 0 1.134.497.037.518-.46 1.24-.992 1.488l-2.923 1.364z"/><path d="M450.757 277.165c-.603.213-1.17-.07-1.134-.567s.673-1.205 1.275-1.417l3.313-1.17c.604-.21 1.17.072 1.135.568-.037.52-.673 1.205-1.275 1.418l-3.313 1.17z"/><path d="M450.11 278.717c-.604.177-1.17-.142-1.135-.638s.673-1.17 1.275-1.348l3.313-.974c.603-.177 1.17.142 1.134.638-.037.518-.673 1.17-1.275 1.346l-3.313.975z"/><path d="M449.378 280.806c-.603.213-1.17-.07-1.134-.567s.673-1.206 1.275-1.418l3.312-1.17c.603-.212 1.17.07 1.134.567-.037.518-.673 1.204-1.275 1.417l-3.312 1.17z"/></g><g stroke="#000" stroke-width="12.791" fill="#b00"><path d="M503.206 329.89c.638-.072.957-.568.638-.993s-1.276-.78-1.914-.71l-3.507.39c-.638.072-.957.568-.638.993.333.444 1.275.78 1.913.708l3.508-.39z"/><path d="M504.96 331.29c.602-.07.885-.566.567-.99s-1.24-.78-1.843-.71l-3.313.39c-.6.07-.885.567-.566.992.333.444 1.24.78 1.843.708l3.313-.39z"/><path d="M506.695 333.017c.638-.07.957-.567.638-.992s-1.276-.78-1.914-.71l-3.508.39c-.638.072-.957.568-.638.993.333.444 1.275.78 1.913.708l3.508-.39z"/><path d="M484.335 311.676c.638.07 1.098-.354.92-.85s-.99-1.063-1.63-1.134l-3.507-.39c-.637-.07-1.098.355-.92.85.184.52.99 1.064 1.63 1.135l3.507.39z"/><path d="M485.84 313.442c.64.035 1.064-.425.852-.92s-1.063-1.03-1.7-1.064l-3.51-.195c-.637-.036-1.062.425-.85.92.223.52 1.064 1.03 1.702 1.064l3.507.195z"/><path d="M487.25 315.293c.64.07 1.064-.354.852-.85s-1.063-1.063-1.7-1.134l-3.51-.39c-.637-.072-1.062.354-.85.85.223.518 1.064 1.063 1.702 1.134l3.507.39z"/><path d="M488.65 315.872c.64 0 1.03-.46.78-.92s-1.133-.922-1.77-.922h-3.51c-.637 0-1.027.46-.78.92.26.482 1.135.922 1.773.922h3.508z"/><path d="M479.787 304.533c.603.142 1.1-.212.993-.71s-.815-1.132-1.418-1.274l-3.313-.78c-.603-.142-1.1.212-.993.708.11.518.815 1.134 1.417 1.276l3.313.78z"/><path d="M481.086 306.516c.602.106 1.063-.284.92-.78s-.885-1.098-1.487-1.204l-3.314-.585c-.602-.106-1.063.283-.92.78.147.518.885 1.098 1.487 1.204l3.313.586z"/><path d="M481.722 308.5c.603.142 1.1-.212.993-.71s-.815-1.132-1.418-1.274l-3.313-.78c-.602-.14-1.098.213-.992.71.11.517.815 1.133 1.417 1.275l3.312.78z"/><path d="M483.235 310.28c.602.105 1.063-.285.92-.78s-.885-1.1-1.487-1.205l-3.313-.585c-.602-.106-1.063.283-.92.78.147.518.885 1.098 1.487 1.204l3.313.585z"/><path d="M496.305 324.086c.637-.036.992-.532.708-.993s-1.205-.885-1.842-.85l-3.507.195c-.638.035-.992.53-.71.992.297.48 1.206.886 1.844.85l3.508-.194z"/><path d="M497.706 325.587c.637-.036.992-.532.708-.993s-1.205-.885-1.842-.85l-3.508.195c-.638.034-.992.53-.71.99.297.482 1.206.887 1.844.85l3.508-.193z"/><path d="M499.483 327.44c.637-.036.992-.532.708-.993s-1.204-.885-1.84-.85l-3.51.195c-.637.035-.99.53-.708.992.296.48 1.205.886 1.843.85l3.508-.194z"/><path d="M501.47 328.163c.6-.07.884-.567.566-.992s-1.24-.78-1.843-.708l-3.313.39c-.602.07-.886.567-.567.992.333.444 1.24.78 1.843.708l3.313-.39z"/><path d="M490.213 317.645c.638.036 1.028-.39.78-.85s-1.134-.957-1.772-.992l-3.507-.195c-.638-.035-1.028.39-.78.85.26.482 1.134.957 1.772.993l3.508.195z"/><path d="M491.44 319.462c.638 0 1.028-.46.78-.92s-1.134-.922-1.772-.922h-3.508c-.638 0-1.028.46-.78.92.26.482 1.134.922 1.772.922h3.508z"/><path d="M493.128 320.732c.637-.036.992-.532.708-.993s-1.205-.886-1.842-.85l-3.508.194c-.638.035-.992.53-.71.992.297.48 1.206.886 1.844.85l3.508-.194z"/><path d="M494.528 322.233c.637-.036.992-.532.708-.993s-1.205-.885-1.842-.85l-3.508.195c-.638.035-.992.53-.71.992.297.48 1.206.886 1.844.85l3.508-.194z"/><path d="M470.63 281.935c.568.213 1.135-.07 1.135-.567s-.567-1.205-1.134-1.417l-3.117-1.17c-.567-.21-1.134.072-1.134.568 0 .52.566 1.205 1.133 1.418l3.118 1.17z"/><path d="M471.307 282.738c.602.177 1.134-.142 1.063-.638s-.744-1.17-1.347-1.347l-3.313-.974c-.602-.178-1.133.14-1.063.637.075.518.745 1.17 1.347 1.346l3.313.975z"/><path d="M471.63 285.027c.604.177 1.17-.142 1.135-.638s-.673-1.17-1.275-1.348l-3.313-.974c-.603-.177-1.17.142-1.134.638.037.518.673 1.17 1.275 1.346l3.313.975z"/><path d="M472.68 286.868c.602.177 1.134-.142 1.063-.638s-.744-1.17-1.347-1.347l-3.313-.974c-.602-.178-1.133.14-1.063.637.075.518.745 1.17 1.347 1.346l3.313.975z"/><path d="M469.097 275.394c.567.213 1.134-.07 1.134-.567s-.566-1.205-1.133-1.417l-3.118-1.17c-.568-.212-1.135.07-1.135.567 0 .52.567 1.205 1.134 1.418l3.117 1.17z"/><path d="M469.656 277.727c.567.213 1.134-.07 1.134-.567s-.567-1.205-1.134-1.417l-3.118-1.17c-.567-.212-1.134.07-1.134.567 0 .52.567 1.205 1.134 1.418l3.118 1.17z"/><path d="M470.072 279.602c.567.213 1.134-.07 1.134-.567s-.567-1.205-1.134-1.417l-3.118-1.17c-.567-.212-1.134.07-1.134.567 0 .52.567 1.205 1.134 1.418l3.118 1.17z"/><path d="M476.244 296.735c.603.142 1.1-.212.993-.71s-.815-1.132-1.418-1.274l-3.314-.78c-.602-.14-1.098.214-.992.71.11.518.815 1.134 1.417 1.276l3.314.78z"/><path d="M477.01 298.53c.603.142 1.1-.212.993-.708s-.815-1.134-1.418-1.276l-3.313-.78c-.602-.14-1.098.213-.992.71.11.517.815 1.133 1.417 1.275l3.313.78z"/><path d="M478.004 300.76c.603.14 1.1-.213.993-.71s-.815-1.133-1.418-1.275l-3.314-.78c-.602-.14-1.098.213-.992.71.11.517.815 1.133 1.417 1.275l3.314.78z"/><path d="M479.15 302.55c.603.105 1.064-.285.922-.78s-.886-1.1-1.488-1.205l-3.313-.585c-.6-.106-1.062.283-.92.78.148.518.886 1.098 1.488 1.204l3.313.585z"/><path d="M473.003 289.157c.603.177 1.17-.142 1.134-.638s-.673-1.17-1.275-1.348l-3.313-.974c-.604-.177-1.17.142-1.135.638.037.518.673 1.17 1.275 1.346l3.313.975z"/><path d="M473.494 290.48c.603.143 1.1-.21.993-.707s-.815-1.134-1.418-1.276l-3.314-.78c-.602-.14-1.098.213-.992.71.11.517.815 1.133 1.417 1.275l3.314.78z"/><path d="M474.486 292.71c.603.142 1.1-.212.993-.708s-.816-1.134-1.42-1.276l-3.312-.78c-.602-.14-1.098.213-.992.71.11.517.815 1.133 1.417 1.275l3.313.78z"/><path d="M475.252 294.506c.603.142 1.1-.212.993-.708s-.815-1.134-1.418-1.276l-3.313-.78c-.602-.14-1.098.213-.992.71.11.517.815 1.133 1.417 1.275l3.312.78z"/><path d="M465.686 263.312c.532.32 1.17.142 1.276-.354s-.32-1.31-.85-1.63l-2.924-1.754c-.53-.32-1.17-.142-1.275.354-.11.52.32 1.31.85 1.63l2.923 1.754z"/><path d="M466.668 265.273c.567.248 1.134 0 1.134-.496s-.567-1.24-1.134-1.488l-3.118-1.365c-.567-.248-1.134 0-1.134.496 0 .52.567 1.24 1.134 1.49l3.118 1.363z"/><path d="M467.044 267.368c.567.213 1.134-.07 1.134-.567s-.567-1.204-1.134-1.416l-3.118-1.17c-.567-.212-1.134.07-1.134.567 0 .52.567 1.206 1.134 1.42l3.118 1.168z"/><path d="M465.87 256.86c.53.284 1.133.072 1.204-.424s-.39-1.276-.922-1.56l-2.923-1.56c-.532-.282-1.135-.07-1.206.427-.074.518.39 1.275.922 1.56l2.923 1.558z"/><path d="M465.523 259.026c.532.32 1.17.142 1.276-.354s-.32-1.31-.85-1.63l-2.925-1.754c-.53-.32-1.17-.142-1.275.354-.11.52.32 1.31.85 1.63l2.923 1.754z"/><path d="M466.032 261.146c.53.283 1.134.07 1.205-.425s-.39-1.275-.922-1.558l-2.923-1.56c-.53-.283-1.134-.07-1.205.426-.074.518.39 1.275.922 1.56l2.922 1.558z"/><path d="M467.552 269.496c.567.248 1.134 0 1.134-.496s-.567-1.24-1.134-1.488l-3.118-1.364c-.567-.248-1.134 0-1.134.496 0 .518.567 1.24 1.134 1.488l3.118 1.364z"/><path d="M468.098 271.08c.567.212 1.134-.072 1.134-.568s-.567-1.205-1.134-1.417l-3.118-1.17c-.567-.212-1.134.07-1.134.567 0 .52.567 1.205 1.134 1.418l3.118 1.17z"/><path d="M468.655 273.412c.567.213 1.134-.07 1.134-.567s-.568-1.205-1.135-1.417l-3.118-1.17c-.567-.212-1.134.07-1.134.567 0 .52.567 1.205 1.134 1.418l3.118 1.17z"/></g><path d="M344.54-596.29l9.152 22.14s1.455-9.766 8.526-11.533l7.07-1.768s26.865 49.327 32.17 58.166c5.3 8.838-3.537 16.793-1.77 16.793 1.77 0 26.517-11.49 26.517-11.49s-10.606.882-15.026-6.19-34.82-59.933-34.82-59.933 6.187-2.652 11.49-5.303c5.304-2.652 10.607 7.955 10.607 7.955L385.2-613.97s0 8.84-4.42 10.607c-4.42 1.766-7.956 3.534-7.956 3.534s-3.535-6.187-7.955-13.258c-4.42-7.07 4.42-14.142 4.42-14.142l-22.982 11.49s7.955 4.42 10.607 8.84c2.65 4.42 5.303 8.838 5.303 8.838s-3.223 1.768-8.214 3.482c-3.59 1.875-7.696.054-9.464-1.714z" transform="matrix(-.24 .004 .005 .199 535.788 340.233)" stroke="#000" stroke-width=".898pt" fill="#fff133"/><g transform="matrix(.144 0 0 .121 423.633 295.124)"><path stroke-width="1pt" fill="#c0c0c0" d="M324.546-255.37l-50.11 50.11L449.82-29.874l50.11-50.11z"/><ellipse rx="35.433" ry="35.433" stroke="#000" transform="matrix(-.707 .707 .707 .707 833.17 -197.75)" cy="-1428" cx="354.33" stroke-width=".898pt" fill="#fff133"/><path d="M-402.046-956.91l37.583 37.582-25.055 25.054-37.583-37.582c-12.53-12.528 12.526-37.583 25.054-25.055z" stroke="#000" stroke-width=".898pt" fill="#c0c0c0"/><path d="M-346.606-926.53l-50.11 50.11c-13.798 0-25.35-11.554-25.055-25.056 10.877-25.88 25.027-38.434 50.11-50.11 12.476.73 24.216 10.892 25.054 25.055z" stroke="#000" stroke-width=".898pt" fill="#fff133"/><path d="M-351.926-931.85l37.583 37.582-50.11 50.11-37.583-37.583c5.027-20.03 30.082-45.085 50.11-50.11z" stroke="#000" stroke-width=".898pt" fill="#c0c0c0"/><path d="M-309.026-888.95l-50.11 50.11c-13.798 0-25.35-11.554-25.055-25.056 10.877-25.88 25.027-38.434 50.11-50.11 12.476.73 24.216 10.892 25.054 25.055z" stroke="#000" stroke-width=".898pt" fill="#fff133"/><path d="M-314.356-894.28L28.44-551.478l-50.11 50.11-342.796-342.804c5.027-20.03 30.082-45.085 50.11-50.11z" stroke="#000" stroke-width=".898pt" fill="#c0c0c0"/><path d="M48.934-530.97l-50.11 50.11c-13.798 0-25.35-11.554-25.055-25.056 10.877-25.88 25.027-38.434 50.11-50.11 12.476.73 24.216 10.892 25.054 25.055z" stroke="#000" stroke-width=".898pt" fill="#fff133"/><path d="M48.944-530.976L274.44-305.48l-50.11 50.11L-1.165-480.865c5.027-20.028 30.082-45.084 50.11-50.11z" stroke="#000" stroke-width=".898pt" fill="#c0c0c0"/><path d="M186.744-418.23l-75.166 75.165c-13.797 0-25.35-11.553-25.055-25.055 0 0 0-25.055 25.055-50.11s50.11-25.055 50.11-25.055c11.64 1.567 21.415 12.527 25.055 25.055z" stroke="#000" stroke-width=".898pt" fill="#c0c0c0"/><path d="M186.744-418.23l50.11 75.165-50.11 50.11-75.165-50.11c-2.83-2.443 0-25.055 25.054-50.11s48.98-24.457 50.11-25.056z" stroke="#000" stroke-width=".898pt" fill="#c0c0c0"/><path d="M336.61-506.69c0-35.433 0-86.653 17.717-129.98 17.716 43.326 17.716 94.546 17.716 129.98H336.61z" transform="matrix(-.707 .707 .578 .578 755.37 -275.55)" stroke="#000" stroke-width=".898pt" fill="#c0c0c0"/><path d="M318.9-506.69h17.716v-43.326c0-43.327-35.433-64.99-35.433-64.99l17.717 108.32z" transform="matrix(.707 -.707 .578 .578 254.27 225.55)" stroke="#000" stroke-width=".898pt" fill="#c0c0c0"/><path d="M318.9-506.69h17.716v-43.326c0-43.327-35.433-64.99-35.433-64.99l17.717 108.32z" transform="matrix(-.707 .707 .578 .578 755.37 -275.55)" stroke="#000" stroke-width=".898pt" fill="#c0c0c0"/><path d="M-314.356-894.28l37.583 37.582C-251.718-831.643-164.03-718.9-164.03-718.9s117.297 92.25 142.357 117.31l37.583 37.583c-25.056-25.055-179.937-129.835-179.937-129.835S-71.784-551.48-34.2-513.896l-37.584-37.583c-25.055-25.054-117.305-142.36-117.3-142.365-.005.005-100.223-75.168-125.276-100.22l-50.11-50.11c25.054 25.054 175.38 125.28 175.38 125.28s-100.218-150.338-125.27-175.39z" stroke="#000" stroke-width=".898pt" fill="#fff133"/><path d="M299.493-230.317c50.11 75.165 100.22 125.276 112.744 137.8 23.776 23.82 50.11 25.055 50.11 25.055s0-25.056-25.055-50.11c-12.527-12.528-62.638-62.64-137.8-112.745zm-62.64-112.75c87.695 87.695 187.916 137.806 250.552 200.442 50.11 50.11 15.414 88.464 1.443 100.606-13.97 12.142-51.966 50.283-101.664-.385-62.638-62.638-112.746-162.857-200.442-250.552 0-25.055 25.056-50.11 50.11-50.11z" stroke="#000" stroke-width=".898pt" fill="#c0c0c0"/><path transform="matrix(-1.249 -1.421 -1.359 1.317 1166.1 -102.64)" stroke="#000" stroke-width=".898pt" fill="#c0c0c0" d="M218.28 257.88h22.934v73.043H218.28z"/><g stroke="#000" fill="#c0c0c0"><path d="M301.18 396.85l17.717 17.717-17.717 17.716 8.858 8.86 17.717-17.718 35.433 35.433-17.717 17.717 8.86 8.858 17.716-17.716 17.717 17.716-53.15 53.15-35.433-35.433 17.717-17.717 8.858 8.86 8.858-8.86L301.18 450l-8.858 8.86 8.858 8.857-17.716 17.716-17.717-17.716 8.858-8.86-8.858-8.857-35.433 35.433 8.858 8.858 8.858-8.857 17.717 17.717-17.716 17.716-8.857-8.858-8.86 8.858 35.434 35.433 8.86-8.86-8.86-8.858 17.717-17.716 35.433 35.433-53.15 53.15-17.717-17.718 17.717-17.716-8.858-8.858-17.718 17.716-35.433-35.433 17.716-17.716-8.86-8.858-17.715 17.717-17.716-17.717 124.02-124.02z" transform="matrix(-2.294 0 0 2.244 360.524 -1733.766)" stroke-width=".561"/><path d="M318.9 786.61v35.433l88.582 88.583V839.76l-17.716-17.717h-35.433L318.9 786.61z" stroke-width="1.122" transform="matrix(-1.147 0 0 1.122 157.31 -1288.5)"/><path d="M230.41 698.78l70.38 70.38.84 35.19-71.22-71.218V698.78z" transform="matrix(-1.147 0 0 1.122 157.424 -1288.525)" stroke-width="1.122"/><path d="M301.18 804.33l35.433-35.433v-35.433l-35.433 35.433v35.433z" stroke-width="1.122" transform="matrix(-1.147 0 0 1.122 157.31 -1288.5)"/><path d="M301.18 804.33l35.433-35.433v-35.433l-35.433 35.433v35.433z" transform="matrix(-1.147 0 0 1.122 258.915 -1387.89)" stroke-width="1.122"/><path d="M248.03 644.88v35.433l17.717-17.717-17.717-17.716z" stroke-width="1.122" transform="matrix(-1.147 0 0 1.122 157.31 -1288.5)"/><path d="M248.03 644.88v35.433l17.717-17.717-17.717-17.716z" transform="matrix(-1.147 0 0 1.122 55.705 -1189.11)" stroke-width="1.122"/><path d="M230.41 698.78l35.786 35.433v35.433l-35.786-36.514V698.78z" transform="matrix(-1.147 0 0 1.122 218.79 -1348.976)" stroke-width="1.122"/><path d="M301.18 804.33l35.433-35.433v-35.433l-35.433 35.433v35.433z" transform="matrix(-1.147 0 0 1.122 55.705 -1507.155)" stroke-width="1.122"/><path d="M301.18 804.33l35.433-35.433v-35.433l-35.433 35.433v35.433z" transform="matrix(-1.147 0 0 1.122 136.989 -1427.65)" stroke-width="1.122"/><path d="M283.46 822.05l53.15-53.15v-35.433l-70.866 70.866 17.716 17.717z" transform="matrix(-1.147 0 0 1.122 136.989 -1546.919)" stroke-width="1.122"/><path d="M248.03 644.88v35.433l17.717-17.717-17.717-17.716z" transform="matrix(-1.147 0 0 1.122 35.384 -1447.521)" stroke-width="1.122"/><path d="M301.18 804.33l-35.433-35.433v-35.433l35.433 35.433v35.433z" transform="matrix(-1.147 0 0 1.122 55.705 -1507.155)" stroke-width="1.122"/><path d="M389.76 822.05l-53.15-53.15v-35.433l70.866 70.866-17.716 17.717z" transform="matrix(-1.147 0 0 1.122 55.705 -1546.919)" stroke-width="1.122"/><path d="M230.41 698.05l70.866 70.866h35.433l17.716 17.716V857.5l-124.02-124.37v-35.08z" transform="matrix(-1.147 0 0 1.122 -66.103 -1387.915)" stroke-width="1.122"/><path d="M354.33 822.05l106.3-106.3h35.433l-106.3 106.3H354.33z" stroke-width="1.122" transform="matrix(-1.147 0 0 1.122 157.31 -1288.5)"/><path d="M407.48 839.76l106.3-106.3-17.72-17.71-106.3 106.3 17.72 17.71z" stroke-width="1.122" transform="matrix(-1.147 0 0 1.122 157.31 -1288.5)"/><path d="M407.48 839.76v70.866l106.3-106.3V733.46l-106.3 106.3z" transform="matrix(-1.147 0 0 1.122 157.31 -1288.5)" stroke-width="1.122"/><path d="M354.33 822.05l106.3-106.3h35.433l-106.3 106.3H354.33z" transform="matrix(-1.147 0 0 1.122 -5.254 -1447.521)" stroke-width="1.122"/><path d="M407.48 839.76l106.3-106.3-17.72-17.71-106.3 106.3 17.72 17.71z" transform="matrix(-1.147 0 0 1.122 -5.254 -1447.521)" stroke-width="1.122"/><path d="M407.48 839.76v70.866l106.3-106.3V733.46l-106.3 106.3z" transform="matrix(-1.147 0 0 1.122 -5.254 -1447.521)" stroke-width="1.122"/><path d="M318.9 786.62l17.717-17.717V733.47l-35.433 35.433L318.9 786.62z" transform="matrix(-1.147 0 0 1.122 -86.542 -1527.037)" stroke-width="1.122"/><path d="M318.9 786.62l17.717-17.717V733.47l-35.433 35.433L318.9 786.62z" transform="matrix(-1.147 0 0 1.122 15.059 -1626.424)" stroke-width="1.122"/><path d="M265.75 768.9v-35.433l17.717 17.716L265.75 768.9z" transform="matrix(-1.147 0 0 1.122 55.705 -1348.134)" stroke-width="1.122"/><path d="M301.18 804.33l-35.433-35.433 17.717-17.717 17.716 17.717v35.433z" transform="matrix(-1.147 0 0 1.122 136.989 -1427.65)" stroke-width="1.122"/><path d="M301.18 804.33l-17.716-17.717 17.716-17.716v35.433z" transform="matrix(-1.147 0 0 1.122 15.059 -1586.671)" stroke-width="1.122"/></g><path transform="matrix(-1.251 -1.419 -1.361 1.315 1166.1 -102.64)" stroke="#000" stroke-width=".898pt" fill="#fff133" d="M196.5 254.15h25.197v80.26H196.5z"/><path d="M336.61 166.54c0 14.67 35.433 35.434 35.433-17.716H336.61v17.716z" transform="matrix(-1.899 0 0 1.887 1166.1 -102.64)" stroke="#000" stroke-width=".898pt" fill="#c0c0c0"/><path d="M242.1 24.803c-147.06 0-113.13 164.24-100.37 124.02 9.36-29.503 35.433-70.866 64.935-80.225 40.225-12.76 26.696 9.36 41.364 9.36 14.67 0 1.14-22.12 41.363-9.36 29.503 9.36 55.577 50.722 64.936 80.225 12.76 40.224 53.148-124.02-112.23-124.02z" transform="matrix(-1.899 0 0 1.887 1166.1 -102.64)" stroke="#000" stroke-width=".898pt" fill="#c0c0c0"/><path d="M389.76 166.54c0 78.237-63.496 141.73-141.73 141.73-78.236 0-141.73-63.496-141.73-141.73v-17.716c0-29.116 35.433 124.02 141.73 124.02s141.73-124.77 141.73-124.02v17.716z" transform="matrix(-1.899 0 0 1.887 1166.1 -102.64)" stroke="#000" stroke-width=".898pt" fill="#c0c0c0"/><path d="M336.61 166.54c0 14.67 35.433 35.434 35.433-17.716H336.61v17.716z" transform="matrix(1.899 0 0 1.887 224 -100.51)" stroke="#000" stroke-width=".898pt" fill="#c0c0c0"/><path d="M389.76 148.82c0 78.236-63.496 141.73-141.73 141.73-78.236 0-141.73-63.496-141.73-141.73 0-78.236 63.496-141.73 141.73-141.73 78.237 0 141.73 63.496 141.73 141.73zm-53.15 0c0 14.67 22.812 3.042 9.36 43.04-9.36 27.826-27.076 45.543-56.58 54.902-40.224 12.76-26.693-9.36-41.363-9.36-14.668 0-1.14 22.12-41.364 9.36-29.502-9.36-47.218-27.076-56.577-56.578-12.76-40.224 9.36-26.695 9.36-41.364 0-14.67-22.12-1.14-9.36-41.364 9.36-29.502 27.075-47.22 56.577-56.578 40.225-12.76 26.696 9.36 41.364 9.36 14.67 0 1.14-22.12 41.364-9.36 29.504 9.36 47.22 27.075 56.58 56.578 12.76 40.224-9.36 26.694-9.36 41.364z" transform="matrix(-1.899 0 0 1.887 1166.1 -102.64)" stroke="#000" stroke-width=".898pt" fill="#c0c0c0"/><path d="M126.55 157.68c-20.248 0-1.93 67.6-9.104 51.705s-11.144-33.368-11.144-51.705 3.97-35.81 11.144-51.705c7.175-15.894-11.144 51.705 9.104 51.705z" transform="matrix(-1.662 0 0 1.761 1107.2 -99.519)" stroke="#000" stroke-width=".898pt" fill="#c0c0c0"/><path d="M372.05 139.96c0 15.892-2.13 31.632-9.75 44.81-7.966 13.776 9.75-44.81-7.966-44.81 17.716 0 1.687-58.587 7.965-44.81 6.278 13.775 9.75 28.918 9.75 44.81z" transform="matrix(-1.899 0 0 2.032 1166.1 -106.24)" stroke="#000" stroke-width=".898pt" fill="#c0c0c0"/><path d="M296.29 263.08c-14.836 6.28-31.144 9.75-48.258 9.75s-33.422-3.47-48.257-9.75c-14.835-6.278 48.257 9.75 48.257-7.966 0 17.717 63.093 1.688 48.258 7.966z" transform="matrix(-1.899 0 0 1.887 1166.1 -102.64)" stroke="#000" stroke-width=".898pt" fill="#c0c0c0"/><path d="M248.03 42.52c0-17.716-63.092-1.688-48.257-7.966s31.143-9.75 48.257-9.75 33.422 3.472 48.258 9.75c14.835 6.278-48.258-9.75-48.258 7.966z" transform="matrix(-1.899 0 0 1.887 1166.1 -102.64)" stroke="#000" stroke-width=".898pt" fill="#c0c0c0"/><ellipse rx="18.433" ry="20.109" stroke="#000" transform="matrix(-1.293 -1.382 -1.391 1.284 1257.6 -120.02)" cy="160.86" cx="82.112" stroke-width=".898pt" fill="#fff133"/><path d="M276.58 287.67c-9.223 1.89-18.773 2.88-28.552 2.88s-19.33-.99-28.553-2.88l-1.432 6.965c9.686 1.984 19.715 3.025 29.985 3.025s20.3-1.04 29.985-3.025l-1.433-6.965z" transform="matrix(-1.293 -1.382 1.391 -1.284 808.89 712.05)" stroke="#000" stroke-width=".898pt" fill="#fff133"/><path d="M276.58 287.67c-9.223 1.89-18.773 2.88-28.552 2.88s-19.33-.99-28.553-2.88l-1.432 6.965c9.686 1.984 19.715 3.025 29.985 3.025s20.3-1.04 29.985-3.025l-1.433-6.965z" transform="matrix(-1.293 -1.382 -1.391 1.284 1223.2 329.88)" stroke="#000" stroke-width=".898pt" fill="#fff133"/><path d="M267.7 308.51c-9.223 1.89-20.19.927-29.97.927-9.777 0-19.284-2.612-28.508-4.5l8.82-10.304c9.687 1.984 19.716 3.025 29.986 3.025s20.3-1.04 29.985-3.025L267.7 308.51z" transform="matrix(-1.293 -1.382 -1.391 1.284 1223.2 329.88)" stroke="#000" stroke-width=".898pt" fill="#fff133"/><path d="M276.58 287.67c-9.223 1.89-18.773 2.88-28.552 2.88s-19.33-.99-28.553-2.88l-1.432 6.965c9.686 1.984 19.715 3.025 29.985 3.025s20.3-1.04 29.985-3.025l-1.433-6.965z" transform="matrix(-1.391 1.284 1.293 1.382 847.44 -345.21)" stroke="#000" stroke-width=".898pt" fill="#fff133"/><ellipse rx="18.433" ry="20.109" stroke="#000" transform="matrix(-1.293 -1.382 -1.391 1.284 789.14 314.38)" cy="160.86" cx="82.112" stroke-width=".898pt" fill="#fff133"/><path d="M267.59 281.47c-9.223 1.89-17.098 2.943-26.877 2.943s-23.112-.712-32.336-2.6l9.672 12.82c9.685 1.985 19.714 3.026 29.984 3.026s20.3-1.042 29.985-3.026l-10.43-13.164z" transform="matrix(-1.391 1.284 1.293 1.382 850.63 -315.18)" stroke="#000" stroke-width=".898pt" fill="#fff133"/><path d="M173.94 271.77l-.838 14.842-3.24 4.493.977-15.087 3.1-4.248z" transform="matrix(-1.899 0 0 1.887 1166.1 -102.64)" stroke="#000" stroke-width=".898pt" fill="#fff133"/><path d="M330.54 265.6l3.562 4.19 1.047 13.615-2.934-2.933-1.676-14.872z" transform="matrix(-1.899 0 0 1.887 1166.1 -102.64)" stroke="#000" stroke-width=".898pt" fill="#fff133"/><ellipse rx="18.433" ry="20.109" stroke="#000" transform="matrix(-1.293 -1.382 -1.391 1.284 1237.6 329.88)" cy="160.86" cx="82.112" stroke-width=".898pt" fill="#fff133"/></g><path d="M513.78-790.16l35.432-17.714 35.433 17.714s-73.366 35.433-73.366 159.45c-.002 88.58 125.26 106.3 125.26 212.6 0 45.65-34.184 88.582-69.617 88.582s-88.583-17.716-141.73-70.866c35.433 17.716 76.082 37.308 106.3 36.058 19.588-.405 55.025-17.716 55.025-53.15 0-70.865-122.77-106.92-122.77-213.22 0-124.02 50.025-159.45 50.026-159.45z" transform="matrix(-.24 0 0 .199 533.912 334.11)" stroke="#000" stroke-width=".898pt" fill="#fff"/><path d="M520.25-790.16l46.683-17.717 10 17.717s-70.65 35.433-70.65 159.45c0 88.58 125.89 106.3 125.89 212.6 0 45.65-26.713 87.362-65.24 88.582-73.403 2.363-90.458-23.966-141.73-70.866 43.15 32.308 105 46.752 129.02 34.183 29.354-15.365 35.024-36.06 35.024-53.775 0-70.866-120.89-104.42-120.89-210.72 0-124.02 51.9-159.45 51.9-159.45z" transform="matrix(-.24 0 0 .199 533.912 334.11)" stroke="#000" stroke-width=".898pt" fill="#fff"/><path d="M513.34-789.69c7.004-2.437 35.875-18.186 71.308 17.247 17.717 17.72 17.716 53.15 17.716 70.866l53.15-53.15s-29.066-86.87-107.62-53.59c-11.127 4.9-28.14 14.537-34.55 18.627z" transform="matrix(-.24 0 0 .199 533.912 334.11)" stroke="#000" stroke-width=".898pt" fill="#fff"/><path d="M523.8-795.94c8.84-2.87 36.676-6.325 64.596 18.5 17.717 17.72 18.966 42.934 18.966 60.65l40.65-37.932c3.44-3.21-24.832-81.252-99.24-54.034-4.5 1.807-14.78 6.302-24.972 12.816z" transform="matrix(-.24 0 0 .199 533.912 334.11)" stroke="#000" stroke-width=".898pt" fill="#fff"/><path d="M344.54-596.29l9.152 22.14s1.455-9.766 8.526-11.533l7.07-1.768s26.865 49.327 32.17 58.166c5.3 8.838-3.537 16.793-1.77 16.793 1.77 0 26.517-11.49 26.517-11.49s-10.606.882-15.026-6.19-34.82-59.933-34.82-59.933 6.187-2.652 11.49-5.303c5.304-2.652 10.607 7.955 10.607 7.955L385.2-613.97s0 8.84-4.42 10.607c-4.42 1.766-7.956 3.534-7.956 3.534s-3.535-6.187-7.955-13.258c-4.42-7.07 4.42-14.142 4.42-14.142l-22.982 11.49s7.955 4.42 10.607 8.84c2.65 4.42 5.303 8.838 5.303 8.838s-3.223 1.768-8.214 3.482c-3.59 1.875-7.696.054-9.464-1.714z" transform="matrix(-.195 -.021 -.067 .173 439.512 336.869)" stroke="#000" stroke-width=".898pt" fill="#fff133"/><path d="M344.54-596.29l9.152 22.14s1.455-9.766 8.526-11.533l7.07-1.768s26.865 49.327 32.17 58.166c5.3 8.838-3.537 16.793-1.77 16.793 1.77 0 26.517-11.49 26.517-11.49s-10.606.882-15.026-6.19-34.82-59.933-34.82-59.933 6.187-2.652 11.49-5.303c5.304-2.652 10.607 7.955 10.607 7.955L385.2-613.97s0 8.84-4.42 10.607c-4.42 1.766-7.956 3.534-7.956 3.534s-3.535-6.187-7.955-13.258c-4.42-7.07 4.42-14.142 4.42-14.142l-22.982 11.49s7.955 4.42 10.607 8.84c2.65 4.42 5.303 8.838 5.303 8.838s-3.223 1.768-8.214 3.482c-3.59 1.875-7.696.054-9.464-1.714z" transform="matrix(.178 .024 .003 -.132 320.752 95.469)" stroke="#000" stroke-width=".898pt" fill="#fff133"/><g transform="matrix(.144 0 0 .121 423.633 295.124)"><g transform="matrix(.707 .707 -.707 .707 -216.75 -485.87)"><ellipse rx="35.433" ry="35.433" stroke="#000" transform="translate(124.01 283.46)" cy="-1428" cx="354.33" stroke-width=".898pt" fill="#c0c0c0"/><path d="M460.63-1126.77v53.15h35.432v-53.15c0-17.717-35.432-17.717-35.432 0z" stroke="#000" stroke-width=".898pt" fill="#fff133"/><path d="M442.91-1066.09h70.866c9.757-9.756 9.757-26.095 0-35.433-25.99-10.607-44.874-9.48-70.866 0-8.307 9.338-9.422 24.826 0 35.433z" stroke="#000" stroke-width=".898pt" fill="#c0c0c0"/><path d="M442.91-1073.62v53.15h70.866v-53.15c-17.717-10.607-53.15-10.607-70.866 0z" stroke="#000" stroke-width=".898pt" fill="#fff133"/><path d="M442.91-1012.94h70.866c9.757-9.756 9.757-26.095 0-35.433-25.99-10.607-44.874-9.48-70.866 0-8.307 9.338-9.422 24.826 0 35.433z" stroke="#000" stroke-width=".898pt" fill="#c0c0c0"/><path stroke-width="1pt" fill="#fff133" d="M442.91-116.93h70.866V131.1H442.91z"/><path d="M442.91-1020.476l.006 484.79h70.867l-.007-484.79c-17.717-10.607-53.15-10.607-70.866 0z" stroke="#000" stroke-width=".898pt" fill="#fff133"/><path d="M442.92-506.698h70.866c9.757-9.756 9.757-26.095 0-35.433-25.99-10.608-44.874-9.48-70.866 0-8.307 9.337-9.422 24.825 0 35.432z" stroke="#000" stroke-width=".898pt" fill="#c0c0c0"/><path d="M442.92-506.7v318.9h70.866v-318.9c-17.717-10.607-53.15-10.607-70.866 0z" stroke="#000" stroke-width=".898pt" fill="#fff133"/><path d="M425.19-329.53h106.3c9.757-9.756 9.757-26.095 0-35.433 0 0-17.716-17.716-53.15-17.716s-53.15 17.717-53.15 17.717c-7.12 9.338-6.283 24 0 35.433z" stroke="#000" stroke-width=".898pt" fill="#fff133"/><path d="M425.19-329.53l17.717 88.583h70.866l17.716-88.583c.273-3.727-17.717-17.716-53.15-17.716s-51.928 17.34-53.15 17.716z" stroke="#000" stroke-width=".898pt" fill="#fff133"/><path d="M336.61-506.69c0-35.433 0-86.653 17.717-129.98 17.716 43.326 17.716 94.546 17.716 129.98H336.61z" transform="matrix(1 0 0 .818 124.01 173.44)" stroke="#000" stroke-width=".898pt" fill="#fff133"/><path d="M318.9-506.69h17.716v-43.326c0-43.327-35.433-64.99-35.433-64.99l17.717 108.32z" transform="matrix(-1 0 0 .818 832.67 173.44)" stroke="#000" stroke-width=".898pt" fill="#fff133"/><path d="M318.9-506.69h17.716v-43.326c0-43.327-35.433-64.99-35.433-64.99l17.717 108.32z" transform="matrix(1 0 0 .818 124.01 173.44)" stroke="#000" stroke-width=".898pt" fill="#fff133"/><path d="M478.34-116.93c17.716 88.582 17.716 159.45 17.716 177.16.03 33.655-17.716 53.15-17.716 53.15s-17.717-17.717-17.717-53.15c0-17.716 0-88.583 17.717-177.16zm-35.433-124.02c0 124.02-35.433 230.32-35.433 318.9 0 70.866 51.654 73.453 70.118 72.16 18.464-1.294 72.3-1.19 71.614-72.16 0-88.583-35.433-194.88-35.433-318.9-17.717-17.716-53.15-17.716-70.866 0z" stroke="#000" stroke-width=".898pt" fill="#fff133"/><path d="M442.91-1020.476v53.15c0 35.433 17.716 177.16 17.716 177.16s-17.71 148.17-17.71 183.61v53.15c0-35.433 35.427-219.04 35.427-219.04s35.44 165.89 35.44 219.04v-53.15c0-35.433-17.717-183.61-17.724-183.61.006 0 17.716-124.02 17.716-159.45v-70.867c0 35.433-35.426 212.6-35.426 212.6s-35.44-177.17-35.44-212.6z" stroke="#000" stroke-width=".898pt" fill="#c0c0c0"/></g><path transform="matrix(1.249 -1.421 1.359 1.317 -662.45 -102.64)" stroke="#000" stroke-width=".898pt" fill="#fff133" d="M218.28 257.88h22.934v73.043H218.28z"/><path d="M336.61 166.54c0 14.67 35.433 35.434 35.433-17.716H336.61v17.716z" transform="matrix(1.899 0 0 1.887 -662.45 -102.64)" stroke="#000" stroke-width=".898pt" fill="#fff133"/><path d="M242.1 24.803c-147.06 0-113.13 164.24-100.37 124.02 9.36-29.503 35.433-70.866 64.935-80.225 40.225-12.76 26.696 9.36 41.364 9.36 14.67 0 1.14-22.12 41.363-9.36 29.503 9.36 55.577 50.722 64.936 80.225 12.76 40.224 53.148-124.02-112.23-124.02z" transform="matrix(1.899 0 0 1.887 -662.45 -102.64)" stroke="#000" stroke-width=".898pt" fill="#fff133"/><path d="M389.76 166.54c0 78.237-63.496 141.73-141.73 141.73-78.236 0-141.73-63.496-141.73-141.73v-17.716c0-29.116 35.433 124.02 141.73 124.02s141.73-124.77 141.73-124.02v17.716z" transform="matrix(1.899 0 0 1.887 -662.45 -102.64)" stroke="#000" stroke-width=".898pt" fill="#fff133"/><ellipse rx="18.433" ry="20.109" stroke="#000" transform="matrix(1.293 -1.382 1.391 1.284 -753.9 -120.02)" cy="160.86" cx="82.112" stroke-width=".898pt" fill="#c0c0c0"/><path transform="matrix(1.251 -1.419 1.361 1.315 -662.45 -102.64)" stroke="#000" stroke-width=".898pt" fill="#c0c0c0" d="M196.5 254.15h25.197v80.26H196.5z"/><path d="M336.61 166.54c0 14.67 35.433 35.434 35.433-17.716H336.61v17.716z" transform="matrix(-1.899 0 0 1.887 279.67 -100.51)" stroke="#000" stroke-width=".898pt" fill="#fff133"/><path d="M389.76 148.82c0 78.236-63.496 141.73-141.73 141.73-78.236 0-141.73-63.496-141.73-141.73 0-78.236 63.496-141.73 141.73-141.73 78.237 0 141.73 63.496 141.73 141.73zm-53.15 0c0 14.67 22.812 3.042 9.36 43.04-9.36 27.826-27.076 45.543-56.58 54.902-40.224 12.76-26.693-9.36-41.363-9.36-14.668 0-1.14 22.12-41.364 9.36-29.502-9.36-47.218-27.076-56.577-56.578-12.76-40.224 9.36-26.695 9.36-41.364 0-14.67-22.12-1.14-9.36-41.364 9.36-29.502 27.075-47.22 56.577-56.578 40.225-12.76 26.696 9.36 41.364 9.36 14.67 0 1.14-22.12 41.364-9.36 29.504 9.36 47.22 27.075 56.58 56.578 12.76 40.224-9.36 26.694-9.36 41.364z" transform="matrix(1.899 0 0 1.887 -662.45 -102.64)" stroke="#000" stroke-width=".898pt" fill="#fff133"/><path d="M126.55 157.68c-20.248 0-1.93 67.6-9.104 51.705s-11.144-33.368-11.144-51.705 3.97-35.81 11.144-51.705c7.175-15.894-11.144 51.705 9.104 51.705z" transform="matrix(1.662 0 0 1.761 -603.57 -99.519)" stroke="#000" stroke-width=".898pt" fill="#fff133"/><path d="M372.05 139.96c0 15.892-2.13 31.632-9.75 44.81-7.966 13.776 9.75-44.81-7.966-44.81 17.716 0 1.687-58.587 7.965-44.81 6.278 13.775 9.75 28.918 9.75 44.81z" transform="matrix(1.899 0 0 2.032 -662.45 -106.24)" stroke="#000" stroke-width=".898pt" fill="#fff133"/><path d="M296.29 263.08c-14.836 6.28-31.144 9.75-48.258 9.75s-33.422-3.47-48.257-9.75c-14.835-6.278 48.257 9.75 48.257-7.966 0 17.717 63.093 1.688 48.258 7.966z" transform="matrix(1.899 0 0 1.887 -662.45 -102.64)" stroke="#000" stroke-width=".898pt" fill="#fff133"/><path d="M248.03 42.52c0-17.716-63.092-1.688-48.257-7.966s31.143-9.75 48.257-9.75 33.422 3.472 48.258 9.75c14.835 6.278-48.258-9.75-48.258 7.966z" transform="matrix(1.899 0 0 1.887 -662.45 -102.64)" stroke="#000" stroke-width=".898pt" fill="#fff133"/><path d="M276.58 287.67c-9.223 1.89-18.773 2.88-28.552 2.88s-19.33-.99-28.553-2.88l-1.432 6.965c9.686 1.984 19.715 3.025 29.985 3.025s20.3-1.04 29.985-3.025l-1.433-6.965z" transform="matrix(1.293 -1.382 -1.391 -1.284 -305.22 712.05)" stroke="#000" stroke-width=".898pt" fill="#c0c0c0"/><path d="M276.58 287.67c-9.223 1.89-18.773 2.88-28.552 2.88s-19.33-.99-28.553-2.88l-1.432 6.965c9.686 1.984 19.715 3.025 29.985 3.025s20.3-1.04 29.985-3.025l-1.433-6.965z" transform="matrix(1.293 -1.382 1.391 1.284 -719.56 329.88)" stroke="#000" stroke-width=".898pt" fill="#c0c0c0"/><path d="M267.7 308.51c-9.223 1.89-20.19.927-29.97.927-9.777 0-19.284-2.612-28.508-4.5l8.82-10.304c9.687 1.984 19.716 3.025 29.986 3.025s20.3-1.04 29.985-3.025L267.7 308.51z" transform="matrix(1.293 -1.382 1.391 1.284 -719.56 329.88)" stroke="#000" stroke-width=".898pt" fill="#c0c0c0"/><path d="M276.58 287.67c-9.223 1.89-18.773 2.88-28.552 2.88s-19.33-.99-28.553-2.88l-1.432 6.965c9.686 1.984 19.715 3.025 29.985 3.025s20.3-1.04 29.985-3.025l-1.433-6.965z" transform="matrix(1.391 1.284 -1.293 1.382 -343.78 -345.21)" stroke="#000" stroke-width=".898pt" fill="#c0c0c0"/><ellipse rx="18.433" ry="20.109" stroke="#000" transform="matrix(1.293 -1.382 1.391 1.284 -285.47 314.38)" cy="160.86" cx="82.112" stroke-width=".898pt" fill="#c0c0c0"/><path d="M267.59 281.47c-9.223 1.89-17.098 2.943-26.877 2.943s-23.112-.712-32.336-2.6l9.672 12.82c9.685 1.985 19.714 3.026 29.984 3.026s20.3-1.042 29.985-3.026l-10.43-13.164z" transform="matrix(1.391 1.284 -1.293 1.382 -346.96 -315.18)" stroke="#000" stroke-width=".898pt" fill="#c0c0c0"/><path d="M173.94 271.77l-.838 14.842-3.24 4.493.977-15.087 3.1-4.248z" transform="matrix(1.899 0 0 1.887 -662.45 -102.64)" stroke="#000" stroke-width=".898pt" fill="#c0c0c0"/><path d="M330.54 265.6l3.562 4.19 1.047 13.615-2.934-2.933-1.676-14.872z" transform="matrix(1.899 0 0 1.887 -662.45 -102.64)" stroke="#000" stroke-width=".898pt" fill="#c0c0c0"/><ellipse rx="18.433" ry="20.109" stroke="#000" transform="matrix(1.293 -1.382 1.391 1.284 -733.89 329.88)" cy="160.86" cx="82.112" stroke-width=".898pt" fill="#c0c0c0"/><g stroke="#000" fill="#fff133"><path d="M301.18 396.85l17.717 17.717-17.717 17.716 8.858 8.86 17.717-17.718 35.433 35.433-17.717 17.717 8.86 8.858 17.716-17.716 17.717 17.716-53.15 53.15-35.433-35.433 17.717-17.717 8.858 8.86 8.858-8.86L301.18 450l-8.858 8.86 8.858 8.857-17.716 17.716-17.717-17.716 8.858-8.86-8.858-8.857-35.433 35.433 8.858 8.858 8.858-8.857 17.717 17.717-17.716 17.716-8.857-8.858-8.86 8.858 35.434 35.433 8.86-8.86-8.86-8.858 17.717-17.716 35.433 35.433-53.15 53.15-17.717-17.718 17.717-17.716-8.858-8.858-17.718 17.716-35.433-35.433 17.716-17.716-8.86-8.858-17.715 17.717-17.716-17.717 124.02-124.02z" transform="matrix(2.294 0 0 2.244 143.146 -1733.766)" stroke-width=".561"/><path d="M318.9 786.61v35.433l88.582 88.583V839.76l-17.716-17.717h-35.433L318.9 786.61z" stroke-width="1.122" transform="matrix(1.147 0 0 1.122 346.36 -1288.5)"/><path d="M230.41 698.78l70.38 70.38.84 35.19-71.22-71.218V698.78z" transform="matrix(1.147 0 0 1.122 346.246 -1288.525)" stroke-width="1.122"/><path d="M301.18 804.33l35.433-35.433v-35.433l-35.433 35.433v35.433z" stroke-width="1.122" transform="matrix(1.147 0 0 1.122 346.36 -1288.5)"/><path d="M301.18 804.33l35.433-35.433v-35.433l-35.433 35.433v35.433z" transform="matrix(1.147 0 0 1.122 244.755 -1387.89)" stroke-width="1.122"/><path d="M248.03 644.88v35.433l17.717-17.717-17.717-17.716z" stroke-width="1.122" transform="matrix(1.147 0 0 1.122 346.36 -1288.5)"/><path d="M248.03 644.88v35.433l17.717-17.717-17.717-17.716z" transform="matrix(1.147 0 0 1.122 447.965 -1189.11)" stroke-width="1.122"/><path d="M230.41 698.78l35.786 35.433v35.433l-35.786-36.514V698.78z" transform="matrix(1.147 0 0 1.122 284.88 -1348.976)" stroke-width="1.122"/><path d="M301.18 804.33l35.433-35.433v-35.433l-35.433 35.433v35.433z" transform="matrix(1.147 0 0 1.122 447.965 -1507.155)" stroke-width="1.122"/><path d="M301.18 804.33l35.433-35.433v-35.433l-35.433 35.433v35.433z" transform="matrix(1.147 0 0 1.122 366.681 -1427.65)" stroke-width="1.122"/><path d="M283.46 822.05l53.15-53.15v-35.433l-70.866 70.866 17.716 17.717z" transform="matrix(1.147 0 0 1.122 366.681 -1546.919)" stroke-width="1.122"/><path d="M248.03 644.88v35.433l17.717-17.717-17.717-17.716z" transform="matrix(1.147 0 0 1.122 468.286 -1447.521)" stroke-width="1.122"/><path d="M301.18 804.33l-35.433-35.433v-35.433l35.433 35.433v35.433z" transform="matrix(1.147 0 0 1.122 447.965 -1507.155)" stroke-width="1.122"/><path d="M389.76 822.05l-53.15-53.15v-35.433l70.866 70.866-17.716 17.717z" transform="matrix(1.147 0 0 1.122 447.965 -1546.919)" stroke-width="1.122"/><path d="M230.41 698.05l70.866 70.866h35.433l17.716 17.716V857.5l-124.02-124.37v-35.08z" transform="matrix(1.147 0 0 1.122 569.773 -1387.915)" stroke-width="1.122"/><path d="M354.33 822.05l106.3-106.3h35.433l-106.3 106.3H354.33z" stroke-width="1.122" transform="matrix(1.147 0 0 1.122 346.36 -1288.5)"/><path d="M407.48 839.76l106.3-106.3-17.72-17.71-106.3 106.3 17.72 17.71z" stroke-width="1.122" transform="matrix(1.147 0 0 1.122 346.36 -1288.5)"/><path d="M407.48 839.76v70.866l106.3-106.3V733.46l-106.3 106.3z" transform="matrix(1.147 0 0 1.122 346.36 -1288.5)" stroke-width="1.122"/><path d="M354.33 822.05l106.3-106.3h35.433l-106.3 106.3H354.33z" transform="matrix(1.147 0 0 1.122 508.924 -1447.521)" stroke-width="1.122"/><path d="M407.48 839.76l106.3-106.3-17.72-17.71-106.3 106.3 17.72 17.71z" transform="matrix(1.147 0 0 1.122 508.924 -1447.521)" stroke-width="1.122"/><path d="M407.48 839.76v70.866l106.3-106.3V733.46l-106.3 106.3z" transform="matrix(1.147 0 0 1.122 508.924 -1447.521)" stroke-width="1.122"/><path d="M318.9 786.62l17.717-17.717V733.47l-35.433 35.433L318.9 786.62z" transform="matrix(1.147 0 0 1.122 590.212 -1527.037)" stroke-width="1.122"/><path d="M318.9 786.62l17.717-17.717V733.47l-35.433 35.433L318.9 786.62z" transform="matrix(1.147 0 0 1.122 488.611 -1626.424)" stroke-width="1.122"/><path d="M265.75 768.9v-35.433l17.717 17.716L265.75 768.9z" transform="matrix(1.147 0 0 1.122 447.965 -1348.134)" stroke-width="1.122"/><path d="M301.18 804.33l-35.433-35.433 17.717-17.717 17.716 17.717v35.433z" transform="matrix(1.147 0 0 1.122 366.681 -1427.65)" stroke-width="1.122"/><path d="M301.18 804.33l-17.716-17.717 17.716-17.716v35.433z" transform="matrix(1.147 0 0 1.122 488.611 -1586.671)" stroke-width="1.122"/></g></g><g stroke="#000" stroke-width="17.958" fill="#b00"><path d="M456.325 274.904c-.496-.32-1.098-.142-1.205.354s.284 1.31.78 1.63l2.728 1.754c.496.32 1.1.142 1.205-.354.11-.52-.284-1.31-.78-1.63l-2.728-1.754z"/><path d="M456.358 272.997c-.496-.32-1.098-.142-1.205.354s.284 1.312.78 1.63l2.728 1.755c.497.32 1.1.142 1.206-.354.11-.518-.284-1.31-.78-1.63l-2.728-1.753z"/><path d="M456.36 270.617c-.495-.32-1.097-.142-1.204.354s.284 1.312.78 1.63l2.728 1.755c.496.32 1.1.142 1.205-.354.11-.518-.285-1.31-.78-1.63l-2.73-1.753z"/><path d="M456.394 268.71c-.496-.32-1.098-.143-1.205.353s.283 1.31.78 1.63l2.727 1.754c.496.32 1.1.142 1.205-.354.11-.52-.284-1.31-.78-1.63l-2.728-1.754z"/><path d="M456.254 283.48c-.496-.32-1.098-.143-1.205.353s.283 1.31.78 1.63l2.727 1.754c.496.32 1.1.142 1.205-.354.11-.52-.284-1.31-.78-1.63l-2.728-1.754z"/><path d="M456.288 281.57c-.496-.318-1.098-.14-1.205.355s.284 1.31.78 1.63l2.728 1.754c.497.318 1.1.14 1.206-.355.11-.52-.284-1.31-.78-1.63l-2.728-1.754z"/><path d="M456.29 279.192c-.496-.32-1.098-.142-1.205.354s.284 1.31.78 1.63l2.728 1.754c.496.32 1.1.142 1.205-.354.11-.52-.284-1.31-.78-1.63l-2.728-1.754z"/><path d="M456.323 277.284c-.496-.32-1.098-.142-1.205.354s.284 1.31.78 1.63l2.728 1.754c.496.32 1.1.142 1.205-.354.112-.52-.283-1.31-.78-1.63l-2.727-1.754z"/><path d="M456.467 257.754c-.496-.32-1.098-.142-1.205.354s.284 1.31.78 1.63l2.728 1.754c.496.32 1.1.142 1.205-.354.11-.52-.284-1.31-.78-1.63l-2.728-1.754z"/><path d="M456.5 255.848c-.496-.32-1.098-.142-1.205.354s.284 1.31.78 1.63l2.728 1.754c.496.32 1.1.142 1.205-.354.11-.52-.284-1.31-.78-1.63l-2.728-1.754z"/><path d="M456.502 253.467c-.496-.32-1.098-.142-1.205.354s.284 1.312.78 1.63l2.728 1.755c.496.32 1.1.142 1.205-.354.11-.518-.284-1.31-.78-1.63l-2.728-1.753z"/><path d="M456.536 251.56c-.496-.32-1.098-.143-1.205.353s.285 1.31.78 1.63l2.73 1.754c.495.32 1.098.142 1.204-.354.11-.52-.284-1.31-.78-1.63l-2.728-1.754z"/><path d="M456.396 266.33c-.496-.32-1.098-.142-1.205.354s.285 1.31.78 1.63l2.73 1.754c.495.32 1.098.142 1.204-.354.11-.52-.284-1.31-.78-1.63l-2.728-1.754z"/><path d="M456.43 264.422c-.497-.32-1.1-.142-1.206.354s.284 1.31.78 1.63l2.728 1.754c.496.32 1.1.142 1.205-.354.11-.52-.284-1.31-.78-1.63l-2.728-1.754z"/><path d="M456.43 262.04c-.495-.318-1.097-.14-1.204.355s.284 1.31.78 1.63l2.728 1.754c.496.318 1.1.14 1.205-.355.11-.52-.285-1.31-.78-1.63l-2.73-1.754z"/><path d="M456.465 260.135c-.496-.32-1.098-.142-1.205.354s.284 1.31.78 1.63l2.728 1.753c.496.32 1.1.142 1.205-.354.11-.52-.284-1.312-.78-1.63l-2.728-1.755z"/><path d="M456.042 309.204c-.496-.32-1.098-.142-1.205.354s.284 1.31.78 1.63l2.728 1.754c.496.32 1.1.142 1.205-.354.11-.52-.284-1.31-.78-1.63l-2.728-1.754z"/><path d="M456.075 307.296c-.496-.32-1.098-.142-1.205.354s.284 1.31.78 1.63l2.728 1.754c.496.32 1.1.142 1.205-.354.11-.52-.284-1.31-.78-1.63l-2.728-1.754z"/><path d="M456.077 304.916c-.496-.32-1.098-.142-1.205.354s.284 1.31.78 1.63l2.728 1.754c.496.32 1.1.142 1.205-.354.11-.52-.284-1.31-.78-1.63l-2.728-1.754z"/><path d="M456.11 303.008c-.496-.32-1.098-.142-1.205.354s.284 1.31.78 1.63l2.728 1.754c.496.32 1.1.142 1.205-.354.11-.52-.284-1.31-.78-1.63l-2.728-1.754z"/><path d="M455.97 317.778c-.495-.32-1.097-.142-1.204.354s.284 1.31.78 1.63l2.728 1.754c.496.32 1.1.142 1.205-.354.11-.52-.285-1.31-.78-1.63l-2.73-1.754z"/><path d="M456.004 315.87c-.496-.318-1.098-.14-1.205.355s.283 1.31.78 1.63l2.727 1.754c.496.318 1.1.14 1.205-.355.11-.52-.284-1.31-.78-1.63l-2.728-1.754z"/><path d="M456.006 313.49c-.496-.318-1.098-.14-1.205.355s.285 1.31.78 1.63l2.73 1.754c.495.318 1.098.14 1.204-.355.11-.52-.284-1.31-.78-1.63l-2.728-1.754z"/><path d="M456.04 311.584c-.497-.32-1.1-.142-1.206.354s.284 1.31.78 1.63l2.728 1.754c.496.32 1.1.142 1.205-.354.11-.52-.284-1.31-.78-1.63l-2.728-1.754z"/><path d="M456.183 292.054c-.496-.32-1.098-.142-1.205.354s.284 1.31.78 1.63l2.728 1.754c.496.32 1.1.142 1.205-.354.112-.52-.283-1.31-.78-1.63l-2.727-1.754z"/><path d="M456.217 290.146c-.496-.32-1.098-.142-1.205.354s.284 1.31.78 1.63l2.728 1.754c.496.32 1.1.142 1.205-.354.11-.52-.284-1.31-.78-1.63l-2.728-1.754z"/><path d="M456.22 287.766c-.497-.32-1.1-.142-1.206.354s.284 1.31.78 1.63l2.728 1.754c.496.32 1.1.142 1.205-.354.11-.52-.284-1.31-.78-1.63l-2.728-1.754z"/><path d="M456.252 285.86c-.496-.32-1.098-.143-1.205.353s.284 1.31.78 1.63l2.728 1.754c.496.32 1.1.142 1.205-.354.11-.52-.284-1.31-.78-1.63l-2.728-1.754z"/><path d="M456.112 300.628c-.496-.32-1.098-.142-1.205.354s.284 1.31.78 1.63l2.728 1.754c.496.32 1.1.142 1.205-.354.11-.52-.284-1.31-.78-1.63l-2.728-1.754z"/><path d="M456.146 298.72c-.496-.318-1.098-.14-1.205.355s.285 1.31.78 1.63l2.73 1.754c.495.318 1.098.14 1.204-.355.11-.52-.284-1.31-.78-1.63l-2.728-1.754z"/><path d="M456.148 296.34c-.496-.318-1.098-.14-1.205.355s.284 1.31.78 1.63l2.728 1.754c.497.318 1.1.14 1.206-.355.11-.52-.284-1.31-.78-1.63l-2.728-1.754z"/><path d="M456.18 294.434c-.495-.32-1.097-.142-1.204.354s.284 1.31.78 1.63l2.728 1.754c.496.32 1.1.142 1.205-.354.11-.52-.285-1.31-.78-1.63l-2.73-1.754z"/><path d="M455.758 343.502c-.496-.32-1.098-.142-1.205.354s.284 1.31.78 1.63l2.728 1.754c.497.32 1.1.142 1.206-.354.11-.52-.284-1.31-.78-1.63l-2.728-1.754z"/><path d="M455.79 341.595c-.495-.32-1.097-.142-1.204.354s.284 1.31.78 1.63l2.728 1.753c.496.32 1.1.142 1.205-.354.11-.52-.285-1.312-.78-1.63l-2.73-1.755z"/><path d="M455.794 339.215c-.496-.32-1.098-.142-1.205.354s.283 1.31.78 1.63l2.727 1.753c.496.32 1.1.142 1.205-.354.11-.52-.284-1.312-.78-1.63l-2.728-1.755z"/><path d="M455.827 337.307c-.496-.32-1.098-.142-1.205.354s.284 1.312.78 1.63l2.728 1.755c.496.32 1.1.142 1.205-.354.11-.518-.284-1.31-.78-1.63l-2.728-1.753z"/><path d="M455.72 350.17c-.495-.32-1.097-.142-1.204.354s.284 1.31.78 1.63l2.728 1.754c.496.32 1.1.142 1.205-.354.11-.52-.285-1.31-.78-1.63l-2.73-1.754z"/><path d="M455.723 347.79c-.496-.32-1.098-.143-1.205.353s.284 1.31.78 1.63l2.728 1.754c.496.32 1.1.142 1.205-.354.112-.52-.283-1.31-.78-1.63l-2.727-1.754z"/><path d="M455.756 345.882c-.496-.32-1.098-.142-1.205.354s.285 1.31.78 1.63l2.73 1.754c.495.32 1.098.142 1.204-.354.11-.52-.284-1.31-.78-1.63l-2.728-1.754z"/><path d="M455.9 326.353c-.496-.32-1.098-.142-1.205.354s.284 1.31.78 1.63l2.728 1.754c.496.32 1.1.143 1.205-.353.11-.52-.284-1.31-.78-1.63l-2.728-1.754z"/><path d="M455.933 324.445c-.496-.32-1.098-.142-1.205.354s.284 1.31.78 1.63l2.728 1.753c.496.32 1.1.142 1.205-.354.112-.52-.283-1.312-.78-1.63l-2.727-1.755z"/><path d="M455.935 322.066c-.496-.32-1.098-.142-1.205.354s.284 1.31.78 1.63l2.728 1.754c.496.32 1.1.142 1.205-.354.11-.52-.284-1.31-.78-1.63l-2.728-1.754z"/><path d="M455.97 320.158c-.497-.32-1.1-.142-1.206.354s.284 1.31.78 1.63l2.728 1.754c.496.32 1.1.142 1.205-.354.11-.52-.284-1.31-.78-1.63l-2.728-1.754z"/><path d="M455.83 334.928c-.497-.32-1.1-.142-1.206.354s.284 1.31.78 1.63l2.728 1.754c.496.32 1.1.142 1.205-.354.11-.52-.284-1.31-.78-1.63l-2.728-1.754z"/><path d="M455.862 333.02c-.496-.32-1.098-.142-1.205.354s.284 1.31.78 1.63l2.728 1.754c.496.32 1.1.142 1.205-.354.11-.52-.284-1.31-.78-1.63l-2.728-1.754z"/><path d="M455.864 330.64c-.496-.32-1.098-.142-1.205.354s.283 1.31.78 1.63l2.727 1.754c.496.32 1.1.142 1.205-.354.11-.52-.284-1.31-.78-1.63l-2.728-1.754z"/><path d="M455.898 328.733c-.496-.32-1.098-.142-1.205.354s.284 1.31.78 1.63l2.728 1.754c.497.32 1.1.143 1.206-.353.11-.52-.284-1.31-.78-1.63l-2.728-1.754z"/><path d="M455.58 365.05c-.496-.32-1.098-.143-1.205.353s.284 1.31.78 1.63l2.728 1.754c.496.32 1.1.142 1.205-.354.11-.52-.284-1.31-.78-1.63l-2.728-1.754z"/><path d="M455.613 363.14c-.496-.318-1.098-.14-1.205.355s.284 1.31.78 1.63l2.728 1.754c.496.318 1.1.14 1.205-.355.112-.52-.283-1.31-.78-1.63l-2.727-1.754z"/><path d="M455.616 360.762c-.496-.32-1.098-.142-1.205.354s.285 1.31.78 1.63l2.73 1.754c.495.32 1.098.142 1.204-.354.11-.52-.284-1.31-.78-1.63l-2.728-1.754z"/><path d="M455.65 358.854c-.497-.32-1.1-.142-1.206.354s.284 1.31.78 1.63l2.728 1.754c.496.32 1.1.142 1.205-.354.11-.52-.284-1.31-.78-1.63l-2.728-1.754z"/><path d="M455.543 371.716c-.496-.32-1.098-.142-1.205.354s.284 1.31.78 1.63l2.728 1.754c.496.32 1.1.142 1.205-.354.112-.52-.283-1.31-.78-1.63l-2.727-1.754z"/><path d="M455.545 369.336c-.496-.32-1.098-.142-1.205.354s.284 1.31.78 1.63l2.728 1.754c.496.32 1.1.142 1.205-.354.11-.52-.284-1.31-.78-1.63l-2.728-1.754z"/><path d="M455.578 367.43c-.496-.32-1.098-.143-1.205.353s.284 1.31.78 1.63l2.728 1.754c.497.32 1.1.142 1.206-.354.11-.52-.284-1.31-.78-1.63l-2.728-1.754z"/><path d="M455.65 356.473c-.495-.32-1.097-.142-1.204.354s.284 1.31.78 1.63l2.728 1.754c.496.32 1.1.143 1.205-.353.11-.52-.285-1.31-.78-1.63l-2.73-1.754z"/><path d="M455.684 354.567c-.496-.32-1.098-.142-1.205.354s.283 1.312.78 1.63l2.727 1.755c.496.32 1.1.142 1.205-.354.11-.518-.284-1.31-.78-1.63l-2.728-1.753z"/><path d="M455.686 352.186c-.496-.32-1.098-.142-1.205.354s.285 1.31.78 1.63l2.73 1.754c.495.32 1.098.142 1.204-.354.11-.52-.284-1.31-.78-1.63l-2.728-1.754z"/></g><g stroke="#000" stroke-width="17.958" fill="#b00"><path d="M459.357 275.13c-.496-.32-1.098-.143-1.205.353s.284 1.31.78 1.63l2.728 1.754c.496.32 1.1.142 1.205-.354.11-.52-.284-1.31-.78-1.63l-2.728-1.754z"/><path d="M459.375 273.01c-.496-.284-1.098-.072-1.205.424s.284 1.276.78 1.56l2.728 1.56c.496.282 1.1.07 1.205-.427.11-.518-.284-1.275-.78-1.56l-2.728-1.558z"/><path d="M459.357 270.842c-.496-.32-1.098-.142-1.205.354s.284 1.31.78 1.63l2.728 1.754c.496.32 1.1.142 1.205-.354.11-.52-.284-1.31-.78-1.63l-2.728-1.754z"/><path d="M459.375 268.72c-.496-.282-1.098-.07-1.205.426s.284 1.276.78 1.56l2.728 1.56c.496.282 1.1.07 1.205-.427.11-.52-.284-1.276-.78-1.56l-2.728-1.56z"/><path d="M459.357 283.704c-.496-.32-1.098-.142-1.205.354s.284 1.31.78 1.63l2.728 1.754c.496.32 1.1.142 1.205-.354.11-.52-.284-1.31-.78-1.63l-2.728-1.754z"/><path d="M459.375 281.583c-.496-.283-1.098-.07-1.205.425s.284 1.276.78 1.56l2.728 1.56c.496.282 1.1.07 1.205-.427.11-.517-.284-1.274-.78-1.558l-2.728-1.56z"/><path d="M459.357 279.417c-.496-.32-1.098-.142-1.205.354s.284 1.312.78 1.63l2.728 1.755c.496.32 1.1.142 1.205-.354.11-.518-.284-1.31-.78-1.63l-2.728-1.753z"/><path d="M459.375 277.296c-.496-.283-1.098-.07-1.205.425s.284 1.277.78 1.56l2.728 1.56c.496.283 1.1.07 1.205-.426.11-.518-.284-1.275-.78-1.56l-2.728-1.558z"/><path d="M459.357 257.98c-.496-.32-1.098-.142-1.205.354s.284 1.31.78 1.63l2.728 1.754c.496.32 1.1.142 1.205-.354.11-.52-.284-1.31-.78-1.63l-2.728-1.754z"/><path d="M459.375 255.86c-.496-.283-1.098-.07-1.205.425s.284 1.276.78 1.56l2.728 1.56c.496.282 1.1.07 1.205-.427.11-.518-.284-1.275-.78-1.56l-2.728-1.558z"/><path d="M459.357 253.692c-.496-.32-1.098-.142-1.205.354s.284 1.31.78 1.63l2.728 1.754c.496.32 1.1.142 1.205-.354.11-.52-.284-1.31-.78-1.63l-2.728-1.754z"/><path d="M459.375 251.57c-.496-.282-1.098-.07-1.205.426s.284 1.276.78 1.56l2.728 1.56c.496.282 1.1.07 1.205-.427.11-.52-.284-1.276-.78-1.56l-2.728-1.56z"/><path d="M459.357 266.555c-.496-.32-1.098-.142-1.205.354s.284 1.31.78 1.63l2.728 1.753c.496.32 1.1.142 1.205-.354.11-.52-.284-1.312-.78-1.63l-2.728-1.755z"/><path d="M459.375 264.434c-.496-.283-1.098-.07-1.205.425s.284 1.275.78 1.558l2.728 1.56c.496.283 1.1.07 1.205-.426.11-.518-.284-1.275-.78-1.56l-2.728-1.558z"/><path d="M459.357 262.267c-.496-.32-1.098-.142-1.205.354s.284 1.312.78 1.63l2.728 1.755c.496.32 1.1.142 1.205-.354.11-.518-.284-1.31-.78-1.63l-2.728-1.753z"/><path d="M459.375 260.147c-.496-.283-1.098-.07-1.205.425s.284 1.276.78 1.56l2.728 1.56c.496.282 1.1.07 1.205-.427.11-.518-.284-1.275-.78-1.56l-2.728-1.558z"/><path d="M459.357 309.43c-.496-.32-1.098-.143-1.205.353s.284 1.31.78 1.63l2.728 1.754c.496.32 1.1.142 1.205-.354.11-.52-.284-1.31-.78-1.63l-2.728-1.754z"/><path d="M459.375 307.308c-.496-.283-1.098-.07-1.205.425s.284 1.276.78 1.56l2.728 1.56c.496.282 1.1.07 1.205-.427.11-.518-.284-1.275-.78-1.56l-2.728-1.558z"/><path d="M459.357 305.14c-.496-.318-1.098-.14-1.205.355s.284 1.31.78 1.63l2.728 1.754c.496.318 1.1.14 1.205-.355.11-.52-.284-1.31-.78-1.63l-2.728-1.754z"/><path d="M459.375 303.02c-.496-.283-1.098-.07-1.205.425s.284 1.276.78 1.56l2.728 1.56c.496.282 1.1.07 1.205-.427.11-.518-.284-1.275-.78-1.56l-2.728-1.558z"/><path d="M459.357 318.003c-.496-.32-1.098-.142-1.205.354s.284 1.31.78 1.63l2.728 1.754c.496.32 1.1.143 1.205-.353.11-.52-.284-1.31-.78-1.63l-2.728-1.754z"/><path d="M459.375 315.883c-.496-.283-1.098-.07-1.205.425s.284 1.276.78 1.56l2.728 1.56c.496.282 1.1.07 1.205-.427.11-.517-.284-1.274-.78-1.558l-2.728-1.56z"/><path d="M459.357 313.716c-.496-.32-1.098-.142-1.205.354s.284 1.31.78 1.63l2.728 1.754c.496.32 1.1.142 1.205-.354.11-.52-.284-1.31-.78-1.63l-2.728-1.754z"/><path d="M459.375 311.596c-.496-.283-1.098-.07-1.205.425s.284 1.277.78 1.56l2.728 1.56c.496.283 1.1.07 1.205-.426.11-.518-.284-1.275-.78-1.56l-2.728-1.558z"/><path d="M459.357 292.28c-.496-.32-1.098-.143-1.205.353s.284 1.31.78 1.63l2.728 1.754c.496.32 1.1.142 1.205-.354.11-.52-.284-1.31-.78-1.63l-2.728-1.754z"/><path d="M459.375 290.158c-.496-.283-1.098-.07-1.205.425s.284 1.276.78 1.56l2.728 1.56c.496.282 1.1.07 1.205-.427.11-.518-.284-1.275-.78-1.56l-2.728-1.558z"/><path d="M459.357 287.99c-.496-.318-1.098-.14-1.205.355s.284 1.31.78 1.63l2.728 1.754c.496.318 1.1.14 1.205-.355.11-.52-.284-1.31-.78-1.63l-2.728-1.754z"/><path d="M459.375 285.87c-.496-.282-1.098-.07-1.205.426s.284 1.276.78 1.56l2.728 1.56c.496.282 1.1.07 1.205-.427.11-.52-.284-1.276-.78-1.56l-2.728-1.56z"/><path d="M459.357 300.854c-.496-.32-1.098-.142-1.205.354s.284 1.31.78 1.63l2.728 1.754c.496.32 1.1.142 1.205-.354.11-.52-.284-1.31-.78-1.63l-2.728-1.754z"/><path d="M459.375 298.733c-.496-.283-1.098-.07-1.205.425s.284 1.276.78 1.56l2.728 1.56c.496.282 1.1.07 1.205-.427.11-.517-.284-1.274-.78-1.558l-2.728-1.56z"/><path d="M459.357 296.566c-.496-.32-1.098-.142-1.205.354s.284 1.31.78 1.63l2.728 1.754c.496.32 1.1.142 1.205-.354.11-.52-.284-1.31-.78-1.63l-2.728-1.754z"/><path d="M459.375 294.446c-.496-.283-1.098-.07-1.205.425s.284 1.277.78 1.56l2.728 1.56c.496.283 1.1.07 1.205-.426.11-.518-.284-1.275-.78-1.56l-2.728-1.558z"/><path d="M459.357 343.727c-.496-.32-1.098-.142-1.205.354s.284 1.312.78 1.63l2.728 1.755c.496.32 1.1.142 1.205-.354.11-.518-.284-1.31-.78-1.63l-2.728-1.753z"/><path d="M459.375 341.607c-.496-.283-1.098-.07-1.205.425s.284 1.276.78 1.56l2.728 1.56c.496.282 1.1.07 1.205-.427.11-.518-.284-1.275-.78-1.56l-2.728-1.558z"/><path d="M459.357 339.44c-.496-.32-1.098-.142-1.205.354s.284 1.31.78 1.63l2.728 1.754c.496.32 1.1.142 1.205-.354.11-.52-.284-1.31-.78-1.63l-2.728-1.754z"/><path d="M459.375 337.32c-.496-.284-1.098-.072-1.205.424s.284 1.276.78 1.56l2.728 1.56c.496.282 1.1.07 1.205-.427.11-.518-.284-1.275-.78-1.56l-2.728-1.558z"/><path d="M459.375 350.18c-.496-.282-1.098-.07-1.205.426s.284 1.276.78 1.56l2.728 1.56c.496.282 1.1.07 1.205-.427.11-.52-.284-1.276-.78-1.56l-2.728-1.56z"/><path d="M459.357 348.014c-.496-.32-1.098-.142-1.205.354s.284 1.31.78 1.63l2.728 1.754c.496.32 1.1.142 1.205-.354.11-.52-.284-1.31-.78-1.63l-2.728-1.754z"/><path d="M459.375 345.894c-.496-.283-1.098-.07-1.205.425s.284 1.275.78 1.558l2.728 1.56c.496.283 1.1.07 1.205-.426.11-.518-.284-1.275-.78-1.56l-2.728-1.558z"/><path d="M459.357 326.578c-.496-.32-1.098-.142-1.205.354s.284 1.31.78 1.63l2.728 1.754c.496.32 1.1.142 1.205-.354.11-.52-.284-1.31-.78-1.63l-2.728-1.754z"/><path d="M459.375 324.457c-.496-.283-1.098-.07-1.205.425s.284 1.276.78 1.56l2.728 1.56c.496.282 1.1.07 1.205-.427.11-.518-.284-1.275-.78-1.56l-2.728-1.558z"/><path d="M459.357 322.29c-.496-.318-1.098-.14-1.205.355s.284 1.31.78 1.63l2.728 1.754c.496.318 1.1.14 1.205-.355.11-.52-.284-1.31-.78-1.63l-2.728-1.754z"/><path d="M459.375 320.17c-.496-.283-1.098-.07-1.205.425s.284 1.276.78 1.56l2.728 1.56c.496.282 1.1.07 1.205-.427.11-.518-.284-1.275-.78-1.56l-2.728-1.558z"/><path d="M459.357 335.153c-.496-.32-1.098-.142-1.205.354s.284 1.31.78 1.63l2.728 1.754c.496.32 1.1.143 1.205-.353.11-.52-.284-1.31-.78-1.63l-2.728-1.754z"/><path d="M459.375 333.032c-.496-.283-1.098-.07-1.205.425s.284 1.276.78 1.56l2.728 1.56c.496.282 1.1.07 1.205-.427.11-.518-.284-1.275-.78-1.56l-2.728-1.558z"/><path d="M459.357 330.865c-.496-.32-1.098-.142-1.205.354s.284 1.31.78 1.63l2.728 1.753c.496.32 1.1.142 1.205-.354.11-.52-.284-1.312-.78-1.63l-2.728-1.755z"/><path d="M459.375 328.745c-.496-.283-1.098-.07-1.205.425s.284 1.276.78 1.56l2.728 1.56c.496.282 1.1.07 1.205-.427.11-.518-.284-1.275-.78-1.56l-2.728-1.558z"/><path d="M459.357 365.274c-.496-.32-1.098-.142-1.205.354s.284 1.31.78 1.63l2.728 1.754c.496.32 1.1.142 1.205-.354.11-.52-.284-1.31-.78-1.63l-2.728-1.754z"/><path d="M459.375 363.153c-.496-.283-1.098-.07-1.205.425s.284 1.276.78 1.56l2.728 1.56c.496.282 1.1.07 1.205-.427.11-.517-.284-1.274-.78-1.558l-2.728-1.56z"/><path d="M459.357 360.987c-.496-.32-1.098-.142-1.205.354s.284 1.312.78 1.63l2.728 1.755c.496.32 1.1.142 1.205-.354.11-.518-.284-1.31-.78-1.63l-2.728-1.753z"/><path d="M459.375 358.866c-.496-.283-1.098-.07-1.205.425s.284 1.277.78 1.56l2.728 1.56c.496.283 1.1.07 1.205-.426.11-.518-.284-1.275-.78-1.56l-2.728-1.558z"/><path d="M459.375 371.728c-.496-.283-1.098-.07-1.205.425s.284 1.276.78 1.56l2.728 1.56c.496.282 1.1.07 1.205-.427.11-.518-.284-1.275-.78-1.56l-2.728-1.558z"/><path d="M459.357 369.56c-.496-.318-1.098-.14-1.205.355s.284 1.31.78 1.63l2.728 1.754c.496.318 1.1.14 1.205-.355.11-.52-.284-1.31-.78-1.63l-2.728-1.754z"/><path d="M459.375 367.44c-.496-.282-1.098-.07-1.205.426s.284 1.276.78 1.56l2.728 1.56c.496.282 1.1.07 1.205-.427.11-.52-.284-1.276-.78-1.56l-2.728-1.56z"/><path d="M459.357 356.7c-.496-.32-1.098-.143-1.205.353s.284 1.31.78 1.63l2.728 1.754c.496.32 1.1.142 1.205-.354.11-.52-.284-1.31-.78-1.63l-2.728-1.754z"/><path d="M459.375 354.58c-.496-.284-1.098-.072-1.205.424s.284 1.276.78 1.56l2.728 1.56c.496.282 1.1.07 1.205-.427.11-.518-.284-1.275-.78-1.56l-2.728-1.558z"/><path d="M459.357 352.412c-.496-.32-1.098-.142-1.205.354s.284 1.31.78 1.63l2.728 1.754c.496.32 1.1.142 1.205-.354.11-.52-.284-1.31-.78-1.63l-2.728-1.754z"/></g><g stroke="#000" stroke-width="12.791" fill="#b00"><path d="M469.08 261.118c-.64-.177-1.17.142-1.064.638s.85 1.17 1.488 1.347l3.508.974c.638.177 1.17-.142 1.063-.638-.11-.52-.85-1.17-1.488-1.347l-3.508-.975z"/><path d="M470.416 261.55c-.178-.497-.85-.674-1.347-.355s-.816 1.134-.64 1.63l.976 2.728c.177.497.85.674 1.346.355.52-.333.815-1.134.638-1.63l-.974-2.728z"/><path d="M469.844 260.925c-.46-.39-1.134-.283-1.346.213s.035 1.382.496 1.77l2.533 2.145c.46.39 1.134.283 1.347-.213.222-.518-.036-1.382-.497-1.77l-2.533-2.145z"/><path d="M468.472 262.552c.39-.425.142-.92-.496-.992s-1.665.284-2.055.71l-2.143 2.337c-.39.426-.14.922.496.992.667.074 1.666-.284 2.055-.71l2.144-2.338z"/><path d="M471.082 262.54c.354-.426.07-.922-.567-.993s-1.63.284-1.984.71l-1.948 2.337c-.355.426-.07.922.567.993.665.074 1.63-.284 1.983-.71l1.95-2.338z"/><path d="M457.775 262.923c.425-.425.212-.957-.426-1.063s-1.7.212-2.127.638l-2.338 2.338c-.425.425-.213.957.425 1.063.666.11 1.7-.213 2.126-.64l2.34-2.337z"/><path d="M460.383 262.98c.39-.424.142-.956-.496-1.062s-1.665.212-2.055.638l-2.144 2.338c-.39.425-.14.957.496 1.063.667.11 1.666-.212 2.055-.638l2.143-2.34z"/><path d="M463.16 263.02c.426-.425.213-.957-.425-1.063s-1.7.212-2.126.638l-2.34 2.338c-.424.425-.212.957.426 1.063.666.11 1.7-.212 2.126-.638l2.34-2.338z"/><path d="M465.697 262.6c.354-.424.07-.92-.567-.99s-1.63.283-1.984.708l-1.95 2.338c-.354.426-.07.922.568.992.666.075 1.63-.283 1.984-.708l1.95-2.34z"/><path d="M454.316 262.014c.425-.425.212-.957-.426-1.063s-1.7.213-2.126.64l-2.338 2.337c-.425.425-.213.957.425 1.063.667.11 1.702-.212 2.127-.638l2.34-2.338z"/><path d="M455.318 263.07c.46-.39.32-.956-.283-1.134s-1.665.036-2.126.426l-2.535 2.143c-.46.39-.318.957.284 1.134.628.184 1.664-.036 2.125-.426l2.533-2.144z"/><path d="M452.605 262.487c.602-.248.673-.815.142-1.134s-1.666-.39-2.268-.142l-3.314 1.366c-.602.248-.673.815-.142 1.133.556.333 1.666.39 2.268.14l3.313-1.363z"/></g><g stroke="#000" stroke-width="12.791" fill="#b00"><path d="M504.31 351.23c.532.32.532.887 0 1.135s-1.594.177-2.126-.142l-2.923-1.754c-.53-.32-.53-.887 0-1.135.556-.26 1.595-.177 2.127.142l2.923 1.754z"/><path d="M506.677 350.63c.496.318.46.885-.07 1.133s-1.56.177-2.056-.142l-2.728-1.753c-.496-.32-.46-.886.07-1.134.557-.26 1.56-.177 2.056.142l2.73 1.754z"/><path d="M509.164 349.91c.532.32.532.886 0 1.134s-1.594.177-2.126-.142l-2.923-1.754c-.532-.32-.532-.886 0-1.134.555-.26 1.594-.177 2.126.142l2.924 1.754z"/><path d="M511.53 349.308c.497.32.46.886-.07 1.134s-1.56.177-2.055-.142l-2.73-1.754c-.495-.32-.46-.886.072-1.134.556-.26 1.56-.177 2.055.142l2.73 1.754z"/><path d="M521.9 341.7c.602-.107 1.063.283.92.78s-.885 1.097-1.487 1.203l-3.313.585c-.602.106-1.063-.283-.92-.78.147-.518.885-1.098 1.487-1.204l3.313-.585z"/><path d="M520.268 338.046c.39-.425 1.027-.39 1.275.07s.107 1.348-.283 1.773l-2.144 2.337c-.39.425-1.027.39-1.276-.07-.26-.482-.106-1.347.284-1.772l2.144-2.34z"/><path d="M523.052 339.524c.602-.106 1.063.284.92.78s-.885 1.098-1.487 1.204l-3.313.585c-.602.106-1.063-.283-.92-.78.147-.518.885-1.098 1.487-1.204l3.312-.586z"/><path d="M494.877 353.487c.496.354.425.92-.14 1.134s-1.63.07-2.127-.283l-2.73-1.95c-.495-.353-.424-.92.143-1.133.592-.222 1.63-.07 2.126.284l2.727 1.95z"/><path d="M497.298 353.045c.46.354.354.92-.213 1.134s-1.594.07-2.055-.285l-2.533-1.95c-.46-.353-.355-.92.212-1.133.592-.222 1.594-.07 2.054.284l2.534 1.95z"/><path d="M499.88 352.42c.53.285.53.816 0 1.064s-1.595.213-2.127-.07l-2.923-1.56c-.532-.283-.532-.814 0-1.062.555-.26 1.594-.213 2.126.07l2.923 1.56z"/><path d="M501.62 352.227c.46.355.355.886-.212 1.063s-1.594 0-2.055-.354l-2.533-1.95c-.46-.353-.355-.885.212-1.062.593-.185 1.595 0 2.055.354l2.534 1.95z"/><path d="M514.018 348.59c.532.318.532.885 0 1.133s-1.594.177-2.126-.142l-2.923-1.753c-.533-.32-.533-.886 0-1.134.554-.26 1.593-.177 2.125.142l2.923 1.754z"/><path d="M516.386 347.988c.496.32.46.886-.07 1.134s-1.56.177-2.056-.142l-2.73-1.754c-.495-.32-.46-.886.072-1.134.556-.26 1.56-.177 2.055.142l2.73 1.754z"/><path d="M464.008 356.235c.39.425.177.957-.426 1.063s-1.594-.212-1.984-.638l-2.144-2.338c-.39-.425-.177-.957.426-1.063.63-.112 1.594.21 1.984.637l2.144 2.338z"/><path d="M466.488 356.176c.355.425.106.957-.496 1.063s-1.56-.213-1.913-.64l-1.95-2.337c-.354-.425-.106-.957.496-1.063.63-.11 1.56.212 1.913.638l1.948 2.338z"/><path d="M469.11 356.136c.388.425.176.957-.427 1.063s-1.594-.213-1.984-.64l-2.145-2.337c-.39-.425-.177-.957.426-1.063.63-.11 1.595.212 1.985.638l2.144 2.338z"/><path d="M471.59 356.078c.355.425.106.957-.496 1.063s-1.56-.21-1.913-.637l-1.948-2.338c-.354-.425-.106-.957.496-1.063.63-.11 1.56.212 1.913.638l1.95 2.338z"/><path d="M453.806 356.432c.39.425.177.957-.426 1.063s-1.594-.212-1.984-.638l-2.144-2.338c-.39-.426-.177-.958.426-1.064.63-.11 1.594.212 1.984.638l2.144 2.338z"/><path d="M456.287 356.373c.355.425.106.957-.496 1.063s-1.558-.212-1.912-.638l-1.95-2.338c-.353-.425-.105-.957.497-1.063.63-.11 1.56.212 1.913.638l1.95 2.338z"/><path d="M458.907 356.333c.39.425.177.957-.426 1.063s-1.593-.212-1.983-.638l-2.144-2.338c-.39-.425-.177-.957.426-1.063.628-.11 1.593.212 1.983.638l2.144 2.338z"/><path d="M461.388 356.275c.355.425.106.957-.496 1.063s-1.56-.212-1.913-.638l-1.95-2.338c-.354-.425-.106-.957.496-1.063.63-.112 1.56.21 1.913.637l1.948 2.338z"/><path d="M484.486 355.072c.426.39.284.956-.283 1.134s-1.56-.036-1.984-.426l-2.34-2.143c-.425-.39-.283-.957.284-1.134.592-.185 1.56.035 1.984.425l2.338 2.144z"/><path d="M487.015 354.814c.426.39.284.956-.283 1.134s-1.56-.036-1.984-.426l-2.34-2.143c-.424-.39-.282-.958.285-1.135.592-.185 1.56.035 1.984.425l2.338 2.144z"/><path d="M489.6 354.652c.46.355.354.886-.213 1.063s-1.594 0-2.055-.354l-2.533-1.948c-.462-.354-.356-.886.21-1.063.594-.186 1.596 0 2.056.353l2.534 1.95z"/><path d="M492.327 354.01c.46.353.354.92-.213 1.133s-1.594.07-2.055-.284l-2.534-1.95c-.46-.354-.355-.92.212-1.134.593-.222 1.595-.07 2.055.284l2.534 1.95z"/><path d="M474.21 356.038c.388.425.176.957-.427 1.063s-1.594-.21-1.984-.637l-2.145-2.338c-.39-.425-.177-.957.426-1.063.63-.11 1.595.212 1.985.638l2.144 2.338z"/><path d="M476.86 355.782c.388.39.176.92-.427 1.063s-1.594-.106-1.984-.496l-2.145-2.145c-.39-.39-.177-.92.426-1.063.63-.148 1.595.107 1.985.497l2.144 2.142z"/><path d="M479.36 355.252c.425.39.283.956-.284 1.134s-1.56-.036-1.984-.426l-2.34-2.143c-.424-.39-.282-.957.285-1.134.592-.185 1.56.035 1.984.425l2.34 2.144z"/><path d="M481.833 355.127c.39.425.177.992-.426 1.133s-1.594-.14-1.984-.566l-2.144-2.34c-.39-.424-.178-.99.425-1.133.63-.147 1.594.143 1.984.568l2.143 2.34z"/><path d="M422.722 355.482c.284.46-.035.92-.637.92s-1.49-.46-1.772-.92l-1.56-2.533c-.283-.462.036-.922.64-.922.628 0 1.487.46 1.77.92l1.56 2.534z"/><path d="M424.967 355.766c.284.46-.035.92-.637.92s-1.49-.46-1.772-.92l-1.56-2.533c-.283-.46.036-.92.64-.92.628 0 1.487.46 1.77.92l1.56 2.533z"/><path d="M427.956 355.604c.355.46.106.992-.496 1.063s-1.56-.32-1.913-.78l-1.95-2.533c-.353-.46-.105-.992.497-1.063.63-.073 1.56.32 1.913.78l1.95 2.534z"/><path d="M430.437 355.693c.32.46.035.992-.567 1.063s-1.524-.32-1.843-.78l-1.754-2.533c-.318-.46-.035-.992.567-1.063.63-.074 1.524.32 1.843.78l1.754 2.533z"/><path d="M414.888 354.423c.284.46-.035.92-.637.92s-1.488-.46-1.77-.92l-1.56-2.533c-.284-.46.035-.92.638-.92.63 0 1.488.46 1.77.92l1.56 2.533z"/><path d="M417.683 354.81c.284.462-.035.922-.637.922s-1.49-.46-1.772-.92l-1.56-2.534c-.283-.46.036-.92.64-.92.628 0 1.487.46 1.77.92l1.56 2.533z"/><path d="M419.928 355.095c.284.46-.035.92-.637.92s-1.488-.46-1.77-.92l-1.56-2.533c-.284-.46.035-.92.638-.92.63 0 1.488.46 1.77.92l1.56 2.533z"/><path d="M443.24 356.305c.356.46.107.992-.495 1.063s-1.56-.32-1.913-.78l-1.95-2.533c-.353-.46-.105-.992.497-1.063.628-.074 1.558.32 1.912.78l1.95 2.533z"/><path d="M445.72 356.395c.32.46.036.992-.566 1.063s-1.524-.32-1.843-.78l-1.753-2.533c-.318-.46-.035-.992.567-1.063.63-.074 1.524.32 1.843.78l1.754 2.533z"/><path d="M448.706 356.53c.39.425.177.957-.426 1.063s-1.594-.212-1.984-.638l-2.144-2.338c-.39-.425-.177-.957.426-1.063.63-.11 1.594.212 1.984.638l2.144 2.338z"/><path d="M451.186 356.472c.355.425.106.957-.496 1.063s-1.56-.212-1.913-.638l-1.95-2.338c-.353-.426-.105-.958.497-1.064.63-.11 1.56.212 1.913.638l1.95 2.338z"/><path d="M433.05 355.837c.356.46.107.992-.495 1.063s-1.56-.32-1.913-.78l-1.95-2.533c-.353-.46-.105-.992.497-1.063.628-.074 1.558.32 1.912.78l1.95 2.533z"/><path d="M435.532 355.927c.32.46.035.992-.567 1.063s-1.524-.32-1.843-.78l-1.754-2.533c-.318-.46-.035-.992.567-1.063.63-.074 1.524.32 1.843.78l1.754 2.533z"/><path d="M438.146 356.07c.355.462.106.993-.496 1.064s-1.56-.32-1.913-.78l-1.95-2.533c-.353-.46-.105-.99.497-1.062.63-.074 1.56.32 1.913.78l1.95 2.533z"/><path d="M440.626 356.16c.32.46.035.992-.567 1.063s-1.525-.32-1.844-.78l-1.754-2.533c-.318-.46-.035-.992.567-1.063.63-.074 1.523.32 1.842.78l1.754 2.533z"/><path d="M401.488 344.57c-.638.07-1.098-.355-.92-.85s.99-1.064 1.63-1.135l3.507-.39c.637-.07 1.098.355.92.85-.184.52-.99 1.064-1.63 1.135l-3.507.39z"/><path d="M401.977 347.13c-.497.32-1.134.143-1.276-.353s.214-1.31.71-1.63l2.728-1.754c.496-.32 1.134-.142 1.276.354.148.52-.213 1.31-.71 1.63l-2.727 1.754z"/><path d="M403.025 349.488c-.32.46-.956.496-1.275.07s-.32-1.31 0-1.77l1.754-2.535c.318-.46.956-.496 1.275-.07.332.444.318 1.31 0 1.77l-1.755 2.535z"/><path d="M404.95 351.387c-.143.497-.78.674-1.277.355s-.85-1.134-.708-1.63l.78-2.728c.14-.497.78-.674 1.275-.355.518.332.85 1.133.708 1.63l-.78 2.727z"/><path d="M405.678 339.066c-.637-.036-.992-.532-.708-.993s1.205-.885 1.842-.85l3.508.195c.638.035.992.53.71.992-.297.48-1.206.886-1.844.85l-3.508-.194z"/><path d="M403.906 340.923c-.637-.036-.992-.532-.708-.993s1.205-.885 1.842-.85l3.508.195c.638.035.992.53.71.992-.297.48-1.206.886-1.844.85l-3.508-.194z"/><path d="M402.82 342.47c-.638.07-1.098-.354-.92-.85s.99-1.063 1.63-1.134l3.507-.39c.637-.07 1.098.355.92.85-.184.52-.99 1.064-1.63 1.135l-3.507.39z"/><path d="M406.842 353.07c.035.532-.496.85-1.063.638s-1.17-.957-1.206-1.488l-.195-2.923c-.036-.532.496-.85 1.062-.638.593.22 1.17.956 1.205 1.487l.195 2.923z"/><path d="M409.604 353.818c.142.496-.32.886-.92.78s-1.348-.71-1.49-1.205l-.78-2.728c-.14-.496.32-.886.922-.78.63.11 1.347.71 1.488 1.205l.78 2.728z"/><path d="M412.515 354.122c.284.46-.035.92-.637.92s-1.49-.46-1.772-.92l-1.56-2.533c-.283-.462.036-.922.64-.922.628 0 1.487.46 1.77.92l1.56 2.534z"/><path d="M517.846 345.934c.602.14.815.673.425 1.063s-1.38.637-1.983.496l-3.313-.78c-.603-.142-.815-.673-.425-1.063.406-.407 1.38-.638 1.983-.496l3.313.78z"/><path d="M518.442 346.157c.603.177.78.744.355 1.134s-1.453.603-2.056.426l-3.31-.974c-.604-.177-.78-.744-.356-1.134.445-.407 1.453-.603 2.055-.425l3.312.974z"/><path d="M522.167 343.366c.637.106.92.638.567 1.063s-1.347.743-1.985.637l-3.51-.585c-.636-.106-.92-.638-.565-1.063.37-.445 1.346-.745 1.984-.64l3.507.586z"/><path d="M520.21 345.4c.604.177.78.708.356 1.063s-1.453.53-2.056.354l-3.312-.974c-.603-.178-.78-.71-.355-1.063.445-.37 1.453-.532 2.055-.355l3.313.975z"/><path d="M508.803 335.722c-.567.212-.674.744-.213 1.063s1.488.425 2.055.212l3.118-1.17c.567-.212.673-.743.213-1.062-.482-.333-1.488-.425-2.055-.213l-3.117 1.17z"/><path d="M506.832 334.564c-.567.248-.674.815-.213 1.134s1.487.39 2.054.142l3.118-1.365c.567-.248.673-.815.213-1.133-.482-.334-1.488-.39-2.055-.142l-3.118 1.364z"/><path d="M504.38 333.318c-.603.177-.78.708-.355 1.063s1.453.532 2.056.355l3.313-.974c.603-.177.78-.708.355-1.062-.445-.37-1.453-.532-2.055-.355l-3.313.975z"/><path d="M515.733 338.757c-.567.248-.674.815-.213 1.134s1.488.39 2.055.143l3.118-1.365c.567-.248.673-.815.213-1.133-.482-.334-1.488-.39-2.055-.142l-3.117 1.364z"/><path d="M513.254 337.82c-.567.212-.674.744-.213 1.063s1.49.425 2.056.212l3.118-1.17c.567-.212.673-.743.213-1.062-.482-.333-1.488-.425-2.055-.213l-3.118 1.17z"/><path d="M511.28 336.66c-.566.25-.673.816-.212 1.135s1.488.39 2.055.142l3.118-1.365c.568-.248.674-.815.214-1.133-.482-.335-1.488-.39-2.055-.143l-3.12 1.364z"/></g><g transform="matrix(.08 0 0 .095 438.402 287.937)"><path d="M212.603-1994.912v53.15h-53.15v35.44h53.15v106.3h35.433v-106.3h53.15v-35.44h-53.15v-53.15h-35.433z" stroke="#000" stroke-width=".898pt" fill="#fff133"/><ellipse rx="62.008" ry="57.32" stroke="#000" transform="matrix(.571 0 0 .618 93.645 -678.94)" cy="-1813.5" cx="239.17" stroke-width=".898pt" fill="#fff133"/><path d="M602.36-1119.4c0 68.45-10.417 145.68-29.252 205.02-120.08-26.455-268.06-39.682-339.04-39.682-87.586 0-246.15 13.227-345.26 26.455-18.835-59.336-30.538-123.34-30.538-191.79 0-273.81 105.27-390.21 367.5-496.03 233.3 105.82 376.6 222.22 376.6 496.03z" transform="matrix(1.058 0 0 1.339 -5.764 363.72)" stroke="#000" stroke-width=".898pt" fill="#fff"/><path d="M566.93-657.28c0-44.007-150.8-79.724-336.61-79.724s-336.61 35.717-336.61 79.724v26.575c0-44.007 150.8-70.866 336.61-70.866s336.61 44.575 336.61 88.582v-44.292z" transform="matrix(1.171 0 0 .745 -32.833 -634.89)" stroke="#000" stroke-width=".898pt" fill="#fff133"/><g stroke="#000" stroke-width=".898pt" fill="#fff133"><path d="M237.105-1381.874l-62.345 39.597 41.563 26.398-20.78 13.2-41.563-26.398-62.345 39.596 62.345 39.597 41.562-26.397 20.78 13.198v39.597h41.564v-39.597l20.782-13.198 41.563 26.397 62.346-39.597-62.345-39.596-41.562 26.398-20.782-13.2 41.564-26.397-62.345-39.597z"/><path d="M-181.945-1340.002l6.116 39.88 10.418 25.547-14.9 16.07-10.416-25.55-4.483 41.618 35.734 35.025-10.417-25.547 25.316 9.48 15.626 38.32 20.107-3.295-15.626-38.322 14.9-16.068 10.417 25.547 4.483-41.616-35.735-35.026 10.42 25.548-25.318-9.48-10.418-25.546-26.225-36.584z"/><path d="M654.99-1339.374l-23.76 37.11-9.46 25.688-24.962 9.833 9.46-25.69-34.423 35.522 6.042 41.544 9.46-25.688 15.502 15.856-14.192 38.534 20.233 3.01 14.192-38.533 24.963-9.832-9.46 25.69 34.422-35.522-6.042-41.546-9.46 25.69-15.502-15.857 9.46-25.69 3.528-40.12z"/><path d="M-30.793-1285.432c-3.313-13.024 9.78-27.73 26.184-29.414 16.407-1.683 36.126 9.658 39.44 22.682s-9.78 27.725-9.78 27.725l78.874 45.355-32.81 3.366-59.157-34.015-39.277 44.114-32.81 3.366 52.37-58.82s-19.72-11.334-23.033-24.358z"/><path d="M438.894-1292.267c3.172-13.04 22.768-24.47 39.19-22.86 16.424 1.613 29.675 16.267 26.503 29.31s-22.765 24.464-22.765 24.464l53.008 58.606-32.847-3.224-39.756-43.956-58.783 34.282-32.846-3.225 78.378-45.707s-13.254-14.648-10.082-27.69z"/><path d="M631.95-1164.134c0-32.785-176.89-59.394-394.845-59.394s-394.843 26.61-394.843 59.394v19.8c0-32.786 176.888-52.796 394.843-52.796s394.844 33.21 394.844 65.994v-32.998z"/></g><path d="M566.93-657.28c0-44.007-150.8-79.724-336.61-79.724s-336.61 35.717-336.61 79.724v26.575c0-44.007 150.8-70.866 336.61-70.866s336.61 44.575 336.61 88.582v-44.292z" transform="matrix(1.073 0 0 .745 -9.254 -386.86)" stroke="#000" stroke-width=".898pt" fill="#fff133"/><g stroke="#000" stroke-width=".898pt" fill="#fff133"><path d="M241.38-1133.844l-58.676 39.597 39.118 26.398-19.56 13.2-39.117-26.398-58.677 39.596 58.677 39.597 39.118-26.397 19.56 13.198v39.597h39.117v-39.597l19.56-13.198 39.117 26.397 58.678-39.597-58.678-39.596-39.118 26.398-19.56-13.2 39.12-26.397-58.68-39.597z"/><path d="M-152.357-1091.972l5.712 39.88 9.78 25.547-14.05 16.07-9.78-25.55-4.27 41.618 33.61 35.025-9.78-25.547 23.83 9.48 14.668 38.32 18.94-3.295-14.67-38.322 14.05-16.068 9.778 25.547 4.27-41.616-33.608-35.026 9.78 25.548-23.828-9.48-9.78-25.546-24.65-36.584z"/><path d="M635.43-1091.344l-22.4 37.11-8.93 25.688-23.51 9.833 8.93-25.69-32.44 35.522 5.652 41.544 8.93-25.688 14.58 15.856-13.394 38.534 19.046 3.01 13.394-38.533 23.51-9.832-8.93 25.69 32.44-35.522-5.653-41.546-8.928 25.69-14.58-15.857 8.928-25.69 3.355-40.12z"/><path d="M-10.656-1037.402c-3.12-13.024 9.21-27.73 24.66-29.414 15.45-1.683 34.016 9.658 37.135 22.682s-9.214 27.725-9.214 27.725l74.268 45.355-30.898 3.366-55.7-34.015-36.993 44.114-30.897 3.366 49.323-58.82s-18.568-11.334-21.686-24.358z"/><path d="M432.006-1044.237c2.994-13.04 21.456-24.47 36.922-22.86 15.467 1.613 27.938 16.267 24.944 29.31s-21.454 24.464-21.454 24.464l49.89 58.606-30.933-3.224-37.418-43.956-55.38 34.282-30.934-3.225 73.842-45.707s-12.474-14.648-9.48-27.69z"/><path d="M613-916.104c0-32.785-166.484-59.394-371.62-59.394s-371.616 26.61-371.616 59.394v19.8c0-32.786 166.483-52.796 371.617-52.796S613-915.89 613-883.106v-32.998z"/></g><path d="M566.93-657.28c0-44.007-150.8-79.724-336.61-79.724s-336.61 35.717-336.61 79.724v26.575c0-44.007 150.8-70.866 336.61-70.866s336.61 44.575 336.61 88.582v-44.292z" transform="matrix(1.105 0 0 .745 -16.106 -865.2)" stroke="#000" stroke-width=".898pt" fill="#fff133"/><g stroke="#000" stroke-width=".898pt" fill="#fff133"><path d="M242.578-1610.91l-57.402 37.31 38.267 24.874-19.133 12.437-38.268-24.873-57.402 37.31 57.402 37.312 38.268-24.875 19.133 12.437v37.31h38.268v-37.31l19.135-12.437 38.268 24.874 57.402-37.312-57.402-37.31-38.268 24.873-19.134-12.436 38.27-24.874-57.402-37.31z"/><path d="M-142.51-1572.065l5.587 37.617 9.567 24.094-13.748 15.166-9.567-24.095-4.182 39.26L-121.97-1447l-9.567-24.094 23.315 8.93 14.35 36.14 18.532-3.118-14.35-36.142 13.748-15.165 9.566 24.095 4.18-39.26-32.88-33.023 9.567 24.095-23.315-8.93-9.566-24.094-24.12-34.498z"/><path d="M627.436-1571.616l-21.88 35.014-8.718 24.236-22.978 9.284 8.717-24.237-31.695 33.52 5.546 39.19 8.716-24.236 14.26 14.953-13.074 36.354 18.62 2.835 13.076-36.354 22.98-9.282-8.718 24.235 31.695-33.52-5.546-39.188-8.716 24.237-14.26-14.954 8.716-24.236 3.26-37.848z"/><path d="M-3.824-1520.297c-3.048-12.28 9.017-26.155 24.128-27.75 15.113-1.594 33.273 9.092 36.32 21.372s-9.017 26.148-9.017 26.148l72.637 42.732-30.224 3.19-54.48-32.05-36.193 41.616-30.224 3.19 48.26-55.488s-18.16-10.68-21.207-22.96z"/><path d="M428.682-1526.722c2.924-12.298 20.978-23.072 36.107-21.548 15.13 1.523 27.335 15.345 24.41 27.642s-20.974 23.066-20.974 23.066l48.827 55.275-30.26-3.047-36.62-41.457-54.16 32.314-30.26-3.047 72.213-43.086s-12.208-13.815-9.284-26.112z"/><path d="M606.116-1405.65c0-30.89-162.864-55.965-363.538-55.965s-363.54 25.074-363.54 55.966v18.657c0-30.893 162.865-49.748 363.54-49.748s363.538 31.292 363.538 62.184v-31.093z"/></g><ellipse rx="375.87" ry="120.53" transform="matrix(.966 0 0 .414 12.936 -517.53)" cy="-822.11" cx="234.13" stroke-width="1pt" fill="#b90000"/></g><path d="M513.78-790.16l35.432-17.714 35.433 17.714s-73.366 35.433-73.366 159.45c-.002 88.58 125.26 106.3 125.26 212.6 0 45.65-34.184 88.582-69.617 88.582s-88.583-17.716-141.73-70.866c35.433 17.716 76.082 37.308 106.3 36.058 19.588-.405 55.025-17.716 55.025-53.15 0-70.865-122.77-106.92-122.77-213.22 0-124.02 50.025-159.45 50.026-159.45z" transform="matrix(.24 0 0 .199 381.945 335.919)" stroke="#000" stroke-width=".898pt" fill="#fff"/><path d="M212.6-453.54c-35.433 0-70.866 35.433-70.866 70.866s35.433 70.866 70.866 70.866h194.88c35.433 0 70.866-35.433 70.866-70.866 0-37.027-35.433-70.866-70.866-70.866H212.6z" transform="matrix(.021 -.002 .009 .022 454.321 383.653)" stroke="#000" stroke-width="17.958" fill="#b00"/><path d="M520.25-790.16l46.683-17.717 10 17.717s-70.65 35.433-70.65 159.45c0 88.58 125.89 106.3 125.89 212.6 0 45.65-26.713 87.362-65.24 88.582-73.403 2.363-90.458-23.966-141.73-70.866 43.15 32.308 105 46.752 129.02 34.183 29.354-15.365 35.024-36.06 35.024-53.775 0-70.866-120.89-104.42-120.89-210.72 0-124.02 51.9-159.45 51.9-159.45z" transform="matrix(.24 0 0 .199 381.945 335.919)" stroke="#000" stroke-width=".898pt" fill="#fff"/><path d="M513.34-789.69c7.004-2.437 35.875-18.186 71.308 17.247 17.717 17.72 17.716 53.15 17.716 70.866l53.15-53.15s-29.066-86.87-107.62-53.59c-11.127 4.9-28.14 14.537-34.55 18.627z" transform="matrix(.24 0 0 .199 381.945 335.919)" stroke="#000" stroke-width=".898pt" fill="#fff"/><path d="M523.8-795.94c8.84-2.87 36.676-6.325 64.596 18.5 17.717 17.72 18.966 42.934 18.966 60.65l40.65-37.932c3.44-3.21-24.832-81.252-99.24-54.034-4.5 1.807-14.78 6.302-24.972 12.816z" transform="matrix(.24 0 0 .199 381.945 335.919)" stroke="#000" stroke-width=".898pt" fill="#fff"/><path d="M344.54-596.29l9.152 22.14s1.455-9.766 8.526-11.533l7.07-1.768s26.865 49.327 32.17 58.166c5.3 8.838-3.537 16.793-1.77 16.793 1.77 0 26.517-11.49 26.517-11.49s-10.606.882-15.026-6.19-34.82-59.933-34.82-59.933 6.187-2.652 11.49-5.303c5.304-2.652 10.607 7.955 10.607 7.955L385.2-613.97s0 8.84-4.42 10.607c-4.42 1.766-7.956 3.534-7.956 3.534s-3.535-6.187-7.955-13.258c-4.42-7.07 4.42-14.142 4.42-14.142l-22.982 11.49s7.955 4.42 10.607 8.84c2.65 4.42 5.303 8.838 5.303 8.838s-3.223 1.768-8.214 3.482c-3.59 1.875-7.696.054-9.464-1.714z" transform="matrix(.195 -.021 .067 .173 476.345 338.679)" stroke="#000" stroke-width=".898pt" fill="#fff133"/><path d="M344.54-596.29l9.152 22.14s1.455-9.766 8.526-11.533l7.07-1.768s26.865 49.327 32.17 58.166c5.3 8.838-3.537 16.793-1.77 16.793 1.77 0 26.517-11.49 26.517-11.49s-10.606.882-15.026-6.19-34.82-59.933-34.82-59.933 6.187-2.652 11.49-5.303c5.304-2.652 10.607 7.955 10.607 7.955L385.2-613.97s0 8.84-4.42 10.607c-4.42 1.766-7.956 3.534-7.956 3.534s-3.535-6.187-7.955-13.258c-4.42-7.07 4.42-14.142 4.42-14.142l-22.982 11.49s7.955 4.42 10.607 8.84c2.65 4.42 5.303 8.838 5.303 8.838s-3.223 1.768-8.214 3.482c-3.59 1.875-7.696.054-9.464-1.714z" transform="matrix(-.178 .024 -.003 -.132 595.11 97.278)" stroke="#000" stroke-width=".898pt" fill="#fff133"/><path d="M212.6-453.54c-35.433 0-70.866 35.433-70.866 70.866s35.433 70.866 70.866 70.866h194.88c35.433 0 70.866-35.433 70.866-70.866 0-37.027-35.433-70.866-70.866-70.866H212.6z" transform="matrix(.021 -.002 .009 .022 457.814 383.44)" stroke="#000" stroke-width="17.958" fill="#b00"/><path d="M212.6-453.54c-35.433 0-70.866 35.433-70.866 70.866s35.433 70.866 70.866 70.866h194.88c35.433 0 70.866-35.433 70.866-70.866 0-37.027-35.433-70.866-70.866-70.866H212.6z" transform="matrix(.035 -.002 .016 .022 452.614 386.374)" stroke="#000" stroke-width="17.958" fill="#b00"/><path d="M212.6-453.54c-35.433 0-70.866 35.433-70.866 70.866s35.433 70.866 70.866 70.866h194.88c35.433 0 70.866-35.433 70.866-70.866 0-37.027-35.433-70.866-70.866-70.866H212.6z" transform="matrix(.035 -.002 .016 .022 455.91 386.161)" stroke="#000" stroke-width="17.958" fill="#b00"/><path d="M212.6-453.54c-35.433 0-70.866 35.433-70.866 70.866s35.433 70.866 70.866 70.866h194.88c35.433 0 70.866-35.433 70.866-70.866 0-37.027-35.433-70.866-70.866-70.866H212.6z" transform="matrix(.043 -.002 .02 .022 451.298 389.505)" stroke="#000" stroke-width="17.958" fill="#b00"/><path d="M212.6-453.54c-35.433 0-70.866 35.433-70.866 70.866s35.433 70.866 70.866 70.866h194.88c35.433 0 70.866-35.433 70.866-70.866 0-37.027-35.433-70.866-70.866-70.866H212.6z" transform="matrix(.043 -.002 .02 .022 455.384 389.292)" stroke="#000" stroke-width="17.958" fill="#b00"/></g><path stroke-width="1pt" fill="#ffe000" d="M0 0h320v480H0z"/></g></svg>