<svg xmlns="http://www.w3.org/2000/svg" height="480" width="640"><defs><clipPath id="a"><path fill-opacity=".67" d="M0 0h682.67v512H0z"/></clipPath></defs><g clip-path="url(#a)" transform="scale(.938 .938)"><path fill-rule="evenodd" fill="#fff" d="M0 0h1024v512H0z"/><path d="M1024 445.24c-11.474 6.903-21.332 23.035-51.814 23.035-60.947 0-76.188-33.965-121.9-33.965-30.474 0-45.712 33.965-76.187 33.965-60.953 0-76.192-33.965-121.9-33.965-30.478 0-45.716 33.965-76.192 33.965-60.952 0-76.19-33.965-121.9-33.965-30.477 0-45.715 33.965-76.19 33.965-60.953 0-76.192-33.965-121.9-33.965-30.48 0-45.716 33.965-76.192 33.965-60.952 0-76.192-33.965-121.91-33.965-30.476 0-39.62 24.203-57.905 24.203v43.727c18.287 0 27.43-24.2 57.906-24.2 45.715 0 60.955 33.96 121.9 33.96 30.476 0 45.713-33.965 76.19-33.965 45.714 0 60.953 33.965 121.9 33.965 30.477 0 45.715-33.965 76.192-33.965 45.714 0 60.952 33.965 121.9 33.965 30.476 0 45.714-33.965 76.19-33.965 45.715 0 60.953 33.965 121.9 33.965 30.477 0 45.715-33.965 76.188-33.965 45.715 0 60.956 33.965 121.9 33.965 30.482 0 40.34-9.625 51.814-16.528v-50.235z" fill-rule="evenodd" fill="#000063"/><path d="M1024 360.32c-11.474 6.903-21.332 23.035-51.814 23.035-60.947 0-76.188-33.965-121.9-33.965-30.474 0-45.712 33.965-76.187 33.965-60.953 0-76.192-33.965-121.9-33.965-30.478 0-45.716 33.965-76.192 33.965-60.952 0-76.19-33.965-121.9-33.965-30.477 0-45.715 33.965-76.19 33.965-60.953 0-76.192-33.965-121.9-33.965-30.48 0-45.716 33.965-76.192 33.965-60.952 0-76.192-33.965-121.91-33.965-30.476 0-39.62 24.203-57.905 24.203v43.727c18.287.01 27.43-24.2 57.906-24.2 45.714 0 60.953 33.965 121.91 33.965 30.476 0 45.713-33.965 76.19-33.965 45.714 0 60.953 33.965 121.9 33.965 30.477 0 45.715-33.965 76.192-33.965 45.714 0 60.952 33.965 121.9 33.965 30.476 0 45.714-33.965 76.19-33.965 45.715 0 60.953 33.965 121.9 33.965 30.477 0 45.715-33.965 76.188-33.965 45.715 0 60.956 33.965 121.9 33.965 30.482 0 40.34-9.625 51.814-16.528v-50.235z" fill-rule="evenodd" fill="#000063"/><path d="M1024 275.41c-11.474 6.903-21.332 23.035-51.814 23.035-60.947 0-76.188-33.965-121.9-33.965-30.474 0-45.712 33.965-76.187 33.965-60.953 0-76.192-33.965-121.9-33.965-30.478 0-45.716 33.965-76.192 33.965-60.952 0-76.19-33.965-121.9-33.965-30.477 0-45.715 33.965-76.19 33.965-60.953 0-76.192-33.965-121.9-33.965-30.48 0-45.716 33.965-76.192 33.965-60.952 0-76.192-33.965-121.91-33.965-30.476 0-39.62 24.203-57.905 24.203v43.727c18.287 0 27.43-24.2 57.906-24.2 45.714 0 60.953 33.965 121.91 33.965 30.476 0 45.713-33.965 76.19-33.965 45.714 0 60.953 33.965 121.9 33.965 30.477 0 45.715-33.965 76.192-33.965 45.714 0 60.952 33.965 121.9 33.965 30.476 0 45.714-33.965 76.19-33.965 45.715 0 60.953 33.965 121.9 33.965 30.477 0 45.715-33.965 76.188-33.965 45.715 0 60.956 33.965 121.9 33.965 30.482 0 40.34-9.625 51.814-16.528v-50.235z" fill-rule="evenodd" fill="#000063"/><path d="M1024 190.5c-11.474 6.903-21.332 23.035-51.814 23.035-60.947 0-76.188-33.965-121.9-33.965-30.474 0-45.712 33.965-76.187 33.965-60.953 0-76.192-33.965-121.9-33.965-30.478 0-45.716 33.965-76.192 33.965-60.952 0-76.19-33.965-121.9-33.965-30.477 0-45.715 33.965-76.19 33.965-60.953 0-76.192-33.965-121.9-33.965-30.48 0-45.716 33.965-76.192 33.965-60.952 0-76.192-33.965-121.91-33.965-30.476 0-39.62 24.203-57.905 24.203V247.5c18.287 0 27.43-24.2 57.906-24.2 45.714 0 60.953 33.965 121.91 33.965 30.476 0 45.713-33.965 76.19-33.965 45.714 0 60.953 33.965 121.9 33.965 30.477 0 45.715-33.965 76.192-33.965 45.714 0 60.952 33.965 121.9 33.965 30.476 0 45.714-33.965 76.19-33.965 45.715 0 60.953 33.965 121.9 33.965 30.477 0 45.715-33.965 76.188-33.965 45.715 0 60.956 33.965 121.9 33.965 30.482 0 40.34-9.625 51.814-16.528v-50.235z" fill-rule="evenodd" fill="#000063"/><path d="M1024 105.59c-11.474 6.903-21.332 23.035-51.814 23.035-60.947 0-76.188-33.965-121.9-33.965-30.474 0-45.712 33.965-76.187 33.965-60.953 0-76.192-33.965-121.9-33.965-30.478 0-45.716 33.965-76.192 33.965-60.952 0-76.19-33.965-121.9-33.965-30.477 0-45.715 33.965-76.19 33.965-60.953 0-76.192-33.965-121.9-33.965-30.48 0-45.716 33.965-76.192 33.965-60.952 0-76.192-33.965-121.91-33.965-30.49-.002-39.634 24.2-57.92 24.2v43.727c18.286 0 27.428-24.203 57.905-24.203 45.715 0 60.954 33.965 121.91 33.965 30.477 0 45.714-33.966 76.192-33.966 45.713 0 60.952 33.965 121.9 33.965 30.476 0 45.714-33.966 76.19-33.966 45.715 0 60.953 33.965 121.9 33.965 30.477 0 45.715-33.966 76.192-33.966 45.714 0 60.952 33.965 121.9 33.965 30.476 0 45.714-33.966 76.187-33.966 45.716 0 60.957 33.965 121.9 33.965 30.483 0 40.34-9.626 51.815-16.53v-50.234z" fill-rule="evenodd" fill="#000063"/><path d="M1024 20.675c-11.474 6.903-21.332 23.035-51.814 23.035-60.947 0-76.188-33.965-121.9-33.965-30.474 0-45.712 33.965-76.187 33.965-60.953 0-76.192-33.965-121.9-33.965-30.478 0-45.716 33.965-76.192 33.965-60.952 0-76.19-33.965-121.9-33.965-30.477 0-45.715 33.965-76.19 33.965-60.953 0-76.192-33.965-121.9-33.965-30.48 0-45.716 33.965-76.192 33.965-60.952 0-76.192-33.965-121.91-33.965-30.49 0-39.634 24.203-57.92 24.203v43.727c18.286 0 27.428-24.203 57.905-24.203 45.715 0 60.954 33.965 121.91 33.965 30.477 0 45.714-33.965 76.192-33.965 45.713 0 60.952 33.965 121.9 33.965 30.476 0 45.714-33.965 76.19-33.965 45.715 0 60.953 33.965 121.9 33.965 30.477 0 45.715-33.965 76.192-33.965 45.714 0 60.952 33.965 121.9 33.965 30.476 0 45.714-33.965 76.187-33.965 45.716 0 60.957 33.965 121.9 33.965 30.483 0 40.34-9.625 51.815-16.528V20.673z" fill-rule="evenodd" fill="#000063"/><path fill-rule="evenodd" stroke-width="1pt" fill="#000063" d="M0 .063h261.31v157.91H0z"/><g stroke-width="1pt"><path d="M0 .063v17.654L232.097 157.97h29.215v-17.655L29.215.065H0zm261.312 0v17.654L29.215 157.967H0v-17.653L232.097.064h29.215z" fill="#fff"/><path d="M108.88.063v157.905h43.552V.063H108.88zM0 52.698v52.635h261.312V52.698H0z" fill="#fff"/><path d="M0 63.225v31.58h261.312v-31.58H0zM117.59.063v157.905h26.132V.063H117.59z" fill="#c00"/><path d="M0 157.968l87.104-52.635h19.476l-87.104 52.635H0zM0 .063l87.104 52.635H67.628L0 11.833V.063zm154.732 52.635L241.836.063h19.476l-87.104 52.635h-19.476zm106.58 105.27l-87.104-52.635h19.476l67.628 40.866v11.768z" fill="#c00"/></g><g><path d="M814.96-301.18l-17.72 708.66c0 37.298 80.097 37.298 88.583 0l-17.717-708.66h-53.15z" fill-rule="evenodd" transform="matrix(.206 0 0 .49 211.575 267.409)" stroke="#fff" stroke-width="6.935" fill="#a24300"/><g><g><path d="M496.06 549.21l17.717 70.866 35.433-53.15-17.717 88.583 35.433-35.434-35.433 88.582 35.433-35.433-35.433 88.583 35.433-35.433-35.433 106.3 35.433-35.433-35.433 106.3 35.433-35.433-35.433 106.3-17.716 53.15-17.717 17.72-17.717-17.72-17.716-53.15-35.433-106.3 35.433 35.432-35.433-106.3 35.433 35.433-35.433-106.3 35.433 35.433-35.433-88.583 35.433 35.433-35.433-88.582 35.433 35.433-17.717-88.584 35.433 53.15 17.717-70.866z" fill-rule="evenodd" transform="matrix(-.236 .068 -.103 -.195 590.573 322.605)" stroke="#fff" stroke-width="8.25" fill="#006d00"/><path d="M496.06 549.21v496.07" transform="matrix(-.236 .068 -.103 -.195 590.573 322.605)" stroke="#000" stroke-width="1pt" fill="none"/><path d="M425.2 868.11l70.86 106.3 70.87-106.3" transform="matrix(-.236 .068 -.103 -.195 590.573 322.605)" stroke="#000" stroke-width="1pt" fill="none"/><path d="M425.2 797.24l70.866 106.3 70.866-106.3" transform="matrix(-.236 .068 -.103 -.195 590.573 322.605)" stroke="#000" stroke-width="1pt" fill="none"/><path d="M425.2 726.38l70.866 106.3 70.866-106.3" transform="matrix(-.236 .068 -.103 -.195 590.573 322.605)" stroke="#000" stroke-width="1pt" fill="none"/><path d="M425.2 673.23l70.866 88.583 70.866-88.583" transform="matrix(-.236 .068 -.103 -.195 590.573 322.605)" stroke="#000" stroke-width="1pt" fill="none"/><path d="M425.2 620.08l70.866 88.582 70.866-88.582" transform="matrix(-.236 .068 -.103 -.195 590.573 322.605)" stroke="#000" stroke-width="1pt" fill="none"/><path d="M442.91 566.93l53.15 106.3 53.15-106.3" transform="matrix(-.236 .068 -.103 -.195 590.573 322.605)" stroke="#000" stroke-width="1pt" fill="none"/></g><g><path d="M496.06 549.21l17.717 70.866 35.433-53.15-17.717 88.583 35.433-35.434-35.433 88.582 35.433-35.433-35.433 88.583 35.433-35.433-35.433 106.3 35.433-35.433-35.433 106.3 35.433-35.433-35.433 106.3-17.716 53.15-17.717 17.72-17.717-17.72-17.716-53.15-35.433-106.3 35.433 35.432-35.433-106.3 35.433 35.433-35.433-106.3 35.433 35.433-35.433-88.583 35.433 35.433-35.433-88.582 35.433 35.433-17.717-88.584 35.433 53.15 17.717-70.866z" fill-rule="evenodd" transform="matrix(.177 -.181 .221 .147 73.588 93.41)" stroke="#fff" stroke-width="8.25" fill="#006d00"/><path d="M496.06 549.21v496.07" transform="matrix(.177 -.181 .221 .147 73.588 93.41)" stroke="#000" stroke-width="1pt" fill="none"/><path d="M425.2 868.11l70.86 106.3 70.87-106.3" transform="matrix(.177 -.181 .221 .147 73.588 93.41)" stroke="#000" stroke-width="1pt" fill="none"/><path d="M425.2 797.24l70.866 106.3 70.866-106.3" transform="matrix(.177 -.181 .221 .147 73.588 93.41)" stroke="#000" stroke-width="1pt" fill="none"/><path d="M425.2 726.38l70.866 106.3 70.866-106.3" transform="matrix(.177 -.181 .221 .147 73.588 93.41)" stroke="#000" stroke-width="1pt" fill="none"/><path d="M425.2 673.23l70.866 88.583 70.866-88.583" transform="matrix(.177 -.181 .221 .147 73.588 93.41)" stroke="#000" stroke-width="1pt" fill="none"/><path d="M425.2 620.08l70.866 88.582 70.866-88.582" transform="matrix(.177 -.181 .221 .147 73.588 93.41)" stroke="#000" stroke-width="1pt" fill="none"/><path d="M442.91 566.93l53.15 106.3 53.15-106.3" transform="matrix(.177 -.181 .221 .147 73.588 93.41)" stroke="#000" stroke-width="1pt" fill="none"/></g><g><path d="M496.06 549.21l17.717 70.866 35.433-53.15-17.717 88.583 35.433-35.434-35.433 88.582 35.433-35.433-35.433 88.583 35.433-35.433-35.433 106.3 35.433-35.433-35.433 106.3 35.433-35.433-35.433 106.3-17.716 53.15-17.717 17.72-17.717-17.72-17.716-53.15-35.433-106.3 35.433 35.432-35.433-106.3 35.433 35.433-35.433-106.3 35.433 35.433-35.433-88.583 35.433 35.433-35.433-88.582 35.433 35.433-17.717-88.584 35.433 53.15 17.717-70.866z" fill-rule="evenodd" transform="matrix(.114 .215 -.249 .107 581.352 -57.74)" stroke="#fff" stroke-width="8.25" fill="#006d00"/><path d="M496.06 549.21v496.07" transform="matrix(.114 .215 -.249 .107 581.352 -57.74)" stroke="#000" stroke-width="1pt" fill="none"/><path d="M425.2 868.11l70.86 106.3 70.87-106.3" transform="matrix(.114 .215 -.249 .107 581.352 -57.74)" stroke="#000" stroke-width="1pt" fill="none"/><path d="M425.2 797.24l70.866 106.3 70.866-106.3" transform="matrix(.114 .215 -.249 .107 581.352 -57.74)" stroke="#000" stroke-width="1pt" fill="none"/><path d="M425.2 726.38l70.866 106.3 70.866-106.3" transform="matrix(.114 .215 -.249 .107 581.352 -57.74)" stroke="#000" stroke-width="1pt" fill="none"/><path d="M425.2 673.23l70.866 88.583 70.866-88.583" transform="matrix(.114 .215 -.249 .107 581.352 -57.74)" stroke="#000" stroke-width="1pt" fill="none"/><path d="M425.2 620.08l70.866 88.582 70.866-88.582" transform="matrix(.114 .215 -.249 .107 581.352 -57.74)" stroke="#000" stroke-width="1pt" fill="none"/><path d="M442.91 566.93l53.15 106.3 53.15-106.3" transform="matrix(.114 .215 -.249 .107 581.352 -57.74)" stroke="#000" stroke-width="1pt" fill="none"/></g><g><path d="M496.06 549.21l17.717 70.866 35.433-53.15-17.717 88.583 35.433-35.434-35.433 88.582 35.433-35.433-35.433 88.583 35.433-35.433-35.433 106.3 35.433-35.433-35.433 106.3 35.433-35.433-35.433 106.3-17.716 53.15-17.717 17.72-17.717-17.72-17.716-53.15-35.433-106.3 35.433 35.432-35.433-106.3 35.433 35.433-35.433-106.3 35.433 35.433-35.433-88.583 35.433 35.433-35.433-88.582 35.433 35.433-17.717-88.584 35.433 53.15 17.717-70.866z" fill-rule="evenodd" transform="matrix(-.157 .194 -.236 -.128 705.353 197.626)" stroke="#fff" stroke-width="8.25" fill="#006d00"/><path d="M496.06 549.21v496.07" transform="matrix(-.157 .194 -.236 -.128 705.353 197.626)" stroke="#000" stroke-width="1pt" fill="none"/><path d="M425.2 868.11l70.86 106.3 70.87-106.3" transform="matrix(-.157 .194 -.236 -.128 705.353 197.626)" stroke="#000" stroke-width="1pt" fill="none"/><path d="M425.2 797.24l70.866 106.3 70.866-106.3" transform="matrix(-.157 .194 -.236 -.128 705.353 197.626)" stroke="#000" stroke-width="1pt" fill="none"/><path d="M425.2 726.38l70.866 106.3 70.866-106.3" transform="matrix(-.157 .194 -.236 -.128 705.353 197.626)" stroke="#000" stroke-width="1pt" fill="none"/><path d="M425.2 673.23l70.866 88.583 70.866-88.583" transform="matrix(-.157 .194 -.236 -.128 705.353 197.626)" stroke="#000" stroke-width="1pt" fill="none"/><path d="M425.2 620.08l70.866 88.582 70.866-88.582" transform="matrix(-.157 .194 -.236 -.128 705.353 197.626)" stroke="#000" stroke-width="1pt" fill="none"/><path d="M442.91 566.93l53.15 106.3 53.15-106.3" transform="matrix(-.157 .194 -.236 -.128 705.353 197.626)" stroke="#000" stroke-width="1pt" fill="none"/></g><g><path d="M496.06 549.21l17.717 70.866 35.433-53.15-17.717 88.583 35.433-35.434-35.433 88.582 35.433-35.433-35.433 88.583 35.433-35.433-35.433 106.3 35.433-35.433-35.433 106.3 35.433-35.433-35.433 106.3-17.716 53.15-17.717 17.72-17.717-17.72-17.716-53.15-35.433-106.3 35.433 35.432-35.433-106.3 35.433 35.433-35.433-106.3 35.433 35.433-35.433-88.583 35.433 35.433-35.433-88.582 35.433 35.433-17.717-88.584 35.433 53.15 17.717-70.866z" fill-rule="evenodd" transform="matrix(-.156 -.166 .177 -.151 275.344 396.005)" stroke="#fff" stroke-width="8.25" fill="#006d00"/><path d="M496.06 549.21v496.07" transform="matrix(-.156 -.166 .177 -.151 275.344 396.005)" stroke="#000" stroke-width="1pt" fill="none"/><path d="M425.2 868.11l70.86 106.3 70.87-106.3" transform="matrix(-.156 -.166 .177 -.151 275.344 396.005)" stroke="#000" stroke-width="1pt" fill="none"/><path d="M425.2 797.24l70.866 106.3 70.866-106.3" transform="matrix(-.156 -.166 .177 -.151 275.344 396.005)" stroke="#000" stroke-width="1pt" fill="none"/><path d="M425.2 726.38l70.866 106.3 70.866-106.3" transform="matrix(-.156 -.166 .177 -.151 275.344 396.005)" stroke="#000" stroke-width="1pt" fill="none"/><path d="M425.2 673.23l70.866 88.583 70.866-88.583" transform="matrix(-.156 -.166 .177 -.151 275.344 396.005)" stroke="#000" stroke-width="1pt" fill="none"/><path d="M425.2 620.08l70.866 88.582 70.866-88.582" transform="matrix(-.156 -.166 .177 -.151 275.344 396.005)" stroke="#000" stroke-width="1pt" fill="none"/><path d="M442.91 566.93l53.15 106.3 53.15-106.3" transform="matrix(-.156 -.166 .177 -.151 275.344 396.005)" stroke="#000" stroke-width="1pt" fill="none"/></g><g><path d="M460.63 549.21l28.643 70.866 42.223-53.15-10.184 88.583 27.9-35.434-17.716 88.582 25.25-35.433-25.25 88.583 35.433-35.433-35.434 106.3 35.433-35.433-35.434 106.3 35.433-35.433-35.434 106.3-17.716 53.15-17.717 17.72-17.717-17.72-17.716-53.15-35.433-106.3 35.433 35.432-35.433-106.3 35.433 35.433-35.433-106.3 35.433 35.433-45.617-88.583 45.617 35.433-53.15-88.582 42.966 35.433-25.25-88.584 35.433 53.15V549.21z" fill-rule="evenodd" transform="matrix(-.271 -.064 -.157 .204 683.534 -32.198)" stroke="#fff" stroke-width="8.25" fill="#006d00"/><path d="M467.21 584.65l28.855 124.02v336.62" transform="matrix(-.271 -.064 -.157 .204 683.534 -32.198)" stroke="#000" stroke-width="1pt" fill="none"/><path d="M436.23 885.83l59.833 88.582 60.682-88.582" transform="matrix(-.271 -.064 -.157 .204 683.534 -32.198)" stroke="#000" stroke-width="1pt" fill="none"/><path d="M434.53 814.96l61.53 88.582 60.682-88.582" transform="matrix(-.271 -.064 -.157 .204 683.534 -32.198)" stroke="#000" stroke-width="1pt" fill="none"/><path d="M435.38 744.1l60.682 88.582 59.833-88.582" transform="matrix(-.271 -.064 -.157 .204 683.534 -32.198)" stroke="#000" stroke-width="1pt" fill="none"/><path d="M432.84 690.94l63.228 70.866 53.15-70.866" transform="matrix(-.271 -.064 -.157 .204 683.534 -32.198)" stroke="#000" stroke-width="1pt" fill="none"/><path d="M425.2 637.8l70.866 70.865 45.406-70.865" transform="matrix(-.271 -.064 -.157 .204 683.534 -32.198)" stroke="#000" stroke-width="1pt" fill="none"/><path d="M436.12 593.24l53.15 86.886 35.327-95.478" transform="matrix(-.271 -.064 -.157 .204 683.534 -32.198)" stroke="#000" stroke-width="1pt" fill="none"/></g><g><path d="M460.63 549.21l28.643 70.866 42.223-53.15-10.184 88.583 27.9-35.434-17.716 88.582 25.25-35.433-25.25 88.583 35.433-35.433-35.434 106.3 35.433-35.433-35.434 106.3 35.433-35.433-35.434 106.3-17.716 53.15-17.717 17.72-17.717-17.72-17.716-53.15-35.433-106.3 35.433 35.432-35.433-106.3 35.433 35.433-35.433-106.3 35.433 35.433-45.617-88.583 45.617 35.433-53.15-88.582 42.966 35.433-25.25-88.584 35.433 53.15V549.21z" fill-rule="evenodd" transform="matrix(.27 .067 .01 .245 240.484 -138.421)" stroke="#fff" stroke-width="8.25" fill="#006d00"/><path d="M467.21 584.65l28.855 124.02v336.62" transform="matrix(.27 .067 .01 .245 240.484 -138.421)" stroke="#000" stroke-width="1pt" fill="none"/><path d="M436.23 885.83l59.833 88.582 60.682-88.582" transform="matrix(.27 .067 .01 .245 240.484 -138.421)" stroke="#000" stroke-width="1pt" fill="none"/><path d="M434.53 814.96l61.53 88.582 60.682-88.582" transform="matrix(.27 .067 .01 .245 240.484 -138.421)" stroke="#000" stroke-width="1pt" fill="none"/><path d="M435.38 744.1l60.682 88.582 59.833-88.582" transform="matrix(.27 .067 .01 .245 240.484 -138.421)" stroke="#000" stroke-width="1pt" fill="none"/><path d="M432.84 690.94l63.228 70.866 53.15-70.866" transform="matrix(.27 .067 .01 .245 240.484 -138.421)" stroke="#000" stroke-width="1pt" fill="none"/><path d="M425.2 637.8l70.866 70.865 45.406-70.865" transform="matrix(.27 .067 .01 .245 240.484 -138.421)" stroke="#000" stroke-width="1pt" fill="none"/><path d="M436.12 593.24l53.15 86.886 35.327-95.478" transform="matrix(.27 .067 .01 .245 240.484 -138.421)" stroke="#000" stroke-width="1pt" fill="none"/></g><g><path d="M354.33 531.5l88.583 88.583 17.716-53.15v88.583l35.432-35.433-17.716 88.583 35.432-35.434-17.716 88.584 35.433-35.433-17.716 106.3 35.432-35.433-35.433 106.3 35.432-35.433-17.717 106.3-17.716 53.15-17.718 17.72-17.717-17.72-17.716-53.15-53.15-82.294 35.433 11.43-35.433-106.3 35.433 35.432-53.15-106.3 35.433 35.433-53.15-88.584 53.15 35.434-70.866-88.583 53.15 35.433-70.867-70.866 70.866 35.433-53.15-88.583z" fill-rule="evenodd" transform="matrix(.034 -.235 .244 .042 115.027 229.279)" stroke="#fff" stroke-width="8.25" fill="#006d00"/><path d="M378.96 560.02l63.952 95.497 17.716 53.15 8.86 45.205 8.857 78.81 9.315 70.867 8.4 141.74" transform="matrix(.034 -.235 .244 .042 115.027 229.279)" stroke="#000" stroke-width="1pt" fill="none"/><path d="M425.2 903.54l63.665 70.866 50.75-88.583" transform="matrix(.034 -.235 .244 .042 115.027 229.279)" stroke="#000" stroke-width="1pt" fill="none"/><path d="M417.08 814.96l70.58 88.583 50.75-88.583" transform="matrix(.034 -.235 .244 .042 115.027 229.279)" stroke="#000" stroke-width="1pt" fill="none"/><path d="M407.48 752.44l70.867 80.235 45.948-88.583" transform="matrix(.034 -.235 .244 .042 115.027 229.279)" stroke="#000" stroke-width="1pt" fill="none"/><path d="M372.05 637.8l88.583 70.866 25.83-70.866" transform="matrix(.034 -.235 .244 .042 115.027 229.279)" stroke="#000" stroke-width="1pt" fill="none"/><path d="M360.62 602.36l82.296 53.15 10.515-53.15" transform="matrix(.034 -.235 .244 .042 115.027 229.279)" stroke="#000" stroke-width="1pt" fill="none"/><path d="M389.76 690.94l81.095 70.866L504.8 690.94" transform="matrix(.034 -.235 .244 .042 115.027 229.279)" stroke="#000" stroke-width="1pt" fill="none"/></g></g></g><g fill-rule="evenodd"><path d="M541.46 1173.3l-1.7-229.13-61.1-106.94c-15.277-52.618-7.754-78.08 16.973-79.776 24.728-1.698 49.224 13.58 84.868 15.276 35.646 1.697 28.857-59.408 81.475-57.71 52.618 1.697 144.28 32.25 222.36 37.342 78.078 5.092 118.81-27.158 208.77-30.553 89.97-3.396 113.73 42.434 118.82 42.434s30.55-18.672 56.01-22.066c25.46-3.395 33.95 10.184 33.95 10.184s-1.7 57.71-13.58 91.657c-11.88 33.947-54.32 89.96-56.01 89.96-1.7 0-15.28 249.52-15.28 251.21 0 1.7-675.55-6.79-675.55-11.88z" stroke="#000" stroke-width="1pt" fill="#c00" transform="matrix(.137 0 0 .126 266.36 208.19)"/><g stroke="#000" stroke-width="1pt"><path d="M435.542 326.406s9.313-6.564 9.564-22.324c.144-9.063-4.71-15.626-16.846-15.626-16.99 0-41.26 6.697-41.26 6.697v2.232s19.416-6.697 41.26-6.697c9.71 0 14.563 6.563 14.563 13.26 0 11.162-9.708 22.457-9.708 22.457v17.858h2.427v-17.858z" fill="#fff100"/><path d="M440.628 321.726c0 1.233 1.087 2.233 2.427 2.233s2.428-1 2.428-2.234c0-1.232-1.087-2.232-2.428-2.232-1.34 0-2.427 1-2.427 2.232z" fill="#fff"/><path d="M443.056 316.62c0 1.233 1.087 2.233 2.427 2.233s2.428-1 2.428-2.233c0-1.232-1.086-2.232-2.427-2.232-1.34 0-2.427 1-2.427 2.232z" fill="#fff"/><path d="M444.32 311.42c0 1.233 1.087 2.233 2.427 2.233s2.428-1 2.428-2.233c0-1.232-1.087-2.232-2.428-2.232-1.34 0-2.427 1-2.427 2.232z" fill="#fff"/><path d="M445.25 305.86c0 1.233 1.087 2.233 2.427 2.233s2.428-1 2.428-2.233c0-1.232-1.087-2.232-2.428-2.232-1.34 0-2.427 1-2.427 2.232z" fill="#fff"/><path d="M445.018 299.83c0 1.234 1.087 2.234 2.427 2.234s2.428-1 2.428-2.233c0-1.23-1.087-2.23-2.428-2.23-1.34 0-2.427 1-2.427 2.23z" fill="#fff"/><path d="M437.14 326.217c0 1.233 1.087 2.233 2.427 2.233s2.428-1 2.428-2.233c0-1.232-1.087-2.232-2.428-2.232-1.34 0-2.427 1-2.427 2.232z" fill="#fff"/><path d="M442.954 294.137c0 1.233 1.087 2.233 2.427 2.233 1.342 0 2.43-1 2.43-2.233 0-1.232-1.088-2.232-2.43-2.232-1.34 0-2.426 1-2.426 2.232z" fill="#fff"/><path d="M438.536 289.646c0 1.233 1.087 2.233 2.427 2.233s2.428-1 2.428-2.234c0-1.232-1.086-2.232-2.427-2.232-1.34 0-2.427 1-2.427 2.232z" fill="#fff"/><path d="M432.49 286.652c0 1.233 1.087 2.233 2.427 2.233s2.428-1 2.428-2.233c0-1.232-1.087-2.232-2.428-2.232-1.34 0-2.427 1-2.427 2.232z" fill="#fff"/><path d="M426.443 286.224c0 1.233 1.087 2.233 2.427 2.233s2.428-1 2.428-2.233c0-1.232-1.087-2.232-2.428-2.232-1.34 0-2.427 1-2.427 2.232z" fill="#fff"/><path d="M419.933 286.438c0 1.233 1.087 2.233 2.427 2.233s2.428-1 2.428-2.232c0-1.232-1.087-2.232-2.428-2.232-1.34 0-2.427 1-2.427 2.232z" fill="#fff"/><path d="M413.42 287.294c0 1.233 1.088 2.233 2.428 2.233 1.34 0 2.428-1 2.428-2.233 0-1.232-1.087-2.232-2.428-2.232-1.34 0-2.427 1-2.427 2.232z" fill="#fff"/><path d="M406.91 288.15c0 1.232 1.087 2.232 2.427 2.232s2.428-1 2.428-2.233-1.087-2.233-2.428-2.233c-1.34 0-2.427 1-2.427 2.232z" fill="#fff"/><path d="M399.934 289.218c0 1.233 1.087 2.233 2.427 2.233 1.342 0 2.43-1 2.43-2.232 0-1.232-1.088-2.232-2.43-2.232-1.34 0-2.426 1-2.426 2.232z" fill="#fff"/><path d="M393.888 290.716c0 1.233 1.087 2.233 2.427 2.233s2.428-1 2.428-2.234c0-1.232-1.087-2.232-2.428-2.232-1.34 0-2.427 1-2.427 2.232z" fill="#fff"/></g><path d="M478.35 549.21c0 9.785-7.932 17.717-17.717 17.717-9.785 0-17.717-7.932-17.717-17.717 0-9.785 7.932-17.717 17.717-17.717 9.785 0 17.717 7.932 17.717 17.717z" transform="matrix(.137 0 0 .126 268.555 252.621)" stroke="#000" stroke-width="1pt" fill="#fff"/><path d="M478.35 549.21c0 9.785-7.932 17.717-17.717 17.717-9.785 0-17.717-7.932-17.717-17.717 0-9.785 7.932-17.717 17.717-17.717 9.785 0 17.717 7.932 17.717 17.717z" transform="matrix(.137 0 0 .126 266.127 247.516)" stroke="#000" stroke-width="1pt" fill="#fff"/><path d="M478.35 549.21c0 9.785-7.932 17.717-17.717 17.717-9.785 0-17.717-7.932-17.717-17.717 0-9.785 7.932-17.717 17.717-17.717 9.785 0 17.717 7.932 17.717 17.717z" transform="matrix(.137 0 0 .126 264.863 242.316)" stroke="#000" stroke-width="1pt" fill="#fff"/><path d="M478.35 549.21c0 9.785-7.932 17.717-17.717 17.717-9.785 0-17.717-7.932-17.717-17.717 0-9.785 7.932-17.717 17.717-17.717 9.785 0 17.717 7.932 17.717 17.717z" transform="matrix(.137 0 0 .126 263.933 236.755)" stroke="#000" stroke-width="1pt" fill="#fff"/><path d="M478.35 549.21c0 9.785-7.932 17.717-17.717 17.717-9.785 0-17.717-7.932-17.717-17.717 0-9.785 7.932-17.717 17.717-17.717 9.785 0 17.717 7.932 17.717 17.717z" transform="matrix(.137 0 0 .126 264.165 230.726)" stroke="#000" stroke-width="1pt" fill="#fff"/><path d="M478.35 549.21c0 9.785-7.932 17.717-17.717 17.717-9.785 0-17.717-7.932-17.717-17.717 0-9.785 7.932-17.717 17.717-17.717 9.785 0 17.717 7.932 17.717 17.717z" transform="matrix(.137 0 0 .126 266.229 225.032)" stroke="#000" stroke-width="1pt" fill="#fff"/><path d="M478.35 549.21c0 9.785-7.932 17.717-17.717 17.717-9.785 0-17.717-7.932-17.717-17.717 0-9.785 7.932-17.717 17.717-17.717 9.785 0 17.717 7.932 17.717 17.717z" transform="matrix(.137 0 0 .126 270.647 220.542)" stroke="#000" stroke-width="1pt" fill="#fff"/><path d="M478.35 549.21c0 9.785-7.932 17.717-17.717 17.717-9.785 0-17.717-7.932-17.717-17.717 0-9.785 7.932-17.717 17.717-17.717 9.785 0 17.717 7.932 17.717 17.717z" transform="matrix(.137 0 0 .126 276.693 217.548)" stroke="#000" stroke-width="1pt" fill="#fff"/><path d="M478.35 549.21c0 9.785-7.932 17.717-17.717 17.717-9.785 0-17.717-7.932-17.717-17.717 0-9.785 7.932-17.717 17.717-17.717 9.785 0 17.717 7.932 17.717 17.717z" transform="matrix(.137 0 0 .126 282.74 217.12)" stroke="#000" stroke-width="1pt" fill="#fff"/><path d="M478.35 549.21c0 9.785-7.932 17.717-17.717 17.717-9.785 0-17.717-7.932-17.717-17.717 0-9.785 7.932-17.717 17.717-17.717 9.785 0 17.717 7.932 17.717 17.717z" transform="matrix(.137 0 0 .126 289.25 217.334)" stroke="#000" stroke-width="1pt" fill="#fff"/><path d="M478.35 549.21c0 9.785-7.932 17.717-17.717 17.717-9.785 0-17.717-7.932-17.717-17.717 0-9.785 7.932-17.717 17.717-17.717 9.785 0 17.717 7.932 17.717 17.717z" transform="matrix(.137 0 0 .126 295.762 218.189)" stroke="#000" stroke-width="1pt" fill="#fff"/><path d="M478.35 549.21c0 9.785-7.932 17.717-17.717 17.717-9.785 0-17.717-7.932-17.717-17.717 0-9.785 7.932-17.717 17.717-17.717 9.785 0 17.717 7.932 17.717 17.717z" transform="matrix(.137 0 0 .126 302.273 219.045)" stroke="#000" stroke-width="1pt" fill="#fff"/><path d="M478.35 549.21c0 9.785-7.932 17.717-17.717 17.717-9.785 0-17.717-7.932-17.717-17.717 0-9.785 7.932-17.717 17.717-17.717 9.785 0 17.717 7.932 17.717 17.717z" transform="matrix(.137 0 0 .126 309.249 220.114)" stroke="#000" stroke-width="1pt" fill="#fff"/><path d="M478.35 549.21c0 9.785-7.932 17.717-17.717 17.717-9.785 0-17.717-7.932-17.717-17.717 0-9.785 7.932-17.717 17.717-17.717 9.785 0 17.717 7.932 17.717 17.717z" transform="matrix(.137 0 0 .126 315.295 221.612)" stroke="#000" stroke-width="1pt" fill="#fff"/><path d="M478.35 549.21c0 9.785-7.932 17.717-17.717 17.717-9.785 0-17.717-7.932-17.717-17.717 0-9.785 7.932-17.717 17.717-17.717 9.785 0 17.717 7.932 17.717 17.717z" transform="matrix(.137 0 0 .126 272.043 257.113)" stroke="#000" stroke-width="1pt" fill="#fff"/><path d="M531.5 584.65s-67.982-52.097-69.813-177.17c-1.053-71.93 34.38-124.02 122.96-124.02 124.02 0 301.18 53.15 301.18 53.15v17.716s-141.73-53.15-301.18-53.15c-70.866 0-106.3 52.087-106.3 105.24 0 88.583 70.867 178.23 70.867 178.23v141.73h-17.717v-141.73z" transform="matrix(.137 0 0 .126 266.36 252.836)" stroke="#000" stroke-width="1pt" fill="#fff100"/><path d="M1240.2 531.5s15.35-35.433 70.86-35.433c37.79 0 70.87 35.433 70.87 70.866V637.8h35.43v-70.867c0-35.47 35.44-70.866 70.87-70.866 53.15 0 70.87 35.433 70.87 35.433s0-106.3-70.87-106.3c-53.15 0-70.87 35.433-70.87 35.433s17.72-53.15 17.72-106.3-35.43-88.583-35.43-88.583c0 6.79-35.44 35.433-35.44 88.583s17.72 106.3 17.72 106.3-17.72-35.433-70.87-35.433c-70.86 0-70.86 106.3-70.86 106.3z" transform="matrix(.046 0 0 .048 299.532 309.281)" stroke="#000" stroke-width="2.991" fill="#fff100"/><path d="M1240.2 531.5s15.35-35.433 70.86-35.433c37.79 0 70.87 35.433 70.87 70.866V637.8h35.43v-70.867c0-35.47 35.44-70.866 70.87-70.866 53.15 0 70.87 35.433 70.87 35.433s0-106.3-70.87-106.3c-53.15 0-70.87 35.433-70.87 35.433s17.72-53.15 17.72-106.3-35.43-88.583-35.43-88.583c0 6.79-35.44 35.433-35.44 88.583s17.72 106.3 17.72 106.3-17.72-35.433-70.87-35.433c-70.86 0-70.86 106.3-70.86 106.3z" transform="matrix(.046 0 0 .048 348.075 309.281)" stroke="#000" stroke-width="2.991" fill="#fff100"/><path d="M531.5 832.68V673.23s35.433 53.15 88.583 53.15c43.49 0 88.582-70.866 88.582-70.866s41.515 53.15 88.583 53.15c42.02 0 88.516-68.573 88.516-68.573s43.207 68.573 88.65 68.573c45.44 0 88.58-53.15 88.58-53.15s46.29 70.867 106.3 70.867c53.15 0 70.87-53.15 70.87-53.15v159.45h-708.66z" transform="matrix(.137 0 0 .126 266.36 252.836)" stroke="#000" stroke-width="1pt" fill="#fff100"/><path d="M708.66 832.68V708.66s106.3 35.433 106.3 124.02h-106.3z" transform="matrix(.137 0 0 .126 242.088 252.836)" stroke="#000" stroke-width="1pt" fill="#fff100"/><path d="M708.66 832.68V708.66s106.3 35.433 106.3 124.02h-106.3z" transform="matrix(-.137 0 0 .126 533.346 252.836)" stroke="#000" stroke-width="1pt" fill="#fff100"/><path d="M602.36 832.68c0-88.583 106.37-144.6 106.37-144.6s106.23 56.016 106.23 144.6h-212.6z" transform="matrix(.137 0 0 .126 266.36 252.836)" stroke="#000" stroke-width="1pt" fill="#fff100"/><path d="M602.36 832.68c0-88.583 106.37-144.6 106.37-144.6s106.23 56.016 106.23 144.6h-212.6z" transform="matrix(.137 0 0 .126 314.903 252.836)" stroke="#000" stroke-width="1pt" fill="#fff100"/><path d="M584.65 847.53c0-88.583 124.08-159.45 124.08-159.45s123.95 70.866 123.95 159.45H584.65z" transform="matrix(.137 0 0 .126 290.631 250.964)" stroke="#000" stroke-width="1pt" fill="#fff100"/><path d="M1275.6 655.51c-35.43-17.716-166.02-35.433-376.28-35.433s-350.1 17.717-385.53 35.433c-35.434 17.717-35.434 53.15 0 70.866 35.432 17.716 175.28 35.433 385.54 35.433s340.84-17.717 376.28-35.434c35.43-17.716 35.43-53.15 0-70.866z" transform="matrix(.135 0 0 .126 265.896 275.159)" stroke="#000" stroke-width="1pt" fill="#fff"/><path d="M1294.7 703.35c0 58.46-317.39 58.46-381.59 58.46-69.363 0-381.59 15.843-381.59-58.46 0-58.46 314.81-58.46 381.59-58.46 66.778 0 381.59 11.882 381.59 58.46z" transform="matrix(.127 0 0 .076 271.561 312.968)" stroke-width="1pt" fill="#808080"/><path d="M344.03 350.55c0 1.46-1.087 2.643-2.428 2.643-1.34 0-2.427-1.183-2.427-2.642s1.087-2.64 2.427-2.64 2.427 1.182 2.427 2.64z" fill="#c00"/><path d="M435.985 350.55c0 1.46-1.086 2.643-2.427 2.643-1.34 0-2.427-1.183-2.427-2.642s1.088-2.64 2.428-2.64c1.34 0 2.427 1.182 2.427 2.64z" fill="#c00"/><path d="M392.093 349.14c0 1.46-2.166 2.643-4.837 2.643-2.67 0-4.837-1.183-4.837-2.642s2.165-2.64 4.836-2.64c2.67 0 4.837 1.182 4.837 2.64z"/><path d="M415.476 349.14c0 1.46-1.626 2.643-3.632 2.643-2.006 0-3.632-1.183-3.632-2.642s1.626-2.64 3.632-2.64c2.006 0 3.632 1.182 3.632 2.64z" fill="#006300"/><path d="M365.64 349.14c0 1.46-1.625 2.643-3.63 2.643-2.007 0-3.633-1.183-3.633-2.642s1.626-2.64 3.632-2.64c2.005 0 3.63 1.182 3.63 2.64z" fill="#006300"/><path d="M1257.9 496.06s35.44-53.15 70.87-53.15h35.43v35.433c0 53.15-53.15 70.867-53.15 70.867h141.74s-53.15-17.717-53.15-70.867V442.91h35.43c35.43 0 70.87 53.15 70.87 53.15V354.33s-35.44 53.15-70.87 53.15h-35.43v-35.433c0-53.15 53.15-70.867 53.15-70.867h-141.74s53.15 17.717 53.15 70.867v35.433h-35.43c-35.43 0-70.87-53.15-70.87-53.15v141.73z" transform="matrix(.078 0 0 .072 279.539 298.119)" stroke="#000" stroke-width="2.188" fill="#fff100"/><path d="M1381.9 549.21h70.87s-53.15-17.716-53.15-70.866V442.91h35.43c35.43 0 70.87 53.15 70.87 53.15V354.33s-35.44 53.15-70.87 53.15h-35.43V372.05c0-53.15 53.15-70.867 53.15-70.867h-70.87v248.03z" transform="matrix(.039 0 0 .063 285.085 307.527)" stroke="#000" stroke-width="3.307" fill="#fff100"/><path d="M1381.9 549.21h70.87s-53.15-17.716-53.15-70.866V442.91h35.43c35.43 0 70.87 53.15 70.87 53.15V354.33s-35.44 53.15-70.87 53.15h-35.43V372.05c0-53.15 53.15-70.867 53.15-70.867h-70.87v248.03z" transform="matrix(-.039 0 0 .063 490.355 307.527)" stroke="#000" stroke-width="3.307" fill="#fff100"/><path d="M903.54 602.36c0 9.785-7.932 17.717-17.717 17.717-9.785 0-17.717-7.932-17.717-17.717 0-9.785 7.932-17.717 17.717-17.717 9.785 0 17.717 7.932 17.717 17.717z" transform="matrix(.137 0 0 .126 266.36 252.836)" stroke="#000" stroke-width="1pt" fill="#fff"/><path d="M1257.9 496.06s35.44-53.15 70.87-53.15h35.43v35.433c0 53.15-53.15 70.867-53.15 70.867h141.74s-53.15-17.717-53.15-70.867V442.91h35.43c35.43 0 70.87 53.15 70.87 53.15V354.33s-35.44 53.15-70.87 53.15h-35.43v-35.433c0-53.15 53.15-70.867 53.15-70.867h-141.74s53.15 17.717 53.15 70.867v35.433h-35.43c-35.43 0-70.87-53.15-70.87-53.15v141.73z" transform="matrix(.078 0 0 .072 279.54 251.242)" stroke="#000" stroke-width="2.188" fill="#fff100"/><path d="M903.54 602.36c0 9.785-7.932 17.717-17.717 17.717-9.785 0-17.717-7.932-17.717-17.717 0-9.785 7.932-17.717 17.717-17.717 9.785 0 17.717 7.932 17.717 17.717z" transform="matrix(.137 0 0 .126 266.592 206.332)" stroke="#000" stroke-width="1pt" fill="#fff"/><path stroke="#000" stroke-width="1pt" fill="#fff100" d="M850.39 655.51h70.866v53.15H850.39z" transform="matrix(.137 0 0 .126 266.36 208.19)"/><path stroke="#000" stroke-width="1pt" fill="#fff100" d="M850.39 683.3h70.866v202.53H850.39z" transform="matrix(.137 0 0 .126 266.36 208.19)"/><path d="M478.35 549.21c0 9.785-7.932 17.717-17.717 17.717-9.785 0-17.717-7.932-17.717-17.717 0-9.785 7.932-17.717 17.717-17.717 9.785 0 17.717 7.932 17.717 17.717z" transform="matrix(.137 0 0 .126 324.612 246.139)" stroke="#000" stroke-width="1pt" fill="#fff"/><path d="M478.35 549.21c0 9.785-7.932 17.717-17.717 17.717-9.785 0-17.717-7.932-17.717-17.717 0-9.785 7.932-17.717 17.717-17.717 9.785 0 17.717 7.932 17.717 17.717z" transform="matrix(.137 0 0 .126 324.612 240.364)" stroke="#000" stroke-width="1pt" fill="#fff"/><path d="M478.35 549.21c0 9.785-7.932 17.717-17.717 17.717-9.785 0-17.717-7.932-17.717-17.717 0-9.785 7.932-17.717 17.717-17.717 9.785 0 17.717 7.932 17.717 17.717z" transform="matrix(.137 0 0 .126 324.612 234.978)" stroke="#000" stroke-width="1pt" fill="#fff"/><path d="M478.35 549.21c0 9.785-7.932 17.717-17.717 17.717-9.785 0-17.717-7.932-17.717-17.717 0-9.785 7.932-17.717 17.717-17.717 9.785 0 17.717 7.932 17.717 17.717z" transform="matrix(.137 0 0 .126 324.612 229.417)" stroke="#000" stroke-width="1pt" fill="#fff"/><path d="M392.747 357.806c0 1.002-2.21 1.815-4.933 1.815-2.724 0-4.933-.812-4.933-1.814s2.21-1.815 4.934-1.815 4.933.814 4.933 1.816z"/><path d="M437.368 361.707c-.27.684-2.666.74-5.35.122-2.685-.617-4.642-1.672-4.372-2.356.27-.684 2.666-.74 5.35-.122 2.685.616 4.642 1.67 4.372 2.355z"/><path d="M417.765 359.204c-.112.883-2.443 1.437-5.207 1.24-2.764-.2-4.914-1.077-4.803-1.96.11-.883 2.442-1.438 5.206-1.24 2.766.2 4.916 1.077 4.805 1.96z"/><path d="M336.264 361.707c.27.684 2.666.74 5.35.122 2.685-.617 4.642-1.672 4.372-2.356-.27-.684-2.666-.74-5.35-.122-2.685.616-4.642 1.67-4.372 2.355z"/><path d="M356.8 358.777c.112.883 2.443 1.437 5.207 1.24 2.764-.2 4.914-1.077 4.803-1.96-.11-.883-2.442-1.438-5.206-1.24-2.765.2-4.915 1.077-4.804 1.96z"/></g></g></svg>