<svg xmlns="http://www.w3.org/2000/svg" height="480" width="640" version="1"><defs><clipPath id="a"><path fill-opacity=".67" d="M-85.333 0h682.67v512h-682.67z"/></clipPath></defs><g fill-rule="evenodd" clip-path="url(#a)" transform="matrix(.938 0 0 .938 80 0)"><path stroke-width="1pt" fill="#1b0073" d="M-128 0h768v512h-768z"/><path stroke-width="1pt" fill="#e60006" d="M-128 128h768v256h-768z"/><g stroke="#e60000" fill="#fff"><path stroke-width="1.032.17" d="M93.23 248.077h325.44V300.7H93.23z"/><path d="M220 280l-5 15h320l-5-15H220z" transform="matrix(1.052 0 0 .826 -138.284 69.534)" stroke-width="1.25"/><path d="M245 280l-5 15h60l-5-15h-50z" transform="matrix(1.276 0 0 .826 37.605 69.535)" stroke-width="1.123"/><path d="M245 280l-5 15h60l-5-15h-50z" transform="matrix(.642 0 0 .826 211.156 69.535)" stroke-width="1.52"/><path d="M245 280l-5 15h60l-5-15h-50z" transform="matrix(.415 0 0 .826 272.519 69.535)" stroke-width="2.024"/><path d="M245 280l-5 15h60l-5-15h-50z" transform="matrix(1.341 0 0 .826 -106.06 69.534)" stroke-width="1.098"/><path stroke-width=".979368pt" d="M91.424 247.27H420.56v12.384H91.425z"/><g><path stroke-width=".9215760000000001pt" d="M349.6 248.19h64.5v52.418h-64.5z"/><path stroke-width=".83076" d="M395.74 272.754h6.45v27.85h-6.45z"/><path stroke-width=".83076" d="M367.36 272.754h6.45v27.85h-6.45z"/></g><g><path d="M245 280l-5 15h60l-5-15h-50z" transform="matrix(.674 0 0 .826 73.89 69.534)" stroke-width="1.554"/><path d="M245 280l-5 15h60l-5-15h-50z" transform="matrix(.422 0 0 .826 141.899 69.534)" stroke-width="1.956"/><path stroke-width=".948408pt" d="M221.642 248.077h67.96V300.7h-67.96z"/><path stroke-width="1.032.04" d="M275.79 272.75h6.45v27.85h-6.45z"/><path stroke-width="1.032.04" d="M230.91 272.747h6.453v27.85h-6.454z"/><path stroke-width=".735816pt" d="M239.495 235.342h32.91v65.346h-32.91z"/><path stroke-width="1.032.04" d="M264.18 272.748h6.45v27.85h-6.45z"/><path stroke-width="1.032.04" d="M242.52 272.75h6.453v27.848h-6.454z"/><path d="M358.18 217.13l13.47 22.98 14.265-22.98H358.18z" transform="matrix(1.032 0 0 .874 -128 56.117)" stroke-width="1pt"/></g><path stroke-width="1.032.179" d="M375.193 248.077h18.284v65.005h-18.284z"/><path stroke-width="1.032.178" d="M378.237 248.077h12.177v65.005h-12.177z"/><g><path d="M245 280l-5 15h60l-5-15h-50z" transform="matrix(1.276 0 0 .826 -215.15 69.535)" stroke-width="1.123"/><path d="M245 280l-5 15h60l-5-15h-50z" transform="matrix(.6 0 0 .826 -34.237 69.535)" stroke-width="1.637"/><path d="M245 280l-5 15h60l-5-15h-50z" transform="matrix(.383 0 0 .826 24.282 69.535)" stroke-width="2.049"/><path stroke-width=".920544pt" d="M96.883 248.077h63.992V300.7H96.883z"/><path stroke-width=".83076" d="M109.36 272.756h6.45v27.85h-6.45z"/><path stroke-width=".83076" d="M139.03 272.757h6.45v27.85h-6.45z"/><path stroke-width="1.032.179" d="M118.823 248.077h18.284v65.005h-18.284z"/><path stroke-width="1.032.178" d="M121.858 248.077h12.176v65.005h-12.176z"/></g><path stroke-width=".989688pt" d="M87.77 235.68h336.445v12.383H87.77z"/><g><g><path stroke-width="1pt" d="M187.5 328.56h406.25v17.5H187.5z" transform="matrix(1.081 0 0 .91 -165.973 50.852)"/><path stroke-width=".898pt" d="M226.25 284.81h327.5v17.5h-327.5z" transform="matrix(1.081 0 0 .91 -165.973 50.852)"/><path stroke-width=".911pt" d="M221.25 288.56h337.5v17.5h-337.5z" transform="matrix(1.081 0 0 .91 -165.973 50.852)"/><path stroke-width="1pt" d="M187.5 328.56h406.25v17.5H187.5z" transform="matrix(1.081 0 0 .91 -165.973 50.852)"/><path stroke-width=".936pt" d="M212.5 298.56h356.25v17.5H212.5z" transform="matrix(1.081 0 0 .91 -165.973 50.852)"/><path stroke-width=".969pt" d="M200 311.06h381.25v17.5H200z" transform="matrix(1.081 0 0 .91 -165.973 50.852)"/></g><g><path stroke-width="1.03pt" d="M287.5 283.56h18.75v62.5H287.5z" transform="matrix(.975 0 0 .891 -161.519 57.151)"/><path stroke-width=".841pt" d="M290.62 283.56h12.5v62.5h-12.5z" transform="matrix(.975 0 0 .891 -161.519 57.151)"/></g><g><path stroke-width="1.03pt" d="M287.5 283.56h18.75v62.5H287.5z" transform="matrix(.975 0 0 .891 94.448 57.151)"/><path stroke-width=".841pt" d="M290.62 283.56h12.5v62.5h-12.5z" transform="matrix(.975 0 0 .891 94.448 57.151)"/></g></g><path stroke-width="1.032.201" d="M249.233 248.065h14.696v117.64h-14.697z"/><g><path d="M217.92 220.3l.184-36.915s3.362 7.236 29.512 8.82c24.75-.936 28.848-5.36 29.97-9.283l-1.026 37.515-58.64-.137z" transform="matrix(.974 0 0 .874 141.548 56.117)" stroke-width="1pt"/><g><path d="M330.92 208.56l-18.42-20.45c6.14-5.303 17.543 3.79 17.543 3.79s6.14-23.486 32.457-33.335c26.316 9.85 32.456 33.334 32.456 33.334s11.403-9.093 17.544-3.79l-18.422 20.455H330.92z" transform="matrix(.428 0 0 .31 228.622 146.256)" stroke-width="3.528"/><path d="M330.92 208.56l-18.42-20.45c6.14-5.303 17.543 3.79 17.543 3.79s6.14-23.486 32.457-33.335c26.316 9.85 32.456 33.334 32.456 33.334s11.403-9.093 17.544-3.79l-18.422 20.455H330.92z" transform="matrix(.556 0 0 .433 182.084 136.834)" stroke-width="2.615"/></g><g><path d="M0 280.52c.792 0 30.112 52.3 0 53.093-30.112.793 0-51.508 0-53.093z" transform="matrix(.408 0 0 .408 383.875 46.887)" stroke-width="3.383"/><path d="M330.92 208.56l-18.42-20.45c6.14-5.303 17.543 3.79 17.543 3.79s6.14-23.486 32.457-33.335c26.316 9.85 32.456 33.334 32.456 33.334s11.403-9.093 17.544-3.79l-18.422 20.455H330.92z" transform="matrix(.33 0 0 .163 264.623 154.578)" stroke-width="5.963"/><path d="M330.92 208.56l-.878-16.666s6.14-23.485 32.457-33.334c26.315 9.85 32.455 33.334 32.455 33.334l-.878 16.666H330.92z" transform="matrix(.168 0 0 .163 322.653 157.287)" stroke-width="8.321"/><path d="M330.92 208.56l-.878-16.666s6.14-23.485 32.457-33.334c26.315 9.85 32.455 33.334 32.455 33.334l-.878 16.666H330.92z" transform="matrix(.338 0 0 .217 261.4 154.114)" stroke-width="5.096"/><path d="M330.92 208.56l-.878-16.666s6.14-23.485 32.457-33.334c26.315 9.85 32.455 33.334 32.455 33.334l-.878 16.666H330.92z" transform="matrix(.338 0 0 .217 261.4 159.533)" stroke-width="5.096"/><path d="M330.92 208.56l-18.42-20.45c6.14-5.303 17.543 3.79 17.543 3.79s6.14-23.486 32.457-33.335c26.316 9.85 32.456 33.334 32.456 33.334s11.403-9.093 17.544-3.79l-18.422 20.455H330.92z" transform="matrix(.33 0 0 .433 264.623 130.583)" stroke-width="3.651"/><path d="M330.92 208.56l-18.42-20.45c6.14-5.303 17.543 3.79 17.543 3.79s6.14-23.486 32.457-33.335c26.316 9.85 32.456 33.334 32.456 33.334s11.403-9.093 17.544-3.79l-18.422 20.455H330.92z" transform="matrix(.33 0 0 .433 264.623 141.421)" stroke-width="3.651"/><path d="M330.92 208.56l-.878-16.666s6.14-23.485 32.457-33.334c26.315 9.85 32.455 33.334 32.455 33.334l-.878 16.666H330.92z" transform="matrix(.338 0 0 .542 261.4 135.073)" stroke-width="3.223"/><path d="M330.92 208.56l-18.42-20.45c6.14-5.303 17.543 3.79 17.543 3.79s6.14-23.486 32.457-33.335c26.316 9.85 32.456 33.334 32.456 33.334s11.403-9.093 17.544-3.79l-18.422 20.455H330.92z" transform="matrix(.33 0 0 .325 264.623 180.28)" stroke-width="4.216"/></g></g><g><g><path d="M330.92 208.56l-18.42-20.45c6.14-5.303 17.543 3.79 17.543 3.79s6.14-23.486 32.457-33.335c26.316 9.85 32.456 33.334 32.456 33.334s11.403-9.093 17.544-3.79l-18.422 20.455H330.92z" transform="matrix(.428 0 0 .31 -26.975 143.943)" stroke-width="3.528"/><path d="M330.92 208.56l-18.42-20.45c6.14-5.303 17.543 3.79 17.543 3.79s6.14-23.486 32.457-33.335c26.316 9.85 32.456 33.334 32.456 33.334s11.403-9.093 17.544-3.79l-18.422 20.455H330.92z" transform="matrix(.556 0 0 .433 -73.513 134.521)" stroke-width="2.615"/></g><path d="M217.92 220.3l.184-36.915s3.362 7.236 29.512 8.82c24.75-.936 28.848-5.36 29.97-9.283l-1.026 37.515-58.64-.137z" transform="matrix(.974 0 0 .874 -111.858 56.117)" stroke-width="1pt"/><g><path d="M0 280.52c.792 0 30.112 52.3 0 53.093-30.112.793 0-51.508 0-53.093z" transform="matrix(.408 0 0 .408 127.903 46.887)" stroke-width="3.383"/><path d="M330.92 208.56l-18.42-20.45c6.14-5.303 17.543 3.79 17.543 3.79s6.14-23.486 32.457-33.335c26.316 9.85 32.456 33.334 32.456 33.334s11.403-9.093 17.544-3.79l-18.422 20.455H330.92z" transform="matrix(.33 0 0 .163 8.651 154.578)" stroke-width="5.963"/><path d="M330.92 208.56l-.878-16.666s6.14-23.485 32.457-33.334c26.315 9.85 32.455 33.334 32.455 33.334l-.878 16.666H330.92z" transform="matrix(.168 0 0 .163 66.681 157.287)" stroke-width="8.321"/><path d="M330.92 208.56l-.878-16.666s6.14-23.485 32.457-33.334c26.315 9.85 32.455 33.334 32.455 33.334l-.878 16.666H330.92z" transform="matrix(.338 0 0 .217 5.428 154.114)" stroke-width="5.096"/><path d="M330.92 208.56l-.878-16.666s6.14-23.485 32.457-33.334c26.315 9.85 32.455 33.334 32.455 33.334l-.878 16.666H330.92z" transform="matrix(.338 0 0 .217 5.428 159.533)" stroke-width="5.096"/><path d="M330.92 208.56l-18.42-20.45c6.14-5.303 17.543 3.79 17.543 3.79s6.14-23.486 32.457-33.335c26.316 9.85 32.456 33.334 32.456 33.334s11.403-9.093 17.544-3.79l-18.422 20.455H330.92z" transform="matrix(.33 0 0 .433 8.651 130.583)" stroke-width="3.651"/><path d="M330.92 208.56l-18.42-20.45c6.14-5.303 17.543 3.79 17.543 3.79s6.14-23.486 32.457-33.335c26.316 9.85 32.456 33.334 32.456 33.334s11.403-9.093 17.544-3.79l-18.422 20.455H330.92z" transform="matrix(.33 0 0 .433 8.651 141.421)" stroke-width="3.651"/><path d="M330.92 208.56l-.878-16.666s6.14-23.485 32.457-33.334c26.315 9.85 32.455 33.334 32.455 33.334l-.878 16.666H330.92z" transform="matrix(.338 0 0 .542 5.428 135.073)" stroke-width="3.223"/><path d="M330.92 208.56l-18.42-20.45c6.14-5.303 17.543 3.79 17.543 3.79s6.14-23.486 32.457-33.335c26.316 9.85 32.456 33.334 32.456 33.334s11.403-9.093 17.544-3.79l-18.422 20.455H330.92z" transform="matrix(.33 0 0 .325 8.651 180.28)" stroke-width="4.216"/></g></g><g transform="matrix(1.032 0 0 1.032 -128 0)"><rect ry="6.449" height="12.898" width="85.039" y="226.28" x="329.53" stroke-width="1.226"/><path d="M353.24-212.6l1.093-56.693s-3.28 13.906-13.123 13.906H190.29c-9.843 0-13.124-13.906-13.124-13.906l1.093 56.693h174.98z" transform="matrix(.5 0 0 .75 239.17 393.31)" stroke-width="1.579"/><g><path d="M510.49 70.22l.41-25.61s23.557-2.998 20.288-9.332c-3.27-6.333-31.604 7.986-31.604 7.986h-113.34s-28.335-14.32-31.604-7.986c-3.27 6.334 20.288 9.332 20.288 9.332l.408 25.61h135.15z" transform="matrix(.4 0 0 .574 194.88 174.23)" stroke-width="2.4"/><path d="M510.49 70.22l.41-25.61s23.557-2.998 20.288-9.332c-3.27-6.333-31.604 7.986-31.604 7.986h-113.34s-28.335-14.32-31.604-7.986c-3.27 6.334 20.288 9.332 20.288 9.332l.408 25.61h135.15z" transform="matrix(.48 0 0 .574 159.45 186.23)" stroke-width="2.19"/><path d="M510.49 70.22l.41-25.61s23.557-3 20.288-9.332c-3.27-6.333-27.29-18.36-61.81-31.08-24.29-5.905 31.26-26.346-21.07-27.71-48.02.758-5.42 23.32-21.07 28.62-38.84 11.81-69.33 23.837-72.6 30.17-3.27 6.334 20.29 9.332 20.29 9.332l.408 25.61h135.15z" transform="matrix(.13 0 0 .261 314.17 134.08)" stroke-width="6.247"/><path d="M510.49 70.22l.41-25.61s23.557-2.998 20.288-9.332c-3.27-6.333-31.604 7.986-31.604 7.986h-113.34s-28.335-14.32-31.604-7.986c-3.27 6.334 20.288 9.332 20.288 9.332l.408 25.61h135.15z" transform="matrix(.283 0 0 .47 246.55 156.75)" stroke-width="3.152"/><path d="M510.49 70.22l.41-25.61s23.557-2.998 20.288-9.332c-3.27-6.333-31.604 7.986-31.604 7.986h-113.34s-28.335-14.32-31.604-7.986c-3.27 6.334 20.288 9.332 20.288 9.332l.408 25.61h135.15z" transform="matrix(.34 0 0 .47 221.46 166.57)" stroke-width="2.877"/><path d="M510.49 70.22l.41-25.61s23.557-2.998 20.288-9.332c-3.27-6.333-31.604 7.986-31.604 7.986h-113.34s-28.335-14.32-31.604-7.986c-3.27 6.334 20.288 9.332 20.288 9.332l.408 25.61h135.15z" transform="matrix(.183 0 0 .319 290.85 149.49)" stroke-width="4.755"/><path d="M510.49 70.22l.41-25.61s23.557-2.998 20.288-9.332c-3.27-6.333-31.604 7.986-31.604 7.986h-113.34s-28.335-14.32-31.604-7.986c-3.27 6.334 20.288 9.332 20.288 9.332l.408 25.61h135.15z" transform="matrix(.22 0 0 .319 274.61 156.16)" stroke-width="4.341"/><path d="M510.49 70.22l.41-25.61s23.557-2.998 20.288-9.332c-3.27-6.333-31.604 7.986-31.604 7.986h-113.34s-28.335-14.32-31.604-7.986c-3.27 6.334 20.288 9.332 20.288 9.332l.408 25.61h135.15z" transform="matrix(.13 0 0 .261 314.53 139.78)" stroke-width="6.247"/><path d="M510.49 70.22l.41-25.61s23.557-2.998 20.288-9.332c-3.27-6.333-31.604 7.986-31.604 7.986h-113.34s-28.335-14.32-31.604-7.986c-3.27 6.334 20.288 9.332 20.288 9.332l.408 25.61h135.15z" transform="matrix(.156 0 0 .261 303.03 145.24)" stroke-width="5.702"/></g><g><path d="M330.92 208.56l-18.42-20.45c6.14-5.303 17.543 3.79 17.543 3.79s6.14-23.486 32.457-33.335c26.316 9.85 32.456 33.334 32.456 33.334s11.403-9.093 17.544-3.79l-18.422 20.455H330.92z" transform="matrix(.177 0 0 .18 307.82 126.375)" stroke-width="5.444"/><path d="M330.92 208.56l-18.42-20.45c6.14-5.303 17.543 3.79 17.543 3.79s6.14-23.486 32.457-33.335c26.316 9.85 32.456 33.334 32.456 33.334s11.403-9.093 17.544-3.79l-18.422 20.455H330.92z" transform="matrix(.248 0 0 .18 282.14 132.377)" stroke-width="5.444"/><path d="M330.92 208.56l-18.42-20.45c6.14-5.303 17.543 3.79 17.543 3.79s6.14-23.486 32.457-33.335c26.316 9.85 32.456 33.334 32.456 33.334s11.403-9.093 17.544-3.79l-18.422 20.455H330.92z" transform="matrix(.283 0 0 .24 269.29 130.357)" stroke-width="4.41"/><path d="M330.92 208.56l-18.42-20.45c6.14-5.303 17.543 3.79 17.543 3.79s6.14-23.486 32.457-33.335c26.316 9.85 32.456 33.334 32.456 33.334s11.403-9.093 17.544-3.79l-18.422 20.455H330.92z" transform="matrix(.354 0 0 .3 243.6 130.738)" stroke-width="3.528"/><path d="M358.18 217.13l13.47 22.98 14.265-22.98H358.18z" transform="matrix(.923 0 0 .674 28.619 57.555)" stroke-width="1.458"/><path d="M330.92 208.56l-18.42-20.45c6.14-5.303 17.543 3.79 17.543 3.79s6.14-23.486 32.457-33.335c26.316 9.85 32.456 33.334 32.456 33.334s11.403-9.093 17.544-3.79l-18.422 20.455H330.92z" transform="matrix(.425 0 0 .335 217.91 135.911)" stroke-width="3.051"/><path d="M358.18 217.13l13.47 22.98 14.265-22.98H358.18z" transform="matrix(1 0 0 .847 0 37.08)" stroke-width="1.25"/><path d="M330.92 208.56l-18.42-20.45c6.14-5.303 17.543 3.79 17.543 3.79s6.14-23.486 32.457-33.335c26.316 9.85 32.456 33.334 32.456 33.334s11.403-9.093 17.544-3.79l-18.422 20.455H330.92z" transform="matrix(.461 0 0 .42 205.07 135.532)" stroke-width="2.615"/><path d="M330.92 208.56l-18.42-20.45c6.14-5.303 17.543 3.79 17.543 3.79s6.14-23.486 32.457-33.335c26.316 9.85 32.456 33.334 32.456 33.334s11.403-9.093 17.544-3.79l-18.422 20.455H330.92z" transform="matrix(.461 0 0 .42 205.07 152.815)" stroke-width="2.615"/></g></g><g stroke-width="1.04"><path d="M166.47 272.752h6.45v27.85h-6.45z"/><path d="M188.4 272.75h6.45v27.85h-6.45z"/><path d="M178.08 272.75h6.45v27.848h-6.45z"/><path d="M295.264 272.75h6.45v27.85h-6.45z"/><path d="M339.124 272.75h6.45v27.848h-6.45z"/><path d="M317.194 272.748h6.45v27.85h-6.45z"/><path d="M306.874 272.747h6.45v27.85h-6.45z"/><path d="M327.514 272.747h6.45v27.85h-6.45z"/><path d="M210.33 272.75h6.45v27.85h-6.45z"/><path d="M198.72 272.75h6.45v27.848h-6.45z"/></g></g></g></svg>