<svg xmlns="http://www.w3.org/2000/svg" height="480" width="640"><g fill-rule="evenodd"><path stroke-width="1pt" fill="#6fdcff" d="M0 0h640v480H0z"/><g fill="#ffe400"><path d="M60.235 466.995c3.252 3.184 2.182 8.54 11.225 7.85 13.806 0 14.204-8.445 14.204-14.343 0-5.888-20.57-14.124-21.518-22.79-.96-8.673 4.748-11.095 9.524-11.095 4.748 0 8.082 2.777 8.082 5.198s-2.374 3.122-5.708 3.122 1.427-1.733-1.427-3.122-4.762 2.078-4.762 4.166c0 2.078 7.136 2.767 11.897 1.21.96 4.678 1.428 5.033-5.242 12.998 4.776-3.12 5.23-3.81 10.485-2.077-5.243-4.51-1.318-13.695-1.14-16.034s-1-5.115-3.142-6.503c-3.815-3.466-12.145-3.622-17.14-1.388-7.273 3.246-7.63 12.82-5.722 15.95l20.16 20.67c1.427 2.432 1.92 9.186-6.642 9.53-9.044.69-12.145-11.64-13.75-15.742-2.155 4.48-4.557 16.838-13.6 16.15-8.577-.345-10.224-7.1-8.797-9.53l20.71-21.078c1.893-3.13 1.536-12.704-5.737-15.95-4.995-2.234-13.31-2.078-17.126 1.388-2.14 1.388-3.335 4.165-3.156 6.503s4.104 11.525-1.138 16.035c5.255-1.732 5.722-1.043 10.484 2.078-6.67-7.965-6.19-8.32-5.242-12.997 4.762 1.557 11.91.868 11.91-1.21 0-2.087-1.92-5.553-4.774-4.165-2.84 1.39 1.907 3.122-1.414 3.122-3.348 0-5.722-.7-5.722-3.122s3.334-5.198 8.096-5.198 10.47 2.422 9.51 11.096c-.947 8.665-22.053 18.123-22.053 24.01 0 5.898 1.47 13.122 15.274 13.122 9.045.69 10.115-4.666 13.395-7.85z"/><path d="M59.137 343.293c3.252-3.184 5.928-12.62 14.972-11.932 13.804 0 19.033 7.632 19.033 13.53 0 5.888-28.078 54.085-29.025 62.75-.96 8.674 4.75 11.096 9.524 11.096 4.748 0 8.083-2.777 8.083-5.2s-2.374-3.12-5.71-3.12 1.428 1.733-1.426 3.12-4.763-2.076-4.763-4.164c0-2.077 7.136-2.766 11.898-1.21.96-4.678 1.427-5.033-5.242-12.997 4.775 3.12 5.228 3.81 10.484 2.077-5.242 4.51-1.317 13.696-1.14 16.034s-1 5.115-3.14 6.504c-3.816 3.465-12.146 3.622-17.14 1.388-7.275-3.246-7.63-12.82-5.724-15.95l27.13-58.595c1.428-2.432-2.374-10.408-10.937-10.752-9.043-.688-12.145 8.79-13.75 12.893l12.323-.898s.48 1.9 0 3.132c-6.368.418-12.324 1.576-12.324 1.576l-.467 6.243h6.08l-.482 2.766s-5.132-.344-5.6 0c-.48.345-.96 6.253-.96 6.253s-.946.345-1.976.345c-1.042 0-1.99-.345-1.99-.345s-.48-5.908-.946-6.253c-.48-.344-5.613 0-5.613 0l-.467-2.766h6.08l-.48-6.243s-5.956-1.158-12.324-1.576c-.466-1.232 0-3.132 0-3.132l12.323.898c-1.605-4.102-4.707-13.58-13.736-12.892-8.578.345-12.38 8.32-10.952 10.753l27.144 58.594c1.894 3.132 1.537 12.705-5.736 15.95-4.995 2.235-13.312 2.078-17.127-1.387-2.14-1.39-3.335-4.165-3.157-6.504s4.103-11.524-1.14-16.034c5.257 1.733 5.724 1.044 10.485-2.077-6.67 7.964-6.19 8.32-5.242 12.996 4.762-1.554 11.912-.865 11.912 1.212 0 2.088-1.92 5.554-4.776 4.165-2.84-1.388 1.908-3.12-1.413-3.12-3.35 0-5.724.698-5.724 3.12s3.335 5.2 8.097 5.2 10.47-2.423 9.51-11.098c-.947-8.665-29.024-56.862-29.024-62.75 0-5.898 5.227-13.53 19.033-13.53 9.043-.688 12.254 8.75 15.534 11.933z"/><path d="M59.137 319.408c3.252 3.184 5.928 12.62 14.972 11.932 13.804 0 19.033-7.63 19.033-13.53 0-5.887-28.078-54.084-29.025-62.748-.96-8.675 4.75-11.097 9.524-11.097 4.748 0 8.083 2.777 8.083 5.2s-2.374 3.12-5.71 3.12 1.428-1.733-1.426-3.12-4.763 2.076-4.763 4.164c0 2.076 7.136 2.765 11.898 1.21.96 4.677 1.427 5.032-5.242 12.996 4.775-3.12 5.228-3.81 10.484-2.077-5.242-4.51-1.317-13.697-1.14-16.035s-1-5.115-3.14-6.504c-3.816-3.464-12.146-3.62-17.14-1.387-7.275 3.246-7.63 12.82-5.724 15.95l27.13 58.595c1.428 2.432-2.374 10.408-10.937 10.752-9.043.69-12.145-8.79-13.75-12.892l12.323.898s.48-1.9 0-3.132c-6.368-.418-12.324-1.576-12.324-1.576l-.467-6.243h6.08l-.482-2.766s-5.132.343-5.6 0c-.48-.346-.96-6.254-.96-6.254s-.946-.345-1.976-.345c-1.042 0-1.99.346-1.99.346s-.48 5.908-.946 6.253c-.48.343-5.613 0-5.613 0l-.467 2.765h6.08l-.48 6.243s-5.956 1.158-12.324 1.576c-.466 1.232 0 3.132 0 3.132l12.323-.898c-1.605 4.102-4.707 13.58-13.736 12.892-8.578-.344-12.38-8.32-10.952-10.752l27.144-58.594c1.894-3.132 1.537-12.705-5.736-15.95-4.995-2.235-13.312-2.078-17.127 1.387-2.14 1.39-3.335 4.166-3.157 6.505s4.103 11.524-1.14 16.034c5.257-1.734 5.724-1.045 10.485 2.076-6.67-7.964-6.19-8.32-5.242-12.996 4.762 1.555 11.912.866 11.912-1.21 0-2.09-1.92-5.555-4.776-4.166-2.84 1.388 1.908 3.12-1.413 3.12-3.35 0-5.724-.698-5.724-3.12s3.335-5.2 8.097-5.2 10.47 2.423 9.51 11.098c-.947 8.664-29.024 56.86-29.024 62.75 0 5.897 5.227 13.528 19.033 13.528 9.043.69 12.254-8.748 15.534-11.932z"/><path d="M59.137 160.61c3.252-3.184 5.928-12.62 14.972-11.932 13.804 0 19.033 7.63 19.033 13.53 0 5.887-28.078 54.084-29.025 62.748-.96 8.675 4.75 11.097 9.524 11.097 4.748 0 8.083-2.777 8.083-5.2s-2.374-3.12-5.71-3.12 1.428 1.733-1.426 3.12-4.763-2.076-4.763-4.164c0-2.078 7.136-2.767 11.898-1.212.96-4.677 1.427-5.032-5.242-12.996 4.775 3.12 5.228 3.81 10.484 2.077-5.242 4.51-1.317 13.695-1.14 16.033s-1 5.115-3.14 6.504c-3.816 3.465-12.146 3.622-17.14 1.388-7.275-3.246-7.63-12.82-5.724-15.95l27.13-58.595c1.428-2.432-2.374-10.408-10.937-10.752-9.043-.69-12.145 8.79-13.75 12.892l12.323-.898s.48 1.9 0 3.132c-6.368.418-12.324 1.576-12.324 1.576l-.467 6.243h6.08l-.482 2.766s-5.132-.345-5.6 0c-.48.344-.96 6.252-.96 6.252s-.946.345-1.976.345c-1.042 0-1.99-.345-1.99-.345s-.48-5.908-.946-6.253c-.48-.345-5.613 0-5.613 0l-.467-2.767h6.08l-.48-6.243s-5.956-1.158-12.324-1.576c-.466-1.232 0-3.132 0-3.132l12.323.898c-1.605-4.102-4.707-13.58-13.736-12.892-8.578.344-12.38 8.32-10.952 10.752l27.144 58.594c1.894 3.132 1.537 12.705-5.736 15.95-4.995 2.235-13.312 2.078-17.127-1.387-2.14-1.39-3.335-4.165-3.157-6.504s4.103-11.524-1.14-16.034c5.257 1.732 5.724 1.043 10.485-2.078-6.67 7.964-6.19 8.32-5.242 12.996 4.762-1.555 11.912-.866 11.912 1.21 0 2.09-1.92 5.555-4.776 4.166-2.84-1.388 1.908-3.12-1.413-3.12-3.35 0-5.724.698-5.724 3.12s3.335 5.2 8.097 5.2 10.47-2.423 9.51-11.098c-.947-8.664-29.024-56.86-29.024-62.75 0-5.897 5.227-13.528 19.033-13.528 9.043-.69 12.254 8.748 15.534 11.932z"/><path d="M59.137 136.726c3.252 3.184 5.928 12.62 14.972 11.932 13.804 0 19.033-7.63 19.033-13.53 0-5.887-28.078-54.084-29.025-62.748-.96-8.675 4.75-11.097 9.524-11.097 4.748 0 8.083 2.777 8.083 5.2s-2.374 3.12-5.71 3.12 1.428-1.733-1.426-3.12-4.763 2.076-4.763 4.164c0 2.077 7.136 2.766 11.898 1.21.96 4.678 1.427 5.033-5.242 12.997 4.775-3.12 5.228-3.81 10.484-2.077-5.242-4.51-1.317-13.696-1.14-16.034s-1-5.115-3.14-6.504c-3.816-3.466-12.146-3.623-17.14-1.39-7.275 3.247-7.63 12.82-5.724 15.952l27.13 58.594c1.428 2.432-2.374 10.408-10.937 10.752-9.043.69-12.145-8.79-13.75-12.892l12.323.898s.48-1.9 0-3.132c-6.368-.418-12.324-1.576-12.324-1.576l-.467-6.243h6.08l-.482-2.766s-5.132.344-5.6 0c-.48-.345-.96-6.253-.96-6.253s-.946-.345-1.976-.345c-1.042 0-1.99.344-1.99.344s-.48 5.908-.946 6.253c-.48.344-5.613 0-5.613 0l-.467 2.766h6.08l-.48 6.243s-5.956 1.158-12.324 1.576c-.466 1.232 0 3.132 0 3.132l12.323-.898c-1.605 4.102-4.707 13.58-13.736 12.892-8.578-.344-12.38-8.32-10.952-10.752l27.144-58.594c1.894-3.132 1.537-12.705-5.736-15.95-4.995-2.235-13.312-2.078-17.127 1.387-2.14 1.388-3.335 4.164-3.157 6.503s4.103 11.524-1.14 16.034c5.257-1.733 5.724-1.044 10.485 2.077-6.67-7.964-6.19-8.32-5.242-12.996 4.762 1.555 11.912.866 11.912-1.21 0-2.09-1.92-5.555-4.776-4.166-2.84 1.388 1.908 3.12-1.413 3.12-3.35 0-5.724-.698-5.724-3.12s3.335-5.2 8.097-5.2 10.47 2.423 9.51 11.098c-.947 8.664-29.024 56.86-29.024 62.75 0 5.897 5.227 13.528 19.033 13.528 9.043.69 12.254-8.748 15.534-11.932z"/><path d="M60.235 13.003c3.252-3.184 2.182-8.54 11.225-7.85 13.806 0 14.204 8.445 14.204 14.343 0 5.888-20.57 14.124-21.518 22.79-.96 8.673 4.748 11.095 9.524 11.095 4.748 0 8.082-2.776 8.082-5.197s-2.374-3.122-5.708-3.122 1.427 1.734-1.427 3.123-4.762-2.078-4.762-4.166c0-2.077 7.136-2.766 11.897-1.21.96-4.677 1.428-5.032-5.242-12.997 4.776 3.12 5.23 3.81 10.485 2.077-5.243 4.51-1.318 13.696-1.14 16.035s-1 5.115-3.142 6.503c-3.815 3.466-12.145 3.622-17.14 1.388-7.273-3.246-7.63-12.82-5.722-15.95l20.16-20.67c1.427-2.432 1.92-9.186-6.642-9.53-9.044-.69-12.145 11.64-13.75 15.742-2.155-4.48-4.557-16.838-13.6-16.15-8.577.345-10.224 7.1-8.797 9.53l20.71 21.078c1.893 3.13 1.536 12.704-5.737 15.95-4.995 2.234-13.31 2.078-17.126-1.388-2.14-1.388-3.335-4.165-3.156-6.503s4.104-11.525-1.138-16.035c5.255 1.733 5.722 1.044 10.484-2.077-6.67 7.965-6.19 8.32-5.242 12.997 4.762-1.556 11.91-.867 11.91 1.21 0 2.088-1.92 5.554-4.774 4.166-2.84-1.39 1.907-3.122-1.414-3.122-3.348 0-5.722.7-5.722 3.123s3.334 5.198 8.096 5.198 10.47-2.42 9.51-11.095c-.947-8.665-22.053-18.123-22.053-24.01 0-5.898 1.47-13.122 15.274-13.122 9.045-.69 10.115 4.666 13.395 7.85z"/></g><g fill="#ffe400" transform="matrix(1.067 0 0 1.067 -194.73 8.285)"><rect rx="85.12" ry="80.648" height="161.3" width="170.24" y="104.45" x="425.9" stroke-width="1pt"/><path d="M506.94 56.355c-.708-.007-4.534 26.842-6.013 32.876-1.325 13.43 18.07 12.94 14.897-.53l-8.88-32.345z" stroke-width=".25"/><path d="M513.77 316.21c.706.053 6.49-26.48 8.408-32.4 2.306-13.31-17.078-14.1-14.9-.45l6.492 32.85z" stroke-width=".25"/><path d="M378.17 184.61c-.06.67 27.915 6.277 34.156 8.123 14.037 2.25 14.962-16.113.547-14.115l-34.703 5.992z" stroke-width=".25"/><path d="M649.89 187.8c.03-.67-28.166-5.274-34.483-6.896-14.123-1.745-14.234 16.638.08 14.125l34.403-7.23z" stroke-width=".25"/><path d="M406.79 99.64c-.482.493 17.893 21.25 21.605 26.35 9.588 9.97 22.265-3.946 9.616-10.794l-31.22-15.56z" stroke-width=".25"/><path d="M617.95 270.64c.435-.53-19.772-19.698-23.937-24.472-10.465-9.145-21.82 5.76-8.59 11.543l32.528 12.93z" stroke-width=".25"/><path d="M448.97 70.62c-.644.28 7.966 26.113 9.34 32.17 4.84 12.685 22.167 4.414 13.24-6.493L448.97 70.62z" stroke-width=".25"/><path d="M571.98 302.96c.663-.237-6.032-26.575-6.96-32.708-3.897-12.973-21.79-5.862-13.682 5.606l20.642 27.1z" stroke-width=".25"/><path d="M602.16 88.602c-.51-.465-22.71 16.61-28.152 20.045-10.676 8.923 3.807 21.156 11.236 9.282L602.16 88.6z" stroke-width=".25"/><path d="M419.24 282.33c.476.497 23.874-15.076 29.553-18.145 11.304-8.2-2.247-21.355-10.528-10L419.24 282.33z" stroke-width=".25"/><path d="M384.15 138.16c-.29.612 24.124 14.715 29.362 18.422 12.45 6.543 19.765-10.482 5.47-13.14l-34.832-5.282z" stroke-width=".25"/><path d="M638.07 236.6c.335-.59-22.987-16.266-27.94-20.31-11.94-7.346-20.487 9.157-6.42 12.75l34.36 7.56z" stroke-width=".25"/><path d="M557.37 63.72c-.657-.252-14.57 23.415-18.275 28.52-6.412 12.042 11.83 18.3 14.072 4.662l4.204-33.183z" stroke-width=".25"/><path d="M463.52 307.97c.637.294 16.252-22.4 20.322-27.25 7.28-11.59-10.46-19.035-13.696-5.577l-6.626 32.826z" stroke-width=".25"/><path d="M386.04 238.68c.257.625 27.986-5.986 34.45-6.926 13.65-3.825 5.964-20.703-6.057-12.906L386.04 238.68z" stroke-width=".25"/><path d="M638.13 136.11c-.21-.64-28.357 4.13-34.873 4.643-13.9 2.917-7.468 20.26 5.096 13.273l29.777-17.916z" stroke-width=".25"/><path d="M534.62 58.12c-.692-.142-10.14 25.428-12.87 31.057-4.15 12.903 14.954 16.12 14.705 2.318L534.62 58.12z" stroke-width=".25"/><path d="M486.15 313.97c.68.187 11.98-24.7 15.115-30.136 5.085-12.6-13.736-17.064-14.5-3.28l-.615 33.416z" stroke-width=".25"/><path d="M476.38 60.64c-.692.143 1.918 27.12 1.9 33.316 1.88 13.37 20.668 8.783 14.395-3.675l-16.29-29.64z" stroke-width=".25"/><path d="M544.39 312.46c.7-.098.075-27.183.546-33.362-.895-13.462-19.974-10.12-14.628 2.72l14.082 30.64z" stroke-width=".25"/><path d="M428.16 83.092c-.58.384 12.765 24.345 15.26 30.07 7.154 11.66 22.642.59 11.8-8.63l-27.06-21.44z" stroke-width=".25"/><path d="M593.02 290.86c.607-.345-10.95-25.126-13.02-31.002-6.282-12.104-22.544-2.077-12.403 7.834l25.423 23.168z" stroke-width=".25"/><path d="M393 116.64c-.397.556 21.128 18.39 25.624 22.888 11.09 8.456 21.36-7.142 7.75-12.065L393 116.64z" stroke-width=".25"/><path d="M627.19 256.26c.436-.53-19.73-19.736-23.885-24.52-10.445-9.164-21.832 5.72-8.615 11.527l32.5 12.992z" stroke-width=".25"/><path d="M377.57 158.53c-.18.65 26.336 10.784 32.143 13.63 13.41 4.53 17.693-13.4 3.13-13.81l-35.273.18z" stroke-width=".25"/><path d="M645.04 216.35c.23-.635-25.482-12.49-31.067-15.712-13.045-5.4-18.632 12.204-4.135 13.57l35.202 2.143z" stroke-width=".25"/><path d="M376.7 209.96c.098.665 28.69.262 35.207.752 14.214-.753 10.823-18.853-2.767-13.88L376.7 209.96z" stroke-width=".25"/><path d="M646.91 164.97c-.05-.67-28.6-2.15-35.067-3.067-14.235-.184-12.178 18.095 1.743 14.027l33.324-10.96z" stroke-width=".25"/><path d="M401.18 263.43c.395.557 25.926-11.64 32.015-13.9 12.438-6.56 1.04-21.437-8.89-11.337L401.18 263.43z" stroke-width=".25"/><path d="M623.48 111.1c-.353-.582-26.717 9.907-32.956 11.76-12.89 5.726-2.61 21.317 8.037 11.895l24.92-23.654z" stroke-width=".25"/><path d="M442.83 298.77c.597.362 18.872-20.474 23.505-24.846 8.643-10.718-8.072-20.052-12.925-7.037l-10.58 31.883z" stroke-width=".25"/><path d="M582.54 75.063c-.57-.4-20.327 19.183-25.27 23.24-9.406 10.123 6.584 20.534 12.38 7.87l12.89-31.11z" stroke-width=".25"/><g transform="matrix(2.182 0 0 2.063 -405.01 -272.56)"><path d="M360.137 247.89c.625 2.5.78 16.56 14.844 30 14.063 13.436 37.97 16.405 37.97 16.405s.156 1.875-1.563 2.03c-1.72.158-9.844-1.56-13.906-2.81-4.062-1.25-7.655-3.44-8.124-3.282-.47.156-1.25 1.562-2.5 1.406s-7.03-6.25-9.53-7.814c-2.5-1.562-10.94-10.78-13.75-15.312-2.814-4.53-3.44-7.5-4.376-7.5-.938 0-4.22 2.187-4.22 2.187s-2.968-4.53-5.624-11.718c-2.656-7.187-2.344-11.406-1.72-11.718.626-.313.626 5.312 2.657 10.468 2.032 5.157 4.844 6.72 4.844 6.72s-1.875-2.657-3.28-9.376-1.876-13.125-.94-15.156c.94-2.03 1.876-2.656 2.033-2.5.156.156-1.72 3.125-.47 10.78s4.845 14.22 5.626 13.907c.78-.312-.47-1.875-1.094-6.406s.625-7.343 1.72-7.655c.468-.47 1.25 5 1.405 7.344z"/><path d="M350.292 260.7c-2.656-2.5-6.875-11.25-7.812-10.782-.938.47 6.875 12.97 7.03 14.063.157 1.094 1.876 4.532.626 4.063s-10.625-10.312-9.53-8.437 8.124 10.468 7.655 10.937-5.78-4.688-5.936-4.062c-.157.626 5.312 5.782 5.156 6.407s-3.438-3.28-3.438-2.5 3.438 4.687 3.438 5.312-2.97-2.813-2.03-.938c.936 1.875 3.592 3.594 3.436 4.22s-2.187-.783-2.187-.47c0 .312 3.905 1.72 4.842 2.812.938 1.094 7.344 8.438 12.188 12.188s18.594 10.156 19.53 10.156c.94 0 2.345-2.03 2.032-2.812-.312-.782-13.75-5.313-17.5-8.75-3.75-3.438-12.968-11.563-13.75-12.032-.78-.468-2.812-.312-2.812-.78s2.656.312 2.5 0c-.156-.313-3.75-1.876-3.594-2.188.156-.313 2.5.625 2.5.312 0-.312-4.22-2.656-4.062-3.125.156-.47 3.125 1.406 3.125 1.094 0-.313-4.064-3.125-3.908-3.594.157-.47 3.125 2.188 2.97 1.563s-2.345-3.907-2.345-4.375c0-.468 3.594 3.438 3.907 2.657.312-.78-1.25-7.188-1.094-7.344s2.645 1.422 3.114.484c.468-.937-1.837-2.24-4.052-4.078z"/><path d="M396.4 309.9c-1.893.25-2.747-.393-1.672-1.934 1.488-.11 5.45-1.38 6.85-1.96s2.893-1.416 4.136-2.534c1.24-1.22 1.903.782 1.282 1.82-.515.73-2.838 2.043-4.545 2.738-2.478.825-4.61 1.967-6.05 1.87z"/><path d="M408.887 304.77c-1.25-1.408-.156-2.345 1.72-3.44 2.81-1.56 2.03-3.592 5.624-5.31 1.564-.94 23.907-10 31.25-14.845s27.814-20.313 33.282-30.938c5.47-10.625 2.813-11.406 3.594-11.875.78-.468 1.563 1.563 1.406 3.907-.156 2.342-1.875 9.374-1.406 10s8.28-5.47 11.406-12.97 5.625-15.313 7.188-15.313c1.562 0-2.656 12.813-5.313 17.813-2.656 5-5.78 7.5-5 8.594.782 1.093 8.594-5.47 11.25-10.313 2.657-4.843 5.157-9.218 5.625-8.28.47.937-2.5 11.25-6.718 16.094-4.22 4.843-9.22 8.28-8.438 9.062.78.782 6.406 1.563 12.344-2.5 5.937-4.062 6.562-10 7.344-9.687.78.31-.782 8.436-6.407 13.436s-13.28 5.47-12.968 6.563c.31 1.093 16.25-4.532 15.936-3.282-.312 1.25-20.625 9.218-20.782 10 0 .625 3.44.78 8.907-.47 5.47-1.25 10.627-5.467 11.408-4.53.155 1.406-3.907 4.844-10.157 6.406-6.25 1.563-9.374 3.75-9.53 4.22-.156.467 11.094-1.408 11.094-.783s-14.688 3.44-14.844 4.22c-.156.782 14.062-2.812 13.75-2.03-.313.78-19.22 6.405-19.063 6.718.157.312 15.782-3.438 15.47-2.813-.313.625-26.407 7.97-26.563 8.438-.157.468 22.968-5.157 22.812-4.688s-12.03 3.437-12.03 3.75c0 .312 9.53-1.562 9.374-1.094-.156.47-24.063 6.564-24.532 7.5-.468.94 12.344-2.5 12.188-.78s-27.656 11.094-27.813 9.375c-.156-1.72 16.72-6.094 16.563-6.562-.156-.47-9.687 1.093-9.844.156-.156-.94 6.25-2.97 5.782-3.44-.47-.467-5.313 1.407-4.844.314.47-1.094 9.53-5.313 9.375-5.625-.156-.314-3.28 1.092-2.97 0 .314-1.095 19.688-6.72 19.376-7.345-.312-.625-8.905 1.406-9.686 1.562-.313-.624 12.03-5.156 11.718-5.937-.312-.78-6.562 2.656-6.874 1.72-.313-.94 10.78-5.314 10.156-5.94s-5.78 1.72-6.406 1.095 10.468-8.437 8.75-8.594c-1.72-.155-3.75 2.346-4.063.783.313-2.032 8.75-5.313 6.875-6.875-2.97-.938-13.125.625-17.344 3.125s-18.125 16.406-21.563 18.593c-3.437 2.188-15 7.032-17.187 7.97-3.438 1.25-4.063 3.124-7.5 4.843-6.25 1.718-6.25 3.593-9.22 4.686-1.092.313-12.342 5.78-12.5 5.313z"/><path d="M393.107 311.797c-1.875.938-3.593 3.438-2.5 4.375.625 1.25 2.5-2.656 4.062-2.5 1.562.156 3.75.157 7.968.47 4.22.312 6.406-.938 8.75-.782s7.657-1.25 10.157-1.25 2.968.312 3.28-.782c.313-1.093-7.812-.312-11.406-.468-3.594-.156-8.126.78-10.782.78-2.5-.155-6.875-.937-9.53.157z"/><rect rx="1.719" ry="1.484" height="2.969" width="3.438" y="309.14" x="401.7" stroke-width="1pt"/><path d="M445.02 307.73c1.718-.312 6.307 1.25 9.478 2.032 5.828 2.188 16.603 1.094 16.603 2.188s-.67 2.5-3.24 2.656-8.76-.937-8.588-.937 4.972 2.186 3.6 2.81-5.486-1.25-6.17-.78 3.77 1.406 3.085 1.72c-.686.31-3.782-.47-4.81-.313-1.03.155.867 1.25-.334 1.718-1.2.47-3.216-.624-4.073-.313-.857.314 1.845 2.032.645 2.188-1.2.156-4.09-.78-5.632-.937-1.543-.156 1.518 1.562.49 1.718-1.03.157-3.827-1.248-4.512-1.248s.055 1.874-.973 1.874c-1.03 0-2.24-1.562-2.753-1.562s.01 1.875-1.018 1.875-1.397-2.032-2.254-1.876c-1.014.157.025 2.656-1.346 2.5-1.37-.157-1.553-2.656-2.58-2.5-1.03.156.18 2.5-.848 2.5s-1.195-2.344-2.224-2.5c-1.028-.156-.52 2.187-1.205 2.187s-1.196-2.186-1.54-2.186c-.34 0-.003 2.187-1.204 2.03s-1.194-2.5-1.538-2.343c-.342.158-.348 1.72-1.204 1.72s-.853-1.562-1.195-1.406c-.345.156-1.55 2.187-2.406 1.875-.857-.314.206-1.876-.136-1.876-.343 0-1.406 1.093-2.092.937s.035-1.405-.137-1.405c-.172 0-1.75.78-2.436.78s-2.57 1.095-3.086.157c-.513-.937 1.342-.937 1.684-1.875.344-.937-.998-3.593.373-4.53 1.372-.938 5.658 1.25 12-.313 11.656-3.125 20.652-6.718 21.575-6.563z"/></g></g></g></svg>