<svg xmlns="http://www.w3.org/2000/svg" height="480" width="640"><defs><clipPath id="a"><path fill-opacity=".67" d="M-88 32h640v480H-88z"/></clipPath></defs><g fill-rule="evenodd" clip-path="url(#a)" transform="translate(88 -32)"><path fill="#199d00" d="M-128 32h720v480h-720z"/><path stroke-linejoin="round" d="M230.79 300.78c-11.285 7.857-23.09 14.804-34.377 22.66-14.142 1-27.856 1.144-42.426.43 0 0-30.427-5.142-38.14-18.427-.43-1.286 9.855-6 9.855-6 15.57 11 32.856 20.713 65.14 19.285-39.855-3.57-66.854-25.57-74.996-45.855 21.57-15.142 57.283-14.857 86.567 6-9.142-11.428-39.712-24.14-62.568-20.57-3.286-3.43-6.142-7.715-9.428-11.143 26.284-5.857 62.855 11 76.282 24.856-14.143-22.713-24.43-48.426-7.715-79.71 3.285 3.14 7 6.284 10.285 9.427-12.57 22.998-8 49.855 2.143 68.567-17.57-36.284-3.43-72.14 19.712-89.567 27 16.285 34.713 59.57 18.857 90.425 9-5.143 16.285-43.713 3.857-69.426l8.57-10.285c18.714 25.284 7.43 65.996-8.142 81.424 11.856-10.285 42.568-30.426 78.425-25.712-2.858 3.428-7.43 6.428-10.286 9.856-29.427-1.142-53.282 11.428-63.853 22.284 25.856-17.14 61.568-25.714 87.852-6.428-12.142 32.427-46.57 42.14-74.996 44.997 24.14 1.857 46.57-5.285 64.71-18l10.286 5.573c-7.714 7.285-18.856 14.57-34.712 16.713-15.285 2-29.713 1.43-44.997 1.715-11.856-7.714-24.05-15.376-35.906-23.09z" stroke-width="1pt" fill="#feffff"/><path d="M230.79 308.36l-29.394 22.12-78.787-.302c.967 3.175 3.98 7.232 5.756 9.09l78.182.305 24.243-18.788 23.334 18.484h79.09c2.274-2.425 4.698-5.76 6.82-8.637l-80.153.152-29.09-22.425z" stroke-width="1pt" fill="#fff"/><path stroke-linejoin="round" d="M185.64 384.34c22.627 11.168 70.708 10.252 92.425-.274l-92.425.274z" stroke-width=".952pt" fill="#fff"/><path stroke-linejoin="round" d="M133.6 346.85l194.31-.152c-3.384 3.84-7.374 7.98-11.516 11.515l-172.84-.757c-3.244-2.25-7.56-7.5-9.947-10.606z" stroke-width="1pt" fill="#fff"/><path stroke-linejoin="round" d="M146.95 360.79l166.87.456c-3.13 2.424-5.656 5.302-9.242 7.12l-148.33-.125c-3.424-1.84-6.937-4.966-9.29-7.45z" stroke-width="1pt" fill="#fff"/><path stroke-linejoin="round" d="M162.15 373.21l136.36-.333c-3.636 2.335-7.727 4.822-12.272 7.006h-111.82c-3.788-1.315-8.182-4.146-12.272-6.673z" stroke-width="1.049pt" fill="#fff"/><path stroke-width=".72pt" fill="#feb700" d="M303.113 180.31l-4.912-7.218-8.48 2.098 5.346-6.905-4.613-7.41 8.216 2.946 5.623-6.683-.263 8.73 8.09 3.283-8.38 2.447z"/><path stroke-width=".973pt" fill="#feb700" d="M241.467 170.03l-9.737-6.664-9.64 6.82 3.326-11.324-9.455-7.052 11.79-.34 3.785-11.183 3.97 11.114 11.8.147-9.34 7.208z"/><path stroke-width=".72pt" fill="#feb700" d="M343.992 228.156l-8.04-3.402-5.99 6.36.75-8.7-7.895-3.726 8.5-1.98 1.103-8.664 4.51 7.477 8.58-1.626-5.714 6.6z"/><path stroke-width=".72pt" fill="#feb700" d="M158.717 180.175l4.912-7.218 8.48 2.098-5.346-6.905 4.613-7.41-8.216 2.946-5.623-6.684.263 8.73-8.09 3.283 8.38 2.447z"/><path stroke-width=".72pt" fill="#feb700" d="M115.928 227.846l8.04-3.402 5.99 6.36-.75-8.7 7.895-3.726-8.5-1.98-1.103-8.664-4.51 7.477-8.58-1.626 5.714 6.6z"/></g></svg>