<svg xmlns="http://www.w3.org/2000/svg" height="480" width="640"><g><g fill-rule="evenodd"><path d="M1.644 0l-.5 480.187h639.94L1.64 0z"/><path d="M640.584 480.186L641.084 0H1.143L640.59 480.185z" fill="#f00"/></g><g><path d="M178 54l-3.84-.2c-1.18-2.78-4.513-3.823-6.563-2.653-1.86.16-11.6-.147-11.6-.147l7.12 3.12c1.76 4.76 7.88 5.88 7.88 5.88-.543 8.774-8.88-1.133-15.88 3.867-5 3-5.06 6.583-7.762 12.37-.84 1.61-4.36 5.762-4.36 5.762l5.88-.5-1.88 2.5 7-1s-.94.784-1.5 1.38c1.037.202 8-1.63 8-1.63l-.5 2.25c3.57-1.43 8-2.88 8-2.88s1.57 1.31 3 1.88l1-4 4 1 1-4c6 8 8 16 19 18l-1-4c3.06 1.31 8.74 4.09 8.74 4.09l.86-1.83c4.77 3.42 8.73 3.36 11.4 3.74 0 0-1.99-4.98-2-5 .13.05 1.99 1.01 2 1l-3-8 3 1-4-6 1.5-1-.5-3c6 2 14 5 15 12 1 11-11 14-19 13 6 5 17 3 22-2 2-2 3-5 4-8 1 3 3 7 3 11-1 9-13 12-21 13 9 5 25-1 26-14 0-11-7-16-10-21-.45-1.82-1-5.38-1-5.38.388.114 3 1.39 3 1.39s-1.77-3.31-2-4.01c0 0-3.12-8.5-4.25-10.38.186-.106 2.25.35 2.25.35l-8.19-10.27s1.976-.18 2.32-.24c0 0-9.52-7.51-12.13-8.46l3-1c-6-3-13-1-19 3l1-3-1.83.17v-3.43l1.83-2.74-3-1 2-5-3 1 1-5s-2.24 1.04-3.6.89c.05.11 1.59-3.42 1.59-3.42-.95-1.49.01-4.47.01-4.47-7 1-8 2-12 8-6 11-4 16-3 27z" stroke="#fc0" stroke-width="1.065" fill="#fc0" transform="matrix(2.22 0 0 2.213 1.134 0)"/><path d="M215.78 70.438c.52.86 6.197 3.594 10.468 6.016-1.146-4.61-9.48-5.625-10.468-6.016z" fill-rule="evenodd" stroke="#f00" stroke-width="1.065pt" fill="#f00" transform="matrix(2.22 0 0 2.213 1.134 0)"/><path fill-rule="evenodd" stroke-width="1pt" fill="#fff" d="M78.294 180.4l-6.36-4.06-8.537 4.09 1.893-7.3-6.526-6.86 7.53-.46 4.504-8.32 2.76 7.02 9.31 1.71-5.824 4.8z" transform="matrix(2.22 0 0 2.213 1.134 0)"/><path fill-rule="evenodd" stroke-width="1pt" fill="#fff" d="M94.617 144.71l-2.95-1.41-2.837 1.63.432-3.25-2.427-2.19 3.217-.59 1.336-2.99 1.557 2.88 3.253.35-2.255 2.37z" transform="matrix(2.22 0 0 2.213 1.134 0)"/><path fill-rule="evenodd" stroke-width="1pt" fill="#fff" d="M109 124.24l-6.47-3.16-6.272 3.54 1-7.13-5.308-4.87 7.093-1.25 2.987-6.55 3.39 6.36 7.15.82-5 5.18z" transform="matrix(2.22 0 0 2.213 1.134 0)"/><path fill-rule="evenodd" stroke-width="1pt" fill="#fff" d="M79.4 95.74l-7.62-3.82-7.467 4.114 1.277-8.428-6.22-5.83 8.41-1.39 3.624-7.717 3.92 7.57 8.46 1.06-5.988 6.068z" transform="matrix(2.22 0 0 2.213 1.134 0)"/><path fill-rule="evenodd" transform="matrix(2.22 0 0 2.213 3.592 0)" stroke-width="1pt" fill="#fff" d="M50.905 125.34l-7.686-4.56-7.666 4.66 1.965-8.72-6.808-5.84 8.9-.83 3.46-8.28 3.535 8.21 8.944.73-6.714 5.9z"/></g></g></svg>