<svg xmlns="http://www.w3.org/2000/svg" height="480" width="640"><g><g><g><g><g fill-rule="evenodd" stroke-width="1pt"><path fill="#0000bd" d="M0 .006h214.372v480.186H0z"/><path fill="#cc1900" d="M425.548.006H639.92v480.186H425.548z"/><path fill="#fff600" d="M214.372.006h211.176v480.186H214.372z"/></g></g></g></g><g><g stroke-width="1pt"><path d="M398.54 290.22c47.823.818 44.515-29.15 61.974-32.126 17.458-2.977 33.928 12.49 33.302 29.972 1.873 20.814-29.714 20.963-31.637 38.298-1.924 17.336 15.377 22.628 33.3 19.982s30.647-20.363 39.805-28.69c-13.32 7.494-24.218 4.78-25.21-8.557.673-17.498 18.103-23.848 26.345-17.96 6.476-5.3 6.09-7.424 13.21-6.247 4.827 2.944 6.142 2.86 8.998 7.418 3.717-2.354 5.27-3.54 12.204-.596 4.306 1.767 7.18 4.96 9.84 9.808 3.147-2.486 8.087-3.413 13.763-.197 3.61 1.837 8.108 7.182 8.72 12.995 8.45 1.696 11.38 3.654 14.034 7.953 15.764 21.775-2.436 58.473-1.433 77.205 1.004 18.73 16.65 19.98 16.65 19.98-14.716-9.42-.2-15.9 6.746-16.55 22.252 2.293 18.508 35.136-5.18 29.367-18.978-5.18 38.92 3.28 37.525 62.637-1.396 61.02-32.815 49.01-32.815 49.01s26.838 10.11 21.646 30.09c-5.192 13.507-32.934 22.456-30.58-3.448-8.24 11.186-10.607 15.913-10.58 32.916-1.147 21.713.657 31.63 6.846 42.3 1.48-9.934 8.206-10.36 13.952-9.1 8.1.085 12.607 6.443 9.563 14.685 4.08-1.035 7.802 1.757 9.403 5.12 1.255 6.207 4.037 8.957-2.44 11.312 6.477 1.178 9.61 2.024 10.378 11.05.18 7.26-12.595 11.245-26.135 8.89 7.065 3.533 29.983 50.025 26.922 103.44-2.12 47.905-86.038 43.64-123.53 42.305-37.488-1.332-72.512.775-87.133 13.052 11.247 7.182-1.302 29.542-10.864 19.064 0 8.242-9.45 20.98-22.497 12.718.534 14.885-14.238 25.328-27.12 25.328s-27.656-10.443-27.122-25.328c-13.047 8.26-22.496-4.476-22.496-12.718-9.562 10.478-22.11-11.882-10.864-19.064-14.62-12.277-49.645-14.384-87.133-13.052-37.49 1.334-121.41 5.6-123.53-42.305-3.06-53.418 23.7-99.91 30.764-103.44-13.54 2.355-26.315-1.63-26.135-8.89.767-9.026 3.9-9.872 10.377-11.05-6.476-2.355-3.694-5.105-2.44-11.31 1.602-3.365 5.324-6.157 9.403-5.122-3.044-8.242 1.462-14.6 9.563-14.684 5.746-1.26 12.472-.834 13.952 9.1 6.19-10.67 7.993-20.587 6.845-42.3.028-17.003-2.338-21.73-10.58-32.916 2.355 25.904-25.387 16.955-30.578 3.448-5.192-19.98 21.646-30.09 21.646-30.09s-31.42 12.01-32.815-49.01c-1.396-59.356 56.503-67.817 37.525-62.637-23.688 5.77-27.432-27.074-5.18-29.366 6.946.65 21.462 7.13 6.745 16.55 0 0 15.647-1.25 16.65-19.982 1.004-18.732-17.196-55.43-1.43-77.205 2.652-4.3 5.582-6.257 14.033-7.953.613-5.813 5.11-11.158 8.72-12.995 5.677-3.216 10.617-2.29 13.763.197 2.66-4.847 5.535-8.04 9.84-9.808 6.936-2.943 8.488-1.758 12.205.597 2.856-4.556 4.17-4.473 9-7.417 7.118-1.177 6.732.948 13.208 6.246 8.242-5.888 25.672.462 26.345 17.96-.99 13.335-11.888 16.05-25.21 8.557 9.16 8.326 21.88 26.043 39.805 28.69s35.225-2.647 33.302-19.983c-1.923-17.335-33.51-17.484-31.637-38.298-.626-17.483 15.844-32.95 33.302-29.972 17.46 2.977 14.15 32.944 62.182 32.126z" fill-rule="evenodd" transform="matrix(.558 0 0 .527 97.583 -66.346)" stroke="#000" fill="#cba323"/><path d="M356.44 346.62c-.575 17.96-31.258 14.828-51.514 13.86-26.326-1.232-77.59-46.08-44.263-69.89" transform="matrix(.558 0 0 .527 97.583 -66.346)" stroke="#000" fill="none"/><path d="M164.84 449.52c-16.484 17.662 28.69 13.497 9.42-9.42-7.87-8.82-41.21 18.84-41.21 49.453s10.596 44.742 16.483 45.92c5.887 1.177 15.307-3.533 15.307-8.242 0-5.886-4.71-15.306-11.774-14.13-11.775 0-5.888 10.598 0 10.598" transform="matrix(.558 0 0 .527 97.583 -66.346)" stroke="#000" fill="none"/><path d="M163.39 451.39s-24.453 9.908-24.453 39.343c0 29.436 7.065 28.26 7.065 28.26" transform="matrix(.558 0 0 .527 97.583 -66.346)" stroke="#000" fill="none"/><path d="M166.02 430.68s24.726-3.533 23.55 18.838c-1.18 22.37-9.42 23.55-22.372 22.37-12.952-1.176-5.887-16.482-5.887-16.482" transform="matrix(.558 0 0 .527 97.583 -66.346)" stroke="#000" fill="none"/><path d="M156.6 543.71s18.84-1.178 17.66-21.194c-1.176-20.016-15.305-21.194-23.547-20.016-8.242 1.177-10.74 5.803-8.242 12.88" transform="matrix(.558 0 0 .527 97.583 -66.346)" stroke="#000" fill="none"/><path d="M150.71 567.26s3.936-8.158 16.887-8.158c12.952 0 18.982 30.386 17.805 63.354-1.178 32.968-33.515 61.37-40.58 59.015-7.064-2.354-10.597-3.532-4.71-8.24" transform="matrix(.558 0 0 .527 97.583 -66.346)" stroke="#000" fill="none"/><path d="M172.39 643.31l-22.86 38.166" transform="matrix(.558 0 0 .527 97.583 -66.346)" stroke="#000" fill="none"/><path d="M141.29 667.34c0 .416 5.054-1.105 8.587 1.25 3.532 2.354 4.365 5.815 4.365 5.815" transform="matrix(.558 0 0 .527 97.009 -66.191)" stroke="#000" fill="none"/><path d="M144.82 650.86s4.517-1.82 10.404.536 5.695 7.662 5.695 7.662" transform="matrix(.509 0 0 .378 106.588 31.551)" stroke="#000" fill="none"/><path d="M171.78 731.95c12.25 6.364 24.282-25.18.67-26.726-16.887-.69-29.084 23.268-26.73 35.04 6.432 40.062 10.445 66.862 50.57 72.046 30.612 2.355 78.45-5.1 108.3-1.523 29.44 3.433 61.94 14.272 73.713 26.047 11.774 11.774 19.112 11.892 19.112 23.667 0 11.775-16.815 17.817-23.476 10.74" transform="matrix(.558 0 0 .527 96.98 -65.204)" stroke="#000" fill="none"/><path d="M369.84 876.92c4.305-2.914 14.556-20.425 4.722-30.815-15.194-15.4-26.165-21.48-33.658-23.977" transform="matrix(.558 0 0 .527 96.98 -65.204)" stroke="#000" fill="none"/><path d="M347.55 863.28c5.828-3.532 6.684-15.298.594-24.274-6.09-8.975-21.94-16.165-53.073-18.8-23.582-1.98-87.843 8.445-111.39 1.38-33.058-12.72-53.844-34.15-48.772-87.39 1.52-20.622 11.917-34.466 32.278-37.106 22.858-.143 28.813 14.734 28.813 33.57 0 9.682-25.318 18.88-29.91 9.706-7.11-12.854-10.217-24.45 15.88-30.607" transform="matrix(.558 0 0 .527 96.98 -65.204)" stroke="#000" fill="none"/><path d="M337.41 844.59s9.765 5.685 7.41 10.395c-2.354 4.71-8.658 2.7-4.496-2.296" transform="matrix(.558 0 0 .527 96.98 -65.204)" stroke="#000" fill="none"/><path d="M238.95 291.4s-6.66 6.66-3.33 22.48 9.99 14.986 9.99 14.986" transform="matrix(.558 0 0 .527 97.583 -66.346)" stroke="#000" fill="none"/><path d="M216.47 300.55c-.833 1.665-9.706 11.858-4.71 22.68 4.995 10.825 8.956 12.978 8.956 12.978" transform="matrix(.558 0 0 .527 97.583 -66.346)" stroke="#000" fill="none"/><path d="M193.99 313.87s-7.195 10.622-8.567 29.555 7.79 45 7.533 54.698c-.58 20.61-24.012 30.84-24.012 30.84" transform="matrix(.558 0 0 .527 97.583 -66.346)" stroke="#000" fill="none"/><path d="M159.85 543.66c1.665 0 34.135-29.972 34.135 76.597-2.498 61.61-38.298 67.438-38.298 67.438" transform="matrix(.558 0 0 .527 97.583 -66.346)" stroke="#000" fill="none"/><path d="M162.49 689.71c13.148-3.336 40.425 10.99 30.613 35.324" transform="matrix(.558 0 0 .527 98.529 -65.077)" stroke="#000" fill="none"/><path d="M167.78 681.47c8.44.785 15.32 6.904 18.458 15.343" transform="matrix(.558 0 0 .527 97.396 -66.007)" stroke="#000" fill="none"/><path d="M148.2 477.06s9.99 14.154 24.977 14.154 19.982-15.82 19.982-15.82" transform="matrix(.558 0 0 .527 97.583 -66.346)" stroke="#000" fill="none"/><path d="M146.53 484.55s9.158 16.652 24.977 17.484c15.82.833 21.647-10.823 21.647-10.823" transform="matrix(.558 0 0 .527 97.583 -66.346)" stroke="#000" fill="none"/><path d="M179.84 509.52s11.657 4.996 11.657 19.15c0 14.153-10.824 10.823-10.824 10.823" transform="matrix(.558 0 0 .527 97.583 -66.346)" stroke="#000" fill="none"/><path d="M356.44 346.62c-.575 17.96-31.258 14.828-51.514 13.86-26.326-1.232-77.59-46.08-44.263-69.89" transform="matrix(-.558 0 0 .527 542.381 -66.346)" stroke="#000" fill="none"/><path d="M164.84 449.52c-16.484 17.662 28.69 13.497 9.42-9.42-7.87-8.82-41.21 18.84-41.21 49.453s10.596 44.742 16.483 45.92c5.887 1.177 15.307-3.533 15.307-8.242 0-5.886-4.71-15.306-11.774-14.13-11.775 0-5.888 10.598 0 10.598" transform="matrix(-.558 0 0 .527 542.381 -66.346)" stroke="#000" fill="none"/><path d="M163.39 451.39s-24.453 9.908-24.453 39.343c0 29.436 7.065 28.26 7.065 28.26" transform="matrix(-.558 0 0 .527 542.381 -66.346)" stroke="#000" fill="none"/><path d="M166.02 430.68s24.726-3.533 23.55 18.838c-1.18 22.37-9.42 23.55-22.372 22.37-12.952-1.176-5.887-16.482-5.887-16.482" transform="matrix(-.558 0 0 .527 542.381 -66.346)" stroke="#000" fill="none"/><path d="M156.6 543.71s18.84-1.178 17.66-21.194c-1.176-20.016-15.305-21.194-23.547-20.016-8.242 1.177-10.74 5.803-8.242 12.88" transform="matrix(-.558 0 0 .527 542.381 -66.346)" stroke="#000" fill="none"/><path d="M150.71 567.26s3.936-8.158 16.887-8.158c12.952 0 18.982 30.386 17.805 63.354-1.178 32.968-33.515 61.37-40.58 59.015-7.064-2.354-10.597-3.532-4.71-8.24" transform="matrix(-.558 0 0 .527 542.381 -66.346)" stroke="#000" fill="none"/><path d="M172.39 643.31l-22.86 38.166" transform="matrix(-.558 0 0 .527 542.381 -66.346)" stroke="#000" fill="none"/><path d="M141.29 667.34c0 .416 5.054-1.105 8.587 1.25 3.532 2.354 4.365 5.815 4.365 5.815" transform="matrix(-.558 0 0 .527 542.954 -66.007)" stroke="#000" fill="none"/><path d="M144.82 650.86s4.517-1.82 10.404.536 5.695 7.662 5.695 7.662" transform="matrix(-.509 0 0 .378 533.375 31.551)" stroke="#000" fill="none"/><path d="M170.42 741.5c-2.354 0 15.45-19.877-.688-23.897-20.284-3.872-28.744 16.55-26.39 28.323 5.073 28.746 16.898 64.033 52.946 66.388 30.613 2.355 78.45-5.1 108.3-1.523 29.44 3.434 61.94 14.273 73.714 26.048 11.774 11.774 19.112 11.892 19.112 23.667 0 11.774-16.815 17.816-23.476 10.74" transform="matrix(-.558 0 0 .527 540.703 -65.204)" stroke="#000" fill="none"/><path d="M369.84 876.92c4.305-2.914 14.556-20.425 4.722-30.815-15.194-15.4-26.165-21.48-33.658-23.977" transform="matrix(-.558 0 0 .527 540.703 -65.204)" stroke="#000" fill="none"/><path d="M347.55 863.28c5.828-3.532 6.684-15.298.594-24.274-6.09-8.975-21.94-16.165-53.073-18.8-23.582-1.98-87.843 8.445-111.39 1.38-43.928-18.378-53.504-42.635-52.508-81.734 1.52-20.62 12.257-36.587 32.618-39.227 22.858-.143 26.774 11.906 26.774 30.744 0 9.68-9.013 25.715-21.334 23.36-12.322-3.187-21.92-25.012-1.106-36.668" transform="matrix(-.558 0 0 .527 540.703 -65.204)" stroke="#000" fill="none"/><path d="M337.41 844.59s9.765 5.685 7.41 10.395c-2.354 4.71-8.658 2.7-4.496-2.296" transform="matrix(-.558 0 0 .527 540.703 -65.204)" stroke="#000" fill="none"/><path d="M238.95 291.4s-6.66 6.66-3.33 22.48 9.99 14.986 9.99 14.986" transform="matrix(-.558 0 0 .527 542.381 -66.346)" stroke="#000" fill="none"/><path d="M216.47 300.55c-.833 1.665-9.706 11.858-4.71 22.68 4.995 10.825 8.956 12.978 8.956 12.978" transform="matrix(-.558 0 0 .527 542.381 -66.346)" stroke="#000" fill="none"/><path d="M193.99 313.87s-7.195 10.622-8.567 29.555 7.79 45 7.533 54.698c-.58 20.61-24.012 30.84-24.012 30.84" transform="matrix(-.558 0 0 .527 542.381 -66.346)" stroke="#000" fill="none"/><path d="M159.85 543.66c1.665 0 34.135-29.972 34.135 76.597-2.498 61.61-38.298 67.438-38.298 67.438" transform="matrix(-.558 0 0 .527 542.381 -66.346)" stroke="#000" fill="none"/><path d="M158.07 701.03c16.205-14.296 47.22 13.112 35.708 38.506" transform="matrix(-.558 0 0 .527 542.567 -68.799)" stroke="#000" fill="none"/><path d="M167.78 681.47c8.44.785 17.357 6.197 20.496 14.636" transform="matrix(-.558 0 0 .527 544.661 -64.696)" stroke="#000" fill="none"/><path d="M148.2 477.06s9.99 14.154 24.977 14.154 19.982-15.82 19.982-15.82" transform="matrix(-.558 0 0 .527 542.381 -66.346)" stroke="#000" fill="none"/><path d="M146.53 484.55s9.158 16.652 24.977 17.484c15.82.833 21.647-10.823 21.647-10.823" transform="matrix(-.558 0 0 .527 542.381 -66.346)" stroke="#000" fill="none"/><path d="M179.84 509.52s11.657 4.996 11.657 19.15c0 14.153-10.824 10.823-10.824 10.823" transform="matrix(-.558 0 0 .527 542.381 -66.346)" stroke="#000" fill="none"/><path d="M353.01 313.46c.416-.416-1.665-9.16 8.326-8.742 9.99.416 6.244 9.574 14.57 12.904 7.91 2.082 22.063 4.164 22.528 4.164s14.62-2.082 22.528-4.164c8.326-3.33 4.58-12.488 14.57-12.904 9.99-.417 7.91 8.326 8.326 8.742" transform="matrix(.558 0 0 .527 97.583 -66.346)" stroke="#000" fill="none"/><path d="M373.28 349.42c-.294-4.12-1.25-9.55-6.87-9.966-10.526-.345-18.857 20.605 4.443 20.753 17.055.11 17.198-32.355.804-32.83-23.55-.668-26.788 13.388-26.402 16.142 5.957-50.398-33.246-40.207-31.373-59.77.207-10.607 10.85-11.823 22.48-9.858 17.458 2.8 14.15 30.967 62.077 30.198 47.926.77 44.618-27.4 62.077-30.198 11.63-1.965 22.272-.75 22.48 9.857 1.872 19.563-37.33 9.372-31.374 59.77.386-2.755-2.853-16.81-26.402-16.144-16.393.476-16.25 32.942.805 32.83 23.3-.147 14.97-21.097 4.444-20.752-5.623.416-6.578 5.845-6.872 9.966" transform="matrix(.558 0 0 .527 97.583 -66.346)" stroke="#000" fill="none"/><path d="M409.366 354.764l.067.4-6.283 1.55-.066-.4.4-.1c.348-.085.616-.23.804-.434.136-.14.225-.34.268-.607.036-.19-.005-.653-.127-1.39l-1.595-9.664c-.124-.75-.235-1.213-.33-1.385-.097-.17-.256-.3-.48-.388-.22-.098-.496-.105-.833-.022l-.4.1-.065-.4 6.282-1.55.065.4-.4.097c-.347.086-.615.23-.804.436-.135.14-.227.343-.275.61-.037.19.006.653.128 1.39l1.594 9.664c.124.75.233 1.212.33 1.383.1.17.262.305.48.4.224.088.503.09.84.007l.4-.098z"/><path d="M399.715 342.905l.425 4.022-.323.052c-.29-.9-.572-1.53-.847-1.895-.278-.372-.632-.647-1.063-.824-.242-.094-.646-.096-1.214-.006l-.904.144L397 355.865c.08.76.163 1.23.25 1.408.09.18.244.327.456.44.217.108.5.133.847.078l.402-.063.043.406-6.364 1.01-.043-.405.403-.064c.352-.056.63-.178.828-.366.144-.127.248-.32.312-.584.047-.186.03-.65-.048-1.396l-1.214-11.467-.878.14c-.82.13-1.39.436-1.717.92-.458.673-.698 1.57-.72 2.688l-.34.054-.425-4.023 10.92-1.735z"/><path d="M354.964 348.56l.405 6.134.35-.035c.54-.054.976-.196 1.306-.43.328-.23.595-.593.798-1.086.21-.494.324-1.145.343-1.953l.316-.03.494 7.5-.315.032c-.207-1.404-.58-2.308-1.12-2.705-.536-.405-1.126-.576-1.767-.512l-.352.035.3 4.572c.052.763.115 1.237.194 1.42.085.185.23.34.44.468.213.12.492.162.833.128l.406-.04.027.408-6.39.63-.026-.407.405-.04c.355-.036.634-.14.84-.317.15-.12.26-.305.326-.564.055-.184.058-.65.01-1.398l-.65-9.827c-.05-.763-.115-1.237-.194-1.422-.08-.184-.223-.336-.437-.455-.208-.13-.484-.175-.827-.14l-.404.04-.027-.407 10.308-1.018.283 4.284-.368.037c-.15-.998-.417-1.723-.797-2.173-.375-.45-.896-.743-1.564-.875-.366-.076-1.037-.064-2.01.032l-1.136.112z"/><path d="M331.6 348.833v4.054h-.326c-.193-.935-.407-1.606-.642-2.01-.236-.413-.56-.74-.967-.985-.23-.132-.63-.198-1.204-.198h-.91v11.56c0 .765.032 1.244.098 1.435.072.19.208.36.407.508.204.14.482.21.832.21h.406v.41h-6.42v-.41h.408c.356 0 .643-.078.86-.232.157-.104.28-.28.37-.53.067-.178.1-.642.1-1.392v-11.56h-.886c-.825 0-1.426.214-1.8.642-.524.596-.855 1.446-.994 2.55h-.343v-4.053H331.6z"/><path d="M318.924 363.41v.41h-6.41v-.41h.407c.357 0 .642-.076.86-.23.156-.104.278-.28.36-.53.067-.178.1-.642.1-1.393V351.4c0-.766-.033-1.245-.1-1.438-.065-.19-.2-.356-.405-.496-.2-.15-.47-.222-.814-.222h-.405v-.408h6.41v.408h-.408c-.355 0-.642.077-.858.232-.158.103-.282.28-.373.53-.066.177-.098.643-.098 1.393v9.857c0 .766.03 1.245.097 1.436.073.192.21.362.408.51.205.14.48.208.822.208h.407z"/><path d="M302.81 348.833l6.048 9.292v-6.443c0-.897-.107-1.505-.318-1.822-.288-.428-.774-.633-1.455-.62v-.407h4.05v.407c-.518.08-.867.188-1.05.32-.173.127-.312.336-.414.63-.096.29-.144.785-.144 1.492v12.478h-.307l-8.292-12.478v9.526c0 .862.16 1.445.48 1.747.324.302.696.453 1.11.453h.29v.41h-4.348v-.41c.676-.008 1.145-.178 1.41-.508.265-.332.398-.896.398-1.692v-10.574l-.262-.398c-.26-.398-.488-.66-.687-.785-.2-.125-.487-.195-.86-.21v-.407h4.35z"/><path d="M297.493 348.312l-.013.407c-.45.065-.856.337-1.22.812-.266.357-.67 1.203-1.217 2.54l-4.6 11.232-.296-.014-3.8-12.118c-.46-1.46-.77-2.32-.937-2.58-.16-.258-.476-.432-.95-.524l.013-.407 5.87.294-.013.408-.2-.01c-.53-.027-.893.036-1.09.19-.143.103-.218.262-.225.475-.004.132.013.29.057.478.04.18.187.67.438 1.472l2.36 7.586 2.643-6.518c.315-.79.51-1.317.585-1.585.076-.27.117-.5.124-.69.007-.223-.034-.42-.126-.594-.09-.175-.227-.31-.41-.408-.255-.137-.597-.22-1.024-.24l.014-.407 4.017.202z"/><path d="M275.793 346.11l-.143 4.995-.37-.027c-.114-1.263-.495-2.298-1.143-3.105-.644-.814-1.36-1.25-2.156-1.31-.61-.044-1.11.124-1.49.503-.375.37-.574.818-.6 1.34-.016.33.033.63.146.896.158.358.42.72.79 1.088.27.263.9.74 1.894 1.432 1.39.964 2.316 1.848 2.777 2.65.457.8.66 1.693.613 2.68-.06 1.25-.514 2.298-1.358 3.145-.838.84-1.87 1.214-3.098 1.124-.385-.027-.747-.1-1.085-.22-.34-.122-.76-.332-1.265-.635-.282-.168-.516-.26-.702-.273-.157-.01-.325.05-.507.185-.182.134-.333.348-.458.643l-.332-.024.276-5.65.332.025c.188 1.607.637 2.86 1.35 3.752.716.887 1.51 1.36 2.382 1.424.674.05 1.22-.136 1.64-.555.424-.418.652-.927.68-1.522.018-.354-.044-.7-.183-1.043-.135-.343-.35-.672-.65-.99-.298-.323-.832-.753-1.604-1.29-1.08-.75-1.853-1.377-2.316-1.883-.466-.506-.816-1.06-1.052-1.66-.23-.6-.328-1.25-.294-1.95.058-1.19.466-2.18 1.223-2.966s1.68-1.14 2.77-1.06c.396.028.778.115 1.145.26.28.11.614.3 1.004.57.398.266.678.405.84.417.157.01.283-.038.378-.15.097-.11.195-.39.294-.83l.27.018z"/><path d="M267.183 345.947l-.04.404c-.45.026-.87.26-1.266.7-.286.332-.742 1.14-1.368 2.42l-5.28 10.782-.296-.042-3.044-12.432c-.366-1.5-.625-2.386-.774-2.66-.144-.27-.45-.474-.916-.61l.04-.403 5.834.83-.038.405-.198-.028c-.527-.075-.893-.046-1.1.088-.148.09-.233.242-.253.454-.013.13-.003.292.027.483.03.183.147.685.347 1.508l1.886 7.78 3.035-6.257c.364-.758.593-1.267.685-1.527.09-.26.146-.487.164-.677.02-.22-.01-.42-.09-.603-.08-.182-.207-.33-.384-.444-.246-.16-.58-.273-1.006-.333l.04-.405 3.993.57z"/><path d="M254.03 344.76l-.474 4.013-.322-.057c-.082-.96-.215-1.662-.4-2.103-.184-.45-.465-.83-.842-1.144-.21-.172-.6-.308-1.167-.408l-.903-.16-1.355 11.442c-.09.758-.114 1.238-.07 1.438.05.203.163.395.343.576.187.174.452.29.8.353l.402.073-.048.405-6.353-1.128.05-.405.4.07c.354.064.645.038.88-.077.165-.076.31-.227.427-.46.087-.164.175-.617.263-1.36l1.354-11.443-.878-.156c-.817-.146-1.434-.04-1.856.318-.59.498-1.015 1.282-1.282 2.352l-.34-.06.475-4.015 10.898 1.934z"/><path d="M224.63 353.636l-.08.398-6.227-1.845.08-.398.394.117c.345.1.64.108.88.02.17-.055.322-.19.453-.41.097-.154.22-.595.364-1.325l1.897-9.58c.148-.745.208-1.22.182-1.426-.028-.205-.128-.406-.3-.6-.165-.203-.415-.352-.748-.45l-.395-.118.077-.396 6.227 1.844-.08.396-.394-.117c-.345-.103-.64-.11-.878-.022-.173.055-.327.192-.463.41-.1.152-.22.594-.366 1.324l-1.897 9.58c-.148.745-.207 1.22-.18 1.425.033.207.132.41.297.612.173.193.426.34.76.44l.395.116z"/><path d="M219.83 338.002l-.085.394c-.45-.053-.896.106-1.337.473-.322.278-.866.998-1.633 2.16l-6.47 9.76-.288-.093-1.583-12.83c-.19-1.548-.342-2.47-.46-2.766-.11-.292-.39-.546-.837-.76l.085-.394 5.683 1.83-.085.393-.192-.063c-.513-.165-.88-.2-1.1-.102-.157.064-.258.2-.303.405-.027.128-.036.29-.028.483.01.186.066.704.17 1.552l.972 8.027 3.726-5.67c.448-.687.73-1.152.852-1.394.12-.244.2-.458.24-.642.047-.215.04-.418-.017-.613-.056-.194-.167-.362-.33-.506-.224-.2-.543-.37-.956-.503l.084-.394 3.892 1.252z"/><path d="M414.595 339.627c1.926-.395 3.572.047 4.935 1.324 1.37 1.277 2.17 3.018 2.403 5.226.2 1.886-.077 3.617-.826 5.192-.996 2.09-2.583 3.31-4.764 3.656-2.188.347-3.975-.292-5.362-1.915-1.096-1.282-1.747-2.906-1.955-4.872-.234-2.208.184-4.143 1.254-5.806 1.075-1.672 2.513-2.608 4.315-2.805zm.18.685c-1.11.176-1.882 1.005-2.315 2.487-.352 1.213-.414 2.888-.188 5.023.268 2.535.83 4.352 1.688 5.448.598.77 1.355 1.08 2.268.935.617-.098 1.11-.363 1.484-.793.477-.552.808-1.36.992-2.43.183-1.08.188-2.443.013-4.095-.208-1.965-.513-3.41-.914-4.335-.402-.932-.858-1.563-1.367-1.89-.503-.33-1.055-.446-1.66-.35z"/><path d="M368.228 346.17c1.94-.28 3.567.26 4.878 1.614 1.317 1.356 2.047 3.142 2.194 5.36.125 1.895-.218 3.607-1.03 5.135-1.077 2.028-2.71 3.15-4.903 3.368-2.2.217-3.96-.527-5.28-2.23-1.045-1.344-1.632-3.004-1.763-4.98-.146-2.22.347-4.126 1.482-5.723 1.14-1.606 2.614-2.455 4.422-2.545zm.154.694c-1.116.11-1.92.892-2.412 2.347-.398 1.192-.528 2.86-.386 5.006.168 2.547.66 4.395 1.472 5.54.567.804 1.31 1.158 2.23 1.067.618-.06 1.123-.296 1.512-.704.498-.523.86-1.312 1.087-2.37.227-1.065.284-2.427.175-4.087-.13-1.974-.377-3.435-.743-4.383-.365-.953-.795-1.61-1.29-1.967-.49-.36-1.037-.51-1.645-.45z"/><path d="M380.62 353.47l.44 4.165c.087.804.18 1.307.28 1.506.105.192.265.334.48.427.218.09.604.092 1.16.004l.042.407-6.22.988-.044-.406c.562-.09.935-.212 1.12-.367.188-.165.31-.356.366-.572.063-.216.05-.728-.034-1.532l-1.02-9.647c-.086-.804-.18-1.3-.287-1.49-.1-.202-.257-.348-.474-.44s-.604-.094-1.16-.006l-.042-.404 5.647-.897c1.47-.233 2.56-.28 3.268-.14.707.14 1.31.513 1.814 1.116.5.597.797 1.345.892 2.243.115 1.096-.112 2.053-.68 2.872-.365.518-.906.95-1.623 1.294l3.455 4.568c.452.59.767.95.945 1.087.268.187.566.266.89.237l.044.406-3.827.608-4.635-6.153-.797.127zm-.77-7.29l.688 6.512.51-.082c.832-.132 1.444-.322 1.836-.57.393-.255.68-.643.862-1.163.188-.526.24-1.182.157-1.964-.12-1.133-.427-1.935-.92-2.406-.487-.473-1.212-.634-2.175-.48l-.96.152z"/><path d="M427.517 344.977l.855 4.067c.165.786.307 1.27.426 1.453.123.174.297.29.52.35.226.06.61.002 1.15-.168l.084.395-6.074 1.91-.084-.395c.55-.173.907-.35 1.074-.53.17-.193.273-.4.307-.623.04-.225-.023-.73-.188-1.517l-1.98-9.42c-.165-.785-.31-1.264-.433-1.438-.12-.184-.29-.306-.514-.364s-.608-.003-1.15.167l-.083-.394 5.514-1.734c1.437-.452 2.513-.662 3.228-.628.718.034 1.355.313 1.912.836.558.518.928 1.216 1.112 2.093.225 1.07.096 2.054-.387 2.952-.31.568-.803 1.077-1.48 1.526l3.887 4.017c.507.516.855.83 1.046.937.286.146.59.18.91.102l.082.396-3.738 1.176-5.217-5.412-.778.245zm-1.496-7.12l1.337 6.36.5-.157c.81-.255 1.398-.535 1.762-.84.364-.312.61-.74.738-1.283.133-.55.12-1.208-.04-1.972-.234-1.107-.618-1.857-1.155-2.25-.532-.396-1.267-.448-2.206-.152l-.936.294z"/><path d="M233.027 349.062l-.518 4.15c-.102.803-.127 1.318-.075 1.543.058.22.18.41.367.572.187.16.558.293 1.113.396l-.05.405-6.203-1.155.05-.405c.56.104.946.113 1.158.027.22-.095.38-.237.484-.425.108-.188.213-.684.314-1.486l1.2-9.616c.1-.802.12-1.31.064-1.53-.05-.227-.17-.42-.358-.582-.186-.16-.558-.295-1.11-.398l.05-.403 5.63 1.05c1.465.272 2.522.595 3.17.97s1.145.936 1.49 1.685c.345.744.463 1.563.35 2.46-.136 1.09-.57 1.934-1.303 2.53-.467.373-1.084.606-1.85.694l2.285 5.56c.3.717.522 1.173.662 1.363.217.27.484.447.803.53l-.05.404-3.816-.71-3.06-7.48-.797-.148zm.908-7.268l-.81 6.492.51.095c.827.155 1.457.18 1.892.073.434-.112.797-.388 1.09-.826.3-.442.498-1.054.595-1.834.14-1.13.027-2.004-.34-2.624-.36-.62-1.02-1.02-1.98-1.198l-.957-.178z"/><path d="M339.27 359.923l-4.323.224-.464 1.486c-.153.493-.223.9-.212 1.216.016.42.164.72.448.906.167.11.57.177 1.21.202l.014.41-4.072.21-.014-.41c.437-.102.79-.342 1.06-.716.27-.385.594-1.157.97-2.32l3.968-12.177.17-.01 4.84 12.053c.462 1.14.832 1.856 1.114 2.144.213.217.505.336.88.352l.014.41-5.922.307-.015-.408.244-.013c.474-.025.805-.124.992-.296.13-.124.19-.297.182-.517-.005-.134-.028-.27-.07-.407-.013-.065-.112-.337-.298-.815l-.715-1.832zm-.334-.8l-2-5.065-1.7 5.257 3.7-.193z"/></g><g fill-rule="evenodd"><path fill="#fff600" d="M324.996 226.932h98.86v93.37h-98.86z"/><path fill="#cc1900" d="M339.12 133.564h14.12v93.368h-14.12z"/><path fill="#cc1900" d="M367.365 133.564h14.122v93.368h-14.122z"/><path fill="#cc1900" d="M395.61 133.564h14.123v93.368H395.61z"/><path fill="#fff600" d="M324.996 133.564h14.122v93.368h-14.122z"/><path fill="#fff600" d="M353.242 133.564h14.122v93.368h-14.122z"/><path fill="#fff600" d="M381.488 133.564h14.122v93.368h-14.122z"/><path fill="#fff600" d="M409.734 133.564h14.122v93.368h-14.122z"/><path fill="#cc1900" d="M249.203 236.27h10.984v84.03h-10.984z"/><path fill="#cc1900" d="M271.17 236.27h10.985v84.03H271.17z"/><path fill="#cc1900" d="M293.14 236.27h10.984v84.03H293.14z"/><path fill="#fff600" d="M238.22 236.27h10.985v84.03H238.22z"/><path fill="#fff600" d="M260.19 236.27h10.984v84.03H260.19z"/><path fill="#fff600" d="M282.158 236.27h10.984v84.03h-10.984z"/><path fill="#fff600" d="M304.127 236.27h10.984v84.03h-10.983z"/><path fill="#cc1900" d="M227.234 236.27h10.984v84.03h-10.984z"/><path fill="#fff600" d="M216.253 236.27h10.984v84.03h-10.984z"/><path fill="#cc1900" d="M216.253 133.564h98.86v93.368h-98.86z"/><path d="M274.92 206.71c8.913-4.302 8.55-19.09 8.55-31.313 0-24.45-19.844-44.292-44.293-44.292s-44.29 17.488-44.29 41.937l-17.718 11.213h26.52l-26.52 17.717H212.6l-248.03 318.9 17.717 17.717 248.03-318.9c6.548-8.42 0-17.717-9.16-24.794-10.804-8.35-8.558-10.64-8.558-21.58 0-15.935 11.906-24.493 26.575-24.493s26.575 11.905 26.575 26.575c0 7.335-1.502 16.184-7.787 18.788-9.93 7.787 7.787 25.503 16.955 12.525z" transform="matrix(.215 .027 -.025 .182 252.395 115.97)" stroke-width="1pt" fill="#fff600"/><path d="M194.88 361.42v336.61c0 35.434 16.978 53.15 50.934 53.15h118.85c33.957 0 33.957 35.433 33.957 35.433s0-35.433 33.957-35.433h118.85c33.957 0 50.935-17.716 50.935-53.15V361.42h-407.48zm17.716 17.717v177.16h177.17v-177.16h-177.17zm194.88 0v177.16h177.17v-177.16h-177.17zm-194.88 194.88v106.3c0 35.434 16.978 53.15 50.934 53.15H389.76v-159.45H212.6zm372.05 0v106.3c0 35.434-16.977 53.15-50.934 53.15H407.482v-159.45h177.16z" stroke="#000" stroke-width="1pt" fill="#cba323" transform="matrix(.558 0 0 .527 97.583 -66.346)"/><path d="M265.677 142.804l-19.77 19.994 6.082 35.99h27.375l6.084-35.99-19.773-19.994z" fill="#fff"/><path d="M264.052 150.41l-15.192 14.943 6.077 29.885h9.115v-44.826zm3.038 0v44.826h9.116l6.076-29.885-15.192-14.942z" fill="#fff600"/><path d="M270.624 198.862h-4.942s2.47 7.725 4.942 7.725c9.886 0 29.708-11.266 29.658-7.725 0 7.725-4.943 3.863-4.943 7.725 0 3.862 9.885 0 9.885-3.862 0-3.863 0-7.725-4.943-7.725s-19.315 7.776-24.715 7.725c-4.943 0-4.943-3.863-4.943-3.863z" fill="#fffbff"/><path d="M260.737 198.862h4.942s-2.472 7.725-4.943 7.725c-9.886 0-29.708-11.266-29.658-7.725 0 7.725 4.942 3.863 4.942 7.725 0 3.862-9.886 0-9.886-3.862 0-3.863 0-7.725 4.943-7.725 4.942 0 19.314 7.776 24.714 7.725 4.943 0 4.943-3.863 4.943-3.863z" fill="#fffbff"/><g><g><path d="M70.866 574.02c0 35.433 28.704 36.668 17.717 53.15L53.15 680.32H35.434l17.716-53.15c5.905-17.717 17.716-65.374 17.716-53.15z" transform="matrix(.207 .036 -.045 .166 400.081 155.73)" stroke="#fff600" stroke-width="5" fill="#cc1900"/><path d="M35.433 423.42c0 3.667 2.242 31.888 0 35.067-2.242 3.18-8.97-18.684-12.977-16.28-4.008 2.406-7.603 24.16-12.902 25.505-5.298 1.35-12.3-17.71-18.412-17.71-6.112 0-11.937 19.062-17.235 17.717-5.298-1.347-10.07-23.1-14.08-25.505-4.007-2.405-10.734 19.458-12.976 16.28-2.24-3.18 0-31.4 0-35.068 0-14.67 19.843-26.575 44.292-26.575s44.29 11.906 44.29 26.575z" transform="matrix(.166 0 0 .085 389.932 223.962)" stroke="#fff600" stroke-width="7.99" fill="#cc1900"/><path d="M-70.866 423.42c0 14.67-12.827 26.575-17.717 26.575-4.89 0 0-11.906 0-26.575s-4.89-26.575 0-26.575 17.717 11.906 17.717 26.575z" transform="matrix(.151 -.067 .148 .069 301.834 205.273)" stroke-width="1pt" fill="#008d00"/><path d="M-70.866 414.57v53.15h53.15v-17.717H-53.15V414.57h-17.715z" transform="matrix(.113 .144 -.179 .091 442.731 228.423)" stroke="#fff600" stroke-width="5" fill="#cc1900"/><path d="M70.866 574.02c0 35.433 28.704 36.668 17.717 53.15L53.15 680.32H35.434l17.716-53.15c5.905-17.717-17.716-35.434-70.866 0-12.224 0-70.866-8.964-70.866 0v53.15h-17.716v-53.15c0-6.942-35.433-53.15-35.433-70.867 0-12.224-53.15 0-53.15-17.716 0-8.86 35.432-17.717 35.432-35.433 0-17.717 35.433 0 53.15 0 0 17.716-17.717 35.433 17.716 35.433 24.45 0 177.17 0 177.17 17.716 0 17.717-17.717 5.493-17.717 17.717z" stroke="#fff600" stroke-width="5" fill="#cc1900" transform="matrix(.212 0 0 .17 384.707 155.743)"/><path d="M363.447 271.384c2.04-.015 2.77 1.5 2.418 2.08-.352.583-1.655.013-3.694.028s-4.045.608-3.693.027 2.93-2.122 4.97-2.136z" stroke-width=".139pt" fill="#008d00"/><path d="M393.494 271.384c2.04-.015 2.77 1.5 2.418 2.08-.352.583-1.655.013-3.694.028s-4.046.608-3.694.027 2.93-2.122 4.97-2.136z" stroke-width=".139pt" fill="#008d00"/><path d="M-70.866 423.42c0 14.67-12.827 26.575-17.717 26.575-4.89 0 0-11.906 0-26.575s-4.89-26.575 0-26.575 17.717 11.906 17.717 26.575z" transform="matrix(-.028 -.131 .113 -.065 308.985 285.555)" stroke-width="1pt" fill="#008d00"/><path d="M378.91 268.92c2.04-.06 2.823 1.445 2.49 2.037-.332.59-1.654.047-3.693.106s-4.027.698-3.694.106 2.86-2.192 4.898-2.25z" stroke-width=".139pt" fill="#008d00"/><path fill="#008d00" d="M353.4 250.88l8.928-5.475 2.285 2.39-8.93 5.476z"/><path d="M356.98 254.814c0 .822-.512 1.488-1.144 1.488s-1.142-.666-1.142-1.488.51-1.488 1.142-1.488 1.143.666 1.143 1.488z" fill="#008d00"/></g><path d="M47.995 681.85c34.086.02 34.086 12.9 19.835 12.9-19.835 0-67.83 4.38-67.83 3.28 0-1.102-16.484-14.202-16.484-14.202-1.232-3.513 1.177 14.128-1.232 14.203-2.41.075-16.43-15.38-16.43-15.38s1.288 15.232 0 15.307c-1.287.074-17.66-9.42-17.66-9.42l-1.178 8.242-15.306 9.42 15.306 10.596v8.242l15.306-8.242 1.178 15.306 18.84-15.306s4.763 16.3 2.353 16.484c-2.41.185 16.484-16.484 16.484-16.484-1.178-1.05 54.051 0 87.405-1.05 33.355-1.048 32.747-51.937 17.717-53.15-15.033-1.213-58.306 3.33-58.306-.203" transform="matrix(.11 0 0 .127 390.686 165.076)" stroke="#fff600" stroke-width="5.055" fill="#cc1900"/></g><g><g><path d="M70.866 574.02c0 35.433 28.704 36.668 17.717 53.15L53.15 680.32H35.434l17.716-53.15c5.905-17.717 17.716-65.374 17.716-53.15z" transform="matrix(.207 .036 -.045 .166 400.081 193.079)" stroke="#fff600" stroke-width="5" fill="#cc1900"/><path d="M35.433 423.42c0 3.667 2.242 31.888 0 35.067-2.242 3.18-8.97-18.684-12.977-16.28-4.008 2.406-7.603 24.16-12.902 25.505-5.298 1.35-12.3-17.71-18.412-17.71-6.112 0-11.937 19.062-17.235 17.717-5.298-1.347-10.07-23.1-14.08-25.505-4.007-2.405-10.734 19.458-12.976 16.28-2.24-3.18 0-31.4 0-35.068 0-14.67 19.843-26.575 44.292-26.575s44.29 11.906 44.29 26.575z" transform="matrix(.166 0 0 .085 389.932 261.311)" stroke="#fff600" stroke-width="7.99" fill="#cc1900"/><path d="M-70.866 423.42c0 14.67-12.827 26.575-17.717 26.575-4.89 0 0-11.906 0-26.575s-4.89-26.575 0-26.575 17.717 11.906 17.717 26.575z" transform="matrix(.151 -.067 .148 .069 301.834 242.622)" stroke-width="1pt" fill="#008d00"/><path d="M-70.866 414.57v53.15h53.15v-17.717H-53.15V414.57h-17.715z" transform="matrix(.113 .144 -.179 .091 442.731 265.772)" stroke="#fff600" stroke-width="5" fill="#cc1900"/><path d="M70.866 574.02c0 35.433 28.704 36.668 17.717 53.15L53.15 680.32H35.434l17.716-53.15c5.905-17.717-17.716-35.434-70.866 0-12.224 0-70.866-8.964-70.866 0v53.15h-17.716v-53.15c0-6.942-35.433-53.15-35.433-70.867 0-12.224-53.15 0-53.15-17.716 0-8.86 35.432-17.717 35.432-35.433 0-17.717 35.433 0 53.15 0 0 17.716-17.717 35.433 17.716 35.433 24.45 0 177.17 0 177.17 17.716 0 17.717-17.717 5.493-17.717 17.717z" stroke="#fff600" stroke-width="5" fill="#cc1900" transform="matrix(.212 0 0 .17 384.707 193.092)"/><path d="M363.447 308.733c2.04-.015 2.77 1.5 2.418 2.08-.352.583-1.655.013-3.694.028s-4.045.61-3.693.028 2.93-2.12 4.97-2.135z" stroke-width=".139pt" fill="#008d00"/><path d="M393.494 308.733c2.04-.015 2.77 1.5 2.418 2.08-.352.583-1.655.013-3.694.028s-4.046.61-3.694.028 2.93-2.12 4.97-2.135z" stroke-width=".139pt" fill="#008d00"/><path d="M-70.866 423.42c0 14.67-12.827 26.575-17.717 26.575-4.89 0 0-11.906 0-26.575s-4.89-26.575 0-26.575 17.717 11.906 17.717 26.575z" transform="matrix(-.028 -.131 .113 -.065 308.985 322.904)" stroke-width="1pt" fill="#008d00"/><path d="M378.91 306.268c2.04-.06 2.823 1.446 2.49 2.038-.332.59-1.654.047-3.693.106s-4.027.698-3.694.106 2.86-2.19 4.898-2.25z" stroke-width=".139pt" fill="#008d00"/><path fill="#008d00" d="M353.4 288.228l8.928-5.474 2.285 2.39-8.93 5.476z"/><path d="M356.98 292.163c0 .822-.512 1.488-1.144 1.488s-1.142-.665-1.142-1.487.51-1.488 1.142-1.488 1.143.666 1.143 1.488z" fill="#008d00"/></g><path d="M47.995 681.85c34.086.02 34.086 12.9 19.835 12.9-19.835 0-67.83 4.38-67.83 3.28 0-1.102-16.484-14.202-16.484-14.202-1.232-3.513 1.177 14.128-1.232 14.203-2.41.075-16.43-15.38-16.43-15.38s1.288 15.232 0 15.307c-1.287.074-17.66-9.42-17.66-9.42l-1.178 8.242-15.306 9.42 15.306 10.596v8.242l15.306-8.242 1.178 15.306 18.84-15.306s4.763 16.3 2.353 16.484c-2.41.185 16.484-16.484 16.484-16.484-1.178-1.05 54.051 0 87.405-1.05 33.355-1.048 32.747-51.937 17.717-53.15-15.033-1.213-58.306 3.33-58.306-.203" transform="matrix(.11 0 0 .127 390.686 202.425)" stroke="#fff600" stroke-width="5.055" fill="#cc1900"/></g></g></g></g></svg>