<svg xmlns="http://www.w3.org/2000/svg" height="480" width="640" version="1"><g stroke-width="1pt"><path fill-rule="evenodd" fill="#229e45" d="M0 0h640v480H0z"/><g><path d="M321.406 435.935l301.483-195.67-303.308-196.2L17.11 240.734l304.296 195.2z" fill-rule="evenodd" fill="#f8e509"/><path d="M452.73 239.952c0 70.314-57.1 127.314-127.533 127.314-70.436 0-127.534-57-127.534-127.314s57.1-127.313 127.534-127.313c70.436 0 127.534 57 127.534 127.312z" fill-rule="evenodd" fill="#2b49a3"/><path fill="#ffffef" fill-rule="evenodd" d="M283.236 316.306l-3.94-2.274-4.092 2.025.916-4.55-3.16-3.333 4.52-.53 2.12-4.08 1.895 4.22 4.46.81-3.345 3.132z"/><path fill="#ffffef" fill-rule="evenodd" d="M368.708 337.95l-3.94-2.274-4.092 2.025.916-4.548-3.16-3.334 4.52-.53 2.12-4.08 1.895 4.22 4.46.81-3.345 3.132z"/><path fill="#ffffef" fill-rule="evenodd" d="M331.842 303.378l-3.403-1.965-3.536 1.75.792-3.93-2.73-2.88 3.904-.458 1.833-3.526 1.636 3.646 3.85.7-2.89 2.705z"/><path fill="#ffffef" fill-rule="evenodd" d="M418.152 290.885l-3.34-1.928-3.47 1.717.776-3.857-2.68-2.827 3.832-.45 1.8-3.46 1.606 3.58 3.78.686-2.835 2.656z"/><path fill="#ffffef" fill-rule="evenodd" d="M330.307 265.064l-3.94-2.274-4.092 2.025.916-4.55-3.16-3.333 4.52-.53 2.122-4.08 1.894 4.22 4.46.81-3.345 3.132z"/><path fill="#ffffef" fill-rule="evenodd" d="M225.066 225.553l-3.94-2.274-4.092 2.024.916-4.55-3.16-3.333 4.52-.53 2.12-4.08 1.895 4.22 4.46.81-3.345 3.133z"/><path fill="#ffffef" fill-rule="evenodd" d="M237.722 278.112l-3.94-2.274-4.092 2.025.916-4.55-3.16-3.333 4.52-.53 2.12-4.08 1.895 4.22 4.46.81-3.344 3.132z"/><path fill="#ffffef" fill-rule="evenodd" d="M369.088 206.173l-3.48-2.01-3.615 1.79.81-4.018-2.793-2.945 3.993-.468 1.875-3.604 1.673 3.728 3.94.715-2.955 2.767z"/><path fill="#ffffef" fill-rule="evenodd" d="M362.003 240.396l-2.743-1.583-2.848 1.41.637-3.166-2.2-2.32 3.146-.368 1.477-2.84 1.318 2.937 3.105.563-2.328 2.18z"/><path fill="#ffffef" fill-rule="evenodd" d="M219.34 287.607l-2.63-1.518-2.734 1.35.612-3.036-2.112-2.226 3.02-.353 1.417-2.724 1.265 2.818 2.978.54-2.233 2.092z"/><path fill="#ffffef" fill-rule="evenodd" d="M419.002 299.708l-2.144-1.136-2.227 1.012.5-2.272-1.72-1.665 2.46-.265 1.154-2.037 1.03 2.107 2.427.405-1.82 1.564z"/><path fill="#ffffef" fill-rule="evenodd" d="M219.34 287.607l-2.63-1.518-2.734 1.35.612-3.036-2.112-2.226 3.02-.353 1.417-2.724 1.265 2.818 2.978.54-2.233 2.092z"/><path fill="#ffffef" fill-rule="evenodd" d="M219.34 287.607l-2.63-1.518-2.734 1.35.612-3.036-2.112-2.226 3.02-.353 1.417-2.724 1.265 2.818 2.978.54-2.233 2.092z"/><path fill="#ffffef" fill-rule="evenodd" d="M261.222 287.597l-2.632-1.518-2.733 1.35.612-3.036-2.113-2.226 3.02-.353 1.417-2.724 1.265 2.818 2.977.54-2.233 2.092z"/><path fill="#ffffef" fill-rule="evenodd" d="M256.018 301.53l-2.632-1.52-2.733 1.353.612-3.037-2.112-2.226 3.02-.353 1.417-2.724 1.265 2.817 2.978.54-2.233 2.092z"/><path fill="#ffffef" fill-rule="evenodd" d="M342.98 276.167l-2.63-1.518-2.734 1.35.612-3.036-2.112-2.226 3.02-.353 1.417-2.724 1.265 2.818 2.978.54-2.233 2.092z"/><path fill="#ffffef" fill-rule="evenodd" d="M317.462 276.157l-2.632-1.518-2.733 1.35.612-3.036-2.113-2.226 3.02-.353 1.417-2.724 1.265 2.818 2.977.54-2.233 2.092z"/><path fill="#ffffef" fill-rule="evenodd" d="M248.18 267.293l-1.65-.952-1.71.85.382-1.905-1.322-1.395 1.89-.222.89-1.707.792 1.767 1.865.34-1.4 1.31z"/><path fill="#ffffef" fill-rule="evenodd" d="M415.82 310.73l-2.633-1.517-2.733 1.352.612-3.037-2.112-2.226 3.02-.353 1.417-2.725 1.266 2.817 2.978.54-2.233 2.092z"/><path fill="#ffffef" fill-rule="evenodd" d="M394.573 313.55l-2.18-1.26-2.264 1.122.506-2.523-1.75-1.85 2.502-.293 1.174-2.263 1.048 2.34 2.467.45-1.85 1.736z"/><path fill="#ffffef" fill-rule="evenodd" d="M404.59 313.26l-2.03-1.17-2.11 1.043.473-2.345-1.63-1.72 2.33-.272 1.094-2.103.976 2.176 2.298.416-1.723 1.614z"/><path fill="#ffffef" fill-rule="evenodd" d="M433.37 288.172l-1.955-1.13-2.032 1.006.455-2.257-1.57-1.653 2.245-.263 1.053-2.025.94 2.093 2.214.402-1.66 1.554z"/><path fill="#ffffef" fill-rule="evenodd" d="M394.345 327.637l-2.555-1.393-2.653 1.24.594-2.786-2.048-2.04 2.93-.326 1.376-2.498 1.228 2.584 2.89.496-2.167 1.918z"/><path fill="#ffffef" fill-rule="evenodd" d="M394.476 339.077l-2.33-1.393-2.42 1.24.542-2.786-1.87-2.04 2.673-.326 1.256-2.498 1.12 2.584 2.637.496-1.978 1.918z"/><path fill="#ffffef" fill-rule="evenodd" d="M375.15 313.288l-1.954-1.13-2.032 1.006.455-2.257-1.57-1.654 2.244-.263 1.053-2.025.94 2.094 2.214.4-1.66 1.555z"/><path fill="#ffffef" fill-rule="evenodd" d="M357.06 313.288l-1.955-1.13-2.032 1.006.455-2.257-1.57-1.654 2.245-.263 1.053-2.025.94 2.094 2.214.4-1.66 1.555z"/><path fill="#ffffef" fill-rule="evenodd" d="M326.34 286.426l-1.954-1.13-2.032 1.006.455-2.257-1.57-1.654 2.244-.262 1.053-2.025.94 2.094 2.214.402-1.66 1.553z"/><path fill="#ffffef" fill-rule="evenodd" d="M329.745 341.2l-1.657-.957-1.72.852.385-1.913-1.33-1.402 1.9-.222.894-1.716.796 1.775 1.874.34-1.406 1.317z"/><path fill="#ffffef" fill-rule="evenodd" d="M283.236 252.63l-3.94-2.274-4.092 2.025.916-4.548-3.16-3.334 4.52-.53 2.12-4.08 1.895 4.22 4.46.81-3.345 3.132z"/><path d="M444.368 285.817c1.944-5.083 4.45-12.75 5.783-19.786-67.742-59.508-143.26-89.993-238.68-83.72-3.422 6.558-6.16 13.423-8.47 20.853 113.063-10.786 195.936 39.27 241.37 82.654z" stroke-opacity=".503" fill-rule="evenodd" fill="#fff"/><path d="M413.914 252.36l2.42 1.323c-.38.858-.48 1.61-.31 2.25.18.645.625 1.208 1.335 1.688.75.515 1.424.74 2.016.68.6-.06 1.045-.306 1.335-.734.183-.274.258-.563.225-.863-.027-.3-.192-.66-.495-1.075-.21-.28-.72-.873-1.53-1.777-1.04-1.16-1.66-2.138-1.86-2.936-.28-1.122-.11-2.14.51-3.06.4-.59.936-1.03 1.612-1.318.686-.29 1.433-.355 2.24-.198.81.157 1.664.54 2.55 1.143 1.453.987 2.33 2.048 2.63 3.184.305 1.138.117 2.253-.565 3.345l-2.404-1.484c.3-.665.375-1.24.218-1.723-.147-.485-.55-.95-1.21-1.397-.676-.46-1.302-.682-1.874-.663-.37.01-.654.168-.856.468-.186.277-.228.59-.13.943.13.45.668 1.193 1.625 2.234.953 1.04 1.604 1.89 1.95 2.547.355.657.516 1.34.482 2.05-.023.706-.284 1.427-.778 2.16-.45.667-1.053 1.163-1.812 1.493-.76.33-1.57.412-2.437.24-.86-.177-1.794-.607-2.798-1.29-1.462-.992-2.36-2.093-2.687-3.3-.322-1.213-.125-2.523.6-3.925z" stroke-opacity=".502" fill="#309e3a"/><path d="M402.436 244.827l2.472 1.22c-.345.872-.417 1.628-.22 2.26.208.637.672 1.183 1.4 1.635.775.482 1.455.68 2.043.596.6-.086 1.037-.346 1.306-.786.174-.28.236-.573.19-.87-.038-.302-.218-.655-.54-1.058-.22-.272-.75-.84-1.597-1.713-1.087-1.117-1.746-2.07-1.978-2.86-.323-1.11-.194-2.133.385-3.077.378-.606.896-1.066 1.56-1.38.674-.316 1.42-.413 2.23-.29.818.127 1.685.473 2.595 1.04 1.492.926 2.408 1.952 2.753 3.074.35 1.126.21 2.247-.427 3.365l-2.464-1.385c.275-.676.327-1.252.15-1.728-.168-.482-.59-.93-1.264-1.35-.697-.433-1.33-.628-1.9-.586-.37.025-.647.195-.838.504-.172.282-.204.594-.09.944.145.443.714 1.165 1.71 2.168.994 1 1.68 1.822 2.052 2.465.38.64.568 1.318.563 2.027.007.708-.227 1.437-.69 2.193-.42.68-1.008 1.202-1.75 1.565-.746.36-1.556.474-2.427.336-.865-.14-1.815-.536-2.848-1.175-1.498-.933-2.438-1.996-2.815-3.19-.374-1.2-.23-2.514.438-3.943z" stroke-opacity=".502" fill="#309e3a"/><path d="M388.23 241.02l7.276-11.966 8.837 5.416-1.23 2.026-6.43-3.942-1.615 2.652 5.983 3.668-1.225 2.015-5.984-3.667-1.977 3.256 6.657 4.08-1.228 2.017-9.063-5.557z" stroke-opacity=".502" fill="#309e3a"/><path d="M367.538 224.027l1.08-2.1 5.4 2.796-2.546 4.962c-.79.238-1.78.296-2.982.17-1.19-.13-2.295-.457-3.317-.986-1.3-.673-2.29-1.528-2.976-2.572-.683-1.05-1.01-2.205-.974-3.47.04-1.274.363-2.507.977-3.703.664-1.298 1.53-2.31 2.59-3.04 1.057-.727 2.25-1.09 3.57-1.09 1.008-.002 2.104.306 3.29.916 1.542.8 2.577 1.747 3.104 2.846.54 1.096.638 2.28.298 3.555l-2.728-.82c.14-.702.057-1.356-.25-1.957-.296-.606-.806-1.095-1.527-1.47-1.097-.567-2.146-.67-3.155-.305-1 .363-1.85 1.23-2.554 2.6-.76 1.48-1.005 2.76-.73 3.842.277 1.073.944 1.886 2.008 2.437.524.27 1.1.44 1.73.507.64.066 1.22.05 1.753-.05l.81-1.582-2.872-1.485z" stroke-opacity=".502" fill="#309e3a"/><path d="M277.296 201.648l2.034-13.867 4.172.62 1.123 9.826 3.86-9.093 4.188.618-2.033 13.87-2.59-.382 1.6-10.918-4.343 10.512-2.685-.398-1.134-11.32-1.6 10.915-2.592-.382z" stroke-opacity=".502" fill="#309e3a"/><path d="M263.188 200.01l1.305-13.96 10.307.974-.217 2.36-7.503-.706-.29 3.095 6.978.657-.22 2.352-6.98-.658-.353 3.8 7.764.73-.22 2.354-10.572-.998z" stroke-opacity=".502" fill="#309e3a"/><g stroke-opacity=".502"><path d="M216.578 191.33c.038-1.427.283-2.62.736-3.576.335-.704.786-1.333 1.346-1.885.567-.553 1.182-.956 1.845-1.212.88-.346 1.888-.503 3.023-.473 2.058.058 3.684.743 4.88 2.057 1.205 1.315 1.775 3.114 1.713 5.394-.06 2.26-.72 4.017-1.983 5.263-1.26 1.24-2.915 1.833-4.964 1.776-2.078-.057-3.71-.737-4.9-2.038-1.192-1.31-1.756-3.078-1.695-5.307z" fill="#309e3a"/><path d="M219.492 191.305c-.044 1.585.29 2.8.997 3.643.706.836 1.623 1.27 2.747 1.3 1.122.03 2.055-.35 2.794-1.138.746-.796 1.14-2.006 1.186-3.632.043-1.604-.277-2.812-.96-3.622-.677-.81-1.595-1.23-2.758-1.262-1.16-.03-2.108.344-2.842 1.128-.733.776-1.122 1.97-1.164 3.583z" fill="#f7ffff"/></g><g stroke-opacity=".502"><path d="M233.058 198.422l.165-14.018 5.933.07c1.494.016 2.574.155 3.244.42.677.254 1.214.708 1.613 1.356s.593 1.386.583 2.216c-.012 1.052-.33 1.918-.954 2.6-.624.674-1.55 1.094-2.778 1.258.605.364 1.104.762 1.49 1.194.397.43.923 1.196 1.585 2.294l1.67 2.753-3.37-.038-2.002-3.074c-.71-1.098-1.2-1.79-1.46-2.072-.266-.29-.546-.487-.843-.593-.297-.11-.77-.17-1.418-.177l-.57-.008-.07 5.852-2.82-.032z" fill="#309e3a"/><path d="M235.983 190.366l2.086.023c1.352.016 2.197-.032 2.535-.142.338-.113.604-.306.797-.585s.292-.628.3-1.048c.004-.473-.118-.853-.37-1.142-.243-.296-.594-.486-1.05-.567-.23-.034-.915-.058-2.058-.072l-2.2-.024-.04 3.556z" fill="#fff"/></g><g stroke-opacity=".502"><path d="M249.126 185.128l5.148.26c1.16.06 2.04.194 2.64.404.806.283 1.486.75 2.038 1.396.553.646.96 1.426 1.22 2.34.257.907.355 2.015.29 3.326-.06 1.153-.253 2.14-.58 2.96-.4 1-.938 1.798-1.62 2.396-.51.453-1.19.792-2.033 1.017-.633.166-1.47.222-2.51.17l-5.298-.27.704-14z" fill="#309e3a"/><path d="M251.83 187.625l-.467 9.274 2.103.104c.786.042 1.357.025 1.71-.046.46-.092.85-.267 1.162-.525.32-.26.588-.695.808-1.31.223-.62.362-1.47.416-2.553s0-1.92-.16-2.508c-.16-.59-.405-1.053-.73-1.396-.327-.342-.75-.583-1.27-.725-.39-.108-1.16-.192-2.307-.25l-1.266-.065z" fill="#fff"/></g><g stroke-opacity=".502"><path d="M317.618 210.17l3.263-13.635 4.402 1.06c1.666.402 2.737.732 3.21.99.73.393 1.274.996 1.634 1.81.36.81.41 1.756.15 2.84-.198.838-.517 1.505-.958 2.003-.437.498-.93.853-1.48 1.07-.54.21-1.063.31-1.57.3-.685-.028-1.65-.19-2.89-.49l-1.786-.43-1.23 5.142-2.744-.66z" fill="#309e3a"/><path d="M323.077 199.5l-.926 3.868 1.5.362c1.083.26 1.82.363 2.22.307.4-.055.735-.21 1.012-.464.282-.253.472-.58.568-.985.118-.496.072-.94-.14-1.33-.215-.394-.533-.684-.957-.87-.314-.142-.963-.332-1.95-.57l-1.326-.32z" fill="#fff"/></g><g stroke-opacity=".502"><path d="M330.788 214.21l4.64-13.222 5.6 1.982c1.408.497 2.388.98 2.937 1.444.56.462.923 1.063 1.094 1.807s.118 1.506-.158 2.287c-.347.993-.927 1.71-1.735 2.153-.807.438-1.82.537-3.034.297.457.54.802 1.077 1.03 1.61.238.538.492 1.433.766 2.685l.703 3.15-3.18-1.126-.914-3.558c-.324-1.27-.564-2.08-.722-2.436-.158-.36-.36-.636-.608-.833-.246-.203-.673-.41-1.286-.628l-.537-.19-1.938 5.52-2.662-.943z" fill="#309e3a"/><path d="M336.12 207.528l1.97.696c1.275.452 2.09.68 2.444.683.356.004.67-.093.943-.295.273-.2.478-.5.617-.896.156-.446.163-.846.018-1.2-.136-.36-.408-.65-.814-.877-.206-.107-.847-.35-1.925-.732l-2.076-.736-1.177 3.356z" fill="#fff"/></g><g stroke-opacity=".502"><path d="M346.91 213.48c.423-1.363.98-2.444 1.672-3.24.516-.588 1.116-1.07 1.807-1.45.694-.377 1.395-.597 2.1-.664.94-.094 1.952.03 3.037.37 1.965.612 3.343 1.715 4.14 3.305.802 1.594.866 3.48.19 5.658-.67 2.16-1.782 3.67-3.33 4.526-1.547.852-3.3.97-5.258.358-1.983-.62-3.37-1.717-4.164-3.293-.793-1.584-.858-3.44-.197-5.57z" fill="#309e3a"/><path d="M349.724 214.264c-.47 1.514-.48 2.773-.025 3.777.454.996 1.218 1.663 2.29 2 1.074.334 2.07.223 2.997-.337.932-.56 1.64-1.62 2.12-3.17.478-1.535.497-2.783.057-3.75-.43-.96-1.203-1.617-2.312-1.963-1.11-.347-2.122-.243-3.038.312-.915.548-1.612 1.592-2.09 3.132z" fill="#fff"/></g><g stroke-opacity=".502"><path d="M374.146 233.226l6.417-12.453 5.27 2.74c1.324.69 2.227 1.3 2.71 1.838.487.535.765 1.182.832 1.942s-.092 1.506-.47 2.243c-.482.935-1.154 1.565-2.017 1.892-.86.322-1.872.28-3.043-.128.378.597.644 1.178.798 1.74.16.563.29 1.483.388 2.763l.262 3.215-2.992-1.555-.415-3.65c-.145-1.303-.27-2.14-.378-2.512-.105-.376-.268-.68-.486-.91-.213-.232-.61-.5-1.184-.797l-.507-.264-2.68 5.197-2.504-1.3z" fill="#309e3a"/><path d="M380.345 227.332l1.852.962c1.2.626 1.977.963 2.328 1.016.35.054.676 0 .975-.16.297-.163.54-.43.734-.804.216-.42.276-.814.183-1.186-.086-.374-.315-.702-.684-.98-.19-.134-.79-.465-1.807-.993l-1.952-1.015-1.63 3.16z" fill="#fff"/></g><g stroke-opacity=".502"><path d="M425.98 258.735c.797-1.183 1.642-2.056 2.536-2.62.662-.412 1.377-.7 2.145-.862.776-.16 1.51-.17 2.203-.028.928.184 1.862.595 2.803 1.235 1.703 1.157 2.707 2.613 3.013 4.367.31 1.758-.173 3.58-1.447 5.473-1.263 1.873-2.758 2.998-4.487 3.37-1.727.365-3.438-.028-5.138-1.182-1.718-1.168-2.732-2.623-3.04-4.362-.303-1.747.168-3.543 1.413-5.39z" fill="#309e3a"/><path d="M428.45 260.286c-.884 1.315-1.255 2.518-1.11 3.61.15 1.086.69 1.945 1.62 2.578.93.632 1.92.815 2.965.548 1.055-.27 2.037-1.075 2.943-2.423.896-1.33 1.273-2.522 1.13-3.573-.138-1.048-.688-1.898-1.65-2.553s-1.96-.85-2.998-.583c-1.033.26-2 1.06-2.9 2.396z" fill="#fff"/></g><path d="M301.824 204.523l2.248-9.84 7.268 1.675-.378 1.662-5.287-1.217-.504 2.18 4.926 1.136-.382 1.655-4.918-1.132-.614 2.677 5.475 1.26-.378 1.66-7.456-1.717z" stroke-opacity=".502" fill="#309e3a"/></g></g></svg>