<svg xmlns="http://www.w3.org/2000/svg" height="480" width="640"><g><path stroke-width="1pt" fill="#006" d="M0 0h640v480H0z"/><g stroke-width="1pt"><path d="M0 0v24.81l319.75 197.106H360v-24.81L40.25 0H.002zm360.004 0v24.81L40.246 221.917H0v-24.814L319.75-.003H360z" fill="#fff"/><path d="M150.003 0v221.92h60V0h-60zM0 73.973v73.973h360.004V73.973H0z" fill="#fff"/><path d="M0 88.766v44.384h360.004V88.766H0zM162.003 0v221.92h36V0h-36z" fill="#c00"/><path d="M0 221.92l120.004-73.974h26.833l-120.004 73.97H-.003zM0 0l120.004 73.973H93.17L.004 16.54V0zm213.172 73.973L333.168 0H360L239.998 73.973h-26.833zm146.832 147.95L240 147.948h26.833L360 205.38v16.542z" fill="#c00"/></g><g fill-rule="evenodd" fill="#fff"><path d="M471.474 212.882l5.197-16.657-14.007-10.638 17.65-.225 5.88-16.427 5.706 16.515 17.65.482-14.123 10.43 5.026 16.733-14.436-10.07z"/><path d="M513.218 216.2l10.395-13.942-9.686-14.797 16.703 5.79 10.962-13.49-.075 17.515 16.47 6.457-16.75 5.035-.787 17.488-10.276-14.406z"/><path d="M431.636 226.784l-.697-17.478-16.742-5.183 16.523-6.304.023-17.498 10.904 13.58 16.762-5.637-9.785 14.697 10.336 14.02-16.95-4.5z"/><path d="M402.168 253.422l-7.33-15.816-17.403 1.83 12.806-12.32L383.567 211l15.24 8.204 13.282-11.8-3.388 17.39 14.886 8.832-17.336 2.54z"/><path d="M389.138 292.09l-13.324-11.096-14.97 9.213 6.373-16.686-12.858-11.652 17.258.786 7.023-16.424 4.293 17.173 17.204 1.507-14.608 9.826z"/><path d="M388.717 334.814l-16.572-4.82-10.11 14.5-.705-17.898-16.362-5.52 16.133-6.237-.006-17.92 10.675 14.043 16.365-5.553-9.538 14.918z"/><path d="M407.968 371.08l-17.09 2.395-3.46 17.414-7.793-16.084-17.177 1.67 12.27-12.33-7.162-16.39 15.377 8.465 12.758-11.798-2.768 17.562z"/><path d="M438.32 400.184l-15.194 8.237 2.674 17.55-12.763-12.355-15.523 7.588 7.307-15.868-12.276-12.864 17.28 2.55 7.94-15.54 3.372 17.445z"/><path d="M474.827 405.572l-8.298 15.306 11.7 13.213-17.36-3.28-8.923 14.944-2.427-17.33-17.225-3.976 15.86-7.428-1.718-17.408 12.23 12.74z"/><path d="M515.833 399.245l-.522 17.468 16.35 6.37-16.932 5.092-1.242 17.435-9.938-14.32-17.124 4.412 10.79-13.94-9.34-14.717 16.608 5.705z"/><path d="M559.122 209.846l11.943 12.618 15.916-7.39-8.246 15.844 11.416 13.116-17.035-2.83-8.86 15.506-2.28-17.59-16.9-3.54 15.63-8.043z"/><path d="M594.932 248.238l5.432 16.607 17.505.31-14.167 10.67 4.744 16.827-14.182-10.012-14.578 10.098 5.403-16.86-13.757-10.59 17.523-.407z"/><path d="M608.173 298.495l-1.995 17.357 15.75 7.77-17.298 3.6-2.71 17.262-8.69-15.13-17.43 2.906 11.925-12.952-8.062-15.473 16.062 7.127z"/><path d="M598.418 350.494l-7.77 15.61L602.81 378.9l-17.477-2.657-8.408 15.27-3.03-17.247-17.366-3.356 15.605-8.003-2.322-17.35 12.674 12.303z"/><path d="M572.78 396.942l-14.677 9.176 3.754 17.358-13.518-11.54-15.048 8.55 6.324-16.305-13.063-12.076 17.427 1.465 6.98-16.018 4.445 17.21z"/></g></g></svg>