<svg xmlns="http://www.w3.org/2000/svg" height="480" width="640" version="1"><g stroke-width="1pt" fill-rule="evenodd"><g><path fill="#fff" d="M0 0h640.01v479.997H0z"/><path fill="#00bf13" d="M0 0h320.006v479.997H0z"/></g><g fill="#f21930"><path d="M445.896 308.66c-40.313 72.507-129.227 98.27-199.877 59.356S149.612 240.18 188.526 169.53c38.914-70.648 127.83-96.406 198.48-57.49 26.117 14.385 44.713 33.297 59.338 60.236-5.337-7.34-11.296-13.4-19.118-19.55-48.19-37.886-118.046-29.525-155.93 18.664-37.887 48.19-29.526 118.046 18.662 155.93 48.19 37.888 118.045 29.526 155.93-18.663z"/><path d="M411.468 321.667l-35.19-49.88-58.034 18.926 36.558-48.883-35.93-49.342 57.79 19.666 35.827-49.422-.853 61.04 58.073 18.797-58.306 18.05z"/></g></g></svg>