<svg xmlns="http://www.w3.org/2000/svg" height="480" width="640" version="1"><defs><clipPath id="a"><path fill-opacity=".67" d="M0 0h682.67v512H0z"/></clipPath></defs><g clip-path="url(#a)" transform="scale(.938 .938)"><g fill-rule="evenodd" stroke-width="1pt"><path fill="#3e9a00" d="M0 0h767.975v171.886H0z"/><path fill="#fff" d="M0 171.886h767.975v168.222H0z"/><path fill="#e32118" d="M0 340.108h767.975v171.886H0z"/><path d="M0 0v511.934l255.917-255.967L0 0z" fill="#5567e4"/></g><g><path d="M283.46 148.82v442.91c0 35.433 17.716 70.866 53.15 70.866h70.865c17.717 0 35.433 35.433 35.433 35.433s16.938-35.434 35.433-35.434h70.868c35.433 0 53.15-35.433 53.15-70.866V148.82h-318.9z" fill-rule="evenodd" transform="matrix(.239 0 0 .186 269.493 179.77)" stroke="#000" stroke-width="3.791" fill="#ccc"/><g><g><path d="M215.38 731.79c-18.02 0-35.738-17.717-35.738-35.433v-88.583c15.502 15.502 88.583 70.866 70.867 88.583-17.718 17.716-35.738 0-35.434 0s.304 35.433.304 35.433z" fill-rule="evenodd" transform="matrix(.24 0 0 .186 267.792 160.312)" stroke="#000" stroke-width="1pt" fill="#ccc"/><path d="M218.72 687.78c17.716-17.716 17.716 17.717 35.433 0l-17.717 106.3c-17.19-3.33-17.778 0-27.707-17.717 0-17.718 0-74.332 9.99-88.583z" fill-rule="evenodd" transform="matrix(.24 0 0 .186 266.919 161.908)" stroke-width="1.25" fill="#ccc"/><path d="M215.38 731.79c-18.02 0-35.738-17.717-35.738-35.433v-88.583c15.502 15.502 88.583 70.866 70.867 88.583-17.718 17.716-35.738 0-35.434 0s.304 35.433.304 35.433z" fill-rule="evenodd" transform="matrix(-.24 0 0 .186 482.241 160.312)" stroke="#000" stroke-width="1pt" fill="#ccc"/><path d="M218.72 687.78c17.716-17.716 17.716 17.717 35.433 0l-17.717 106.3c-17.19-3.33-17.778 0-27.707-17.717 0-17.718 0-74.332 9.99-88.583z" fill-rule="evenodd" transform="matrix(-.24 0 0 .186 482.455 161.908)" stroke-width="1.25" fill="#ccc"/><path d="M513.78 1140.9c0-17.71-35.433-53.14-35.433-70.86s35.433 17.72 106.3 17.72c70.866 0 106.3-88.588 88.582-106.3 17.716 35.434 17.716 70.864 17.716 88.584 0 35.43-35.433 70.86-106.3 70.86H513.78z" fill-rule="evenodd" transform="matrix(.24 0 0 .186 268.387 107.276)" stroke="#000" stroke-width="1pt" fill="#ccc"/><path d="M513.78 1140.9c0-17.71-35.433-53.14-35.433-70.86s35.433 17.72 106.3 17.72c70.866 0 106.3-88.588 88.582-106.3 17.716 35.434 17.716 70.864 17.716 88.584 0 35.43-35.433 70.86-106.3 70.86H513.78z" fill-rule="evenodd" transform="matrix(-.24 0 0 .186 480.986 107.276)" stroke="#000" stroke-width="1pt" fill="#ccc"/><path d="M549.21 1016.9c0-17.712-35.433-35.433-35.433-53.15v88.58h35.433v-35.43z" fill-rule="evenodd" transform="matrix(-.24 0 0 .186 489.489 127.048)" stroke-width="1pt" fill="#ccc"/><path d="M549.21 1016.9c0-17.712-35.433-35.433-35.433-53.15v88.58h35.433v-35.43z" fill-rule="evenodd" transform="matrix(.24 0 0 .186 259.883 127.048)" stroke-width="1pt" fill="#ccc"/><path d="M371.17 1034.6c0 17.71 141.73 17.71 141.73 0v70.87c0 17.71-141.73 17.71-141.73 0v-70.87z" fill-rule="evenodd" transform="matrix(.24 0 0 .186 268.597 123.75)" stroke="#000" stroke-width="1pt" fill="#ccc"/><path d="M249.63 696.36c-17.717 17.716-17.717-17.717-35.433 0-17.717 17.716 17.717 106.3 88.583 106.3s106.3-35.433 106.3-17.717c0 17.717-35.433 35.433-35.433 53.15s141.73 17.717 141.73 0-35.433-35.433-35.433-53.15c0-17.716 35.433 17.717 106.3 17.717 70.866 0 106.3-88.583 88.583-106.3-17.716-17.717-17.716 17.716-35.433 0" transform="matrix(.24 0 0 .186 268.002 160.312)" stroke="#000" stroke-width="1.25" fill="none"/></g><path transform="matrix(.203 -.082 .089 .148 247.331 223.294)" stroke-width="1pt" d="M497.6 890.01v-49.407h3.76v49.407h-3.76z"/><path transform="matrix(.21 -.07 .075 .153 256.39 213.077)" stroke-width="1pt" d="M488.56 872.69l3.765 1.657c-.79 5.366-2.212 9.467-4.268 12.297-2.043 2.813-4.546 4.216-7.51 4.216-3.065 0-5.562-1.08-7.49-3.238-1.912-2.18-3.372-5.326-4.382-9.433-.997-4.114-1.494-8.53-1.494-13.247 0-5.148.564-9.63 1.69-13.448 1.14-3.842 2.748-6.753 4.83-8.73 2.097-1.997 4.398-2.998 6.907-2.998 2.845 0 5.238 1.26 7.18 3.773 1.94 2.52 3.29 6.057 4.05 10.618l-3.704 1.513c-.66-3.594-1.615-6.21-2.87-7.85-1.255-1.64-2.834-2.456-4.735-2.456-2.185 0-4.016.908-5.49 2.726-1.46 1.823-2.49 4.268-3.085 7.345-.593 3.06-.89 6.218-.89 9.473 0 4.2.347 7.874 1.045 11.02.712 3.124 1.81 5.46 3.298 7.012 1.49 1.547 3.1 2.324 4.83 2.324 2.11 0 3.894-1.06 5.358-3.17 1.46-2.11 2.45-5.245 2.966-9.404z"/><path transform="matrix(.217 -.054 .058 .158 268.482 201.467)" stroke-width="1pt" d="M457.87 890.01v-49.407h3.76v49.407h-3.76z"/><path transform="matrix(.225 -.016 .017 .164 299.092 179.16)" stroke-width="1pt" d="M440.2 890.01v-43.575h-9.37v-5.832h22.54v5.832h-9.41v43.575h-3.76z"/><path transform="matrix(.226 0 0 .165 313.789 172.035)" stroke-width="1pt" d="M405.18 874.14l3.552-.535c.166 2.467.557 4.503 1.162 6.097.623 1.576 1.58 2.852 2.87 3.842 1.296.966 2.752 1.45 4.368 1.45 1.434 0 2.702-.37 3.8-1.11 1.1-.743 1.915-1.755 2.448-3.038.543-1.3.815-2.715.815-4.245 0-1.546-.26-2.898-.78-4.042-.515-1.168-1.37-2.146-2.558-2.934-.765-.517-2.45-1.31-5.062-2.392-2.616-1.1-4.444-2.134-5.493-3.1-1.358-1.237-2.37-2.76-3.046-4.585-.66-1.84-.987-3.894-.987-6.166 0-2.495.406-4.818 1.22-6.975.815-2.18 2.004-3.83 3.57-4.953 1.563-1.12 3.304-1.685 5.218-1.685 2.11 0 3.963.593 5.57 1.783 1.615 1.173 2.856 2.9 3.724 5.194.864 2.29 1.33 4.883 1.397 7.782l-3.61.472c-.195-3.123-.854-5.482-1.98-7.075-1.112-1.6-2.76-2.393-4.946-2.393-2.278 0-3.94.73-4.987 2.192-1.033 1.438-1.553 3.175-1.553 5.222 0 1.772.37 3.233 1.106 4.383.725 1.145 2.613 2.324 5.665 3.538 3.066 1.19 5.17 2.23 6.305 3.134 1.655 1.322 2.88 3.007 3.668 5.055.788 2.02 1.182 4.354 1.182 7.006 0 2.63-.434 5.114-1.298 7.45-.867 2.317-2.116 4.123-3.745 5.43-1.615 1.276-3.44 1.92-5.47 1.92-2.575 0-4.734-.656-6.48-1.956-1.734-1.305-3.098-3.26-4.095-5.866-.983-2.63-1.5-5.59-1.552-8.898z"/><path transform="matrix(.226 .008 -.009 .165 321.202 168.736)" stroke-width="1pt" d="M396.43 840.6h3.765v28.546c0 4.97-.325 8.91-.97 11.83-.65 2.923-1.818 5.304-3.514 7.145-1.68 1.818-3.892 2.733-6.634 2.733-2.665 0-4.844-.8-6.536-2.393-1.695-1.6-2.903-3.9-3.628-6.913-.726-3.032-1.086-7.167-1.086-12.4V840.6h3.76v28.51c0 4.292.23 7.46.683 9.51.462 2.018 1.25 3.582 2.363 4.68 1.126 1.105 2.496 1.652 4.115 1.652 2.765 0 4.738-1.087 5.917-3.267 1.176-2.18 1.765-6.373 1.765-12.574V840.6z"/><path transform="matrix(.226 0 0 .165 312.096 171.571)" stroke-width="1pt" d="M355.98 875.99l3.393-.81c.093 3.773.5 6.36 1.225 7.753.722 1.392 1.725 2.088 3.007 2.088.943 0 1.758-.367 2.443-1.11.686-.764 1.16-1.788 1.417-3.07.26-1.3.388-3.37.388-6.2V840.6h3.764v33.67c0 4.136-.29 7.334-.874 9.606-.57 2.266-1.48 3.998-2.735 5.188-1.24 1.19-2.705 1.79-4.383 1.79-2.497 0-4.41-1.25-5.745-3.745-1.318-2.492-1.953-6.202-1.9-11.12z"/><path transform="matrix(.226 0 0 .186 305.698 163.975)" stroke-width="1pt" d="M320.32 890.01v-6.068l14.568-31.64c1.033-2.25 2.016-4.205 2.95-5.867h-15.87v-5.832h20.37v5.832l-15.966 34.275-1.728 3.474h18.16v5.826H320.32z"/><path transform="matrix(.222 .034 -.041 .183 331.277 149.889)" stroke-width="1pt" d="M164.27 890.01v-49.407h3.76v49.407h-3.76z"/><path transform="matrix(.199 .088 -.107 .164 390.511 156.961)" stroke-width="1pt" d="M134.9 890.01v-49.407h3.86l14.937 38.79v-38.79h3.61v49.407h-3.862l-14.94-38.824v38.824H134.9z"/><path stroke-width=".207pt" d="M326.445 305.876l.602.493-4.567 3.767c-.795.656-1.477 1.134-2.048 1.435-.572.3-1.14.462-1.705.483-.56.02-1.06-.15-1.5-.51-.425-.348-.646-.74-.662-1.17-.015-.434.16-.896.525-1.39.37-.494.973-1.087 1.81-1.778l4.568-3.768.603.492-4.56 3.764c-.688.566-1.16 1.014-1.414 1.344-.25.327-.372.637-.37.928.003.292.135.544.394.756.442.363.932.477 1.47.344.536-.134 1.3-.61 2.293-1.428l4.562-3.764z"/><path transform="matrix(.226 .005 -.006 .186 301.906 152.547)" stroke-width="1pt" d="M174.66 890.01v-49.407h9.798c2.21 0 3.9.236 5.065.707 1.63.656 3.02 1.835 4.17 3.543 1.502 2.198 2.618 5.022 3.356 8.455.75 3.417 1.125 7.328 1.125 11.728 0 3.756-.252 7.08-.758 9.98-.503 2.9-1.15 5.303-1.94 7.212-.788 1.887-1.656 3.382-2.6 4.48-.93 1.077-2.062 1.9-3.393 2.463-1.32.56-2.84.84-4.56.84H174.66zm3.765-5.826h6.072c1.874 0 3.344-.305 4.404-.915 1.074-.605 1.928-1.462 2.564-2.56.89-1.553 1.582-3.63 2.076-6.235.503-2.63.755-5.81.755-9.536 0-5.172-.49-9.135-1.474-11.902-.97-2.784-2.154-4.647-3.552-5.59-1.006-.674-2.628-1.013-4.867-1.013h-5.975v37.75z"/><path transform="matrix(.226 0 0 .186 296.478 153.444)" stroke-width="1pt" d="M200.24 890.01l10.923-49.407h4.053l11.64 49.407h-4.287l-3.318-14.96H207.36l-3.123 14.96h-3.997zm8.208-20.286h9.642l-2.97-13.683c-.904-4.158-1.576-7.57-2.017-10.243-.364 3.163-.874 6.31-1.533 9.433l-3.122 14.494z"/><path transform="matrix(.226 0 0 .186 296.478 153.444)" stroke-width="1pt" d="M229.86 890.01v-49.407h9.797c2.212 0 3.9.236 5.066.707 1.63.656 3.02 1.835 4.168 3.543 1.5 2.198 2.62 5.022 3.358 8.455.752 3.417 1.126 7.328 1.126 11.728 0 3.756-.25 7.08-.758 9.98-.503 2.9-1.15 5.303-1.94 7.212-.788 1.887-1.656 3.382-2.6 4.48-.93 1.077-2.062 1.9-3.393 2.463-1.32.56-2.84.84-4.56.84H229.86zm3.764-5.826h6.072c1.875 0 3.345-.305 4.404-.915 1.073-.605 1.927-1.462 2.56-2.56.893-1.553 1.585-3.63 2.075-6.235.507-2.63.76-5.81.76-9.536 0-5.172-.49-9.135-1.475-11.902-.97-2.784-2.155-4.647-3.552-5.59-1.007-.674-2.633-1.013-4.868-1.013h-5.976v37.75z"/><path transform="matrix(.226 0 0 .186 305.698 163.975)" stroke-width="1pt" d="M269.59 890.01v-49.407h10.73c1.89 0 3.33.16 4.325.47 1.398.41 2.57 1.18 3.513 2.33.944 1.123 1.7 2.704 2.268 4.752.583 2.042.875 4.29.875 6.74 0 4.2-.77 7.76-2.307 10.682-1.54 2.9-4.32 4.348-8.344 4.348h-7.295v20.085h-3.765zm3.765-25.917h7.354c2.43 0 4.157-.782 5.177-2.358 1.023-1.57 1.533-3.785 1.533-6.638 0-2.07-.305-3.83-.91-5.29-.596-1.485-1.384-2.463-2.368-2.935-.636-.293-1.804-.437-3.513-.437h-7.275v17.658z"/><path transform="matrix(.226 0 0 .186 305.698 163.975)" stroke-width="1pt" d="M292.97 890.01l10.923-49.407h4.053l11.64 49.407H315.3l-3.318-14.96H300.09l-3.123 14.96h-3.997zm8.205-20.286h9.64l-2.965-13.683c-.904-4.158-1.58-7.57-2.017-10.243-.364 3.163-.874 6.31-1.533 9.433l-3.125 14.494z"/><path transform="matrix(.167 -.101 .124 .137 234.253 242.681)" stroke-width="1pt" d="M504.88 890.01l10.923-49.407h4.053l11.64 49.407h-4.287l-3.318-14.96H512l-3.124 14.96h-3.996zm8.205-20.286h9.64l-2.965-13.683c-.908-4.158-1.58-7.57-2.017-10.243-.364 3.163-.874 6.31-1.533 9.433l-3.125 14.494z"/></g><path d="M419.16 331.78c.065 32.968 19.893 131.63-37.678 284.94-4.262 11.127 7.064 16.484 16.484 18.84 9.42 2.354 14.13-9.42 14.13-11.775s2.354 18.84 11.773 16.484c9.42-2.356 18.838-16.485 18.838-16.485s4.71 21.194 16.484 21.194 11.774-25.905 11.774-25.905c0 2.355 8.164 22.235 17.583 22.235 9.42 0 23.928-8.76 15.547-23.144-59.832-100.72-56.68-267.54-56.68-286.38 0-18.84 27.784-53.068 55.418-53.89l-10.675-16.755c-6.96 2.136-15.28 3.67-29.41 15.444s-22.397 24.59-22.397 24.59v-80.066h-23.548l2.355 73s-8.05-9.438-20.095-19.93c-11.4-9.935-31.972-9.2-44.637-7.12l-1.204 15.99c14.97 3.123 34.067-3.068 43.487 11.06 11.775 11.775 22.415 21.26 22.45 37.678z" fill-rule="evenodd" transform="matrix(.147 0 0 .149 312.157 202.086)" stroke="#000" stroke-width="5.029" fill="#682900"/><path d="M310.55 312.21v-.832c0 1.976-.067 1.1.833-2.498.777-2.848 2.407-5.523 4.163-7.493 3.04-1.014 7.44.053 10.823-.833 2.277-3.268 5.827 4.267 5.827-.833 4.343-.31 4.4-4.558 5.828-6.66 4.054-.5 4.963-5.44 8.326-2.496 2.757 1.305.407-.833 4.997-.833 2.713.664 4.13 2.32 6.66.833.62-2.85 1.4-6.268 1.665-9.99-1.177-2.356-.832-7.184-.832-10.824 2.274-3.033 6.262 2.475 9.99 1.664 1.018-3.562 4.146-3.466 2.498-6.66-.308-4.007-1.08-6.503 0-10.823 1.314-3.703 3.228-3.606 6.66-5.827 1.093-3.277-.122-6.03.833-9.99 3.902-.116 3.833-1.133 4.164-4.996 1.26-2.66 2.858-5.356 4.995-7.493 1.967-2.382 4.302-2.147 5.827-5.828 1.308-3.27 1.31-4.75 4.995-5.828 2.696-1.27 4.833-1.41 6.66-3.33 1.733-3.057 3.175-5.487 5.83-9.16 2.63-1.77 15.236 1.666 19.148 1.666 2.118-2.67 5.397-6.86 7.493-8.326 3.587-1.916 4.96-2.497 9.99-2.497 4.288 1.27 6.082 2.795 10.824 1.666 1.932-2.706 3.816-3.965 8.325-2.498 3.433 2.22 5.347 2.124 6.66 5.828 1.947 4.615 1.51 6.192 6.662 6.66 5.18.186 5.71 1.443 9.158 4.163 5.248 2.25 4.995.98 4.995 5.827 3.72 0 4.052-.44 4.163 3.33 2.294.714 4.907 2.72 6.66 4.163 2.094 2.416 2.63 3.93 7.494 4.163 3.59-1.508 4.75-1.496 4.995-5.828 2.75-.982 3.21-3.635 4.162-6.66 2.108-2.885 3.474-3.33 8.325-3.33 4.28 1.772 4.14 3.567 3.33 7.493 2.665.55 3.765.24 4.164 3.33 1.408 2.346 1.04 5.15-.832 6.66 2.132 1.568 3.37 4.256 4.163 7.493-1.41 2.353-.546 5.81 0 8.327 2.913 1.456 4.416 2.81 8.326 4.163 1.983 1.68 6.2 3.44 9.99 4.163 4.482-.606 5.962-.568 9.992 1.665 2.084 2.993 2.235 6.77 4.163 8.326 2.176 1.843 5.82 2.65 7.494 4.995 2.778 2.03 3.594 4.28 7.493 4.994 1.47 2.228 4.634 5.896 5.828 8.326.94 2.694 1.36 7.413 2.498 10.823v11.656c-.158 4.303-.833 6.915-.833 11.655-.74 2.384-1.665 3.3-1.665 6.66-1.582 3.527-2.93 6.49-4.995 9.16-.94 4.234-2.473 6.222-4.163 9.99.052 4.37.832 6.304.832 10.823-1.81 2.69-3.888 4.647-7.494 6.66-2.724 3.188-4.368 4.427-4.995 9.16-1.565 2.704-1.442 2.497-4.994 2.497-4.2 0-7.814.375-11.656.832-3.378 0-4.64.356-6.66-1.665-3.99-1.804-7.346-1.91-11.657-.833-2.325-1.595-3.258-2.498-7.493-2.498-3.16.427-5.965.832-9.99.832-2.496-2.79-3.898-3.33-8.326-3.33-2.356 1.178-7.184.833-10.824.833-3.82-1.043-4.313-2.63-5.828-5.828-2.605-1.236-3.635-3.04-7.493-3.332-3.64 0-8.47.345-10.824-.832-2.723-.327-5.586-1.027-7.493-2.498-1.556-2.288-3.54-4.272-5.828-5.828-3.698 0-5.864.355-7.493-1.665-2.732-2.157-4.89-5.564-8.326-7.493-3.062-2.43-5.136-3.916-6.66-8.326 0-3.943.78-4.874-3.33-4.995-2.756 2.813-4.01 3.33-9.16 3.33-3.388 0-6.93-.017-9.157-.83-3.682-2.09-5.03-3.014-9.16-3.332-2.584 1.645-6.007 3.547-9.99 4.163-3.405 1.967-5.437 2.38-6.66 5.83-3.146 2.567-4.99 4.077-9.16 5.827-2.315 2.21-4.525 2.59-5.827 6.66-.792 3.367-1.665 5.37-1.665 9.99.59 4.37.36 6.238-1.665 9.992-1.74 2.485-4.757 3.7-7.493 5.827-4.116.494-4.548.186-7.493-1.665-2.933-.977-6.266-1.78-9.99-2.498-4.497-.866-6.018-1.96-8.327-4.162l8.326 4.162c-4.496-.866-6.017-1.96-8.326-4.162-5.064-3.583-6.063-5.398-11.656-5.828-5.198.06-7.43.318-8.325 4.995 2.96.788.608 2.553-.834 3.33-2.078 1.85-5.41 3.367-8.326 4.162-1.328 1.328-1.072-1.1-3.33-1.665-3.448-1.842-4.89-3.226-8.326-4.163-1.683-2.97-3.584-5.274-5.828-8.326-1.734-2.818-3.382-3.838-5.828-6.66-1.17-1.754-4.16-1.83-5.827-3.33-1-3.002-3.168-8.57-2.497-11.656 1.68-1.586 2.632-7.243 4.995-8.326 3.367-2.525 4.635-.223 9.16 0 4.258 0-5.867-6.71-1.666-6.66 3.92-.666 4.387-2.595 5.827-4.996h9.99z" fill-rule="evenodd" transform="matrix(.204 0 0 .153 285.641 190.071)" stroke="#000" stroke-width="4.464" fill="#009200"/><path d="M382.98 253.1c.878.713 4.684 2.498 8.326 2.498 3.976.728 4.843 2.216 5.828 5.828 2.174 1.304 3.55 1.665 7.493 1.665 4.36.872 4.322 2.213 7.493 4.996" transform="matrix(.204 0 0 .186 285.641 179.151)" stroke="#006800" stroke-width="4.05" fill="none"/><path d="M358.84 299.72c1.812.266 8.154.832 12.488.832 3.333-1.924 4.912-3.24 7.493-4.995 3.944 0 5.32.36 7.495 1.665 2.105.702 7.052.963 9.158 1.665 0 1.11-.278.833.832.833" transform="matrix(.204 0 0 .186 285.641 179.151)" stroke="#006800" stroke-width="4.05" fill="none"/><path d="M391.31 286.4c.065-.025 3.252-1.946 5.828-2.498 2.835-1.976 5.946-2.94 9.158-4.163 2.117-.46 7.102-.45 8.326-.833" transform="matrix(.204 0 0 .186 285.641 179.151)" stroke="#006800" stroke-width="4.05" fill="none"/><path d="M432.1 273.91v.833c0-2.327-.104-1.09 1.665 3.33.874 4.078 1.95 7.526 3.33 10.823 2.455 3.83 4.058 5.547 7.493 7.493 2.94 2.315 5.164 4.723 8.326 5.827 2.202 1.963 5.106 3.584 8.325 4.996 4.27 0 7.557.686 11.655.832h2.498" transform="matrix(.204 0 0 .186 285.641 179.151)" stroke="#006800" stroke-width="4.05" fill="none"/><path d="M477.06 227.29v.833c0-2.247.055-1.105-.832 3.33-1.257 2.654-2.705 5.124-4.163 7.493-3.915 1.42-5.374 4.277-6.66 7.493-1.373 2.23-3.506 5.17-4.996 7.492-2.59 3.21-3.623 4.242-8.327 5.828" transform="matrix(.204 0 0 .186 285.641 179.151)" stroke="#006800" stroke-width="4.05" fill="none"/><path d="M510.36 244.77c0 .244-1.537 2.434-2.498 4.996-1.653 2.436-2.075 6.86-2.497 9.99 0 3.618.02 7.557.832 9.99 2.516 3.122 3.158 4.765 7.493 6.662l-7.49-6.66c2.516 3.12 3.158 4.764 7.493 6.66" transform="matrix(.204 0 0 .186 285.641 179.151)" stroke="#006800" stroke-width="4.05" fill="none"/><path d="M571.14 273.91v.833c0-2.61.217-1.006-4.163 2.497-3.252 3-5.572 5.416-8.325 7.493-4.732 1.255-5.455 1.182-9.99.833h-7.494" transform="matrix(.204 0 0 .186 285.641 179.151)" stroke="#006800" stroke-width="4.05" fill="none"/><path d="M582.8 337.19h-.832c2.327 0 1.09-.103-3.33 1.665-3.693.923-7.88.982-10.824 0-2.966-1.68-5.955-3.055-8.326-5.828-1.24-.93-1.42-1.306-2.497-1.665" transform="matrix(.204 0 0 .186 285.641 179.151)" stroke="#006800" stroke-width="4.05" fill="none"/><path d="M553.66 363v-.833c0 2.61.217 1.006-4.163-2.498-1.872-2.754-3.748-3.795-7.493-6.66-3.236-3.914-3.66-5.482-4.995-9.992-.357-3.323-1.456-6.734 0-9.158" transform="matrix(.204 0 0 .186 285.641 179.151)" stroke="#006800" stroke-width="4.05" fill="none"/><path d="M492.05 348.84c1.81 0 8.56-.16 11.656-.833 2.418-1.643 5.094-2.746 8.326-4.162 1.764-4.36 3.27-5.81 3.33-10.824" transform="matrix(.204 0 0 .186 285.641 179.151)" stroke="#006800" stroke-width="4.05" fill="none"/><path d="M441.26 323.87c-.652-1.483-3.544-7.436-4.995-10.823-.065-3.638-.833-6.285-.833-9.99" transform="matrix(.204 0 0 .186 285.641 179.151)" stroke="#006800" stroke-width="4.05" fill="none"/><path d="M328.86 350.51c.84.126 4.375.403 6.66 0 3.635-1.86 7.022-2.205 10.823-2.498 1.933-1.16 5.086-1.03 6.66-2.497 3.475-2.316 3.938-4.645 5.83-8.326.166-1.674.664-2.49.83-4.164" transform="matrix(.204 0 0 .186 285.641 179.151)" stroke="#006800" stroke-width="4.05" fill="none"/><path d="M383.81 338.02c-1.828 0-8.658.125-12.49-.833-1.966-1.273-3.362-3.364-4.994-4.995 1.11 0 .833.277.833-.833" transform="matrix(.204 0 0 .186 285.641 179.151)" stroke="#006800" stroke-width="4.05" fill="none"/><path d="M393.8 313.88c.353-.106 4.485-1.665 7.493-1.665 1.79-1.158 4.76-2.237 7.493-3.33 1.48-.797 2.504-1.787 4.163-2.498" transform="matrix(.204 0 0 .186 285.641 179.151)" stroke="#006800" stroke-width="4.05" fill="none"/><path d="M293.06 347.18h.833c-2.25 0-1.1.053 3.33-.833 5.18-.32 8.666-2.11 12.49-3.33 2.495-2.318 5.938-4.635 8.324-5.828 0-1.424-.34-1.275.833-1.666" transform="matrix(.204 0 0 .186 285.641 179.151)" stroke="#006800" stroke-width="4.05" fill="none"/><path d="M504.54 301.39h.833c-2.328 0-1.09-.103 3.33 1.665 3.517 1.346 6.695 1.78 9.99 2.498 2.994.73 4.128 1.665 8.326 1.665 4.19 1.826 5.103 2.397 8.325 4.995 2.465 1.168 4.22 1.665 8.326 1.665 2.18-1.206 6.162-2.61 8.326-3.33 1.21-.908 1.293-.55 1.665-1.665" transform="matrix(.204 0 0 .186 285.641 179.151)" stroke="#006800" stroke-width="4.05" fill="none"/><path d="M430.94 469.54v18.84c0 6.016-.557 11.276-2.355 16.483 0 5.875-.077 11.554-2.355 15.306-.4 5.617-1.177 10.478-1.177 16.483-1.705 5.116-1.504 12.044-2.355 17.662-.738 5.508-1.393 12.06-2.355 16.484-1.754 3.683-4.745 10.348-7.064 12.95-.29 5.085-1.533 7.588 0 11.775 1.64 4.922 1.176 10.85 1.176 16.484 1.537 4.61 1.178 10.003 1.178 15.305" transform="matrix(.204 0 0 .186 288.359 178.531)" stroke="#000" stroke-width="1pt" fill="none"/><path d="M436.82 493.08c.358 2.36 2.118 10.873 2.355 16.484v25.904c0 6.3.532 11.85 1.178 17.66-.084 6.944-1.346 9.54-4.71 15.308-.662 5.56-1.693 10.924-2.355 16.484-1.64 4.923-1.177 10.85-1.177 16.484 1.405 6.322 3.704 7.453 4.71 12.95 0 3.36.32 5.067 1.178 7.066" transform="matrix(.204 0 0 .186 288.359 178.531)" stroke="#000" stroke-width="1pt" fill="none"/><path d="M447.42 535.47c0 2.155-.14 12.532 1.178 16.484 0 6.023 1.106 10.544 1.177 16.484-.714 5.28-1.453 9.084-4.71 11.774-2.144 4.358-3.314 8.235-3.532 14.13 3.043 2.13 6.35 8.078 9.42 10.596 2.566 5.36 4.955 5.59 5.887 11.774 2.458 2.732-1.733 4.154 0 5.887 1.91 2.547.687 1.468 0 3.532" transform="matrix(.204 0 0 .186 288.359 178.531)" stroke="#000" stroke-width="1pt" fill="none"/><path fill-rule="evenodd" transform="matrix(.162 0 0 .147 369.671 198.582)" stroke="#000" stroke-width="3.125" fill="#ffd100" d="M93.248-106.57l15.982 25.596 30.16 1.046-14.17 26.642 14.17 26.642-30.16 1.045L93.248 0 77.262-25.6l-30.16-1.044 14.175-26.642-14.175-26.642 30.16-1.046z"/><path fill-rule="evenodd" transform="matrix(.162 0 0 .147 349.771 198.582)" stroke="#000" stroke-width="3.125" fill="#ffd100" d="M93.248-106.57l15.982 25.596 30.16 1.046-14.17 26.642 14.17 26.642-30.16 1.045L93.248 0 77.262-25.6l-30.16-1.044 14.175-26.642-14.175-26.642 30.16-1.046z"/><path fill-rule="evenodd" transform="matrix(.16 -.019 .021 .146 332.725 203.734)" stroke="#000" stroke-width="3.125" fill="#ffd100" d="M93.248-106.57l15.982 25.596 30.16 1.046-14.17 26.642 14.17 26.642-30.16 1.045L93.248 0 77.262-25.6l-30.16-1.044 14.175-26.642-14.175-26.642 30.16-1.046z"/><path fill-rule="evenodd" transform="matrix(-.16 -.019 -.021 .146 418.451 203.243)" stroke="#000" stroke-width="3.125" fill="#ffd100" d="M93.248-106.57l15.982 25.596 30.16 1.046-14.17 26.642 14.17 26.642-30.16 1.045L93.248 0 77.262-25.6l-30.16-1.044 14.175-26.642-14.175-26.642 30.16-1.046z"/><path fill-rule="evenodd" transform="matrix(-.152 -.049 -.053 .139 433.749 213.492)" stroke="#000" stroke-width="3.125" fill="#ffd100" d="M93.248-106.57l15.982 25.596 30.16 1.046-14.17 26.642 14.17 26.642-30.16 1.045L93.248 0 77.262-25.6l-30.16-1.044 14.175-26.642-14.175-26.642 30.16-1.046z"/><path fill-rule="evenodd" transform="matrix(.152 -.049 .053 .139 316.888 212.51)" stroke="#000" stroke-width="3.125" fill="#ffd100" d="M93.248-106.57l15.982 25.596 30.16 1.046-14.17 26.642 14.17 26.642-30.16 1.045L93.248 0 77.262-25.6l-30.16-1.044 14.175-26.642-14.175-26.642 30.16-1.046z"/></g></g></svg>