<svg xmlns="http://www.w3.org/2000/svg" height="480" width="640" version="1" xmlns:xlink="http://www.w3.org/1999/xlink"><defs><linearGradient id="b"><stop stop-color="#d5dfff" offset="0"/><stop stop-color="#fff" offset="1"/></linearGradient><linearGradient id="a"><stop stop-color="#474747" offset="0"/><stop stop-color="#f50" offset="1"/></linearGradient><linearGradient id="c" y2="173.45" xlink:href="#a" gradientUnits="userSpaceOnUse" x2="110.94" gradientTransform="matrix(1.51 0 0 .652 40.513 .006)" y1="218.47" x1="109.34"/><linearGradient id="d" y2="337.23" gradientUnits="userSpaceOnUse" x2="126.02" gradientTransform="matrix(1.232 0 0 .799 40.513 .006)" y1="316.38" x1="125.91"><stop stop-color="#b50000" offset="0"/><stop stop-color="#ffc500" offset="1"/></linearGradient><linearGradient id="e" y2="147.35" xlink:href="#b" gradientUnits="userSpaceOnUse" x2="456.4" gradientTransform="matrix(.559 0 0 1.761 40.513 .006)" y1="149.38" x1="407.87"/><linearGradient id="f" y2="102.99" xlink:href="#a" gradientUnits="userSpaceOnUse" x2="228.97" gradientTransform="matrix(.741 0 0 1.329 40.513 .006)" y1="102.99" x1="215.83"/><linearGradient id="g" y2="1003.7" xlink:href="#b" gradientUnits="userSpaceOnUse" x2="78.221" gradientTransform="matrix(2.563 0 0 .384 40.513 .006)" y1="1040.4" x1="117.6"/><linearGradient id="h" y2="226.38" xlink:href="#b" gradientUnits="userSpaceOnUse" x2="255.03" gradientTransform="matrix(.886 0 0 1.111 40.513 .006)" y1="245.98" x1="264.72"/></defs><g><path stroke-width="1pt" fill="#006" d="M0 0h640v480H0z"/><g stroke-width="1pt"><path fill="#fff" d="M0 0v32.946l403.223 261.736h50.755v-32.945L50.755 0H0zm453.978 0v32.945L50.755 294.68H0v-32.944L403.223 0h50.755z"/><path fill="#fff" d="M189.157 0v294.68h75.663V0h-75.663zM0 98.227v98.227h453.978V98.227H0z"/><path fill="#c00" d="M0 117.872v58.937h453.978V117.87H0zM204.29 0v294.68h45.398V0H204.29z"/><path fill="#c00" d="M0 294.68l151.326-98.226h33.836L33.836 294.68H0zM0 0l151.326 98.227H117.49L0 21.965V0zm268.816 98.227L420.142 0h33.836L302.652 98.227h-33.836zM453.978 294.68l-151.326-98.226h33.836l117.49 76.263v21.964z"/></g><g><path d="M463.75 349.947s-2.878 7.61-4.523 7.61c-1.646 0-7.61-3.29-7.61-3.29s-4.32 6.99-6.58 7.403c-2.263.41-8.227-1.03-8.227-1.03s-5.758 0-5.964-.82c-.206-.824.206-2.47.206-2.47s-8.227 6.582-10.078 6.17c-1.85-.41-8.02-8.226-8.02-8.226l-1.03 4.123-11.723-.413-10.283-6.584s-5.758 9.46-5.964 9.255c-.205-.206-10.077 2.262-10.077 2.262l-.617-1.85-6.582-3.908s5.14-7.2 5.14-7.405c0-.205-2.467-1.028-2.467-1.028l-3.7 3.085-7.61 4.935-7.61-3.496 3.292-6.168.41-4.525 5.965-9.05 73.008-70.95 35.99 66.427-5.347 19.948z" fill-rule="evenodd" stroke="#000" stroke-width=".861pt" fill="#6a4c2d"/><path d="M515.62 354.25l19.003-.682-8.09-3.996 72.41-2.73-10.232-3.897-9.063-12.28-37.52-2.826s-2.827-2.145-7.407-1.073c-.195-2.923-3.704-6.724-3.704-6.724l-23.097-1.754-14.425 9.842 9.746 24.948 12.378 1.17z" fill-rule="evenodd" stroke="#000" stroke-width=".861pt" fill="#fff"/><path d="M121.32 150.76l2.224-7.561s3.892-6.562 3.892-9.453c0-2.892 2.89-6.34 2.89-6.34s8.897-2.557 10.787 2.892c9.563-14.457 20.794-.668 20.794-.668l3.114-3.67 6.34-7.783s9.006 8.45 9.117 9.895 1.557.445 1.557.445l9.786-.778s4.644 3.635 3.67 10.564c3.448 2.034 6.56 14.01 6.56 14.01l-80.73-1.556z" fill-rule="evenodd" stroke="#000" stroke-width="1pt" fill="url(#c)" transform="matrix(.861 0 0 .861 337.27 11.701)"/><path d="M515.712 218.96c1.452-.892 6.03-2.344 5.472-9.044-.558-6.7-6.365-7.482-9.604-7.258-3.238.223-6.14 3.015-6.14 3.015l-10.722-6.812s5.36-33.835 11.056-35.956c5.408-3.898 6.365-5.583 6.365-6.477s-2.01-3.127-2.01-3.127l-34.954-4.13-33.053 3.907s-2.57 3.91-2.234 5.472.446 3.237 6.364 7.816c6.55 5.036 11.056 33.947 11.056 33.947s-9.27 4.58-9.827 4.02c-.558-.558-3.35-1.116-4.802-.893-1.45.223-6.252 2.68-6.252 9.045s4.802 10.05 4.802 10.05 31.602-3.685 36.292 5.025c4.578-10.496 34.617-6.812 38.19-8.598z" fill-rule="evenodd" stroke="#000" stroke-width=".861pt" fill="#656263"/><path stroke-linejoin="round" d="M549.756 183.79s.35-3.674 2.973-5.423c2.623-1.748 20.11-2.623 24.31 0s5.77 15.566 5.77 15.566 2.623 4.546 2.798 7.87.525 5.596.525 5.596 13.99 18.187 14.166 34.626c1.573 11.193 1.223 41.098-3.15 52.466-.174 14.165-6.12 23.435-6.12 23.435s1.4 2.448 1.224 5.07c-.175 2.625-1.574 5.073-1.574 5.073l20.46 10.144-7.52-2.8s7.697 6.472 7.52 6.297c-.174-.174-8.567-4.02-8.567-4.02l5.07 5.07c-.174-.175-12.416-5.596-12.416-5.596s5.77 5.422 5.42 5.246c-.348-.175-9.267-4.372-9.267-4.372s5.596 5.946 5.42 5.597-8.044-3.498-8.044-3.498l.35 2.973s-6.296-.35-6.296-5.072c-3.148-1.75-5.247-4.197-5.247-4.197l-14.515-2.447-16.44-49.143 3.848-83.07 1.05-4.2-1.75-11.19z" stroke-opacity=".979" fill-rule="evenodd" stroke="#000" stroke-width=".861.25"/><path d="M538.77 449.26s-8.42-17.717-12.62-17.965c-3.787-7.22 13.167-66.265 45.962-69.63 18.03 1.485 1.483 20.785-10.372 14.846 1.48 5.197 7.408 12.62 7.408 12.62s-23.463 10.146-30.378 60.13z" fill-rule="evenodd" stroke="#000" stroke-width=".854973pt" fill="#fb0"/><path d="M425.876 451.844s6.968-20.16 11.2-20.41c4.23-.25-11.2-67.203-44.802-67.7-18.17 1.493-1.493 20.907 10.454 14.933-1.493 5.227-7.467 12.694-7.467 12.694s23.647 10.206 30.616 60.484z" fill-rule="evenodd" stroke="#000" stroke-width=".861pt" fill="#fb0"/><g><path d="M456.7 325.906c-.082-.162-8.34 2.59-2.996 11.578.405-3.48 4.13-5.587 4.13-5.587s-5.67 6.72.323 12.388c.728-5.343 4.13-7.043 4.13-7.043s-4.21 12.388.08 14.898c.486-4.94 3.644-7.126 3.644-7.126s-3.805 11.093-.404 13.603c.405-4.21 3.24-6.073 3.24-6.073s-1.702 11.498 2.752 12.307c.08-4.046 3.32-8.015 3.32-8.015s-1.458 9.393 5.505 9.798c.08-3.563 1.377-7.61 1.377-7.61s3.157 9.958 7.772 8.338c-.08-2.913.08-8.42 0-8.42s2.916 9.474 8.42 7.693c-.808-2.672.325-5.83.325-5.83s2.915 5.91 8.178 3.967c.89-1.78-.243-5.262-.243-5.262s7.692 7.935 10.04 3.157c2.35-4.777-6.154-6.396-6.154-6.396h5.75s-1.863-4.86-9.636-5.912c2.672-1.214 5.425-.324 5.425-.324s-1.62-6.072-9.555-6.72c3.077-1.053 6.478-.324 6.478-.324s-1.053-5.748-9.797-7.368c1.377-1.538 5.1-1.053 5.1-1.053s-3.48-5.425-7.448-5.1-39.837-3.645-39.756-3.564z" fill-rule="evenodd" stroke="#000" stroke-width=".861pt" fill="#00713d"/><g stroke="#3ec26d" stroke-linecap="round" stroke-width="1.25" fill="none"><path d="M492.078 355.137s3.157 1.538 3.076 2.915"/><path d="M493.946 352.63s4.05 2.835 3.968 4.94"/><path d="M497.502 351.167s3.24 2.025 3.4 5.183"/><path d="M502.926 352.468s1.62 3.48 1.053 4.13"/><path d="M506.172 354.327c.243 2.753-.243 2.996-.243 2.996"/><path d="M466.248 336.918s3.805 2.43 3.482 5.83"/><path d="M466.007 339.837s1.78 1.7 1.376 2.833"/><path d="M470.708 337.004s2.51 3.482 1.7 5.91"/><path d="M474.996 339.268s1.133 2.187.08 3.4"/><path d="M477.02 340.32s1.376 2.185.16 2.913"/><path d="M475.486 347.525s3.562.81 4.05 3.482"/><path d="M477.587 345.097s3.724.243 4.13 4.21"/><path d="M482.53 343.72c.08 0 2.51 4.29 2.104 5.667"/><path d="M487.308 344.124s.972 4.13.243 5.425"/><path d="M490.382 345.743c0 .08.08 4.777.08 4.777"/><path d="M485.69 339.268s2.347.892 2.185 3.16"/><path d="M487.868 337.16s2.995 1.7 2.67 4.94"/><path d="M491.355 335.79s2.59 3.076 1.62 6.477"/><path d="M495.883 336.513s-.972 3.806-.567 5.344"/><path d="M498.64 339.105s-1.702 1.296-.812 2.915"/><path d="M483.907 353.923s.566 2.914 0 3.4"/><path d="M480.18 352.227s1.86 3.238 1.213 4.857"/><path d="M476.21 352.063s2.105 2.43 2.024 4.372"/><path d="M472.972 352.545s1.943 1.862 1.782 2.915"/><path d="M471.276 355.378s1.862 1.943 1.78 2.348"/></g></g><path d="M430.998 222.457c8.927-.16 17.853-.32 26.78-.478 0 0 17.695 0 19.608 5.737 3.346-7.65 18.65-7.173 18.65-7.173l27.736-.956.48 66.95c-5.42 25.983-24.23 44.315-44.954 52.126-24.707-7.97-40.33-28.853-45.43-52.604l-2.87-63.603z" fill-rule="evenodd" stroke="#000" stroke-width=".861pt" fill="#fff"/><path d="M440.538 222.207l39.01 103.957 35.24-106.222c-10.93.706-34.387-1.72-37.3 8.255-4.51-8.928-29.184-5.33-36.95-5.99z" fill-rule="evenodd" stroke="#000" stroke-width=".861pt" fill="#006b00"/><path d="M467.092 278.49c1.5.786 1.46-28.213 3.43-29.113.562-2.4.844-3.452 1.548-6.002-1.69-3.003-9.29-2.852-12.106-.3 1.267 4.05 1.83 5.402 1.83 5.402 3.8 6.153 3.046 30.668 5.298 30.013z" fill-rule="evenodd" stroke="#006b00" stroke-linecap="round" stroke-width=".5932289999999999" fill="#ffc900"/><path stroke-linejoin="round" d="M456.64 54.362s2.755-3.132 2.88-3.883c.126-.753 12.527-1.254 19.917-15.033 4.133-7.265 0-3.006 0-3.006l-.25-3.506s5.135-4.885 3.256-7.516c-1.878-2.63-1.253 3.382-4.26 3.257-3.005-.125-1.377-6.513-1.377-6.513s-.25-.752-1.127-1.128c-1.254.125-.878 2.38-2.005 2.63-1.127.25-2.13-5.26-2.13-5.26s-1.878-2.506-3.507 5.386c.877 8.392 6.263 6.764 6.263 12.275 0 5.512-4.76 9.77-6.136 9.896-1.38.126-.878-4.634-.878-4.634s-.75-2.255-1.252-2.255 2.755-.5 2.255-6.763c-1.13-7.515-2.005 1.754-4.01 1.378s-.5-6.89.25-7.64-.876-3.884-5.26 4.133c-.376 3.883-.877-1.002-1.754-.752-1.503 3.132-1.252 5.386.877 8.267 3.13 2.88 5.136 5.762 5.01 7.265-.125 1.504-1.753 4.886-4.008 4.886s.125-4.134 0-5.512c-.126-1.378-3.883-6.388-3.883-6.388s-2.63-4.26-2.38-4.384c.25-.125-.25-.752-1.503 3.632s-2.757-2.88-2.757-2.88-1.753 5.386 2.004 8.642c-2.88-.376-3.13.752-3.13.752 0 1.503 3.882 2.13 4.383 4.76s-4.008 4.133-4.008 4.133 1.88 2.63 7.14-2.506c.125 3.257-2.005 5.51-2.005 5.51 1.754.795 3.13.71 3.382 2.757z" fill-rule="evenodd" stroke="#000" stroke-width=".861.25" fill="#cdad56"/><path stroke-linejoin="round" d="M439.453 54.362s-2.34-3.476-2.446-4.16c-.106-.684-11.516.864-16.916-13.05-3.51-6.612 0-2.736 0-2.736l.214-3.192s-3.735-4.57-2.14-6.964c1.596-2.393.94 3.078 2.99 3.09 2.554-.115 1.17-5.928 1.17-5.928s.213-.684.96-1.026c1.062.114 1.495 3.543 2.453 3.77.957.23 2.935-4.034 3.56-4.91.878-.126.845-3.533 2.23 3.648-.746 7.636-7.073 6.155-7.073 11.17s4.042 8.89 5.21 9.004c1.172.114.746-4.217.746-4.217s.638-2.05 1.063-2.05c.426 0-3.717.796-3.292-4.903.96-5.336 3.08.343 4.783 0 1.703-.34-.2-5.642.288-6.45.115-.81 2.625-4.286 3.593 3.385.32 3.533 2.248-3.042 2.992-2.814 1.277 2.85-.564 6.655-2.373 9.277-2.658 2.62-3.86 5.493-3.754 6.86.106 1.37.737 3.068 2.653 3.068s.646-2.383.753-3.637c.106-1.254 3.297-5.312 3.297-5.312.626-1.002.106-2.873.77-3.74 1.04.013 1.465-1.434 2.53 2.555 1.062 3.99 2.338-2.622 2.338-2.622s1.49 4.9-1.7 7.864c2.446-.342 2.658.684 2.658.684 0 1.368-1.168 1.938-1.594 4.33-.426 2.395 1.274 3.763 1.274 3.763s-1.595 2.392-6.063-2.28c-.107 2.963 1.702 5.014 1.702 5.014-1.49.722-2.658.646-2.872 2.508z" fill-rule="evenodd" stroke="#000" stroke-width=".861.099" fill="#cdad56"/><path d="M508.282 237.713c-2.333-2.117-2.61-.267-3.758-.74-.563-.237-1.004-.764-1.493-1.242-.424-.436-.93-.617-1.492-.853-.21.626-.424 1.253-.636 1.88-.212.628.59 1.666.573 2.607-.16 1.4-.73 2.556-2.484 3.036.5-.992.785-1.04.633-2.25-.076-.604-1.768-1.677-1.56-2.25.31-.92.84-1.983.45-2.902-.722.492-1.662.234-2.383.534-.605.27-.646 1.395-1.488 1.864-.863.404-2.767.204-4.355-.698.97-.737 1.774-.24 2.745-.977.485-.367.463-1.945.95-2.313s1.647-.76 2.133-1.13c-.436-.498-.413-1.285-.85-1.782-.437-.498-2.374-.39-2.81-.888-.874-.994-.708-2.304-1.582-3.298 2.26.81 1.933 1.912 2.5 1.828 1.072-.513 2.14-.615 2.702-.38.563.237 1.632 1.635 2.194 1.872.21-.627.52-1.424.733-2.05.212-.628-.954-1.715-.74-2.342.423-1.253 1.477-2.362 1.9-3.617.154 1.21.354 2.228.507 3.438.075.604 1.265.918 1.34 1.524.077.604-.62 2.007-.544 2.612.65-.13 1.59-.04 2.237-.17.65-.13 1.08-1.64 1.73-1.768 1.298-.26 2.233-.18 3.556.07-.973.904-1.726.843-2.335 1.677-.485.368.19 1.583-1.214 2.436-.527.304-1.914-.063-2.4.305l1.31 1.492s2.398.73 2.835 1.226c.873.996 1.336 2.184 1.097 3.25z" fill-rule="evenodd" stroke-width=".861pt" fill="#ffc900"/><path d="M448.296 238.738c2.333-2.118 2.61-.27 3.758-.74.562-.238 1.003-.765 1.492-1.243.426-.437.93-.618 1.492-.855l.638 1.882s-.592 1.665-.573 2.606c.158 1.4.728 2.556 2.483 3.037-.5-.992-.783-1.04-.63-2.25.075-.606 1.766-1.678 1.557-2.25-.31-.92-.838-1.984-.447-2.903.72.492 1.66.235 2.382.533.605.27.646 1.396 1.488 1.865.863.404 2.766.204 4.355-.698-.97-.737-1.774-.24-2.744-.977-.486-.37-.463-1.946-.95-2.314-.485-.368-1.65-.76-2.134-1.13.437-.496.414-1.284.85-1.78.438-.498 2.374-.39 2.81-.89.875-.994.71-2.303 1.582-3.298-2.26.812-1.932 1.914-2.5 1.83-1.07-.513-2.14-.616-2.703-.38-.56.237-1.63 1.635-2.19 1.87-.214-.626-.523-1.422-.735-2.05-.213-.626.954-1.712.74-2.34-.423-1.253-1.477-2.362-1.902-3.616-.152 1.21-.353 2.226-.505 3.435-.077.606-1.266.92-1.342 1.525-.076.606.62 2.008.546 2.613-.65-.13-1.59-.042-2.238-.17-.648-.13-1.08-1.638-1.73-1.768-1.298-.26-2.232-.18-3.556.068.97.907 1.726.845 2.334 1.678.486.37-.19 1.584 1.215 2.436.527.306 1.915-.06 2.4.308-.437.496-.873.994-1.31 1.492-.436.497-2.398.728-2.834 1.226-.874.994-1.336 2.182-1.097 3.25z" fill-rule="evenodd" stroke-width=".861pt" fill="#ffc900"/><path stroke-linejoin="round" d="M506.19 244.412c-2.112 1.65-15.766 5.102-15.907 16.957-.14 11.855 2.394 14.556-.14 14.857-4.927 0-5.63-13.206-5.49-19.06.14-5.852.28-4.952.28-4.952s3.38.9 3.098 3.753c-.28 2.85 3.38-7.054 2.113-9.756 2.252 2.252 5.207 1.35 5.207 1.2 0-.15-1.688-1.95-2.392-3.3-.704-1.35 2.534.75 2.534.75s.14-2.25-2.675-2.1c-3.66 0 .563-1.202.563-1.202s2.112 1.95 3.52-.15c-1.55-1.65-3.8-2.55-3.8-2.55s-1.972-3.753-4.646-4.503c-3.097-.75-2.675 1.35-6.194 1.05-.704 1.35-.704 1.5.704 1.95-2.393 1.652-1.126 4.953-1.126 4.953s3.8-1.65 3.66 1.05c-.14 2.703-2.253 2.252-3.66.602-1.267-.75-1.69.75-1.69.75l1.97 2.1s-3.8-.15-4.785 2.402c2.112-.15 3.238.45 3.238.45s-4.363 1.95-4.786 3.002c-.42 1.05-.562-1.2-.703-1.2-.14 0-4.222-1.5-4.222-1.5l-1.41 6.488s2.818 2.815 4.366 1.914c1.55-.9 4.364-3.602 6.053-2.852-4.927 3.753-9.853 9.155-12.527 9.905-.705-.6-3.097-3-4.082-1.8-.986 1.2-.283 2.702.985 2.55 1.266-.15-4.082 1.202-2.956 3.453 1.126 2.252.985 2.1 1.97 1.502.986-.6-.844-.75 2.815-1.802 3.66-1.05 3.52-2.1 3.52-2.1s-.704 1.65-2.674 2.1c-1.97.45-3.52.45-3.097 1.05.423.6 1.266 1.65.986 2.252-.282.6 4.082-3.152 5.208-.15 2.956-.15 4.926-3.752 3.52-5.853.14 2.25 1.547 3 .702 4.05s6.616-3.45 2.956-6.15c.987 2.25 1.126 4.05 1.126 4.05s1.69-.15 2.112-.75c.422-.6-.844 1.65-.28 2.102.56.45 3.236 3 2.11 4.802-.704-1.05-.845-2.702-1.69-2.552-.844.15-4.363 2.702-6.474 2.852s2.534 7.804 2.534 7.804-3.238-.45-3.66-.15c-.422.3-2.533-2.702-2.956-.9-.704 2.25.703 1.35.703 1.35s-1.83-.9-2.814.15c-.985 1.05-1.97 2.1-1.268 2.55.705.45 3.802.45 4.223.3s-3.518.3-3.8.752c-.282.45-.845 2.1 0 2.7s2.956-.3 3.096-.75c.14-.45.283 1.65.283 1.65s3.66.3 3.66-3.45.28 2.7.28 2.7 3.66.6 3.8-3.15.423 2.55.423 2.55 2.393-.75 2.393-1.35c0-.6-.14 7.503-1.83 9.755-2.674-1.802-4.364 1.2-4.364 1.2s.14 4.352-.14 5.403c-.282 1.05 1.83-.6 1.97-1.05.14-.45 2.674-1.652 2.815-1.952l.844-1.8s-.564 2.1-1.55 2.4-1.97 1.35-1.548 2.252c.423.9 1.972 1.5 2.534 2.4.563.9 2.534-5.252 2.534-5.252l.14 1.35s2.534-.6 2.816-1.8c.28-1.2-2.675-2.25-.282-4.203 2.393-1.95 0 1.802 0 1.802s.845 2.85 1.408 2.85 1.97-5.402.563-6.752c-1.408-1.35 2.11 1.65 2.11 1.65s1.973-5.552-.14-6.302c-2.11-.75-3.096-1.05-3.096-1.05s1.125-1.502.562-1.65 2.956 3.3 3.52 2.4 1.406-3.603-2.675-5.102c-4.083-1.5-.14-5.703-.14-5.703s2.533 3.002 4.363 1.35c1.83-1.65-.142-1.65-.142-1.65s5.21-3.3 5.35-4.952c-.986-.15-2.675.15-2.675.15s2.956-1.95 2.253-5.102c-1.127 1.65-2.675 1.65-2.675 1.65s2.535-2.55 2.112-4.95c-1.548 1.2-1.408 2.1-2.393 1.8s-2.675-9.755 1.266-10.356c3.94-.6 1.83 4.653 1.97 4.653.14 0 5.913-2.402 0-6.304 1.408-.45 4.364 2.252 4.364 2.252s-1.266-6.604-7.6-2.55c1.548-1.652 2.533-2.703 3.8-2.403 1.267.3 5.772-.15 5.772-1.5-1.126-.9-3.52.45-4.787 0s9.008-1.2 8.165-6.303z" fill-rule="evenodd" stroke="#006b00" stroke-linecap="round" stroke-width=".5932289999999999" fill="#ffc900"/><path d="M481.3 118.54s12.247-6.43 18.37 1.53" transform="matrix(.46 0 0 .49 240.287 190.204)" stroke="#006b00" stroke-linecap="round" stroke-width="1.25" fill="none"/><path d="M504.57 132.32c-.306 0-4.286 3.98-5.205 3.98" transform="matrix(.46 0 0 .49 240.287 190.204)" stroke="#006b00" stroke-linecap="round" stroke-width="1.25" fill="none"/><path d="M512.84 145.18s11.328.918 18.676-10.41" transform="matrix(.46 0 0 .49 240.287 190.204)" stroke="#006b00" stroke-linecap="round" stroke-width="1.25" fill="none"/><path d="M525.08 141.81s.92 6.123 2.756 6.123-3.062 1.53-4.9.306c2.144 2.755 3.37 7.654 0 9.49" transform="matrix(.46 0 0 .49 240.287 190.204)" stroke="#006b00" stroke-linecap="round" stroke-width="1.25" fill="none"/><path d="M519.26 218.97s-3.98 4.286-8.88 4.592" fill-rule="evenodd" transform="matrix(.46 0 0 .49 240.287 190.204)" stroke="#006b00" stroke-linecap="round" stroke-width="1.25" fill="#e80000"/><path d="M523.86 199.37s-2.45-12.247-.92-15.31c.92-3.978 4.9-5.51 7.962-10.715" transform="matrix(.46 0 0 .49 240.287 190.204)" stroke="#006b00" stroke-linecap="round" stroke-width="1.25" fill="none"/><path d="M522.63 190.49s-3.062 7.348-16.533 4.9" transform="matrix(.46 0 0 .49 240.287 190.204)" stroke="#006b00" stroke-linecap="round" stroke-width="1.25" fill="none"/><path d="M526.31 172.12s.92 9.797-11.328 6.123" transform="matrix(.46 0 0 .49 240.287 190.204)" stroke="#006b00" stroke-linecap="round" stroke-width="1.25" fill="none"/><path d="M511.3 128.04s-4.9 4.287-3.062 10.104" transform="matrix(.46 0 0 .49 240.287 190.204)" stroke="#006b00" stroke-linecap="round" stroke-width="1.25" fill="none"/><path d="M529.67 117.32s6.43-2.45 7.654-3.674c1.225-1.224 3.368-3.674 3.98-5.51.613-1.838-4.285-4.594-1.837-8.574 1.53-1.837 3.674-2.143 7.348 0 3.675 2.144-3.367-6.735-7.04-7.042s-6.125 2.45-7.043 1.838c-.92-.613.306 2.45-1.225 2.45s3.062 2.448 2.756 3.98c-.307 1.53 4.898 6.735 4.592 7.96-.306 1.224-7.654 8.266-9.185 8.572z" fill-rule="evenodd" transform="matrix(.46 0 0 .49 240.287 190.204)" stroke-linecap="round" stroke-width="1.25" fill="#006b00"/><path stroke-linejoin="round" d="M534.27 97.112c2.794-.636 3.243.07 2.755 2.45-1.31-.66-1.79-1.218-2.755-2.45z" fill-rule="evenodd" transform="matrix(.46 0 0 .49 240.287 190.204)" stroke="#ffc900" stroke-linecap="round" stroke-width="1.25" fill="#ffc900"/><path stroke-linejoin="round" d="M514.71 233.52s-1.033 6.41 1.49 6.946c-.125-2.48.537-4.176 1.157-4.837-.538-.25-2.522-2.068-2.647-2.11z" fill-rule="evenodd" transform="matrix(.46 0 0 .49 240.287 190.204)" stroke="#006b00" stroke-width="1.25" fill="#e80000"/><path stroke-linejoin="round" d="M509.03 225.63c-2.316-.33-6.23 1.59-5.105 3.91 1.88-1.62 3.626.135 4.94-1.518.405-.453.29-1.812.165-2.392z" fill-rule="evenodd" transform="matrix(.46 0 0 .49 240.287 190.204)" stroke="#006b00" stroke-width="1.25" fill="#e80000"/><path stroke-linejoin="round" d="M509.01 221.05s-3.65-.58-4.157 1.948c2.52-.32 3.274-.59 4.11-.06.24-.54.007-1.762.047-1.888z" fill-rule="evenodd" transform="matrix(.46 0 0 .49 240.287 190.204)" stroke="#006b00" stroke-width="1.25" fill="#e80000"/><path stroke-linejoin="round" d="M493.54 184.94s2.19.828 2.81 3.06c1.737-1.075 2.565-5.83-2.81-3.06z" fill-rule="evenodd" transform="matrix(.46 0 0 .49 240.287 190.204)" stroke="#006b00" stroke-width="1pt" fill="#e80000"/><path stroke-linejoin="round" d="M488.12 190.39c.083-.04 4.59-2.77 5.045-.165-.952.95-1.365 1.57-2.11 1.778-.578 0-1.736-1.778-2.935-1.613z" fill-rule="evenodd" transform="matrix(.46 0 0 .49 240.287 190.204)" stroke="#006b00" stroke-width="1pt" fill="#e80000"/><path stroke-linejoin="round" d="M487.67 199.24c.082-.042 2.894-2.522 3.97-.868 1.074 1.653-.87 1.57-.87 1.57s-.992-.454-3.1-.702z" fill-rule="evenodd" transform="matrix(.46 0 0 .49 240.287 190.204)" stroke="#006b00" stroke-width="1pt" fill="#e80000"/><path stroke-linejoin="round" d="M483.7 149.96c-.04 0-3.597-1.364-5.085 1.116 2.357.29 3.184 1.117 4.258 1.944-.29-1.034-.785-2.605.827-3.06z" fill-rule="evenodd" transform="matrix(.46 0 0 .49 240.287 190.204)" stroke="#006b00" stroke-width="1pt" fill="#e80000"/><path stroke-linejoin="round" d="M476.8 168.52s.165-4.176 2.15-5.87c1.116.62 1.446 1.61 2.19 2.852-1.487.33-3.472.413-4.34 3.018z" fill-rule="evenodd" transform="matrix(.46 0 0 .49 240.287 190.204)" stroke="#006b00" stroke-width="1pt" fill="#e80000"/><path stroke-linejoin="round" d="M486.3 165.54s-3.928 1.82-2.646 3.804c1.282-1.364 2.688-.95 2.688-.992s0-2.77-.042-2.812z" fill-rule="evenodd" transform="matrix(.46 0 0 .49 240.287 190.204)" stroke="#006b00" stroke-width="1pt" fill="#e80000"/><path stroke-linejoin="round" d="M480.64 125.6c-1.406 1.57 1.736 5.003 5.044 4.507.827-3.72-4.217-5.664-5.044-4.507z" fill-rule="evenodd" transform="matrix(.46 0 0 .49 240.287 190.204)" stroke="#006b00" stroke-width="1pt" fill="#ffc900"/><path stroke-linejoin="round" d="M480.6 118.41c-.69 1.75 2.053 4.203 3.638 3.514.648-1.792-2.922-4.906-3.638-3.514z" transform="matrix(.46 0 0 .49 240.287 190.204)" stroke-width="1pt" fill="none"/><path stroke-linejoin="round" d="M484.28 122.75s.62 2.936 3.473 2.15c-.455-2.274-2.44-3.97-2.44-3.97-.123.663.414 1.696-1.033 1.82z" fill-rule="evenodd" transform="matrix(.46 0 0 .49 240.287 190.204)" stroke="#006b00" stroke-width="1pt" fill="#e80000"/><path stroke-linejoin="round" d="M486.18 131.27s1.57 1.695 4.672-1.778c-1.405.413-3.886-.827-3.886-.827s0 2.398-.786 2.605z" fill-rule="evenodd" transform="matrix(.46 0 0 .49 240.287 190.204)" stroke="#006b00" stroke-width="1pt" fill="#e80000"/><path stroke-linejoin="round" d="M480.46 118.86c-1.406 1.57.583 3.762 3.89 3.266.828-3.72-3.063-4.423-3.89-3.266z" fill-rule="evenodd" transform="matrix(.46 0 0 .49 240.287 190.204)" stroke="#006b00" stroke-width="1pt" fill="#ffc900"/><path d="M144.62 266.62s7.037-2.01 10.77 1.005 3.735.287 3.735.287 5.457 2.01 7.037 1.58-1.148.144 1.006-1.15c2.154-1.29-4.31.29-4.883-2.44-1.006-1.724.143-3.878-2.154-3.16-1.58-2.01 1.006-3.446.43-5.6-1.578 1.148-2.44-.432-3.733 2.44-3.015-.574-.43-4.74-3.734-5.17 0 3.016-2.442 3.16-2.585 4.883-1.436 1.006-7.755 4.74-5.888 7.325z" fill-rule="evenodd" fill="url(#d)" transform="matrix(.861 0 0 .861 337.27 11.701)"/><path d="M392.05 438.395c3.932-.948 25.233 4.703 33.445 13.51-1.743-15.683-6.087-27.696-6.087-27.696s-12.694-3.622-14.437-1.88c-2.555 2.692-10.23 10.756-12.92 16.065z" fill-rule="evenodd" stroke="#000" stroke-width=".861pt" fill="#c01500"/><path d="M385.557 365.968c-1.494.25-2.987 1.245-4.48 3.733-1.743 4.232-2.987 14.935-5.476 17.425-2.488 2.49-4.73 2.738-4.73 4.978 0 2.24.25 7.466 6.97 9.458 6.72.25 17.424-10.702 17.424-10.702s5.476-5.974 7.716-12.445c-12.943 4.48-22.152-7.467-17.423-12.445z" fill-rule="evenodd" stroke="#000" stroke-width=".861pt" fill="#c01500"/><path d="M572.745 435.898c-3.9-.943-25.448 4.676-33.596 13.43 1.728-15.59 6.04-27.534 6.04-27.534 1.504-.41 12.458-3.6 14.188-1.866 2.536 2.676 10.7 10.693 13.367 15.97z" fill-rule="evenodd" stroke="#000" stroke-width=".854973pt" fill="#c01500"/><path d="M578.78 363.893c1.483.247 2.007 2.195 3.216 4.668 1.728 4.207 3.51 10.336 5.98 12.81 2.47 2.475 4.693 6.14 4.693 8.368 0 2.225-.522 5.235-7.19 7.214-6.67.248-16.332-8.315-16.332-8.315s-5.433-5.94-7.656-12.372c12.843 4.455 21.16-7.014 17.288-12.372z" fill-rule="evenodd" stroke="#000" stroke-width=".854973pt" fill="#c01500"/><path d="M378.09 424.714s13.44 9.21 13.69 13.44c36.09-53.513 128.186-70.19 180.707-3.733 6.97-9.208 14.187-12.195 14.187-12.195-55.26-72.186-165.277-63.223-208.586 2.488z" fill-rule="evenodd" stroke="#000" stroke-width=".861pt" fill="#fb0"/><g fill="#3fa4d5"><g stroke="#000" fill-rule="evenodd" fill="#1e5aa6"><path d="M515.015 219.96l5.26-.125-9.394 11.9 11.275 13.15-22.17 27.935 20.917 25.177c-2.296 5.637-4.968 10.773-8.518 15.407l-12.024-13.277 21.795-27.182-17.912-20.292 10.772-32.693z" stroke-width=".861pt"/><path d="M439.858 222.336l-5.636.126 10.52 11.398-11.148 13.904 23.174 25.177-19.165 25.68c2.296 5.637 5.595 11.9 9.144 16.534l11.4-14.405-23.425-26.056 17.16-21.794-12.024-30.564z" stroke-width=".861pt"/><path d="M465.912 289.976L457.645 301l29.56 34.195c5.22-2.63 9.313-5.636 13.78-9.27l-15.407-17.786 6.263-18.414 9.02 10.396-28.183 35.95c-4.718-2.004-9.938-5.135-14.656-9.02l14.907-18.913-7.015-18.164z" stroke-width=".861pt"/><path d="M456.768 272.816l5.387 6.764-3.507-9.143-1.88 2.38z" stroke-width=".861pt"/><path d="M495.35 278.8c.118-.125 4.347-5.762 4.347-5.762l-1.646-2.254-2.7 8.016z" stroke-width=".833448pt"/></g></g><text font-weight="bold" transform="matrix(.559 -.655 .655 .559 337.27 11.701)" font-size="14" y="362.397" x="-328.344" font-family="Timmons"><tspan y="362.397" x="-328.344">L</tspan></text><text font-weight="bold" transform="matrix(.605 -.613 .613 .605 337.27 11.701)" font-size="14" y="384.266" x="-292.335" font-family="Timmons"><tspan y="384.266" x="-292.335">E</tspan></text><text font-weight="bold" transform="matrix(.657 -.469 .489 .649 337.27 11.701)" font-size="14" y="451.681" x="-239.78" font-family="Timmons"><tspan y="451.681" x="-239.78">O</tspan></text><text font-weight="bold" transform="matrix(.713 -.482 .482 .713 337.27 11.701)" font-size="14" y="429.958" x="-188.526" font-family="Timmons"><tspan y="429.958" x="-188.526">T</tspan></text><text font-weight="bold" transform="matrix(.777 -.371 .371 .777 337.27 11.701)" font-size="14" y="451.479" x="-115.426" font-family="Timmons"><tspan y="451.479" x="-115.426">E</tspan></text><text font-weight="bold" transform="matrix(.787 -.35 .35 .787 337.27 11.701)" font-size="14" y="453.046" x="-94.111" font-family="Timmons"><tspan y="453.046" x="-94.111">R</tspan></text><text font-weight="bold" transform="matrix(.799 -.321 .321 .799 337.27 11.701)" font-size="14" y="454.982" x="-68.371" font-family="Timmons"><tspan y="454.982" x="-68.371">R</tspan></text><text font-weight="bold" transform="matrix(.858 -.071 .071 .858 337.27 11.701)" font-size="14" y="445.666" x="112.016" font-family="Timmons"><tspan y="445.666" x="112.016">R</tspan></text><text font-weight="bold" transform="matrix(.861 .013 -.013 .861 337.27 11.701)" font-size="14" y="430.793" x="180.225" font-family="Timmons"><tspan y="430.793" x="180.225">R</tspan></text><text font-weight="bold" transform="matrix(.748 .426 -.426 .748 337.27 11.701)" font-size="14" y="275.217" x="414.759" font-family="Timmons"><tspan y="275.217" x="414.759">R</tspan></text><text font-weight="bold" transform="matrix(.661 .551 -.551 .661 337.27 11.701)" font-size="14" y="193.05" x="483.878" font-family="Timmons"><tspan y="193.05" x="483.878">E</tspan></text><text font-weight="bold" transform="matrix(.83 .156 -.133 .82 337.27 11.701)" font-size="14" y="414.028" x="309.116" font-family="Timmons"><tspan y="414.028" x="309.116">O</tspan></text><text font-weight="bold" transform="matrix(.777 -.114 .117 .839 337.27 11.701)" font-size="14" y="459.272" x="105.058" font-family="Timmons"><tspan y="459.272" x="105.058">O</tspan></text><text font-weight="bold" transform="matrix(.808 -.299 .299 .808 337.27 11.701)" font-size="14" y="455.835" x="-45.708" font-family="Timmons"><tspan y="455.835" x="-45.708">A</tspan></text><text font-weight="bold" transform="matrix(.607 .611 -.611 .607 337.27 11.701)" font-size="14" y="144.724" x="518.35" font-family="Timmons"><tspan y="144.724" x="518.35">A</tspan></text><text font-weight="bold" transform="matrix(.844 .17 -.17 .844 337.27 11.701)" font-size="14" y="388.298" x="271.188" font-family="Timmons"><tspan y="388.298" x="271.188">A</tspan></text><text font-weight="bold" transform="matrix(.846 -.159 .159 .846 337.27 11.701)" font-size="14" y="455.168" x="40.322" font-family="Timmons"><tspan y="455.168" x="40.322">M</tspan></text><text font-weight="bold" transform="matrix(.856 -.089 .089 .856 337.27 11.701)" font-size="14" y="448.079" x="94.429" font-family="Timmons"><tspan y="448.079" x="94.429">P</tspan></text><text font-weight="bold" transform="matrix(.861 -.022 .022 .861 337.27 11.701)" font-size="14" y="437.607" x="155.088" font-family="Timmons"><tspan y="437.607" x="155.088">P</tspan></text><text font-weight="bold" transform="matrix(.749 .424 -.424 .749 337.27 11.701)" font-size="14" y="276.665" x="405.134" font-family="Timmons"><tspan y="276.665" x="405.134">P</tspan></text><text font-weight="bold" transform="matrix(.855 .099 -.099 .855 337.27 11.701)" font-size="14" y="409.793" x="232.095" font-family="Timmons"><tspan y="409.793" x="232.095">I</tspan></text><text font-weight="bold" transform="matrix(.592 .625 -.625 .592 337.27 11.701)" font-size="14" y="132.089" x="530.392" font-family="Timmons"><tspan y="132.089" x="530.392">T</tspan></text><text font-weight="bold" transform="matrix(.689 .516 -.516 .689 337.27 11.701)" font-size="14" y="218.519" x="464.158" font-family="Timmons"><tspan y="218.519" x="464.158">T</tspan></text><text font-weight="bold" transform="matrix(.826 .243 -.243 .826 337.27 11.701)" font-size="14" y="361.961" x="313.725" font-family="Timmons"><tspan y="361.961" x="313.725">M</tspan></text><text font-weight="bold" transform="matrix(.58 .636 -.636 .58 337.27 11.701)" font-size="14" y="123.248" x="513.704" font-family="Timmons"><tspan y="123.248" x="513.704">G</tspan></text><g stroke="#fff700" stroke-linecap="round" stroke-width="1pt" fill="none"><path d="M557.634 184.71s5.194-4.452 8.904-4.576"/><path d="M558.383 184.09c.124-.123 31.04-4.45 32.03-5.44"/><path d="M558.504 184.34c.124-.124 34.626-2.968 34.626-2.968"/><path d="M558.383 184.46s36.728-1.73 38.954.125"/><path d="M558.254 184.34s35.987.247 36.605 1.113"/><path d="M558.383 184.34l34.626 2.844"/><path d="M558.013 184.59c.123 0 35.244 3.092 38.706 7.543"/><path d="M598.566 198.435c-.123-.123-11.994-14.22-40.685-13.974"/><path d="M558.013 184.71s19.91 1.36 26.217 8.286"/><path d="M558.383 184.46s12.86-2.472 26.34 13.728"/></g><path d="M247.4 217.74s20.718.813 20.718 2.844-15.437 5.89-15.64 14.422c-.203 8.53 11.78 9.14 12.593 19.905.814 10.767-9.342 12.39-11.374 15.235-2.03 1.422-6.906 16.656-6.296 25.593.61 8.938 3.25 39.203 7.92 45.296 3.658 2.844 9.142 11.984 15.032 9.14 5.89-2.843 1.828-13.202 1.22-16.046s2.436-7.516 2.436-11.78c0-4.267-2.234-7.72-2.03-8.735.202-1.016 16.452 3.86 15.436 19.906-1.015 16.045-7.515 11.17-7.515 11.17s2.03 19.703-3.048 22.343c-9.14 4.875-15.843-1.015-15.843-1.015l.858 4.007-6.953-3.6s-8.937-12.798-10.968-18.485-4.47-31.077-3.656-36.56c.813-5.486 1.422-37.58 1.016-39.204s-2.03-28.436-1.015-32.5c1.016-4.06 7.313-21.936 7.11-21.936z" fill-rule="evenodd" stroke="#000" stroke-width="1pt" fill="url(#e)" transform="matrix(.861 0 0 .861 337.27 11.701)"/><path d="M531.047 194.63s12.416-12.068 19.587-10.67c3.673 0 .174 2.625.174 2.625s6.296.524 7.17 3.322c.176 1.225-2.972 1.574-2.972 1.574s2.623.526 2.798 2.8-26.583.524-26.757.35z" fill-rule="evenodd" stroke="#000" stroke-width=".861pt" fill="#ff7000"/><path d="M531.744 194.104s13.29-1.75 18.888-7.345" stroke="#000" stroke-width=".861pt" fill="none"/><path d="M545.21 190.436s9.794-.35 9.794 1.05" stroke="#000" stroke-width=".861pt" fill="none"/><path stroke-linejoin="round" d="M580.012 333.49s8.394-1.922 10.668-4.895c1.4-1.05 8.745 11.017-10.668 4.896z" fill-rule="evenodd" stroke="#000" stroke-width=".861.25" fill="#fff"/><path d="M577.74 264.06s1.048 6.47-1.926 10.843c-1.574 1.748-6.295 4.72-6.295 6.82 0 2.1 1.747 4.897 1.398 7.346s-2.973 4.896-2.798 6.994c0 2.1 2.973 13.292 2.623 13.466" stroke="#fff" stroke-linecap="round" stroke-width=".861.25" fill="none"/><path d="M562.353 243.078s-6.646 2.273-8.045 8.92" stroke="#fff" stroke-linecap="round" stroke-width=".861.25" fill="none"/><path d="M559.546 190.436s2.274 6.296 9.62.35c-4.723-6.47-9.62-.175-9.62-.35z" fill-rule="evenodd" stroke="#000" stroke-width=".861pt" fill="#c75b00"/><path d="M564.973 190.17c0 .34-.352.613-.787.613s-.787-.274-.787-.612c0-.337.35-.61.786-.61s.787.273.787.61z" fill-rule="evenodd"/><path d="M499.49 175.825s13.93 15.075 22.94 14.91c1.64 4.426-4.09 8.542-6.384 10.507-4.588-1.474-8.735.27-19.385-12.84.656-8.356 2.995-12.25 2.83-12.577z" fill-rule="evenodd" stroke="#000" stroke-width=".861pt" fill="#fff"/><path d="M518.338 140.756c1.803-5.57 5.408-9.995 8.52-10.487-.818-4.26 6.556-23.105 28.02-30.315 1.312 9.668-9.175 19.172-9.175 19.172s31.625-5.407 38.016-13.437c-.657 3.605-7.047 26.054-40.802 25.89 12.78 12.126-4.097 21.794-11.307 18.844 13.274-10.16-3.768-16.222-13.272-9.668z" fill-rule="evenodd" stroke="#000" stroke-width=".861pt" fill="#fff"/><path d="M529.152 132.895c6.39-4.096 8.685-4.096 13.93-3.277-3.77.492-3.77.656-3.77.656s-.328.49 1.966 2.62c-2.62-.654-4.915-2.13-12.125 0z" fill-rule="evenodd" stroke="#ccc" stroke-width=".861pt" fill="#cccccd"/><path d="M526.69 130.27s12.617-6.72 19.664-11.307" stroke="#000" stroke-width=".861pt" fill="none"/><path d="M515.876 201.224s17.37 4.752 19.335-20.155c-3.767-10.816-9.01-34.084-.982-40.802-7.374-5.08-15.403.164-15.403.164-.492 1.147-7.046 10.487 1.802 26.874-20.974-5.572-12.453 14.255-12.453 14.255.82-3.112 11.962-6.062 14.747 9.833 1.148 3.933-7.537 9.995-7.045 9.832z" fill-rule="evenodd" stroke="#000" stroke-width=".861pt" fill="#00f"/><path d="M535.377 181.232s18.353-9.832 17.86-32.936c-15.566.328-21.136 20.482-21.136 20.482l3.278 12.454z" fill-rule="evenodd" stroke="#000" stroke-width=".861pt" fill="#00f"/><path d="M453.118 180.087s-13.6 11.798-21.302 8.03c-5.736 3.44-12.454-2.623-12.454-2.623s7.865 29.004 36.05 8.03c-.492-6.39-1.967-12.946-2.295-13.437z" fill-rule="evenodd" stroke="#000" stroke-width=".861pt" fill="#fff"/><path d="M431.653 187.62c1.147-6.062 5.9-9.012 9.668-3.277 5.08.983 10.16-19.827-7.864-16.385 5.08-27.2-10.16-37.36-10.16-37.36s-5.407 30.15-2.95 35.72c2.46 5.572-3.604-10.322-23.103-14.746C396.915 174.35 419.037 185 419.037 185s6.226 5.734 12.617 2.62z" fill-rule="evenodd" stroke="#000" stroke-width=".861pt" fill="#00f"/><path d="M433.452 167.792s-8.52 7.21-6.554 17.04" stroke="#000" stroke-width=".861pt" fill="none"/><path d="M420.51 166.81s-1.965 7.046 2.296 17.042" stroke="#000" stroke-width=".861pt" fill="none"/><path d="M419.2 186.148s3.933-6.39 12.454 1.803" stroke="#000" stroke-width=".861pt" fill="none"/><path d="M420.84 141.9c0-.162-12.946 0-5.245 13.11-5.735 1.803-18.517-6.554-9.668-17.697-29.004-.655-40.8-14.583-40.8-27.364 8.52 8.847 28.838 5.242 36.048 10.65-8.848-8.194-7.046-19.5-7.046-19.5s24.742 7.374 29.166 29.33c-1.474 4.26-2.13 11.8-2.458 11.47z" fill-rule="evenodd" stroke="#000" stroke-width=".861pt" fill="#fff"/><path d="M400.934 120.032c4.775 4.858 17.044 6.31 23.27 11.717" stroke="#000" stroke-width=".861pt" fill="none"/><path d="M406.583 134.368s10.157-1.31 13.1 2.294c-3.973 0-5.298-.984-11.04 1.147 1.62-.82 1.178-2.295 2.06-2.295s-3.68-1.147-4.12-1.147z" fill-rule="evenodd" stroke="#ccc" stroke-width=".816228" fill="#cccccd"/><path d="M457.216 54.894s5.57-4.916 11.634-.492c-2.74 8.185-12.617 5.08-12.617 5.08s.327 4.096-.656 6.063c1.978 1.486 3.605 6.39 3.605 6.39s10.16-2.458 12.29 1.967c3.89-.537 6.718 0 6.718 0s7.866-1.967 10.65-1.967c2.787 0 11.635 2.294 12.454 3.933.82 1.64 3.77 12.617 5.736 12.454 1.966-.164-4.752 2.62-6.555-.164-1.802-2.786-1.31 3.605-1.31 3.605s5.57 5.9 6.226 7.21c.656 1.31-3.44 11.96-.327 19.335-2.728.252-2.95 3.113-2.95 3.113-.15 3.247-4.26 4.098-4.26 4.098l-.983-4.424-2.785 1.638 1.147-3.44s3.768-9.178 4.096-12.126c.328-2.95-3.44-8.193-6.39-8.193-2.95 0-5.08 9.34-5.08 9.34s-1.475 7.046-.983 7.7c.49.657-1.967-2.293-1.967-2.293s-1.31 4.26-2.294 5.57c-.983 1.312-3.113 1.804-3.113 1.804s-1.474-4.26-.982-5.9c.49-1.638 8.03-8.028 7.374-12.616-.656-4.588 0-3.44-.164-3.605-.164-.164-3.933-3.44-4.097-5.244-.163-1.803-4.915 2.293-11.14.982-1.907 3.33-2.13 11.634-2.13 11.634s-.657 9.996.654 11.142c1.31 1.147-3.277 3.605-3.277 3.605l-3.277 4.425s-1.147-2.786-1.147-2.622c0 .164-2.294 1.638-2.294 1.638l1.31-3.277c-.08-2.48 3.185-9.256 3.185-14.992 0-5.735.42-11.88.42-11.88s-6.063-.33-5.9 5.898c.164 6.226-1.474 6.554-1.146 8.357.326 1.802 1.965 6.882 1.473 8.356-.49 1.475-2.458 1.967-2.458 1.967l-.49.82s-6.064 2.785-5.9 3.932c.164 1.147-.164-3.277-.164-3.277l-.327-4.752s3.605-2.294 3.605-8.03c0-5.735-.83-6.55-.667-7.86.165-1.312.996-6.068.832-6.56-.164-.49-3.44 1.31-4.424 1.31s1.802-3.44 2.13-5.898c.328-2.458-3.277 2.294-6.227-.49 1.373-3.027 3.442-3.934 3.77-6.228s-2.294 1.967-4.588.328c.186-2.2 2.458-4.097 2.458-4.097s-1.867-.227-2.622 0c-1.475-.49 1.64-2.784 1.803-6.06.164-3.28-1.802-4.59-1.802-4.753 0-.164-3.277-2.95-3.77-4.097-.49-1.147-.49-2.458-.49-2.458s-5.408 3.933-11.8-4.424c5.854-4.996 12.127-1.31 12.127-1.31s1.64-4.59 9.176-4.26c7.54.326 9.014 4.587 8.686 4.095z" fill-rule="evenodd" stroke="#000" stroke-width=".861pt" fill="#923f00"/><path d="M498.44 139.654c.137 0 13.92.41 14.056 7.78.137 7.368-4.23 5.457-4.367 5.457s-10.1-1.227-10.1-1.227l.41-12.01z" fill-rule="evenodd" stroke="#000" stroke-width=".861pt" fill="#00f"/><path d="M485.06 137.605s17.196-.136 16.24 7.37c-.955 7.505-5.322 6.004-5.322 6.004l-8.325-.684-2.593-12.69z" fill-rule="evenodd" stroke="#000" stroke-width=".861pt" fill="#fffeff"/><path d="M475.374 136.787l9.962.82s6.005.818 5.732 6.55c-.273 5.73-6.14 5.867-6.14 5.867l-9.69-.546.136-12.69z" fill-rule="evenodd" stroke="#000" stroke-width=".861pt" fill="#00f"/><path d="M452.04 139.654c-.135 0-13.918.41-14.055 7.78-.136 7.368 4.23 5.457 4.367 5.457s10.1-1.227 10.1-1.227l-.414-12.01z" fill-rule="evenodd" stroke="#000" stroke-width=".861pt" fill="#fff"/><path d="M465.413 137.605s-17.195-.136-16.24 7.37c.956 7.505 5.322 6.004 5.322 6.004l8.325-.684 2.593-12.69z" fill-rule="evenodd" stroke="#000" stroke-width=".861pt" fill="#00f"/><path d="M475.107 136.787l-9.96.82s-6.006.818-5.733 6.55c.273 5.73 6.14 5.867 6.14 5.867l9.69-.546-.137-12.69z" fill-rule="evenodd" stroke="#000" stroke-width=".861pt" fill="#fff"/><path d="M501.78 219.64s7.165-10.556 10.18-9.425c2.64.88.63 9.05-.628 9.803l-9.552-.377z" fill-rule="evenodd" stroke="#000" stroke-width=".861pt" fill="#5e0043"/><path d="M452.678 221.527c-2.262-3.142-5.53-11.814-8.546-9.427-2.64.88-.628 9.05.63 9.804l7.916-.377z" fill-rule="evenodd" stroke="#000" stroke-width=".861pt" fill="#5e0043"/><path d="M457.423 200.647s13.958 8.6 18.537 8.822c4.578.223 19.095-11.168 19.095-11.168" stroke="#000" stroke-width=".861pt" fill="none"/><path d="M458.766 166.93l2.68-3.35 13.4 6.812 13.624-6.03 2.68 2.792-15.187 10.72-17.197-10.943z" fill-rule="evenodd" stroke="#000" stroke-width=".861pt" fill="#5e0043"/><path stroke-linejoin="round" d="M448.124 166.75c1.088 1.375 9.75 11.906 11.312 20.616 1.564 8.71-.893-11.95-.893-11.95s10.72 5.25 11.055 8.6c.335 3.35 5.125-.227 5.355-.8l-31.038-20.16 4.21 3.694z" fill-rule="evenodd" stroke="#474747" stroke-width=".861.25" fill="#474747"/><path stroke-linejoin="round" d="M501.084 166.147s-11.278 14.852-9.94 31.044c-2.325-7.752-.445-20.546-.445-20.546l-2.458 1.563s-2.568 10.943-5.807 12.62c-.546-1.305-.446-1.788-.446-1.788s-3.463 4.466-4.133 4.912c-.67.447.223 15.076.223 15.076s1.163 10.602 2.503 10.49c-1.525.75-3.396 1.908-3.396 1.908l-1.39-28.31 3.176-3.183s4.244-5.137 4.58-10.162c-1.843 1.564-3.91 2.01-3.91 2.01s-.558 7.148-2.233 8.153c-1.675 1.005-1.72 2.87-1.72 2.87l-.4-9.34 25.793-17.315z" fill-rule="evenodd" stroke="#474747" stroke-width=".861.25" fill="#474747"/><path d="M475.288 183.34l2.18 44.663" stroke="#000" stroke-linecap="round" stroke-width=".861.25" fill="none"/><path d="M447.822 204.668s5.137 3.015 7.036 12.172c16.75-1.228 21.998 4.69 21.998 4.69s13.736-6.588 20.1-5.36c2.233-4.69 8.6-10.72 8.6-10.72" stroke="#000" stroke-width=".861pt" fill="none"/><path d="M440.814 160.895l34.48 22.557 31.043-20.88s6.477-3.575 5.918-6.143-2.79-1.565-3.908-1.118c-1.117.447-32.496 22.67-32.496 22.67l-33.388-21.106s-2.456-.782-2.903.78.92 2.458 1.254 3.24z" fill-rule="evenodd" stroke="#000" stroke-width=".861pt" fill="#b4b6b9"/><path stroke-linejoin="round" d="M502.47 155.04s-8.822-3.745-8.822-.5c0 3.247.25 3.58 1.665 5.66s-1.082 3.412-1.082 3.412-.332-.915-.83-2.33c-.5-1.415-5.244-2.413-5.66-4.078-.417-1.664.998-4.328-1.832-4.66-2.83-.333-5.576 1.165-6.158 4.41-.583 3.246-4.245 10.82-4.245 10.82l.5-17.228c6.214.444 17.754 1.803 26.63 2.83-2.662-.416 1 .166.917 1.082-.25.75-1.165.832-1.082.582z" fill-rule="evenodd" stroke="#474747" stroke-width=".861.25" fill="#474747"/><path stroke-linejoin="round" d="M471.26 150.71c-1.582 0-9.49.915-11.486 2.08-1.997 1.165 3.246 2.996 2.58 4.577-.666 1.582-.75 4.744-3.246 4.078-2.497-.665-10.902-4.827-11.15-6.24-.25-1.416-2-1.5-2-1.5s24.136-3.245 25.302-2.996z" fill-rule="evenodd" stroke="#474747" stroke-width=".861.25" fill="#474747"/><path d="M475.064 148.73l-.06 21.164" stroke="#000" stroke-width=".861pt" fill="none"/><path d="M458.766 123.795s-9.67 15.702-9.862 16.18" stroke="#000" stroke-width=".861pt" fill="none"/><path d="M161.8 129.74s4.893 6.672 4.337 8.562c2 1.557 4.225 7.784 4.225 7.784" fill-rule="evenodd" stroke="#000" stroke-width="1pt" fill="url(#f)" transform="matrix(.861 0 0 .861 337.27 11.701)"/><path d="M492.853 122.45s-9.096 12.83-8.808 13.79" stroke="#000" stroke-width=".861pt" fill="none"/><path d="M446.17 61.44c-.204.717-1.362.995-2.585.62s-2.047-1.26-1.84-1.977c.205-.717 1.362-.994 2.585-.62s2.047 1.26 1.84 1.977z" fill-rule="evenodd"/><path d="M449.928 61.187c.205.717 1.363.995 2.586.62s2.047-1.26 1.84-1.977c-.205-.717-1.362-.994-2.585-.62s-2.048 1.26-1.842 1.977z" fill-rule="evenodd"/><path stroke-linejoin="round" d="M556.386 326.94s-3.373.63-3.267.947-9.803.633-10.014.317c-.21-.317-1.475 1.686-1.475 1.686l1.582-.95s2.424 2.53 3.16 2.32c.74-.21-.315.95-.104 1.16.21.21.948-.422.948-.422l16.38-.274-7.21-4.785z" fill-rule="evenodd" stroke="#000" stroke-width=".861pt" fill="#ff7000"/><path stroke-linejoin="round" d="M562.49 332.036l-13.377.387s-3.373 3.057-3.583 3.794 2.213.95 2.213.95l.738 2.53 1.687-.634s11.375 1.692 21.817-.632c5.27-1.844 6.192-4.057 2.503-5.4-3.69-1.344-11.89-.94-11.996-.994z" fill-rule="evenodd" stroke="#000" stroke-width=".861.25" fill="#ff7000"/><path d="M208.37 403.93l27.97-1.246-5.208-4.416 75.647-3.058-2.606-6.002-84.707 3.398 10.192 4.756-22.876.68.68 2.377-6.002-.227s6.68 2.605 6.908 3.737z" fill-rule="evenodd" stroke="#000" stroke-width="1pt" fill="url(#g)" transform="matrix(.861 0 0 .861 337.27 11.701)"/><path d="M239.73 249.42c-2.222-1.11-11.998-2.444-22.884 4.666l.444 25.106s15.997-8.665 23.773-6.666c-.444-7.776-.444-17.774-1.333-23.106z" fill-rule="evenodd" stroke="#000" stroke-width="1pt" fill="url(#h)" transform="matrix(.861 0 0 .861 337.27 11.701)"/><path d="M410.52 292.086l-56.79 56.376" stroke="#000" stroke-width=".861pt" fill="none"/><path d="M435.83 292.5l-46.092 60.7" stroke="#000" stroke-width=".861pt" fill="none"/><path d="M433.77 276.657l-61.522 74.485" stroke="#000" stroke-width=".861pt" fill="none"/><path d="M370.396 350.108l5.967-6.995" stroke="#000" stroke-width=".861pt" fill="none"/><path d="M445.498 314.1l-23.87 32.926" stroke="#000" stroke-width=".861pt" fill="none"/><path d="M420.6 351.348l.617 12.545" stroke="#000" stroke-width=".861pt" fill="none"/><path d="M456.398 325.622l-25.307 31.686" stroke="#000" stroke-width=".861pt" fill="none"/><path d="M451.878 354.844l10.288-16.872" stroke="#000" stroke-width=".861pt" fill="none"/><path d="M455.787 334.68l-12.345 13.99" stroke="#000" stroke-width=".861pt" fill="none"/><path d="M452.084 321.515l-8.436 10.288" stroke="#000" stroke-width=".861pt" fill="none"/><path d="M441.175 306.49s-25.718 37.653-25.307 40.74" stroke="#000" stroke-width=".861pt" fill="none"/><path d="M438.498 301.557c-.617.41-22.222 29.01-22.222 29.01" stroke="#000" stroke-width=".861pt" fill="none"/><path d="M415.045 339.613l-3.91 4.732" stroke="#000" stroke-width=".861pt" fill="none"/><path d="M406.197 351.555l-5.966 7.818" stroke="#000" stroke-width=".861pt" fill="none"/><path d="M407.71 205.426s-1.743 5.476 0 8.214 12.693 24.89 12.693 24.89 7.467-9.21 10.205-9.458c2.738-.25 1.493 23.894 1.493 23.894s-4.478 4.232-7.216 3.983c-2.74-.25 6.72 9.457 6.47 17.67s-12.444 49.034-16.925 49.782c-4.48.746 1.99-7.468 1.742-9.708-.25-2.24-1.494-.747-2.49-3.236-.995-2.49 1.494-6.222.996-8.71s-2.738-1.992-2.987-3.735 1.495-2.24 1.246-4.23c-.25-1.992-2.987-1.495-2.738-3.237.25-1.742.498-.996.25-4.23-.25-3.237-.748 2.24-3.486 2.488-2.738.25-4.978 6.47-4.978 6.47s-5.476 7.718-10.952 4.232c3.236 6.97.747 9.957-.497 10.206s.995 5.476-1.992 5.724 2.24 11.7-1.244 12.694c3.732 1.743.746 3.983.746 3.983s-8.63.717-6.72 11.947c-25.39-8.945-37.834-24.375-37.585-40.053.25-15.68 5.228-29.868 17.424-35.096 3.485-12.942 9.458-26.88 9.458-26.88s-.995-5.725-.25-9.46c.748-3.732 4.233-7.465 4.233-7.465s-.498-8.96-.25-13.44c.25-4.48 1.992-6.473 2.24-8.96.25-2.49-.746-15.185 1.743-17.424 2.49-2.24 7.218-1.99 9.707-3.485 2.49-1.492 5.725-4.23 8.96-3.982s5.974 2.49 5.974 2.49 12.195 0 12.942 4.73c.746 4.728-2.49 6.47-2.49 6.47s1.743 6.72-5.724 12.943z" fill-rule="evenodd" stroke="#2b2b2b" stroke-width=".861pt" fill="#8a9396"/><path d="M396.932 188.112c.39.72-.5 1.96-1.987 2.765s-3.01.874-3.4.153c-.392-.722.497-1.96 1.985-2.766s3.01-.874 3.402-.152z" fill-rule="evenodd" stroke="#2b2b2b" stroke-width=".861pt" fill="#cecfcf"/><path d="M394.783 189.395c0 .455-.414.824-.924.824-.512 0-.926-.37-.926-.825 0-.455.414-.823.925-.823.51 0 .923.368.923.823z" fill-rule="evenodd"/><path d="M413.013 197.677s3.023 13.497-.592 22.82" stroke="#2b2b2b" stroke-width=".538125" fill="none"/><path d="M413.943 191.77s5.898 7.8 5.137 17.504" stroke="#2b2b2b" stroke-width=".538125" fill="none"/><path d="M414.514 190.057c.19 0 4.946 4.186 4.756 7.04" stroke="#2b2b2b" stroke-width=".538125" fill="none"/><path d="M415.655 188.344s3.235 2.283 3.996 4.566" stroke="#2b2b2b" stroke-width=".538125" fill="none"/><path d="M414.133 187.01s-11.605 18.834-10.083 30.63" stroke="#000" stroke-width=".861pt" fill="none"/><path d="M414.894 186.44s-15.41 9.134-18.264 39.003" stroke="#2b2b2b" stroke-width=".538125" fill="none"/><path d="M413.182 191.96l-6.088 4.566" stroke="#000" stroke-width=".861pt" fill="none"/><path d="M390.922 227.158s8.562-35.58 23.782-40.715" stroke="#2b2b2b" stroke-width=".538125" fill="none"/><path d="M420.602 239.143s8.18-10.274 10.083-9.893c1.903.38 1.332 23.782 1.332 23.782s-6.088 4.566-7.42 4.375c-1.332-.19 6.85 11.035 6.66 15.22-.19 4.187-.382 4.187-.382 4.187s0-2.474-1.902-6.47c-1.903-3.994-.76-8.56-13.128-18.644-3.044-6.278 6.088 3.805 7.99 2.283 1.903-1.522-3.424-14.65-3.233-14.84z" fill-rule="evenodd" stroke="#2b2b2b" stroke-width=".861pt" fill="#2b2b2b"/><path d="M406.058 181.284s-3.44.938-3.91 2.345c-.468 1.406-2.5 2.813-3.594 2.344-1.095-.47-3.127-2.19-3.127-2.19" stroke="#2b2b2b" stroke-width=".861pt" fill="none"/><path stroke-linejoin="round" d="M386.516 193.32s-5.16 5.16-2.658 5.785c2.5.625 5.16-4.065 5.16-4.065s0 7.973 2.188 6.723 8.598-5.785 8.598-5.785 2.19-.156 2.658 0c.47.156 5.94 4.847 9.537 3.127-2.034 5.315-4.38 5.94-4.38 5.94s-3.75 4.847-8.597 3.753c-4.847-1.095-6.098-3.127-6.098-3.127s-4.064.314-5.315-1.562c-1.25-1.876-1.72-2.97-1.72-2.97s-2.345 2.344-2.97 1.25c-.625-1.094 0-7.504 3.596-9.067z" fill-rule="evenodd" stroke="#2b2b2b" stroke-width=".861.25" fill="#2b2b2b"/><path d="M415.75 186.13s-9.535-2.813-12.818 1.877c-3.283 4.69-2.502 7.348-.782 7.817" stroke="#2b2b2b" stroke-width=".861pt" fill="none"/><path d="M417.222 185.864c0 1.124-.804 2.036-1.797 2.036s-1.798-.912-1.798-2.036.805-2.036 1.798-2.036 1.797.912 1.797 2.036z" fill-rule="evenodd"/><path d="M389.467 210.196s3.89 5.982 8.525 7.628-3.215 3.066-7.852-.075c-3.365-4.563-2.467-7.853-2.467-7.853s.897-.898 1.794.3z" fill-rule="evenodd" stroke="#2b2b2b" stroke-width=".861pt" fill="#2b2b2b"/><path d="M422.746 245.497s-10.92-15.18-14.06-16.003c-3.14-.823 2.394-1.496 5.76 1.72 3.364 3.215-.9-5.235-.9-5.235l9.2 19.517z" fill-rule="evenodd" stroke="#2b2b2b" stroke-width=".861pt" fill="#2b2b2b"/><path stroke-linejoin="round" d="M388.42 333.216c4.19-1.122 22.435 10.47 26.548 13.386 4.113 2.916 12.713 1.047 12.713 1.047s-3.962 2.392-6.43 2.99 7.328.598 7.328.598-23.332 6.43-47.038-6.057c-2.168-9.72 5.085-11.89 6.88-11.965z" fill-rule="evenodd" stroke="#2b2b2b" stroke-width=".861.25" fill="#2b2b2b"/><path d="M415.118 249.234s-3.066-.6-4.636-2.393c-1.57-1.794-3.814-6.206-6.132-8.076s-13.91-8.226-18.098-7.777c-4.188.45-5.46-.45-5.982-.972-.524-.524-2.244.224-1.945 2.393.3 2.168-3.215 6.954-1.944 9.198 1.272 2.243 7.255 11.367 8.45 11.665 1.198.3.45 5.31.45 5.31s5.31 5.385 6.656 5.684c1.346.3 2.692 1.272 2.542 2.543-.15 1.27-5.833 8.226-5.833 8.226s-6.132 3.216-6.207 5.01c-.074 1.795 1.496 5.534 6.357 6.73 4.86 1.197 17.947.225 18.62-.897.674-1.12 1.72-7.852 1.272-8.525-.45-.672-3.664-2.69-5.31-2.392-1.645.3-3.14 1.645-2.99 1.944.15.3-2.32 1.57-2.32.374 0-1.196 4.862-6.58 5.31-6.132.45.45 7.33 1.122 8.6 4.562s1.272 5.908 4.86 5.534c3.59-.374 8.6-3.664 9.05-10.544.448-6.88-4.04-11.517-5.16-12.19-1.122-.672-4.862-2.916-5.16-3.963-.3-1.047-1.048-4.486-.45-5.31z" fill-rule="evenodd" stroke="#2b2b2b" stroke-width=".861pt" fill="#2b2b2b"/><path d="M350.43 279.6s11.592-2.99 14.584-2.915c2.99.075 14.283 5.31 17.574 8.525 3.29 3.215 10.02 10.843 14.433 10.17s5.684-1.57 5.684-1.57l-1.72 3.29s-3.59.972-5.384.523c-1.795-.448-5.31-1.57-8.824-5.01-3.515-3.44-14.358-12.713-23.556-12.04-9.2.673-14.508 9.72-14.508 9.72s.074-4.41.448-5.383c.374-.972-1.944 2.094-1.944 2.094l3.216-7.403z" fill-rule="evenodd" stroke="#2b2b2b" stroke-width=".861pt" fill="#2b2b2b"/><path d="M393.132 288.573c.074.075 2.916.822 7.702.822s7.33-2.094 7.33-2.094l-.3-1.868.748-2.617s3.664 3.74 3.59 4.486c-.076.75-1.497 1.048-1.497 1.048l-.523-1.794-1.27 1.57s-6.956 5.534-10.77 4.71c-3.814-.82-7.328-3.29-6.356-3.887s1.495-.374 1.346-.374z" fill-rule="evenodd" stroke="#2b2b2b" stroke-width=".861pt" fill="#2b2b2b"/><path d="M376.23 298.37s-4.187-.074-6.056.824c-1.87.897-2.543 2.02-3.814 1.87-1.27-.15-2.244-1.796-1.87-2.47.524-1.046 2.992-2.392 7.703-2.018s4.038 1.795 4.038 1.795z" fill-rule="evenodd" stroke="#2b2b2b" stroke-width=".861pt" fill="#2b2b2b"/><path d="M390.89 309.736c0-.224-.3-6.132-2.62-8.525s-5.16-2.392-6.43-2.093c-1.27.3 4.71 2.917 5.31 4.637.598 1.72 2.542 6.506 2.02 7.702-.525 1.197-1.497-3.365-5.16-4.636s-8.75-.6-7.704 1.047 5.16.15 7.254 3.664 3.665 7.255 3.665 7.255l.673-2.543 1.87-.523.223-4.862.9-1.122z" fill-rule="evenodd" stroke="#2b2b2b" stroke-width=".861pt" fill="#2b2b2b"/><path stroke-linejoin="round" d="M387.898 328.876l-3.814-7.628s-1.197-4.86-4.412-6.206c-3.216-1.347-7.48-1.122-7.553.523-.076 1.645 6.88 3.74 7.327 4.637.45.897.225 2.392-.374 2.467-.598.074-3.664-1.122-5.234-.75-1.572.375-2.47 2.395-4.787 1.796-2.32-.598-4.263-8-3.365-8.75.897-.747-1.72 1.347-2.244-.597-.523-1.946.748-8.003-.15-8.75-.897-.75-5.234-3.366-5.31-3.89-.074-.523.225-29.763 24.68-5.534-10.47-12.413-14.584-11.067-16.528-11.142-1.42 0-10.918.823-13.31 12.938-2.394 12.114-5.236 4.56-5.236 4.56s-.523 5.236 2.02 6.732c2.542 1.495-1.197 5.833-1.197 5.833s-4.562-11.142-3.89-16.004c-.896 3.89-.82 13.536 4.937 24.08 6.73 7.104 13.087 13.685 29.988 21.088 8.9-13.61 8.45-15.254 8.45-15.404z" fill-rule="evenodd" stroke="#2b2b2b" stroke-width=".861.25" fill="#2b2b2b"/><path stroke-linejoin="round" d="M371.894 328.954s4.936.598 6.282 3.14c1.346 2.543 1.944 6.432 1.944 6.432.823-1.645 1.197-3.066 2.842-4.263s2.842-1.346 2.767-2.243c-.076-.898-5.236-6.357-7.853-6.656-2.618-.3-7.18 2.842-7.18 2.842s-.822 1.196 1.197.748z" fill-rule="evenodd" stroke="#2b2b2b" stroke-width=".861.25" fill="#8a9396"/><path d="M383.167 341.817s12.79 5.83 33.86 6.207" stroke="#8a9396" stroke-linecap="round" stroke-width=".861.25" fill="none"/><path d="M425.867 282.442s-1.1 10.732-9.356 31.92" stroke="#2b2b2b" stroke-linecap="round" stroke-width=".861.25" fill="none"/><path d="M424.222 289.046s-2.476 7.705-9.355 13.483" stroke="#2b2b2b" stroke-width=".861pt" fill="none"/></g></g></svg>