<svg xmlns="http://www.w3.org/2000/svg" height="480" width="640"><g><path fill-rule="evenodd" stroke-width="1pt" fill="#be0027" d="M0 0h640v480H0z"/><path fill-rule="evenodd" stroke-width="1pt" fill="#3b5aa3" d="M25.6 27.343h589.54v428.37H25.6z"/><g><path d="M314.345 413.235c2.423 1.33 6.257 1.26 8.414.105 137.788-73.3 137.868-274.325.2-346.592-2.557-1.348-6.275-1.275-8.816.104-134.27 73.46-134.63 272.206.2 346.393z" fill-rule="evenodd" fill="#cbe0e5"/><path d="M314.345 416.86c2.142 1.748 6.462 1.58 8.414.106 101.54-76.02 102.134-123.41 97.634-123.407l-200.965.103c-3.073.003 1.77 48.107 94.914 123.198z" fill-rule="evenodd" fill="#add2d9"/><path d="M235.345 331.223c8.713-2.267 19.238-2.866 27.813 1.715 7.618 3.98 12.032 3.942 20.24 4.05 8.59.117 15.344 6.43 24.633 6.676 17.104.448 24.31 8.93 11.014 8.946-6.286.01-19.76-4.19-26.262-3.287-13.587 1.402-22.21 4.41-34.994 18.632l14.777 10.125c12.782-5.21 14.924-11.07 22.002-11.303 7.996-.257 10.713-5.21 19.96-5.222 10.505 1.91 24.734-1.304 33.07-3.17 14.783-3.44 7.75-13.77-1.21-17.516-7.246-3.085-20.81-.114-29.232-3.174-6.375-2.475-1.13-6.454 2.293-7.304 3.46-.638 7.17.494 11.474 1.186 7.68.664 17.33-.074 24.073-1.13 13.944-2.16 13.356-6.25 20.09-6.36 4.91-.235 8.647-1.703 11.99-4.106 3.932-2.632 8.02-8.026 12.785-7.823l12.755.54-17.966 40.405-50.756 51.662-26.286 9.97-57.78-37.613-29.136-44.69 4.654-1.21z" fill-rule="evenodd" fill="#fdf9a1"/><path d="M301.747 291.937l116.016-.54 2.04-10.28s-4.14-.617-7.48-.813c-4.164-.255-11.304 4.357-16.087 4.33-3.383-.025-7.26-6.08-10.647-5.954-5.914-.055-6.44 5.267-12.012 5.413-4.497-.154-6.413-3.588-12.236-3.247-6.107.345-5.652 3.706-13.367 3.515-10.19-.254-14.28-9.096-22.433-9.195-13.607-.162-14.05 12.985-23.795 16.77z" fill-rule="evenodd" fill="#179a3b"/><path d="M301.747 294.416l119.414-.608v-3.244l-122.13.608 2.717 3.244z" fill-rule="evenodd" fill="#fdf9a1"/><path d="M350.818 330.303c1.84 7.053 3.78 9.45 11.196 11.25 7.326 1.8 18.502-5.342 11.557-12.237-6.613-6.415-13.562-8.044-19.487-13.82-12.47-12.32-31.255-42.503-31.273-63.79-.015-18.278-1.778-55.796-1.79-91.33.01-2.303-6.944 6.455-6.933 8.795.32 31.35.27 55.043 1.544 86.655 1.975 23.108 13.003 38.668 22.685 52.712 4.338 6.73 10.608 13.987 12.502 21.767z" fill-rule="evenodd" fill="#a79270"/><text font-family="helvetica" font-size="25.614" stroke="#fff" y="269.487" x="465.114" stroke-width="1.638" fill="#bd0728" transform="matrix(1.333 0 0 1.333 -363.07 -108.06)"><tspan stroke="#fff" stroke-width="1.638" fill="#bd0728">G</tspan></text><text font-family="helvetica" font-size="25.614" stroke="#fff" y="269.607" x="488.065" stroke-width="1.638" fill="#bd0728" transform="matrix(1.333 0 0 1.333 -363.07 -108.06)"><tspan stroke="#fff" stroke-width="1.638" fill="#bd0728">U</tspan></text><text font-family="helvetica" font-size="25.614" stroke="#fff" y="269.59" x="516.053" stroke-width="1.638" fill="#bd0728" transform="matrix(1.333 0 0 1.333 -363.07 -108.06)"><tspan stroke="#fff" stroke-width="1.638" fill="#bd0728">A</tspan></text><text font-family="helvetica" font-size="25.614" stroke="#fff" y="269.542" x="539.532" stroke-width="1.638" fill="#bd0728" transform="matrix(1.333 0 0 1.333 -363.07 -108.06)"><tspan stroke="#fff" stroke-width="1.638" fill="#bd0728">M</tspan></text><path d="M261.027 161.5c-1.544 2.978 3.615-.87 4.783-1.285 6.685-2.378 9.304-10.824 20.82-5.74 9.066 3.916 21.235 1.64 14.874 5.607-7.86 4.704-23.516 9.917-23.823 33.252 1.31 2.282 1.403 1.922 2.497-.525 2.378-5.44 13.724-20.21 19.34-18.98 2.26.585 8.897-6.674 9.052-4.6.6 5.825-9.015 17.613-8.912 33.392.024 3.653 4.52 4.837 6.685 2.267 2.154-2.268 3.366-4.612 7.137-7.59 6.668-5.472 4.827-28.675 5.65-27.585 4.72 6.11 5.445 23.345 12.475 30.414 5.842 5.874 10.566 3.06 9.29-5.098-2.537-16.356-10.268-11.68-13.948-28.597-.746-3.296-.93-6.272 3.43-4.894 5.335 1.547 8.464 4.024 12.444 10.04 3.978 5.738 11.436 11.237 15.747 14.614 7.52 5.78 10.16.734 6.572-6.683-3.974-8.32-12.928-15.22-21.072-18.237-6.17-2.132-8.37-2.335-13.804-3.38-1.512-.32-3.073-3.414-.387-5.124 5.757-3.52 12.645-7.495 19.63-7.696 6.724-.17 12.05 5.22 16.766 6.57 9.405 2.466 9.357-3.503 5.21-7.93-3.403-3.74-10.606-10.007-17.33-9.175-13.567 1.663-12.71 1.283-21.034 6.804-3.054 1.8-6.443 3.785-5.18 1.603 3.046-5.477.21-4.536 4.913-10.11 3.658-4.084 6.345-7.023 9.97-8.043 3.444-.83 7.993-4.488 9.402-6.345 3.38-4.674.465-7.343-4.757-5.777-4.53 1.247-6.97 4.263-10.083 5.097-7.308 2.302-13.205 19.02-14.105 21.39-1.164 2.828-2.452 1.426-2.214-.97 1.055-11.805 2.053-31.568-2.116-39.705-6.275-11.997-5.694-6.403-8.103-.71-3.628 9.044-2.367 17.474-.083 26.34.998 4.424 4.704 9.458 5.368 12.93.478 2.728-1.583-.85-2.782-2.485-3.94-6.03-6.82-10.108-13.237-13.39-4.384-2.776-16.192-3.15-20.303-1.885-1.78.548 1.974 3.088 3.564 4.35 4.302 3.42 12.455 4.487 17.94 7.86 4.712 2.895 8.298 4.758 9.86 8.76.65 2.973 1.616 7.385-.343 7.278-5.138-.295-13.125-4.74-29.523-2.913-8.373 1.107-15.644 8.27-20.28 16.88z" fill-rule="evenodd" fill="#239e46"/><path fill-rule="evenodd" stroke-width="1.333pt" d="M296.765 311.502h4.757v7.93h-4.757z"/><path d="M273.144 258.675c18.868 26.125 49.11 41.356 49.714 53.22-19.107-.075-39.818.01-58.926-.064 13.538-16.276 21.79-27.266 9.212-53.155z" fill-rule="evenodd" fill="#fdf9ff"/><path d="M255.99 312.488c25.632 5.716 56.234 8.865 75.78-.8.16 5.714-6.355 13.94-11.697 13.94h-49.185c5.714-.82 8.972-2.563 18.268-3.046l-26.114.32c-2.885.108-8.013-7.638-7.052-10.414z" fill-rule="evenodd" fill="#a68861"/><path d="M314.12 426.26c2.606 1.428 6.725 1.352 9.045.113 148.096-78.827 148.176-294.993.216-372.72-2.75-1.45-6.743-1.37-9.476.113-144.31 78.996-144.697 292.713.217 372.493zm.737-17.796c2.275 1.26 5.87 1.195 7.895.098 123.965-72.956 125.483-265.693.188-334.783-2.398-1.762-5.886-1.21-8.27.1-118.727 70.21-125.348 255.002.187 334.582z" fill-rule="evenodd" stroke-width="1.333pt" fill="#be0027"/><text font-size="25.614" y="269.487" x="465.114" font-family="helvetica" fill="#bd0728" transform="matrix(1.333 0 0 1.333 -363.07 -108.06)"><tspan fill="#bd0728">G</tspan></text><text font-size="25.614" y="269.607" x="488.065" font-family="helvetica" fill="#bd0728" transform="matrix(1.333 0 0 1.333 -363.07 -108.06)"><tspan fill="#bd0728">U</tspan></text><text font-size="25.614" y="269.59" x="516.053" font-family="helvetica" fill="#bd0728" transform="matrix(1.333 0 0 1.333 -363.07 -108.06)"><tspan fill="#bd0728">A</tspan></text><text font-size="25.614" y="269.542" x="539.532" font-family="helvetica" fill="#bd0728" transform="matrix(1.333 0 0 1.333 -363.07 -108.06)"><tspan fill="#bd0728">M</tspan></text></g></g></svg>