<svg xmlns="http://www.w3.org/2000/svg" height="480" width="640"><defs><clipPath id="a"><path fill-opacity=".67" d="M0 64h512v384H0z"/></clipPath></defs><g clip-path="url(#a)" fill-rule="evenodd" transform="matrix(1.25 0 0 1.25 0 -80)"><path stroke-width="1pt" fill="#fff" d="M0 0h512v512H0z"/><path d="M0 341.33h512V512H0z"/><path fill="#f30000" d="M0 0h512v170.67H0z"/><path stroke-width=".598pt" fill="#005623" d="M487.59 284.028l-21.115-15.274-21.012 15.483 7.998-24.808-21.215-15.197 26.064-.06 7.902-24.87 8.106 24.768 26.094-.172-21.048 15.363z"/><path d="M193.24 233.17c.217 24.34 0 39.988 0 44.986-2.608 3.042-5.216 6.302-7.172 8.91-.87-.652-1.087-.652-1.087-1.956 0-1.304-.216-33.25 0-44.986 3.913-1.956 6.522-7.39 8.26-6.955zm-8.91-.435c1.956-3.26 4.13-6.52 5.65-8.04 1.522.87 1.304 3.26 1.522 3.91-1.522 2.174-5.216 5.65-6.303 6.738-.436-.652 0-.435-.87-2.608zm10.866-27.818c-13.257 8.694-28.253 19.125-33.686 23.69-5.434 4.564-7.39 7.39-7.39 15.212 0 7.823.218 16.733-.434 20.862-.652 4.13-2.608 8.476-7.39 4.564-4.78-3.91-8.257-7.823-10.43-9.562-2.174-1.74-6.086-4.13-11.302.435-5.216 4.562-29.556 30.207-34.12 33.032-4.564 2.825-5.433 3.477-8.693 5.216 6.738.434 14.344.87 20.43-.435 8.04-5.868 17.385-19.125 20.428-22.385 3.043-3.26 6.085-10.214 12.822-2.608 6.738 7.607 6.52 7.824 9.78 10.214 3.26 2.39 7.39 1.956 10.215-2.825 2.825-4.782 3.042-6.955 4.13-14.78 1.086-7.822 1.737-17.602 3.476-21.95 1.74-4.345 5.217-8.692 11.084-12.17 5.868-3.477 6.955-3.694 8.26-4.346 2.606-5 8.91-16.734 11.517-19.56 1.088-1.304 1.305-1.956 1.305-2.608zM136.3 284.024c-3.26-2.173-4.346-3.912-6.084-3.694s-5.433 5.216-7.607 6.52c2.825 2.39 5.433 4.564 7.606 4.13 2.173-.436 3.694-5.217 6.085-6.956z" fill="#005623"/><path d="M411.65 222.96c-4.564 1.087-6.954 7.172-10.866 11.3-.435 12.172-.435 49.986-.435 54.984 3.91-4.564 6.302-7.172 9.127-8.91.652-20.21 3.042-48.463 2.173-57.374zm-21.516-.217c-5.433 3.477-6.737 6.954-11.3 10.866-.218 14.56.434 35.205-.653 38.03-1.085 2.826-3.476 8.694-9.343 8.042-5.868-.652-7.607-1.738-7.607-7.823s1.304-44.987 1.304-51.29c-4.564 2.173-8.476 8.91-11.735 11.736 0 15.212.65 34.554.216 38.684-.435 4.13-2.173 10.866-9.562 10.65-7.39-.218-11.3-3.913-11.3-8.26 0-4.346-.218-32.815.216-37.814-6.52 4.563-21.733 13.69-24.775 25.427-3.042 11.735 1.74 15.213 6.085 13.04 4.347-2.174 6.303-4.13 8.693-5.87.653 7.39.87 15.43 8.258 20.212 7.39 4.78 16.735 3.043 20.213.435 3.477-2.608 4.782-4.347 5.65-5.65 6.52 4.998 16.083 7.606 22.386 2.172 6.3-5.432 9.778-10.866 10.43-16.95.652-6.086 3.695-37.38 2.825-45.64zm-68.24 29.556c-6.52 3.042-9.345 7.605-7.606 10.43 1.738 2.826 5.215-.434 7.606-1.52-.435-4.346 0-6.737 0-8.91zm41.944-46.074c-1.52 4.998-2.608 4.13-4.564 4.347-1.956.217-3.26-1.74-4.78-3.478-1.522.217-1.74.652-2.826 1.087 3.477 4.998 6.085 7.17 10.214 6.085 4.13-1.087 4.347-4.78 4.347-6.737-.654-.435-.87-.652-2.392-1.304zm-3.694-6.303c-1.956.653-2.39 1.087-3.043 2.826 1.088 2.39 2.61 3.693 4.13 3.04 1.52-.65 1.74-3.258.87-3.91-.87-.653-.435-1.087-1.956-1.957z" fill="#005623"/><path stroke-width=".598pt" fill="#005623" d="M62.51 284.028l-21.115-15.274-21.012 15.483 7.998-24.808-21.215-15.197 26.064-.06 7.902-24.87 8.106 24.768 26.094-.172-21.048 15.363z"/><path stroke-width=".598pt" fill="#005623" d="M274.615 284.028L253.5 268.754l-21.012 15.483 7.998-24.808-21.216-15.197 26.064-.06 7.903-24.87 8.106 24.768 26.094-.172-21.048 15.363z"/></g></svg>