<svg xmlns="http://www.w3.org/2000/svg" height="480" width="640" version="1" xmlns:xlink="http://www.w3.org/1999/xlink" viewBox="0,0 30,18"><defs><clipPath id="a"><path fill-opacity=".67" d="M-5.254-6h40v30h-40z"/></clipPath></defs><g clip-path="url(#a)" transform="matrix(.75 0 0 .75 3.94 2.25)"><path fill="#fff" d="M-10.254-6h50v30h-50z"/><path d="M-10.254-6v1.927L11.516 9l-21.77 13.073V24h3.28l21.72-13.073L36.466 24h3.28v-1.927L17.976 9l21.77-13.073V-6h-3.28L14.745 7.073-6.974-6h-3.28z" fill-rule="evenodd" fill="#df112d"/><g transform="matrix(.204 0 0 .204 -9.649 -6.038)"><path d="M132.66 22.233c3.156 12.778 1.425 28.56-12.83 37.316-14.254-8.757-15.985-24.54-12.828-37.317 3.36-3.055 18.632-4.938 25.658 0z" stroke="#000" stroke-width=".125" fill="#e8112d"/><path d="M119.81 19.667c5.226 0 10.093 1.383 12.962 3.176.563-4.405 2.56-8.81 4.918-12.142-2.46-.05-3.56 1.257-3.586 2.614-.615-1.742-3.023-1.64-3.766-.69 2.69 1.817.615 5.045-1.818 4.38-1.143-.314-1.747-1.11-1.96-2.268.262-.018.523-.114.743-.292.567-.46.654-1.293.194-1.86s-1.292-.654-1.86-.194c-.567.46-.654 1.292-.193 1.86.15.186.343.318.55.398-.768 1.256-2.147 1.632-3.135 1.356-1.282-.36-1.82-1.512-1.82-2.536 0-2.664 2.56-3.074 3.33-2.613-.05-1.793-2.87-3.227-3.74-1.742.973-1.742.922-4.2-.82-5.84-1.74 1.64-1.793 4.098-.82 5.84-.87-1.485-3.688-.05-3.74 1.742.77-.46 3.33-.05 3.33 2.613 0 1.024-.537 2.177-1.818 2.536-.988.276-2.367-.1-3.137-1.356.21-.08.4-.212.552-.398.46-.568.373-1.4-.194-1.86s-1.4-.373-1.86.194-.373 1.4.194 1.86c.22.178.482.274.745.292-.214 1.157-.82 1.954-1.96 2.267-2.434.666-4.51-2.562-1.82-4.38-.742-.948-3.15-1.05-3.765.69-.026-1.356-1.127-2.663-3.586-2.612 2.357 3.33 4.355 7.737 4.92 12.143 2.868-1.793 7.735-3.176 12.96-3.176z" stroke="#000" stroke-width=".125" fill="#f9dd16"/><g id="b" stroke="#000"><g stroke-width=".125" fill="#f9dd16"><path d="M130.65 32.2c-.315.075-.315.48-.48.48.82-.022 1.217-.247 1.465-.66-.18.165-.023.48-.083.556.6-.21.887-.722.677-1.067.134.194.525.3.645.314-.42-.33-.12-1.082-.797-1.473.226-.014.662.242.782.542-.105-.676-.21-1.112-.767-1.488.06.068.376.128.51 0-.36-.225-.465-.6-.434-.84.04-.338-.182-.407-.603-.302-.38.095-1.247.15-1.758.15-1.053 0-1.97 0-2.842-.6 1.308.54 2.976-.602 2.976-1.55 0-1.05-1.293-1.908-3.908-1.337-2.615.572-5.8.33-5.8-.54 0-.872 2.283-.993 3.456-.812 1.172.18 2.013.3 4.208-.48-.54.21-2.285.27-3.667-.12-1.383-.392-4.78-.392-4.81 1.44-.03 1.835 3.617 1.668 6.764 1.204 1.833-.27 2.795-.09 2.795.51 0 .572-1.683.812-2.976.662-1.292-.15-2.615-.12-4.148.33-1.28.376-2.164 0-3.577.24-.684.117-2.344 0-3.163-1.352-.504.36-2.022 1.116-2.277 1.852-.36.676-.12 1.35.36 2.01.606.833-.3.707-.946.737-.886.04-2.072-.094-2.69-.797-.55-.622-1.28-1.12-1.862-.66-.3.238-.012.55.225.463.235-.087.513.087.764.197-.4-.172-.84-.038-1.013.115-.237.213.05.62.338.475.225-.112.687-.187.987.088-.325-.063-.663-.05-.825.125s-.037.428.313.412c.562-.025.706.37 1.27.288-.347.045-.543.226-.633.36.526-.24 1.107.41 1.79.256-.267.11-.696.37-.692.57.405-.465 3.126.36 3.186-.66.076.21.06.525-.15.796.35-.21 1.474-.286 1.82-1.097.03.24-.016.555-.226.63.36.118.836-.15 1.322-.872.193-.286.24-.476.206-.69.482.017.83-.104 1.207-.422.39-.33.81.27 1.472-.15.662-.42 1.233-.06 1.593-.27.36-.21.857.074 1.248-.166.39-.24.997.118 1.644-.393 1.018.372 2.206 1.063 5.12.528 1.67-.307 2.194.256 2.194 1.022 0 .526-.307.572-.54.586-.93.057-1.328-.347-1.695-.218-.246.088-.396.488-.04.625-.294.15-.256.432-.106.535s.536.01.8-.113c-.34.153-.69.428-.49.716.122.174.428.322.714-.05.287-.375.812-.688 1.146-.638z"/><path d="M112.14 24.264c-.842-.346-1.126-.355-.932.33.083.294.285.707.488.895.008-.286.113-1.076.444-1.226z"/><path d="M114.77 24.264c.842-.346 1.126-.355.932.33-.083.294-.286.707-.49.895-.006-.286-.11-1.076-.442-1.226z"/><path d="M113.46 23.802c1.593 0 1.792.748 1.784 1.68-.007 1.007-.548.66-.856 1.953-.12.506-.523.534-.928.534-.406 0-.808-.03-.93-.535-.306-1.292-.848-.946-.855-1.953-.008-.932.19-1.68 1.785-1.68z"/><path d="M109.36 27.495c-.406-.24-.668-.074-.833-.03.526.136.547.812 1.75 1.127-.27-.075-.42.075-.677-.06.496.39 1.052.843 2.225.857.654.006.202.345-.226.15.443.458 1.322.082 1.878.916.105-.646-1.037-1.668-.51-2.405-1.623-.068-1.756-.967-2.69-1.682-.762-.582-.83-1.173-1.166-2.28-.153-.5-.74-.814-1.065-.695-.284.104-.388.35-.144.535.244.184.556.21.623.676-.317-.38-.792-.517-1.02-.28-.14.145-.083.482.216.513.487.05.137.525.69.99-.49-.552-.915-.602-1.178-.302-.157.18 0 .5.338.465.49-.05 1.056 1.19 1.788 1.505z"/><path d="M122.43 32.14c-.256.044-.18.465-.526.495.827 0 1.247-.195 1.638-.51-.18.104-.255.375-.27.525.436-.376 1.473-.406 2.014-.3s.63-.15.826-.496c.196-.346-.075-.542-.345-.812-.27-.27-.33-.646-.27-1.278-1.444-1.923-4.03-.992-4.06-.15.933 1.082 1.053.962 1.835 1.112.78.15 1.26.15.736.586-.18.15-.932.08-1.518.106-1.31.057-1.91-.906-2.298-.406-.32.41.01.593.66.57-.45.004-1.047-.02-.945.4.172.705.847-.132 1.11.158-.225-.053-.575.085-.588.297-.013.213.5.488 1.062.04.308-.244.7-.336.938-.338z"/></g><g stroke-width=".125" fill="none"><path d="M123.55 29.206c-.47-.172-.9-.277-1.45-.163"/><path d="M116.48 28.983c-.386.83-.152 1.24-.095 1.624"/><path d="M112.37 25.052c.265.133.414-.242.803.156-.107-.116-.24.308-.538.026"/><path d="M114.53 25.052c-.265.133-.414-.242-.803.156.107-.116.24.308.538.026"/><path d="M113.73 25.207c-.09.075-.1-.06-.03.295.127.65.278.956-.25.956-.537 0-.374-.305-.247-.956.07-.355.06-.22-.03-.295"/></g><path d="M113.46 27.706c.428 0 .676-.007.61-.61-.03-.24.292-.336.18-.728.12.48-.79.435-.79.217 0 .218-.91.264-.79-.217-.112.392.208.488.18.73-.066.6.182.608.61.608z" stroke-width=".063" fill="#ff0016"/><g stroke-width=".063"><path d="M113.07 26.49l-1.028-.288"/><path d="M113.07 26.543l-1.148-.01"/><path d="M113.08 26.602l-.98.262"/><path d="M113.84 26.49l1.028-.288"/><path d="M113.84 26.543l1.148-.01"/><path d="M113.83 26.602l.98.262"/></g><g stroke-width=".013" fill="#0051ba"><path d="M108.13 23.414c-.3-.372-1.048-.058-1.063.404.253-.3.666.132.89.04.157-.062.294-.292.173-.444z"/><path d="M107.75 24.295c-.3-.372-1.047-.058-1.062.404.252-.3.665.13.89.04.157-.062.294-.293.172-.445z"/><path d="M107.55 25.48c-.34-.337-1.047.06-1.01.52.218-.326.676.056.89-.06.148-.08.258-.324.12-.46z"/><path d="M107.91 29.148c-.376-.295-1.033.18-.944.634.18-.35.678-.022.877-.16.138-.098.22-.354.067-.474z"/><path d="M107.89 29.95c-.448-.164-.928.49-.703.894.062-.387.638-.23.785-.423.102-.133.1-.402-.082-.47z"/><path d="M108.46 30.55c-.448-.164-.928.49-.704.894.063-.387.64-.23.786-.423.102-.133.1-.402-.082-.47z"/><path d="M120.2 31.714c-.448-.165-.928.49-.703.893.063-.387.638-.23.785-.423.102-.134.1-.403-.082-.47z"/><path d="M120.81 32.258c-.464-.113-.866.592-.597.968.018-.392.608-.3.732-.51.086-.145.054-.412-.135-.458z"/><path d="M120.38 30.942c-.414-.24-.998.325-.845.76.128-.37.668-.117.846-.283.124-.116.168-.38 0-.478z"/><path d="M128.73 31.883c-.464-.113-.866.592-.597.968.02-.39.61-.3.732-.51.086-.144.054-.41-.135-.457z"/><path d="M128.75 31.146c-.42-.225-.985.36-.818.79.115-.375.664-.14.836-.313.12-.12.154-.385-.018-.477z"/><path d="M129.07 32.542c-.468-.093-.84.63-.554.993.002-.392.595-.327.71-.542.08-.15.035-.413-.156-.45z"/><path d="M113.49 27.345c.294 0 .413.086.413.617 0 1.125-.013 1.61-.375 1.61-.363 0-.338-.46-.338-1.287 0-.43 0-.646-.087-.61 0-.282.125-.33.387-.33z"/></g></g><use xlink:href="#b" transform="matrix(.9 0 0 .9 11.6 13.7)" height="18" width="30"/><use xlink:href="#b" transform="matrix(.67 0 0 .75 39.2 27.5)" height="18" width="30"/></g></g></svg>