<svg xmlns="http://www.w3.org/2000/svg" height="480" width="640"><defs><clipPath id="a"><path fill-opacity=".67" d="M0 0h640v480H0z"/></clipPath></defs><g clip-path="url(#a)"><g><g><g><g><g><g><g><g><g><g><g><g fill-rule="evenodd" stroke-width="1pt"><path fill="#e4104d" d="M0 239.827h720.51v240.17H0z"/><path fill="#8a85ff" d="M0 0h720.51v239.83H0z"/></g></g></g></g></g></g></g></g></g></g></g></g><g fill-rule="evenodd"><g><path d="M149.716 167.41l82.348-.312s30.41-36.52 14.31-60.45c-16.1-23.928-79.217-.756-79.472-.756-.255 0-.51-12.844-16.1-13.097-15.588.253-15.843 13.097-16.098 13.097-.256 0-63.375-23.172-79.472.757-16.1 23.927 14.31 60.448 14.31 60.448l80.18.313z" fill="#f3ef7d"/><path d="M149.697 167.4l79-.304s29.175-35.476 13.73-58.72c-15.446-23.244-76-.735-76.243-.735-.245 0-.49-12.476-15.445-12.72-14.956.244-15.2 12.72-15.446 12.72-.245 0-60.8-22.508-76.242.736-15.446 23.244 13.73 58.72 13.73 58.72l76.92.303z"/></g><g stroke-width="1pt" fill="#f3ef7d"><path d="M241.76 117.943h-.94v11.238h.94z"/><path d="M238.352 111.844h-.938v23.11h.938z"/><path d="M235.097 108.683h-1.1v30.4h1.1z"/><path d="M230.928 106.46h-1.192v36.36h1.192z"/><path d="M226.198 105.16h-1.19v40.75h1.19z"/><path d="M221.368 103.58h-1.182v44.404h1.182z"/><path d="M217.266 103.237h-1.192v46.275h1.192z"/><path d="M213.147 103.237h-1.192v47.577h1.192z"/><path d="M207.994 103.34h-1.1v49.623h1.1z"/><path d="M203.163 103.817h-1.354v49.652h1.353z"/><path d="M197.875 105.036h-1.354v48.92h1.355z"/><path d="M192.705 106.934h-1.273v47.37h1.273z"/><path d="M187.298 109.105h-1.19v44.85h1.19z"/><path d="M182.823 110.568h-1.19v41.843h1.19z"/><path d="M178.06 113.397h-1.018v37.736h1.018z"/><path d="M173.89 117.058h-.855v32.248h.856z"/><path d="M170.145 120.636h-1.02v26.23h1.02z"/><path d="M166.484 126.118h-.916v16.745h.916z"/></g><g stroke-width="1pt" fill="#f3ef7d"><path d="M59.386 116.82h.938v11.237h-.938z"/><path d="M62.793 110.72h.938v23.11h-.937z"/><path d="M66.048 107.56h1.1v30.4h-1.1z"/><path d="M70.217 105.337h1.192v36.36h-1.193z"/><path d="M74.947 104.035h1.19v40.75h-1.19z"/><path d="M79.777 102.457h1.182v44.403h-1.183z"/><path d="M83.88 102.113h1.19v46.275h-1.19z"/><path d="M87.998 102.113h1.192v47.577h-1.192z"/><path d="M93.15 102.215h1.1v49.624h-1.1z"/><path d="M97.982 102.693h1.354v49.652h-1.354z"/><path d="M103.27 103.912h1.354v48.92h-1.354z"/><path d="M108.44 105.81h1.273v47.37h-1.273z"/><path d="M113.847 107.98h1.19v44.85h-1.19z"/><path d="M118.322 109.444h1.19v41.843h-1.19z"/><path d="M123.085 112.273h1.018v37.736h-1.018z"/><path d="M127.254 115.934h.856v32.248h-.856z"/><path d="M131 119.512h1.02v26.23H131z"/><path d="M134.66 124.994h.917v16.745h-.916z"/></g><path d="M205.64 168.03l-.833-12.49c0-2.497-18.317-16.65-18.316-52.45 0-35.8 15.82-49.955 24.145-49.955s26.642 11.656 27.475 49.12c.832 37.467-18.317 51.62-18.317 51.62l-1.665 14.987s13.32.832 14.154.832c.832 0 18.316-14.986 63.275-13.32s47.456 19.98 48.29 25.81c.83 5.827-6.662 23.31-51.62 23.31-44.96 0-58.28-20.813-59.113-20.813-.832 0-14.153-.832-14.153-.832v10.823s17.484 13.322 16.652 57.448c-.833 44.126-18.317 46.624-23.312 46.624-6.66 0-20.814-2.497-21.647-45.79 1.666-44.127 13.322-56.616 13.322-57.448V184.68h-12.49s-13.32 10.824-59.11 11.657c-45.792.832-48.29-12.49-49.123-19.982-.833-7.493 8.326-20.814 48.288-21.647 39.963-.832 59.112 13.32 59.112 13.32l14.987.002z" transform="matrix(.131 0 0 .136 122.548 42.945)" stroke-width="1pt" fill="#f3ef7d"/><g transform="matrix(.566 0 0 .602 21.757 33.725)" stroke-width="1pt" fill="#f3ef7d"><rect rx="5.828" ry="5.828" height="11.656" width="11.656" y="105.59" x="188.99"/><rect rx="5.828" ry="5.828" height="11.656" width="11.656" y="103.23" x="177.22"/><rect rx="5.828" ry="5.828" height="11.656" width="11.656" y="99.703" x="164.86"/><rect rx="5.828" ry="5.828" height="11.656" width="11.656" y="96.759" x="152.49"/><rect rx="5.828" ry="5.828" height="11.656" width="11.656" y="94.404" x="139.54"/><rect rx="5.828" ry="5.828" height="11.656" width="11.656" y="92.638" x="126.59"/><rect rx="5.828" ry="5.828" height="11.656" width="11.656" y="91.461" x="114.23"/><rect rx="5.828" ry="5.828" height="11.656" width="11.656" y="90.872" x="101.27"/><rect rx="5.828" ry="5.828" height="11.656" width="11.656" y="92.638" x="88.911"/><rect rx="5.828" ry="5.828" height="11.656" width="11.656" y="94.404" x="75.96"/><rect rx="5.828" ry="5.828" height="11.656" width="11.656" y="98.525" x="64.185"/><rect rx="5.828" ry="5.828" height="11.656" width="11.656" y="106.18" x="53"/><rect rx="5.828" ry="5.828" height="11.656" width="11.656" y="116.78" x="45.346"/><rect rx="5.828" ry="5.828" height="11.656" width="11.656" y="127.96" x="40.637"/><rect rx="5.828" ry="5.828" height="11.656" width="11.656" y="140.32" x="38.871"/><rect rx="5.828" ry="5.828" height="11.656" width="11.656" y="153.28" x="39.459"/><rect rx="5.828" ry="5.828" height="11.656" width="11.656" y="165.64" x="42.403"/><rect rx="5.828" ry="5.828" height="11.656" width="11.656" y="178" x="47.113"/><rect rx="5.828" ry="5.828" height="11.656" width="11.656" y="188.6" x="52.411"/></g><g transform="matrix(-.566 0 0 .602 279.929 33.725)" stroke-width="1pt" fill="#f3ef7d"><rect rx="5.828" ry="5.828" height="11.656" width="11.656" y="105.59" x="188.99"/><rect rx="5.828" ry="5.828" height="11.656" width="11.656" y="103.23" x="177.22"/><rect rx="5.828" ry="5.828" height="11.656" width="11.656" y="99.703" x="164.86"/><rect rx="5.828" ry="5.828" height="11.656" width="11.656" y="96.759" x="152.49"/><rect rx="5.828" ry="5.828" height="11.656" width="11.656" y="94.404" x="139.54"/><rect rx="5.828" ry="5.828" height="11.656" width="11.656" y="92.638" x="126.59"/><rect rx="5.828" ry="5.828" height="11.656" width="11.656" y="91.461" x="114.23"/><rect rx="5.828" ry="5.828" height="11.656" width="11.656" y="90.872" x="101.27"/><rect rx="5.828" ry="5.828" height="11.656" width="11.656" y="92.638" x="88.911"/><rect rx="5.828" ry="5.828" height="11.656" width="11.656" y="94.404" x="75.96"/><rect rx="5.828" ry="5.828" height="11.656" width="11.656" y="98.525" x="64.185"/><rect rx="5.828" ry="5.828" height="11.656" width="11.656" y="106.18" x="53"/><rect rx="5.828" ry="5.828" height="11.656" width="11.656" y="116.78" x="45.346"/><rect rx="5.828" ry="5.828" height="11.656" width="11.656" y="127.96" x="40.637"/><rect rx="5.828" ry="5.828" height="11.656" width="11.656" y="140.32" x="38.871"/><rect rx="5.828" ry="5.828" height="11.656" width="11.656" y="153.28" x="39.459"/><rect rx="5.828" ry="5.828" height="11.656" width="11.656" y="165.64" x="42.403"/><rect rx="5.828" ry="5.828" height="11.656" width="11.656" y="178" x="47.113"/><rect rx="5.828" ry="5.828" height="11.656" width="11.656" y="188.6" x="52.411"/></g><g stroke-width="1pt" transform="matrix(1.695 0 0 1.695 -124.21 288.5)"><path d="M227.04-79.384L215.936-46.58s-18.36-7.677-52.782-7.677c-34.424 0-50.108 6.716-50.108 6.716l-16.15-32.235c14.367-2.67 18.746 9.57 18.746 9.57s.978-14.295 12.26-16.832c9.532-1.652 17.954 10.712 17.954 10.712s1.985-13.914 16.07-14.296c14.085.38 16.07 14.295 16.07 14.295s8.422-12.363 17.953-10.712c11.282 2.537 12.26 16.834 12.26 16.834s4.38-12.243 18.83-9.182z" fill="#f3ef7d"/><rect transform="translate(13.258 -218.32)" rx="51.429" ry="8.13" height="16.261" width="102.86" y="162.27" x="100.1"/><g transform="matrix(.334 0 0 .355 86.116 -150.31)"><rect rx="3.434" ry="4.651" height="9.301" width="6.868" y="175.06" x="228.46"/><rect rx="3.434" ry="4.651" height="9.301" width="6.868" y="177.41" x="237.82"/><rect rx="3.434" ry="4.651" height="9.301" width="6.868" y="175.06" x="219.87"/><rect rx="3.434" ry="4.651" height="9.301" width="6.868" y="182.12" x="203.48"/><rect rx="3.434" ry="4.651" height="9.301" width="6.868" y="177.41" x="211.28"/><rect rx="3.434" ry="4.651" height="9.301" width="6.868" y="189.19" x="197.23"/><rect rx="3.434" ry="4.651" height="9.301" width="6.868" y="182.71" x="245.63"/><rect rx="3.434" ry="4.651" height="9.301" width="6.868" y="189.19" x="252.65"/></g><g transform="matrix(.33 .055 -.052 .351 129.39 -157.7)"><rect rx="3.434" ry="4.651" height="9.301" width="6.868" y="175.06" x="228.46"/><rect rx="3.434" ry="4.651" height="9.301" width="6.868" y="177.41" x="237.82"/><rect rx="3.434" ry="4.651" height="9.301" width="6.868" y="175.06" x="219.87"/><rect rx="3.434" ry="4.651" height="9.301" width="6.868" y="182.12" x="203.48"/><rect rx="3.434" ry="4.651" height="9.301" width="6.868" y="177.41" x="211.28"/><rect rx="3.434" ry="4.651" height="9.301" width="6.868" y="189.19" x="197.23"/><rect rx="3.434" ry="4.651" height="9.301" width="6.868" y="182.71" x="245.63"/><rect rx="3.434" ry="4.651" height="9.301" width="6.868" y="189.19" x="252.65"/></g><g transform="matrix(.328 -.064 .06 .349 42.896 -131.04)"><rect rx="3.434" ry="4.651" height="9.301" width="6.868" y="175.06" x="228.46"/><rect rx="3.434" ry="4.651" height="9.301" width="6.868" y="177.41" x="237.82"/><rect rx="3.434" ry="4.651" height="9.301" width="6.868" y="175.06" x="219.87"/><rect rx="3.434" ry="4.651" height="9.301" width="6.868" y="182.12" x="203.48"/><rect rx="3.434" ry="4.651" height="9.301" width="6.868" y="177.41" x="211.28"/><rect rx="3.434" ry="4.651" height="9.301" width="6.868" y="189.19" x="197.23"/><rect rx="3.434" ry="4.651" height="9.301" width="6.868" y="182.71" x="245.63"/><rect rx="3.434" ry="4.651" height="9.301" width="6.868" y="189.19" x="252.65"/></g><rect transform="matrix(.976 -.216 .192 .981 13.258 -218.32)" rx="1.15" ry="1.647" height="3.295" width="2.299" y="155.25" x="57.043"/><rect transform="matrix(.976 -.216 .192 .981 13.258 -218.32)" rx="1.15" ry="1.647" height="3.295" width="2.299" y="156.09" x="60.179"/><rect transform="matrix(.976 -.216 .192 .981 13.258 -218.32)" rx="1.15" ry="1.647" height="3.295" width="2.299" y="157.96" x="62.792"/><rect transform="matrix(.976 -.216 .192 .981 13.258 -218.32)" rx="1.15" ry="1.647" height="3.295" width="2.299" y="160.26" x="65.144"/><g transform="matrix(.309 .134 -.126 .329 148.87 -220.32)"><rect rx="3.434" ry="4.651" height="9.301" width="6.868" y="285.4" x="359.08"/><rect rx="3.434" ry="4.651" height="9.301" width="6.868" y="292.46" x="342.69"/><rect rx="3.434" ry="4.651" height="9.301" width="6.868" y="287.75" x="350.49"/><rect rx="3.434" ry="4.651" height="9.301" width="6.868" y="299.53" x="336.44"/></g><path d="M154.13-76.395c8.052 6.397 8.196 18.41 8.196 18.41s-1.295-12.637 7.333-17.786c-4.458 1.404-4.315 1.092-6.76.936l-.574-4.057s-.432 2.027-1.294 3.9c-1.87.623-2.3.623-6.902-1.405z"/><path d="M122.316-71.72c9.24 4.202 12.04 15.84 12.04 15.84S130.3-67.836 137.546-75c-4.02 2.48-3.95 2.14-6.36 2.6l-1.457-3.797s.03 2.08-.395 4.114c-1.68 1.075-2.098 1.183-7.02.363z"/><path d="M187.687-75.48c6.304 8.325 3.635 20 3.635 20s1.7-12.584 11.26-15.29c-4.645.182-4.433-.082-6.764-.88l.39-4.08s-.89 1.85-2.164 3.435c-1.957.11-2.374-.004-6.357-3.185z"/><path d="M104.92-65.762c6.946 3.425 10.553 13.58 10.553 13.58s-4.514-10.4-.584-16.91c-2.4 2.3-2.4 2-3.986 2.474l-1.55-3.298s.322 1.828.326 3.63c-.995.994-1.267 1.1-4.76.524z"/><path d="M211.656-70.23c1.328 8.02-4.446 16.97-4.446 16.97s5.443-9.882 12.713-10.172c-3.144-.78-2.913-.952-4.186-2.065l1.66-3.237s-1.228 1.325-2.616 2.36c-1.335-.302-1.573-.478-3.124-3.856z"/></g><g stroke-width="1pt" transform="matrix(1.695 0 0 1.695 -124.21 288.5)"><rect transform="translate(13.258 -218.32)" rx="3.362" ry="3.51" height="7.02" width="6.724" y="97.304" x="145.26" fill="#f3ef7d"/><path d="M161.658-121.016h.704v7.02h-.704z"/><rect transform="translate(13.258 -218.32)" rx="1.553" ry="1.756" height="3.512" width="3.106" y="119.51" x="147.36" fill="#f3ef7d"/><rect transform="translate(13.258 -218.32)" rx="1.454" ry="1.651" height="3.303" width="2.909" y="115.96" x="147.36" fill="#f3ef7d"/><rect transform="translate(13.258 -218.32)" rx="1.454" ry="1.547" height="3.094" width="2.909" y="112.61" x="147.36" fill="#f3ef7d"/><rect transform="translate(13.258 -218.32)" rx="1.258" ry="1.233" height="2.467" width="2.516" y="109.9" x="147.56" fill="#f3ef7d"/><rect transform="translate(13.258 -218.32)" rx="1.258" ry="1.442" height="2.885" width="2.516" y="106.76" x="147.56" fill="#f3ef7d"/><rect transform="translate(13.258 -218.32)" rx="1.061" ry="1.024" height="2.049" width="2.123" y="104.46" x="147.76" fill="#f3ef7d"/><path d="M165.368-117.9l.004.735-6.724.04-.004-.734z"/><rect transform="translate(13.258 -218.32)" rx="1.946" ry="2.07" height="4.139" width="3.892" y="123.07" x="146.97" fill="#f3ef7d"/></g></g></g></svg>