<svg xmlns="http://www.w3.org/2000/svg" height="480" width="640"><g><path fill-rule="evenodd" stroke-width="1pt" fill="#fc0" d="M0 0h640v480H0z"/><path fill-rule="evenodd" stroke-width="1pt" fill="#f60" d="M241.63 42.685h202.1v403.22h-202.1z"/><path fill-rule="evenodd" stroke-width="1pt" fill="#060" d="M42.663 42.685h199.14v403.28H42.663z"/><g><path fill-rule="evenodd" stroke-width=".644pt" fill="#991b33" d="M242.394 171.582h367.9v274.823h-367.9z"/><g fill="#fc0"><path stroke-linejoin="round" d="M387.145 298.745l5.425.14s-6.12 5.144-4.73 12.098c6.4-9.456 8.764-7.65 8.764-7.65-1.948 2.087-5.703 5.007-2.782 11.406 2.504-6.54 7.65-11.545 7.65-11.545s-1.392 7.23 1.667 13.908c2.224-6.677 5.98-12.378 5.98-12.378s-.556 7.232 2.643 9.873c2.503-2.224 4.172-7.927 4.172-7.927s4.73 8.347 7.65 9.598c2.364-5.703 2.364-10.153 2.364-10.153s9.734 6.954 17.522 2.92c-6.954-2.5-9.318-8.343-9.318-8.343s12.657 5.562 18.08 3.06c-5.286-4.035-17.662-10.014-17.662-10.014s9.18 3.337 11.82 2.503c-1.25-1.807-5.284-4.032-5.284-4.032" fill-rule="evenodd" stroke="#991b33" stroke-linecap="round" stroke-width="1.526pt"/><path d="M463.11 230.9c16.77-1.527 42.682 12.176 56.416 21.317 0-3.052 0-6.09 3.037-7.615 3.052-1.526 7.63 1.526 6.104 6.09-4.578 10.65-22.875-1.527-28.964-4.564l3.052 6.09c-9.156-1.527-10.682-3.053-16.77-10.668-1.527 6.09-1.527 7.615-9.157 7.615 2.87-4.517 3.83-6.028 0-10.65l-1.526 9.124-7.614-10.652v10.65c-1.526-1.51-7.63-6.088-10.682-6.088-4.563-1.526-7.615 7.615-9.14 12.193 4.577-4.578 6.088-7.615 13.718-4.578-4.136 3.907-2.93 8.59 1.526 12.178 0 0 .793-6.333 1.282-7.783 2.426 1.816 7.57 8.637 13.962 9.31 4.578 0 9.156-1.527 13.72-3.038 15.244-1.526 48.785 1.51 41.17 24.355-1.525 4.578-3.05 7.615-6.103 10.667 21.35 7.614 3.053 35.02-1.525 48.725-3.052 12.176-.93 21.882 14.1 20.31-3.037 6.09-7.996 7.096-14.1 7.096 0 0 .763 3.662 4.685 5.386-6.517 5.845 2.258 14.604-1.633 18.984-6.562 3.143-15.245-1.526-15.245-1.526l-.427 4.318s-11.522-.793-11.766-1.28c0 0 3.28-6.136 3.036-6.258-3.052 4.563-5.967 7.233-12.193 6.257 0 0 .49-2.87 3.892-6.5-4.624 4.607-5.128 6.622-9.98 6.5 0-7.615 4.562-16.74 13.718-13.704 1.526 0 6.333 3.785 8.592 1.343 1.83-2.625.747-11.506.747-14.558.962-13.46-1.724-12.666-9.34-20.28-6.103-4.563-10.562-11.558-18.177-13.084-7.63-1.526-19.94 6.995-26.045 10.03-15.245 9.142-28.964 15.23-45.734 18.283 0 0 .33-.778.33-2.3 0-1.028 16.462-13.84 19.34-36.335-4.505 22.2-20.51 33.93-21.113 38.055-.6 4.126-3.87 11.166-4.266 11.627 1.98-1.188 8.33-4.3 16.375-4.958-1.735 9.536-10.666 7.614-12.192 12.177 0 4.578 6.104 10.667 0 13.704h-24.386s3.752-5.195 3.93-6.626c-3.28 1.992-5.364 7.22-12.553 6.683.263-1.965 3.706-5.043 3.127-6.252-4.112 3.816-6.043 7.03-11.29 6.197 1.527-4.563 1.527-10.652 7.63-10.652 4.58-1.526 9.157 1.526 12.194-3.052 6.105-7.615-1.112-24.272-2.622-33.413 0-7.615.022-9.058-1.94-18.35l1.526 27.408c-6.104-4.578-12.208-7.615-16.786-13.703-10.667-13.704-7.615-28.933 6.104-38.074 6.104-4.562 9.4-6.942 17.03-9.98-1.526-4.577 2.167-7.95-3.235-9.37-1.617 2.824-3.205 5.907-6.287 5.648l1.648-7.615s-5.494.336-4.41 10.163c-6.318-3.037-3.22-10.163-3.22-10.163h-3.052s-.015 9.064-4.99 10.895c1.343-4.257 1.938-10.895 1.938-10.895s-8.164 9.736-12.91 6.577c2.793-3.16 4.96-3.678 4.578-7.493-.366-3.8-2.335-8.702-2.692-9.477 1.728.835 13.23 4.268 20.442.692-.477 2.384-.262 5.138-.262 5.138 7.615-1.526 9.14-1.526 16.77 1.51-1.525-10.65-7.63-12.177-13.718-19.79v6.087c-6.104-1.51-7.63-3.036-10.682-9.125l-4.563 3.037c-8.042-4.747-13.978-16.01-2.563-15.353 6.806.855 1.037 6.226 1.037 6.226s17.46-5.494 24.387-6.104c0 0-2.015-4.258-8.454-4.99 5.34-4.014 10.712-5.31 14.558 3.143 3.83.213 7.402-4.395 5.128-10.377 5.662-.092 8.454 3.494 11.033 7.264 2.107.38 4.228-1.832 3.725-9.4 5.34 4.562 7.965 5.966 8.316 9.812 4.55 1.007 7.63-.016 14.483-3.068-1.51 6.104-1.51 7.615-7.615 10.667 4.304 5.32 4.757 11.737 3.855 14.07-1.494-.433-1.866-.53-2.927-.82.33 2.352.81 8.825.598 12.632h-3.052l4.578 13.704-3.052 4.578c10.667-4.578 21.35-3.052 32.016-6.09 12.192-1.525 24.4-6.103 38.12-6.103 9.14 0 9.14 4.58 21.348 4.58v-7.616c0-6.09-4.578-12.177-12.208-13.703-4.563 0-12.193 3.037-16.77 4.563-6.09 1.526-15.246 1.526-21.35 1.526-19.807-3.053-16.648-4.975-23.56-8.684-4.136 1.1-6.456 4.61-8.516 10.804-3.83-5.615-2.976-12.787 1.587-15.824-4.563-16.756 7.63-24.37 22.875-27.407z"/><path stroke-linejoin="round" d="M467.688 367.95c-3.052-4.58-13.734-12.194-10.682-19.81 4.578-7.613 30.504-19.79 35.067-3.035 1.526 4.562-3.177 16.674-4.703 21.252 2.31-.593 4.876-4.14 12.39-2.855-1.4 5.982-10.54 10.595-10.54 10.595.927 4.047-6.288 22.77-6.288 22.77H463.11l3.052-6.09-4.578 6.09h-7.63l6.104-7.615s-7.22 8.457-13.373 8.12c1.526-12.178 8.795-14.21 19.477-9.63 1.526-6.09 4.562-13.704 1.526-19.793z" stroke="#991b33" stroke-width="1.526"/><path d="M386.047 253.273c-2.056 1.265-.377 9.63 2.78 8.206 3.936-1.776-1.22-9.168-2.78-8.207z" fill-rule="evenodd" stroke="#991b33" stroke-width="1.526pt"/><path stroke-linejoin="round" d="M387.985 250.632c3.755 2.642 9.736 9.735 17.106 9.318-5.563-4.59-4.45-7.928-4.45-7.928 2.922 3.477 12.657 6.676 15.855 5.285-3.754-2.78-4.45-3.06-5.285-5.702 4.452.557 10.014 1.53 14.464-.417" fill-rule="evenodd" stroke="#991b33" stroke-linecap="round" stroke-width="1.526pt"/><path stroke-linejoin="round" d="M395.218 297.082l.417-6.398s4.172 9.735 7.23 9.874c-1.946-7.092-1.11-12.795-1.11-12.795" fill-rule="evenodd" stroke="#991b33" stroke-linecap="round" stroke-width="1.526pt"/><path stroke-linejoin="round" d="M404.954 289.294s8.344 15.298 12.377 12.795c-6.118-5.425-5.422-12.518-5.422-12.518s2.782 9.458 10.987 12.38c.556-5.287-3.198-13.91-3.198-13.91s6.813 11.96 10.29 12.24c2.226-2.78 1.39-5.703 1.39-5.703" fill-rule="evenodd" stroke="#991b33" stroke-linecap="round" stroke-width="1.526pt"/><path stroke-linejoin="round" d="M398.423 278.725l6.12 7.788.972-10.43s5.98 4.728 7.093 4.59-1.67-11.127-1.67-11.127 8.067 12.24 8.624 11.96c.556-.278.833-12.1.833-12.1s6.12 16.83 8.207 16.69c2.086-.138 1.53-2.363 1.53-2.363" fill-rule="evenodd" stroke="#991b33" stroke-linecap="round" stroke-width="1.526pt"/><path stroke-linejoin="round" d="M393.83 265.095s9.456 8.623 10.43 8.066c.973-.555-3.893-10.012-3.893-10.012s5.423 5.146 7.51 5.563.695-6.675.695-6.675 6.397 5.424 7.51 5.146.556-5.145.556-5.145 4.173 4.173 4.45 4.173-.834-11.96-.834-11.96 9.32 9.873 10.013 9.734" fill-rule="evenodd" stroke="#991b33" stroke-linecap="round" stroke-width="1.526pt"/><path stroke-linejoin="round" d="M356 268.155c.416.695 1.965 12.994 21.02 7.987 1.807-.974 1.012 3.437.933 4.728.835-.14 9.916-3.377 16.174 1.212-.736-5.087-2.108-8.503-7.53-11.424-2.642-.556-4.57.795-4.57.795s-22.968.18-26.027-3.298z" fill-rule="evenodd" stroke="#991b33" stroke-linecap="round" stroke-width="1.526pt"/><path stroke-linejoin="round" d="M345.608 346.463c-.316 1.424-1.313 1.834-4.16 5.947 1.266 1.74 7.087 4.46 8.668 3.036 1.423-.792 1.526-4.562 1.526-4.562 3.052 4.562 8.42 11.758 14.524 13.284 4.563 1.526 9.14-1.526 9.14-6.09s-6.894-11.93-9.93-14.968c-7.63-9.14-6.958-26.404-21.38-24.002-.076.13-.653 2.095-2.035 2.446 1.16 2.217 1.81 4.09-.964 4.79 2.156 2.117 2.495 3.655-.276 4.718 1.677 2.25 3.64 3.075-.22 5 4.04 3.937 4.91 9.73 5.108 10.4" stroke="#991b33" stroke-linecap="round" stroke-width="1.526"/><path d="M341.854 217.41c-4.586 6.643-5.062 79.708-3.638 94.416-4.586 3.004-13.125 1.74-15.498.79 1.108-5.22 5.06-89.987 19.136-95.205z" fill-rule="evenodd" stroke="#991b33" stroke-width="1.526pt"/><path d="M328.883 367.17s-20.244 2.847-11.705-9.17c7.276-3.164 7.118 4.27 4.43 6.8 3.32.37 5.535-1.794 6.008-5.062-4.11-5.535 1.74-9.173 1.424-9.173-14.074 3.163-15.973-6.484-10.754-8.065 6.59.368 4.482 2.477 7.117 4.428 4.745-4.375 7.592-4.796 10.438-.316 2.847-4.428 6.96-3.953 7.117-3.48 4.587 7.75-5.535 8.223-9.646 7.274 3.48 3.797 2.057 7.433.95 10.124.104 2.635 2.11 3.056 5.376 4.11-6.957-19.19 24.514 5.113-7.117 2.69l.158 2.53c2.583.474 4.375 1.106 5.217 3.795-1.105 1.475-2.844 1.686-5.533.633 0 0 1.58 4.428-1.265 5.693-2.373-1.422-2.69-4.902-2.69-4.902-1.317 1.635-3.268.58-4.902-.79 1.477-3.638 5.642-1.9 5.378-7.117z" fill-rule="evenodd"/><path d="M311.486 308.664c1.212-5.485 13.97-4.8 7.908 1.106 4.058 6.484 16.5 5.537 21.192 1.9-3.956-7.54 6.8-5.907 6.326-.16-1.318 10.172-36.796 8.803-35.426-2.846z" fill-rule="evenodd"/><path d="M564.665 405.717c3.8 7.112 10.546 23.962 14.283 27.987 3.503 3.132 12.224 2.762 14.91-.778 0 0 5.585 5.753 7.843 7.493 1.344-.46 2.168-1.74 2.168-1.74-2.274-2.473-5.372-3.862-6.898-8.44 2.274-3.036 3.526-8.942 2-13.52-6.67-11.17-28.857-6.76-34.305-11.003z" stroke="#991b33" stroke-width="1.526"/><path d="M287.742 211.682c-3.8-7.11-10.546-23.96-14.284-27.987-3.502-3.13-12.223-2.762-14.91.778 0 0-5.584-5.753-7.842-7.492-1.343.46-2.167 1.74-2.167 1.74 2.273 2.472 5.37 3.86 6.896 8.44-2.273 3.036-3.525 8.942-2 13.52 6.67 11.17 28.858 6.76 34.306 11.002z" stroke="#991b33" stroke-width="1.526"/><path d="M285.483 404.634c-7.11 3.8-23.96 10.546-27.987 14.283-3.13 3.503-2.762 12.224.78 14.91 0 0-5.754 5.585-7.494 7.843.458 1.343 1.74 2.167 1.74 2.167 2.472-2.274 3.86-5.372 8.44-6.898 3.035 2.273 8.94 3.524 13.52 1.998 11.17-6.668 6.76-28.856 11-34.304z" stroke="#991b33" stroke-width="1.526"/><path d="M565.245 211.68c3.8-7.11 10.546-23.96 14.283-27.986 3.502-3.132 12.224-2.762 14.91.778 0 0 5.584-5.753 7.843-7.493 1.344.457 2.168 1.74 2.168 1.74-2.274 2.47-5.372 3.86-6.898 8.438 2.274 3.036 3.525 8.942 2 13.52-6.67 11.17-28.857 6.76-34.305 11.002z" stroke="#991b33" stroke-width="1.526"/><path stroke-linejoin="round" d="M317.194 321.162c-.3 2.316 5.23 3.325 10.897 3.352 5.668.03 11.478-.923 11.74-2.53.074-2.876-4.95-.43-10.665-.477-5.715-.046-10.477-2.288-11.97-.345z" fill-rule="evenodd" stroke="#fc0" stroke-width="1.526pt"/><path stroke-linejoin="round" d="M317.65 327.586c.075 2.167 5.567 2.69 10.422 2.84 4.858.148 9.75-.822 10.646-2.39-.86-2.467-6.257-.412-10.647-.3-4.388.113-9.262-2.167-10.42-.15z" fill-rule="evenodd" stroke="#fc0" stroke-width="1.526pt"/><path stroke-linejoin="round" d="M319.223 333.34c-.374 1.643 4.464 2.82 8.918 2.847s10.77-1.69 10.805-3.446c-.26-1.38-6.5.486-10.69.627-4.194.14-9.032-1.522-9.032-.028z" fill-rule="evenodd" stroke="#fc0" stroke-width="1.526pt"/><path stroke-linejoin="round" d="M318.69 339.245c.373 1.605 5.865 2.148 10.692 1.784 4.828-.364 9.74-1.86 10.15-3.578-.224-1.084-5.77.84-10.365 1.074s-10.553-.552-10.478.72z" fill-rule="evenodd" stroke="#fc0" stroke-width="1.526pt"/></g></g></g></svg>