<svg xmlns="http://www.w3.org/2000/svg" height="480" width="640"><defs><clipPath id="a"><path fill-opacity=".67" d="M0 0h682.67v512H0z"/></clipPath></defs><g clip-path="url(#a)" fill-rule="evenodd" transform="scale(.938 .938)"><path stroke-width="1pt" fill="#fff" d="M0 .084h767.87v511.92H0z"/><path stroke-width="1pt" fill="#006" d="M0 0h232.74v232.75H0z"/><path stroke-width="1pt" fill="#c00" d="M0 464.87h767.89v47.127H0z"/><path stroke-width="1pt" fill="#c00" d="M0 465.43h767.89v46.574H0z"/><path stroke-width="1pt" fill="#c00" d="M0 372.52h767.89v46.21H0z"/><path stroke-width="1pt" fill="#c00" d="M0 279.26h765.96v46.7H0z"/><path stroke-width="1pt" fill="#c00" d="M232.67.055h535.17V46.55H232.67z"/><path stroke-width="1pt" fill="#c00" d="M232.67 186.06h535.17v46.796H232.67z"/><path stroke-width="1pt" fill="#c00" d="M232.67 93.36h535.17v46.495H232.67z"/><path d="M166.35 177.47l-50.71-30.98-50.465 31.29 18.77-50.85L33.57 95.536l62.322-.438 19.328-50.69 19.744 50.573 62.32.068-50.114 31.693 19.184 50.733z" stroke-width=".113" fill="#fff"/></g></svg>