<svg xmlns="http://www.w3.org/2000/svg" height="480" width="640"><g><g fill-rule="evenodd" stroke-width="1pt"><path fill="#00319c" d="M0 0h213.337v480H0z"/><path fill="#ffde00" d="M213.337 0h213.338v480H213.337z"/><path fill="#de2110" d="M426.662 0H640v480H426.662z"/></g><g><path d="M360.376 320.377l24.267 35.012c1.348 1.944 2.696 3.89.66 5.177-2.035 1.29-1.374 6.467-.026 8.412 2.696 3.89 6.08 4.546 8.116 3.258l18.32-11.594c2.035-1.288 2.722-4.522.026-8.412-1.55-1.96-6.08-4.547-8.117-3.26-2.036 1.29-3.384-.655-4.732-2.6-1.347-1.946-21.57-31.123-24.266-35.013" fill-rule="evenodd" stroke="#000" stroke-width=".54735pt" fill="#ff1900"/><path d="M177.17 696.26c0 24.46-9.518 44.29-21.26 44.29-11.74 0-21.26-19.83-21.26-44.29s9.518-44.29 21.26-44.29c11.74 0 21.26 19.83 21.26 44.29z" fill-rule="evenodd" transform="matrix(.528 -.424 .444 .504 -32.41 19.895)" stroke="#000" stroke-width="2.54" fill="#a77b3b"/><path d="M261.952 306.142L240.53 342.81c-1.192 2.036-2.382 4.073-4.513 2.936-2.132-1.138-6.645 1.8-7.835 3.836-2.38 4.075-1.44 7.25.693 8.386l19.186 10.236c2.133 1.137 5.455.238 7.835-3.837 1.114-2.213 1.44-7.248-.693-8.386-2.132-1.136-.94-3.173.25-5.21l21.422-36.667" fill-rule="evenodd" stroke="#000" stroke-width=".54735pt" fill="#ff1900"/><path d="M331.17 280.577h-19.533c-.646.617-6.2 35.598-12.208 48.993-7.325 16.33-29.26 30.74-29.26 30.74s13.14 3.98 17.052 6.587c.972-.273 21.936-4.665 24.377-30.33 2.44 25.665-14.612 37.33-14.612 37.33s24.416 7 24.416 23.33c0-16.33 24.415-23.33 24.415-23.33s-12.247-11.665-14.688-37.33c4.882 25.665 23.48 30.057 24.453 30.33 3.91-2.606 17.053-6.586 17.053-6.586s-21.936-14.41-29.26-30.74c-6.007-13.395-11.562-48.376-12.207-48.993z" fill-rule="evenodd" stroke="#000" stroke-width="1.23.391" fill="#a77b3b"/><path d="M248.124 163.907l36.623 11.665c12.207 0 24.415-11.652 24.415-23.318.406-25.95-9.766-35.007-12.208-35.007l4.884-4.666-7.325-6.998s2.45-12.103 26.856-11.653c24.406.45 24.415 11.664 24.415 23.33 0 11.664-12.208 11.664-12.208 34.995 0 11.665 12.208 23.33 24.416 23.33l36.623-11.665v116.65H248.124V163.91z" fill-rule="evenodd" stroke="#000" stroke-width="1.23.391" fill="#a77b3b"/><g stroke="#000" fill="none"><path d="M302.16 292.24l14.645 14.964 14.644-14.964 14.644 14.964 29.29-14.964 14.26 15.81 15.03-15.81 21.604 15.81 22.33-15.81 14.644 14.964 14.645-14.964" transform="matrix(.167 0 0 .467 253.878 31.8)" stroke-width=".49"/><path d="M432.28 435.83l-7.086 38.976" transform="matrix(.689 0 0 .658 16.173 -144.018)" stroke-width=".203"/><path d="M435.83 435.83v38.976" transform="matrix(.689 0 0 .658 16.173 -144.018)" stroke-width=".203"/><path d="M442.91 435.83v38.976" stroke-width=".203" transform="matrix(.689 0 0 .658 16.173 -144.018)"/><path d="M450 435.83l3.543 38.976" transform="matrix(.689 0 0 .658 16.173 -144.018)" stroke-width=".203"/><path d="M457.09 435.83l3.543 38.976" stroke-width=".203" transform="matrix(.689 0 0 .658 16.173 -144.018)"/></g><g stroke="#000" stroke-width="2.54"><path d="M223.69 93.78c-24.414 11.658-24.414 34.972-24.414 46.63.862 10.605 0 233.15 0 233.15s1.588-13.175 12.207-23.316l12.206-11.657 12.206-11.657c8.923-7.748 12.206-23.315 12.206-34.973V128.753s0-11.658-24.413-34.973z" fill-rule="evenodd" fill="#a77b3b"/><path d="M248.107 140.413c-.287 0-12.206-11.658-12.206-11.658l-12.206 11.658-12.207-11.658-12.207 11.658" fill="none"/><path d="M248.107 152.053c-.287 0-12.206 11.658-12.206 11.658l-12.206-11.657-12.207 11.658-12.207-11.657" fill="none"/><path d="M248.107 187.04c-.287 0-12.206-11.657-12.206-11.657l-12.206 11.658-12.207-11.657-12.207 11.658" fill="none"/><path d="M235.753 128.608l.144 198.132" fill="none"/><path d="M223.69 140.2l.143 197.657" fill="none"/><path d="M211.48 128.718l.144 221.482" fill="none"/></g><g stroke="#000" stroke-width="2.54"><path d="M419 93.78c24.413 11.658 24.413 34.972 24.413 46.63-.862 10.605 0 233.15 0 233.15s-1.588-13.175-12.207-23.316L419 338.587l-12.207-11.657c-8.923-7.748-12.206-23.315-12.206-34.973V128.753s0-11.658 24.413-34.973z" fill-rule="evenodd" fill="#a77b3b"/><path d="M394.582 140.413c.287 0 12.206-11.658 12.206-11.658l12.207 11.658 12.207-11.658 12.207 11.658" fill="none"/><path d="M394.582 152.053c.287 0 12.206 11.658 12.206 11.658l12.207-11.657 12.207 11.658 12.207-11.657" fill="none"/><path d="M394.582 187.04c.287 0 12.206-11.657 12.206-11.657l12.207 11.658 12.207-11.657 12.207 11.658" fill="none"/><path d="M406.936 128.608l-.144 198.132" fill="none"/><path d="M419 140.2l-.144 197.657" fill="none"/><path d="M431.202 128.718l-.144 221.482" fill="none"/></g><path d="M177.17 696.26c0 24.46-9.518 44.29-21.26 44.29-11.74 0-21.26-19.83-21.26-44.29s9.518-44.29 21.26-44.29c11.74 0 21.26 19.83 21.26 44.29z" fill-rule="evenodd" transform="matrix(.636 .253 -.264 .608 361.064 -165.19)" stroke="#000" stroke-width="2.54" fill="#a77b3b"/><g><path fill-rule="evenodd" transform="matrix(.689 0 0 .658 16.173 -144.018)" stroke-width="1pt" fill="#f00" d="M336.61 485.43h212.6v106.3h-212.6z"/><path d="M336.61 591.73h212.6v53.15c0 35.433-53.15 35.433-106.3 70.866-53.15-35.433-106.3-35.433-106.3-70.866v-53.15z" fill-rule="evenodd" transform="matrix(.689 0 0 .658 16.174 -144.017)" stroke-width="2.5" fill="#564dff"/><path d="M336.61 485.43h212.6v159.45c0 35.433-53.15 35.433-106.3 70.866-53.15-35.433-106.3-35.433-106.3-70.866V485.43z" transform="matrix(.689 0 0 .658 16.174 -144.018)" stroke="#ff0" stroke-width="2.032" fill="none"/><path d="M385.59 129.9s-50.618 55.447-50.618 108.6c0 53.15 53.15 70.866 53.15 70.866s-17.718 0-17.718 70.866c0 35.433 53.15 17.717 53.15 35.433 0 17.717-.75 60.578 0 88.583 0 17.716-35.433 0-35.433 17.716 0 8.86 26.576 53.15 53.15 53.15 26.575 0 53.15-44.29 53.15-53.15 0-17.716-35.433 0-35.433-17.716v-88.583c0-17.716 53.15 0 53.15-35.433 0-70.866-17.717-70.866-17.717-70.866s53.15-17.717 53.15-70.866-50.62-108.6-50.62-108.6 28.474 73.163 28.474 108.6c0 17.717-13.287 53.15-48.72 53.15 0 0-8.96-17.717-17.717 0 0 0-10.19-17.717-17.716 0-2.597 6.114-7.206-17.717-17.716 0-4.465 4.696-7.984-17.717-17.717 0-17.716 0-53.148-17.717-53.15-53.15 0-35.433 32.903-108.6 32.903-108.6z" fill-rule="evenodd" transform="matrix(.482 0 0 .309 108.513 139.922)" stroke="#000" stroke-width="2.448" fill="#ff0"/><path d="M382.68 248.03c-3.543 3.543 4.58 61.274 7.087 63.78 3.543 3.542 24.803 3.542 28.346 0 2.525-2.526 0-56.694-3.543-60.237-3.543-3.544-29.384-6.05-31.89-3.543z" fill-rule="evenodd" transform="matrix(.482 0 0 .309 110.352 201.379)" stroke="#000" stroke-width="2.448" fill="#ff0"/><path d="M382.68 248.03c-3.543 3.543 4.58 61.274 7.087 63.78 3.543 3.542 24.803 3.542 28.346 0 2.525-2.526 0-56.694-3.543-60.237-3.543-3.544-29.384-6.05-31.89-3.543z" fill-rule="evenodd" transform="matrix(-.482 0 0 .309 532.33 201.379)" stroke="#000" stroke-width="2.448" fill="#ff0"/><path d="M414.57 228.54c0 8.806-7.14 15.945-15.945 15.945-8.806 0-15.945-7.14-15.945-15.945 0-8.806 7.14-15.945 15.945-15.945 8.806 0 15.945 7.14 15.945 15.945z" fill-rule="evenodd" transform="matrix(.555 0 0 .385 82.681 183.528)" stroke="#000" stroke-width="2.448" fill="#ff0"/><path d="M414.57 228.54c0 8.806-7.14 15.945-15.945 15.945-8.806 0-15.945-7.14-15.945-15.945 0-8.806 7.14-15.945 15.945-15.945 8.806 0 15.945 7.14 15.945 15.945z" fill-rule="evenodd" transform="matrix(.555 0 0 .385 118.035 183.528)" stroke="#000" stroke-width="2.448" fill="#ff0"/><path d="M414.57 228.54c0 8.806-7.14 15.945-15.945 15.945-8.806 0-15.945-7.14-15.945-15.945 0-8.806 7.14-15.945 15.945-15.945 8.806 0 15.945 7.14 15.945 15.945z" fill-rule="evenodd" transform="matrix(.268 0 0 .172 225.643 267.989)" stroke-width="1pt"/><path d="M414.57 228.54c0 8.806-7.14 15.945-15.945 15.945-8.806 0-15.945-7.14-15.945-15.945 0-8.806 7.14-15.945 15.945-15.945 8.806 0 15.945 7.14 15.945 15.945z" fill-rule="evenodd" transform="matrix(.268 0 0 .172 203.423 267.989)" stroke-width="1pt"/><path fill-rule="evenodd" transform="matrix(.672 0 0 .642 25.998 -133.327)" stroke="#000" stroke-width=".813pt" fill="#ff0" d="M439.37 549.92l-7.78-10.26-12.77 1.75 1.76-12.76-10.26-7.78 10.26-7.79-1.76-12.76 12.77 1.76 7.78-10.27 7.78 10.27 12.77-1.76-1.76 12.76 10.26 7.79-10.26 7.78 1.76 12.76-12.77-1.75z"/><path d="M496.06 591.73l21.26 10.63 21.26-10.63-21.26-10.63-21.26 10.63z" fill-rule="evenodd" transform="matrix(.689 0 0 .658 16.173 -144.018)" stroke="#000" stroke-width=".813pt" fill="#ff0"/><path d="M496.06 591.73l21.26 10.63 21.26-10.63-21.26-10.63-21.26 10.63z" fill-rule="evenodd" transform="matrix(.689 0 0 .658 -88.803 -144.018)" stroke="#000" stroke-width=".813pt" fill="#ff0"/><path d="M535.04 659.06c-3.543-7.086-14.173-10.63-21.26-10.63-7.086 0-14.173 0-21.26 10.63 0-14.173 10.503-21.26 21.26-21.26 10.757 0 21.26 10.503 21.26 21.26z" fill-rule="evenodd" transform="matrix(.597 -.328 .343 .57 -165.137 86.354)" stroke="#000" stroke-width=".813pt" fill="#ff0"/><path d="M386.22 651.97c0 3.914-3.173 7.087-7.087 7.087s-7.086-3.173-7.086-7.087 3.173-7.087 7.086-7.087 7.087 3.173 7.087 7.087z" fill-rule="evenodd" transform="matrix(.689 0 0 .658 13.732 -155.676)" stroke="#000" stroke-width=".813pt" fill="#ff0"/><path d="M386.22 651.97c0 3.914-3.173 7.087-7.087 7.087s-7.086-3.173-7.086-7.087 3.173-7.087 7.086-7.087 7.087 3.173 7.087 7.087z" fill-rule="evenodd" transform="matrix(.689 0 0 .658 8.849 -139.355)" stroke="#000" stroke-width=".813pt" fill="#ff0"/><path d="M386.22 651.97c0 3.914-3.173 7.087-7.087 7.087s-7.086-3.173-7.086-7.087 3.173-7.087 7.086-7.087 7.087 3.173 7.087 7.087z" fill-rule="evenodd" transform="matrix(.689 0 0 .658 6.408 -148.681)" stroke="#000" stroke-width=".813pt" fill="#ff0"/><path d="M386.22 651.97c0 3.914-3.173 7.087-7.087 7.087s-7.086-3.173-7.086-7.087 3.173-7.087 7.086-7.087 7.087 3.173 7.087 7.087z" fill-rule="evenodd" transform="matrix(.689 0 0 .658 18.614 -139.355)" stroke="#000" stroke-width=".813pt" fill="#ff0"/><path d="M386.22 651.97c0 3.914-3.173 7.087-7.087 7.087s-7.086-3.173-7.086-7.087 3.173-7.087 7.086-7.087 7.087 3.173 7.087 7.087z" fill-rule="evenodd" transform="matrix(.689 0 0 .658 21.056 -148.681)" stroke="#000" stroke-width=".813pt" fill="#ff0"/><path d="M386.22 651.97c0 3.914-3.173 7.087-7.087 7.087s-7.086-3.173-7.086-7.087 3.173-7.087 7.086-7.087 7.087 3.173 7.087 7.087z" fill-rule="evenodd" transform="matrix(.689 0 0 .658 13.732 -146.349)" stroke="#000" stroke-width=".813pt" fill="#ff0"/></g><g fill-rule="evenodd"><path d="M389.76 386.22c-15.647 0-17.716 1.772-24.803 3.544 0-4.89 17.424-10.63 33.07-10.63 0 3.543-4.133 7.087-8.267 7.086z" transform="matrix(.788 0 0 1.097 -9.171 -303.34)" stroke-width="1pt" fill="#da4500"/><path d="M316.46 107.768c0 2.575-2.185 4.663-4.882 4.663s-4.882-2.087-4.882-4.662 2.186-4.663 4.882-4.663 4.883 2.087 4.883 4.663z" fill="#cac9c7"/><path d="M361.42 357.87v10.63h17.717v53.15h10.63V368.5h17.716v-10.63h-17.716v-14.173h-10.63v14.173H361.42z" stroke="#000" stroke-width=".813pt" fill="#ff0" transform="matrix(.689 0 0 .658 16.173 -144.018)"/><path d="M396.85 387.11c-15.647 0-24.803.885-31.89 2.657 0-4.89 9.156-10.63 24.803-10.63 3.543 0 7.087 5.315 7.087 7.973z" transform="matrix(.918 0 0 1.462 -60.327 -453.581)" stroke-width="1pt" fill="#da4500"/></g><g fill-rule="evenodd"><path d="M67.323 612.99c-14.173-14.17-16.634-21.36 3.543-10.1l283.75 247.5-3.366 6.968-283.93-244.37z" transform="matrix(.388 .296 -.141 .237 237.432 71.161)" stroke="#000" stroke-width=".711" fill="#008500"/><path d="M228.757 329.67c.775-10.596-18.64-21.997-19.41-21.25-.768.747 1.18 6.908 4.86 10.11-7.05-3.606-14.437-5.818-14.592-4.243-.576 2.126 10.957 7.163 11.914 9.12.155 1.398-8.473 1.24-8.317 2.64.156 1.4 24.295 13.51 25.543 3.62z" fill="#008f00"/><path d="M209.395 298.855c.775-10.595-18.64-21.996-19.41-21.25-.768.748 1.18 6.91 4.86 10.112-7.05-3.607-14.437-5.82-14.592-4.244-.576 2.126 10.957 7.163 11.914 9.12.156 1.398-8.472 1.24-8.316 2.64.157 1.4 24.296 13.51 25.544 3.62z" fill="#008f00"/><path d="M194.578 270.876c.775-10.595-18.64-21.996-19.41-21.25-.768.748 1.18 6.91 4.86 10.112-7.05-3.607-14.437-5.82-14.592-4.244-.576 2.126 10.957 7.163 11.914 9.12.156 1.398-8.472 1.24-8.316 2.64.156 1.4 24.295 13.51 25.543 3.62z" fill="#008f00"/><path d="M179.93 240.562c.775-10.595-18.64-21.996-19.41-21.25-.768.748 1.18 6.91 4.86 10.112-7.05-3.607-14.437-5.82-14.592-4.244-.576 2.126 10.957 7.163 11.914 9.12.156 1.398-8.472 1.24-8.316 2.64.156 1.4 24.295 13.51 25.543 3.62z" fill="#008f00"/><path d="M184.676 239.8c9.388-5.653 7.543-27.36 6.46-27.512-1.083-.153-5.128 4.984-5.656 9.715-1.12-7.57-3.612-14.573-5.032-13.763-2.132.81.427 12.68-.657 14.572-1.087.946-6.045-5.803-7.133-4.857-1.087.946 2.947 26.716 12.02 21.844z" fill="#008f00"/><path d="M198.5 266.42c10.808-2.342 16.627-23.39 15.66-23.878-.966-.49-6.563 3.066-8.707 7.357 1.58-7.49 1.672-14.886.053-14.575-2.29.085-4.01 12.09-5.69 13.527-1.355.546-3.673-7.394-5.027-6.848-1.354.546-6.526 26.12 3.712 24.415z" fill="#008f00"/><path d="M214.47 293.615c9.855-4.837 10.054-26.612 8.992-26.855-1.06-.243-5.56 4.53-6.528 9.198-.404-7.632-2.225-14.818-3.712-14.132-2.193.627-.762 12.665-2.016 14.458-1.17.85-5.464-6.29-6.633-5.44-1.17.85.426 26.856 9.896 22.77z" fill="#008f00"/><path d="M232.073 328.826c10.326-3.897 12.825-25.507 11.793-25.846-1.03-.34-6.017 3.99-7.473 8.535.404-7.618-.65-14.923-2.204-14.38-2.25.422-2.098 12.51-3.536 14.176-1.255.738-4.777-6.75-6.03-6.013-1.255.737-2.413 26.715 7.45 23.528z" fill="#008f00"/></g><path d="M209.06 775.98c0 7.828-10.312 14.173-23.03 14.173-12.72 0-23.032-6.346-23.032-14.173 0-7.828 10.312-14.173 23.03-14.173 12.72 0 23.032 6.346 23.032 14.173z" fill-rule="evenodd" transform="matrix(.601 .321 -.336 .574 389.49 -146.791)" stroke="#000" stroke-width=".813pt" fill="#ff1900"/><g stroke="#000" fill-rule="evenodd" fill="#ff0"><path d="M155.91 414.57v-7.087h7.086v-7.086h7.087v7.086h7.086v7.087h-7.087v17.716h-7.087V414.57h-7.086z" transform="matrix(.498 .157 -.182 .471 451.334 -3.743)" stroke-width=".508"/><path stroke-width=".512" d="M162.99 474.8h7.087v205.51h-7.087z" transform="matrix(.498 .157 -.182 .471 451.334 -3.743)"/><path stroke-width=".508" d="M159.45 676.77h14.173v56.693H159.45z" transform="matrix(.498 .157 -.182 .471 451.334 -3.743)"/><path d="M155.91 439.37h21.26c14.173 0-3.544 38.976-3.544 38.976h-14.173s-17.717-38.976-3.543-38.976z" stroke-width=".508" transform="matrix(.498 .157 -.182 .471 451.334 -3.743)"/><path d="M173.62 434.06c0 2.935-3.173 5.315-7.087 5.315s-7.086-2.38-7.086-5.315 3.173-5.315 7.086-5.315 7.087 2.38 7.087 5.315z" stroke-width=".508" transform="matrix(.498 .157 -.182 .471 451.334 -3.743)"/></g><path d="M209.06 775.98c0 7.828-10.312 14.173-23.03 14.173-12.72 0-23.032-6.346-23.032-14.173 0-7.828 10.312-14.173 23.03-14.173 12.72 0 23.032 6.346 23.032 14.173z" fill-rule="evenodd" transform="matrix(.574 -.364 .38 .549 -2.257 4.193)" stroke="#000" stroke-width=".813pt" fill="#ff1900"/></g></g></svg>