<svg xmlns="http://www.w3.org/2000/svg" height="480" width="640"><g fill-rule="evenodd"><g><path stroke-width="1pt" fill="#3b5aa3" d="M0 0h479.91v480H0z" transform="scale(1.333 1)"/><path d="M0 467.08L639.76 0l-.027 86.915L0 479.995v-12.92z" fill="#e2ae57"/><path d="M22.392 479.98l617.445-300.76-.133-95.48L-.003 480l22.392-.02z" fill="#fff"/></g><path d="M175.32 15.163l-6.314 102.79-27.01-65.552 10.36 69.776-41.83-56.378 27.42 64.338L83.013 87.52l42.765 53.546-62.102-27.52 54.392 41.19-67.65-8.95 63.93 25.34-100.35 9.18 100.59 6.723-63.742 26.206 66.972-9.062-54.195 40.018 62.89-27.595-42.895 53.99 54.573-41.318-27.036 62.888 43.684-54.69-11.824 68.173 27.478-63.7 6.212 100.63 9.69-100.38 23.692 64.09-9.032-69.058 43.468 54.738-28.56-63.93 54.55 43.996-43.37-54.93 64.833 26.995-57.38-41.9 69.88 11.78-66.897-25.695 104.05-6.46-104.05-9.69 68.486-22.83-70.972 8.915 58.638-40.996-66.09 26.586 45.643-55.334-55.582 43.408 26.747-66.412-43.146 56.474 9.268-70.43-25.665 66.455-9.587-102.79z" fill="#fff"/></g></svg>