<svg xmlns="http://www.w3.org/2000/svg" height="480" width="640"><g fill-rule="evenodd"><path stroke-width="1pt" fill="#d61517" d="M0 0h640v480H0z"/><path stroke-width="1pt" fill="#018edf" d="M213.33 0h213.33v480H213.33z"/><path d="M102.54 244.2c9.912.286 11.437-3.152 11.437-6.59v-11.75c0-1.43 3.812-2.864 3.812-5.443 0-2.58-1.907-5.444-2.67-7.164-1.143 4.298-3.05 8.597-6.48 10.03-1.526-3.44-1.907-4.586-1.144-6.305.762-1.72 0-4.298-1.525-6.877-1.143 5.445-4.574 6.878-4.955 8.597-.382 1.72-1.525 6.59-3.813 4.012-2.287-2.58-3.812-5.732-4.956-9.17-2.288 6.876-1.144 8.31-.38 9.456.76 1.146 1.524 4.584 1.524 6.017s-1.525 7.164-.763 8.883c.763 1.72 1.144 6.877 9.913 6.304z" fill-opacity=".867" stroke-width="1pt" fill="#ffd700"/><path d="M221.01 236.08a39.212 39.212 0 1 1-78.424 0 39.212 39.212 0 1 1 78.424 0z" fill-opacity=".867" transform="matrix(.638 0 0 .479 -10.775 155.89)" stroke-width="1pt" fill="#ffd700"/><path d="M140 276.43c-13.198 18.438-38.615 23.562-57.462 11.202-4.968-3.257-8.601-6.904-12.058-11.575 3.117 13.254 12.565 22.638 25.64 25.988 19.245 4.93 38.903-6.546 43.88-25.615z" fill-opacity=".867" stroke-width="1pt" fill="#ffd700"/><path fill-opacity=".867" stroke-width="1pt" fill="#ffd700" d="M66.874 421.71h74.38v15.473h-74.38z"/><path d="M70.513 312.35l33.17 20.127 33.55-20.127h-66.72z" fill-opacity=".867" stroke-width="1pt" fill="#ffd700"/><path fill-opacity=".867" stroke-width="1pt" fill="#ffd700" d="M70.513 334.14h67.1v15.474h-67.1z"/><path d="M70.513 447.09l33.17 15.76 33.55-15.76h-66.72z" fill-opacity=".867" stroke-width="1pt" fill="#ffd700"/><path fill-opacity=".867" stroke-width="1pt" fill="#ffd700" d="M20.316 312.58h32.377v149.61H20.316z"/><path fill-opacity=".867" stroke-width="1pt" fill="#ffd700" d="M153.51 312.58h32.377v149.61H153.51z"/><path d="M81.153 365.13c9.9-7.327 24.69-12.815 30.008-6.877 5.347 6.144 6.617 11.632 5.446 16.57-1.582 4.285-8.69 9.402-13.942 6.686-6.035-2.848-15.663 7.022-16.77 12.473-1.44 5.814-1.583 12.728.077 19.142-15.81-18.435-16.886-39.764-4.816-47.994zm26.885 9.11c-2.727 1.604-6.695-.026-8.856-3.638-2.16-3.61-.502-4.955 2.224-6.56 2.728-1.602 5.496-2.86 7.657.75 2.162 3.612 1.702 7.845-1.025 9.448zm15.275 32.746c-9.776 7.507-25.88 10.406-31.252 4.532-5.4-6.08-.928-13.755.18-18.728 1.522-4.324 8.56-8.11 13.827-5.468 6.047 2.762 15.76-8.072 14.61-15.015 1.367-5.856-.508-6.852-3.358-15.444 15.98 18.248 17.92 41.674 5.993 50.123zm-21.785-11.558c2.698-1.652 5.943-.807 8.14 2.783 2.2 3.59 2.05 6.41-.65 8.064-2.697 1.65-6.927 1.51-9.124-2.08s-1.064-7.114 1.634-8.766z" fill-opacity=".867" stroke-width=".625" fill="#ffd700"/></g></svg>