<svg xmlns="http://www.w3.org/2000/svg" height="480" width="640"><g><g fill-rule="evenodd" stroke-width="1pt"><path fill="#fff" d="M0 0h639.984v480H0z"/><path fill="#0b7226" d="M0 0h214.3v480H0z"/><path fill="#bc0000" d="M426.91 0h213.074v480H426.91z"/></g><g><path d="M213.125 258.71c.077-.1 3.468-6.038 3.066-5.08 1.563 1.196 4.416.062 2.346-2.63.504-1.09 1.14-1.92 1.643-3.01 1.137-2.13-1.3-3.05-2.264-1.575-.59 1.128-1.16 1.8-1.748 2.93-3.07-1.46-3.273 1.97-1.804 2.568-.652.923-1.762 2.444-2.413 3.367l1.175 3.43z" fill-rule="evenodd" fill="#9c4314"/><path d="M212.722 257.388c-.1-.075-6.086-3.382-5.124-2.994 1.175-1.58 0-4.415-2.662-2.307-1.096-.49-1.936-1.113-3.032-1.6-2.147-1.108-3.03 1.34-1.544 2.284 1.138.575 1.816 1.134 2.954 1.708-1.414 3.09 2.017 3.244 2.595 1.767.93.64 4.543 2.732 5.475 3.37 1.137-.406.2-1.82 1.337-2.227z" fill-rule="evenodd" fill="#9c4314"/><path d="M234.37 293.67c.02-.125.173-6.96.275-5.93 1.943.31 3.91-2.046.81-3.428-.077-1.197.087-2.23.01-3.428-.013-2.416-2.594-2.063-2.74-.308.02 1.274-.16 2.135-.142 3.41-3.394.18-1.94 3.29-.36 3.117-.135 1.122-.387 2.988-.52 4.11.888.82 1.777 1.637 2.666 2.456z" fill-rule="evenodd" fill="#9c4314"/><path d="M233.384 292.694c-.124-.018-6.96-.075-5.93-.192.28-1.948-2.103-3.882-3.44-.76-1.197.092-2.232-.057-3.43.036-2.414.05-2.024 2.624-.268 2.745 1.274-.038 2.137.13 3.41.093.23 3.392 3.32 1.892 3.124.318l5.756.602c.806-.9-.027-1.942.778-2.842z" fill-rule="evenodd" fill="#9c4314"/><path d="M304.128 316.122s2.345 3.166 3.4 3.283c3.283.234 29.312 0 29.312 0 0-.04.938-.547.938-.586.86-1.096.782-1.72 1.642-2.816 1.368-1.367 3.322-1.797 4.69-3.165 5.862-1.408 11.138-2.815 17-3.753-.468-3.478-3.985-2.736-5.86-4.104-.587-.547-.47-1.094-.12-1.64l13.016-5.98v-1.408c-9.224 1.094-17.744 2.892-27.67 3.283-11.296 4.65-22.59 9.302-33.886 13.953l-2.462 2.932z" fill-rule="evenodd" stroke="#000" stroke-width=".938.056" fill="#42b2f3"/><path d="M210.444 253.863h-.118c.588 0 .12.04 0-1.408" stroke="#000" stroke-width=".39583599999999997pt" fill="none"/><path d="M210.95 255.428c-1.76-6.214-4.6-11.66-11.233-13.27-1.244-.282-2.127-3.834-.055-3.668 1.173.47.024-.223 1.196.246 1.16.415 2.968-.5 2.222-2.476 0-.235-2.213-4.164-2.213-4.28-.415-.45.355-2.97 2.345-1.643.938.616 1.876 2.06 3.228 2.345.498-.083.827-1.627.744-2.823 0-.118.117-4.053.117-4.053-.47-2.37 1.628-3.582 3.312-1.807.118.586-.013.592.104 1.178.386.785.855.907 1.406.117l2.228-2.228c1.323-.49 2.15-.983 2.228 1.76 0 0-1.825 2.287-2.688 3.116-.45.663-1.424 1.565.27 2.062.116 0 2.418.332 2.418.332 1.575.655 1.74 2.388.58 2.545 0 0-1.228 1.433-3.383 2.628-.663.532-1.21 1.173-.63 1.904 1.245.484.85.02 2.97.02 1.79-.414 1.624 3.97-1.61 3.672-.967.23-2.244.135-2.768 1.682-.235 1.204-.293 3.517-.293 4.103-.2 2.792.21 6.663.21 6.78.234 1.993-.47 1.29-.704 1.758z" fill-rule="evenodd" stroke="#286726" stroke-width=".938.953" fill="#008d00"/><path d="M230.14 291.185c-.228-.292-6.104-6.73-12.89-6.007-1.267.153-3.298-2.892-1.29-3.436 1.26.046.28-.134 1.54-.088 1.067-.75-.862-3.05-1.733-2.252-.08-.22-2.327.482-3.28.288-2.95-.283-4.237-3.578-2.083-4.828 1.34.512 3.873.56 5.243.37 1.353-.412.726-1.644-.585-1.828-1.866-.276-9.395-2.11-8.73-3.024-1.244-2.073-.01-3.67 2.175-2.57 1.803 1.093 2.013.48 1.574-.336-.533-1.55-1.047-1.18-1.125-2.524-.133-.867.148-1.65 1.427-1.106.54-.454 1.427 2.792 4.78 1.56.62.52 1.147-3.51 3.473-2.897 1.744.54.553 2.352.893 4.912.28 1.685 1.964 1.298 2.195.422-.364-3.873 3.422-3.94 3.855-2.632.36.956.683 3.562.225 6.012-.25 1.245-.05 3.716.742 4.21 1.334.034.473-.268 1.39-1.648 1.545-.994 3.947 2.606 1.136 4.414-2.965.64 1.68 11.938 2.073 12.57-.43.462-.94-.104-1.003.417z" fill-rule="evenodd" stroke="#286726" stroke-width=".938.953" fill="#008d00"/><path d="M266.563 321.4c0-.126-.92-6.9-.656-5.897 1.968 0 3.542-2.635.262-3.514-.263-1.172-.264-2.217-.526-3.388-.393-2.384-2.887-1.632-2.755.125.217 1.255.174 2.133.392 3.388-3.324.71-1.4 3.555.132 3.137.043 1.13.087 3.01.13 4.14 1.006.67 2.013 1.34 3.02 2.008z" fill-rule="evenodd" fill="#9c4314"/><path d="M266.44 320.603c-.125.002-6.887 1.017-5.887.74-.028-1.968-2.685-3.505-3.517-.212-1.167.28-2.213.294-3.38.573-2.378.427-1.59 2.91.164 2.753 1.252-.236 2.13-.205 3.383-.44.757 3.312 3.574 1.348 3.134-.177l5.78-.308c.655-1.015-.33-1.913.324-2.93z" fill-rule="evenodd" fill="#9c4314"/><path d="M264.134 283.553c16.55 9.77 20.803 8.35 20.112 4.023.793 0 .964.69 3.314-1.04-.328 6.4 6.64 10.078 10.89 9.307 3.833.247 3.34 5.317 3.34 5.317.232 5.188-1.513 7.285-1.28 12.473-.058 0-.117-.62-.175-.62-4.716-1.12-14.008-1.252-17.488-2.003 15.95-10.883-12.268-11.18-14.792-11.55-1.906-.25-.546-2.103.567-2.598 8.78-1.73-8.253-10.046-7.81-11.035-1.04-.62.073-1.113.073-1.113 1.166-.758 2.084-.403 3.25-1.16z" fill-rule="evenodd" stroke="#000" stroke-width=".938.108" fill="#33b1e9"/><path d="M305.46 291.83c-2.878 0-5.194 2.318-5.194 5.195-.866 3.957-.743 9.522 0 14.84 0 2.876 2.316 5.193 5.193 5.193 11.458 1.236 23.783.865 34.377 0 2.877 0 5.193-2.317 5.193-5.194 1.36-4.7.99-9.645 0-14.84 0-2.876-2.316-5.193-5.193-5.193-11.46-.493-23.166-1.112-34.378 0z" fill-rule="evenodd" stroke="#000" stroke-width=".938.583" fill="#983d25"/><path stroke-linejoin="round" d="M266.76 150.57l-7.844 6.792c-3.222 1.424-6.724 3.198-4.202 10.785-1.47 9.735 6.373 11.275 13.236 9.244 1.144-2.52 1.507-4.26 2.65-6.78-3.034-.468-4.657.595-7.412.408-1.89-.303-2.03-1.727-1.33-2.66 2.964-1.472 5.648-2.872 8.613-4.343-.07-.443-.14-.116-.21-.56-2.45 1.26-4.2 1.68-6.792 2.73-2.055.725-2.638-1.913-1.82-3.08 0 0 5.32-7.634 5.32-7.704.447-1.604.138-4.307-.208-4.83z" fill-rule="evenodd" stroke="#000003" stroke-linecap="round" stroke-width=".938.056" fill="#268728"/><path d="M288.736 284.124c0 2.27-1.84 4.11-4.11 4.11-2.272 0-4.113-1.84-4.113-4.11 0-2.27 1.84-4.112 4.112-4.112 2.27 0 4.11 1.84 4.11 4.112z" fill-rule="evenodd" stroke="#000" stroke-width=".792.5" fill="#fff"/><path d="M269.142 299.444c0 2.14-1.734 3.873-3.873 3.873-2.14 0-3.873-1.734-3.873-3.873 0-2.14 1.733-3.873 3.872-3.873 2.138 0 3.872 1.735 3.872 3.874z" fill-rule="evenodd" stroke="#000" stroke-width=".746.651" fill="#fff"/><path d="M365.425 308.125c0 2.14-1.734 3.873-3.873 3.873-2.138 0-3.872-1.734-3.872-3.873 0-2.14 1.733-3.873 3.872-3.873 2.14 0 3.873 1.734 3.873 3.873z" fill-rule="evenodd" stroke="#000" stroke-width=".746.625" fill="#fff"/><path stroke-linejoin="round" d="M267.125 155.753c.093 2.33.156 5.256.156 6.147-.098-2.18-.86-3.924-1.144-4.78.34-.56.89-1.367.99-1.367z" fill-rule="evenodd" stroke="#000" stroke-width=".39583599999999997pt" fill="#ba4600"/><path d="M305.07 312.822c0 2.14-1.735 3.873-3.874 3.873-2.138 0-3.872-1.734-3.872-3.873 0-2.14 1.733-3.873 3.872-3.873 2.14 0 3.873 1.733 3.873 3.872z" fill-rule="evenodd" stroke="#000" stroke-width="1.119.818" fill="#973100"/><path d="M345.934 312.822c0 2.14-1.734 3.873-3.873 3.873-2.137 0-3.87-1.734-3.87-3.873 0-2.14 1.732-3.873 3.87-3.873 2.14 0 3.874 1.733 3.874 3.872z" fill-rule="evenodd" stroke="#000" stroke-width="1.119.818" fill="#973100"/><path d="M345.934 294.034c0 2.14-1.734 3.873-3.873 3.873-2.137 0-3.87-1.734-3.87-3.873 0-2.14 1.732-3.873 3.87-3.873 2.14 0 3.874 1.735 3.874 3.874z" fill-rule="evenodd" stroke="#000" stroke-width="1.119.818" fill="#973100"/><path d="M305.303 294.034c0 2.14-1.734 3.873-3.873 3.873-2.138 0-3.872-1.734-3.872-3.873 0-2.14 1.733-3.873 3.872-3.873 2.14 0 3.873 1.735 3.873 3.874z" fill-rule="evenodd" stroke="#000" stroke-width="1.119.818" fill="#973100"/><path d="M267.144 323.51c-.23-.292-1.97-5.225-11.804-5.44-1.384-.08-2.26.317-5.063.124-1.624.133-.988-1.802-.344-2.498 1.066-.75-3.8-.384-5.473-.186-1.687-.097-2.822-.384-3.774-.577-2.95-.283-4.676-2.354-2.52-3.604.902-.888 4.572.12 5.94-.068 1.355-.412 1.165-2.694-.147-2.878-1.867-.276-10.007-.886-9.342-1.8-1.245-2.073-.884-3.146 2.35-2.745 1.802 1.093 1.75-.308 1.31-1.124-.533-1.55-3.495-1.79-3.574-3.135-.482-3.227 1.636-3.66 2.914-3.116.54-.455-2.42-2.98.932-4.21.833-.26 2.546-.058 3.124 3.003 1.744.54.54-2.008 2.904-3.044 2.028-.85-.135 9.08 2.283 8.992 2.084.848 1.674-5.428 3.418-4.207 3.77-.967 1.946 12.045 3.586 11.26 2.724 2.382 3.01-2.142 3.802-1.65 1.334.036 2.222.083 1.478 3.075-.554 2.328.275 2.868.698 3.802 2.547 5.614 6.37 5.56 7.646 8.145.41 3.82-.28 1.36-.344 1.88z" fill-rule="evenodd" stroke="#286726" stroke-width=".938.953" fill="#008d00"/><path d="M314.244 332.144c-4.703 3.863-9.588 6.365-11.377 10.386 2.143-.288 2.97-.646 4.57-.444 1.732-3.875 7.178-5.944 10.393-9.077-1.196-.29-2.39-.578-3.587-.866z" fill-rule="evenodd" stroke="#000" stroke-width=".938.056" fill="#009400"/><path d="M326.816 332.556c4.252 3.928 9.523 6.173 11.376 10.323-2.143-.29-3.037-.582-4.314-.252-1.732-3.875-7.434-6.137-10.65-9.27 1.197-.29 2.392-.513 3.588-.802z" fill-rule="evenodd" stroke="#000" stroke-width=".938.056" fill="#009400"/><path d="M323.61 333.353c5.152 3.092 7.208 5.317 10.382 9.274-1.525.092-3.664.784-4.447 1.237-3.834-4.987-6.802-6.76-10.016-9.892 1.194-.29 2.885-.33 4.08-.62z" fill-rule="evenodd" stroke="#000" stroke-width=".938.056" fill="#fff"/><path d="M274.963 165.944c-2.064.568-2.955 2.308-3.143 3.93-7.604 5.327-2.077 15.812 4.975 13.634-5.218-7.813 0-12.227 5.803-9.488 1.76 1.29 2.985 3.98 3.15 3.814 1.105-2.394 5.473-4.478 5.473-4.478s3.52.473 4.154-1.803c.4-1.456 3.64-7.482 3.64-7.482l-11.275-2.32-7.795-.166-4.145 1.824c-.552.884-.284 1.65-.837 2.535z" stroke-opacity=".772" fill-rule="evenodd" stroke="#000" stroke-width=".938.056" fill="#ffba00"/><path d="M319.4 333.606c5.153 3.092 7.515 5.987 10.69 9.944-1.397.412-1.87 2.71-2.652 3.164-2.474-4.988-6.564-9.238-10.892-13.484 1.195-.29 1.66.664 2.854.376z" fill-rule="evenodd" stroke="#000" stroke-width=".938.056" fill="#d40000"/><path d="M317.46 333.006c-5.153 3.092-6.952 5.06-10.126 9.018 1.525.092 3.407 1.04 4.19 1.493 3.834-4.987 6.8-6.76 10.016-9.892-1.195-.29-2.886-.33-4.08-.618z" fill-rule="evenodd" stroke="#000" stroke-width=".938.056" fill="#fff"/><path d="M321.66 333.25c-5.153 3.092-7.323 6.178-10.497 10.135 2.554 1.83 1.932 1.94 2.458 2.973 2.475-4.987 7.916-9.11 12.244-13.354-1.195-.29-3.01.536-4.205.247z" fill-rule="evenodd" stroke="#000" stroke-width=".938.056" fill="#d40000"/><path d="M203.69 472.45c0 5.002-7.22 9.058-16.127 9.058s-16.127-4.056-16.127-9.058 7.22-9.058 16.127-9.058 16.127 4.056 16.127 9.058z" fill-rule="evenodd" transform="matrix(.412 .134 -.124 .447 238.551 46.859)" stroke="#000" stroke-width="2.243" fill="#973000"/><path d="M313.288 326.763c-3.715 2.67-8.967 6.234-12.68 8.903-.764.65 2.574 1.334 3.797.736 3.92-2.692 5.983-4.455 9.904-7.147l2.24-1.25c-1.6-.116-1.662-1.128-3.262-1.242z" fill-rule="evenodd" stroke="#005e00" stroke-width=".938.056" fill="#008d2b"/><path d="M203.69 472.45c0 5.002-7.22 9.058-16.127 9.058s-16.127-4.056-16.127-9.058 7.22-9.058 16.127-9.058 16.127 4.056 16.127 9.058z" fill-rule="evenodd" transform="matrix(.349 -.137 .164 .368 137.847 164.177)" stroke="#000" stroke-width="2.549" fill="#973000"/><path d="M351.172 285.635c.194-10.192 9.13-1.27 12.638-5.468 8.245-9.717 8.952-10.457 16.236-9.403 19.522 7.672-.855 25.412-20.808 17.334-2.19-1.205-5.876-1.26-8.066-2.464z" fill-rule="evenodd" stroke="#000" stroke-width=".938.109" fill="#008d00"/><g fill-rule="evenodd" fill="#6d390b"><path d="M424.936 251.834c-.26 1.14-1.59 1.745-2.974 1.353s-2.292-1.632-2.033-2.77 1.59-1.745 2.973-1.354 2.292 1.633 2.033 2.77z"/><path stroke-width=".396pt" d="M424.225 251.978l4.75 4.13-1.254 1.443-4.75-4.13z"/></g><path d="M395.32 266.622l1.036 1.453 3.583-3.122-1.038-1.453-3.583 3.122z" fill-rule="evenodd" stroke-width=".938pt" fill="#6d390b"/><path d="M305.46 291.7c6.06 1.855 10.51 23.867 16.446 25.845" stroke="#000" stroke-linecap="round" stroke-width=".938.583" fill="none"/><path d="M311.272 291.578c6.06 1.855 10.387 23.867 16.323 25.845" stroke="#000" stroke-linecap="round" stroke-width=".938.583" fill="none"/><path d="M316.962 291.335c6.06 1.855 10.512 23.99 16.447 25.967" stroke="#000" stroke-linecap="round" stroke-width=".938.583" fill="none"/><path d="M203.69 472.45c0 5.002-7.22 9.058-16.127 9.058s-16.127-4.056-16.127-9.058 7.22-9.058 16.127-9.058 16.127 4.056 16.127 9.058z" fill-rule="evenodd" transform="matrix(.349 -.137 .164 .368 226.432 148.841)" stroke="#000" stroke-width="2.243" fill="#973000"/><path d="M398.17 271.675c.302 1.175-.224 2.7-2.292 3.234-2.067.533-4.008-.273-4.312-1.448-.304-1.176.894-2.865 2.962-3.4 2.067-.534 3.337.438 3.64 1.613z" fill-rule="evenodd" stroke="#000" stroke-width=".938.008" fill="#dc0000"/><path d="M307.175 328.01c-3.066.62-10.054 2.136-13.1 8.243-.553 1.15-5.15 2.04-4.528.057.72-1.04.975-1.13 1.694-2.167-.055-1.302-3.034-.917-2.83.247-.228-.052-1.67.227-2.345.925-1.827 2.333-4.946 2.23-4.838-.26 1.153-.852 1.737-1.67 2.315-2.926.382-1.364-2.283-1.852-3.145-.846-1.824.955-2.97 2.322-5.14 3.38-2.417.87-4.74-.68-2.635-1.926 1.893-.93.316-3.08-.608-3.15-1.594-.384-8.123.718-9.3.06-.918-.12-2.6-2.54-.63-2.97 1.784-.583 4.762.652 5.53-2.835.772-5.87 10.09 3.004 8.576.553-3.413-5.047 2.397-6.233 4.15-2.796.716 1.552 4.263 3.853 5.292 3.42 1.934.215-3.588-4.888.796-5.72 1 .212 2.784.288 4.014 1.994.915.88 1.11 4.507 4.532 4.808.748-1.104.03-.542-.638-2.06-.006-1.836 3.032-1.686 4.33 1.423 1.286 2.374 8.074.762 14.285.904 1.992-.326 5.193 1.423-5.776 1.64z" fill-rule="evenodd" stroke="#286026" stroke-width=".938.953" fill="#008d00"/><path d="M391.288 271.45c1.092 1.68 1.07 4.34-1.884 6.26s-6.41 1.684-7.504.005c-1.093-1.68-.108-4.95 2.845-6.873 2.953-1.922 5.45-1.07 6.542.608z" fill-rule="evenodd" stroke="#000" stroke-width=".938.056" fill="#dc0000"/><path d="M393.406 264.494c1.023.653 1.677 2.127.528 3.927-1.148 1.8-3.118 2.535-4.14 1.882-1.024-.653-1.3-2.706-.15-4.506 1.147-1.8 2.738-1.955 3.762-1.302z" fill-rule="evenodd" stroke="#000" stroke-width=".938.008" fill="#dc0000"/><path d="M396.52 267.55c.66 1.017.647 2.63-1.143 3.795s-3.886 1.02-4.548.003c-.663-1.018-.067-3 1.724-4.166 1.79-1.165 3.302-.65 3.965.37z" fill-rule="evenodd" stroke="#000" stroke-width=".938.008" fill="#dc0000"/><path d="M403.175 261.522c.498.765.488 1.98-.86 2.855-1.345.877-2.923.767-3.42.002-.5-.767-.05-2.26 1.296-3.136 1.348-.876 2.486-.488 2.985.278z" fill-rule="evenodd" stroke="#000" stroke-width=".711004" fill="#d90000"/><path d="M318.088 323.33c-2.635.31-4.134.473-4.64 2.38-.28 1.293-.057 2.984.168 4.436 0 1.668 2.105 2.773 4.556 3.25h4.218c1.776 0 5.062-1.74 5.062-3.408.263-.943.253-2.465.253-3.495 0-2.805-1.98-2.978-4.456-3.24l-5.162.078z" fill-rule="evenodd" stroke="#000" stroke-width=".938.056" fill="#fff"/><path d="M411.734 290.19c-.29-9.734-2.856-23.842 9.094-28.68 1.542-.402 2.1.467 1.574 1.75l-10.668 26.93z" fill-rule="evenodd" stroke="#286326" stroke-width=".938.742" fill="#008f00"/><path d="M427.175 270.372c2.127-4 7.385-5.01 9.24-4.885-3.67 3.75-7.338 12.943-9.4 15.95-2.967 5.113-11.623 8.74-16.816 11.75 5.81-7.915 11.163-14.902 16.976-22.815z" fill-rule="evenodd" stroke="#286326" stroke-width=".938.742" fill="#008c00"/><path d="M318.313 323.275s-2.64.47-2.697.47-2.052 1.29-2.052 1.29-.41 2.52-.41 2.578.468 2.873.468 2.873l1.232 1.7 3.224 1.113.235-10.025z" fill-rule="evenodd" stroke="#000" stroke-width=".39583599999999997pt" fill="#009400"/><path d="M410.16 293.172c.35-.35 6.84-30.95 17.663-34.575 1.748 2.273.905 7.215.206 9.838-3.324 11.425-11.4 19.257-17.87 24.737z" fill-rule="evenodd" stroke="#286326" stroke-width=".938.742" fill="#008d00"/><g fill-rule="evenodd" fill="#6d390b"><path d="M434.48 255.853c-.47 1.07.24 2.347 1.583 2.85s2.81.044 3.277-1.027-.242-2.347-1.584-2.85-2.81-.044-3.277 1.027z"/><path stroke-width=".395pt" d="M435.313 255.57l-6.26.493.15 1.9 6.26-.492z"/></g><g fill-rule="evenodd" fill="#6d390b"><path d="M407.272 286.63c-.67 1.08-2.222 1.214-3.465.295s-1.706-2.54-1.034-3.624 2.222-1.215 3.465-.296 1.706 2.542 1.034 3.625z"/><path transform="matrix(.207 .38 -.369 .213 217.877 36.235)" stroke-width="1pt" d="M720.08-110.5h15.887v4.823H720.08z"/></g><g fill-rule="evenodd" fill="#6d390b"><path d="M415.89 295.104c-.584-1.13.1-2.53 1.526-3.125s3.055-.162 3.638.97-.1 2.53-1.526 3.124-3.056.16-3.64-.97z"/><path transform="matrix(-.432 -.018 .006 -.425 728.281 261.016)" stroke-width="1pt" d="M720.08-110.5h15.887v4.823H720.08z"/></g><path d="M405.453 302.285c6.65-3.604 2.483 1.452 2.07 4.22-1.965 6.83-3.802 6.874-6.112 8.038-3.445 3.143-14.486 1.618-19.616 2.913 6.43-4.67 17.23-10.502 23.66-15.17z" fill-rule="evenodd" stroke="#286326" stroke-width=".938.417" fill="#008c00"/><path d="M395.497 300.7c2.776-2.203 3.232-7.068 3.047-8.754-2.516 3.594-8.957 7.543-11.02 9.62-3.535 3.044-5.705 11.184-7.608 16.122 5.41-5.823 10.172-11.165 15.58-16.988z" fill-rule="evenodd" stroke="#286326" stroke-width=".938.417" fill="#008c00"/><path d="M360.922 328.647c4.35-1.276 11.76 1.937 12.97 3.35-5.247 0-13.75 3.643-17.342 4.273-5.73 1.45-21.62-7.515-27.31-8.795 9.498-.48 21.96 2.55 31.682 1.172z" fill-rule="evenodd" stroke="#286326" stroke-width=".938.742" fill="#008c00"/><path d="M327.82 327.728c3.713 2.67 8.965 6.235 12.68 8.904.762.65-2.575 1.334-3.8.736-3.92-2.692-5.982-4.455-9.902-7.147l-2.243-1.25c1.6-.116 1.663-1.127 3.264-1.242z" fill-rule="evenodd" stroke="#004500" stroke-width=".938.056" fill="#00602b"/><path d="M379.372 317.463c.446-.17 18.153-24.073 29.16-23.085.66 2.623-2.017 6.56-3.66 8.556-7.41 8.584-17.625 12.265-25.5 14.53z" fill-rule="evenodd" stroke="#286326" stroke-width=".938.663" fill="#008c00"/><g fill-rule="evenodd" fill="#6d390b"><path d="M376.97 314.056c-1.103.64-2.535.024-3.198-1.374s-.307-3.05.795-3.69 2.535-.024 3.198 1.375.307 3.05-.796 3.69z"/><path transform="matrix(.003 .433 -.425 .015 327.989 3.442)" stroke-width="1pt" d="M720.08-110.5h15.887v4.823H720.08z"/></g><g fill-rule="evenodd" fill="#6d390b"><path d="M382.035 323.45c.075-1.27 1.38-2.125 2.915-1.91s2.717 1.42 2.64 2.692-1.38 2.126-2.915 1.91-2.716-1.42-2.64-2.69z"/><path transform="matrix(-.362 -.236 .222 -.363 668.661 453.456)" stroke-width="1pt" d="M720.08-110.5h15.887v4.823H720.08z"/></g><path d="M231.613 236.94c.518-.773 1.714-1.282 3.203-.447 1.49.834 2.12 2.296 1.6 3.07-.518.775-2.193 1.008-3.683.174-1.49-.834-1.64-2.022-1.12-2.796z" fill-rule="evenodd" stroke="#000" stroke-width=".739144" fill="#dc0000"/><path d="M357.894 325.46c7.312-1.934 6.876-5.455 10.293-8.534-7.91-1.158-14.218 1.64-17.596 3.5-5.336 3.442-6.717 7.178-11.34 9.75 7.882-1.005 11.433-2.137 18.643-4.717z" fill-rule="evenodd" stroke="#286326" stroke-width=".938.417" fill="#008c00"/><path d="M334.044 327.597c20.914 1.578 17.58-6.913 40.5-6.703-.338 2.684-4.714 6.052-6.972 7.312-10.023 5.3-26.493 7.783-33.53-.61z" fill-rule="evenodd" stroke="#286326" stroke-width=".938.663" fill="#008c00"/><path d="M323.413 323.22l.058 9.847 2.698-1.055s1.113-1.76 1.113-1.876c0-.117.47-2.404.47-2.462 0-.06-.234-2.814-.234-2.814l-2.052-1.348-2.05-.293z" fill-rule="evenodd" stroke="#000" stroke-width=".39583599999999997pt" fill="#d40000"/><path fill-rule="evenodd" stroke-width=".937pt" fill="#6d390b" d="M236.365 231.666l-3.347-3.676 1.138-.964 3.346 3.676z"/><path d="M232.137 234.035c.568-.988 1.877-1.638 3.507-.572 1.63 1.064 2.32 2.93 1.752 3.92-.567.987-2.4 1.286-4.032.22-1.63-1.064-1.794-2.58-1.227-3.568z" fill-rule="evenodd" stroke="#000" stroke-width=".874216" fill="#dc0000"/><path d="M241.353 229.91c.953.04 1.987.882 1.934 2.8-.054 1.916-1.09 3.382-2.044 3.342s-1.965-1.502-1.912-3.42c.055-1.916 1.068-2.76 2.023-2.722z" fill-rule="evenodd" stroke="#000" stroke-width=".7944859999999999" fill="#dc0000"/><path d="M236.656 230.678c1.08-.283 2.49.196 2.996 2.098.508 1.9-.22 3.69-1.3 3.975-1.08.284-2.647-.812-3.155-2.714-.507-1.902.378-3.074 1.46-3.358z" fill-rule="evenodd" stroke="#000" stroke-width=".870464" fill="#dc0000"/><path stroke-linejoin="round" d="M263.6 261.175c-3.26-8.29-12.16-22.054-21.224-15.42-10.06 8.677 4.588 22.33 17.08 21.555 1.38-2.045 2.763-4.09 4.145-6.135z" fill-rule="evenodd" stroke="#000" stroke-linecap="round" stroke-width=".938.056" fill="#008d00"/><path d="M237.716 236.875c1.74-1.17 4.536-1.198 6.61 1.845 2.076 3.044 1.89 6.655.15 7.826-1.744 1.172-5.2.207-7.274-2.836-2.075-3.043-1.23-5.662.514-6.835z" fill-rule="evenodd" stroke="#000" stroke-width=".938.105" fill="#dc0000"/><path d="M231.275 223.028c.794-.534 2.068-.546 3.015.842.946 1.387.86 3.035.067 3.57-.794.533-2.37.093-3.317-1.295-.946-1.387-.56-2.582.235-3.117z" fill-rule="evenodd" stroke="#000" stroke-width=".744772" fill="#dc0000"/><path d="M291.294 271.038c-4.097-7.29-15.278-16.405-26.667-10.573-13.47 9.452 5.432 23.61 24.775 16.63 1.735-1.798.155-4.26 1.89-6.058z" fill-rule="evenodd" stroke="#000" stroke-width=".938.109" fill="#008d00"/><path d="M329.263 275.35c-4.097-7.29-26.056-15.575-35.622-8.583-11.974 13.432 5.6 22.782 29.254 16.132 1.736-1.8 4.633-5.752 6.37-7.55z" fill-rule="evenodd" stroke="#000" stroke-width=".938.109" fill="#008d00"/><path stroke-linejoin="round" d="M243.978 248.125c.117 0 2.462 2.93 2.462 2.93l-.117-4.103" stroke="#000" stroke-linecap="round" stroke-width=".938.056" fill="none"/><path stroke-linejoin="round" d="M248.084 253.863l2.463 2.462" stroke="#000" stroke-linecap="round" stroke-width=".938.056" fill="none"/><path stroke-linejoin="round" d="M256.756 252.222l.235 2.814 1.525-.117" stroke="#000" stroke-linecap="round" stroke-width=".938.056" fill="none"/><path stroke-linejoin="round" d="M256.756 261.606c-.586-.35-2.58-1.993-2.58-1.993" stroke="#000" stroke-linecap="round" stroke-width=".938.056" fill="none"/><path stroke-linejoin="round" d="M251.01 261.84l-3.284-1.054" stroke="#000" stroke-linecap="round" stroke-width=".938.056" fill="none"/><path d="M244.794 255.625l-3.166-1.055" stroke="#000" stroke-width=".938.056" fill="none"/><path stroke-linejoin="round" d="M238.822 253.75h-2.697" stroke="#000" stroke-linecap="round" stroke-width=".938.056" fill="none"/><path stroke-linejoin="round" d="M251.478 244.835v-3.518" stroke="#000" stroke-linecap="round" stroke-width=".39583599999999997pt" fill="none"/><path stroke-linejoin="round" d="M246.79 263.838c-.35 0-4.924-.235-4.924-.235" stroke="#000" stroke-linecap="round" stroke-width=".938.056" fill="none"/><path stroke-linejoin="round" d="M255.003 266.997l-3.517 1.172" stroke="#000" stroke-linecap="round" stroke-width=".938.056" fill="none"/><path stroke-linejoin="round" d="M260.272 254.453c.117-.117 2.93-1.524 2.93-1.524" stroke="#000" stroke-linecap="round" stroke-width=".938.056" fill="none"/><path stroke-linejoin="round" d="M252.303 250.47c0-.118-.938-3.87-.938-3.87" stroke="#000" stroke-linecap="round" stroke-width=".938.056" fill="none"/><path d="M318.03 323.266c-2.633.31-4.132.47-4.64 2.377-.28 1.294-.055 2.985.17 4.438.47 2.43 2.105 2.774 4.556 3.25h4.218c1.776 0 4.652-1.153 5.12-3.35.322-1.118.195-2.522.195-3.553-.235-2.57-1.98-2.978-4.457-3.24l-5.162.08z" stroke="#000" stroke-width=".938.056" fill="none"/><path d="M318.322 323.275l-.083 9.783" stroke="#000" stroke-width=".938.056" fill="none"/><path d="M323.46 323.275l-.084 9.783" stroke="#000" stroke-width=".938.056" fill="none"/><path d="M429.256 239.613c1.547-5.086-3.807-6.288-5-9.144-2.444 4.783-1.587 9.655-1.155 12.217 1.004 4.16 4.69 7.036 5.303 10.55 1.08-5.246.907-8.462.853-13.625z" fill-rule="evenodd" stroke="#286326" stroke-width=".8892239999999999" fill="#008c00"/><path d="M436.344 234.888c.104-2.783 3.734-4.776 5.197-5.215-.906 5.41.723 7.953.292 10.172-.323 3.624-6.96 9.16-9.782 12.236 1.43-5.943 2.862-11.25 4.293-17.192z" fill-rule="evenodd" stroke="#286326" stroke-width=".938.26" fill="#008c00"/><path d="M428.694 256.58c.177-.33-2.762-25.865 4.6-31.163 1.93 1.133 2.562 4.788 2.704 6.792.408 8.8.696 13.272-7.304 24.372z" fill-rule="evenodd" stroke="#286326" stroke-width=".938.349" fill="#008c00"/><path d="M281.01 255.972c2.106.67 3.962 2.966 2.823 6.7-1.14 3.735-2.904 6.137-5.672 5.303-3.6-.834-4.244-4.17-3.105-7.905 1.14-3.734 3.847-4.766 5.954-4.098z" fill-rule="evenodd" stroke="#000" stroke-width=".938.167" fill="#dc0000"/><path d="M284.572 252.156c.67.47 1.07 1.456.253 2.572-.816 1.115-2.155 1.5-2.824 1.03-.67-.47-.8-1.813.015-2.93.816-1.114 1.887-1.142 2.557-.672z" fill-rule="evenodd" stroke="#000" stroke-width=".938.337" fill="#dc0000"/><path d="M279.03 251.013c.8-.17 1.795.21 2.055 1.567.26 1.357-.37 2.6-1.17 2.77-.8.17-1.873-.65-2.134-2.008-.26-1.357.45-2.16 1.25-2.33z" fill-rule="evenodd" stroke="#000" stroke-width=".938.337" fill="#dc0000"/><path d="M281.366 253.975c.783.235 1.473 1.045 1.05 2.36-.424 1.317-1.574 2.104-2.357 1.87-.784-.237-1.333-1.47-.91-2.786.424-1.316 1.432-1.68 2.216-1.445z" fill-rule="evenodd" stroke="#000" stroke-width=".938.337" fill="#dc0000"/><path d="M282.5 249.27c.653.177 1.23.79.876 1.785-.354.996-1.313 1.592-1.966 1.414-.654-.18-1.11-1.113-.758-2.11.353-.994 1.194-1.27 1.848-1.09z" fill-rule="evenodd" stroke="#000" stroke-width=".938.063" fill="#dc0000"/><path d="M285.93 255.26c.716.49 1.117 1.427.178 2.365-.938.938-2.42 1.162-3.135.67-.716-.492-.808-1.728.13-2.667.937-.937 2.113-.86 2.828-.368z" fill-rule="evenodd" stroke="#000" stroke-width=".938.339" fill="#dc0000"/><path d="M276.93 253.206c.73-.087 1.585.345 1.704 1.61.12 1.268-.545 2.352-1.273 2.44-.728.087-1.617-.755-1.737-2.02-.12-1.267.58-1.942 1.308-2.03z" fill-rule="evenodd" stroke="#000" stroke-width=".938.215" fill="#dc0000"/><path d="M266.02 319.056v-.117.116z" stroke="#000" stroke-width=".39583599999999997pt" fill="none"/><path d="M360.584 270.025c4.104 2.19 2.697 7.31-.234 8.677-.157-3.362-2.306-4.378-5.51-5.16 1.68-.937 3.478-3.986 5.744-3.517z" fill-rule="evenodd" stroke="#000" stroke-width=".938.056" fill="#fff"/><path d="M321.397 290.5c1.51-22.25 18.416-24.95 29.622-21.098 16.408 11.907-.233 21.8-24.795 22.44-2.19-1.204-2.638-.137-4.828-1.342z" fill-rule="evenodd" stroke="#000" stroke-width=".938.109" fill="#008d00"/><path d="M326.31 265.497c-5.25-.212-6.833 4.91-4.774 7.582 2.09-2.812 4.763-2.59 8.327-1.626-1.092-1.664-1.08-5.204-3.554-5.957z" fill-rule="evenodd" stroke="#000" stroke-width=".938.122" fill="#fff"/><path d="M329.047 272.153c-4.104 2.19-3.23 7.31-.3 8.677.158-3.36 2.307-4.378 5.512-5.16-1.682-.937-2.946-3.986-5.213-3.517z" fill-rule="evenodd" stroke="#000" stroke-width=".938.056" fill="#fff"/><path stroke-linejoin="round" d="M361.128 270.447c.048-1.83-1.397-3.414-3.09-3.67-2.043-.248-4.002 1.16-6.044-.33-.248-.167-4.99-4.26-6.35-6.166-1.362-.746-4.214-2.144-4.214-2.144-1.68 2.19-2.863 4.71-5.29 6.15-1.207.485-1.668 1.05-3.87.87-2.276-1.063-4.78-1.61-6.082-.454 1.107 2.193.805 4.967.337 7.077.82.468 1.725-.093 2.71.127 3.042.08 2.268 3.347 3.402 4.754 3.202.872 4.83-.662 5.296-3.273.847-1.333 3.435-1.505 5.276-2.008 1.992-.386 4.483-1.02 6.31.005 1.51.802 2.52 1.77 3.283 3.4 0 0 2.403.215 4.807-.234.083-1.443-.213-4.07 3.518-4.103z" fill-rule="evenodd" stroke="#000" stroke-linecap="round" stroke-width=".938.056" fill="#f6aa00"/><path d="M339.884 260.435l.118 5.276c.625 1.916 4.885 1.72 5.393.47l-.117-5.98" stroke="#000" stroke-width=".938.056" fill="none"/><path d="M341.29 271.685c.92-.312 1.26-2.87 1.26-2.87" stroke="#000" stroke-linecap="round" stroke-width=".938.056" fill="none"/><path d="M345.05 270.98l.234-2.11" stroke="#000" stroke-linecap="round" stroke-width=".938.056" fill="none"/><path d="M348.913 270.98l-.347-2.22" stroke="#000" stroke-linecap="round" stroke-width=".938.056" fill="none"/><path d="M338.713 269.34c-.143.08-1.993-2.227-1.407-1.992" stroke="#000" stroke-linecap="round" stroke-width=".938.056" fill="none"/><path d="M335.32 272.744c.233 0-3.064-3.415-2.478-3.18" stroke="#000" stroke-linecap="round" stroke-width=".938.056" fill="none"/><path d="M332.262 266.416c-.085-.262-.234-1.524.352-1.29" stroke="#000" stroke-linecap="round" stroke-width=".938.056" fill="none"/><path d="M339.613 265.628c-5.01 4.324-9.726 2.505-10.407 6.14" stroke="#000" stroke-linecap="round" stroke-width=".938.056" fill="none"/><path d="M352.016 268.075c.175-.212.778-1.33.147-1.33" stroke="#000" stroke-linecap="round" stroke-width=".938.056" fill="none"/><path stroke-linejoin="round" d="M271.57 270.213c.064-.097 3.805-.406 3.805-.406l-3.47-2.194" stroke="#000" stroke-linecap="round" stroke-width=".938.056" fill="none"/><path stroke-linejoin="round" d="M294.37 273.944c.064-.097 3.805-.406 3.805-.406l-2.972-3.44" stroke="#000" stroke-linecap="round" stroke-width=".938.056" fill="none"/><path stroke-linejoin="round" d="M303.584 274.572c-.183-.595 3.932.092 3.807-.406l-2.597-2.817" stroke="#000" stroke-linecap="round" stroke-width=".938.056" fill="none"/><path stroke-linejoin="round" d="M298.663 261.447c.117 0 2.462 2.93 2.462 2.93l-.118-4.103" stroke="#000" stroke-linecap="round" stroke-width=".938.056" fill="none"/><path stroke-linejoin="round" d="M369.275 281.013c.09.076-.022 4.18-.022 4.18l2.693-2.92" stroke="#000" stroke-linecap="round" stroke-width=".938.056" fill="none"/><path stroke-linejoin="round" d="M339.22 279.963c.08.085-.454 3.8-.454 3.8l4.015-2.13" stroke="#000" stroke-linecap="round" stroke-width=".938.056" fill="none"/><path stroke-linejoin="round" d="M268.84 260.913l2.463 2.462" stroke="#000" stroke-linecap="round" stroke-width=".938.056" fill="none"/><path stroke-linejoin="round" d="M264.36 265.02l2.462 2.46" stroke="#000" stroke-linecap="round" stroke-width=".938.056" fill="none"/><path stroke-linejoin="round" d="M281.15 271.403l3.468-.31" stroke="#000" stroke-linecap="round" stroke-width=".938.056" fill="none"/><path stroke-linejoin="round" d="M275.637 274.825l3.474-.246" stroke="#000" stroke-linecap="round" stroke-width=".938.056" fill="none"/><path stroke-linejoin="round" d="M300.753 266.94l2.462 2.463" stroke="#000" stroke-linecap="round" stroke-width=".938.056" fill="none"/><path stroke-linejoin="round" d="M311 268.216l2.462 2.462" stroke="#000" stroke-linecap="round" stroke-width=".938.056" fill="none"/><path stroke-linejoin="round" d="M291.903 263.735l2.462 2.462" stroke="#000" stroke-linecap="round" stroke-width=".938.056" fill="none"/><path stroke-linejoin="round" d="M266.02 255.916l2.46 2.462" stroke="#000" stroke-linecap="round" stroke-width=".938.056" fill="none"/><path stroke-linejoin="round" d="M293.534 285.888l2.278-2.634" stroke="#000" stroke-linecap="round" stroke-width=".938.056" fill="none"/><path stroke-linejoin="round" d="M305.075 288.072l2.278-2.634" stroke="#000" stroke-linecap="round" stroke-width=".938.056" fill="none"/><path stroke-linejoin="round" d="M260.778 274.6l3.468-.31" stroke="#000" stroke-linecap="round" stroke-width=".938.056" fill="none"/><path stroke-linejoin="round" d="M267.34 272.135c-.566.03 1.757-.15 2.398.106l-3.425-2.45" stroke="#000" stroke-linecap="round" stroke-width=".938.124" fill="none"/><path stroke-linejoin="round" d="M271.672 279.475l3.468-.31" stroke="#000" stroke-linecap="round" stroke-width=".938.056" fill="none"/><path stroke-linejoin="round" d="M312.8 276.11l3.473-.247" stroke="#000" stroke-linecap="round" stroke-width=".938.056" fill="none"/><path stroke-linejoin="round" d="M306.912 280.975l3.474-.246" stroke="#000" stroke-linecap="round" stroke-width=".938.056" fill="none"/><path stroke-linejoin="round" d="M311.094 263.116c.117 0 2.462 2.93 2.462 2.93l-.118-4.103" stroke="#000" stroke-linecap="round" stroke-width=".938.056" fill="none"/><path stroke-linejoin="round" d="M344.89 273.606l-2.462 2.463" stroke="#000" stroke-linecap="round" stroke-width=".938.056" fill="none"/><path stroke-linejoin="round" d="M352.963 276.297l-2.463 2.462" stroke="#000" stroke-linecap="round" stroke-width=".938.056" fill="none"/><path stroke-linejoin="round" d="M349.372 283.216l-2.462 2.462" stroke="#000" stroke-linecap="round" stroke-width=".938.056" fill="none"/><path stroke-linejoin="round" d="M378.33 283.853l-2.46 2.463" stroke="#000" stroke-linecap="round" stroke-width=".938.056" fill="none"/><path stroke-linejoin="round" d="M363.088 282.063l-2.463 2.462" stroke="#000" stroke-linecap="round" stroke-width=".938.056" fill="none"/><path stroke-linejoin="round" d="M378.078 267.325l-2.462 2.462" stroke="#000" stroke-linecap="round" stroke-width=".938.056" fill="none"/><path stroke-linejoin="round" d="M389.73 283.966l-3.466-.33" stroke="#000" stroke-linecap="round" stroke-width=".938.056" fill="none"/><path stroke-linejoin="round" d="M360.613 291.69l.168-3.478" stroke="#000" stroke-linecap="round" stroke-width=".938.056" fill="none"/><path stroke-linejoin="round" d="M371.6 275.95l1.772-2.998" stroke="#000" stroke-linecap="round" stroke-width=".938.056" fill="none"/><path stroke-linejoin="round" d="M377.113 279.278l1.77-2.998" stroke="#000" stroke-linecap="round" stroke-width=".938.056" fill="none"/><path stroke-linejoin="round" d="M381.706 288.813c-.076.09-3.828-.03-3.828-.03l2.69 1.96" stroke="#000" stroke-linecap="round" stroke-width=".938.056" fill="none"/><path stroke-linejoin="round" d="M329.61 287.772c.08.086-.453 3.8-.453 3.8l4.015-2.13" stroke="#000" stroke-linecap="round" stroke-width=".938.056" fill="none"/><path stroke-linejoin="round" d="M298.72 280.975c.456-.34 2.776-1.06 2.652-1.56l-2.47-.894" stroke="#000" stroke-linecap="round" stroke-width=".938.056" fill="none"/><path stroke-linejoin="round" d="M403.278 257.528c1.627 1.263 4.37-13.105 3.95-17.6 0-.298-.51-9.833 1.486-16.644 1.26-2.293 1.306-19.474-.585-23.99 1.505-.128 3.33-.616 3.556-2.457-6.958 2.576-8.61-14.707-15.306-24.632-6.537-9.954-14.65-15.756-23.08-21.796.657-1.69 1.63-3.276 2.918-4.86-10.35 5.184-26.478-13.587-50.276-12.184-5.364.534-7.89.858-9.263 4.124-4.425.375-8.955 1.38-8.967 7.22.01 1.398 1.28 3.952 4.124 3.985 3.9 1.123 7.063.25 9.702 5.68.197 1.486.5 4.127.698 5.613 0 0-3.49-4.422-5.4-5.157.507-.734-.3-1.24 1.17-2.376-1.785-1.033-4.982-.193-4.982-.193s-6.912-3.252-12.48-2.376c0-.594-1.066-4.508-1.066-4.508-.985 2.757-3.16 2.608-3.48 5.226-.593-1.882-1.398-4.185-1.992-6.067-1.954 2.67-1.387 5.547-2.08 8.32-.775.63-2.32.666-2.71-1.12-.197-2.18-.465-2.397-.453-4.996-1.41 2.457-3.102 3.654-3.672 7.9-.594-1.586-.908-3.1-1.503-4.686.076 5.52-4.686 8.833-9.195 12.708-1.267 2.345.198 2.378.297 3.566l2.378 1.19c1.386-.1 2.878-.2 4.265-.298.693.89.126.945 1.975 1.52 4.953 1.388 11.152-4.567 16.015 4.79-2.24 1.863-4.48 6.25-3.777 7.062.892 0-1.79 1.26 1.834.105-3.782 3.678-6.345 8.513-6.345 8.81-.42 1.033 1.524-.14 1.118 1.737.53-1.407.9-.117.9-.117-8.633 9.337-.29 19.35-1.22 24.744 1.435 2.312 1.614-.043 3.41-.3 1.517 6.617 5.86 10.63 8.535 15.88-1.38-.423-4.125-.573-5.61.056.125 2.49 2.376 4.857 4.16 7.034-1.288.395-2.477.79-3.765 1.19-2.674 1.386-4.452 2.843-6.334 4.92-1.254 3.033 5.992 3.77 9.465 4.28-.315 1.088-.76 2.457-.128 3.653 5.463.526 11.775-1.09 11.775-1.386 0-.3 1.37-1.068 1.37-1.068.735 1.47 2.353 1.906 3.07 1.697 1.032 0 2.635-4.113 1.9-7.263 1.98 2.374 3.845 6.158 5.826 8.537.6.63 1.375.167 1.87-.256 1.684 2.676 4.01 5.35 5.693 8.023.892 1.02.7.645 1.907.72 1.1-.356 2.04-.502 2.616-2.64 0 0 .365.332.885 1.51 1.33.946 2.27-1.328 3.004-2.064.42-1.014 2.06.198 2.06-.396.595.396.985 2.138 1.58 2.533.91-.336 1.812-2.335 1.88-4.456.905 1.86 1.184 1.706 1.877 2.204.594-.498.78-2.438 1.375-2.933-.13-1.025 7.137 7.006 7.434 7.006.717.524 4.823 1.782 5.663.314 2.05 1.37 7.568 2.216 8.462.016 4.542 1.94 9.886-.234 9.66-2.403 4.142 1.655 10.6.55 10.6.253.734-.087 2.73-2.026.84-3.494-13.77-9.61-34.262-25.522-42.148-29.353 0-2.836-2.146-13.07-4.457-15.887-.42-1.453.526-3.25 1.892-3.144 5.358 5.01 7.305 4.532 10.142 5.34 3.07 2.422 4.172 6.12 7.243 9.488 1.447.463 3.157 1.928 2.713.5-1.916-4.81-4.233-9.466-9.97-15.72 2.97 1.487 7.84 5.423 11.126 8.275 2.19 3.61 2.806 6.487 4.788 11.043 1.435.91 2.902 4.268 2.692 1.485-.315-5.234-3.986-13.546-3.986-14.14 5.836 4.655 5.775 11.87 7.534 16.285 1.524 2.24 2.29 5.217 2.92 4.52.737-1.017-1.73-13.62-1.73-13.62-.397-1.584-.596-3.38-.992-4.964 4.344 2.5 5.862 12.04 7.895 23.47.005 1.82.747 3.814.648 5.002.932 1.152 2.006 4.33 1.957 2.434 0 0 .003-18.593-1.257-22.865-.316-2.275.558-5.997.558-5.997 1.585 7.726 3.275 16.082 4.86 23.808v5.648c.792.79 1.584 1.583 2.377 2.38l1.486-13.97s-1.783-16.345-1.783-16.64v-4.756c-.036-1.675 1.503-1.354 2.518.544.2 4.06.187 7.282.385 11.344.694 4.653 1.177 8.05 1.555 13.966.186 4.85.373 16.316 1.4 16.118z" stroke-opacity=".772" fill-rule="evenodd" stroke="#000" stroke-width=".938.056" fill="#9c4314"/><path stroke-linejoin="round" d="M326.3 284.406c-.223-.523-.384-2.948-.898-2.943l-1.446 2.193" stroke="#000" stroke-linecap="round" stroke-width=".938.056" fill="none"/><path stroke-linejoin="round" d="M369.753 271.17l-.296 2.452" stroke="#000" stroke-linecap="round" stroke-width=".938.056" fill="none"/><path stroke-linejoin="round" d="M348.144 289.263c-.565.07-2.94-.45-3.077.044l1.705 2" stroke="#000" stroke-linecap="round" stroke-width=".938.056" fill="none"/><path d="M311.806 234.297v.257-.257.257-.257 4.485c.13.636.128 1.344.128 2.05.08.544.27 1.196.513 1.795.035.76.247 1.258.513 1.922.054.654.278 1.215.512 1.793.056.658.27 1.003.385 1.538.185.617.41 1.017.64 1.41.167.168.23.334.385.385" stroke="#000" stroke-width=".39583599999999997pt" fill="none"/><path d="M301.803 250.056c0-.207-.032-.837.257-1.28.453-.646.817-1.046 1.41-1.667.7-.446 1.198-.974 1.793-1.54.638-.406.96-.766 1.538-1.152.356-.363.767-.542 1.154-.77.44-.216.762-.536 1.41-.64.39-.195 1.2-.128 1.794-.128.61 0 .825-.117 1.41-.128" stroke="#000" stroke-width=".39583599999999997pt" fill="none"/><path d="M394.963 205.544c1.98 1.436 4.16 4.557 5.052 10.203" stroke-opacity=".772" stroke="#000" stroke-linecap="round" stroke-width=".938.056" fill="none"/><path d="M383.825 207.466c2.872 2.575 4.494 5.376 6.637 11.69" stroke-opacity=".772" stroke="#000" stroke-linecap="round" stroke-width=".938.056" fill="none"/><path d="M376.887 210.54c1.75 1.998 2.807 4.095 3.765 6.588" stroke-opacity=".772" fill-rule="evenodd" stroke="#000" stroke-linecap="round" stroke-width=".938.056" fill="#00c600"/><path d="M365 204.006c2.278 2.625 5.943 6.637 7.825 10.698" stroke-opacity=".772" fill-rule="evenodd" stroke="#000" stroke-linecap="round" stroke-width=".938.056" fill="#00c600"/><path d="M316.616 136.975c.166 11.418 16.878 8.633 18.286 19.36 3.198 11.71 1.865 19.273-2.814 22.99-2.656 2.735-.625 6.987.166 9.17 4.344 11.01 10.903 12.782 13.723 22.285" stroke-opacity=".772" stroke="#000" stroke-width=".938.056" fill="none"/><path d="M310.363 144.766c0-.22.392-.602.78-.78 1.663-.542 2.686-.574 4.387-.682 1.463 0 2.828.064 4.29.292" stroke-opacity=".772" stroke="#000" stroke-linecap="round" stroke-width=".938.056" fill="none"/><path d="M332.01 249.578l5.81 9.452" stroke-opacity=".772" stroke="#000" stroke-width=".938.056" fill="none"/><path d="M350.525 235.516l31.11 23.824" stroke-opacity=".772" stroke="#000" stroke-width=".938.056" fill="none"/><path d="M349.69 242.05l22.734 19.957" stroke-opacity=".772" stroke="#000" stroke-width=".938.056" fill="none"/><path d="M306.922 217.29c2.994 5.945 11.454 13.84 16.53 15.1.174-3.82-.042-5.293-.65-7.94" stroke-opacity=".772" stroke="#000" stroke-width=".938.056" fill="none"/><path d="M316.55 213.906c2.994 5.945 5.727 12.28 13.668 15.88.824-5.77-.954-13.623-5.337-21.607" stroke-opacity=".772" stroke="#000" stroke-width=".938.056" fill="none"/><path d="M317.956 205.938c2.734 1.65 5.207 2.386 7.03 2.603.824-5.77 1.546-11.876-3.162-20.14" stroke-opacity=".772" stroke="#000" stroke-width=".938.056" fill="none"/><path d="M307.438 209.35c4.035 4.383 7.29 4.6 9.11 4.816 1.346-3.948 1.91-12.322.262-21.348" stroke-opacity=".772" stroke="#000" stroke-width=".938.056" fill="none"/><path d="M296.984 212.866c4.018 5.2 13.28 15.068 18.264 18.655.173-.826.43-1.21.364-3.857" stroke-opacity=".772" stroke="#000" stroke-width=".938.056" fill="none"/><path d="M365.6 155.763c4.304 4.96 20.912 21.66 24.2 29.474 5.675 12.773 16.14 15.202 18.75 13.772" stroke-opacity=".772" stroke="#000" stroke-width=".938.056" fill="none"/><path d="M337.147 224.79c1.494 6.112 4.208 17.23 8.12 18.988.672-.657 1.24-1.872 1.175-4.52" stroke-opacity=".772" stroke="#000" stroke-width=".938.056" fill="none"/><path d="M314.572 190.15c1.756 1.788 2.154 3.417 3.976 3.634 2.22-1.816 6.13-11.938 4.726-19.41" stroke-opacity=".772" stroke="#000" stroke-width=".938.056" fill="none"/><path d="M305.366 189.87c.825 4.02 1.595 7.417 4.44 7.448 4.734-3.956 6.132-12.812 4.727-20.283" stroke-opacity=".772" stroke="#000" stroke-width=".938.056" fill="none"/><path d="M303.528 211.15l-2.13-4.683" stroke-opacity=".772" stroke="#000" stroke-width=".938.056" fill="none"/><path d="M349.512 249.044l14.266 12.96" stroke-opacity=".772" stroke="#000" stroke-width=".938.056" fill="none"/><path d="M342.716 243.83l4.402 12.394" stroke-opacity=".772" stroke="#000" stroke-width=".938.056" fill="none"/><path d="M323.32 232.488c2.993 5.945 9.37 14.525 14.447 15.784.174-.823.077-1.54.01-4.183" stroke-opacity=".772" stroke="#000" stroke-width=".938.056" fill="none"/><path d="M315.594 231.297c2.994 5.94 11.79 15.626 16.867 18.464.175-.822.915-.98.85-3.624" stroke-opacity=".772" stroke="#000" stroke-width=".938.056" fill="none"/><path d="M337.503 248.022l6.356 10.54" stroke-opacity=".772" stroke="#000" stroke-width=".938.056" fill="none"/><path d="M329.9 221.566c2.733 1.65 5.603 3.03 7.425 3.248.28-6.426-1.96-16.79-6.56-24.725" stroke-opacity=".772" stroke="#000" stroke-width=".938.056" fill="none"/><path d="M298.27 187.872c-.813 3.04-.7 6.36 2.146 6.392 7.898-3.41 3.182-6.807 9.965-18.318" stroke-opacity=".772" stroke="#000" stroke-width=".938.056" fill="none"/><path d="M308.694 166.966c2.994 5.944 3.87 9.985 8.536 11.512.934-.42 3.256-10.927-4.62-19.457" stroke-opacity=".772" stroke="#000" stroke-width=".938.056" fill="none"/><path d="M318.284 171.916c1.538 1.788 3.792 2.215 5.615 2.105 1.782-3.56-2.03-13.653-7.05-18.872" stroke-opacity=".772" stroke="#000" stroke-width=".938.056" fill="none"/><path d="M362.403 163.685c3.758 5.29 20.247 23.752 27.314 29.645 1.588-.202 3.938 1.77 1.74-4.903" stroke-opacity=".772" stroke="#000" stroke-width=".938.056" fill="none"/><path d="M360.547 175.366c3.758 5.29 10.64 14.243 17.706 20.137 1.777.663 3.496.45 4.06-.012.606-.582.055-4.774.21-9.04" stroke-opacity=".772" stroke="#000" stroke-width=".938.056" fill="none"/><path d="M356.075 182.03c4.304 4.745 9.985 10.205 16.942 16.536 1.777.663 3.312.69 3.515-.012.17-.693.49-.518.1-4.782" stroke-opacity=".772" stroke="#000" stroke-width=".938.056" fill="none"/><path d="M350.066 190.544c4.304 4.743 8.238 8.24 12.14 9.11 1.885.227 2.874.253 3.077-.448.17-.693.054-4.01-.007-7.84" stroke-opacity=".772" stroke="#000" stroke-width=".938.056" fill="none"/><path d="M343.953 196.872c4.304 4.743 4.308 6.71 8.21 7.582 1.885.226 3.28-.022 3.623-.667.606-1.348.818-2.81.756-6.638" stroke-opacity=".772" stroke="#000" stroke-width=".938.056" fill="none"/><path d="M342.21 165.87c4.335.788 4.694-2.96 4.342-5.642-.427-3.36-2.804-4.832-5.62-4.126" stroke-opacity=".772" stroke="#000" stroke-linecap="round" stroke-width=".938.056" fill="none"/><path d="M339.8 180.72c2.043.788 4.61.737 5.544-1.602.754-1.78.47-6.143-2.344-5.437" stroke-opacity=".772" stroke="#000" stroke-linecap="round" stroke-width=".938.056" fill="none"/><path d="M342.866 173.622c3.898.243 4.263-1.537 4.124-3.785-.154-2.62-1.93-4.614-4.746-3.907" stroke-opacity=".772" stroke="#000" stroke-linecap="round" stroke-width=".938.056" fill="none"/><path d="M346.653 163.44c5.693-3.426 22.093 10.316 9.62 14.69" stroke-opacity=".772" stroke="#000" stroke-width=".938.056" fill="none"/><path d="M345.444 173.172c5.693-3.427 18.23 7.784 5.518 12.15" stroke-opacity=".772" stroke="#000" stroke-width=".938.056" fill="none"/><path d="M343.316 180.906c6.356.22 13.67 10.424 1.208 11.67" stroke-opacity=".772" stroke="#000" stroke-width=".938.056" fill="none"/><path d="M335.825 186.353c2.043.79 3.223 1.3 5.046-.274.72-.66 1.67-3.69-1.016-5.368" stroke-opacity=".772" stroke="#000" stroke-linecap="round" stroke-width=".938.056" fill="none"/><path d="M282.603 174.025c2.15-2.774 7.404-4.543 9.202-.87" stroke-opacity=".772" stroke="#000" stroke-width=".938.056" fill="none"/><path d="M339.66 186.85c3.702 1.216 9.594 11.517-.3 12.568" stroke-opacity=".772" stroke="#000" stroke-width=".938.056" fill="none"/><path d="M334.934 140.256c4.27.808 6.427 7.708 9.83 8.24 6.224.928-.804-7.204-2.15-8.118" stroke-opacity=".772" stroke="#000" stroke-linecap="round" stroke-width=".938.056" fill="none"/><path d="M271.972 169.75c1.915.078 3.713-.274 4.924-2.54" stroke-opacity=".772" stroke="#000" stroke-width=".938.056" fill="none"/><path d="M290.956 189.522c1.064 1.984 3.8 1.19 6.06-.185 3.09-1.768.485-7.98 7.854-13.276" stroke-opacity=".772" stroke="#000" stroke-width=".938.056" fill="none"/><path d="M294.875 215.678c4.017 5.2 11.638 12.957 16.387 17.127.174-.823.944-1.242.878-3.89" stroke-opacity=".772" stroke="#000" stroke-width=".938.056" fill="none"/><path d="M311.113 232.46l9.136 12.693" stroke-opacity=".772" stroke="#000" stroke-width=".938.056" fill="none"/><path d="M330.163 229.394c1.494 6.11 7.437 15.786 11.347 17.544.673-.66 1.125-3.28 1.06-5.93" stroke-opacity=".772" stroke="#000" stroke-width=".938.056" fill="none"/><path d="M328.034 246.897l-.558 5.664" stroke-opacity=".772" stroke="#000" stroke-width=".938.056" fill="none"/><path d="M341.713 218.575c1.494 6.11 3.74 20.982 7.18 23.678.674-.657 2.064-13.012 1.998-15.658" stroke-opacity=".772" stroke="#000" stroke-width=".938.056" fill="none"/><path d="M337.1 218.153c2.03.243 3.213.236 4.8.218.28-6.424-2.504-13.978-7.103-21.913" stroke-opacity=".772" stroke="#000" stroke-width=".938.056" fill="none"/><path d="M348.416 202.28l-.317 6.5" stroke-opacity=".772" fill-rule="evenodd" stroke="#000" stroke-linecap="round" stroke-width=".938.056" fill="#00c600"/><path d="M325.475 199.506c2.147.83 3.682 1.097 5.388.962 1.762-8.702-2.675-8.71-8.204-14.863" stroke-opacity=".772" stroke="#000" stroke-width=".938.056" fill="none"/><path d="M350.178 141.663c4.27.807 1.563 7.194 7.368 9.177 4.873 1.624 2.127-5.093.78-6.007" stroke-opacity=".772" stroke="#000" stroke-linecap="round" stroke-width=".938.056" fill="none"/><path d="M343.83 156.006c3.082-2.24 14.097.862 17.824 3.992 1.068.996 2.697 4.97-2.366 8.623" stroke-opacity=".772" stroke="#000" stroke-width=".938.056" fill="none"/><path d="M285.472 161.266c8.842-8.63 12.943-7.646 23.066-1.282 1.453.342 3.033.043 3.973-.512.513-1.24.025-2.5-.64-3.46-4.528-3.246-7.902-4.186-12.174-3.588" stroke-opacity=".772" stroke="#000" stroke-width=".938.056" fill="none"/><path d="M298.203 193.29c-1.988 2.93-3.614 9.305-.256 16.403.133.817.99 1.634.128 2.18-1.655.832-2.403 2.21-3.332 3.587" stroke-opacity=".772" stroke="#000" stroke-width=".938.056" fill="none"/><path d="M349.728 238.61c.06-10.753-1.51-19.33-5.8-27.093" stroke-opacity=".772" stroke="#000" stroke-width=".938.056" fill="none"/><path d="M331.156 196.74c1.42-.15 3.202.243 4.078-.18.423-1.57-.785-3.504-1.27-4.984.817-.09 1.814-.09 2.448-.272.362-1.36 0-3.262 0-4.893" stroke-opacity=".772" stroke="#000" stroke-width=".938.056" fill="none"/><path d="M278.047 166.14c.34-2.39 2.477-5.04 4.87-6.406 1.153-.64 1.922.128 2.434.383.642 1.026.257 2.948 0 3.717-.64 1.282-1.92 2.307-4.227 3.204-1.197-.513-1.88-.385-3.076-.897z" stroke-opacity=".772" fill-rule="evenodd" stroke="#000" stroke-width=".938.056" fill="#fff"/><path d="M298.55 211.76c.513.256 5.638 5.894 5.638 5.894h3.076l.256-8.586" stroke-opacity=".772" stroke="#000" stroke-width=".938.056" fill="none"/><path stroke-linejoin="round" d="M306.875 195.23c-1.025 3.376-.64 6.75 0 10.125" stroke-opacity=".772" stroke="#000" stroke-linecap="round" stroke-width=".938.056" fill="none"/><path d="M300.2 211.15l1.2-4.683" stroke-opacity=".772" stroke="#000" stroke-width=".938.056" fill="none"/><path d="M302.394 193.43c-1.538 2.82-1.976 7.452-1.176 10.815" stroke-opacity=".772" stroke="#000" stroke-width=".938.056" fill="none"/><path d="M344.28 212.172l-2.898.058" stroke-opacity=".772" stroke="#000" stroke-width=".938.056" fill="none"/><path d="M240.397 201.278c.407 1.256-.963.582-1.257.935-1.44.508-3.722-1.256-5.164-5.522.704-1.193 4.84-3.76 6.166-3.208 0 0 2.602.992 2.914 2.08-.5 1.584-2.747 5.893-2.66 5.716z" fill-rule="evenodd" stroke="#000" stroke-width=".938.056" fill="#9f3000"/><path d="M344.28 212.172l.05-5.71" stroke-opacity=".772" stroke="#000" stroke-width=".938.056" fill="none"/><path d="M348.997 242.163l.814 13.928" stroke-opacity=".772" stroke="#000" stroke-width=".938.056" fill="none"/><path d="M240.303 201.766c2.81 2.642 7.225.87 7.927 7.325.3 3.614-4.816 10.84 0 17.36 1.706 2.51 6.122 5.22 6.122 5.22 2.308 2.575 3.01 7.157 4.515 10.736 3.178 4.75 7.56 5.787 11.038 4.617 0 0 11.44-5.118 11.44-5.22 0-.1-5.82-7.826-5.82-7.725 0 .1-6.523 5.52-6.623 5.52-.703-.1-4.516.3-5.92-4.517-.1-6.153-3.144-9.56-8.028-12.04-2.475-1.874-4.45-4.85-2.308-9.03 1.237-3.814 2.475-10.237-1.907-14.55-2.81-1.874-4.818-3.346-7.828-3.915-3.98 1.506-3.947 1.104-2.61 6.222z" fill-rule="evenodd" stroke="#000" stroke-width=".938.056" fill="#238700"/><path d="M296.872 148.047c-1.538 2.82-1.398 4.51-1.142 7.328" stroke-opacity=".772" stroke="#000" stroke-width=".938.056" fill="none"/><path d="M289.063 161.913h3.588c.955-.026 1.363-.388 2.05-.897.463-.26.954-.655 1.41-1.025.38-.27.837-.59 1.282-.768.727 0 1.295.053 1.922.256.58.243 1.057.59 1.538.897.48.192.913.256 1.666.256.782 0 1.602-.035 2.306.13.678.045 1.436.194 1.923.384.62.39.994.858 1.41 1.282.024.68.247 1.096.256 1.793 0 .595.067 1.403-.128 1.794 0 .737-.118 1.26-.257 1.794-.47.442-.64.784-1.28.897-.505.395-1.26.384-2.052.384h-2.05c-.445-.372-.985-.758-1.538-1.282-.297-.69-.494-.914-1.153-1.154-.554-.086-1.213-.128-1.922-.128-.626 0-1.148.044-1.538-.256-.354-.337-.864-.514-1.41-.64-.58-.165-1.265-.13-1.922-.13h-1.025" stroke-opacity=".772" stroke="#000" stroke-width=".938.056" fill="none"/><path d="M292.39 163.066l.13.128c-.292-.29-.186-.15.51.128.85.196 1.762.358 2.693.385.88 0 1.683.108 2.562.128.613 0 1.26.05 1.795-.128" stroke-opacity=".772" stroke="#000" stroke-width=".938.056" fill="none"/><path d="M300.594 161.013h-.128c.4 0 .154-.034-.385.64-.05.732-.208 1.136.13 1.795.417.14 1.124.45 1.41.768.41.295.383.56.383 1.282-.246.4-.468.723-.768 1.28-.162.404-.37.945-.513 1.41-.146.586-.25 1.143-.256 1.795v1.28" stroke-opacity=".772" stroke="#000" stroke-width=".938.056" fill="none"/><path d="M346.99 146.088c.144.273 2.6 5.18 5.652 2.067.453-.53.61-.915.61-1.82 0-.47-.064-1.02-.18-1.41" stroke-opacity=".772" stroke="#000" stroke-width=".938.056" fill="none"/><path d="M273.03 244.75c1.48 2.06 4.165 1 4.704-.65-1.84.12-2.542-.966-3.19-2.63-.394.953-1.927 2.098-1.513 3.28z" fill-rule="evenodd" stroke="#000" stroke-width=".5374739999999999" fill="#fff"/><path d="M359.956 150.672c0 .095 2.603 2.49 6.54 2.49.95 0 5.466-1.14 6.904-3.147" stroke-opacity=".772" stroke="#000" stroke-width=".938.056" fill="none"/><path d="M365.403 152.978c.058.385.18 1.787.18 2.72-.01.986.226 1.812-.146 2.635-.405 1.05-.855 1.47-1.846 1.83-.806.364-.978.015-1.877.048" stroke-opacity=".772" stroke="#000" stroke-width=".938.056" fill="none"/><path d="M343.738 148.02c0 .06 2.776 6.656 3.69 7.325" stroke-opacity=".772" stroke="#000" stroke-width=".938.056" fill="none"/><path d="M274.84 243.55c1.48 2.06 4.165 1 4.704-.65-1.84.12-2.543-.966-3.192-2.63-.393.953-1.925 2.098-1.51 3.28z" fill-rule="evenodd" stroke="#000" stroke-width=".5374739999999999" fill="#fff"/><path d="M277.644 242.35c1.478 2.06 4.164 1 4.703-.65-1.84.12-2.543-.966-3.192-2.63-.393.953-1.925 2.098-1.51 3.28z" fill-rule="evenodd" stroke="#000" stroke-width=".5374739999999999" fill="#fff"/><path d="M327.894 144.644H328.8c2.88-.486 12.554 1.3 14.235 3.08" stroke-opacity=".772" stroke="#000" stroke-width=".938.056" fill="none"/><path d="M329.703 191.397c-.06-.06.135 1.11.075 1.05.357.356-.054-.967-.256-1.775-.302-.72-.363-1.196-.363-2.175v-.725" stroke-opacity=".772" stroke="#000" stroke-width=".938.056" fill="none"/><path d="M311.62 234.053v.258-.257.258-1.048 5.276c.13.637.127 1.345.127 2.05.08.546.27 1.195.513 1.797.035.76.247 1.26.512 1.92.055.657.278 1.22.513 1.796.055.658.268 1.003.384 1.537.185.618.41 1.017.64 1.41.167.17.33 1.028.483 1.076" stroke-opacity=".772" stroke="#000" stroke-width=".938.056" fill="none"/><path d="M303.8 226.497v3.461c.167.85.196 1.747.384 2.563.07.733.247 1.358.385 2.05.06.686.88 3.116 1.152 3.718.304.566.752 1.155 1.026 1.535.512.16.93.34 1.537.384h1.794c.72-.138.966-.214 1.28-.768.174-.345.163-.586.385-.77" stroke-opacity=".772" stroke="#000" stroke-width=".938.056" fill="none"/><path d="M301.625 249.822c0-.21-.032-.84.256-1.282.455-.646.82-1.045 1.41-1.667.7-.447 2.442-2.842 7.69-4.227.61 0 .825-.12 1.41-.13" stroke-opacity=".772" stroke="#000" stroke-width=".938.056" fill="none"/><path d="M302.244 238.197c.042.044 2.868 1.52 4.333 1.583" stroke-opacity=".772" stroke="#000" stroke-width=".938.056" fill="none"/><path d="M310.316 243.156h-.14.14c-.047 0-.094 0 0 0z" stroke="#000" stroke-width=".39583599999999997pt" fill="none"/><path d="M309.05 243.016c-.42-.28-14.006-4.202-13.727-4.202.28 0-4.972 3.572-4.972 3.572l12.957 4.412 5.182-3.782h.56z" fill-rule="evenodd" stroke="#000" stroke-width=".938.056" fill="#ffbc00"/><path d="M296.075 238.703c.858-2.18.627-5.05-2.18-6.834-6.403-3.93-17.166-3.6-19.213.99-2.212-.298-3.335 1.486-3.665 3.268-5.71 1.552-.428 8.15.99 8.417 1.92.657 2.444.175 2.774-.452 1.07.263 2.534-.88 2.902-1.667 1.357.25 2.387.225 2.413-1.135 3.887 3.643 9.244 6.165 9.84 1.474l6.14-4.06z" fill-rule="evenodd" stroke="#000" stroke-width=".938.056" fill="#f7b200"/><path d="M271.025 236.03c-.363 2.544 1.344 5.284 4.05 7.925" stroke="#000" stroke-width=".938.056" fill="none"/><path d="M274.578 232.863c-.363 2.542.363 6.866 3.07 9.508" stroke="#000" stroke-width=".938.056" fill="none"/><path d="M278.6 230.135c-2.486 2.087-1.13 8.547 1.576 11.19" stroke="#000" stroke-width=".938.056" fill="none"/><path stroke-linejoin="round" d="M285.247 177.325c5.737 7.598-2.285 15.992-9.295 20.83-8.264 6.498-12.727 19.168 1.847 19.946 5.262-.096 10.977-.562 14.193 3.56 3.216 4.12 3.334 11.733-4.766 16.613-.794-.7-1.974-2.79-2.853-3.427-.88-.637-1.457.18-2.25-.52-.28-2.616 3.992-6.507-.048-7.447-5.23.886-23.535.962-23.302-16.5.402-3.89 2.482-8.26 5.82-12.704 3.34-4.444 12.49-9.955 13.37-12.368 1.408-2.084-1.17-6.138-3.223-6.7-1.68-4.48 5.744-9.267 10.506-1.284z" fill-rule="evenodd" stroke="#000100" stroke-width=".938.056" fill="#288800"/><path d="M272.497 190.77l.198 10.2" stroke="#000" stroke-width=".938.056" fill="none"/><path d="M267.153 194.828l10.895 1.585" stroke="#000" stroke-width=".938.056" fill="none"/><path d="M275.178 188.49l9.21 1.882" stroke="#000" stroke-width=".938.056" fill="none"/><path d="M265.475 196.61l7.67 4.542" stroke-opacity=".642" stroke="#000" stroke-width=".938.056" fill="none"/><path d="M260.01 206.2l5.99 6.363" stroke-opacity=".642" stroke="#000" stroke-width=".938.056" fill="none"/><path d="M265.55 197.03l1.017 15.048" stroke-opacity=".642" stroke="#000" stroke-width=".938.056" fill="none"/><path d="M261.416 203.33l9.84.202" stroke-opacity=".642" stroke="#000" stroke-width=".938.056" fill="none"/><path d="M251.122 228.756c1.523-1.443 3.114-3.515 4.098-5.542" stroke="#000" stroke-width=".938.056" fill="none"/><path d="M254.197 231.344c2.058-1.274 4.7-2.278 7.32-2.81" stroke="#000" stroke-width=".938.056" fill="none"/><path d="M257.984 240.1c1.785-1.487 3.705-3.064 5.018-5.135" stroke="#000" stroke-width=".938.056" fill="none"/><path d="M258.05 240.438c3.14-.077 6.326-.4 9.42-.97" stroke="#000" stroke-width=".938.056" fill="none"/><path d="M263.656 246.616c2.336-.88 4.47-2.23 6.2-3.582" stroke="#000" stroke-width=".938.056" fill="none"/><path d="M247.41 225.597c1.81-1.462 3.62-3.126 5.095-4.858" stroke="#000" stroke-width=".938.056" fill="none"/><path d="M246.078 220.91c1.97-.53 3.892-1.53 5.57-2.462" stroke="#000" stroke-width=".938.056" fill="none"/><path d="M246.762 216.025c1.593-.617 3.455-.875 5.182-.976" stroke="#000" stroke-width=".938.056" fill="none"/><path d="M248.244 211.525c1.926-.19 3.224-.072 5.15.53" stroke="#000" stroke-width=".938.056" fill="none"/><path d="M248.572 208.666c1.594-.856 3.386-1.413 5.178-1.18" stroke="#000" stroke-width=".938.056" fill="none"/><path d="M247.775 206.547l5.55-3.79" stroke="#000" stroke-width=".938.056" fill="none"/><path d="M246.8 204.98l4.727-4.684" stroke="#000" stroke-width=".938.056" fill="none"/><path d="M245.46 204.335l3.463-5.916" stroke="#000" stroke-width=".938.056" fill="none"/><path d="M259.27 169.366l-.044 8.43" stroke="#000" stroke-width=".938.056" fill="none"/><path d="M267.8 170.706c-1.243 2.43-2.983 5.302-5.22 7.447" stroke="#000" stroke-width=".938.056" fill="none"/><path d="M261.51 169.085c-2.477-.198-4.816 1.143-6.698 2.727" stroke="#000" stroke-width=".938.056" fill="none"/><path stroke-linejoin="round" d="M274.71 175.516c4.115 1.514 9.58 3.595 9.01 15.68 3.406-3.688 4.968-8.868.64-15.396-2.91-3.146-7.167-3.81-9.65-.284z" fill-rule="evenodd" fill-opacity=".994" stroke="#000" stroke-linecap="round" stroke-width=".39583599999999997pt" fill="#9d4600"/><path d="M276.566 179.547c.165-2.342 3.44-5.238 5.167-5.877" stroke="#000" stroke-width=".938.056" fill="none"/><path d="M277.822 181.666c.863-2.993 4.594-5.37 6.32-6.007" stroke="#000" stroke-width=".938.056" fill="none"/><path d="M277.906 185.903c1.594.025 7.625-3.32 9.005-5.31" stroke="#000" stroke-width=".938.056" fill="none"/><path d="M278.394 183.672c1.94-1.348 5.58-4.4 7.308-5.038" stroke="#000" stroke-width=".938.056" fill="none"/><path d="M283.72 186.12c1.45-.828 1.947-.625 3.47-2.19" stroke="#000" stroke-width=".938.056" fill="none"/><path d="M274.71 175.58c4.138 1.35 9.2 4.4 8.87 15.612" stroke="#000" stroke-width=".938.056" fill="none"/><path d="M260.928 218.903l5.633-6.828" stroke-opacity=".642" stroke="#000" stroke-width=".938.056" fill="none"/><path d="M261.63 220.31l5.032-.005" stroke-opacity=".642" stroke="#000" stroke-width=".938.056" fill="none"/><path d="M258.82 213.485l7.036 4.01" stroke-opacity=".642" stroke="#000" stroke-width=".938.056" fill="none"/><path d="M268.297 212.8c-1.347-.125-2.12-.38-3.292-.815.552 9.07 1.457 9.536 2.89 12.956 4.29 2.72 11.71 2.085 14.85 1.407.34.474 2.196 2.78 1.054 3.448-1.232.772-1.732 2.27-1.776 4.688.727.82 1.485.108 2.225.635.738.527 1.61 2.39 2.295 3.996 0 0 9.12-6.268 7.64-12.165-.97-5.54-4.715-7.427-4.715-7.427-5.295-2.647-12.738-.89-15.454-1.906-3.378-.75-5.503-3.67-5.72-4.817z" fill-rule="evenodd" stroke="#000" stroke-width=".39583599999999997pt" fill="#9d4600"/><path d="M283.325 228.803c4.568-2.085 9.397-2.255 10.71-2.063" stroke="#000" stroke-width=".938.056" fill="none"/><path d="M265.456 216.69c.992-.58 2.45-1.82 4.132-1.793" stroke="#000" stroke-width=".938.056" fill="none"/><path d="M273.856 226.685c.812-4.806 2.87-8.05 3.932-8.862" stroke="#000" stroke-width=".938.056" fill="none"/><path d="M276.603 227.06c.812-4.806 3.058-8.238 4.118-9.05" stroke="#000" stroke-width=".938.056" fill="none"/><path d="M279.66 226.74c.81-4.804 2.87-7.924 3.93-8.735" stroke="#000" stroke-width=".938.056" fill="none"/><path d="M281.975 226.366c.81-4.805 3.495-7.176 4.555-7.988" stroke="#000" stroke-width=".938.056" fill="none"/><path d="M283.503 227.735c.812-4.806 4.893-7.475 5.953-8.287" stroke="#000" stroke-width=".938.056" fill="none"/><path d="M283.634 228.475c2.782-4 7.354-5.944 8.66-6.226" stroke="#000" stroke-width=".938.056" fill="none"/><path d="M270.988 226.056c.81-4.805 2.932-7.425 3.993-8.237" stroke="#000" stroke-width=".938.056" fill="none"/><path d="M268.24 225.185c.812-4.806 3.308-7.24 4.37-8.05" stroke="#000" stroke-width=".938.056" fill="none"/><path d="M282.5 235.056c2.156-1.696 3.622 3.783 3.73 4.447.106.664.51 1.34 1.582 1.96" stroke="#000" stroke-width=".938.056" fill="none"/><path d="M266.563 221.875c.873-2.434 2.808-5.116 3.87-5.928" stroke="#000" stroke-width=".938.056" fill="none"/><path d="M278.384 230.35c-2.798 4.445.432 8.37 4.055 6.796-.417-3.072-1.202-5.023 1.6-7.978-1.987.117-3.77-.586-5.656 1.182z" fill-rule="evenodd" stroke="#000" stroke-width=".938.122" fill="#fff"/><path d="M267.828 197.67l1.324 6.53" stroke="#000" stroke-width=".938.056" fill="none"/><path d="M269.15 203.67l-2.383 8.03" stroke="#000" stroke-width=".938.056" fill="none"/><path d="M283.222 229.225c4.928-.96 9.665 0 10.895.493" stroke="#000" stroke-width=".938.056" fill="none"/><path d="M282.64 230.013c5.052-.074 9.458 1.99 10.544 2.8" stroke="#000" stroke-width=".938.135" fill="none"/><path d="M282.697 230.95c4.86 1.106 7.038 3.57 7.888 4.61" stroke="#000" stroke-width=".938.127" fill="none"/><path d="M282.36 232.066c4.36 2.414 5.34 4.395 5.867 5.632" stroke="#000" stroke-width=".938.127" fill="none"/><path fill-rule="evenodd" stroke-width=".938pt" fill="#296526" d="M210.232 255.514l2.342-.55 2.54 10.833-2.343.55z"/><path d="M229.69 292.02l4.917 5.598 1.836-1.553-4.615-5.8-2.137 1.754z" fill-rule="evenodd" stroke-width=".938pt" fill="#296526"/><path d="M379.756 315.944l-6.09 4.29 1.348 1.992 6.258-3.97-1.516-2.312z" fill-rule="evenodd" stroke-width=".938pt" fill="#296526"/><path d="M411.884 289.15l-5.433 5.098 1.614 1.784 5.643-4.804-1.823-2.078z" fill-rule="evenodd" stroke-width=".938pt" fill="#296526"/><path d="M429.116 253.188l-1.977 4.878 1.08 1.4 2.126-4.643-1.23-1.635z" fill-rule="evenodd" stroke-width=".938pt" fill="#296526"/><path d="M268.175 225.447c-2.64-4.342-2.973-8.885-3.106-13.327 1.4.668 2.504 1.035 3.305.8" stroke="#000" stroke-width=".938.056" fill="none"/><path d="M258.988 169.113c-2.173-5.433.335-8.376 3.045-10.955" stroke="#000" stroke-width=".938.056" fill="none"/><path d="M262.558 156.81c.458.58.18 1.628-.622 2.342-.8.715-1.82.824-2.278.244-.457-.58-.178-1.63.623-2.344.8-.714 1.82-.823 2.278-.243z" fill-rule="evenodd"/><path d="M248.46 197.997c-.455 0-8.326-1.06-8.326-1.06" stroke="#000" stroke-width=".938.372" fill="none"/><path d="M245.13 203.753c0-.302-5.145-6.66-5.145-6.66" stroke="#000" stroke-width=".938.372" fill="none"/></g></g></svg>