<svg xmlns="http://www.w3.org/2000/svg" height="480" width="640" version="1"><defs><clipPath id="a"><path fill-opacity=".67" d="M0 0h640v480H0z"/></clipPath></defs><g clip-path="url(#a)"><g fill-rule="evenodd" transform="translate(39.999)"><path stroke-width="1pt" fill="#f50013" d="M-40 0h720v480H-40z"/><path stroke-width="1pt" fill="#00189a" d="M-40 0h720v240H-40z"/><path d="M-40 0l413.15 239.69L-40 479.08-39.997 0z" stroke-width="1pt" fill="#feffff"/><path d="M-20.42 437.1l4.21-18.49-16.605-9.175 19.3-2.41 4.392-18.458 7.717 17.003 19.317-2.233-14.53 12.917 7.548 17.078-16.698-9.02-14.653 12.788z" stroke-width=".113" fill="#eca300"/><path d="M67.453 198.5l-14.826-25.46-8.526-.965 20.302 28.83 3.05-2.405zm-11.508 11.665L24.772 186.18l-1.117-13.965 12.606-.426 25.772 31.517-6.087 6.858zm-4.734 5.485l-25.655-14.482-1.08-8.513 29.1 19.91-2.363 3.084z" stroke-width="1pt" fill="#eca300"/><path d="M104.14 193.27l7.738-28.427-5.294-6.753-6.3 34.693 3.856.487zm-16.386-.016l-4.78-39.042 9.166-10.593 9.15 8.682-4.38 40.477-9.156.473zm-7.23.475l-7.68-28.443 5.306-6.743 6.23 34.705-3.856.48z" stroke-width="1pt" fill="#eca300"/><path d="M133.87 216.19l25.84-14.153 1.188-8.498-29.352 19.537 2.324 3.114zm-11.36-11.81l24.796-30.533 13.99-.75.094 12.613-32.184 24.935-6.695-6.265zm-5.358-4.876l15.15-25.268 8.538-.857-20.667 28.567-3.02-2.444z" stroke-width="1pt" fill="#eca300"/><path d="M138.47 251.81l28.423 7.753 6.756-5.29-34.69-6.318-.49 3.855zm.025-16.386l39.044-4.76 10.587 9.172-8.69 9.144-40.474-4.398-.47-9.158zm-.47-7.23l28.445-7.667 6.74 5.31-34.71 6.213-.477-3.856z" stroke-width="1pt" fill="#eca300"/><path d="M116.83 280.78l14.94 25.393 8.53.928-20.43-28.74-3.04 2.42zm11.457-11.715l31.28 23.848 1.177 13.96-12.604.48-25.91-31.403 6.057-6.885zm4.71-5.506l25.72 14.367 1.118 8.508-29.188-19.782 2.35-3.094z" stroke-width="1pt" fill="#eca300"/><path d="M80.273 286.2l-7.543 28.48 5.34 6.715 6.06-34.735-3.857-.46zm16.386-.096l5.048 39.008-9.094 10.656-9.208-8.62 4.1-40.507 9.153-.536zm7.225-.525l7.877 28.388-5.26 6.78-6.47-34.663 3.853-.506z" stroke-width="1pt" fill="#eca300"/><path d="M50.61 263.87L25 278.437l-1.05 8.516 29.033-20.007-2.374-3.076zm11.546 11.626l-24.3 30.928-13.976.975-.298-12.61 31.78-25.45 6.794 6.156zm5.437 4.79L52.85 305.792l-8.523.994 20.206-28.897 3.06 2.395z" stroke-width="1pt" fill="#eca300"/><path d="M45.543 227.9l-28.477-7.55-6.718 5.337 34.734 6.07.462-3.857zm.09 16.386l-39.008 5.037-10.653-9.097 8.624-9.205 40.505 4.112.535 9.154zm.524 7.226l-28.39 7.87-6.778-5.264 34.663-6.458.504 3.852z" stroke-width="1pt" fill="#eca300"/><path d="M301.72 264.76l-10.99-15.454-17.903 6.28 11.054-16.005-10.846-15.565 17.824 5.564 11.197-15.9-.04 19.443 17.77 5.74-17.848 6.452-.217 19.446z" stroke-width=".113" fill="#eca300"/><path d="M-9.852 92.122l-3.408-18.655-18.876-1.897 16.794-9.814-3.23-18.696 13.787 12.592 16.88-9.658L3.82 63.59l13.663 12.726-18.9-1.718-8.435 17.524z" stroke-width=".113" fill="#eca300"/><ellipse cx="190.68" rx="73.029" cy="353.88" transform="matrix(.677 0 0 .677 -37.108 0)" ry="73.029" stroke-width="1pt" fill="#eca300"/></g></g></svg>