<svg xmlns="http://www.w3.org/2000/svg" height="480" width="640"><defs><clipPath id="a"><path fill-opacity=".67" d="M0 0h682.67v512H0z"/></clipPath></defs><g clip-path="url(#a)" fill-rule="evenodd" transform="scale(.938 .938)"><path stroke-width="1pt" fill="#ff0" d="M0 0h1024v504.3H0z"/><path stroke-width="1pt" fill="#009d00" d="M0 0h1024v146.29H0z"/><path stroke-width="1pt" fill="#009d00" d="M0 365.71h1024V512H0z"/><path d="M.708 0c1.417 0 255.29 253.03 255.29 253.03L-.002 512 .708 0z" fill="#f10600"/><g stroke-width="1pt"><path d="M412.132 268.53l-31.99-23.88 39.523.04 12.18-38.675 12.182 38.676 39.524-.028-31.995 23.867 12.242 38.658-31.956-23.924-31.956 23.918z"/><path d="M215.214 268.53l-31.99-23.88 39.523.04 12.18-38.675 12.182 38.676 39.523-.028-31.996 23.867 12.242 38.658-31.957-23.924-31.957 23.918z"/></g></g></svg>