<svg xmlns="http://www.w3.org/2000/svg" height="480" width="640"><defs><clipPath id="a"><path fill-opacity=".67" d="M0 0h640v480H0z"/></clipPath></defs><g clip-path="url(#a)"><path fill-rule="evenodd" stroke-width="1pt" fill="#5387f4" d="M-79.43 318.86h798.86V480H-79.43z"/><path fill-rule="evenodd" stroke-width="1pt" fill="#5387f4" d="M-79.43 0h798.86v161.14H-79.43z"/><path fill-rule="evenodd" stroke-width="1pt" fill="#fff" d="M-79.43 161.14h798.86v157.71H-79.43z"/><g><g stroke="#000" fill-rule="evenodd"><g><path d="M490.58 234.24c0 .846-.823 1.53-1.837 1.53s-1.838-.684-1.838-1.53.823-1.53 1.838-1.53 1.837.684 1.837 1.53z" transform="matrix(-.78 -.489 -.612 .958 779.333 213.229)" stroke-width=".332" fill="#f00"/><path d="M490.58 234.24c0 .846-.823 1.53-1.837 1.53s-1.838-.684-1.838-1.53.823-1.53 1.838-1.53 1.837.684 1.837 1.53z" transform="matrix(-.78 -.489 -.612 .958 785.267 217.889)" stroke-width=".332" fill="#f00"/><path d="M259.03 105.71s400.32 70.645 414.45 395.62c14.13 324.97-188.39 367.36-259.03 419.16-70.645 51.807-113.03 113.03-146 113.03-32.968 0-80.065-14.13-80.065-14.13s9.42 51.81 75.355 47.1c65.936-4.71 127.16-113.03 164.84-131.87s277.88-98.9 259.04-428.58c-14.13-353.23-423.88-390.91-428.59-400.33z" transform="matrix(-.17 .04 .042 .181 329.686 148.813)" stroke-width="1.603" fill="#006700"/><path d="M320.26 487.2c0 59.825-11.597 108.32-25.903 108.32s-25.903-48.498-25.903-108.32c0-59.825 11.597-108.32 25.903-108.32s25.903 48.498 25.903 108.32z" transform="matrix(-.082 -.006 -.021 .082 293.581 153.107)" stroke-width="1.603" fill="#006700"/><path d="M320.26 487.2c0 59.825-11.597 108.32-25.903 108.32s-25.903-48.498-25.903-108.32c0-59.825 11.597-108.32 25.903-108.32s25.903 48.498 25.903 108.32z" transform="matrix(-.075 -.028 -.038 .078 301.804 162.465)" stroke-width="1.603" fill="#006700"/><path d="M320.26 487.2c0 59.825-11.597 108.32-25.903 108.32s-25.903-48.498-25.903-108.32c0-59.825 11.597-108.32 25.903-108.32s25.903 48.498 25.903 108.32z" transform="matrix(-.007 -.087 -.078 .023 306.051 212.497)" stroke-width="1.603" fill="#006700"/><path d="M320.26 487.2c0 59.825-11.597 108.32-25.903 108.32s-25.903-48.498-25.903-108.32c0-59.825 11.597-108.32 25.903-108.32s25.903 48.498 25.903 108.32z" transform="matrix(-.036 -.073 -.07 .049 310.802 193.453)" stroke-width="1.603" fill="#006700"/><path d="M320.26 487.2c0 59.825-11.597 108.32-25.903 108.32s-25.903-48.498-25.903-108.32c0-59.825 11.597-108.32 25.903-108.32s25.903 48.498 25.903 108.32z" transform="matrix(-.055 -.057 -.06 .063 308.833 179.752)" stroke-width="1.603" fill="#006700"/><path d="M490.58 234.24c0 .846-.823 1.53-1.837 1.53s-1.838-.684-1.838-1.53.823-1.53 1.838-1.53 1.837.684 1.837 1.53z" transform="matrix(-.878 -.284 -.355 1.077 749.037 107.455)" stroke-width=".332" fill="#f00"/><path d="M490.58 234.24c0 .846-.823 1.53-1.837 1.53s-1.838-.684-1.838-1.53.823-1.53 1.838-1.53 1.837.684 1.837 1.53z" transform="matrix(-.878 -.284 -.355 1.077 755.945 110.529)" stroke-width=".332" fill="#f00"/><path d="M320.26 487.2c0 59.825-11.597 108.32-25.903 108.32s-25.903-48.498-25.903-108.32c0-59.825 11.597-108.32 25.903-108.32s25.903 48.498 25.903 108.32z" transform="matrix(-.117 .028 -.001 .127 275.706 136.747)" stroke-width="1.603" fill="#006700"/><path d="M320.26 487.2c0 59.825-11.597 108.32-25.903 108.32s-25.903-48.498-25.903-108.32c0-59.825 11.597-108.32 25.903-108.32s25.903 48.498 25.903 108.32z" transform="matrix(-.113 -.006 -.027 .129 290.134 146.385)" stroke-width="1.603" fill="#006700"/><path d="M320.26 487.2c0 59.825-11.597 108.32-25.903 108.32s-25.903-48.498-25.903-108.32c0-59.825 11.597-108.32 25.903-108.32s25.903 48.498 25.903 108.32z" transform="matrix(-.039 -.121 -.1 .068 312.23 216.096)" stroke-width="1.603" fill="#006700"/><path d="M320.26 487.2c0 59.825-11.597 108.32-25.903 108.32s-25.903-48.498-25.903-108.32c0-59.825 11.597-108.32 25.903-108.32s25.903 48.498 25.903 108.32z" transform="matrix(-.074 -.089 -.082 .101 312.649 186.645)" stroke-width="1.603" fill="#006700"/><path d="M320.26 487.2c0 59.825-11.597 108.32-25.903 108.32s-25.903-48.498-25.903-108.32c0-59.825 11.597-108.32 25.903-108.32s25.903 48.498 25.903 108.32z" transform="matrix(-.095 -.057 -.063 .118 305.472 167.918)" stroke-width="1.603" fill="#006700"/><path d="M320.26 487.2c0 59.825-11.597 108.32-25.903 108.32s-25.903-48.498-25.903-108.32c0-59.825 11.597-108.32 25.903-108.32s25.903 48.498 25.903 108.32z" transform="matrix(-.11 .051 .021 .126 251.714 157.707)" stroke-width="1.603" fill="#006700"/><path d="M320.26 487.2c0 59.825-11.597 108.32-25.903 108.32s-25.903-48.498-25.903-108.32c0-59.825 11.597-108.32 25.903-108.32s25.903 48.498 25.903 108.32z" transform="matrix(-.112 .016 -.004 .133 267.52 164.404)" stroke-width="1.603" fill="#006700"/><path d="M320.26 487.2c0 59.825-11.597 108.32-25.903 108.32s-25.903-48.498-25.903-108.32c0-59.825 11.597-108.32 25.903-108.32s25.903 48.498 25.903 108.32z" transform="matrix(-.059 -.112 -.085 .087 301.422 228.918)" stroke-width="1.603" fill="#006700"/><path d="M320.26 487.2c0 59.825-11.597 108.32-25.903 108.32s-25.903-48.498-25.903-108.32c0-59.825 11.597-108.32 25.903-108.32s25.903 48.498 25.903 108.32z" transform="matrix(-.087 -.073 -.062 .116 296.633 199.748)" stroke-width="1.603" fill="#006700"/><path d="M320.26 487.2c0 59.825-11.597 108.32-25.903 108.32s-25.903-48.498-25.903-108.32c0-59.825 11.597-108.32 25.903-108.32s25.903 48.498 25.903 108.32z" transform="matrix(-.102 -.038 -.039 .129 286.318 182.656)" stroke-width="1.603" fill="#006700"/><path d="M320.26 487.2c0 59.825-11.597 108.32-25.903 108.32s-25.903-48.498-25.903-108.32c0-59.825 11.597-108.32 25.903-108.32s25.903 48.498 25.903 108.32z" transform="matrix(-.08 .094 .066 .107 219.154 183.632)" stroke-width="1.603" fill="#006700"/><path d="M320.26 487.2c0 59.825-11.597 108.32-25.903 108.32s-25.903-48.498-25.903-108.32c0-59.825 11.597-108.32 25.903-108.32s25.903 48.498 25.903 108.32z" transform="matrix(-.095 .062 .047 .124 235.994 183.168)" stroke-width="1.603" fill="#006700"/><path d="M239.07 260.127c-2.63 7-3.64 13.59-2.253 14.72s4.647-3.628 7.28-10.627c2.63-7 3.64-13.59 2.253-14.72s-4.647 3.628-7.28 10.627z" stroke-width=".125.603" fill="#006700"/><path d="M320.26 487.2c0 59.825-11.597 108.32-25.903 108.32s-25.903-48.498-25.903-108.32c0-59.825 11.597-108.32 25.903-108.32s25.903 48.498 25.903 108.32z" transform="matrix(-.107 -.03 -.012 .134 275.793 203.64)" stroke-width="1.603" fill="#006700"/><path d="M320.26 487.2c0 59.825-11.597 108.32-25.903 108.32s-25.903-48.498-25.903-108.32c0-59.825 11.597-108.32 25.903-108.32s25.903 48.498 25.903 108.32z" transform="matrix(-.107 .009 .012 .137 259.95 192.159)" stroke-width="1.603" fill="#006700"/><path d="M320.26 487.2c0 59.825-11.597 108.32-25.903 108.32s-25.903-48.498-25.903-108.32c0-59.825 11.597-108.32 25.903-108.32s25.903 48.498 25.903 108.32z" transform="matrix(-.058 .133 .107 .094 200.111 208.873)" stroke-width="1.603" fill="#006700"/><path d="M490.58 234.24c0 .846-.823 1.53-1.837 1.53s-1.838-.684-1.838-1.53.823-1.53 1.838-1.53 1.837.684 1.837 1.53z" transform="matrix(-.361 -.518 -.683 .368 623.464 344.806)" stroke-width=".332" fill="#f00"/><path d="M490.58 234.24c0 .846-.823 1.53-1.837 1.53s-1.838-.684-1.838-1.53.823-1.53 1.838-1.53 1.837.684 1.837 1.53z" transform="matrix(-.361 -.518 -.683 .368 625.938 349.295)" stroke-width=".332" fill="#f00"/><path d="M320.26 487.2c0 59.825-11.597 108.32-25.903 108.32s-25.903-48.498-25.903-108.32c0-59.825 11.597-108.32 25.903-108.32s25.903 48.498 25.903 108.32z" transform="matrix(-.084 .104 .092 .12 218.502 202.139)" stroke-width="1.603" fill="#006700"/><path d="M320.26 487.2c0 59.825-11.597 108.32-25.903 108.32s-25.903-48.498-25.903-108.32c0-59.825 11.597-108.32 25.903-108.32s25.903 48.498 25.903 108.32z" transform="matrix(-.132 -.051 -.011 .145 293.938 231.956)" stroke-width="1.603" fill="#006700"/><path d="M320.26 487.2c0 59.825-11.597 108.32-25.903 108.32s-25.903-48.498-25.903-108.32c0-59.825 11.597-108.32 25.903-108.32s25.903 48.498 25.903 108.32z" transform="matrix(-.128 .006 .03 .152 268.899 210.032)" stroke-width="1.603" fill="#006700"/><path d="M320.26 487.2c0 59.825-11.597 108.32-25.903 108.32s-25.903-48.498-25.903-108.32c0-59.825 11.597-108.32 25.903-108.32s25.903 48.498 25.903 108.32z" transform="matrix(-.116 .049 .058 .146 247.775 203.2)" stroke-width="1.603" fill="#006700"/><path d="M320.26 487.2c0 59.825-11.597 108.32-25.903 108.32s-25.903-48.498-25.903-108.32c0-59.825 11.597-108.32 25.903-108.32s25.903 48.498 25.903 108.32z" transform="matrix(.016 .16 .154 .026 175.048 260.638)" stroke-width="1.603" fill="#006700"/><path d="M490.58 234.24c0 .846-.823 1.53-1.837 1.53s-1.838-.684-1.838-1.53.823-1.53 1.838-1.53 1.837.684 1.837 1.53z" transform="matrix(-.556 .73 .912 .683 303.33 -210.88)" stroke-width=".332" fill="#f00"/><path d="M490.58 234.24c0 .846-.823 1.53-1.837 1.53s-1.838-.684-1.838-1.53.823-1.53 1.838-1.53 1.837.684 1.837 1.53z" transform="matrix(-.556 .73 .912 .683 308.513 -216.345)" stroke-width=".332" fill="#f00"/><path d="M320.26 487.2c0 59.825-11.597 108.32-25.903 108.32s-25.903-48.498-25.903-108.32c0-59.825 11.597-108.32 25.903-108.32s25.903 48.498 25.903 108.32z" transform="matrix(-.026 .149 .153 .06 189.192 243.363)" stroke-width="1.603" fill="#006700"/><path d="M320.26 487.2c0 59.825-11.597 108.32-25.903 108.32s-25.903-48.498-25.903-108.32c0-59.825 11.597-108.32 25.903-108.32s25.903 48.498 25.903 108.32z" transform="matrix(-.154 .029 .068 .144 277.934 227.161)" stroke-width="1.603" fill="#006700"/><path d="M320.26 487.2c0 59.825-11.597 108.32-25.903 108.32s-25.903-48.498-25.903-108.32c0-59.825 11.597-108.32 25.903-108.32s25.903 48.498 25.903 108.32z" transform="matrix(-.121 .082 .11 .127 242.051 221.098)" stroke-width="1.603" fill="#006700"/><path d="M320.26 487.2c0 59.825-11.597 108.32-25.903 108.32s-25.903-48.498-25.903-108.32c0-59.825 11.597-108.32 25.903-108.32s25.903 48.498 25.903 108.32z" transform="matrix(-.085 .115 .134 .105 218.009 227.088)" stroke-width="1.603" fill="#006700"/><g stroke-width="1.603" fill="#006700"><path d="M283.097 339.677c9.463.135 17.124-2.01 17.11-4.79s-7.692-5.146-17.155-5.28c-9.463-.136-17.124 2.01-17.112 4.79s7.694 5.144 17.157 5.28z"/><path d="M285.117 324.055c5.993 7.93 12.482 12.96 14.493 11.235s-1.217-9.554-7.21-17.484c-5.993-7.93-12.482-12.96-14.493-11.236s1.216 9.554 7.21 17.485z"/><path d="M282.726 332.012c8.787 3.876 16.686 4.934 17.64 2.364s-5.39-7.795-14.178-11.67c-8.787-3.875-16.685-4.934-17.64-2.364s5.39 7.795 14.178 11.67z"/></g><g stroke-width="1.603" fill="#006700"><path d="M278.45 179.693c-4.326 4.01-6.927 7.765-5.81 8.386s5.53-2.128 9.856-6.14c4.326-4.01 6.927-7.764 5.81-8.384s-5.53 2.127-9.856 6.137z"/><path d="M283.454 184.432c-5.904.81-10.87 2.475-11.093 3.716s4.38 1.59 10.284.78c5.903-.812 10.87-2.476 11.093-3.717s-4.38-1.59-10.283-.778z"/><path d="M281.34 181.348c-5.54 2.884-9.55 6.017-8.955 6.997s5.572-.562 11.114-3.446c5.542-2.885 9.552-6.017 8.956-6.998s-5.572.562-11.115 3.446z"/></g><path d="M490.58 234.24c0 .846-.823 1.53-1.837 1.53s-1.838-.684-1.838-1.53.823-1.53 1.838-1.53 1.837.684 1.837 1.53z" transform="matrix(-.923 0 0 1.133 680.656 -17.903)" stroke-width=".332" fill="#f00"/><path d="M490.58 234.24c0 .846-.823 1.53-1.837 1.53s-1.838-.684-1.838-1.53.823-1.53 1.838-1.53 1.837.684 1.837 1.53z" transform="matrix(-.923 0 0 1.133 688.19 -17.11)" stroke-width=".332" fill="#f00"/><path d="M490.58 234.24c0 .846-.823 1.53-1.837 1.53s-1.838-.684-1.838-1.53.823-1.53 1.838-1.53 1.837.684 1.837 1.53z" transform="matrix(-.799 .459 .572 .981 489.851 -175.963)" stroke-width=".332" fill="#f00"/><path d="M490.58 234.24c0 .846-.823 1.53-1.837 1.53s-1.838-.684-1.838-1.53.823-1.53 1.838-1.53 1.837.684 1.837 1.53z" transform="matrix(-.799 .459 .572 .981 496.769 -179.013)" stroke-width=".332" fill="#f00"/><path d="M490.58 234.24c0 .846-.823 1.53-1.837 1.53s-1.838-.684-1.838-1.53.823-1.53 1.838-1.53 1.837.684 1.837 1.53z" transform="matrix(-.496 -.393 -.547 .548 640.599 250.366)" stroke-width=".332" fill="#f00"/><path d="M490.58 234.24c0 .846-.823 1.53-1.837 1.53s-1.838-.684-1.838-1.53.823-1.53 1.838-1.53 1.837.684 1.837 1.53z" transform="matrix(-.496 -.393 -.547 .548 644.268 253.952)" stroke-width=".332" fill="#f00"/></g><g><path d="M490.58 234.24c0 .846-.823 1.53-1.837 1.53s-1.838-.684-1.838-1.53.823-1.53 1.838-1.53 1.837.684 1.837 1.53z" transform="matrix(.78 -.489 .612 .958 -140.232 213.976)" stroke-width=".332" fill="#f00"/><path d="M490.58 234.24c0 .846-.823 1.53-1.837 1.53s-1.838-.684-1.838-1.53.823-1.53 1.838-1.53 1.837.684 1.837 1.53z" transform="matrix(.78 -.489 .612 .958 -146.166 218.636)" stroke-width=".332" fill="#f00"/><path d="M259.03 105.71s400.32 70.645 414.45 395.62c14.13 324.97-188.39 367.36-259.03 419.16-70.645 51.807-113.03 113.03-146 113.03-32.968 0-80.065-14.13-80.065-14.13s9.42 51.81 75.355 47.1c65.936-4.71 127.16-113.03 164.84-131.87s277.88-98.9 259.04-428.58c-14.13-353.23-423.88-390.91-428.59-400.33z" transform="matrix(.17 .04 -.042 .181 309.415 149.56)" stroke-width="1.603" fill="#006700"/><path d="M320.26 487.2c0 59.825-11.597 108.32-25.903 108.32s-25.903-48.498-25.903-108.32c0-59.825 11.597-108.32 25.903-108.32s25.903 48.498 25.903 108.32z" transform="matrix(.082 -.006 .021 .082 345.52 153.854)" stroke-width="1.603" fill="#006700"/><path d="M320.26 487.2c0 59.825-11.597 108.32-25.903 108.32s-25.903-48.498-25.903-108.32c0-59.825 11.597-108.32 25.903-108.32s25.903 48.498 25.903 108.32z" transform="matrix(.075 -.028 .038 .078 337.297 163.212)" stroke-width="1.603" fill="#006700"/><path d="M320.26 487.2c0 59.825-11.597 108.32-25.903 108.32s-25.903-48.498-25.903-108.32c0-59.825 11.597-108.32 25.903-108.32s25.903 48.498 25.903 108.32z" transform="matrix(.007 -.087 .078 .023 333.05 213.244)" stroke-width="1.603" fill="#006700"/><path d="M320.26 487.2c0 59.825-11.597 108.32-25.903 108.32s-25.903-48.498-25.903-108.32c0-59.825 11.597-108.32 25.903-108.32s25.903 48.498 25.903 108.32z" transform="matrix(.036 -.073 .07 .049 328.299 194.2)" stroke-width="1.603" fill="#006700"/><path d="M320.26 487.2c0 59.825-11.597 108.32-25.903 108.32s-25.903-48.498-25.903-108.32c0-59.825 11.597-108.32 25.903-108.32s25.903 48.498 25.903 108.32z" transform="matrix(.055 -.057 .06 .063 330.268 180.499)" stroke-width="1.603" fill="#006700"/><path d="M490.58 234.24c0 .846-.823 1.53-1.837 1.53s-1.838-.684-1.838-1.53.823-1.53 1.838-1.53 1.837.684 1.837 1.53z" transform="matrix(.878 -.284 .355 1.077 -109.936 108.202)" stroke-width=".332" fill="#f00"/><path d="M490.58 234.24c0 .846-.823 1.53-1.837 1.53s-1.838-.684-1.838-1.53.823-1.53 1.838-1.53 1.837.684 1.837 1.53z" transform="matrix(.878 -.284 .355 1.077 -116.844 111.276)" stroke-width=".332" fill="#f00"/><path d="M320.26 487.2c0 59.825-11.597 108.32-25.903 108.32s-25.903-48.498-25.903-108.32c0-59.825 11.597-108.32 25.903-108.32s25.903 48.498 25.903 108.32z" transform="matrix(.117 .028 .001 .127 363.395 137.494)" stroke-width="1.603" fill="#006700"/><path d="M320.26 487.2c0 59.825-11.597 108.32-25.903 108.32s-25.903-48.498-25.903-108.32c0-59.825 11.597-108.32 25.903-108.32s25.903 48.498 25.903 108.32z" transform="matrix(.113 -.006 .027 .129 348.967 147.132)" stroke-width="1.603" fill="#006700"/><path d="M320.26 487.2c0 59.825-11.597 108.32-25.903 108.32s-25.903-48.498-25.903-108.32c0-59.825 11.597-108.32 25.903-108.32s25.903 48.498 25.903 108.32z" transform="matrix(.039 -.121 .1 .068 326.871 216.843)" stroke-width="1.603" fill="#006700"/><path d="M320.26 487.2c0 59.825-11.597 108.32-25.903 108.32s-25.903-48.498-25.903-108.32c0-59.825 11.597-108.32 25.903-108.32s25.903 48.498 25.903 108.32z" transform="matrix(.074 -.089 .082 .101 326.452 187.392)" stroke-width="1.603" fill="#006700"/><path d="M320.26 487.2c0 59.825-11.597 108.32-25.903 108.32s-25.903-48.498-25.903-108.32c0-59.825 11.597-108.32 25.903-108.32s25.903 48.498 25.903 108.32z" transform="matrix(.095 -.057 .063 .118 333.629 168.665)" stroke-width="1.603" fill="#006700"/><path d="M320.26 487.2c0 59.825-11.597 108.32-25.903 108.32s-25.903-48.498-25.903-108.32c0-59.825 11.597-108.32 25.903-108.32s25.903 48.498 25.903 108.32z" transform="matrix(.11 .051 -.021 .126 387.387 158.454)" stroke-width="1.603" fill="#006700"/><path d="M320.26 487.2c0 59.825-11.597 108.32-25.903 108.32s-25.903-48.498-25.903-108.32c0-59.825 11.597-108.32 25.903-108.32s25.903 48.498 25.903 108.32z" transform="matrix(.112 .016 .004 .133 371.581 165.151)" stroke-width="1.603" fill="#006700"/><path d="M320.26 487.2c0 59.825-11.597 108.32-25.903 108.32s-25.903-48.498-25.903-108.32c0-59.825 11.597-108.32 25.903-108.32s25.903 48.498 25.903 108.32z" transform="matrix(.059 -.112 .085 .087 337.679 229.665)" stroke-width="1.603" fill="#006700"/><path d="M320.26 487.2c0 59.825-11.597 108.32-25.903 108.32s-25.903-48.498-25.903-108.32c0-59.825 11.597-108.32 25.903-108.32s25.903 48.498 25.903 108.32z" transform="matrix(.087 -.073 .062 .116 342.468 200.495)" stroke-width="1.603" fill="#006700"/><path d="M320.26 487.2c0 59.825-11.597 108.32-25.903 108.32s-25.903-48.498-25.903-108.32c0-59.825 11.597-108.32 25.903-108.32s25.903 48.498 25.903 108.32z" transform="matrix(.102 -.038 .039 .129 352.783 183.403)" stroke-width="1.603" fill="#006700"/><path d="M320.26 487.2c0 59.825-11.597 108.32-25.903 108.32s-25.903-48.498-25.903-108.32c0-59.825 11.597-108.32 25.903-108.32s25.903 48.498 25.903 108.32z" transform="matrix(.08 .094 -.066 .107 419.947 184.379)" stroke-width="1.603" fill="#006700"/><path d="M320.26 487.2c0 59.825-11.597 108.32-25.903 108.32s-25.903-48.498-25.903-108.32c0-59.825 11.597-108.32 25.903-108.32s25.903 48.498 25.903 108.32z" transform="matrix(.095 .062 -.047 .124 403.107 183.915)" stroke-width="1.603" fill="#006700"/><path d="M400.788 260.873c2.632 7 3.64 13.59 2.254 14.72s-4.647-3.628-7.28-10.627c-2.63-7-3.64-13.59-2.253-14.72s4.646 3.628 7.278 10.627z" stroke-width=".125.603" fill="#006700"/><path d="M320.26 487.2c0 59.825-11.597 108.32-25.903 108.32s-25.903-48.498-25.903-108.32c0-59.825 11.597-108.32 25.903-108.32s25.903 48.498 25.903 108.32z" transform="matrix(.107 -.03 .012 .134 363.308 204.387)" stroke-width="1.603" fill="#006700"/><path d="M320.26 487.2c0 59.825-11.597 108.32-25.903 108.32s-25.903-48.498-25.903-108.32c0-59.825 11.597-108.32 25.903-108.32s25.903 48.498 25.903 108.32z" transform="matrix(.107 .009 -.012 .137 379.151 192.906)" stroke-width="1.603" fill="#006700"/><path d="M320.26 487.2c0 59.825-11.597 108.32-25.903 108.32s-25.903-48.498-25.903-108.32c0-59.825 11.597-108.32 25.903-108.32s25.903 48.498 25.903 108.32z" transform="matrix(.058 .133 -.107 .094 438.99 209.62)" stroke-width="1.603" fill="#006700"/><path d="M490.58 234.24c0 .846-.823 1.53-1.837 1.53s-1.838-.684-1.838-1.53.823-1.53 1.838-1.53 1.837.684 1.837 1.53z" transform="matrix(.361 -.518 .683 .368 15.637 345.553)" stroke-width=".332" fill="#f00"/><path d="M490.58 234.24c0 .846-.823 1.53-1.837 1.53s-1.838-.684-1.838-1.53.823-1.53 1.838-1.53 1.837.684 1.837 1.53z" transform="matrix(.361 -.518 .683 .368 13.163 350.042)" stroke-width=".332" fill="#f00"/><path d="M320.26 487.2c0 59.825-11.597 108.32-25.903 108.32s-25.903-48.498-25.903-108.32c0-59.825 11.597-108.32 25.903-108.32s25.903 48.498 25.903 108.32z" transform="matrix(.084 .104 -.092 .12 420.599 202.886)" stroke-width="1.603" fill="#006700"/><path d="M320.26 487.2c0 59.825-11.597 108.32-25.903 108.32s-25.903-48.498-25.903-108.32c0-59.825 11.597-108.32 25.903-108.32s25.903 48.498 25.903 108.32z" transform="matrix(.132 -.051 .011 .145 345.163 232.703)" stroke-width="1.603" fill="#006700"/><path d="M320.26 487.2c0 59.825-11.597 108.32-25.903 108.32s-25.903-48.498-25.903-108.32c0-59.825 11.597-108.32 25.903-108.32s25.903 48.498 25.903 108.32z" transform="matrix(.128 .006 -.03 .152 370.202 210.779)" stroke-width="1.603" fill="#006700"/><path d="M320.26 487.2c0 59.825-11.597 108.32-25.903 108.32s-25.903-48.498-25.903-108.32c0-59.825 11.597-108.32 25.903-108.32s25.903 48.498 25.903 108.32z" transform="matrix(.116 .049 -.058 .146 391.326 203.947)" stroke-width="1.603" fill="#006700"/><path d="M320.26 487.2c0 59.825-11.597 108.32-25.903 108.32s-25.903-48.498-25.903-108.32c0-59.825 11.597-108.32 25.903-108.32s25.903 48.498 25.903 108.32z" transform="matrix(-.016 .16 -.154 .026 464.053 261.385)" stroke-width="1.603" fill="#006700"/><path d="M490.58 234.24c0 .846-.823 1.53-1.837 1.53s-1.838-.684-1.838-1.53.823-1.53 1.838-1.53 1.837.684 1.837 1.53z" transform="matrix(.556 .73 -.912 .683 335.771 -210.133)" stroke-width=".332" fill="#f00"/><path d="M490.58 234.24c0 .846-.823 1.53-1.837 1.53s-1.838-.684-1.838-1.53.823-1.53 1.838-1.53 1.837.684 1.837 1.53z" transform="matrix(.556 .73 -.912 .683 330.588 -215.598)" stroke-width=".332" fill="#f00"/><path d="M320.26 487.2c0 59.825-11.597 108.32-25.903 108.32s-25.903-48.498-25.903-108.32c0-59.825 11.597-108.32 25.903-108.32s25.903 48.498 25.903 108.32z" transform="matrix(.026 .149 -.153 .06 449.909 244.11)" stroke-width="1.603" fill="#006700"/><path d="M320.26 487.2c0 59.825-11.597 108.32-25.903 108.32s-25.903-48.498-25.903-108.32c0-59.825 11.597-108.32 25.903-108.32s25.903 48.498 25.903 108.32z" transform="matrix(.154 .029 -.068 .144 361.167 227.908)" stroke-width="1.603" fill="#006700"/><path d="M320.26 487.2c0 59.825-11.597 108.32-25.903 108.32s-25.903-48.498-25.903-108.32c0-59.825 11.597-108.32 25.903-108.32s25.903 48.498 25.903 108.32z" transform="matrix(.121 .082 -.11 .127 397.05 221.845)" stroke-width="1.603" fill="#006700"/><path d="M320.26 487.2c0 59.825-11.597 108.32-25.903 108.32s-25.903-48.498-25.903-108.32c0-59.825 11.597-108.32 25.903-108.32s25.903 48.498 25.903 108.32z" transform="matrix(.085 .115 -.134 .105 421.092 227.835)" stroke-width="1.603" fill="#006700"/><g stroke-width="1.603" fill="#006700"><path d="M356.762 340.423c-9.463.135-17.124-2.01-17.11-4.79s7.692-5.146 17.155-5.28c9.463-.136 17.124 2.01 17.112 4.79s-7.695 5.144-17.158 5.28z"/><path d="M354.742 324.8c-5.993 7.932-12.482 12.962-14.493 11.236s1.216-9.554 7.21-17.484c5.992-7.93 12.48-12.96 14.492-11.236s-1.216 9.554-7.21 17.485z"/><path d="M357.133 332.758c-8.787 3.876-16.686 4.934-17.64 2.364s5.39-7.795 14.178-11.67 16.686-4.934 17.642-2.364-5.392 7.795-14.18 11.67z"/></g><g stroke-width="1.603" fill="#006700"><path d="M361.41 180.44c4.325 4.01 6.926 7.764 5.81 8.385s-5.53-2.127-9.857-6.138c-4.326-4.01-6.927-7.765-5.81-8.385s5.53 2.127 9.856 6.137z"/><path d="M356.405 185.178c5.904.81 10.87 2.475 11.093 3.716s-4.38 1.59-10.283.78c-5.903-.812-10.87-2.476-11.093-3.717s4.38-1.59 10.283-.78z"/><path d="M358.518 182.094c5.542 2.884 9.552 6.017 8.956 6.997s-5.572-.56-11.114-3.445c-5.543-2.884-9.553-6.016-8.957-6.997s5.572.562 11.115 3.446z"/></g><path d="M490.58 234.24c0 .846-.823 1.53-1.837 1.53s-1.838-.684-1.838-1.53.823-1.53 1.838-1.53 1.837.684 1.837 1.53z" transform="matrix(.923 0 0 1.133 -41.555 -17.156)" stroke-width=".332" fill="#f00"/><path d="M490.58 234.24c0 .846-.823 1.53-1.837 1.53s-1.838-.684-1.838-1.53.823-1.53 1.838-1.53 1.837.684 1.837 1.53z" transform="matrix(.923 0 0 1.133 -49.089 -16.363)" stroke-width=".332" fill="#f00"/><path d="M490.58 234.24c0 .846-.823 1.53-1.837 1.53s-1.838-.684-1.838-1.53.823-1.53 1.838-1.53 1.837.684 1.837 1.53z" transform="matrix(.799 .459 -.572 .981 149.25 -175.216)" stroke-width=".332" fill="#f00"/><path d="M490.58 234.24c0 .846-.823 1.53-1.837 1.53s-1.838-.684-1.838-1.53.823-1.53 1.838-1.53 1.837.684 1.837 1.53z" transform="matrix(.799 .459 -.572 .981 142.332 -178.266)" stroke-width=".332" fill="#f00"/><path d="M490.58 234.24c0 .846-.823 1.53-1.837 1.53s-1.838-.684-1.838-1.53.823-1.53 1.838-1.53 1.837.684 1.837 1.53z" transform="matrix(.496 -.393 .547 .548 -1.498 251.113)" stroke-width=".332" fill="#f00"/><path d="M490.58 234.24c0 .846-.823 1.53-1.837 1.53s-1.838-.684-1.838-1.53.823-1.53 1.838-1.53 1.837.684 1.837 1.53z" transform="matrix(.496 -.393 .547 .548 -5.167 254.699)" stroke-width=".332" fill="#f00"/></g><g stroke-width=".235" fill="#5387f4"><path d="M317.866 342.768l.045 6.41c12.58-.63 6.485 8.504 8.66 13.68l2.78-3.446 3.845 3.417c-.308-5.984 3.386-21.206-15.33-20.063z"/><path d="M322.358 343.031l-.045 6.41c-12.58-.63-6.484 8.506-8.66 13.682l-2.778-3.446-3.846 3.417c.307-5.983-3.387-21.205 15.328-20.062z"/><g><path d="M345.245 332.847c-.677 2.254-6.694 12.187-8.39 14.443-1.642 1.812-4.15 7.09-15.382 2.198-5.393-2.348-1.83-7.076-1.59-6.96.24.118 1.21 2.948 4.308 2.106 3.098-.84 9.064-19.4 12.296-20.482 3.557-1.19 10.218 7.027 8.76 8.695z"/><path d="M345.245 332.847c-2.13-1.4-3.092-2.506-4.893-.33-7.21 8.803-6.703 19.97-18.88 16.97-5.72-1.38-1.828-7.075-1.588-6.958.24.116 1.21 2.946 4.307 2.104 3.098-.84 9.064-19.4 12.296-20.482 3.557-1.19 10.218 7.027 8.76 8.695z"/></g><g><path d="M296.97 332.847c.677 2.254 6.694 12.187 8.39 14.443 1.642 1.812 4.15 7.09 15.382 2.198 5.393-2.348 1.83-7.076 1.59-6.96-.24.118-1.21 2.948-4.308 2.106-3.097-.84-9.063-19.4-12.295-20.482-3.558-1.19-10.22 7.027-8.76 8.695z"/><path d="M296.97 332.847c2.13-1.4 3.092-2.506 4.893-.33 7.21 8.803 6.703 19.97 18.88 16.97 5.72-1.38 1.828-7.075 1.588-6.958-.238.116-1.208 2.946-4.306 2.104-3.097-.84-9.063-19.4-12.295-20.482-3.558-1.19-10.22 7.027-8.76 8.695z"/></g><path d="M317.59 342.23l-.222 8.26 6.26-.046.754-8.213h-6.792z"/></g></g><path d="M409.69 276.93s-14.322 12.064-14.322 20.725c.306 3.457 3.17 6.98 8.407 9.52-2.418-3.586-2.747-6.52-2.747-9.93.306-5.86 8.46-12.932 8.46-12.932l.202-7.383z" fill-rule="evenodd" transform="matrix(-.916 0 0 .922 694.242 21.543)" stroke="#000" stroke-width=".235" fill="#5387f4"/><g stroke="#000" fill-rule="evenodd"><path transform="matrix(.001 -1.314 -1.099 -.167 -146.59 388.331)" stroke-width=".176" fill="#ffd200" d="M172.65-427.57h49.93v2.055h-49.93z"/><path d="M283.46-389.76l-17.717 70.866 17.717 25.037 17.716-25.037-17.716-70.866z" transform="matrix(-.192 -.037 -.002 .205 376.222 239.842)" stroke-width="1.066" fill="#ffd200"/><path d="M368.98-419.45s-40.71-27.717-40.71.866c0 28.582 39.844.866 40.71-.866zm-7.795-.18s-28.583-19.343-28.583.603c0 19.945 27.975.604 28.583-.604z" transform="matrix(-.149 -.012 .005 .106 378.512 217.428)" stroke-width="1.685"/><path d="M368.98-419.45s-40.71-27.717-40.71.866c0 28.582 39.844.866 40.71-.866zm-7.795-.18s-28.583-19.343-28.583.603c0 19.945 27.975.604 28.583-.604z" transform="matrix(.145 -.017 -.02 -.106 260.693 130.507)" stroke-width="1.685"/><path d="M422.29-165.7l2.45-.306s1.766 2.602 3.675 6.737c1.68 4.332 3.368 11.33 4.9 27.256-4.594-.307-21.437 1.53-21.437 1.53s.236-19.168 6.125-26.028c2.757-2.906 4.593-8.575 4.287-9.188z" transform="matrix(1.108 0 0 1.314 -146.59 388.331)" stroke-width=".175" fill="#5387f4"/><path d="M422.29-165.7l2.45-.306s1.766 2.602 3.675 6.737c1.68 4.332-4.9 11.637-3.37 27.562-4.592-.307-13.167 1.225-13.167 1.225s.236-19.17 6.125-26.03c2.757-2.905 4.593-8.574 4.287-9.187z" transform="matrix(1.108 0 0 1.314 -146.59 388.331)" stroke-width=".175" fill="#fff"/><path d="M422.29-165.7l2.45-.306s-.613 7.962-2.756 11.943c-2.144 3.98-3.37 22.967-3.063 22.967.308 0-7.042.613-7.042.613s.236-19.17 6.125-26.03c2.757-2.905 4.593-8.574 4.287-9.187z" transform="matrix(1.108 0 0 1.314 -146.59 388.331)" stroke-width=".175" fill="#5387f4"/></g><path d="M409.69 276.93s-14.322 12.064-14.322 20.725c.306 3.457 3.17 6.98 8.407 9.52-2.418-3.586-2.747-6.52-2.747-9.93.306-5.86 8.46-12.932 8.46-12.932l.202-7.383z" fill-rule="evenodd" transform="matrix(.942 0 0 .898 -62.064 28.76)" stroke="#000" stroke-width=".235" fill="#5387f4"/><g stroke="#000" fill-rule="evenodd"><path d="M407.48-248.03l106.3-106.3s-27.516 220.02-88.583 265.75c0 0-53.15 24.117-53.15-.135l35.433-159.31z" transform="matrix(-.441 0 0 .321 483.497 304.2)" stroke-width=".628pt" fill="#5387f4"/><path d="M407.48-248.03l70.866-70.867s-35.433 230.31-106.3 230.31v-.135l35.433-159.31z" transform="matrix(-.441 0 0 .321 483.497 304.2)" stroke-width=".628pt" fill="#fff"/><path d="M407.48-248.03l35.433-35.434s-35.433 194.88-70.866 194.88v-.135l35.433-159.31z" transform="matrix(-.441 0 0 .321 483.497 304.2)" stroke-width=".628pt" fill="#5387f4"/><path transform="matrix(-.317 -.223 -.306 .231 483.497 400.879)" stroke-width=".816" fill="#ffd200" d="M678.85-116.49h177.17v7.323H678.85z"/><path d="M283.46-389.76l-17.717 70.866 17.717 25.037 17.716-25.037-17.716-70.866z" transform="matrix(-.197 .139 .174 .125 355.444 182.734)" stroke-width="1.729" fill="#ffd200"/><path d="M368.98-419.45s-40.71-27.717-40.71.866c0 28.582 39.844.866 40.71-.866zm-7.795-.18s-28.583-19.343-28.583.603c0 19.945 27.975.604 28.583-.604z" transform="matrix(-.171 .085 .073 .078 340.834 187.032)" stroke-width=".628pt"/><path d="M368.98-419.45s-40.71-27.717-40.71.866c0 28.582 39.844.866 40.71-.866zm-7.795-.18s-28.583-19.343-28.583.603c0 19.945 27.975.604 28.583-.604z" transform="matrix(.149 -.104 -.09 -.068 155.944 194.836)" stroke-width=".628pt"/><path d="M407.48-248.03l106.3-53.15S496.063-79.79 407.48-79.79c-53.15 0-70.866-70.866-70.866-70.866l70.866-97.378z" transform="matrix(-.441 0 0 .321 475.684 318.437)" stroke-width=".628pt" fill="#5387f4"/><path d="M407.48-248.03l70.866-35.434c0 35.434-17.716 185.96-70.866 185.96-35.433 0-70.866-53.15-70.866-53.15l70.866-97.378z" transform="matrix(-.441 0 0 .321 475.684 318.437)" stroke-width=".628pt" fill="#fff"/><path d="M407.48-248.03l35.433-17.717c0 79.662-17.716 150.53-53.15 150.53-17.716 0-53.15-35.433-53.15-35.433l70.867-97.378z" transform="matrix(-.441 0 0 .321 475.684 318.437)" stroke-width=".628pt" fill="#5387f4"/><path transform="matrix(-.395 -.143 -.197 .287 483.497 400.879)" stroke-width=".816" fill="#ffd200" d="M569.18-267.74h177.17v7.323H569.18z"/><path d="M283.46-389.76l-17.717 70.866 17.717 25.037 17.716-25.037-17.716-70.866z" transform="matrix(-.131 .176 .218 .081 344.414 193.067)" stroke-width="1.729" fill="#ffd200"/><path d="M368.98-419.45s-40.71-27.717-40.71.866c0 28.582 39.844.866 40.71-.866zm-7.795-.18s-28.583-19.343-28.583.603c0 19.945 27.975.604 28.583-.604z" transform="matrix(-.128 .118 .102 .059 332.252 200.357)" stroke-width=".628pt"/><path d="M368.98-419.45s-40.71-27.717-40.71.866c0 28.582 39.844.866 40.71-.866zm-7.795-.18s-28.583-19.343-28.583.603c0 19.945 27.975.604 28.583-.604z" transform="matrix(.099 -.132 -.114 -.045 159.115 248.215)" stroke-width=".628pt"/></g><g stroke="#000" fill-rule="evenodd"><path d="M407.48-248.03l106.3-106.3s-27.516 220.02-88.583 265.75c0 0-53.15 24.117-53.15-.135l35.433-159.31z" transform="matrix(.434 0 0 .321 162.408 304.2)" stroke-width=".628pt" fill="#5387f4"/><path d="M407.48-248.03l70.866-70.867s-35.433 230.31-106.3 230.31v-.135l35.433-159.31z" transform="matrix(.434 0 0 .321 162.408 304.2)" stroke-width=".628pt" fill="#fff"/><path d="M407.48-248.03l35.433-35.434s-35.433 194.88-70.866 194.88v-.135l35.433-159.31z" transform="matrix(.434 0 0 .321 162.408 304.2)" stroke-width=".628pt" fill="#5387f4"/><path transform="matrix(.312 -.223 .301 .231 162.408 400.879)" stroke-width=".816" fill="#ffd200" d="M678.85-116.49h177.17v7.323H678.85z"/><path d="M283.46-389.76l-17.717 70.866 17.717 25.037 17.716-25.037-17.716-70.866z" transform="matrix(.194 .139 -.171 .125 288.429 182.734)" stroke-width="1.729" fill="#ffd200"/><path d="M368.98-419.45s-40.71-27.717-40.71.866c0 28.582 39.844.866 40.71-.866zm-7.795-.18s-28.583-19.343-28.583.603c0 19.945 27.975.604 28.583-.604z" transform="matrix(.168 .085 -.072 .078 302.807 187.032)" stroke-width=".628pt"/><path d="M368.98-419.45s-40.71-27.717-40.71.866c0 28.582 39.844.866 40.71-.866zm-7.795-.18s-28.583-19.343-28.583.603c0 19.945 27.975.604 28.583-.604z" transform="matrix(-.146 -.104 .089 -.068 484.761 194.836)" stroke-width=".628pt"/><path d="M407.48-248.03l106.3-53.15S496.063-79.79 407.48-79.79c-53.15 0-70.866-70.866-70.866-70.866l70.866-97.378z" transform="matrix(.434 0 0 .321 170.097 318.437)" stroke-width=".628pt" fill="#5387f4"/><path d="M407.48-248.03l70.866-35.434c0 35.434-17.716 185.96-70.866 185.96-35.433 0-70.866-53.15-70.866-53.15l70.866-97.378z" transform="matrix(.434 0 0 .321 170.097 318.437)" stroke-width=".628pt" fill="#fff"/><path d="M407.48-248.03l35.433-17.717c0 79.662-17.716 150.53-53.15 150.53-17.716 0-53.15-35.433-53.15-35.433l70.867-97.378z" transform="matrix(.434 0 0 .321 170.097 318.437)" stroke-width=".628pt" fill="#5387f4"/><path transform="matrix(.388 -.143 .194 .287 162.408 400.879)" stroke-width=".816" fill="#ffd200" d="M569.18-267.74h177.17v7.323H569.18z"/><path d="M283.46-389.76l-17.717 70.866 17.717 25.037 17.716-25.037-17.716-70.866z" transform="matrix(.129 .176 -.214 .081 299.283 193.067)" stroke-width="1.729" fill="#ffd200"/><path d="M368.98-419.45s-40.71-27.717-40.71.866c0 28.582 39.844.866 40.71-.866zm-7.795-.18s-28.583-19.343-28.583.603c0 19.945 27.975.604 28.583-.604z" transform="matrix(.126 .118 -.101 .059 311.253 200.357)" stroke-width=".628pt"/><path d="M368.98-419.45s-40.71-27.717-40.71.866c0 28.582 39.844.866 40.71-.866zm-7.795-.18s-28.583-19.343-28.583.603c0 19.945 27.975.604 28.583-.604z" transform="matrix(-.097 -.132 .112 -.045 481.641 248.215)" stroke-width=".628pt"/></g><g stroke-linejoin="bevel" stroke="#000" stroke-width=".105"><path d="M263.52 285.47l58.643-100.025 58.64 100.024H263.52z" fill-rule="evenodd" fill="#ffd200"/><path d="M269.562 282.57l52.85-90.634 52.847 90.635H269.56z" fill-rule="evenodd" fill="#0ff"/><path d="M331.552 238.837c0 4.74-3.97 8.585-8.866 8.585-4.897 0-8.866-3.844-8.866-8.585 0-4.742 3.97-8.586 8.866-8.586 4.896 0 8.866 3.845 8.866 8.587z" fill-rule="evenodd" fill="#ffd200"/><g fill="none"><path d="M322.616 234.78l-.352-31.954"/><path d="M324.37 236.866l11.58-15.977"/><path d="M326.126 238.6l18.595-7.64"/><path d="M327.53 241.035l21.754.694"/><path d="M326.126 243.814l12.632 11.114"/><path d="M322.616 242.77v10.072"/><path d="M318.756 240.338l-16.49 14.242"/><path d="M320.512 241.38l-7.37 13.546"/><path d="M317.704 238.6l-27.368 9.38"/><path d="M317.353 237.21l-19.3-.693"/><path d="M301.913 229.223l16.843 5.557"/><path d="M309.983 214.983l10.176 19.45"/></g><g fill-rule="evenodd"><path d="M322.372 229.834c-10.56 0-18.253 1.92-24.747 4.172l1.65-2.825 1.648-2.83 1.65-2.83 1.652-2.826 1.648-2.83 1.65-2.827 1.828-2.882c2.462-2.14 7.743-3.142 13.02-3.142 5.28 0 10.562 1.058 13.202 3.194l1.65 2.83 1.65 2.826 1.65 2.83 1.65 2.826 1.65 2.83 1.65 2.83 1.647 2.826c-6.846-2.253-14.19-4.172-24.748-4.172z" fill="#c453d7"/><path d="M322.376 227.84c-10.594-.014-22.434 3.126-23.096 3.342l1.647-2.83 1.65-2.83 1.652-2.826 1.647-2.83 1.65-2.827 1.828-2.883c2.46-2.14 7.742-3.142 13.02-3.142 5.28 0 10.56 1.058 13.2 3.194l1.652 2.83 1.648 2.825 1.65 2.83 1.652 2.826 1.648 2.832 1.65 2.83s-12.54-3.342-23.1-3.342z" fill="#5000c1"/><path d="M322.372 225.58c-7.822-.034-20.47 2.105-21.36 2.507l1.562-2.57 1.65-2.826 1.65-2.83 1.65-2.825 1.827-2.882c2.462-2.14 7.743-3.142 13.02-3.142 5.28 0 10.562 1.06 13.202 3.195l1.65 2.83 1.65 2.826 1.65 2.83 1.65 2.827 1.65 2.83s-10.89-2.768-21.45-2.768z" fill="#0053d7"/><path d="M322.368 223.233c-10.37-.02-18.988 1.957-19.798 2.283l1.65-2.825 1.65-2.83 1.65-2.825 1.827-2.882c2.46-2.14 7.742-3.143 13.02-3.143 5.28 0 10.56 1.058 13.2 3.194l1.652 2.83 1.647 2.826 1.65 2.83 1.652 2.826s-9.243-2.283-19.802-2.283z" fill="#009f9f"/><path d="M322.372 221.237c-10.61-.036-17.273 1.317-18.147 1.455l1.648-2.83 1.65-2.826 1.828-2.882c2.462-2.14 7.743-3.143 13.02-3.143 5.28 0 10.562 1.06 13.202 3.195l1.65 2.83 1.65 2.826 1.65 2.832s-7.59-1.455-18.15-1.455z" fill="#ff0"/><path d="M322.28 218.63c-9.24-.2-16.027 1.253-16.41 1.23l1.65-2.827 1.828-2.882c2.462-2.14 7.742-3.14 13.02-3.14 5.28 0 10.56 1.057 13.2 3.192l1.652 2.83 1.648 2.827s-6.028-1.23-16.587-1.23z" fill="#f50"/><path d="M322.625 215.596c-9.276.076-14.08 1.28-15.11 1.443l1.826-2.883c2.463-2.14 7.743-3.142 13.02-3.142 5.28 0 10.562 1.057 13.202 3.193l1.65 2.83s-4.028-1.442-14.587-1.442z" fill="#ff0b00"/></g><path d="M269.562 282.57l14.864-25.492h75.968l14.865 25.493H269.56z" fill-rule="evenodd" fill="#4363ff"/><path d="M319.627 237.398c.082 0 .146-.288.355-.543.447-.248.918-.443 1.538-.545.335-.128 1.02-.09 1.538-.09.726.05.772.287 1.184.635.18.282.61.675.828 1.087.236.22.424.56.592.816.172.278.355.697.592 1.088.12.435.236.775.236 1.27 0 .516-.11.736-.236 1.088-.36.092-1.064.136-1.42 0-.382-.262-1.038-.095-1.302-.363-.68-.072-.846-.686-1.183-.996-.238-.267-.234-.467-.475-.726-.373-.204-.424-.453-.59-.816.147-.387.404-.472.827-.634.226-.253.355-.355.355-.816-.085-.514-.327-.46-.947-.544-.766 0-1.16.06-1.893.09z" fill-rule="evenodd" fill="#f00"/><g fill-rule="evenodd" fill="#6da700"><path d="M337.89 276.617s3.38-1.318 5.06-4.203c1.683-2.886.61-7.207 1.666-7.34 1.057-.133 2.486 4.737 5.454 6.146 2.967 1.41 7.558 3.207 7.558 3.207l-19.74 2.19z"/><path d="M336.038 276.834s3.38-1.318 5.062-4.203c1.682-2.885.608-7.206 1.665-7.34 1.057-.132 2.486 4.738 5.454 6.147 2.966 1.41 7.557 3.207 7.557 3.207l-19.74 2.19z"/><path d="M331.354 278.212s4.035-1.47 6.082-4.676c2.046-3.207.847-8.003 2.104-8.153 1.257-.15 2.868 5.255 6.364 6.814 3.497 1.56 8.914 3.547 8.914 3.547l-23.464 2.468z"/><path d="M327.17 278.765s4.448-1.68 6.668-5.39c2.22-3.707.82-9.277 2.21-9.443 1.39-.167 3.255 6.113 7.15 7.94 3.898 1.83 9.927 4.167 9.927 4.167l-25.955 2.725z"/><path d="M321.523 279.393s5.04-1.89 7.573-6.028c2.533-4.137.984-10.332 2.558-10.523 1.573-.192 3.643 6.79 8.04 8.808 4.395 2.02 11.2 4.595 11.2 4.595l-29.37 3.148z"/><path d="M316.976 280.11s5.34-2.105 7.973-6.76c2.63-4.653.883-11.647 2.557-11.855 1.673-.21 3.99 7.676 8.705 9.974 4.716 2.297 12.007 5.236 12.007 5.236l-31.244 3.405z"/><path d="M310.1 278.187s6.29-1.624 9.77-5.895c3.482-4.27 2.233-11.115 4.157-11.19 1.923-.075 3.723 7.667 8.838 10.224 5.115 2.558 13.09 5.923 13.09 5.923l-35.856.937z"/><path d="M306.735 278.322s6.29-1.624 9.77-5.895c3.483-4.27 2.234-11.115 4.158-11.19 1.923-.075 3.723 7.667 8.838 10.224 5.116 2.56 13.09 5.924 13.09 5.924l-35.855.938z"/><path d="M297.276 279.224s7.48-1.83 11.676-6.587c4.194-4.758 2.82-12.35 5.102-12.443 2.28-.09 4.294 8.496 10.32 11.314 6.023 2.817 15.425 6.52 15.425 6.52l-42.524 1.196z"/><path d="M289.358 280.245s8.258-2.108 12.85-7.633c4.59-5.525 2.99-14.367 5.513-14.467 2.524-.1 4.84 9.9 11.534 13.198 6.694 3.297 17.133 7.633 17.133 7.633l-47.03 1.27z"/><path d="M279.914 280.192s9.35-2.36 14.553-8.506c5.204-6.146 3.406-15.962 6.26-16.08 2.857-.115 5.466 10.986 13.04 14.633 7.572 3.646 19.384 8.438 19.384 8.438l-53.236 1.514z"/><path d="M271.482 280.517s9.927-2.638 15.4-9.55c5.47-6.915 3.447-17.98 6.486-18.105 3.04-.125 5.94 12.39 14.042 16.517 8.103 4.125 20.73 9.552 20.73 9.552l-56.66 1.585z"/></g></g><g><path d="M380.34 293.64l5.82-4.9s7.96 6.43 23.578 6.125c14.71-.283 19.906-5.513 22.05-6.126l5.817 5.205c-3.37.92-15.31 6.737-28.785 7.35-14.087-.612-26.642-5.817-28.48-7.655z" fill-rule="evenodd" transform="matrix(1.231 0 0 1.22 -183.419 -52.119)" stroke="#000" stroke-width=".235" fill="#ffc200"/><path d="M425.45 510.86v-3.4h-1.476v-.455h3.55v.454h-1.48v3.4h-.594z" stroke-width="1pt" transform="matrix(.851 -.299 .314 .87 -179.707 -8.455)"/><path d="M415.64 510.86v-3.855h3.238v.454h-2.645v1.18h2.477v.452h-2.477v1.313h2.75v.455h-3.343z" stroke-width="1pt" transform="matrix(.873 -.229 .241 .893 -152.205 -49.435)"/><path d="M409.81 510.86v-3.855h.593v3.855h-.593z" stroke-width="1pt" transform="matrix(.873 -.229 .241 .893 -152.299 -49.618)"/><path d="M406.21 510.86v-3.855h.593v3.4h2.206v.455h-2.8z" stroke-width="1pt" transform="matrix(.896 -.109 .116 .917 -97.939 -111.399)"/><path d="M399.97 510.86v-3.855h.608l2.352 3.026v-3.025h.568v3.855h-.608l-2.352-3.03v3.03h-.568z" stroke-width="1pt" transform="matrix(.902 -.023 .027 .924 -55.813 -149.158)"/><path d="M393.47 510.86v-3.855h.592v3.855h-.592z" stroke-width="1pt" transform="matrix(.897 .094 -.096 .92 8.021 -193.505)"/><path d="M388.85 510.86v-3.855h.608l2.352 3.026v-3.025h.568v3.855h-.608l-2.352-3.03v3.03h-.568z" stroke-width="1pt" transform="matrix(.886 .167 -.172 .909 51.02 -216.676)"/><path d="M387.28 507.01h.592v2.227c0 .387-.05.695-.152.923-.103.228-.287.413-.554.557-.264.142-.613.213-1.044.213-.42 0-.763-.062-1.03-.187-.266-.124-.457-.304-.57-.54-.115-.235-.172-.558-.172-.966v-2.227h.593v2.224c0 .335.035.582.107.742.073.158.197.28.373.365s.392.13.647.13c.436 0 .746-.085.932-.255.185-.17.278-.497.278-.98v-2.225z" stroke-width="1pt" transform="matrix(.873 .227 -.235 .894 88.553 -232.768)"/><path d="M378.22 509.63l.56-.042c.025.193.086.35.182.476.098.122.248.223.452.3.203.075.433.113.687.113.227 0 .427-.03.6-.087s.302-.137.385-.237c.085-.102.128-.212.128-.33 0-.122-.04-.227-.122-.317-.08-.09-.215-.167-.402-.228-.12-.04-.386-.103-.797-.187-.41-.085-.7-.166-.864-.24-.214-.097-.374-.217-.48-.36-.104-.143-.155-.303-.155-.48 0-.194.065-.376.193-.544.128-.17.315-.3.562-.387.247-.088.52-.132.822-.132.332 0 .624.046.877.14.254.09.45.225.586.404s.21.38.22.608l-.568.036c-.03-.243-.135-.427-.312-.552-.175-.124-.435-.187-.78-.187-.357 0-.62.057-.784.17-.163.113-.244.25-.244.41 0 .137.058.25.174.34.114.09.412.182.892.277.482.093.813.174.993.244.26.104.454.235.578.395.124.158.187.34.187.547 0 .205-.07.4-.205.58-.137.18-.333.323-.59.424-.254.1-.542.15-.86.15-.407 0-.747-.05-1.02-.152-.275-.102-.49-.254-.646-.458-.155-.205-.236-.436-.244-.694z" stroke-width="1pt" transform="matrix(.87 .25 -.239 .889 91.433 -239.392)"/><path d="M371.92 510.86v-3.855h.593v3.855h-.593z" stroke-width="1pt" transform="matrix(.844 .323 -.316 .866 139.836 -255.271)"/><path d="M367.3 510.86v-3.855h1.542c.35 0 .615.018.798.055.257.05.476.142.656.276.237.172.413.392.53.66.117.266.176.57.176.915 0 .294-.04.553-.12.78-.078.225-.18.413-.304.562-.125.147-.26.264-.41.35-.146.084-.325.148-.534.192-.208.044-.447.066-.718.066H367.3zm.593-.455h.956c.294 0 .525-.024.692-.07.17-.05.303-.115.404-.202.14-.12.25-.282.326-.486.08-.205.12-.453.12-.744 0-.403-.078-.713-.233-.928-.153-.217-.34-.363-.56-.437-.16-.052-.414-.08-.766-.08h-.94v2.947z" stroke-width="1pt" transform="matrix(.692 .58 -.583 .716 332.426 -273.778)"/><path d="M373.38 508.99c0-.64.2-1.14.598-1.502.4-.362.915-.544 1.546-.544.414 0 .786.085 1.118.255s.585.407.758.712c.175.303.263.648.263 1.033 0 .39-.092.74-.276 1.05-.183.308-.442.542-.778.702-.337.157-.7.236-1.09.236-.42 0-.797-.087-1.13-.263-.33-.175-.583-.415-.754-.717-.17-.304-.256-.625-.256-.963zm.61.008c0 .464.145.83.435 1.1.29.266.655.398 1.093.398.446 0 .813-.134 1.1-.404.29-.27.434-.653.434-1.15 0-.313-.062-.587-.187-.82-.122-.235-.302-.416-.54-.544-.237-.13-.503-.195-.798-.195-.42 0-.78.125-1.084.374-.3.247-.452.66-.452 1.24z" stroke-width="1pt" transform="matrix(.844 .323 -.316 .866 139.836 -254.991)"/><path d="M394.93 508.99c0-.64.2-1.14.598-1.502.4-.362.915-.544 1.546-.544.413 0 .786.085 1.118.255s.585.407.758.712c.175.303.262.648.262 1.033 0 .39-.09.74-.275 1.05-.183.308-.442.542-.78.702-.335.157-.697.236-1.086.236-.42 0-.797-.087-1.13-.263-.33-.175-.583-.415-.754-.717-.17-.304-.256-.625-.256-.963zm.61.008c0 .464.145.83.435 1.1.29.266.655.398 1.093.398.446 0 .813-.134 1.1-.404.29-.27.434-.653.434-1.15 0-.313-.063-.587-.187-.82-.122-.235-.302-.416-.54-.544-.237-.13-.503-.195-.798-.195-.42 0-.78.125-1.084.374-.302.247-.452.66-.452 1.24z" stroke-width="1pt" transform="matrix(.897 .094 -.096 .92 8.205 -193.59)"/><path d="M432.31 510.86v-3.855h1.542c.35 0 .615.018.798.055.256.05.475.142.656.276.237.172.413.392.53.66.117.266.176.57.176.915 0 .294-.04.553-.12.78s-.18.413-.305.562c-.124.147-.26.264-.41.35-.145.084-.324.148-.533.192-.208.044-.448.066-.718.066h-1.616zm.593-.455h.956c.294 0 .525-.024.692-.07.17-.05.303-.115.403-.202.14-.12.25-.282.327-.486.08-.205.12-.453.12-.744 0-.403-.078-.713-.233-.928-.154-.217-.34-.363-.56-.437-.16-.052-.415-.08-.767-.08h-.94v2.947z" stroke-width="1pt" transform="matrix(.812 -.389 .407 .831 -211.22 50.471)"/><path d="M419.8 510.86v-3.855h1.985c.4 0 .703.035.91.105.21.068.374.19.5.365.123.175.185.37.185.58 0 .275-.103.505-.308.693-.206.188-.524.307-.953.357.155.065.274.13.356.192.173.137.337.308.492.513l.78 1.05H423l-.592-.802c-.173-.232-.315-.41-.427-.532s-.212-.208-.3-.257c-.09-.05-.18-.085-.27-.104-.067-.012-.177-.018-.33-.018h-.688v1.712h-.592zm.592-2.154h1.275c.27 0 .482-.024.635-.07.152-.05.27-.128.348-.233.08-.106.12-.222.12-.347 0-.182-.08-.332-.233-.45-.153-.117-.395-.176-.727-.176h-1.418v1.276z" stroke-width="1pt" transform="matrix(.873 -.229 .241 .893 -152.017 -49.618)"/><path d="M427.64 510.86l1.72-3.855h.638l1.833 3.855h-.674l-.522-1.168h-1.873l-.49 1.168h-.63zm1.292-1.584h1.518l-.467-1.067c-.143-.325-.248-.592-.318-.8-.057.247-.137.492-.24.736l-.493 1.13z" stroke-width="1pt" transform="matrix(.836 -.336 .352 .856 -193.163 14.53)"/><path d="M411.43 510.86v-3.855h1.68c.342 0 .616.04.822.118.208.077.37.197.486.36.117.16.177.33.177.508 0 .165-.052.32-.156.466s-.262.263-.472.352c.27.07.48.185.624.35.146.165.22.36.22.584 0 .18-.045.35-.135.505-.087.154-.196.273-.327.357-.13.085-.294.148-.492.192-.195.043-.435.064-.72.064h-1.708zm.593-2.236h.968c.263 0 .452-.015.566-.044.15-.04.264-.103.34-.192.076-.09.115-.202.115-.337 0-.127-.035-.24-.106-.335-.07-.1-.173-.165-.305-.2-.133-.037-.36-.056-.682-.056h-.895v1.164zm0 1.78h1.115c.19 0 .326-.006.403-.018.137-.02.25-.056.343-.105.09-.048.167-.12.226-.212.058-.095.088-.203.088-.326 0-.144-.043-.268-.13-.374-.084-.107-.204-.18-.356-.223-.15-.044-.37-.066-.654-.066h-1.035v1.325z" stroke-width="1pt" transform="matrix(.883 -.185 .196 .904 -133.693 -72.895)"/></g><g stroke="#000" fill="#ffc200" stroke-width=".235"><path d="M371.685 353.25l6.16 14.93-2.023.794-5.433-13.17-7.532 2.963-.726-1.76 9.553-3.757z"/><path d="M404.4 330.51l10.4 9.916 3.793-3.795 1.392 1.328-9.124 9.13-1.39-1.326 3.807-3.81-10.402-9.918 1.524-1.525z"/><path d="M417.774 316.783l11.476 11.553-1.607 1.522-15.23-3.184 9.013 9.072-1.5 1.42-11.477-11.552 1.606-1.522 15.234 3.192-9.018-9.08 1.502-1.42z"/><path d="M423.64 304.537l13.89 8.667-6.422 9.807-1.64-1.022 5.247-8.012-4.254-2.655-4.913 7.505-1.63-1.017 4.914-7.504-4.727-2.95-5.452 8.326-1.637-1.022 6.627-10.12z"/><path d="M431.155 303.53l-1.64 1.506c-1.262-1.318-1.97-2.716-2.123-4.193-.153-1.468.234-2.908 1.158-4.32.958-1.46 2.042-2.462 3.25-3.003 1.21-.53 2.552-.676 4.02-.436 1.468.246 2.865.785 4.19 1.612 1.448.903 2.533 1.956 3.255 3.163.725 1.216 1.04 2.494.946 3.834-.092 1.35-.53 2.623-1.313 3.82-.89 1.358-1.99 2.277-3.303 2.76-1.314.484-2.73.508-4.25.073l.73-2.034c1.216.315 2.252.32 3.105.008.85-.308 1.574-.918 2.167-1.824.683-1.043 1-2.075.948-3.097-.056-1.018-.422-1.937-1.103-2.762-.672-.82-1.467-1.516-2.382-2.087-1.182-.737-2.323-1.213-3.426-1.432-1.1-.208-2.1-.094-3 .343-.9.44-1.62 1.07-2.163 1.897-.658 1.006-.92 2.042-.78 3.11.137 1.066.71 2.088 1.715 3.064z"/><path d="M446.06 257.77l-.462 2.15c-1.807-.374-3.208-1.124-4.2-2.25-.986-1.116-1.514-2.513-1.584-4.186-.073-1.734.227-3.16.9-4.278.68-1.11 1.695-1.98 3.04-2.605 1.346-.617 2.807-.957 4.38-1.02 1.714-.07 3.22.19 4.52.773 1.31.592 2.317 1.463 3.026 2.614.715 1.158 1.104 2.448 1.164 3.865.068 1.61-.295 2.978-1.087 4.11-.793 1.13-1.94 1.94-3.442 2.434l-.594-2.074c1.183-.42 2.035-1 2.55-1.73.518-.73.752-1.634.707-2.708-.052-1.236-.4-2.26-1.04-3.068-.643-.803-1.482-1.35-2.523-1.646-1.033-.296-2.092-.42-3.177-.377-1.4.057-2.616.302-3.648.74-1.025.444-1.777 1.096-2.26 1.958-.48.862-.7 1.784-.658 2.763.05 1.193.443 2.187 1.184 2.985.738.8 1.806 1.315 3.203 1.553z"/><path d="M440.41 240.04l16.45-1.005.136 2.126-16.45 1.006-.136-2.126z"/><path d="M432.555 206.674l15.83-4.492 3.324 11.18-1.87.53-2.714-9.134-4.85 1.376 2.543 8.554-1.86.527-2.54-8.553-5.39 1.53 2.82 9.49-1.866.53-3.43-11.538z"/><path d="M424.37 189.295l15.12-6.408 1.307 2.94-9.15 8.033c-.856.744-1.498 1.296-1.927 1.654.626-.065 1.55-.146 2.773-.242l12.09-.923 1.17 2.628-15.12 6.408-.836-1.884 12.652-5.363-14.56 1.07-.783-1.76 10.97-9.727-12.87 5.454-.836-1.882z"/><path d="M388.087 150.508l9.346-13.255 1.797 1.21-8.243 11.69 6.687 4.497-1.102 1.563-8.485-5.705z"/><path d="M367.414 139.79l6.932-14.602 2.03.92 2.412 15.02 5.444-11.465 1.897.858-6.933 14.604-2.03-.918-2.408-15.03-5.448 11.474-1.898-.86z"/><path d="M353.678 134.546l6.22-14.913 11.036 4.392-.734 1.76-9.018-3.588-1.905 4.567 8.444 3.36-.73 1.75-8.443-3.36-2.117 5.076 9.372 3.73-.733 1.757-11.392-4.53z"/><path d="M269.082 140.463l-10.867-13.622 2.262-.664 7.554 9.997c.61.8 1.143 1.56 1.608 2.28-.015-.913.01-1.84.073-2.773l.816-12.456 2.132-.626-1.43 17.235-2.146.63z"/><path d="M254.854 147.565l-8.075-14.036 1.9-1.043 7.122 12.38 7.078-3.884.953 1.656-8.98 4.925z"/><path d="M226.717 163.167l1.413-1.47c.622.536 1.242.884 1.86 1.04.618.15 1.315.1 2.095-.15.774-.252 1.51-.683 2.208-1.293.62-.542 1.087-1.11 1.398-1.704s.438-1.148.383-1.658c-.056-.522-.253-.968-.594-1.34-.345-.376-.757-.607-1.235-.69-.482-.09-1.07-.004-1.76.254-.442.163-1.35.606-2.72 1.33-1.373.718-2.394 1.157-3.06 1.317-.863.212-1.64.225-2.337.036-.694-.2-1.294-.574-1.8-1.126-.553-.604-.895-1.324-1.023-2.155-.132-.838.016-1.688.442-2.55.427-.863 1.053-1.656 1.882-2.38.91-.794 1.843-1.35 2.8-1.666.96-.326 1.882-.375 2.765-.143.884.23 1.663.683 2.335 1.364l-1.455 1.476c-.778-.687-1.588-1.01-2.428-.973-.835.033-1.725.46-2.67 1.286-.984.858-1.54 1.663-1.667 2.412-.128.74.035 1.357.49 1.854.395.43.877.646 1.452.647.568.004 1.646-.42 3.235-1.278 1.59-.87 2.73-1.406 3.422-1.618 1.01-.303 1.912-.355 2.71-.156.788.193 1.48.613 2.068 1.256.585.64.95 1.405 1.094 2.3.14.89.004 1.798-.41 2.73-.416.92-1.06 1.765-1.938 2.53-1.112.972-2.193 1.628-3.236 1.97-1.038.337-2.062.378-3.073.12-1.01-.268-1.89-.793-2.648-1.575z"/><path d="M215.722 186.306l-13.34-9.458 1.282-1.723 11.767 8.342 4.773-6.413 1.573 1.115-6.054 8.136z"/><path d="M207.816 200.29l-14.423-7.792 5.77-10.186 1.703.92-4.714 8.32 4.417 2.387 4.414-7.794 1.692.914-4.414 7.793 4.91 2.653 4.9-8.65 1.7.92-5.956 10.513z"/><path d="M201.38 225.43l-16.098-3.48 2.577-11.366 1.9.41-2.107 9.288 4.93 1.066 1.973-8.697 1.89.41-1.973 8.696 5.48 1.184 2.188-9.65 1.9.41-2.66 11.73z"/><path d="M196.328 277.406l-.143-2.193c1.844-.11 3.4.25 4.662 1.075 1.256.82 2.146 2.03 2.67 3.626.545 1.652.643 3.103.3 4.356-.353 1.25-1.093 2.35-2.22 3.303-1.13.945-2.444 1.655-3.942 2.125-1.635.513-3.158.656-4.57.43-1.423-.23-2.633-.808-3.63-1.734-1.006-.93-1.732-2.07-2.177-3.422-.504-1.533-.528-2.948-.074-4.244.456-1.296 1.34-2.377 2.654-3.24l1.14 1.844c-1.026.713-1.69 1.49-1.987 2.33s-.278 1.77.06 2.795c.387 1.177 1 2.073 1.84 2.686.837.605 1.796.917 2.88.93 1.076.016 2.132-.138 3.166-.463 1.336-.42 2.44-.97 3.315-1.66.867-.696 1.414-1.52 1.644-2.477.227-.957.188-1.9-.12-2.834-.372-1.137-1.023-1.994-1.955-2.572-.93-.576-2.102-.797-3.512-.662z"/><path d="M208.418 292.827l-14.775 7.138-.967-1.907 14.775-7.138.968 1.907z"/><path d="M213.642 303.53l-15.152 6.34-.86-1.958 13.367-5.59-3.2-7.287 1.788-.748 4.057 9.242z"/><path d="M212.037 330.16l-1.418-1.618 7.24-6.045c1.26-1.052 2.382-1.747 3.366-2.088s2.03-.342 3.136-.003c1.094.336 2.158 1.095 3.19 2.274 1.004 1.147 1.622 2.254 1.856 3.32.233 1.068.105 2.075-.385 3.024-.498.955-1.41 1.985-2.738 3.094l-7.24 6.045-1.42-1.62 7.233-6.037c1.09-.91 1.808-1.677 2.156-2.305.336-.628.436-1.298.296-2.01-.144-.717-.52-1.422-1.13-2.117-1.042-1.19-2.06-1.81-3.057-1.853s-2.28.59-3.854 1.904l-7.233 6.037z"/><path d="M252.465 345.168l-10.222 12.627-9.347-7.223 1.206-1.49 7.637 5.9 3.13-3.867-7.152-5.527 1.2-1.482 7.15 5.527 3.48-4.298-7.935-6.133 1.205-1.49 9.647 7.456z"/><path d="M388.14 343.406l3.02 16.99-2.018 1.18L374.9 351.13l2.133-1.243 4.208 3.223 5.917-3.452-1.005-5.092 1.988-1.16zm-.612 8.057l-4.796 2.798 3.818 2.967c1.16.9 2.08 1.66 2.756 2.28-.363-.99-.645-2.018-.852-3.083l-.926-4.96z"/><path d="M399.934 335.792l10.703 12.24-5.557 4.637c-1.116.93-2.065 1.527-2.84 1.79-.77.266-1.575.267-2.408 0-.834-.267-1.546-.737-2.134-1.41-.76-.87-1.112-1.84-1.058-2.915.055-1.077.612-2.197 1.674-3.36-.62.158-1.13.234-1.533.223-.862-.03-1.796-.19-2.798-.48l-5.094-1.512 2.086-1.74 3.886 1.163c1.126.328 2.016.56 2.67.686.655.13 1.175.167 1.563.114.38-.05.726-.15 1.037-.303.223-.117.547-.355.974-.712l1.923-1.604-4.752-5.434 1.66-1.384zm4.32 8.223l-3.564 2.973c-.758.633-1.286 1.2-1.58 1.708-.293.512-.404 1.03-.334 1.547.076.526.284.986.63 1.382.506.578 1.14.873 1.9.885.752.015 1.594-.364 2.522-1.138l3.967-3.31-3.54-4.047z"/><path d="M439.863 261.05l13.773 10.803-.717 2.186-17.76 1.36.758-2.31 5.34-.3 2.102-6.412-4.203-3.173.706-2.154zm4.998 6.443l-1.703 5.198 4.873-.238c1.482-.075 2.685-.098 3.612-.07-.943-.51-1.85-1.097-2.727-1.764l-4.054-3.125z"/><path d="M437.6 221.237l16.414-1.47.667 7.11c.135 1.428.086 2.528-.142 3.297-.22.77-.685 1.41-1.39 1.92-.704.512-1.51.81-2.41.89-1.167.105-2.182-.177-3.05-.84-.867-.666-1.482-1.757-1.842-3.275-.225.583-.456 1.035-.698 1.35-.523.672-1.196 1.325-2.018 1.957l-4.206 3.188-.25-2.67 3.216-2.426c.926-.71 1.633-1.286 2.117-1.733.486-.448.817-.84.997-1.18.18-.333.294-.667.346-1.003.03-.245.018-.64-.033-1.188l-.23-2.46-7.29.653-.198-2.123zm9.37 1.3l.426 4.56c.09.97.262 1.72.516 2.247.26.53.627.915 1.1 1.16.484.242.99.34 1.52.294.776-.07 1.388-.405 1.837-1.004.446-.59.615-1.48.504-2.668l-.476-5.074-5.43.486z"/><path d="M413.373 175.107l17.11-4.26 1.36 1.874-9.554 14.68-1.437-1.98 2.962-4.35-3.984-5.49-5.118 1.374-1.34-1.847zm8.272-.03l3.23 4.453 2.73-3.947c.83-1.202 1.533-2.154 2.114-2.86-.985.43-2.01.785-3.083 1.067l-4.992 1.287z"/><path d="M395.6 157.082l15.884-7.538 1.718 1.568-6.332 16.26-1.816-1.658 2.005-4.843-5.037-4.597-4.732 2.354-1.69-1.545zm8.097-1.657l4.083 3.728 1.862-4.404c.564-1.34 1.057-2.413 1.48-3.22-.875.615-1.807 1.165-2.8 1.653l-4.625 2.242z"/><path d="M325.508 129.494l1.64-16.02 7.274.708c1.463.143 2.56.398 3.29.763.733.358 1.29.924 1.67 1.696.38.774.525 1.602.435 2.483-.116 1.137-.59 2.057-1.425 2.763-.832.707-2.048 1.09-3.644 1.147.548.326.956.633 1.23.926.575.627 1.102 1.396 1.582 2.304l2.407 4.638-2.73-.266-1.83-3.544c-.536-1.022-.983-1.81-1.342-2.36-.356-.55-.69-.942-.998-1.18-.3-.234-.614-.407-.94-.52-.24-.076-.642-.14-1.2-.194l-2.52-.246-.727 7.114-2.172-.212zm3.088-8.74l4.667.456c.99.096 1.778.075 2.358-.068.582-.15 1.038-.428 1.375-.836.336-.418.53-.883.584-1.4.076-.76-.143-1.41-.66-1.953-.51-.54-1.373-.872-2.59-.99l-5.19-.506-.544 5.298z"/><path d="M306.043 120.54c.272-2.658 1.215-4.667 2.83-6.026 1.62-1.366 3.583-1.936 5.896-1.71 1.514.147 2.843.635 3.986 1.458 1.144.825 1.967 1.904 2.472 3.232.512 1.323.686 2.786.522 4.388-.166 1.625-.65 3.045-1.453 4.263-.803 1.216-1.854 2.097-3.152 2.64-1.3.535-2.66.734-4.085.596-1.545-.15-2.887-.65-4.03-1.496-1.14-.847-1.96-1.93-2.457-3.253s-.674-2.683-.53-4.09zm2.233.25c-.198 1.93.177 3.506 1.12 4.723.956 1.212 2.234 1.896 3.838 2.052 1.635.16 3.035-.272 4.2-1.29 1.176-1.02 1.87-2.56 2.08-4.622.134-1.303.022-2.46-.334-3.475-.347-1.02-.93-1.84-1.75-2.455-.81-.624-1.755-.987-2.836-1.092-1.538-.15-2.914.24-4.132 1.165-1.21.918-1.94 2.584-2.186 4.996z"/><path d="M293.423 132.163l-3.136-15.806 5.575-1.053c1.26-.238 2.234-.344 2.928-.32.968.036 1.834.264 2.596.687.994.544 1.81 1.325 2.447 2.344.645 1.013 1.106 2.223 1.385 3.63.238 1.203.306 2.293.202 3.275-.103.98-.317 1.82-.646 2.515-.33.688-.728 1.26-1.195 1.713-.462.446-1.054.83-1.776 1.152-.716.32-1.563.574-2.54.76l-5.84 1.103zm1.772-2.27l3.455-.652c1.067-.2 1.884-.456 2.448-.765.572-.308 1.004-.675 1.294-1.094.41-.59.672-1.33.786-2.217.12-.895.062-1.94-.174-3.132-.328-1.653-.86-2.868-1.593-3.646-.728-.788-1.52-1.256-2.376-1.408-.616-.107-1.562-.04-2.834.2l-3.4.642 2.395 12.076z"/><path d="M277.047 135.793l2.437-17.075 2.288-.52 10.3 14.187-2.42.55-3.002-4.323-6.714 1.523-.634 5.147-2.255.51zm3.1-7.487l5.445-1.235-2.71-3.96c-.823-1.204-1.46-2.2-1.91-2.993.033 1.053-.018 2.114-.154 3.19l-.67 5z"/><path d="M240.803 157.513l-3.73-16.854 1.967-1.258 14.673 9.863-2.08 1.33-4.34-3.053-5.77 3.686 1.218 5.047-1.937 1.238zm.274-8.074l4.677-2.988-3.94-2.81c-1.2-.854-2.15-1.575-2.85-2.168.403.976.728 1.99.98 3.047l1.133 4.92z"/><path d="M199.74 240.86l-16.415-1.487.524-5.522c.117-1.245.286-2.19.505-2.83.305-.9.77-1.65 1.4-2.245.812-.78 1.808-1.325 2.99-1.638 1.174-.32 2.493-.414 3.955-.282 1.248.113 2.34.355 3.275.728.937.37 1.7.807 2.293 1.31.585.5 1.035 1.035 1.35 1.6.31.556.52 1.22.636 1.986.115.76.127 1.626.035 2.594l-.55 5.785zm-1.734-2.298l.325-3.422c.1-1.057.078-1.894-.068-2.51-.143-.623-.382-1.13-.713-1.52-.468-.55-1.122-1.002-1.962-1.357-.846-.364-1.89-.602-3.128-.714-1.718-.156-3.06.002-4.03.472-.98.463-1.662 1.075-2.05 1.834-.277.547-.477 1.453-.596 2.712l-.32 3.368 12.542 1.136z"/><path d="M201.334 272.595l-16.913-4.963-.174-2.288 15.938-7.774.185 2.42-4.836 2.237.514 6.714 5.113 1.4.174 2.255zm-7.105-4.138l-.418-5.444-4.425 2.01c-1.345.61-2.45 1.075-3.322 1.387 1.07.13 2.138.34 3.205.636l4.96 1.41z"/><path d="M221.683 315.826l-13.52 9.21-3.54-4.954c-.72-1.01-1.158-1.91-1.314-2.705-.168-.798-.086-1.56.24-2.293.316-.734.785-1.312 1.407-1.735.578-.395 1.232-.612 1.96-.653s1.472.14 2.226.545c-.33-.96-.36-1.853-.086-2.672.27-.826.798-1.508 1.585-2.044.633-.43 1.317-.7 2.054-.81.726-.11 1.372-.072 1.943.11.568.184 1.138.513 1.708.99.558.478 1.138 1.136 1.74 1.976l3.595 5.034zm-9.086 3.593l-2.04-2.857c-.554-.775-1.002-1.294-1.348-1.56-.453-.35-.915-.532-1.388-.54-.477-.015-.952.14-1.426.462-.448.306-.766.68-.955 1.12-.192.443-.212.903-.056 1.377.15.478.564 1.192 1.242 2.14l1.885 2.64 4.087-2.783zm6.244-4.254l-2.348-3.288c-.403-.564-.708-.945-.913-1.144-.363-.352-.726-.605-1.092-.758-.365-.153-.772-.205-1.222-.157-.457.05-.9.224-1.33.517-.504.343-.852.767-1.04 1.27-.195.507-.206 1.036-.032 1.587.163.55.545 1.244 1.146 2.085l2.18 3.053 4.65-3.167z"/><path d="M240.882 336.55l-11.003 11.993-4.63-4.054c-.816-.714-1.403-1.298-1.763-1.75-.512-.626-.845-1.257-.997-1.892-.157-.628-.132-1.3.078-2.01.204-.715.58-1.37 1.125-1.966.935-1.02 2.06-1.593 3.375-1.72 1.31-.122 2.833.577 4.57 2.097l3.148 2.755 4.473-4.875 1.622 1.42zm-7.395 4.87l-3.174-2.778c-1.05-.92-1.97-1.382-2.76-1.385-.79-.005-1.505.34-2.14 1.032-.46.5-.723 1.043-.786 1.628-.073.585.05 1.12.37 1.606.206.31.68.788 1.416 1.432l3.14 2.75 3.934-4.286z"/><path d="M267.44 353.804l-8.53 13.78-6.255-3.692c-1.256-.742-2.135-1.433-2.633-2.07-.503-.63-.756-1.374-.76-2.23-.003-.858.23-1.666.7-2.423.605-.98 1.438-1.612 2.5-1.9 1.064-.288 2.328-.125 3.793.493-.348-.524-.583-.973-.7-1.35-.243-.81-.382-1.726-.414-2.746l-.132-5.2 2.348 1.387.093 3.968c.032 1.148.088 2.046.17 2.692.08.648.208 1.14.382 1.484.167.338.374.626.62.866.185.17.518.395 1 .68l2.163 1.276 3.788-6.117 1.867 1.1zm-6.633 6.596l-4.01-2.367c-.855-.504-1.573-.814-2.16-.928-.59-.11-1.126-.05-1.608.18-.488.235-.87.573-1.145 1.018-.404.652-.49 1.332-.263 2.04.222.702.855 1.363 1.9 1.98l4.464 2.634 2.82-4.557z"/></g></g></g></svg>