<svg xmlns="http://www.w3.org/2000/svg" height="480" width="640"><defs><clipPath id="a"><path fill-opacity=".67" d="M-85.333 0h682.67v512h-682.67z"/></clipPath></defs><g clip-path="url(#a)" transform="matrix(.938 0 0 .938 80 0)"><path fill-rule="evenodd" fill="#3e5eb9" d="M-128 0h768v512h-768z"/><path fill-rule="evenodd" fill="#ffd900" d="M-128 91.43h768v329.14h-768z"/><path fill-rule="evenodd" fill="#b10c0c" d="M-128 128h768v256h-768z"/><rect fill-rule="evenodd" rx="5.767" ry="5.851" height="10.971" width="621.71" stroke="#000" y="250.51" x="-51.439" stroke-width="1.474" fill="#ffd900"/><g stroke="#000" transform="matrix(1.032 0 0 1.032 -757.03 -25.6)"><path d="M-106.3 265.75l-88.583 35.433 88.583 35.433 88.582-35.433-88.582-35.433z" fill-rule="evenodd" transform="matrix(.34 0 0 .3 1256.8 136.42)" stroke-width="4.175" fill="#fff"/><rect fill-rule="evenodd" rx="4.108" ry="3.78" height="7.087" width="442.91" y="223.23" x="761.81" stroke-width="1.333" fill="#ffd900"/><path d="M1194.088 230.314c1.77 0 3.545-1.772 3.545-3.543s-1.775-3.543-3.545-3.543" stroke-width="1.667" fill="none"/><path d="M1190.588 230.314c1.77 0 3.545-1.772 3.545-3.543s-1.775-3.543-3.545-3.543" stroke-width="1.667" fill="none"/><path d="M1186.988 230.315c1.77 0 3.545-1.772 3.545-3.543s-1.775-3.544-3.545-3.544" stroke-width="1.667" fill="none"/></g><g stroke="#000" transform="matrix(1.032 0 0 1.032 -786.29 -3.657)"><path d="M-106.3 265.75l-88.583 35.433 88.583 35.433 88.582-35.433-88.582-35.433z" fill-rule="evenodd" transform="matrix(.34 0 0 .3 1256.8 136.42)" stroke-width="4.175" fill="#fff"/><rect fill-rule="evenodd" rx="4.108" ry="3.78" height="7.087" width="442.91" y="223.23" x="761.81" stroke-width="1.333" fill="#ffd900"/><path d="M1194.088 230.314c1.77 0 3.545-1.772 3.545-3.543s-1.775-3.543-3.545-3.543" stroke-width="1.667" fill="none"/><path d="M1190.588 230.314c1.77 0 3.545-1.772 3.545-3.543s-1.775-3.543-3.545-3.543" stroke-width="1.667" fill="none"/><path d="M1186.988 230.315c1.77 0 3.545-1.772 3.545-3.543s-1.775-3.544-3.545-3.544" stroke-width="1.667" fill="none"/></g><g fill-rule="evenodd"><path d="M338.07-.416c-5.57 12.442 4.275-4.138 28.3 16.69 4.45 3.87 8.34 14.09 8.34 21.178-1.13-.975-1.968-3.145-3.213-4.553-1.743 2.252 1.664 12.576 2.162 17.456-3.757-2.71-3.395-3.993-4.643-7.324.25 4.026-.645 15.116.85 19.386-2.96-1.09-2.765-4.163-4.31-4.78 1.05 4.834-.917 10.094-.395 15.528-1.73-2.208-3.573-3.937-4.376-4.83-.135 2.59-3.327 9.39-3.4 11.836-1.468-1.143-1.866-2.926-2.11-4.126-1.825 2.955-8.31 13.872-8.725 17.202-4.995-5.69-17.792-19.545-19.458-26.9-1.473 4.176-3.604 5.584-7.817 8.632-1.665-11.656-7.89-24.756-4.56-34.747-2.36 1.804-4.303 3.608-6.66 5.828C310.287 29.18 321.68 9.388 338.07-.415z" transform="matrix(.994 0 0 .771 190.372 251.967)" stroke="#000" stroke-width="1.067pt" fill="#3d5da7"/><path d="M273.5 33.156c-19.565.663-27.155-1.665-39.755-1.25-22.163.71-38.09 4.41-38.09-.415s8.006-7.076 30.18-7.076c22.175 0 27.683 1.42 47.665 8.742z" transform="matrix(-.134 .231 -.474 -.126 558.114 240.235)" stroke-width="1pt" fill="#a70000"/><path d="M273.5 33.156c-19.565.663-27.155-1.665-39.755-1.25-22.163.71-38.09 4.41-38.09-.415s8.006-7.076 30.18-7.076c22.175 0 27.683 1.42 47.665 8.742z" transform="matrix(0 .18 -.437 .04 535.819 259.48)" stroke-width="1pt" fill="#a70000"/><path d="M273.5 33.156c-19.565.663-27.155-1.665-39.755-1.25-22.163.71-38.09 4.41-38.09-.415s8.006-7.076 30.18-7.076c22.175 0 27.683 1.42 47.665 8.742z" transform="matrix(.033 .253 -.405 .105 537.509 244.213)" stroke-width="1pt" fill="#a70000"/><path d="M273.5 33.156c-19.565.663-27.155-1.665-39.755-1.25-22.163.71-38.09 4.41-38.09-.415s8.006-7.076 30.18-7.076c22.175 0 27.683 1.42 47.665 8.742z" transform="matrix(.155 .103 .218 -.272 495.932 263.672)" stroke-width="1pt" fill="#a70000"/><path d="M273.5 33.156c-19.565.663-27.155-1.665-39.755-1.25-22.163.71-38.09 4.41-38.09-.415s8.006-7.076 30.18-7.076c22.175 0 27.683 1.42 47.665 8.742z" transform="matrix(.091 .156 .39 -.164 505.65 261.811)" stroke-width="1pt" fill="#a70000"/></g><g fill-rule="evenodd"><path d="M329.6 20.703c-.272-2.662.253-2.98-1.258-4.99 2.2.998 2.284 3.65 4.96 1.768.982-.55 1.41-.568.216-3.525 2.79.14 11.927 3.535 13.39 3.614 3.842.19 10.855-4.374 15.723 1.238 4.673 5.118 3.113 10.43 3.113 17.516-1.877-.975-.973-1.455-2.965-3.99 1.494 6.196-.08 17.365-.08 23.935-.767-1.585-.654-.897-1.404-2.538-1.992 5.997-4.38 7.23-4.38 14.318-.72-2.78-.025-2.19-.825-3.653-1.937 4.552-14.926 8.443-9.92 13.033-4.52-2.87-6.5-2.57-8.55-5.15-.88.617-1.583 1.785-2.403 3.386-7.943-3.96-5.103-12.5-11.326-18.206-1.076 2.393-.585 2.045-1.75 5.94-1.26-5.41-1.603-8.845-3.02-12.82-1.223 2.203-1.113 1.36-3.333 4.69-.918-6.588-2.413-8.143-1.822-12.502-2.36 1.804-.815 1.073-3.173 3.293 2.234-16.88 11.884-29.35 18.808-25.357z" transform="matrix(1.137 0 0 1.049 -399.332 239.172)" stroke="#000" stroke-width="1.067pt" fill="#3d5da7"/><path d="M273.5 33.156c-19.565.663-27.155-1.665-39.755-1.25-22.163.71-38.09 4.41-38.09-.415s8.006-7.076 30.18-7.076c22.175 0 27.683 1.42 47.665 8.742z" transform="matrix(-.134 .286 -.462 -.163 16.298 217.013)" stroke-width="1pt" fill="#a70000"/><path d="M273.5 33.156c-19.565.663-27.155-1.665-39.755-1.25-22.163.71-38.09 4.41-38.09-.415s8.006-7.076 30.18-7.076c22.175 0 27.683 1.42 47.665 8.742z" transform="matrix(-.062 .259 -.429 -.047 4.236 234.592)" stroke-width="1pt" fill="#a70000"/><path d="M273.5 33.156c-19.565.663-27.155-1.665-39.755-1.25-22.163.71-38.09 4.41-38.09-.415s8.006-7.076 30.18-7.076c22.175 0 27.683 1.42 47.665 8.742z" transform="matrix(-.027 .254 -.41 .005 4.572 244.496)" stroke-width="1pt" fill="#a70000"/><path d="M273.5 33.156c-19.565.663-27.155-1.665-39.755-1.25-22.163.71-38.09 4.41-38.09-.415s8.006-7.076 30.18-7.076c22.175 0 27.683 1.42 47.665 8.742z" transform="matrix(.233 .209 .363 -.335 -69.703 235.561)" stroke-width="1pt" fill="#a70000"/><path d="M273.5 33.156c-19.565.663-27.155-1.665-39.755-1.25-22.163.71-38.09 4.41-38.09-.415s8.006-7.076 30.18-7.076c22.175 0 27.683 1.42 47.665 8.742z" transform="matrix(.157 .214 .377 -.216 -51.866 246.885)" stroke-width="1pt" fill="#a70000"/></g><g fill-rule="evenodd"><path d="M637.8 230.32c-53.15 59.05-124.02 177.16-265.75 177.16-124.02 0-212.6-118.11-265.75-177.16 53.15-59.06 141.73-177.17 265.75-177.17 141.73 0 212.6 118.11 265.75 177.17z" transform="matrix(.688 0 0 .619 -.011 113.355)" stroke="#000" stroke-width="2.108" fill="#fff"/><path d="M353.5 114.78c14.14 17.67 2.333 24.795 17.3 25.955 15.784 1.288 6.837 18.672 20.114 19.276 9.282.45-.927 41.653 8.01 55.248 9.1 14.174 16.724 4.153 16.884 14.393.158 10.59-24.773 9.523-25.21 42.147-.73 18.8-21.04 20.004-22.008 32.1-1.205 11.38 40.008 17.767 39.46 27.953-.566 10.155-44.502 8.565-46.415 20.146-.98 10.402 60.36 18.928 65.29 49.013-9.152 3.325-35.193 6.456-54.876 6.473-124.01.11-212.6-118.11-265.75-177.16 53.15-59.06 141.73-177.17 265.75-177.17 0 0-36.814 37.374-18.55 61.627z" transform="matrix(.688 0 0 .619 -.011 113.355)" stroke-width="1pt"/><g stroke-width="1pt" fill="#fff"><path d="M141.342 216.99h8.858v29.23h-8.858z"/><path d="M141.342 265.71h8.858v29.232h-8.858z"/><path d="M159.057 216.99h8.858v29.23h-8.858z"/><path d="M159.057 265.71h8.858v29.232h-8.858z"/><path d="M176.772 216.99h8.858v29.23h-8.858z"/><path d="M176.772 265.71h8.858v29.232h-8.858z"/><path d="M194.492 216.99h8.858v29.23h-8.858z"/><path d="M194.492 265.71h8.858v29.232h-8.858z"/><path d="M212.207 216.99h8.858v29.23h-8.858z"/><path d="M212.207 265.71h8.858v29.232h-8.858z"/><path d="M229.922 216.99h8.858v29.23h-8.858z"/><path d="M229.922 265.71h8.858v29.232h-8.858z"/></g><g stroke-width="1pt"><path d="M275.433 216.99h8.858v29.23h-8.857z"/><path d="M275.433 265.71h8.858v29.232h-8.857z"/><path d="M293.148 216.99h8.858v29.23h-8.858z"/><path d="M293.148 265.71h8.858v29.232h-8.858z"/><path d="M310.863 216.99h8.858v29.23h-8.857z"/><path d="M310.863 265.71h8.858v29.232h-8.857z"/><path d="M328.583 216.99h8.858v29.23h-8.857z"/><path d="M328.583 265.71h8.858v29.232h-8.857z"/><path d="M346.298 216.99h8.858v29.23h-8.858z"/><path d="M346.298 265.71h8.858v29.232h-8.858z"/><path d="M364.013 216.99h8.86v29.23h-8.86z"/><path d="M364.013 265.71h8.86v29.232h-8.86z"/></g></g><g fill-rule="evenodd"><path d="M338.07-.416c-5.57 12.442 9.754-4.138 33.778 16.69 4.452 3.87 10.833 19.16 10.833 26.246-5.114-1.257-14.172-7.087-14.172-7.087s10.63 12.295 10.63 26.468c-3.756-2.71-5.635-2.303-6.883-5.633 0 4.588 3.34 7.512 3.34 14.6-2.71-2.5-5.006-4.164-7.3-5.626 3.543 7.087-6.457 20.835-1.452 25.424-8.752-1.462-17.707-7.92-21.25-15.006-1.878 1.462-2.082 3.756-2.155 6.203.276.265-13.322-11.655-12.073-16.234-1.824 2.955-2.08 4.58-2.497 7.91-4.996-5.69-9.574-11.38-11.24-18.734-2.22 3.33-2.36 3.33-4.58 6.66-1.664-11.655-1.664-11.24 1.666-21.23-2.36 1.804-4.302 3.608-6.66 5.828 2.234-16.88 13.628-36.674 30.016-46.477z" transform="matrix(.909 0 0 .788 -110.558 166.096)" stroke="#000" stroke-width="1.067pt" fill="#3d5da7"/><path d="M273.5 33.156c-19.565.663-27.155-1.665-39.755-1.25-22.163.71-38.09 4.41-38.09-.415s8.006-7.076 30.18-7.076c22.175 0 27.683 1.42 47.665 8.742z" transform="matrix(-.06 .344 -.561 -.029 219.482 120.475)" stroke-width="1pt" fill="#a70000"/><path d="M273.5 33.156c-19.565.663-27.155-1.665-39.755-1.25-22.163.71-38.09 4.41-38.09-.415s8.006-7.076 30.18-7.076c22.175 0 27.683 1.42 47.665 8.742z" transform="matrix(.011 .294 -.49 .083 211.572 142.826)" stroke-width="1pt" fill="#a70000"/><path d="M273.5 33.156c-19.565.663-27.155-1.665-39.755-1.25-22.163.71-38.09 4.41-38.09-.415s8.006-7.076 30.18-7.076c22.175 0 27.683 1.42 47.665 8.742z" transform="matrix(.138 .246 .437 -.171 168.444 174.447)" stroke-width="1pt" fill="#a70000"/><path d="M273.5 33.156c-19.565.663-27.155-1.665-39.755-1.25-22.163.71-38.09 4.41-38.09-.415s8.006-7.076 30.18-7.076c22.175 0 27.683 1.42 47.665 8.742z" transform="matrix(.323 .149 .297 -.467 130.113 166.77)" stroke-width="1pt" fill="#a70000"/><path d="M273.5 33.156c-19.565.663-27.155-1.665-39.755-1.25-22.163.71-38.09 4.41-38.09-.415s8.006-7.076 30.18-7.076c22.175 0 27.683 1.42 47.665 8.742z" transform="matrix(.239 .178 .35 -.345 153.342 173.23)" stroke-width="1pt" fill="#a70000"/></g></g></svg>