<svg xmlns="http://www.w3.org/2000/svg" height="480" width="640" version="1" xmlns:xlink="http://www.w3.org/1999/xlink"><defs><linearGradient id="a"><stop stop-color="#faff00" offset="0"/><stop stop-color="#f5c402" offset="1"/></linearGradient><linearGradient id="c" y2="459.27" xlink:href="#a" gradientUnits="userSpaceOnUse" x2="123.79" gradientTransform="matrix(.751 -.024 -.046 1.422 26.394 -26.59)" y1="360.52" x1="123.79"/><linearGradient id="d" y2="459.27" xlink:href="#a" gradientUnits="userSpaceOnUse" x2="123.79" gradientTransform="matrix(.727 .001 .001 1.468 -.624 -48.245)" y1="360.52" x1="123.79"/><linearGradient id="e" y2="459.27" xlink:href="#a" gradientUnits="userSpaceOnUse" x2="123.79" gradientTransform="matrix(.751 .024 .046 1.421 -30.188 -29.545)" y1="360.52" x1="123.79"/><linearGradient id="f" y2="459.27" xlink:href="#a" gradientUnits="userSpaceOnUse" x2="123.79" gradientTransform="matrix(.775 0 -.001 1.376 -23.236 .167)" y1="360.52" x1="123.79"/><linearGradient id="g" y2="459.27" xlink:href="#a" gradientUnits="userSpaceOnUse" x2="123.79" gradientTransform="matrix(.751 -.024 -.046 1.423 -1.565 1.584)" y1="360.52" x1="123.79"/><linearGradient id="h" y2="459.27" xlink:href="#a" gradientUnits="userSpaceOnUse" x2="123.79" gradientTransform="matrix(.751 .024 .046 1.422 -1.847 -1.827)" y1="360.52" x1="123.79"/><linearGradient id="i" y2="459.27" xlink:href="#a" gradientUnits="userSpaceOnUse" x2="123.79" gradientTransform="matrix(.775 0 0 1.376 16.423 -.071)" y1="360.52" x1="123.79"/><linearGradient id="j" y2="459.27" xlink:href="#a" gradientUnits="userSpaceOnUse" x2="123.79" gradientTransform="matrix(.727 0 0 1.468 0 -8.463)" y1="360.52" x1="123.79"/><clipPath id="b"><path fill-opacity=".67" d="M0 0h640v512H0z"/></clipPath></defs><g clip-path="url(#b)" transform="scale(1 .938)"><g fill-rule="evenodd" transform="matrix(.483 0 0 .483 116.34 -61.375)"><path stroke-width="1pt" fill="#fff" d="M-240.65 126.95h1587v1059h-1587z"/><path d="M101.66 488.82c9.64 18.113 21.855 33.027 30.418 58.686 1.846 34.313-2.07 40.85 4.635 57.06 2.696 5.928 6.544 8.377 7.285 22.122-1.146 19.675-9.645 20.9-18 20.36-1.5-6.044-.002-9.947-10.648-20.358-5.765-6.16-12.613-16.348-16.234-29.493-1.127-12.074-1.758-27.767-7.786-40.892-8.675-14.17-9.97-21.07-18.21-28.49-8.487-9.874-8.003-13.337-12.65-24.095 11.39-18.45 22.186-20.33 41.19-14.9z" fill-opacity=".561" transform="matrix(-.71 .704 -.704 -.71 390.96 688.93)" stroke="#cbaa19" stroke-width="3.228" fill="url(#c)"/><path d="M101.66 488.82c9.64 18.113 21.855 33.027 30.418 58.686 1.846 34.313-2.07 40.85 4.635 57.06 2.696 5.928 6.544 8.377 7.285 22.122-1.146 19.675-9.645 20.9-18 20.36-1.5-6.044-.002-9.947-10.648-20.358-5.765-6.16-12.613-16.348-16.234-29.493-1.127-12.074-1.758-27.767-7.786-40.892-8.675-14.17-9.97-21.07-18.21-28.49-8.487-9.874-8.003-13.337-12.65-24.095 11.39-18.45 22.186-20.33 41.19-14.9z" fill-opacity=".561" transform="matrix(-1 -.013 .013 -1 101.58 850.68)" stroke="#cbaa19" stroke-width="3.228" fill="url(#d)"/><path d="M101.66 488.82c9.64 18.113 21.855 33.027 30.418 58.686 1.846 34.313-2.07 40.85 4.635 57.06 2.696 5.928 6.544 8.377 7.285 22.122-1.146 19.675-9.645 20.9-18 20.36-1.5-6.044-.002-9.947-10.648-20.358-5.765-6.16-12.613-16.348-16.234-29.493-1.127-12.074-1.758-27.767-7.786-40.892-8.675-14.17-9.97-21.07-18.21-28.49-8.487-9.874-8.003-13.337-12.65-24.095 11.39-18.45 22.186-20.33 41.19-14.9z" fill-opacity=".561" transform="matrix(-.699 -.715 .715 -.699 -212.76 760.55)" stroke="#cbaa19" stroke-width="3.228" fill="url(#e)"/><path d="M101.66 488.82c9.64 18.113 21.855 33.027 30.418 58.686 1.846 34.313-2.07 40.85 4.635 57.06 2.696 5.928 6.544 8.377 7.285 22.122-1.146 19.675-9.645 20.9-18 20.36-1.5-6.044-.002-9.947-10.648-20.358-5.765-6.16-12.613-16.348-16.234-29.493-1.127-12.074-1.758-27.767-7.786-40.892-8.675-14.17-9.97-21.07-18.21-28.49-8.487-9.874-8.003-13.337-12.65-24.095 11.39-18.45 22.186-20.33 41.19-14.9z" fill-opacity=".561" transform="matrix(.007 -1 1 .007 -371.84 475.5)" stroke="#cbaa19" stroke-width="3.228" fill="url(#f)"/><path d="M101.66 488.82c9.64 18.113 21.855 33.027 30.418 58.686 1.846 34.313-2.07 40.85 4.635 57.06 2.696 5.928 6.544 8.377 7.285 22.122-1.146 19.675-9.645 20.9-18 20.36-1.5-6.044-.002-9.947-10.648-20.358-5.765-6.16-12.613-16.348-16.234-29.493-1.127-12.074-1.758-27.767-7.786-40.892-8.675-14.17-9.97-21.07-18.21-28.49-8.487-9.874-8.003-13.337-12.65-24.095 11.39-18.45 22.186-20.33 41.19-14.9z" fill-opacity=".561" transform="matrix(.711 -.703 .703 .711 -283.29 160.35)" stroke="#cbaa19" stroke-width="3.228" fill="url(#g)"/><path d="M101.66 488.82c9.64 18.113 21.855 33.027 30.418 58.686 1.846 34.313-2.07 40.85 4.635 57.06 2.696 5.928 6.544 8.377 7.285 22.122-1.146 19.675-9.645 20.9-18 20.36-1.5-6.044-.002-9.947-10.648-20.358-5.765-6.16-12.613-16.348-16.234-29.493-1.127-12.074-1.758-27.767-7.786-40.892-8.675-14.17-9.97-21.07-18.21-28.49-8.487-9.874-8.003-13.337-12.65-24.095 11.39-18.45 22.186-20.33 41.19-14.9z" fill-opacity=".561" transform="matrix(.703 .711 -.711 .703 317.95 87.982)" stroke="#cbaa19" stroke-width="3.228" fill="url(#h)"/><path d="M101.66 488.82c9.64 18.113 21.855 33.027 30.418 58.686 1.846 34.313-2.07 40.85 4.635 57.06 2.696 5.928 6.544 8.377 7.285 22.122-1.146 19.675-9.645 20.9-18 20.36-1.5-6.044-.002-9.947-10.648-20.358-5.765-6.16-12.613-16.348-16.234-29.493-1.127-12.074-1.758-27.767-7.786-40.892-8.675-14.17-9.97-21.07-18.21-28.49-8.487-9.874-8.003-13.337-12.65-24.095 11.39-18.45 22.186-20.33 41.19-14.9z" fill-opacity=".561" transform="matrix(-.004 1 -1 -.004 478.78 373.3)" stroke="#cbaa19" stroke-width="3.228" fill="url(#i)"/><path stroke-width="1pt" fill="#002993" d="M345.13 247.98h1001.2V368.5H345.13z"/><path stroke-width="1pt" fill="#002993" d="M345.13 482.62h1001.2v120.52H345.13z"/><path d="M101.66 488.82c9.64 18.113 21.855 33.027 30.418 58.686 1.846 34.313-2.07 40.85 4.635 57.06 2.696 5.928 6.544 8.377 7.285 22.122-1.146 19.675-9.645 20.9-18 20.36-1.5-6.044-.002-9.947-10.648-20.358-5.765-6.16-12.613-16.348-16.234-29.493-1.127-12.074-1.758-27.767-7.786-40.892-8.675-14.17-9.97-21.07-18.21-28.49-8.487-9.874-8.003-13.337-12.65-24.095 11.39-18.45 22.186-20.33 41.19-14.9z" fill-opacity=".561" stroke="#cbaa19" stroke-width="3.228" fill="url(#j)"/><path stroke-width="1pt" fill="#002993" d="M-240.65 714.54h1587v120.52h-1587z"/><path stroke-width="1pt" fill="#002993" d="M-240.65 947.82h1587v120.52h-1587z"/><path d="M82.66 496.87L53.54 656.23V496.87h29.12z" stroke="#cbaa19" stroke-linecap="round" stroke-width="3.228" fill="#faff00"/><path d="M24.42 496.87l29.12 159.36V496.87H24.42z" stroke="#cbaa19" stroke-width="3.228" fill="#f5c402"/><path d="M124.995 455.1l92.338 133.105-112.89-112.478 20.552-20.628z" stroke="#cbaa19" stroke-linecap="round" stroke-width="3.228" fill="#faff00"/><path d="M83.89 496.356l133.444 91.85-112.89-112.478-20.554 20.628z" stroke="#cbaa19" stroke-width="3.228" fill="#f5c402"/><path d="M125.34 395.752l159.417 28.812-159.36.307-.056-29.118z" stroke="#cbaa19" stroke-linecap="round" stroke-width="3.228" fill="#faff00"/><path d="M125.46 453.992l159.303-29.426-159.36.307.056 29.12z" stroke="#cbaa19" stroke-width="3.228" fill="#f5c402"/><path d="M83.925 353.68l133.49-91.78-112.948 112.42-20.542-20.64z" stroke="#cbaa19" stroke-linecap="round" stroke-width="3.228" fill="#faff00"/><path d="M125.008 394.955l92.408-133.058-112.95 112.42 20.542 20.638z" stroke="#cbaa19" stroke-width="3.228" fill="#f5c402"/><path d="M24.278 353.212l28.808-159.417.31 159.36-29.118.057z" stroke="#cbaa19" stroke-linecap="round" stroke-width="3.228" fill="#faff00"/><path d="M82.52 353.098L53.09 193.795l.31 159.36 29.12-.057z" stroke="#cbaa19" stroke-width="3.228" fill="#f5c402"/><path d="M-17.922 394.924l-92.345-133.1L2.63 374.293l-20.552 20.63z" stroke="#cbaa19" stroke-linecap="round" stroke-width="3.228" fill="#faff00"/><path d="M23.186 353.664l-133.448-91.842L2.635 374.292l20.55-20.628z" stroke="#cbaa19" stroke-width="3.228" fill="#f5c402"/><path d="M-17.996 454.92l-159.673-27.356 159.352-1.762.322 29.117z" stroke="#cbaa19" stroke-linecap="round" stroke-width="3.228" fill="#faff00"/><path d="M-18.634 396.69l-159.03 30.878 159.352-1.762-.322-29.117z" stroke="#cbaa19" stroke-width="3.228" fill="#f5c402"/><path d="M23.85 496.635l-132.585 93.084L3.107 476.197l20.743 20.437z" stroke="#cbaa19" stroke-linecap="round" stroke-width="3.228" fill="#faff00"/><path d="M-17.636 455.763l-91.1 133.956L3.108 476.2l-20.743-20.437z" stroke="#cbaa19" stroke-width="3.228" fill="#f5c402"/><ellipse fill="#faff00" transform="translate(.956 2.868)" cx="52.585" rx="82.224" cy="422.29" ry="81.268" stroke="#cbaa19" stroke-width="3.228"/></g></g></svg>