<svg xmlns="http://www.w3.org/2000/svg" height="480" width="640"><defs><clipPath id="a"><path fill-opacity=".67" d="M0 0h682.67v512H0z"/></clipPath></defs><g clip-path="url(#a)" transform="scale(.938 .938)"><g fill-rule="evenodd"><path d="M0 0l347.415 219.424h420.56v73.142h-420.56L0 511.98V-.003z"/><path d="M0 493.705l354.733-226.732h413.242v-21.94H354.733L0 18.29V51.2l332.79 204.79L0 460.787V493.7z" fill="#ff0"/><path d="M0 511.984l354.733-226.732h413.242v226.732H0z" fill="#40aa40"/><path d="M0 0l354.733 226.732h413.242V0H0z" stroke-width="1.032pt" fill="#ce0000"/><path d="M96.033 266.763c1.234.274 1.56.63 2.785-1.162.263-.9 1.03-2.16 1.7-3.28.893-1.462 1.285-2.05 2.125-.932.543.638 2.708-.53 3.605.088 1.386.925.552.79 1.69-.205.875-1.856.106-1.638-1.125-2.487-.864-.595-3.072.623-3.935.028.303-1.856.895-2.054 1.965-2.412.808.558 3.166-.415 3.895-.397 1.03.218 1.944.335 2.27-1.174.51-1.07.287-.33-.12-1.11-.864-.595-3.072.622-3.935.027-1.122-.852-.937-1.168-.28-2.59.878-.48 1.53-.245 2.615.433 1.116.77 2.875-.716 3.855-.768.882-1 1.92-1.33 1.265-2.552-.366-.928-.642-1.034-1.85-1.275-1.235-.85-2.846.698-3.315-.572.98-1.4 1.347-1.1 2.535-.307.763.265 3.075-1.097 3.815-1.137 1.1-.315.566.92 1.345-1.812-.27-1.186-2.26.722-3.38.41-1.078.142-1.935-.242-2.035-1.402.017-1.56.79-1.664 1.9-1.43.976.177 3.18-1.03 4-1.01 1.165.623 1.535.392 2.455-1.047.678-1.7-.074-.998-1.23-1.874-.864-.595-3.072.622-3.935.027.152-.628.425-1.392 1.015-1.697.85.17 1.584.133 2.655.802 1.053.464 2.79-1.567 3.695-2.247-.17-.97-1.897.406-2.945-.317-.665-.458-1.497-.938-1.705-1.517.597-1.698.306-1.614 1.94-1.06.87-.224 2.343-.208 1.345-1.813-.16-.26-1.02-.17-1.77-.535-.906-.624-1.776-1.252-2.735-1.542-.692-.11-1.698-.335-2.245-.178-.06 1.01.194 1.65.135 2.833.45.738 1.302.757 1.48 1.02-.907.794-1.396.385-2.35.436-1.137-.784-.483-3.2-1.825-2.628.308.712.194 3.397.77 3.955.607.42 1.38.827 1.52 1.39-.97 1.485-1.335 1.4-2.495.678-.97-.668-.663-2.85-1.495-2.742-1.023.77-1.04.734-.83 1.825.053 1.427-.518 3.41.625 4.198 1.374.98 1.55.864.465 2.718-.747.903-1.166.736-2.02.32-.92-.634-.72-2.96-1.43-3.725-1.348-.81-.567-.777-1.69.205-.35 1.263-.097 1.597.465 2.718.456.696.425 3.07 1.205 3.227 1.258.724 1.302.58-.13 1.965-1.125.042-1.61.348-2.47-.675-1.046-.792-.39-3.222-1.72-3.24-1.232.098-1.5.13-1.345 1.813.21 1.482-.34 3.81.85 4.695 1.114.513 1.79.48 2.18 1.16-.348.305-1.003 1.245-1.385 1.443-.78.054-1.587-.488-2.47-.675-1.052-.486-.575-1.423-1.415-2.002-.973.312-.99-1.046-1.505.332.198 1.134-.187 2.61.875 3.343.863.596 1.62 1.803 2.485 2.398.99 1.175.6 1.378-.01 3.075-.827.02-1.796-.552-2.695-1.172-.864-.594-.712-2.887-1.575-3.482-.747-.737-.53-1.362-1.69.205-.11 1.114.097 1.195.385 1.978.032 1.14-.275 3.236.77 3.956 1.056.215 2.195.77 3.025 1.057.795.934.102.75-.79 2.195-.562 1.447-.568 1.704-1.45 2.425-.766 1.017-1.07 1.464-.38 2.82z" fill="#ff0"/><path d="M121.027 267.788c.74-1.197 1.193-1.4.035-3.41-.722-.638-1.574-1.952-2.335-3.105-.988-1.528-1.37-2.177-.015-2.62.8-.32.584-3.077 1.505-3.78 1.396-1.1.942-.27.48-1.87-1.356-1.666-1.46-.765-2.725.2-.887.677-.643 3.498-1.53 4.175-1.583-1.06-1.53-1.765-1.435-3.04.83-.634.87-3.516 1.175-4.28.606-1.003 1.075-1.925-.18-2.87-.78-.964-.19-.435-1.065-.315-.887.677-.643 3.498-1.53 4.175-1.225.848-1.44.526-2.485-.735-.093-1.12.38-1.718 1.43-2.595 1.146-.875.48-3.328.82-4.385-.568-1.33-.46-2.562-1.84-2.355-.996.018-1.2.267-1.9 1.45-1.268.968-.485 3.29-1.835 3.28-.896-1.597-.476-1.864.72-2.805.544-.703.21-3.692.465-4.49.146-1.29 1.067-.233-1.13-2.145-1.194-.19-.23 2.677-.96 3.74-.297 1.196-.987 1.95-2.09 1.595-1.423-.64-1.213-1.5-.56-2.58.548-.963.313-3.776.655-4.635 1.03-.986.966-1.47.01-3.015-1.292-1.396-.945-.32-2.205.555-.887.677-.643 3.498-1.53 4.175-.516-.41-1.108-1.005-1.155-1.75.493-.833.748-1.623 1.785-2.49.84-.93-.334-3.58-.6-4.805-.957-.206-.378 2.168-1.455 2.99-.683.52-1.452 1.21-2.065 1.2-1.32-1.308-1.358-.967-.205-2.475.14-1.01.736-2.563-1.13-2.145-.3.065-.56 1.01-1.19 1.66-.93.71-1.85 1.38-2.495 2.28-.373.69-.978 1.663-1.05 2.305.902.464 1.59.45 2.65.985.854-.183 1.208-1.077 1.52-1.16.37 1.275-.2 1.63-.53 2.66-1.168.89-3.125-.764-3.13.885.774-.044 3.19 1.147 3.93.76.623-.476 1.304-1.132 1.875-1.055.978 1.616.756 1.97-.365 2.91-.996.76-2.877-.434-3.105.49.3 1.39.262 1.393 1.345 1.605 1.33.51 2.92 1.906 4.095 1.01 1.44-1.065 1.404-1.296 2.675.59.532 1.15.214 1.526-.505 2.265-.945.72-3-.42-3.98.03-1.274 1.104-.936.29-.48 1.87 1.02.87 1.425.738 2.675.59.82-.206 2.984.773 3.435.01 1.16-1.044 1.045-1.148 1.75.92-.406 1.207-.316 1.84-1.595 2.345-1.14.79-3.11-.87-3.65.53-.397 1.342-.474 1.638 1.13 2.145 1.442.366 3.358 1.878 4.64.97.91-.976 1.147-1.702 1.925-1.845.14.49.745 1.556.775 2.04-.26.848-1.074 1.484-1.595 2.345-.862.918-1.532.04-2.395.7-.098 1.153-1.35.63-.29 1.725 1.117.24 2.32 1.237 3.41.405.887-.677 2.293-.998 3.18-1.675 1.468-.58 1.5-.087 2.815 1.235-.308.883-1.216 1.68-2.14 2.385-.887.677-2.928-.397-3.815.28-.97.497-1.458.018-.48 1.87.978.56 1.134.372 1.965.38 1.056.42 2.857 1.58 3.93.76.615-1.032 1.575-2.017 2.165-2.78 1.17-.47.728.19 1.7 1.71 1.105 1.17 1.337 1.28 1.65 2.5.63 1.215.92 1.713 2.435 1.525z" fill="#ff0"/><path d="M97.93 314.548c0-5.315-.824-10.63 0-10.63 46.772 0 58.464-31.89 58.464-53.15 0-21.26-16.247-42.52-46.77-42.52-35.08 0-46.772 20.77-46.772 42.52 0 21.26 17.54 37.205 35.08 37.205 23.385 0 29.23-5.315 46.77-26.575-5.847 26.575-35.08 37.206-46.77 37.206-23.387 0-46.772-15.945-46.772-47.835 0-26.575 17.54-53.15 58.466-53.15 35.08 0 58.463 26.576 58.463 53.15 0 37.205-29.234 63.78-70.16 63.78z" fill="#ff0"/></g></g></svg>