<svg xmlns="http://www.w3.org/2000/svg" height="480" width="640" version="1"><defs><clipPath id="a"><path fill-opacity=".67" d="M-85.01 0h682.67v512H-85.01z"/></clipPath></defs><g fill-rule="evenodd" clip-path="url(#a)" transform="matrix(.938 0 0 .938 79.696 0)"><path stroke-width="1pt" fill="#108c00" d="M-258.27 0h1027.5v512h-1027.5z"/><path stroke-width="1pt" fill="#ffd600" d="M-260 178.16H772.6v50.162H-260z"/><path stroke-width="1pt" fill="#ffd600" d="M181.08 0h48.432v512H181.08z"/><path stroke-width="1pt" d="M227.78 0h48.432v512H227.78z"/><path stroke-width="1pt" d="M-260 226.59H772.6v50.162H-260z"/><path stroke-width="1pt" fill="#fff" d="M-260 276.76H772.6v50.162H-260z"/><path stroke-width="1pt" fill="#fff" d="M276.22 0h48.432v512H276.22z"/><rect stroke-width="1pt" transform="scale(-1)" ry="137.51" width="273.75" y="-393.87" x="-394.56" height="275.03" fill="#e72910"/><g stroke-width="1pt"><path d="M250.487 136.934c0-.258 5.606-16.003 5.606-16.003l5.096 15.746s17.07.516 17.07.258-13.504 10.324-13.504 10.324 6.37 18.068 6.115 17.552c-.254-.516-14.777-10.84-14.777-10.84s-14.778 10.324-14.523 10.324 5.605-17.036 5.605-17.036l-13.25-10.067 16.562-.257z"/><g><path d="M251.236 137.703c0-.223 4.857-13.84 4.857-13.84l4.415 13.617s14.79.447 14.79.223-11.7 8.93-11.7 8.93 5.52 15.628 5.3 15.182c-.222-.447-12.805-9.377-12.805-9.377s-12.804 8.93-12.584 8.93 4.856-14.734 4.856-14.734l-11.48-8.708 14.35-.223z" fill="#ffe700"/><path d="M253.24 139.967c0-.13 2.794-7.976 2.794-7.976l2.54 7.848s8.507.257 8.507.13-6.73 5.144-6.73 5.144 3.175 9.005 3.048 8.748c-.127-.257-7.364-5.403-7.364-5.403s-7.365 5.146-7.238 5.146 2.793-8.49 2.793-8.49l-6.604-5.018 8.254-.13z" fill="#108c00"/></g></g><g stroke-width="1pt"><path d="M356.85 211.814c0-.258 5.607-16.003 5.607-16.003l5.096 15.746s17.07.516 17.07.258-13.503 10.324-13.503 10.324 6.37 18.068 6.115 17.552c-.255-.516-14.778-10.84-14.778-10.84s-14.778 10.324-14.523 10.324 5.605-17.036 5.605-17.036l-13.25-10.067 16.56-.257z"/><g><path d="M357.6 212.583c0-.223 4.857-13.84 4.857-13.84l4.415 13.617s14.79.447 14.79.223-11.7 8.93-11.7 8.93 5.52 15.628 5.3 15.182c-.222-.447-12.805-9.377-12.805-9.377s-12.804 8.93-12.584 8.93 4.857-14.734 4.857-14.734l-11.48-8.708 14.35-.223z" fill="#ffe700"/><path d="M359.604 214.847c0-.13 2.794-7.976 2.794-7.976l2.54 7.848s8.507.257 8.507.13-6.73 5.144-6.73 5.144 3.174 9.005 3.047 8.748c-.127-.257-7.364-5.403-7.364-5.403s-7.365 5.146-7.238 5.146 2.793-8.49 2.793-8.49l-6.603-5.018 8.254-.13z" fill="#108c00"/></g></g><g stroke-width="1pt"><path d="M325.85 330.664c0-.258 5.607-16.003 5.607-16.003l5.096 15.746s17.07.516 17.07.258-13.503 10.324-13.503 10.324 6.37 18.068 6.115 17.552c-.255-.516-14.778-10.84-14.778-10.84s-14.778 10.324-14.523 10.324 5.605-17.036 5.605-17.036l-13.25-10.067 16.56-.257z"/><g><path d="M326.6 331.433c0-.223 4.857-13.84 4.857-13.84l4.415 13.617s14.79.447 14.79.223-11.7 8.93-11.7 8.93 5.52 15.628 5.3 15.182c-.222-.447-12.805-9.377-12.805-9.377s-12.804 8.93-12.584 8.93 4.857-14.734 4.857-14.734l-11.48-8.708 14.35-.223z" fill="#ffe700"/><path d="M328.604 333.697c0-.13 2.794-7.976 2.794-7.976l2.54 7.848s8.507.257 8.507.13-6.73 5.144-6.73 5.144 3.174 9.005 3.047 8.748c-.127-.257-7.364-5.403-7.364-5.403s-7.365 5.146-7.238 5.146 2.793-8.49 2.793-8.49l-6.603-5.018 8.254-.13z" fill="#108c00"/></g></g><g stroke-width="1pt"><path d="M177.143 330.664c0-.258 5.606-16.003 5.606-16.003l5.095 15.746s17.07.516 17.07.258-13.503 10.324-13.503 10.324 6.37 18.068 6.115 17.552c-.255-.516-14.778-10.84-14.778-10.84s-14.78 10.324-14.524 10.324 5.605-17.036 5.605-17.036l-13.248-10.067 16.56-.257z"/><g><path d="M177.892 331.433c0-.223 4.857-13.84 4.857-13.84l4.414 13.617s14.79.447 14.79.223-11.7 8.93-11.7 8.93 5.52 15.628 5.3 15.182c-.222-.447-12.805-9.377-12.805-9.377s-12.805 8.93-12.585 8.93 4.857-14.734 4.857-14.734l-11.48-8.708 14.35-.223z" fill="#ffe700"/><path d="M179.896 333.697c0-.13 2.794-7.976 2.794-7.976l2.54 7.848s8.507.257 8.507.13-6.73 5.144-6.73 5.144 3.174 9.005 3.047 8.748c-.127-.257-7.364-5.403-7.364-5.403s-7.365 5.146-7.238 5.146 2.793-8.49 2.793-8.49l-6.603-5.018 8.254-.13z" fill="#108c00"/></g></g><g stroke-width="1pt"><path d="M149.986 208.754c0-.258 5.606-16.003 5.606-16.003l5.096 15.746s17.07.516 17.07.258-13.503 10.324-13.503 10.324 6.37 18.068 6.115 17.552c-.255-.516-14.778-10.84-14.778-10.84s-14.778 10.324-14.523 10.324 5.604-17.036 5.604-17.036l-13.25-10.067 16.562-.257z"/><g><path d="M150.735 209.523c0-.223 4.857-13.84 4.857-13.84l4.415 13.617s14.79.447 14.79.223-11.7 8.93-11.7 8.93 5.52 15.628 5.3 15.182c-.222-.447-12.805-9.377-12.805-9.377s-12.804 8.93-12.584 8.93 4.857-14.734 4.857-14.734l-11.48-8.708 14.35-.223z" fill="#ffe700"/><path d="M152.74 211.787c0-.13 2.793-7.976 2.793-7.976l2.54 7.848s8.507.257 8.507.13-6.73 5.144-6.73 5.144 3.174 9.005 3.047 8.748c-.127-.257-7.364-5.403-7.364-5.403s-7.365 5.146-7.238 5.146 2.793-8.49 2.793-8.49l-6.603-5.018 8.254-.13z" fill="#108c00"/></g></g><g stroke-width="1pt"><path d="M324.64 174.126c0 .258-5.607 16.003-5.607 16.003l-5.096-15.746s-17.07-.516-17.07-.258 13.503-10.324 13.503-10.324-6.37-18.068-6.115-17.552c.255.516 14.778 10.84 14.778 10.84s14.778-10.324 14.523-10.324-5.605 17.036-5.605 17.036l13.25 10.067-16.56.257z"/><g><path d="M323.89 173.357c0 .223-4.857 13.84-4.857 13.84l-4.415-13.617s-14.79-.447-14.79-.223 11.7-8.93 11.7-8.93-5.52-15.628-5.3-15.182c.222.447 12.805 9.377 12.805 9.377s12.804-8.93 12.584-8.93-4.857 14.734-4.857 14.734l11.48 8.708-14.35.223z" fill="#ffe700"/><path d="M321.886 171.093c0 .13-2.794 7.976-2.794 7.976l-2.54-7.848s-8.507-.257-8.507-.13 6.73-5.144 6.73-5.144-3.174-9.005-3.047-8.748c.127.257 7.364 5.403 7.364 5.403s7.365-5.146 7.238-5.146-2.793 8.49-2.793 8.49l6.603 5.018-8.254.13z" fill="#108c00"/></g></g><g stroke-width="1pt"><path d="M367.34 290.266c0 .258-5.607 16.003-5.607 16.003l-5.096-15.746s-17.07-.516-17.07-.258 13.503-10.324 13.503-10.324-6.37-18.068-6.115-17.552c.255.516 14.778 10.84 14.778 10.84s14.778-10.324 14.523-10.324-5.605 17.036-5.605 17.036l13.25 10.067-16.56.257z"/><g><path d="M366.59 289.497c0 .223-4.857 13.84-4.857 13.84l-4.415-13.617s-14.79-.447-14.79-.223 11.7-8.93 11.7-8.93-5.52-15.628-5.3-15.182c.222.447 12.805 9.377 12.805 9.377s12.804-8.93 12.584-8.93-4.857 14.734-4.857 14.734l11.48 8.708-14.35.223z" fill="#ffe700"/><path d="M364.586 287.233c0 .13-2.794 7.976-2.794 7.976l-2.54-7.848s-8.507-.257-8.507-.13 6.73-5.144 6.73-5.144-3.174-9.005-3.047-8.748c.127.257 7.364 5.403 7.364 5.403s7.365-5.146 7.238-5.146-2.793 8.49-2.793 8.49l6.603 5.018-8.254.13z" fill="#108c00"/></g></g><g stroke-width="1pt"><path d="M261.45 375.236c0 .258-5.607 16.003-5.607 16.003l-5.096-15.746s-17.07-.516-17.07-.258 13.503-10.324 13.503-10.324-6.37-18.068-6.115-17.552c.255.516 14.778 10.84 14.778 10.84s14.778-10.324 14.523-10.324-5.605 17.036-5.605 17.036l13.25 10.067-16.56.257z"/><g><path d="M260.7 374.467c0 .223-4.857 13.84-4.857 13.84l-4.415-13.617s-14.79-.447-14.79-.223 11.7-8.93 11.7-8.93-5.52-15.628-5.3-15.182c.222.447 12.805 9.377 12.805 9.377s12.804-8.93 12.584-8.93-4.857 14.734-4.857 14.734l11.48 8.708-14.35.223z" fill="#ffe700"/><path d="M258.696 372.203c0 .13-2.794 7.976-2.794 7.976l-2.54-7.848s-8.507-.257-8.507-.13 6.73-5.144 6.73-5.144-3.174-9.005-3.047-8.748c.127.257 7.364 5.403 7.364 5.403s7.365-5.146 7.238-5.146-2.793 8.49-2.793 8.49l6.603 5.018-8.254.13z" fill="#108c00"/></g></g><g stroke-width="1pt"><path d="M161.96 290.266c0 .258-5.607 16.003-5.607 16.003l-5.096-15.746s-17.07-.516-17.07-.258 13.503-10.324 13.503-10.324-6.37-18.068-6.115-17.552c.255.516 14.778 10.84 14.778 10.84s14.778-10.324 14.523-10.324-5.605 17.036-5.605 17.036l13.25 10.067-16.56.257z"/><g><path d="M161.21 289.497c0 .223-4.857 13.84-4.857 13.84l-4.415-13.617s-14.79-.447-14.79-.223 11.7-8.93 11.7-8.93-5.52-15.628-5.3-15.182c.222.447 12.805 9.377 12.805 9.377s12.804-8.93 12.584-8.93-4.857 14.734-4.857 14.734l11.48 8.708-14.35.223z" fill="#ffe700"/><path d="M159.206 287.233c0 .13-2.794 7.976-2.794 7.976l-2.54-7.848s-8.507-.257-8.507-.13 6.73-5.144 6.73-5.144-3.174-9.005-3.047-8.748c.127.257 7.364 5.403 7.364 5.403s7.365-5.146 7.238-5.146-2.793 8.49-2.793 8.49l6.603 5.018-8.254.13z" fill="#108c00"/></g></g><g stroke-width="1pt"><path d="M198.68 175.836c0 .258-5.607 16.003-5.607 16.003l-5.096-15.746s-17.07-.516-17.07-.258 13.503-10.324 13.503-10.324-6.37-18.068-6.115-17.552c.255.516 14.778 10.84 14.778 10.84s14.778-10.324 14.523-10.324-5.605 17.036-5.605 17.036l13.25 10.067-16.56.257z"/><g><path d="M197.93 175.067c0 .223-4.857 13.84-4.857 13.84l-4.415-13.617s-14.79-.447-14.79-.223 11.7-8.93 11.7-8.93-5.52-15.628-5.3-15.182c.222.447 12.805 9.377 12.805 9.377s12.804-8.93 12.584-8.93-4.857 14.734-4.857 14.734l11.48 8.708-14.35.223z" fill="#ffe700"/><path d="M195.926 172.803c0 .13-2.794 7.976-2.794 7.976l-2.54-7.848s-8.507-.257-8.507-.13 6.73-5.144 6.73-5.144-3.174-9.005-3.047-8.748c.127.257 7.364 5.403 7.364 5.403s7.365-5.146 7.238-5.146-2.793 8.49-2.793 8.49l6.603 5.018-8.254.13z" fill="#108c00"/></g></g><g transform="matrix(1.036 0 0 1.036 -250.6 359.43)"><g transform="matrix(.164 -.016 .012 .184 429.84 -215.63)" stroke="#000" stroke-width="2.5" fill="#009200"><ellipse rx="30.805" ry="189.82" transform="matrix(1.405 -.006 .008 1 -534.29 263.72)" cy="586.13" cx="680.21"/><ellipse rx="30.805" ry="189.82" transform="matrix(1.486 -.006 .009 1 -547.22 267.05)" cy="586.13" cx="680.21"/><ellipse rx="30.805" ry="189.82" transform="matrix(1.189 -.006 .007 1.105 -364.93 214.1)" cy="586.13" cx="680.21"/></g><g stroke="#000" transform="translate(72.865 -9.797)"><path d="M238.34 971.79c29.972-1.665 16.65-16.652 31.637-24.977 14.986-8.326 36.633-3.33 43.293 6.66 6.66 9.99 1.666 19.982 9.99 19.982 8.327 0 234.56-12.675 242.88-4.35 8.327 8.326 9.992 24.978 1.666 31.635-8.325 6.66-294.5 14.34-304.49 7.68-9.99-6.66-24.977-34.965-24.977-36.63z" transform="matrix(.202 .003 -.004 .214 340.86 -247.31)" stroke-width="2.505" fill="#a95600"/><path d="M529.59 405.46c0 39.983 45.562 27.88 46.81 61.25-.724 35.407-76.706 3.466-78.635-61.25 1.93-64.716 75.107-97.93 76.705-61.01 1.246 30.685-44.88 21.027-44.88 61.01z" transform="matrix(.148 .002 -.003 .115 340.42 -81.691)" stroke-width="3.853" fill="#ff0"/><path d="M529.59 405.46c0 39.983 45.562 27.88 46.81 61.25-.724 35.407-76.706 3.466-78.635-61.25 1.93-64.716 75.107-97.93 76.705-61.01 1.246 30.685-44.88 21.027-44.88 61.01z" transform="matrix(.148 .002 -.003 .115 344.42 -81.638)" stroke-width="3.853" fill="#ff0"/><path d="M529.59 405.46c0 39.983 45.562 27.88 46.81 61.25-.724 35.407-76.706 3.466-78.635-61.25 1.93-64.716 75.107-97.93 76.705-61.01 1.246 30.685-44.88 21.027-44.88 61.01z" transform="matrix(.148 .002 -.003 .115 348.71 -81.8)" stroke-width="3.853" fill="#ff0"/><path d="M529.59 405.46c0 39.983 45.562 27.88 46.81 61.25-.724 35.407-76.706 3.466-78.635-61.25 1.93-64.716 75.107-97.93 76.705-61.01 1.246 30.685-44.88 21.027-44.88 61.01z" transform="matrix(.148 .002 -.003 .115 352.71 -81.747)" stroke-width="3.853" fill="#ff0"/><ellipse rx="3.534" ry="3.403" transform="matrix(1.095 .016 -.024 1.154 -75.571 4.678)" cy="-41.086" cx="478.38" stroke-width=".399" fill="#a95600"/></g><g transform="matrix(.995 -.101 .101 .995 66.684 66.338)" stroke="#000" stroke-width="2.5" fill="#009200"><ellipse rx="20.814" ry="24.144" transform="matrix(.166 -.008 .002 .315 369.8 -361.65)" cy="905" cx="427.11"/><ellipse rx="20.814" ry="24.144" transform="matrix(.166 -.008 .002 .315 364.04 -362.7)" cy="905" cx="427.11"/><ellipse rx="20.814" ry="24.144" transform="matrix(.166 -.008 .002 .315 360.64 -370.55)" cy="905" cx="427.11"/><ellipse rx="20.814" ry="24.144" transform="matrix(.16 -.009 .002 .348 369.3 -399.35)" cy="905" cx="427.11"/><ellipse rx="20.814" ry="24.144" transform="matrix(.16 -.008 .002 .326 377.41 -379.07)" cy="905" cx="427.11"/><ellipse rx="20.814" ry="24.144" transform="matrix(.16 -.008 .002 .326 373.22 -382.21)" cy="905" cx="427.11"/><ellipse rx="20.814" ry="24.144" transform="matrix(.16 -.008 .002 .326 367.99 -386.66)" cy="905" cx="427.11"/><ellipse rx="20.814" ry="24.144" transform="matrix(.16 -.008 .002 .326 363.01 -389.54)" cy="905" cx="427.11"/></g><path d="M173.17 346.35s-54.198 64.893-21.252 208.82c33.958 144.59 178.96 189.78 178.96 189.78s26.496-47.423 1.726-164.04c-39.96-169.85-116.14-234.56-116.14-234.56H173.17z" transform="matrix(.177 .032 -.031 .182 461.79 -208.61)" stroke="#000" stroke-width="2.5" fill="#804bff"/><g transform="matrix(.997 .078 -.078 .997 60.532 -11.76)" stroke="#000" stroke-width="2.5" fill="#009200"><ellipse rx="20.814" ry="24.144" transform="matrix(.166 -.008 .002 .315 369.8 -361.65)" cy="905" cx="427.11"/><ellipse rx="20.814" ry="24.144" transform="matrix(.166 -.008 .002 .315 364.04 -362.7)" cy="905" cx="427.11"/><ellipse rx="20.814" ry="24.144" transform="matrix(.166 -.008 .002 .315 360.64 -370.55)" cy="905" cx="427.11"/><ellipse rx="20.814" ry="24.144" transform="matrix(.16 -.009 .002 .348 369.3 -399.35)" cy="905" cx="427.11"/><ellipse rx="20.814" ry="24.144" transform="matrix(.16 -.008 .002 .326 377.41 -379.07)" cy="905" cx="427.11"/><ellipse rx="20.814" ry="24.144" transform="matrix(.16 -.008 .002 .326 373.22 -382.21)" cy="905" cx="427.11"/><ellipse rx="20.814" ry="24.144" transform="matrix(.16 -.008 .002 .326 367.99 -386.66)" cy="905" cx="427.11"/><ellipse rx="20.814" ry="24.144" transform="matrix(.16 -.008 .002 .326 363.01 -389.54)" cy="905" cx="427.11"/></g><ellipse rx="58.28" ry="186.49" stroke="#000" transform="matrix(.157 -.061 .064 .148 369.61 -145.05)" cy="606.11" cx="624.42" stroke-width="1pt" fill="#c90000"/><g stroke="#000" fill="#009200" transform="matrix(1 .018 -.018 1 -34.814 -4.628)"><ellipse rx="10.823" ry="12.905" transform="matrix(.395 0 0 .293 445.07 -230.53)" cy="356.75" cx="218.13" stroke-width="1.464"/><ellipse rx="10.823" ry="12.905" transform="matrix(.354 0 0 .293 457.17 -235.92)" cy="356.75" cx="218.13" stroke-width="1.546"/><ellipse rx="10.823" ry="12.905" transform="matrix(.354 0 0 .293 452 -235.92)" cy="356.75" cx="218.13" stroke-width="1.546"/><ellipse rx="10.823" ry="12.905" transform="matrix(.371 0 0 .275 449.48 -233.46)" cy="356.75" cx="218.13" stroke-width="1.56"/><ellipse rx="10.823" ry="12.905" transform="matrix(.371 0 0 .275 448.95 -237.93)" cy="356.75" cx="218.13" stroke-width="1.56"/><ellipse rx="10.823" ry="12.905" transform="matrix(.354 0 0 .293 447.01 -238.85)" cy="356.75" cx="218.13" stroke-width="1.546"/><ellipse rx="10.823" ry="12.905" transform="matrix(.354 0 0 .287 448.08 -241.58)" cy="356.75" cx="218.13" stroke-width="1.562"/><ellipse rx="10.823" ry="12.905" transform="matrix(.395 0 0 .293 432.77 -243.48)" cy="356.75" cx="218.13" stroke-width="1.464"/><ellipse rx="10.823" ry="12.905" transform="matrix(.371 0 0 .275 445.92 -243.48)" cy="356.75" cx="218.13" stroke-width="1.56"/><ellipse rx="10.823" ry="12.905" transform="matrix(.354 0 0 .287 444.16 -246.97)" cy="356.75" cx="218.13" stroke-width="1.562"/><ellipse rx="10.823" ry="12.905" transform="matrix(.354 0 0 .293 436.14 -243.17)" cy="356.75" cx="218.13" stroke-width="1.546"/><ellipse rx="10.823" ry="12.905" transform="matrix(.354 0 0 .287 437.42 -243.88)" cy="356.75" cx="218.13" stroke-width="1.562"/><ellipse rx="10.823" ry="12.905" transform="matrix(.354 0 0 .287 438.99 -247.02)" cy="356.75" cx="218.13" stroke-width="1.562"/></g><g stroke="#000" fill="#009200" transform="matrix(.18 -.005 .004 .185 420.99 -216.8)"><ellipse rx="67.438" ry="205.64" transform="matrix(.976 -.308 .363 .874 -245.81 324.4)" cy="564.48" cx="528.68" stroke-width="2.545"/><ellipse rx="13.321" ry="40.796" transform="matrix(.918 -.397 .397 .918 -210.48 304.49)" cy="646.07" cx="528.68" stroke-width="2.5"/><path d="M139.87 643.99c0 57.677-18.755 86.17-34.55 110.32 7.516-32.47 12.904-52.637 12.904-110.31 0-57.677 29.58-85.337 40.38-101.99-4.187 16.652-18.734 44.312-18.734 101.99z" transform="matrix(1.883 -.456 .953 1.182 -352.26 -10.02)" stroke-width="1.533"/><path d="M139.87 643.99c0 57.677-18.755 86.17-34.55 110.32 7.516-32.47 12.904-52.637 12.904-110.31 0-57.677 29.58-85.337 40.38-101.99-4.187 16.652-18.734 44.312-18.734 101.99z" transform="matrix(1.883 -.456 .953 1.182 -348.42 44.058)" stroke-width="1.533"/><path d="M139.87 643.99c0 57.677-18.755 86.17-34.55 110.32 7.516-32.47 12.904-52.637 12.904-110.31 0-57.677 29.58-85.337 40.38-101.99-4.187 16.652-18.734 44.312-18.734 101.99z" transform="matrix(1.873 -.495 .978 1.162 -361.92 105.78)" stroke-width="1.533"/><ellipse rx="13.321" ry="40.796" transform="matrix(1.81 -.401 .699 1.635 -915.63 -221.01)" cy="646.07" cx="528.68" stroke-width="1.389"/><ellipse rx="13.321" ry="40.796" transform="matrix(1.626 -.231 .542 1.353 -739.49 -91.775)" cy="646.07" cx="528.68" stroke-width="1.64"/><ellipse rx="13.321" ry="40.796" transform="matrix(1.63 -.197 .513 1.363 -750.62 -91.826)" cy="646.07" cx="528.68" stroke-width="1.64"/><ellipse rx="13.321" ry="40.796" transform="matrix(1.314 -.201 .469 1.01 -531.06 47.568)" cy="646.07" cx="528.68" stroke-width="2.097"/><ellipse rx="13.321" ry="40.796" transform="matrix(1.326 -.13 .403 1.033 -517.87 12.211)" cy="646.07" cx="528.68" stroke-width="2.097"/><path d="M145.7 569.47c0 34.006-6.712 61.61-14.985 61.61-8.272 0-14.986-27.604-14.986-61.61" transform="matrix(1.025 -.493 .464 1.177 12.767 -14.519)" stroke-width="2.086"/><ellipse rx="13.321" ry="40.796" transform="matrix(1.326 -.13 .403 1.033 -519.53 -34.412)" cy="646.07" cx="528.68" stroke-width="2.097"/><ellipse rx="13.321" ry="40.796" transform="matrix(1.329 -.105 .38 1.04 -533.98 -40.121)" cy="646.07" cx="528.68" stroke-width="2.097"/><path d="M145.7 569.47c0 34.006-6.712 61.61-14.985 61.61-8.272 0-14.986-27.604-14.986-61.61" transform="matrix(.672 -.472 .459 .799 39.486 143.28)" stroke-width="2.88"/><path d="M145.7 569.47c0 34.006-6.712 61.61-14.985 61.61-8.272 0-14.986-27.604-14.986-61.61" transform="matrix(.672 -.472 .459 .799 51.142 125.79)" stroke-width="2.88"/><path d="M145.7 569.47c0 34.006-6.712 61.61-14.985 61.61-8.272 0-14.986-27.604-14.986-61.61" transform="matrix(.937 -.645 .64 1.092 -40.198 -10.744)" stroke-width="2.086"/><path d="M145.7 569.47c0 34.006-6.712 61.61-14.985 61.61-8.272 0-14.986-27.604-14.986-61.61" transform="matrix(.672 -.52 .459 .881 68.626 71.179)" stroke-width="2.742"/></g><g stroke="#000" stroke-width="2.5" fill="#804bff"><path d="M499.664-134.623c-1.952 1.978-.036 5.66 1.753 6.987 2.007 1.818 13.278 13.698 21.218 3.654-6.367-.098-18.258-15.047-22.97-10.64z"/><path d="M498.266-140.5c-1.952 1.978-.036 5.66 1.753 6.987 2.006 1.818 13.277 13.698 21.217 3.654-6.367-.097-18.258-15.046-22.97-10.64z"/><path d="M496.49-146.118c-1.95 1.978-.035 5.66 1.754 6.987 2.007 1.817 13.278 13.697 21.218 3.653-6.367-.098-18.258-15.047-22.97-10.64z"/><path d="M492.62-152.552c-1.95 1.978-.035 5.66 1.754 6.987 2.007 1.818 13.278 13.698 21.218 3.654-6.367-.1-18.258-15.048-22.97-10.642z"/></g><g transform="matrix(1 .018 -.018 1 12.04 10.605)"><path d="M211.17 247.3c21.773-12.065 56.618-9.75 79.734 11.165 19.36 16.943 45.307 75.194 70.322 92.834-20.227.018-31.298-5.77-42.24-15.18-28.768 15.44-38.128 16.723-63.89 15.63-35.882-1.333-62.46-17.653-68.18-40.603-6.165-21.804 4.926-52.498 24.254-63.847z" transform="matrix(.209 -.041 .047 .181 407.8 -213.64)" stroke="#000" stroke-width="2.5" fill="#804bff"/><ellipse rx="14.154" ry="14.986" stroke="#000" transform="matrix(.245 0 0 .134 401.82 -215.18)" cy="323.04" cx="287.23" stroke-width="2.5" fill="#f00"/><ellipse rx="23.254" ry="15.895" stroke="#000" transform="matrix(.194 -.076 .068 .173 398.66 -208.06)" cy="348.26" cx="204.58" stroke-width="2.5" fill="#ff0"/><ellipse rx="5.828" ry="5.828" transform="matrix(.214 0 0 .185 411.29 -233.74)" cy="333.86" cx="283.9" stroke-width="1pt"/><path d="M516.8 260.29c4.425 18.107-6.674 43.083-33.133 52.61-26.775 13.172-46.08 41.83-55.64 88.016-47.245-103.27-23.108-148.28 20.6-160.35 37.376-14.363 60.42-13.37 68.173 19.72z" transform="matrix(.092 .001 -.003 .085 417.85 -191.49)" stroke="#000" stroke-width="6.56" fill="#ff0"/><ellipse rx="4.71" ry="4.71" transform="matrix(.187 -.013 .014 .191 418.69 -234.98)" cy="362.39" cx="198.98" stroke-width="1pt"/></g></g></g></svg>