<svg xmlns="http://www.w3.org/2000/svg" height="480" width="640" version="1" xmlns:xlink="http://www.w3.org/1999/xlink"><defs><linearGradient id="a"><stop stop-color="#a43907" stop-opacity=".996" offset="0"/><stop stop-color="#fff" offset="1"/></linearGradient><linearGradient id="b" y2="577.14" xlink:href="#a" gradientUnits="userSpaceOnUse" x2="470.9" gradientTransform="scale(1.003 .997)" y1="592.2" x1="444.4"/><linearGradient id="c" y2="552.83" xlink:href="#a" gradientUnits="userSpaceOnUse" x2="520.55" gradientTransform="scale(.936 1.068)" y1="562.51" x1="458.24"/><linearGradient id="d" y2="580.2" xlink:href="#a" gradientUnits="userSpaceOnUse" x2="445.28" gradientTransform="scale(1.003 .997)" y1="578.68" x1="472.38"/><linearGradient id="e" y2="558.12" xlink:href="#a" gradientUnits="userSpaceOnUse" x2="456.44" gradientTransform="scale(.936 1.068)" y1="553.74" x1="517.97"/><linearGradient id="f" y2="369.94" xlink:href="#a" gradientUnits="userSpaceOnUse" x2="646.19" y1="369.94" x1="851.78"/><linearGradient id="g" y2="508.75" xlink:href="#a" gradientUnits="userSpaceOnUse" x2="677.4" gradientTransform="scale(.823 1.215)" y1="507.23" x1="388.53"/><linearGradient id="h" y2="505.86" xlink:href="#a" gradientUnits="userSpaceOnUse" x2="556.8" gradientTransform="scale(.835 1.198)" y1="504.94" x1="579.84"/><linearGradient id="i" y2="514.33" xlink:href="#a" gradientUnits="userSpaceOnUse" x2="558.88" gradientTransform="scale(.823 1.215)" y1="512.01" x1="581.43"/><linearGradient id="j" y2="503.9" xlink:href="#a" gradientUnits="userSpaceOnUse" x2="589.77" gradientTransform="scale(.835 1.198)" y1="517.88" x1="552"/></defs><g><path stroke-width="1pt" fill="#006" d="M0 0h640v480H0z"/><g><path fill-rule="evenodd" fill="#006" d="M0 0h400v200H0z"/><g stroke-width="1pt"><path d="M0 0v25.563l317.14 203.07h39.92V203.07L39.92.003H0zm357.06 0v25.562L39.92 228.632H0V203.07L317.14 0h39.92z" fill="#fff"/><path d="M148.775 0v228.63h59.51V0h-59.51zM0 76.21v76.21h357.06V76.21H0z" fill="#fff"/><path d="M0 91.453v45.726h357.06V91.452H0zM160.677 0v228.63h35.706V0h-35.706z" fill="#c00"/><path d="M0 228.63l119.02-76.21h26.613l-119.02 76.21H0zM0 0l119.02 76.21H92.407L0 17.043V.002zm211.427 76.21L330.447 0h26.613L238.04 76.21h-26.613zM357.06 228.63l-119.02-76.21h26.613l92.407 59.17v17.04z" fill="#c00"/></g></g><g><path d="M670.97 321.56c-.734.012-1.438.084-2.03.188-3.39.59-8.734 11.63-11.69 18.094-4.62 5.644-7.088 10.03-9.03 13.28-.755 1.263-1.92 2.728-1.563 4.407-6.996 1.718-7.344 7.724-7.344 10.06 0 2.48.782 3.72.782 3.72l4.187 7.843.03.094c4.458 9.216 11.058 21.626 14.75 22.656 5.244 1.462 18.822-3.55 29-12.156 16.69 6.875 38.073 12.562 61.97 12.562 23.896 0 45.248-5.69 61.938-12.563 10.18 8.606 23.758 13.618 29 12.156 3.705-1.033 10.324-13.525 14.78-22.75l4.19-7.844s.78-1.24.78-3.72c0-2.338-.377-8.344-7.375-10.062.35-1.678-.776-3.143-1.53-4.406-1.958-3.274-4.42-7.7-9.095-13.406-2.966-6.48-8.29-17.382-11.656-17.97-4.742-.825-14.97 1.58-14.97 2.407 0 .02-.057.45-.062.5l-20.54 19.4c0 .557 1.09 14.594 4.938 27-13.75 5.006-30.626 8.532-50.406 8.532-19.793 0-36.715-3.52-50.47-8.532 3.85-12.406 4.97-26.443 4.97-27l-20.53-19.4c-.005-.05-.063-.48-.063-.5 0-.723-7.83-2.675-12.968-2.593zm5.25 24.094c2.582-.032 5.332 2.095 7.594 4.47-.078.465-.157.943-.25 1.374-.624 2.872-1.696 6.663-3.188 10.625-5.87-3.43-10.66-6.996-14.312-10.312 2.228-2.37 5.806-5.596 9.594-6.124.185-.026.375-.03.563-.03zm147.56 0c.187.002.377.005.563.03 3.788.53 7.397 3.757 9.625 6.126-3.66 3.324-8.457 6.91-14.344 10.344-1.498-3.97-2.563-7.778-3.188-10.656-.094-.432-.172-.907-.25-1.375 2.265-2.38 5.006-4.5 7.594-4.47zm-166 27.375c2.73 2.09 6.296 4.475 10.594 7-1.19.755-2.456 1.316-3.78 1.624-1.766.41-3.622.33-5.5-.063-.588-1.45-1.083-3.274-1.22-5.717-.057-1.018-.08-1.966-.094-2.844zm184.47 0c-.014.877-.068 1.825-.125 2.843-.137 2.443-.6 4.267-1.188 5.72-1.88.392-3.766.47-5.53.06-1.326-.307-2.56-.868-3.75-1.624 4.3-2.525 7.862-4.908 10.593-7z" fill-rule="evenodd" transform="matrix(1.168 0 0 1.168 -389.229 -21.963)" stroke="#fff" stroke-width="10" fill="url(#b)"/><path d="M445.63 595.48s5.625-8.75 10.313-8.125c4.687.625 9.062 6.25 9.375 6.562.312.313 7.187-7.187 6.875-7.5-.313-.312-7.188-16.562-10.938-17.187s-11.847 1.196-11.847 1.82-3.778 24.43-3.778 24.43z" fill-rule="evenodd" transform="matrix(-1.478 0 0 1.544 1073.36 -525.342)" stroke="#000" stroke-width="1.16" fill="url(#b)"/><path d="M433.13 586.11c0 .625 1.875 23.75 10 31.875s21.25 13.125 25.938 11.875c4.687-1.25 15.312-24.687 15.312-24.687s-11.25 11.25-19.687 9.375c-8.438-1.875-13.438-15.938-15-22.813-1.563-6.875-.313-20.313-.313-20.313l-16.25 14.688z" fill-rule="evenodd" transform="matrix(-1.478 0 0 1.544 1073.36 -525.342)" stroke="#000" stroke-width="1.16" fill="url(#c)"/><path d="M445.63 595.48s5.625-8.75 10.313-8.125c4.687.625 9.062 6.25 9.375 6.562.312.313 7.187-7.187 6.875-7.5-.313-.312-7.188-16.562-10.938-17.187s-11.847 1.196-11.847 1.82-3.778 24.43-3.778 24.43z" fill-rule="evenodd" transform="matrix(1.478 0 0 1.544 -99.826 -525.342)" stroke="#000" stroke-width="1.16" fill="url(#d)"/><path d="M433.13 586.11c0 .625 1.875 23.75 10 31.875s21.25 13.125 25.938 11.875c4.687-1.25 15.312-24.687 15.312-24.687s-11.25 11.25-19.687 9.375c-8.438-1.875-13.438-15.938-15-22.813-1.563-6.875-.313-20.313-.313-20.313l-16.25 14.688z" fill-rule="evenodd" transform="matrix(1.478 0 0 1.544 -99.826 -525.342)" stroke="#000" stroke-width="1.16" fill="url(#e)"/><path d="M656.44 338.56c-4.742 5.785-7.274 10.257-9.25 13.562-1.976 3.306-.814 7.906 3.75 14.47 4.92 7.072 45.374 34.718 98.062 34.718 52.69 0 93.142-27.646 98.062-34.72 4.564-6.562 5.695-11.162 3.72-14.468-1.977-3.306-4.478-7.777-9.22-13.562 0 8.677-33.512 40.03-92.562 40.03s-92.562-31.353-92.562-40.03z" fill-rule="evenodd" transform="matrix(1.168 0 0 1.168 -388.04 -20.789)" stroke="#000" stroke-width="1.5" fill="url(#f)"/><path d="M467.82 625.48c.625-.937 7.187-11.875 7.187-11.875l-3.598-2.538c-1.106 3.094-5.153 4.1-5.778 7.85s2.813 7.5 2.188 6.563z" fill-rule="evenodd" transform="matrix(1.478 0 0 1.544 -98.845 -523.975)" stroke="#000" stroke-width="1.16" fill="url(#g)"/><path d="M475 622.98s1.25-5.312-2.812-5.937c-4.063-.625-6.214 2.973-5.625 1.562.654-1.567 3.125-3.125 3.437-8.437.313-5.313-.312-8.125-.312-8.125s1.562-6.876 8.125-5.938c6.562.938 6.875 5.938 6.875 7.813s-.625 2.812-.625 2.812L475 622.98z" fill-rule="evenodd" transform="matrix(1.478 0 0 1.544 -99.826 -525.342)" stroke="#000" stroke-width="1.16" fill="url(#h)"/><path d="M436.62 649.96v2.602h.875l.203-1.573.203-.192h1.523v7.996l-.215.235-.825.072v.72h3.793v-.72l-.824-.073-.216-.236v-7.996h1.523l.19.19.214 1.574h.876v-2.602h-7.32z" stroke-width="1pt" transform="matrix(1.523 -.951 .758 1.327 -589.756 -40.91)"/><path d="M427.15 649.96v.72l.736.074.203.235v7.804l-.204.235-.736.072v.72h3.59v-.72l-.76-.073-.204-.236v-3.704h3.667v3.704l-.19.235-.762.072v.72h3.58v-.72l-.737-.073-.203-.236v-7.805l.203-.236.736-.074v-.72h-3.58v.72l.763.074.19.235v3.218h-3.667v-3.22l.203-.234.76-.074v-.72h-3.59z" stroke-width="1pt" transform="matrix(1.583 -.835 .667 1.379 -556.047 -124.898)"/><path d="M422.81 654.98v.72l.94.074.202.206v2.998c-.33.03-.57.044-.698.044-1.953 0-3.146-1.543-3.146-4.19 0-2.57 1.167-4.1 3.058-4.1.368 0 .71.074 1.053.236l.19.264.24 1.558h.926v-2.498c-.94-.324-1.84-.485-2.677-.485-2.817 0-4.63 2.013-4.63 5.026 0 3.057 1.8 5.174 4.464 5.174.926 0 1.865-.206 2.842-.603v-3.424l.203-.206.735-.074v-.72h-3.705z" stroke-width="1pt" transform="matrix(1.699 -.531 .425 1.48 -446.354 -321.164)"/><path d="M413.66 659.83h3.793v-.72l-.85-.073-.203-.235v-7.834l.203-.206.85-.074v-.72h-3.793v.72l.837.074.203.206v7.834l-.203.235-.837.073v.72z" stroke-width="1pt" transform="matrix(1.695 -.534 .445 1.478 -457.026 -318.197)"/><path d="M393.88 659.83h6.813v-2.63h-.863l-.216 1.558-.165.235h-2.944v-3.822h1.65l.177.207.127 1.058h.748v-3.41h-.748l-.127 1.06-.178.204h-1.65v-3.5h2.526l.166.192.19 1.294h.888v-2.308h-6.394v.72l.774.074.203.206v7.834l-.203.235-.774.073v.72z" stroke-width="1pt" transform="matrix(1.661 -.152 .131 1.538 -238.199 -513.545)"/><path d="M384.25 649.96v.72l.736.074.203.235v7.804l-.204.235-.736.072v.72h3.59v-.72l-.76-.073-.204-.236v-3.704h3.666v3.704l-.19.235-.76.072v.72h3.577v-.72l-.737-.073-.203-.236v-7.805l.203-.236.736-.074v-.72h-3.58v.72l.762.074.19.235v3.218h-3.666v-3.22l.203-.234.76-.074v-.72h-3.59z" stroke-width="1pt" transform="matrix(1.667 -.029 .027 1.544 -172.476 -565.626)"/><path d="M376.42 649.96v2.602h.875l.203-1.573.203-.192h1.524v7.996l-.216.235-.825.072v.72h3.794v-.72l-.825-.073-.216-.236v-7.996h1.523l.19.19.215 1.574h.875v-2.602h-7.32z" stroke-width="1pt" transform="matrix(1.667 .02 -.014 1.544 -145.355 -584.816)"/><path d="M365.33 659.83h6.813v-2.63h-.863l-.216 1.558-.165.235h-2.944v-3.822h1.65l.177.207.127 1.058h.748v-3.41h-.748l-.127 1.06-.178.204h-1.65v-3.5h2.526l.166.192.19 1.294h.888v-2.308h-6.394v.72l.774.074.203.206v7.834l-.203.235-.774.073v.72z" stroke-width="1pt" transform="matrix(1.624 .081 -.068 1.543 -95.201 -608.001)"/><path d="M352.34 659.83h3.793v-.72l-.85-.073-.203-.235v-7.834l.203-.206.85-.074v-.72h-3.793v.72l.837.074.203.206v7.834l-.203.235-.837.073v.72z" stroke-width="1pt" transform="matrix(1.548 .522 -.451 1.469 180.517 -720.935)"/><path d="M345.5 659.5c.787.323 1.637.485 2.45.485 2.08 0 3.36-1.264 3.36-3.013 0-.867-.405-1.66-1.14-2.205-.75-.558-1.422-.78-1.815-1.058-.672-.47-1.028-.912-1.028-1.588 0-.81.57-1.396 1.497-1.396.406 0 .698.073.926.205l.178.207.216 1.53h.913v-2.382c-.8-.324-1.598-.5-2.385-.5-1.814 0-2.994 1.264-2.994 2.895 0 .72.304 1.44.888 2.014.558.544 1.155.794 1.662 1.088.9.53 1.358 1.058 1.358 1.85 0 .81-.61 1.398-1.637 1.398-.394 0-.762-.074-1.117-.206l-.165-.22-.203-1.764h-.965v2.66z" stroke-width="1pt" transform="matrix(1.548 .522 -.451 1.469 180.517 -720.935)"/><path d="M337.56 659.83h6.813v-2.63h-.862l-.215 1.558-.165.235h-2.943v-3.822h1.65l.177.207.126 1.058h.75v-3.41h-.75l-.126 1.06-.178.204h-1.65v-3.5h2.525l.166.192.19 1.294h.89v-2.308h-6.396v.72l.774.074.203.206v7.834l-.203.235-.774.073v.72z" stroke-width="1pt" transform="matrix(1.467 .734 -.635 1.393 328.257 -743.699)"/><path d="M332.18 649.96h-3.704v.72l.774.074.203.235v7.804l-.203.235-.774.072v.72h3.704c1.27 0 2.22-.22 3.007-.925 1.028-.912 1.56-2.264 1.56-3.998 0-3.088-1.623-4.94-4.567-4.94zm-1.053.823h.736c2.017 0 2.994 1.338 2.994 4.1S333.88 659 331.863 659h-.736v-8.217z" stroke-width="1pt" transform="matrix(1.358 .936 -.812 1.289 478.707 -743.851)"/><path d="M356.84 649.96v.72l.75.074.202.206v7.834l-.203.235-.75.072v.72h3.578v-.72l-.774-.073-.203-.236v-3.307h.217c1.28 0 1.61.632 2.004 2.028.204.705.318 1.367.978 1.955.305.28.774.455 1.32.455.393 0 .824-.044 1.268-.117v-.706h-.165c-.85 0-1.23-.22-1.496-1.03-.24-.733-.342-1.527-.736-2.174-.29-.47-.723-.75-1.332-.91 1.434-.31 2.183-1.162 2.183-2.514 0-1.632-1.016-2.514-2.983-2.514h-3.857zm2.6.838h.585c1.23 0 1.877.676 1.877 1.88 0 1.354-.647 1.97-2.004 1.97-.14 0-.292 0-.457-.014v-3.836z" stroke-width="1pt" transform="matrix(1.588 .352 -.311 1.511 75.829 -686.677)"/><path d="M405.15 649.96v.72l.75.074.202.206v7.834l-.203.235-.75.072v.72h3.578v-.72l-.774-.073-.203-.236v-3.307h.217c1.28 0 1.61.632 2.004 2.028.204.705.32 1.367.978 1.955.305.28.774.455 1.32.455.393 0 .824-.044 1.268-.117v-.706h-.165c-.85 0-1.23-.22-1.496-1.03-.24-.733-.342-1.527-.735-2.174-.293-.47-.725-.75-1.333-.91 1.433-.31 2.182-1.162 2.182-2.514 0-1.632-1.016-2.514-2.983-2.514h-3.857zm2.6.838h.585c1.23 0 1.877.676 1.877 1.88 0 1.354-.647 1.97-2.004 1.97-.14 0-.292 0-.457-.014v-3.836z" stroke-width="1pt" transform="matrix(1.751 -.299 .241 1.524 -347.17 -445.357)"/><path d="M467.82 625.48c.625-.937 7.187-11.875 7.187-11.875l-3.598-2.538c-1.106 3.094-5.153 4.1-5.778 7.85s2.813 7.5 2.188 6.563z" fill-rule="evenodd" transform="matrix(-1.478 0 0 1.544 1072.425 -523.975)" stroke="#000" stroke-width="1.16" fill="url(#i)"/><path d="M475 622.98s1.25-5.312-2.812-5.937c-4.063-.625-6.214 2.973-5.625 1.562.654-1.567 3.125-3.125 3.437-8.437.313-5.313-.312-8.125-.312-8.125s1.562-6.876 8.125-5.938c6.562.938 6.875 5.938 6.875 7.813s-.625 2.812-.625 2.812L475 622.98z" fill-rule="evenodd" transform="matrix(-1.478 0 0 1.544 1073.36 -525.342)" stroke="#000" stroke-width="1.16" fill="url(#j)"/><path d="M396.85 605.91s-75.43-21.26-74.99-102.14l.58-106.91h148.82l.584 106.3c.44 80.882-74.993 102.76-74.993 102.76z" fill-rule="evenodd" fill-opacity=".996" transform="matrix(1.478 0 0 1.544 -99.382 -521.37)" stroke="#fff" stroke-width="3.867" fill="#0072c4"/><g fill-rule="evenodd"><path d="M339.69 420.17c.124 0 1.038-.83 1.875-1.562 1.17-.56 2.25-1.347 3.438-1.875.885-.49 2.634-.87 3.437-1.25 1.053-.527 1.912-1.134 2.813-2.188.108-1.398.313-2.402.313-4.062 1.243-.572 2.346-1.127 3.437-1.563 1.564-.42 1.903-1.02 3.438-1.25.99-.33 2.622-.313 4.063-.313 1.555 0 2.536 1.057 3.933 1.307 1.656.64 2.43 1.08 3.75 2.188.746.903 1.21 1.637 2.482 2.317 1.007.493 1.95 1.24 3.125 1.56 1.29.716 2.435 1.13 3.437 2.19.918.623 1.297 1.55 2.188 2.186 1.032.82 2.01 1.556 3.125 2.188 1.34.858 2.666 1.51 4.835 1.323 1.148-.065 2.384-.19 3.75.053 1.53 0 3.02-.026 4.375.313 1.594 0 2.884.206 4.375.312 1.397.25 2.82.313 4.375.313 1.355.338 2.846.312 4.375.312h8.75c1.592 0 3.204.062 4.375.313 1.577 0 2.933-.14 4.375-.313 1.697 0 2.99-.297 4.688-.312h5.313c1.363.357 3.106.602 4.06 1.25 1.252.34 1.875.908 3.126 1.25.958.47 2.413 1.214 3.125 2.187.883.882 1.79 2.145 2.5 3.438.87 1.2 1.202 2.572 1.876 4.062.357 1.428.606 2.786.625 4.375.34 1.355.314 2.846.314 4.375-.357 1.425-.435 3.01-.938 4.375-.054 1.525-.373 2.905-.625 4.063-.277 1.28-.604 2.102-.624 3.75v4.375c-.11 1.435-.438 2.49-.625 4.062-.755 1.365-1.48 2.96-2.186 4.688-1.04.693-1.942 1.68-2.5 2.5-.667.394-1.053.992-.938 1.25 1.25.416.938 1.247.938 2.812.162 1.205.284 2.7.625 4.063.113 1.492.447 2.404.936 3.437.493.616.59.313-.625.313-.902.677-1.816.323-2.186-.938-.73-.84-.97-1.86-1.25-3.437-.173-1.447-.415-2.857-.938-3.75-.16-1.76-.65-1.743-2.5-1.875-.88-.746-2.042-.938-3.75-.938-1.7 0-1.844-.166-1.875 1.563v4.375c-.293 1.268-.938 2.296-1.25 3.437-.93.653-1.416 1.75-2.5 2.5-.515 1.42-1.265 1.666-2.812 1.875-.54-.646-1.423-1.49-1.875-2.187.875-1.404 1.64-1.616 2.188-3.125.665-1.244 1.055-2.05 1.563-3.125-.667-.982-1.266-1.425-1.875-2.813-.514-.756-1.226-2.383-1.562-3.437-1.026-.342-2.642-.397-3.438-.938-1.516-.337-1.94 1.25-3.75 1.25h-4.374c-1.935 0-2.418 1.033-4.063.938-.482.15-1.654-.066-3.437 0-1.306.435-2.88.312-4.375.312-1.585-.02-2.882-.368-4.062-.625-1.436-.376-2.864-.757-4.375-.937-1.834 0-2.517.14-3.75.937-.974.553-2.387 1.817-3.437 2.5-.444 1.037-.675 2.792-1.25 4.063-.332 1.22-.872 1.992-1.25 3.125-.423 1.057-.823 2.145-.937 3.75-.106 2.106-.587 1.848-1.875 1.25-.536-.872-1.392-1.83-1.874-2.813.284-1.59.604-2.38.625-4.062-.303-1.213-1.013-1.174-1.874-.313 0 1.636.08 2.898-.625 3.75-.35 1.29-.917 1.85-1.874 2.5-.468 1.16-1.507 1.69-2.5 2.188-.16-.053 0-.42 0-1.25-.75-1.43-.054-2.615-.054-4.375.02-1.578-.075-2.624.404-4.063 0-1.515-.735-2.956-.975-4.062-.58-1.16-.915-1.735-2.5-2.188-1.112-.423-2.716-.995-3.437-1.875-.907-1.125-1.486-1.588-2.812-2.187-1.437-.498-2.135-.954-3.124-1.563-.966-1.02-1.75-1.46-2.188-2.812-.652-.96-.764-2.746-1.25-4.063-.106-1.372-.517-2.647-.937-3.75-.185-1.372-.41-2.376-.937-3.75-.174-1.285-.562-2.63-.937-4.062 0-1.53.026-3.02-.313-4.375v-4.375c-.225-1.263-.308-3.112-.625-4.063 0-1.7-.19-2.66-.625-3.75-.715-1.104-.773-1.6-1.875-1.875-.796.97-2.108 1.367-3.75 1.563-1.147-.25-2.766-.413-4.063-.938-1.253-.295-2.11-.77-3.125-1.25-.555-.817-1.218-1.742-1.875-2.5-.194-1.632-.566-2.472-.625-4.062 0-1.193.03-.56 1.25-2.188z" stroke-opacity=".996" transform="matrix(1.478 0 0 1.544 -109.567 -519.992)" stroke-width="1pt" fill="#bcbcbc"/><path d="M358.2 431.43l.22-.22c-.5.5-.317.26.885-.222.672-.405 1.95-1.118 2.43-1.547.578-.252 1.497-.582 1.99-1.103.615-.628 1.23-1.15 1.988-1.768.875-.71 1.69-.944 2.652-1.548 1.25-.09 1.703-.6 2.872-.22 1.097.237 1.552.244 2.43-.664.888-.543 1.864-1.07 2.21-1.99v-1.324c-.016 1.444-.288 1.912-1.325 2.43-.723.792-1.624 1.688-1.99 2.43-.7.973-.85 1.517-1.546 1.99-.57.696-1.55 1.064-1.767 2.21.314.525.026.813.66.883.64.526 1.307.302 2.21 0 .9-.995 1.304-1.638 1.77-2.65.74-.97 1.156-1.43 1.546-2.21.768-.534 1.256-.95 1.547-1.77.89-.496 1.62-1.02 2.21-1.546.66-.405 1.01-.735 1.988-.883-.013 1.187-.197 1.748-.662 2.43-.22 1.232-.176 1.815.22 2.653.636.375.523.702.885 1.547.36-.73.543-2.21.663-3.094v-.22c0 .965.092 2.247-.22 2.872.014 1.288.313 1.863.662 2.872.372.487.635.803 1.105 1.105.044-1.275.377-2.115.442-3.314.308.925.205 2.148.442 3.093.08 1.04.474 1.847.884 2.653.504.297.675 1.174.884.442.523-1.555.536-3.256.884-4.862.063-.815.13-2.028.442-2.65l-.442 2.65c.063-.815.13-2.028.442-2.65v-.222c.206 1.165.4 2.29.442 3.536 0 .995-.067 2.008.22 2.873.736-.326 1.162-1.09 1.548-1.99.59-1.068.992-1.542 1.768-2.43l-1.768 2.43c.59-1.068.992-1.542 1.768-2.43v-.22c-.122 1.018-.22 1.978-.22 3.092 0 1.02-.013 2.174.22 2.873.26 1.172.616 1.39.663 2.65 0 .616-.083 1.244.222 1.548.952.238.955-.292 1.105-1.547.012-1.425.393-2.397.44-3.756 0-1.677.25.204.443.884.446.984.585 1.86.663 2.872 0 .615-.083 1.243.22 1.547.855-.338 1.193-1.292 1.77-1.768.44-1.047.894-1.51 1.325-2.21 1.145-.228 1.09-.678 1.105-1.988 0-1.057-.087-2.17.22-3.094.355-.96.69-2.03.885-2.872.413-.235.86.35 1.104.885.484.712.442 1.75.442 2.872.213.978.638 1.742 1.105 2.652.553 1.02 1.003 1.64 1.546 2.21.233.698.22 1.853.22 2.87.862-.934 1.027-2.328 1.106-3.755-.116-.97-.137-2.18-.442-3.094-.035-.972-.217-1.977-.442-2.65-.746-.343-.864-.647-.22-1.547.71-.588 1.478-.36 2.65-.22.594.592.838.91.885 2.208 0 1.178.052 2.083.442 2.874.432.636.86 1.073 1.104 2.21.338.277.6.725 1.104.22.277-.646.44-1.98.663-2.65.216-.84.605-1.252 1.105-1.548 0 1.23-.015 1.984.442 2.873.433.986.733 1.357 1.105 2.43.47.314.53.99 1.104 1.325.135-1.038.22-2.226.22-3.535v-3.094c.082-1.053.35-1.645.664-2.43.712.848.663 1.2.663 2.43.728-.26.85-.758 1.105-1.546.52-.437.66-.64.884.44.154 1.157.45 2.198.662 3.316.455.51.98 1.745 1.547 2.21.388.632.825 1.243 1.325 1.768.344.727.432 1.107 1.326 1.325 0-1.496.053-2.996-.22-4.42 0-1.27-.29-1.723-.442-2.873-.368-.762-.585-1.885-.442-2.21 1.035.983 1.503 1.553 1.99 2.652.517 1.06.954 1.775 1.324 2.872.51.42 1.416 1.677 1.768 2.21.79.674 1.173 1.376 1.99 1.988.42.38 1.313.592 1.546.442-.04-1.296-.247-2.408-.663-3.535-.014-1.237-.31-1.91-.662-2.652-.87-.717-1.528-1.206-1.99-2.21-.34-.28-.408-.49-.44-1.104 1.27 1.006 2.156 1.902 3.093 3.094.634.785.956 1.14 1.77 1.547.44.473 1.722 1.06 2.65 1.327.557.706 1.3 1.112 2.21 1.326l-2.21-1.326c.557.706 1.3 1.112 2.21 1.326v.22c-.11-1.38-.642-2.39-1.326-3.535-.576-1.21-1.103-1.657-1.99-2.43-.577-.876-1.224-1.392-2.208-1.99-.61-.685-1.523-1.824-1.99-2.21.943-.565 2.05.384 3.095.885.863.894 1.67 2.06 2.21 2.65.59 1.137 1.04 1.84 1.99 2.874.95.54 1.612 1.074 2.43 1.768 1.266.335.76-.108.442-1.105-.437-1.247-.048-1.267.884-.442.615.42 1.3 1.117 2.21 1.547.392.487.985.757 1.546.442.234-.312.22-.277.22-.663-.464-1.37-.896-2.44-1.988-2.873-.5-.61-1.314-1.335-1.988-1.988-.44-.647-.953-1.02-1.326-1.767l1.326 1.767c-.44-.647-.953-1.02-1.326-1.767h-.22c1.333.047 1.808.37 2.87.884.758.263 1.576.954 1.99 1.545.43.547 1.12 1.135 1.547 1.768.68.5 1.43 1.07 2.21 1.547.735.922.867 1.522.884 2.873.425.625.5 1.903.663 2.65-.162 1.216-.597.262-.662-.44-.186-.977-.575-.926-1.325-.664 0 1.334.154 1.7.663 2.65-.138.913-.455 1.58-.884 2.21-.516.295-.627-.65-1.105-1.104-.052-1.367-.454-1.517-1.327-2.21v.884c.493.943 1.013 1.803 1.105 3.094.34.985.442 1.607.442 2.872 0 1.082.018 2.136-.22 3.094 0 1.2-.208 1.713-.222 2.873V458.61c-.17.782-.22 1.8-.22 2.872l.22-2.872c-.17.782-.22 1.8-.22 2.872v.22c-.42-1.11-.878-2.114-1.106-3.313-.716-.68-1.17-1.378-1.547-2.21-.17-.95-.275-2.107-.442-2.874-.31-.778-.64-1.61-1.326-1.104-.27 1.647.07 2.628.663 4.198.347 1.04.31 1.86.663 2.873.512 1.168.924 1.336 0 2.65-.456.702-.7.924-.884 1.77-.818.408-1.023.59-1.105 1.546-.275-.86-.943-1.868-1.326-2.874-.397-1.058-.886-2.145-1.106-3.093-.536-.74-1.165-1.937-1.768-2.43-.555-.715-1.352-1.905-1.768-2.653-.846-.943-1.033-1.49-1.767-1.988-.188-.44-.413-.992-.883-.663 0 1.056-.087 2.168.22 3.092.224 1.303.616 2.026.664 3.315v2.43c-.53-1.244-1.097-2.355-1.546-3.535-.483-.66-.955-1.945-1.547-2.43-.376-.858-.67-1.57-1.105-2.21-.113-.642-.41-.635-.663-1.105.014 1.253.412 1.692.662 2.65.43.843.57 2.254.442 2.653-.557-1.55-1.06-3.242-1.768-4.64-.67-.908-1.324-2.075-1.768-2.873-.657-.76-1.333-.784-1.988-1.326-.597-.282-1.168-.598-1.547-1.104.174 1.165.628 1.893.884 2.873.145 1.11.656 2 .884 2.872-.245 1.512-.602-.42-.883-1.105-.233-1.244-.664-1.935-1.105-2.652-.592-.403-1.13-1.118-1.768-1.547-.62-.238-.442.043-.442.884 0 1.367.052 2.27.442 3.094.44.648.442 1.493.442 2.65-.04 1.09-.22 1.962-.22 3.095v1.77c-.508-.94-.99-1.474-1.327-2.653-.768-1.003-.995-1.74-1.548-2.872-.49-.197-1.288-.36-1.767 0 .086 1.118.603 1.61.663 2.872-.88.863-.722 1.11-1.326-.22-.504-1.008-1.09-.96-1.768-1.548-1.11-.14-.757-.818-1.105-1.768 0-.85.087-1.71-.222-2.43-1.21 0-1.906-.043-2.65.662-.352.7-.228 1.964 0 2.872v3.094c-.253.774-.752.816-.885 1.768-.427.943-.568 1.984-.884 2.652-.788.68-.446.765-.885-.442v-7.072c0-1.2.18-1.786.22-2.872-.457-.916-.582-1.088-1.988-1.105-.342.57-.212 1.63 0 2.21 0 1.07.05 2.09.22 2.87 0 1.175.146 1.886.222 2.874-.043 1.17-.27 2.105-.885 2.652-.797.2-.087.684-.884.884-.798-.383-1.737-.904-2.43-1.547-.858-.262-1.668-.442-2.872-.442-1.465-.017-1.49-.187-1.99-1.325-.447-1.217-.658-2.276-.883-3.536-.486-1.035-.6-1.74-.884-2.873-.37-.675-.766-1.185-1.324-1.547-.32 1.117-.62 2.052-.663 3.315-.26.517-.313 1.834-.442 2.43-.443-.654-.617-1.94-.883-2.872-.42-1.34-.777-2.21-2.21-1.768-1.487.018-1.53.06-1.547 1.547.64.96 1.324 1.89 1.768 2.65v3.095c0 1.277.078 1.647-.884 1.99-.366-1.327-1.143-2.593-1.99-3.758-.115-.902-.405-.664-1.324-.664-.615 0-1.243-.083-1.547.22 0 .77.066 1.84 0 1.99-.533.094-.748-.005-1.105-.442-.386.643-.095 1.55 0 2.43-.28.984-.616 1.882-1.105 2.43-.098-.293-.32-.22 0-.22-1.517-.557-2.703-.9-3.977-1.325-.767.094-1.324.77-1.768 1.324-1.123.36-1.62.648-2.873.663-1.202 0-1.787.18-2.873.22-.78.17-1.8.222-2.872.222-.594-.17-1.632-.175-1.99-.443.457-.65.965-.98 1.327-1.988.605-.413 1.172-.94 1.768-1.548.583-.397 1.266-1.22 1.767-1.768.345-1.064.82-1.248 1.547-1.768 1.313.05 1.57.448 2.872.663 1.272.46 1.976.596 2.652-.222 1.055-.427 1.95-1.094 3.093-1.326.885-.423 1.452-.834 2.21-1.326.94-.54 1.388-1.097 2.21-1.767.235-.902.9-1.598.663-2.653-1.196-.3-1.955-.18-2.652.442-.967.76-1.15 1.078-2.21 1.767-.915.25-1.306.634-2.43.884-.924.31-2.037.222-3.094.222-.966 0-2.248-.092-2.873.22.984-.632 2.165-1.29 3.095-1.546.892-.573 1.23-.863 2.43-.884.56-.698 1.134-.715 1.326-1.768.375-1.307-.814-.893-1.766-.442-.898.158-1.89.766-2.652 1.105-.737.246-1.814.43-2.873.442-.28-.4.217-.717.44-1.327 1.033-.35 1.2-.48 1.327-1.547-1.17.155-1.617.523-2.652.663-1.128.28-2.298.406-3.535.44h-3.094c-1.086-.04-1.67-.22-2.872-.22-.88-.44-.884-.65-.884-1.99.693-.76 1.367-.66 2.65-.66.99-.466 1.76-.713 2.432-1.106.8-.165 1.346-.492 1.105-.884h-3.094c-1.19-.482-.054-.703.663-1.105 1.075 0 2.184.06 2.873.442 1.328-.05 1.79-.45 2.87-1.326.848-.666 1.263-1.092 2.21-1.546.682-.72 1.325-1.115 1.77-1.768.908-.827 1.51-1.286 1.988-1.988.585-.308.942-.706.663-1.105-1.384.16-1.944.643-2.872 1.326-.54.512-1.062.972-1.768 1.325-.995.565-1.615.794-2.872.883-1.134 0-2.006-.182-3.094-.22-1.2-.12-.095-.388.22-.884.465-.31.827-.998.443-1.547-.924-.308-2.036-.22-3.094-.22h-3.093c-1.168-.044-1.662-.3-2.43-.664-.24-.62.042-.442.883-.442 1.065-.04 1.82-.178 2.873-.44 1.04-.284 1.17-.615 1.325-1.77-1.018 0-2.172.013-2.87-.22h-1.99z" transform="matrix(1.478 0 0 1.544 -109.567 -519.992)" stroke-width="1pt" fill="#fefefe"/><path d="M339.06 426.42c-.194-1.632-.566-2.472-.625-4.062 0-1.193.03-.56 1.25-2.188.124 0 1.038-.83 1.875-1.562 1.17-.56 2.25-1.347 3.438-1.875.885-.49 2.634-.87 3.437-1.25 1.053-.527 1.912-1.134 2.813-2.188.108-1.398.313-2.402.313-4.062 1.244-.572 2.347-1.127 3.438-1.563 1.564-.42 1.903-1.02 3.438-1.25.988-.33 2.62-.313 4.062-.313 1.555 0 2.536 1.057 3.933 1.307 1.657.64 2.43 1.08 3.75 2.188.747.903 1.21 1.637 2.483 2.317 1.007.493 1.95 1.24 3.125 1.56.01 1.13.26.934-.58.934-.09 1.156-.38 1.084-1.548 1.105-.896-.467-1.535-1.094-1.99-1.77.443-1.147.15.93 0 1.327-.567.447-.905.923-1.546.442-.36-1.08-.662-1.824-.662-3.094-.168-1.38-.572-.38-.884.22-.3 1.115-.163 1.518.22 2.43-1.126 0-1.99-.1-2.872-.22-.82-.195-1.74.045-2.652.442-1.157.695-.797.7-.22 1.547 1.02.288 1.754.83 2.65 1.326 1.02-.193 2.086-.41 3.095-.662 1.052-.35 2.016-.128 3.092 0 .534.267 1.236.32 1.547.663 0 .684.056 1.398-.222 1.77-.46.29-.896 1.1-1.547 1.324-.973.534-1.995.87-3.092 1.105-1.354.048-1.85.332-2.873.883-.168 1.117-.51 1.432-1.547 1.768-1.033.432-1.854.664-3.093.664-.615 0-1.243.083-1.547-.22.984-1.075 1.28-1.58 1.768-2.653.19-.446.59-.733.22-1.104-1.308.05-1.65.04-1.767 1.326-.15 1.164-.617 1.36-1.548 1.768.25-1.078.293-1.906.663-2.873-.782.17-1.8.22-2.873.22-.67.407-.948.565-.663 1.327-.89.296-1.97.114-3.094 0-.94-.05-.42-.456-1.105-.884-.447-.84-.962-1.046-1.988-1.105-.51.61-1.452.86-1.99 1.326-.967.324-1.583.056-2.43-.44-1.103.032-.955.372-.662 1.104.42.28-.026.587.663.663.635.55 1.178.663 2.43.663.958-.24 2.013-.22 3.094-.22 1.09.03.884.278.884 1.325-.712.483-1.75.442-2.872.442-1.066-.127-1.884-.39-2.65-.663-1.036-.074-1.864-.263-2.653 0-.356.377-1.428.542-.22.663.474.428 3.03.22 3.213.95.603.64.47 1.48-.562 1.48-.626-.312-1.11-.235-1.547 0-.737.185-1.61.05-2.895.143 1.677.132-1.218-1.742-1.875-2.5z" transform="matrix(1.478 0 0 1.544 -109.567 -519.992)" stroke-width="1pt" fill="#fefefe"/><path d="M346.04 419.06c-.073 0-.733.44-1.326.884-.97.497-2.008 1.343-2.652 1.768-.507.388-.504.557-1.104.663 1.053-.143 1.522-.4 2.43-.884 1.148-.13 2.26-.364 2.873-.883.576-.192-.042-1.073-.22-1.547z" transform="matrix(1.478 0 0 1.544 -109.567 -519.992)" stroke-width="1pt" fill="#bcbcbc"/><path d="M356.21 408.67c.127 0 .386.69.883 1.105.318.848.61 1.447.663 2.43.27-1.08.734-1.947.884-3.093-.344-.582-.367-.855-1.326-.884 0 .597.073.207-1.104.442z" transform="matrix(1.478 0 0 1.544 -109.567 -519.992)" stroke-width="1pt" fill="#bcbcbc"/><path d="M349.36 417.73c-.494 0 .87-.492 1.326-.663.364-.767.653-1.31 1.326-1.767 1.107.085 1.65.404 2.21 1.104.93.254 1.265.697 2.43.884.434.366 1.02.408 0 .663-.692.367-1.563.443-2.65.443-1.14.082-1.955.333-2.653.663-1.48 0-1.243.05-1.99-1.326z" transform="matrix(1.478 0 0 1.544 -109.567 -519.992)" stroke="#000" stroke-width=".875" fill="#c4c4c2"/><path d="M360.18 408.89v.22c0-.595-.014-.29.22.885.366.74.443 1.536.443 2.652.58-.414 1.064-1.24 1.326-1.99 0-1.744-.248-1.64-1.99-1.767z" transform="matrix(1.478 0 0 1.544 -109.567 -519.992)" stroke-width="1pt" fill="#bcbcbc"/><path d="M368.36 434.3h.22c-.65 0-.283.038.885-.663.756-.504 1.375-1.25 2.43-1.547 1.024-.803 1.81-1.18 2.873-1.546.518-.238.975-.65 1.547-.22-.164 1.09-.353 1.5-1.326 1.987-.504.63-1.296 1-1.99 1.327-.718.316-1.51.332-1.767 1.105-1.202.53-1.35.44-2.873-.442z" transform="matrix(1.478 0 0 1.544 -109.567 -519.992)" stroke-width="1pt" fill="#bcbcbc"/><path d="M372.56 440.71c.394-.298 1.778-1.678 2.43-2.21.738-.972 1.484-1.716 2.21-2.21.644-.947 1.47-1.582 1.99-2.43.613-.743 1.065-1.372 1.767-2.21 0 .967-.092 2.248.22 2.873 0 1.335-.154 1.7-.662 2.652-.502.782-.876 1.3-1.99 1.768-1.003.532-1.605.72-2.43 1.325-.63.387-1.284.772-1.99 1.105-.63.27-.34.153-1.545-.663z" transform="matrix(1.478 0 0 1.544 -109.567 -519.992)" stroke-width="1pt" fill="#bcbcbc"/><path d="M365.71 445.79h.22c-.65 0-.284.038.885-.663.943-.943 1.694-1.27 2.873-1.768.897-.07 1.982-.293 2.652-.664.534-.094.906-.42 1.325 0 .694.938.885 1.203-.22 1.768-.53.45-1.463.9-2.21 1.105-.552.454-1.644.482-2.652.662-.903 0-1.405.102-1.768-.442l1.768.442c-.903 0-1.405.102-2.873-.442z" transform="matrix(1.478 0 0 1.544 -109.567 -519.992)" stroke-width="1pt" fill="#bcbcbc"/><path d="M375.21 445.79v-.22c0 .616-.027.29.442-.885.828-1.236 1.14-1.918 2.21-2.21.5-.606 1.37-.763 2.43-1.105.4.664.093 1.438 0 2.21-.288.825-1.076 1.407-1.546 1.99-.69.467-.97.917-1.99 1.104-.842 0-.395-.02-1.546-.884z" transform="matrix(1.478 0 0 1.544 -109.567 -519.992)" stroke-width="1pt" fill="#bcbcbc"/><path d="M412.746 124.246c0 .943-.73 1.707-1.632 1.707-.9 0-1.632-.764-1.632-1.707 0-.943.73-1.707 1.632-1.707.9 0 1.632.763 1.632 1.706z"/></g><g stroke-opacity=".996" fill-rule="evenodd" fill-opacity=".996" stroke="#002b0d" stroke-width="1pt" fill="#005120"><path d="M416.486 219.256h1.305c-4.09 0-1.645-.285 5.223 5.458 2.877-2.505 2.843-2.844 5.222 1.365 1.374 2.396 1.777-.245 3.916-2.73 1.032 4.96 1.692 10.158 5.224 5.46 4.033 0 8.256-.35 10.443 1.364 2.644 5.134 1.78-.87 3.917 1.365 5.75.72 5.64-5.155 11.9-6.674 3.893 5.084 5.597 1.172 10.446-1.364 3.6 1.053 6.995 6.765 7.68 1.212 2.948-5.027 3.205-4.6 5.223 0 2.867 2.7 4.075-1.35 6.527-2.728 4.37 2.673 9.244 3.043 15.666 1.365 1.088 4.547 3.83 2.575 6.527 1.364 5.775 2.537 7.79 3.314 14.36 0 3.256-4.02 1.413.113 3.917 2.73 4.868-1.58 3.524-1.914 9.14-1.365 5.643 0 6.1-.143 7.832-4.094 2.836 2.965 3.86 5.102 7.832 1.365 6.086.188 4.204.804 7.834-1.364 2.686 6.216 3.316 1.725 6.527 4.093-2.115 5.606-5.364 8.235-9.138 10.917-2.51 4.348-4.08 9.043-9.138 10.92-3.69 3.933-7.622 6.214-11.75 9.552-5.66 1.478-11.89 1.364-18.278 1.364H470.01c-3.898 2.036-10.276 3.007-15.666 4.093-6.018 0-12.84.074-16.97-1.365-2.8-2.924-7.71-6.193-10.444-9.553-2.768-2.334-2.848-6.887-5.223-9.553-2.184-3.905-2.86-10.015-5.22-13.648v-9.554z"/><path d="M543.11 231.547v1.365c0-3.816.16-1.788-2.612 5.458-.562 1.76-1.79 2.174-3.917 2.73"/><path d="M531.367 236.997h1.306c-4.835 4.772-8.088 6.97-9.14 12.282l9.14-12.283c-4.835 4.772-8.088 6.97-9.14 12.282"/><path d="M513.082 230.188c0 .122-.184 4.868-1.306 6.823"/><path d="M507.868 239.73v1.365-1.365z"/><path d="M497.425 231.547h1.306-1.305c.435 0 .87 0 0 0z"/><path d="M424.314 231.547c.623 0 3.192 4.332 6.527 6.823-.83 3.992-2.105 8.612 0 12.282"/><path d="M434.756 239.73c.624 0 3.192 4.334 6.53 6.824l-6.53-6.824c.624 0 3.192 4.334 6.53 6.824v1.365c0-4.217-.337-8.633 1.303-10.92 1.45 2.568 3.284 6.696 3.916 2.73 7.352-.275 10.902-2.434 15.666-4.093 0 2.007-.308 1.042 1.306 2.728"/><path d="M552.252 232.905h1.305c-2.462 2.145-4.35 6.52-6.528 9.553"/><path d="M498.725 228.814h10.444"/></g><path d="M413.313 239.25c-15.698 0-20.9 16.404-36.598 16.404-.302 0-.588-.025-.883-.037v.993c-.06 11.37.835 21.963 2.465 31.852 14.48-1.057 19.86-16.405 35.016-16.405 15.697 0 20.936 16.442 36.634 16.442s20.936-16.443 36.634-16.443 20.937 16.442 36.635 16.442 20.936-16.443 36.634-16.443c15.115 0 20.51 15.24 34.904 16.367 1.725-10.154 2.636-21.063 2.575-32.772v-.037c-.296.012-.582.037-.884.037-15.698 0-20.9-16.405-36.598-16.405s-20.936 16.405-36.634 16.405-20.936-16.405-36.634-16.405-20.936 16.405-36.634 16.405-20.936-16.405-36.634-16.405z" fill-rule="evenodd" stroke-width="1.177pt" fill="#fff"/><path d="M413.313 303.29c-12.212 0-18.086 9.898-27.476 14.307 3.28 9.044 7.245 17.277 11.66 24.828 4.46-3.372 9.2-6.29 15.816-6.29 15.69-.012 20.927 16.396 36.628 16.396 15.7 0 20.938-16.404 36.635-16.404 15.698 0 20.937 16.405 36.634 16.405s20.936-16.404 36.634-16.404c6.47 0 11.147 2.792 15.522 6.068 4.413-7.515 8.394-15.734 11.696-24.717-9.242-4.467-15.118-14.197-27.218-14.197-15.697 0-20.936 16.405-36.634 16.405s-20.936-16.405-36.634-16.405-20.937 16.405-36.634 16.405-20.937-16.405-36.634-16.405z" fill-rule="evenodd" stroke-width="1.177pt" fill="#fff"/><path d="M486.57 367.318c-15.698 0-20.937 16.442-36.635 16.442-14.845 0-20.34-14.698-34.17-16.295 18.484 20.59 39.444 33.056 53.738 39.908 4.834-3.752 9.84 4.56 17.066 4.56 7.174 0 12.153-8.355 16.955-4.634 14.136-6.883 34.84-19.368 53.223-39.76-13.378 1.955-18.924 16.22-33.545 16.22-15.697 0-20.936-16.442-36.634-16.442z" fill-rule="evenodd" stroke-width="1.177pt" fill="#fff"/><g transform="matrix(1.177 0 0 1.177 -406.912 -18.221)"><path d="M332.54 541.35c1.744-.58 10.173-3.197 10.464-2.907.29.29 16.278 15.697 16.278 15.697l-13.37 2.616-13.372-15.406z" stroke-opacity=".996" transform="matrix(1.255 0 0 1.312 259.35 -430)" stroke="#512007" stroke-width=".475" fill="none"/><path d="M413.64 471.01c.29-4.65 8.72-31.103 8.72-31.103" stroke-opacity=".996" transform="matrix(1.063 0 0 1.029 276.8 -177.96)" stroke="#512007" stroke-width=".594" fill="none"/><path d="M416.54 471.32c0-.29 6.686-31.127 6.686-31.127" stroke-opacity=".996" transform="matrix(1.063 0 0 1.029 276.8 -177.96)" stroke="#512007" stroke-width=".594" fill="none"/><path d="M418.83 471.37c.29-1.744 5.558-31.175 5.558-31.175" stroke-opacity=".996" transform="matrix(1.063 0 0 1.029 276.8 -177.96)" stroke="#512007" stroke-width=".594" fill="none"/><path d="M413.93 467.23c1.453-.872 5.813-2.035 5.813-2.035" stroke-opacity=".996" transform="matrix(1.063 0 0 1.029 276.8 -177.96)" stroke="#512007" stroke-width=".594" fill="none"/><path d="M415.96 462.58c1.453 0 4.36-1.163 4.36-1.163" stroke-opacity=".996" transform="matrix(1.063 0 0 1.029 276.8 -177.96)" stroke="#512007" stroke-width=".594" fill="none"/><path d="M416.83 459.09c0-.29 4.36-1.163 4.36-1.163" stroke-opacity=".996" transform="matrix(1.063 0 0 1.029 276.8 -177.96)" stroke="#512007" stroke-width=".594" fill="none"/><path d="M417.41 454.73l4.65-.872" stroke-opacity=".996" transform="matrix(1.063 0 0 1.029 276.8 -177.96)" stroke="#512007" stroke-width=".594" fill="none"/><path d="M419.45 450.95c0 .29 3.197.29 3.197.29" stroke-opacity=".996" transform="matrix(1.063 0 0 1.029 276.8 -177.96)" stroke="#512007" stroke-width=".594" fill="none"/><path d="M420.32 447.46c.58 0 3.197.58 3.197.58" stroke-opacity=".996" transform="matrix(1.063 0 0 1.029 276.8 -177.96)" stroke="#512007" stroke-width=".594" fill="none"/><path d="M413.64 471.01c.29-4.65 8.72-31.103 8.72-31.103" stroke-opacity=".996" transform="matrix(-1.255 0 0 1.762 1290.4 -502.06)" stroke="#512007" stroke-width=".41" fill="none"/><path d="M416.54 470.13c0-.29 6.686-29.94 6.686-29.94" stroke-opacity=".996" transform="matrix(-1.255 0 0 1.762 1290.4 -502.06)" stroke="#512007" stroke-width=".41" fill="none"/><path d="M419.45 467.81c.29-1.744 4.94-27.614 4.94-27.614" stroke-opacity=".996" transform="matrix(-1.255 0 0 1.762 1290.4 -502.06)" stroke="#512007" stroke-width=".41" fill="none"/><path d="M413.93 467.23c1.453-.872 5.813-2.035 5.813-2.035" stroke-opacity=".996" transform="matrix(-1.255 0 0 1.762 1290.4 -502.06)" stroke="#512007" stroke-width=".41" fill="none"/><path d="M415.96 462.58c1.453 0 4.36-1.163 4.36-1.163" stroke-opacity=".996" transform="matrix(-1.255 0 0 1.762 1290.4 -502.06)" stroke="#512007" stroke-width=".41" fill="none"/><path d="M416.83 459.09c0-.29 4.36-1.163 4.36-1.163" stroke-opacity=".996" transform="matrix(-1.255 0 0 1.762 1290.4 -502.06)" stroke="#512007" stroke-width=".41" fill="none"/><path d="M417.41 454.73l4.65-.872" stroke-opacity=".996" transform="matrix(-1.255 0 0 1.762 1290.4 -502.06)" stroke="#512007" stroke-width=".41" fill="none"/><path d="M419.45 450.95c0 .29 3.197.29 3.197.29" stroke-opacity=".996" transform="matrix(-1.255 0 0 1.762 1290.4 -502.06)" stroke="#512007" stroke-width=".41" fill="none"/><path d="M420.32 447.46c.58 0 3.197.58 3.197.58" stroke-opacity=".996" transform="matrix(-1.255 0 0 1.762 1290.4 -502.06)" stroke="#512007" stroke-width=".41" fill="none"/><path d="M413.64 471.01c.29-4.65 8.72-31.103 8.72-31.103" stroke-opacity=".996" transform="matrix(-1.255 0 0 1.312 1321.3 -301.92)" stroke="#512007" stroke-width=".475" fill="none"/><path d="M416.54 470.13c0-.29 6.686-29.94 6.686-29.94" stroke-opacity=".996" transform="matrix(-1.255 0 0 1.312 1321.3 -301.92)" stroke="#512007" stroke-width=".475" fill="none"/><path d="M419.45 467.81c.29-1.744 4.94-27.614 4.94-27.614" stroke-opacity=".996" transform="matrix(-1.255 0 0 1.312 1321.3 -301.92)" stroke="#512007" stroke-width=".475" fill="none"/><path d="M413.93 467.23c1.453-.872 5.813-2.035 5.813-2.035" stroke-opacity=".996" transform="matrix(-1.255 0 0 1.312 1321.3 -301.92)" stroke="#512007" stroke-width=".475" fill="none"/><path d="M415.96 462.58c1.453 0 4.36-1.163 4.36-1.163" stroke-opacity=".996" transform="matrix(-1.255 0 0 1.312 1321.3 -301.92)" stroke="#512007" stroke-width=".475" fill="none"/><path d="M416.83 459.09c0-.29 4.36-1.163 4.36-1.163" stroke-opacity=".996" transform="matrix(-1.255 0 0 1.312 1321.3 -301.92)" stroke="#512007" stroke-width=".475" fill="none"/><path d="M417.41 454.73l4.65-.872" stroke-opacity=".996" transform="matrix(-1.255 0 0 1.312 1321.3 -301.92)" stroke="#512007" stroke-width=".475" fill="none"/><path d="M419.45 450.95c0 .29 3.197.29 3.197.29" stroke-opacity=".996" transform="matrix(-1.255 0 0 1.312 1321.3 -301.92)" stroke="#512007" stroke-width=".475" fill="none"/><path d="M420.32 447.46c.58 0 3.197.58 3.197.58" stroke-opacity=".996" transform="matrix(-1.255 0 0 1.312 1321.3 -301.92)" stroke="#512007" stroke-width=".475" fill="none"/><path d="M395.32 572.16c0-.29.872-72.96.872-72.96s2.616-.29 2.616 0-.29 72.67-.58 72.96-3.2.58-2.908 0z" stroke-opacity=".996" fill-rule="evenodd" transform="matrix(1.255 0 0 1.312 259.35 -430)" stroke="#512007" stroke-width=".475" fill="#dd8b59"/><path d="M423.81 502.4c0 .582-.582 61.333-.582 61.333l-2.035 2.326.582-63.66h2.035z" stroke-opacity=".996" fill-rule="evenodd" transform="matrix(1.255 0 0 1.312 259.35 -430)" stroke="#512007" stroke-width=".475" fill="#dd8b59"/><path d="M363.06 560.24s2.907 29.94 36.335 29.068 42.73-30.23 42.73-30.23-14.244-.582-14.535-.582c-.29 0-11.627 13.953-26.16 13.662s-19.185-3.78-22.383-6.685c-3.197-2.907-6.104-7.267-6.104-7.267l-16.86-6.686.873 6.395 6.104 2.325z" stroke-opacity=".996" fill-rule="evenodd" transform="matrix(1.255 0 0 1.312 259.35 -430)" stroke="#512007" stroke-width=".475" fill="#dd8b59"/><path d="M453.3 557.13c-.29-.872-1.007-3.866-1.007-3.866v-3.488l1.61-3.532s-25.29 3.623-25.29 3.914c0-.335-.156 6.885-.156 6.885l24.843.087z" stroke-opacity=".996" fill-rule="evenodd" transform="matrix(1.255 0 0 1.312 259.35 -430)" stroke="#512007" stroke-width=".475" fill="#dd8b59"/><path d="M448.52 549.78l-.58 6.104h4.068l-.29-6.104h-3.198z" stroke-opacity=".996" transform="matrix(1.255 0 0 1.312 259.35 -430)" stroke="#512007" stroke-width=".475" fill="none"/><path d="M444.16 550.07l-.29 6.394 2.615-.29.29-6.104h-2.615z" stroke-opacity=".996" transform="matrix(1.255 0 0 1.312 259.35 -430)" stroke="#512007" stroke-width=".475" fill="none"/><path d="M439.8 556.46v-4.94l2.616-.873.29 4.94-2.906.873z" stroke-opacity=".996" transform="matrix(1.255 0 0 1.312 259.35 -430)" stroke="#512007" stroke-width=".475" fill="none"/><path d="M434.85 556.18l.582-4.36 2.906.29.29 4.65-3.778-.58z" stroke-opacity=".996" transform="matrix(1.255 0 0 1.312 259.35 -430)" stroke="#512007" stroke-width=".475" fill="none"/><path d="M429.33 556.18l.29-3.78 2.908-.29v4.36l-3.198-.29z" stroke-opacity=".996" transform="matrix(1.255 0 0 1.312 259.35 -430)" stroke="#512007" stroke-width=".475" fill="none"/><path d="M361.89 559.95c.872 0 7.558 1.453 7.558 1.453l6.976 9.302" stroke-opacity=".996" transform="matrix(1.255 0 0 1.312 259.35 -430)" stroke="#512007" stroke-width=".475" fill="none"/><path d="M366.84 561.12c.29.29 6.104 19.766 34.01 19.766s34.59-22.09 34.59-22.09" stroke-opacity=".996" transform="matrix(1.255 0 0 1.312 259.35 -430)" stroke="#512007" stroke-width=".475" fill="none"/><path d="M439.8 559.37s-13.37 29.068-38.95 27.033c-25.58-2.034-29.65-11.627-31.685-16.568-2.035-4.942-3.197-9.01-3.197-9.01" stroke-opacity=".996" transform="matrix(1.255 0 0 1.312 259.35 -430)" stroke="#512007" stroke-width=".475" fill="none"/><path d="M373.23 558.21c.29-1.745.29-54.357.29-54.357l-1.744-.29-.29 53.775 1.744.872z" stroke-opacity=".996" fill-rule="evenodd" transform="matrix(1.255 0 0 1.312 259.35 -430)" stroke="#512007" stroke-width=".475" fill="#dd8b59"/><path d="M331.66 541.06l22.09 10.755-.58 1.453s-21.22-9.883-21.22-10.174c0-.29.29-1.453-.29-2.034z" stroke-opacity=".996" fill-rule="evenodd" transform="matrix(1.255 0 0 1.312 259.35 -430)" stroke="#512007" stroke-width=".475" fill="#dd8b59"/><path d="M341.84 537.86c0 .872 3.198 18.603 3.198 18.603s2.035.29 2.035 0-3.49-18.312-3.49-18.312l-1.743-.29z" stroke-opacity=".996" fill-rule="evenodd" transform="matrix(1.255 0 0 1.312 259.35 -430)" stroke="#512007" stroke-width=".475" fill="#dd8b59"/><path d="M362.18 538.44c1.163 0 20.93-3.197 20.93-3.197l-.292 3.197-19.475 2.035-1.163-2.035z" stroke-opacity=".996" fill-rule="evenodd" transform="matrix(1.255 0 0 1.312 259.35 -430)" stroke="#512007" stroke-width=".475" fill="#dd8b59"/><path d="M365.09 514.32c.58 0 6.976 3.198 9.592 2.326s.872-2.907 1.453-2.907c.582 0 2.616 1.452 3.78.29 1.162-1.163 2.034-4.65 1.453-4.36-.582.29-15.988 5.813-16.278 4.65z" stroke-opacity=".996" fill-rule="evenodd" transform="matrix(1.255 0 0 1.312 259.35 -430)" stroke="#512007" stroke-width=".475" fill="#fecf3e"/><path d="M362.48 521.58c1.163.29 23.836-6.104 23.836-6.104s0 2.035-.29 2.035-23.546 6.105-23.546 6.105v-2.035z" stroke-opacity=".996" fill-rule="evenodd" transform="matrix(1.255 0 0 1.312 259.35 -430)" stroke="#512007" stroke-width=".475" fill="#dd8b59"/><path d="M415.09 512.57s1.454 3.488 2.907 2.907 2.907-1.744 2.907-1.744 1.163 2.907 3.197 2.325c2.036-.58 3.2-3.78 3.2-3.78s2.033.583 2.905.292c.873-.29 2.035-4.94 2.035-4.94l-17.15 4.94z" stroke-opacity=".996" fill-rule="evenodd" transform="matrix(1.255 0 0 1.312 259.35 -430)" stroke="#512007" stroke-width=".475" fill="#fecf3e"/><path d="M413.34 540.77c-.29.58 1.454 2.035 2.907 2.035s2.035-2.035 2.325-1.454c.29.583.29 3.2 4.07 2.327s3.78-3.488 3.78-3.488-1.164.87 1.452 1.16c2.616.292 5.232-3.778 4.942-3.778-.29 0-18.894 3.49-19.476 3.198z" stroke-opacity=".996" fill-rule="evenodd" transform="matrix(1.255 0 0 1.312 259.35 -430)" stroke="#512007" stroke-width=".475" fill="#fecf3e"/><path d="M363.35 513.15c-.29 1.163.29 2.617.29 2.617l18.894-6.395s.872-1.454 0-1.454-19.475 5.814-19.184 5.232z" stroke-opacity=".996" fill-rule="evenodd" transform="matrix(1.255 0 0 1.312 259.35 -430)" stroke="#512007" stroke-width=".475" fill="#dd8b59"/><path d="M388.35 509.08c.58 0 19.475-6.104 19.475-6.104s.29 2.616 0 2.616-17.73 5.232-17.73 5.232l-1.745-1.744z" stroke-opacity=".996" fill-rule="evenodd" transform="matrix(1.255 0 0 1.312 259.35 -430)" stroke="#512007" stroke-width=".475" fill="#dd8b59"/><path d="M413.34 521.88s-2.907 3.197-2.035 7.557c.872 4.36 2.035 8.14 2.326 8.14s3.49-5.814 6.977-6.105 9.883 3.198 9.883 3.198-.872-6.977-.58-10.174c.29-3.198 5.23-8.72 5.23-8.72l-21.8 6.104z" stroke-opacity=".996" fill-rule="evenodd" transform="matrix(1.255 0 0 1.312 259.35 -430)" stroke="#512007" stroke-width=".475" fill="#fecf3e"/><path d="M386.89 516.64s-.58 2.616-.29 2.616 24.707-6.395 24.707-6.395v-1.743l-24.417 5.523z" stroke-opacity=".996" fill-rule="evenodd" transform="matrix(1.255 0 0 1.312 259.35 -430)" stroke="#512007" stroke-width=".475" fill="#dd8b59"/><path d="M355.5 551.82s-5.813-.872-5.523.58c.29 1.454 2.907 2.908 3.198 3.78.29.872-.872 4.07.872 3.78 1.744-.292 3.488-1.455 3.488-2.327s-.29-4.94-.29-4.94l-1.745-.873z" stroke-opacity=".996" fill-rule="evenodd" fill-opacity=".996" transform="matrix(1.255 0 0 1.312 259.35 -430)" stroke="#512007" stroke-width=".475" fill="#b6b6b4"/><path d="M387.76 537.28v2.034l20.93-2.906-.582-1.454-20.348 2.326z" stroke-opacity=".996" fill-rule="evenodd" transform="matrix(1.255 0 0 1.312 259.35 -430)" stroke="#512007" stroke-width=".475" fill="#dd8b59"/><path d="M363.06 540.77c.29 0 0 2.616 2.325 2.035 2.326-.582 2.907-2.035 2.907-2.035s.58 3.197 3.78 2.907c3.196-.29 4.94-3.78 4.94-3.78s.29 2.617 2.326 1.745 2.616-2.907 2.616-2.907l-18.313 2.616-.58-.58z" stroke-opacity=".996" fill-rule="evenodd" transform="matrix(1.255 0 0 1.312 259.35 -430)" stroke="#512007" stroke-width=".475" fill="#fecf3e"/><path d="M363.06 523.62s-2.616.872-1.744 6.104 2.907 8.14 3.197 8.14c.29 0 2.616-4.942 6.104-5.814 3.49-.873 9.593 2.616 9.593 2.616s-.582-4.65.29-9.01c.873-4.362 3.78-7.56 3.78-7.56s-20.348 5.524-21.22 5.524z" stroke-opacity=".996" fill-rule="evenodd" transform="matrix(1.255 0 0 1.312 259.35 -430)" stroke="#512007" stroke-width=".475" fill="#fecf3e"/><path d="M411.89 538.73l.29 1.744s20.93-2.616 20.93-2.907c0-.29 0-2.034-.29-2.034-.292 0-20.64 3.488-20.93 3.197z" stroke-opacity=".996" fill-rule="evenodd" transform="matrix(1.255 0 0 1.312 259.35 -430)" stroke="#512007" stroke-width=".475" fill="#dd8b59"/><path d="M411.6 520.13l.29 2.034 24.708-6.685s.582-1.745.29-1.745-24.707 7.267-25.288 6.395z" stroke-opacity=".996" fill-rule="evenodd" transform="matrix(1.255 0 0 1.312 259.35 -430)" stroke="#512007" stroke-width=".475" fill="#dd8b59"/><path d="M414.22 510.83s-.29 1.744 0 1.744 18.313-4.36 18.313-4.65c0-.29 1.744-2.036.29-1.745-1.453.29-18.02 5.522-18.603 4.65z" stroke-opacity=".996" transform="matrix(1.255 0 0 1.312 259.35 -430)" stroke="#512007" stroke-width=".475" fill="none"/><path d="M452.88 544.55l-18.03-28.49" stroke-opacity=".996" transform="matrix(1.255 0 0 1.312 259.35 -430)" stroke="#512007" stroke-width=".475" fill="none"/><path d="M432.53 535.83c.29-.872 1.163-18.312 1.163-18.312" stroke-opacity=".996" transform="matrix(1.255 0 0 1.312 259.35 -430)" stroke="#512007" stroke-width=".475" fill="none"/><path d="M388.93 509.96c1.163.29 3.198 3.197 4.36 2.616 1.163-.58 2.907-2.325 2.907-2.325s-.29 3.49 2.035 2.907c2.325-.58 2.616-2.906 2.616-2.906s1.744.873 3.197 0c1.454-.87 2.907-5.232 2.326-5.232s-16.858 5.233-17.44 4.942z" stroke-opacity=".996" fill-rule="evenodd" transform="matrix(1.255 0 0 1.312 259.35 -430)" stroke="#512007" stroke-width=".475" fill="#fecf3e"/><path d="M388.35 518.39c0 .58-2.907 5.232-2.035 9.592s2.616 8.43 2.907 8.43 4.65-4.65 8.43-5.523c3.778-.873 9.3 2.906 9.01 2.906-.29 0-1.453-4.36-1.453-7.558 0-3.198 4.36-13.08 4.36-13.08l-21.22 5.232z" stroke-opacity=".996" fill-rule="evenodd" transform="matrix(1.255 0 0 1.312 259.35 -430)" stroke="#512007" stroke-width=".475" fill="#fecf3e"/><path d="M388.35 539.32c0 .29.872 2.326 2.907 2.326 2.034 0 2.325-2.035 2.325-2.035s-.29 3.49 2.907 3.2c3.196-.292 4.36-3.49 4.36-3.49s.29 1.745 2.906.873c2.616-.873 6.104-3.78 5.813-3.78-.29 0-20.93 3.78-21.22 2.907z" stroke-opacity=".996" fill-rule="evenodd" transform="matrix(1.255 0 0 1.312 259.35 -430)" stroke="#512007" stroke-width=".475" fill="#fecf3e"/><use xlink:href="#k" transform="translate(-6.564 7.275)" height="496.063" width="992.126"/><use xlink:href="#k" transform="translate(6.564 3.758)" height="496.063" width="992.126"/><use xlink:href="#k" transform="translate(0 11.033)" height="496.063" width="992.126"/><path id="k" d="M408.98 476.96c0 1.044-.846 1.89-1.89 1.89s-1.89-.847-1.89-1.89.847-1.89 1.89-1.89 1.89.847 1.89 1.89z" stroke-opacity=".996" fill-rule="evenodd" fill-opacity=".996" transform="matrix(.041 -1.072 1.024 .043 251.6 667.92)" stroke="#512007" stroke-width=".581" fill="#be0f17"/><path d="M398.23 500.07c0-.29 9.01 3.78 9.01 4.07 0 .29 31.975 42.73 32.266 42.73" stroke-opacity=".996" transform="matrix(1.255 0 0 1.312 259.35 -430)" stroke="#512007" stroke-width=".475" fill="none"/><path d="M423.52 504.14l8.14 3.49 2.615 6.393" stroke-opacity=".996" transform="matrix(1.255 0 0 1.312 259.35 -430)" stroke="#512007" stroke-width=".475" fill="none"/><path d="M372.94 503.56c-.29 0 9.01 6.976 9.01 6.976l1.164 5.814" stroke-opacity=".996" transform="matrix(1.255 0 0 1.312 259.35 -430)" stroke="#512007" stroke-width=".475" fill="none"/><path d="M341.26 546c4.07-1.744 32.265-26.452 32.265-26.452" stroke-opacity=".996" transform="matrix(1.255 0 0 1.312 259.35 -430)" stroke="#512007" stroke-width=".475" fill="none"/><path d="M333.7 541.35c3.49-2.907 31.684-26.742 31.684-26.742" stroke-opacity=".996" transform="matrix(1.255 0 0 1.312 259.35 -430)" stroke="#512007" stroke-width=".475" fill="none"/><path d="M386.6 518.68l29.94 49.706" stroke-opacity=".996" transform="matrix(1.255 0 0 1.312 259.35 -430)" stroke="#512007" stroke-width=".475" fill="none"/><path d="M413.01 539.23s3.532 11.71 7.02 13.455 7.557 4.65 7.557 4.65" stroke-opacity=".996" transform="matrix(1.255 0 0 1.312 259.35 -430)" stroke="#512007" stroke-width=".475" fill="none"/><path d="M412.61 539.48s2.48 13.793 5.97 16.41 6.976 5.522 6.976 5.522" stroke-opacity=".996" transform="matrix(1.255 0 0 1.312 259.35 -430)" stroke="#512007" stroke-width=".475" fill="none"/><path d="M390.96 439.03s3.488 19.185 10.465 23.545c6.976 4.36 12.79 8.14 12.79 8.14" stroke-opacity=".996" transform="matrix(1.255 0 0 1.312 256.26 -299.49)" stroke="#512007" stroke-width=".475" fill="none"/><path d="M390.67 438.74s7.557 15.116 13.952 19.767c6.395 4.65 15.115 9.01 15.115 9.01" stroke-opacity=".996" transform="matrix(1.255 0 0 1.312 256.26 -299.49)" stroke="#512007" stroke-width=".475" fill="none"/><path d="M366.26 439.9c2.034 3.488 1.744 10.174 4.07 12.5 2.324 2.325 5.813 7.557 5.813 7.557" stroke-opacity=".996" transform="matrix(1.255 0 0 1.312 256.26 -299.49)" stroke="#512007" stroke-width=".475" fill="none"/><path d="M366.84 440.19c1.163 1.744 4.406 10.428 6.395 13.08 1.454 2.326 16.278 17.15 16.278 17.15" stroke-opacity=".996" transform="matrix(1.255 0 0 1.312 256.26 -299.49)" stroke="#512007" stroke-width=".475" fill="none"/><path d="M384.57 471.15c0 1.204-.976 2.18-2.18 2.18s-2.18-.976-2.18-2.18.976-2.18 2.18-2.18 2.18.976 2.18 2.18z" stroke-opacity=".996" fill-rule="evenodd" transform="matrix(1.255 0 0 1.312 256.26 -299.49)" stroke="#512007" stroke-width=".475"/><path d="M395.32 475.8c0 1.044-.846 1.89-1.89 1.89s-1.89-.847-1.89-1.89.847-1.89 1.89-1.89 1.89.847 1.89 1.89z" stroke-opacity=".996" fill-rule="evenodd" transform="matrix(1.255 0 0 1.312 256.26 -299.49)" stroke="#512007" stroke-width=".475"/><path d="M408.98 476.96c0 1.044-.846 1.89-1.89 1.89s-1.89-.847-1.89-1.89.847-1.89 1.89-1.89 1.89.847 1.89 1.89z" stroke-opacity=".996" fill-rule="evenodd" transform="matrix(1.255 0 0 1.312 256.26 -299.49)" stroke="#512007" stroke-width=".475"/><path d="M420.9 472.46c0 .963-.716 1.744-1.6 1.744-.882 0-1.597-.78-1.597-1.744 0-.963.715-1.744 1.598-1.744.884 0 1.6.78 1.6 1.744z" stroke-opacity=".996" fill-rule="evenodd" transform="matrix(1.255 0 0 1.312 256.26 -299.49)" stroke="#512007" stroke-width=".475"/><path d="M430.49 466.79c0 .883-.846 1.6-1.89 1.6s-1.89-.717-1.89-1.6c0-.883.847-1.6 1.89-1.6s1.89.717 1.89 1.6z" stroke-opacity=".996" fill-rule="evenodd" transform="matrix(1.255 0 0 1.312 256.26 -299.49)" stroke="#512007" stroke-width=".475"/><path d="M374.1 404.44c-.872.582-15.406 4.07-13.37 3.78 2.033-.29 13.66 2.906 13.37 2.034s0-5.232 0-5.814z" stroke-opacity=".996" fill-rule="evenodd" fill-opacity=".996" transform="matrix(1.255 0 0 1.312 256.26 -299.49)" stroke="#512007" stroke-width=".475" fill="#f00"/><path d="M398.81 400.08c-.582 0-9.012 3.198-8.72 3.198s9.592 2.616 9.3 2.034c-.29-.58-.29-4.36-.58-5.232z" stroke-opacity=".996" fill-rule="evenodd" fill-opacity=".996" transform="matrix(1.255 0 0 1.312 256.26 -299.49)" stroke="#512007" stroke-width=".475" fill="#f00"/><path d="M424.1 402.99c-.582.29-10.465 2.616-8.72 2.907s8.43 2.616 8.43 2.035c0-.582 0-4.65.29-4.942z" stroke-opacity=".996" fill-rule="evenodd" fill-opacity=".996" transform="matrix(1.255 0 0 1.312 256.26 -299.49)" stroke="#512007" stroke-width=".475" fill="#f00"/><path d="M413.64 471.01c.29-4.65 8.72-31.103 8.72-31.103" stroke-opacity=".996" transform="matrix(1.255 0 0 1.312 256.26 -299.49)" stroke="#512007" stroke-width=".475" fill="none"/><path d="M416.54 470.13c0-.29 6.686-29.94 6.686-29.94" stroke-opacity=".996" transform="matrix(1.255 0 0 1.312 256.26 -299.49)" stroke="#512007" stroke-width=".475" fill="none"/><path d="M419.45 467.81c.29-1.744 4.94-27.614 4.94-27.614" stroke-opacity=".996" transform="matrix(1.255 0 0 1.312 256.26 -299.49)" stroke="#512007" stroke-width=".475" fill="none"/><path d="M413.93 467.23c1.453-.872 5.813-2.035 5.813-2.035" stroke-opacity=".996" transform="matrix(1.255 0 0 1.312 256.26 -299.49)" stroke="#512007" stroke-width=".475" fill="none"/><path d="M415.96 462.58c1.453 0 4.36-1.163 4.36-1.163" stroke-opacity=".996" transform="matrix(1.255 0 0 1.312 256.26 -299.49)" stroke="#512007" stroke-width=".475" fill="none"/><path d="M416.83 459.09c0-.29 4.36-1.163 4.36-1.163" stroke-opacity=".996" transform="matrix(1.255 0 0 1.312 256.26 -299.49)" stroke="#512007" stroke-width=".475" fill="none"/><path d="M417.41 454.73l4.65-.872" stroke-opacity=".996" transform="matrix(1.255 0 0 1.312 256.26 -299.49)" stroke="#512007" stroke-width=".475" fill="none"/><path d="M419.45 450.95c0 .29 3.197.29 3.197.29" stroke-opacity=".996" transform="matrix(1.255 0 0 1.312 256.26 -299.49)" stroke="#512007" stroke-width=".475" fill="none"/><path d="M420.32 447.46c.58 0 3.197.58 3.197.58" stroke-opacity=".996" transform="matrix(1.255 0 0 1.312 256.26 -299.49)" stroke="#512007" stroke-width=".475" fill="none"/><path d="M413.64 471.01c.29-4.65 8.72-31.103 8.72-31.103" stroke-opacity=".996" transform="matrix(1.255 0 0 1.363 225.31 -323.36)" stroke="#512007" stroke-width=".475" fill="none"/><path d="M416.54 471.32c0-.29 6.686-31.127 6.686-31.127" stroke-opacity=".996" transform="matrix(1.255 0 0 1.363 225.31 -323.36)" stroke="#512007" stroke-width=".475" fill="none"/><path d="M418.83 471.37c.29-1.744 5.558-31.175 5.558-31.175" stroke-opacity=".996" transform="matrix(1.255 0 0 1.363 225.31 -323.36)" stroke="#512007" stroke-width=".475" fill="none"/><path d="M413.93 467.23c1.453-.872 5.813-2.035 5.813-2.035" stroke-opacity=".996" transform="matrix(1.255 0 0 1.363 225.31 -323.36)" stroke="#512007" stroke-width=".475" fill="none"/><path d="M415.96 462.58c1.453 0 4.36-1.163 4.36-1.163" stroke-opacity=".996" transform="matrix(1.255 0 0 1.363 225.31 -323.36)" stroke="#512007" stroke-width=".475" fill="none"/><path d="M416.83 459.09c0-.29 4.36-1.163 4.36-1.163" stroke-opacity=".996" transform="matrix(1.255 0 0 1.363 225.31 -323.36)" stroke="#512007" stroke-width=".475" fill="none"/><path d="M417.41 454.73l4.65-.872" stroke-opacity=".996" transform="matrix(1.255 0 0 1.363 225.31 -323.36)" stroke="#512007" stroke-width=".475" fill="none"/><path d="M419.45 450.95c0 .29 3.197.29 3.197.29" stroke-opacity=".996" transform="matrix(1.255 0 0 1.363 225.31 -323.36)" stroke="#512007" stroke-width=".475" fill="none"/><path d="M420.32 447.46c.58 0 3.197.58 3.197.58" stroke-opacity=".996" transform="matrix(1.255 0 0 1.363 225.31 -323.36)" stroke="#512007" stroke-width=".475" fill="none"/><path d="M413.64 471.01c.29-4.65 8.72-31.103 8.72-31.103" stroke-opacity=".996" transform="matrix(-1.255 0 0 1.32 1259.2 -307.28)" stroke="#512007" stroke-width=".474" fill="none"/><path d="M416.54 470.13c0-.29 6.686-29.94 6.686-29.94" stroke-opacity=".996" transform="matrix(-1.255 0 0 1.32 1259.2 -307.28)" stroke="#512007" stroke-width=".474" fill="none"/><path d="M419.45 467.81c.29-1.744 4.94-27.614 4.94-27.614" stroke-opacity=".996" transform="matrix(-1.255 0 0 1.32 1259.2 -307.28)" stroke="#512007" stroke-width=".474" fill="none"/><path d="M413.93 467.23c1.453-.872 5.813-2.035 5.813-2.035" stroke-opacity=".996" transform="matrix(-1.255 0 0 1.32 1259.2 -307.28)" stroke="#512007" stroke-width=".474" fill="none"/><path d="M415.96 462.58c1.453 0 4.36-1.163 4.36-1.163" stroke-opacity=".996" transform="matrix(-1.255 0 0 1.32 1259.2 -307.28)" stroke="#512007" stroke-width=".474" fill="none"/><path d="M416.83 459.09c0-.29 4.36-1.163 4.36-1.163" stroke-opacity=".996" transform="matrix(-1.255 0 0 1.32 1259.2 -307.28)" stroke="#512007" stroke-width=".474" fill="none"/><path d="M417.41 454.73l4.65-.872" stroke-opacity=".996" transform="matrix(-1.255 0 0 1.32 1259.2 -307.28)" stroke="#512007" stroke-width=".474" fill="none"/><path d="M419.45 450.95c0 .29 3.197.29 3.197.29" stroke-opacity=".996" transform="matrix(-1.255 0 0 1.32 1259.2 -307.28)" stroke="#512007" stroke-width=".474" fill="none"/><path d="M420.32 447.46c.58 0 3.197.58 3.197.58" stroke-opacity=".996" transform="matrix(-1.255 0 0 1.32 1259.2 -307.28)" stroke="#512007" stroke-width=".474" fill="none"/><path d="M426.42 558.5l27.614.582.29-2.035-28.486-.29.582 1.743z" stroke-opacity=".996" fill-rule="evenodd" transform="matrix(1.255 0 0 1.312 259.35 -430)" stroke="#512007" stroke-width=".475" fill="#dd8b59"/><path d="M427.59 551.23c3.198 0 27.324-4.65 27.324-4.65s.872-2.907 0-2.907-27.324 5.523-27.324 5.523v2.034z" stroke-opacity=".996" fill-rule="evenodd" transform="matrix(1.255 0 0 1.312 259.35 -430)" stroke="#512007" stroke-width=".475" fill="#dd8b59"/><use xlink:href="#k" transform="translate(0 5.516)" height="496.063" width="992.126"/></g></g></g></svg>