<svg xmlns="http://www.w3.org/2000/svg" height="480" width="640"><defs><clipPath id="a"><path fill-opacity=".67" d="M-64 0h640v512H-64z"/></clipPath></defs><g clip-path="url(#a)" transform="matrix(1 0 0 .938 64 0)"><g fill-rule="evenodd" stroke-width="1pt"><path fill="#fff" d="M-256 171.886H767.977v168.222H-256z"/><path fill="#3d25ca" d="M-256 340.108H767.977v171.886H-256z"/><path fill="#d60000" d="M-256 0H767.977v171.886H-256z"/></g><g><path d="M744.14 567.26c0 192.48-157.09 348.52-350.87 348.52S42.4 759.74 42.4 567.26s157.09-348.52 350.87-348.52 350.87 156.04 350.87 348.52z" fill-rule="evenodd" transform="matrix(.187 0 0 .189 182.222 148.871)" stroke="#000" stroke-width="12.91" fill="#fff"/><g stroke="#000" stroke-width="2.637"><g fill-rule="evenodd" fill="#006700"><path d="M264.91 225.393s25.22 10.88 20.63 33.515c-4.593 22.635-18.68 22.522-24.223 25.037-5.543 2.515-9.38 6.103-11.557 5.61-2.176-.496-5.044-2.177-5.044-2.177s-.26 3.716 4.173 4.38c4.43.664 10.313-5.892 13.12-6.627s20.02-2.654 24.382-25.685c5.073-24.585-21.33-33.33-21.48-34.052z"/><g><path d="M277.757 229.923c.48 1.855.495 3.393.038 3.436s-1.217-1.427-1.696-3.28c-.48-1.856-.496-3.394-.04-3.437s1.218 1.426 1.697 3.28z"/><path d="M276.496 230.472c.838 1.795 1.18 3.377.766 3.535s-1.43-1.17-2.268-2.965c-.838-1.795-1.18-3.377-.765-3.535s1.43 1.17 2.266 2.965z"/><path d="M274.123 232.43c1.795.538 3.215 1.357 3.172 1.83s-1.533.417-3.328-.12c-1.794-.54-3.214-1.36-3.172-1.83s1.533-.42 3.328.12z"/><path d="M274.415 231.582c1.615 1.136 2.762 2.382 2.562 2.783s-1.672-.196-3.287-1.333c-1.616-1.137-2.763-2.383-2.562-2.783s1.672.195 3.287 1.332z"/><path d="M275.525 230.67c1.376 1.436 2.248 2.855 1.947 3.17s-1.66-.594-3.035-2.03c-1.376-1.436-2.248-2.855-1.947-3.17s1.66.594 3.035 2.03z"/><path d="M277.56 233.91c.015.016-.974.567-1.2.65-.224.084-.54-.292-1.183.05s-1.08.953-1.214 1.31c-.135.36.195.504.974.113s.974-.998 1.35-1.24c.374-.24 1.003-.597 1.363-.73.15-.343.644-1.08.9-1.504.254-.424 1.273-1.13 1.632-1.94.315-.672.18-1.238-.255-.995-.434.243-.99.92-1.243 1.406-.255.485-.015 1.095-.3 1.55-.225.33-.764 1.33-.824 1.33z"/></g><g><path d="M284.958 236.375c0 2.872-.522 5.072-1.166 4.915s-1.166-2.613-1.166-5.484c0-2.872.522-5.072 1.166-4.915s1.166 2.614 1.166 5.485z"/><path d="M283.893 236.42c.6 2.932.573 5.33-.056 5.36s-1.625-2.325-2.223-5.256c-.598-2.932-.573-5.33.057-5.36s1.625 2.325 2.223 5.256z"/><path d="M279.76 237.84c2.273 1.555 3.93 3.35 3.7 4.007s-2.256-.07-4.53-1.625c-2.272-1.555-3.93-3.35-3.7-4.008s2.257.07 4.53 1.625z"/><path d="M280.46 236.75c1.853 2.334 3.02 4.62 2.605 5.106s-2.254-1.01-4.11-3.344c-1.853-2.333-3.02-4.618-2.605-5.105s2.254 1.01 4.11 3.344z"/><path d="M282.454 236.337c1.436 2.692 2.17 5.13 1.642 5.445s-2.123-1.613-3.558-4.305c-1.436-2.692-2.17-5.13-1.642-5.444s2.123 1.612 3.558 4.304z"/><path d="M283.698 241.728c.015.028-1.557.366-1.898.383-.342.018-.633-.665-1.65-.47s-1.85.874-2.17 1.325c-.32.45.078.81 1.3.605s1.72-.985 2.328-1.16c.608-.174 1.61-.397 2.157-.424.336-.423 1.297-1.254 1.808-1.743.51-.49 2.183-1.036 2.986-2.034.686-.818.715-1.69.024-1.54-.692.15-1.712.867-2.247 1.445-.534.577-.434 1.56-1 2.08-.433.37-1.556 1.558-1.64 1.533z"/></g><g><path d="M288.852 247.28c-.538 2.872-1.462 4.968-2.063 4.682s-.652-2.846-.114-5.717c.54-2.872 1.462-4.968 2.063-4.682s.65 2.846.112 5.718z"/><path d="M287.895 246.855c.06 3.05-.39 5.454-1.005 5.37s-1.162-2.63-1.222-5.68c-.06-3.052.39-5.456 1.005-5.37s1.163 2.63 1.222 5.68z"/><path d="M283.94 247.24c1.974 1.975 3.296 4.074 2.953 4.69s-2.222-.488-4.197-2.462c-1.974-1.974-3.296-4.073-2.952-4.688s2.222.486 4.196 2.46z"/><path d="M284.278 246.672c1.376 2.692 2.098 5.2 1.61 5.6s-1.995-1.458-3.37-4.15c-1.377-2.692-2.098-5.2-1.612-5.6s1.997 1.458 3.372 4.15z"/><path d="M286.384 246.686c.898 2.99 1.16 5.59.59 5.805s-1.765-2.036-2.662-5.027c-.897-2.99-1.16-5.59-.59-5.804s1.765 2.035 2.662 5.026z"/><path d="M286.832 252.334c.01.032-1.565.067-1.898.017-.333-.05-.506-.798-1.522-.8s-1.928.525-2.31.92c-.384.394-.055.835 1.16.867s1.822-.66 2.44-.72c.615-.058 1.62-.088 2.153-.008.393-.364 1.456-1.018 2.028-1.415.573-.396 2.278-.622 3.214-1.477.796-.694.963-1.573.27-1.556-.693.016-1.795.544-2.405 1.025-.61.482-.67 1.497-1.298 1.915-.48.29-1.755 1.274-1.832 1.232z"/></g><g><path d="M289.754 258.56c-1.556 2.454-3.176 4.037-3.62 3.536s.46-2.895 2.014-5.348c1.555-2.453 3.176-4.035 3.62-3.534s-.46 2.895-2.014 5.347z"/><path d="M289.02 257.788c-1.078 2.81-2.38 4.812-2.91 4.47s-.085-2.902.992-5.714c1.077-2.81 2.38-4.812 2.908-4.47s.086 2.902-.99 5.714z"/><path d="M284.847 256.29c1.017 2.633 1.4 5.115.857 5.544s-1.808-1.357-2.825-3.99c-1.018-2.63-1.402-5.113-.858-5.542s1.808 1.357 2.825 3.99z"/><path d="M286.315 255.977c.3 3.05.054 5.664-.546 5.835s-1.332-2.162-1.63-5.213c-.3-3.052-.055-5.665.545-5.836s1.33 2.162 1.63 5.213z"/><path d="M287.62 256.91c-.3 3.11-1.03 5.597-1.63 5.554s-.846-2.6-.547-5.71c.3-3.11 1.03-5.598 1.63-5.555s.845 2.598.546 5.71z"/><path d="M285.635 261.83c-.004.03-1.45-.6-1.732-.784-.283-.183-.147-.906-1.07-1.334s-1.958-.354-2.46-.173c-.503.18-.377.702.716 1.24s1.914.19 2.496.4c.583.208 1.51.604 1.962.897.5-.15 1.722-.272 2.398-.375.676-.103 2.314.417 3.5.068.996-.268 1.492-.96.856-1.237-.636-.276-1.845-.28-2.588-.12-.743.162-1.195 1.018-1.932 1.116-.55.05-2.094.367-2.148.3z"/></g><g><path d="M286.372 270.496c-2.512 2.154-4.804 3.32-5.12 2.605s1.468-3.04 3.98-5.194c2.513-2.154 4.805-3.32 5.12-2.604s-1.467 3.04-3.98 5.194z"/><path d="M285.678 269.295c-2.153 2.752-4.282 4.53-4.754 3.973s.89-3.24 3.045-5.993c2.152-2.752 4.28-4.53 4.753-3.973s-.89 3.242-3.045 5.993z"/><path d="M281.527 266.467c.24 3.29-.158 6.178-.888 6.45s-1.516-2.175-1.755-5.466c-.24-3.29.158-6.177.888-6.448s1.515 2.175 1.754 5.465z"/><path d="M283.197 266.316c-.718 3.47-1.88 6.26-2.595 6.23s-.714-2.864.004-6.333c.718-3.47 1.88-6.26 2.595-6.23s.714 2.863-.003 6.333z"/><path d="M284.47 267.373c-1.376 3.29-3.013 5.75-3.657 5.49s-.05-3.133 1.326-6.423c1.375-3.29 3.012-5.75 3.656-5.49s.05 3.132-1.326 6.423z"/><path d="M280.38 273.05c-.016.035-1.358-1.19-1.6-1.498-.24-.31.167-1.086-.68-1.897s-2-1.09-2.61-1.058c-.61.032-.66.67.33 1.667s2.01.888 2.57 1.33c.557.44 1.42 1.216 1.806 1.71.596.002 1.966.29 2.737.41.77.117 2.363 1.283 3.775 1.3 1.177.04 1.965-.577 1.374-1.115-.592-.54-1.902-.967-2.766-1.04-.864-.076-1.664.743-2.498.598-.614-.135-2.406-.31-2.44-.408z"/></g><g><path d="M277.635 281.106c-3.59.598-6.418.376-6.318-.497s3.092-2.066 6.68-2.664c3.59-.6 6.42-.376 6.32.497s-3.093 2.065-6.682 2.663z"/><path d="M277.364 279.582c-3.59 1.376-6.603 1.83-6.732 1.015s2.677-2.592 6.266-3.968c3.59-1.376 6.604-1.83 6.732-1.015s-2.676 2.592-6.266 3.967z"/><path d="M275.468 274.33c-1.615 3.29-3.62 5.83-4.48 5.672s-.243-2.953 1.372-6.243c1.615-3.29 3.62-5.83 4.48-5.674s.243 2.953-1.372 6.243z"/><path d="M277.124 275.475c-2.572 2.93-5.19 4.948-5.85 4.505s.895-3.18 3.467-6.11c2.574-2.933 5.193-4.95 5.85-4.506s-.893 3.18-3.466 6.11z"/><path d="M277.864 277.517c-3.11 2.393-6.015 3.823-6.487 3.194s1.667-3.08 4.778-5.472c3.11-2.393 6.015-3.823 6.487-3.193s-1.667 3.08-4.778 5.472z"/><path d="M270.873 280.095c-.033.025-.666-1.915-.733-2.348-.067-.433.746-.946.366-2.206s-1.338-2.182-1.944-2.5c-.607-.318-1 .266-.58 1.786s1.46 1.997 1.758 2.738c.3.74.713 1.976.82 2.67.573.342 1.738 1.4 2.418 1.952.68.553 1.585 2.578 2.937 3.4 1.112.71 2.204.567 1.925-.286-.28-.853-1.312-2.01-2.105-2.574-.793-.565-2.005-.235-2.73-.85-.52-.48-2.152-1.67-2.132-1.78z"/></g><g><path d="M267.428 287.08c-3.65.046-6.6-.783-6.586-1.85s2.98-1.97 6.63-2.015c3.65-.045 6.6.784 6.587 1.85s-2.982 1.97-6.632 2.016z"/><path d="M266.455 280.98c-2.344 3.02-4.867 4.933-5.637 4.275s.506-3.64 2.85-6.658c2.342-3.02 4.866-4.933 5.636-4.275s-.506 3.64-2.85 6.658z"/><path d="M267.263 284.17c-3.424 1.488-6.492 1.898-6.852.917s2.125-2.98 5.55-4.468c3.424-1.488 6.492-1.898 6.852-.918s-2.124 2.982-5.55 4.47z"/></g><g><path d="M270.065 225.702c1.713 1.487 2.75 2.884 2.314 3.12s-2.176-.78-3.888-2.266c-1.712-1.487-2.748-2.883-2.314-3.12s2.175.78 3.887 2.266z"/><path d="M267.695 227.392c2.298.27 4.232.872 4.32 1.344s-1.707.635-4.005.365-4.232-.87-4.32-1.343 1.707-.635 4.005-.365z"/><path d="M268.723 226.564c2.163 1.08 3.725 2.26 3.49 2.632s-2.18-.202-4.344-1.284c-2.164-1.08-3.726-2.26-3.49-2.632s2.18.202 4.343 1.283z"/></g></g><g fill-rule="evenodd" fill="#006700"><path d="M238.45 280.65s5.617 1.196 10.506 2.962c4.89 1.766 12.336 7.84 14.33 8.18 2.235.1 5.33-.666 6.488-3.89-3.436.92-5.492 2.316-8.788.516-1.163-.438-4.984-3.892-9.162-5.738-4.177-1.846-12.593-3.947-12.593-3.947l-.78 1.917z"/><path d="M244.618 229.608c-.02-.048 6.398-3.342 6.398-3.342l-7.06 1.75-.817 1.243 1.478.348z"/><path d="M250.687 231.692c-2.48-.434-6.293-1.245-8.72-1.42 1.676-1.907 3.986-5.126 5.41-7.103-.94 1.88-2.415 4.363-2.997 6.16 1.71.922 4.397 1.63 6.308 2.362z"/><path d="M243.096 230.122c-.03-.045 5.755-4.432 5.755-4.432l-6.687 2.955-.593 1.382 1.526.095z"/><path d="M249.42 231.56c-2.51-.463-6.37-1.322-8.823-1.52 1.65-1.934 3.913-5.202 5.307-7.208-.908 1.912-2.344 4.435-2.893 6.266 1.744.955 4.468 1.7 6.41 2.463z"/><path d="M242.19 230.823c-.016-.05 6.812-2.868 6.812-2.868l-7.318 1.236-.955 1.18 1.46.453z"/><path d="M248.474 231.67c-2.56-.193-6.518-.64-8.988-.566 1.416-2.167 3.28-5.77 4.432-7.98-.677 2.06-1.807 4.806-2.136 6.743 1.854.783 4.662 1.24 6.692 1.803z"/><path d="M241.665 230.85c-.036-.036 4.618-5.622 4.618-5.622l-5.823 4.38-.283 1.488 1.488-.245z"/><path d="M248.746 231.782c-2.707-.06-6.905-.31-9.493-.086 1.284-2.426 2.906-6.432 3.908-8.892-.517 2.27-1.448 5.306-1.61 7.42 2.02.738 5.012 1.068 7.197 1.558z"/><path d="M240.428 232.18c-.035-.047 5.628-5.318 5.628-5.318l-6.793 3.726-.474 1.584 1.638.01z"/><path d="M247.285 232.09c-2.935.016-7.453-.135-10.32.192 1.933-2.738 4.585-7.245 6.22-10.013-1.066 2.54-2.75 5.947-3.395 8.304 2.038.76 5.224 1.037 7.496 1.516z"/><path d="M238.813 232.588c-.028-.053 7.074-6.064 7.074-6.064l-8.006 4.315-.82 1.776 1.753-.028z"/><path d="M246.322 232.277c-2.9.423-7.39.903-10.176 1.62 1.49-2.943 3.42-7.714 4.61-10.645-.663 2.63-1.803 6.192-2.078 8.585 2.132.46 5.325.287 7.645.44z"/><path d="M237.664 233.472c-.04-.042 5.522-7.52 5.522-7.52l-6.882 6.122-.373 1.88 1.734-.482z"/><path d="M244.807 232.896c-2.908.25-7.4.46-10.214 1.008 1.673-2.815 3.9-7.406 5.275-10.225-.83 2.553-2.196 5.997-2.626 8.34 2.088.576 5.27.59 7.565.875z"/><path d="M237.11 234.76c-.03-.054 6.908-6.065 6.908-6.065l-7.842 4.315-.79 1.777 1.723-.028z"/><path d="M243.86 233.364c-2.912.608-7.426 1.38-10.21 2.266 1.388-2.968 3.142-7.747 4.225-10.682-.562 2.607-1.57 6.154-1.75 8.504 2.17.303 5.386-.08 7.734-.09z"/><path d="M236.036 234.403c-.047-.034 4.427-8.197 4.427-8.197l-5.98 7.07-.105 1.88 1.658-.753z"/><path d="M244.11 233.84c-3.098.81-7.925 1.873-10.848 2.987 1.125-3.36 2.414-8.742 3.21-12.05-.27 2.92-.906 6.902-.796 9.518 2.41.236 5.872-.338 8.434-.456z"/><path d="M235.02 236.608c-.046-.048 5.582-8.287 5.582-8.287l-7.135 6.695-.3 2.092 1.854-.5z"/><path d="M242.73 234.776c-3.06.966-7.838 2.272-10.71 3.53.97-3.408 2.008-8.847 2.652-12.19-.137 2.928-.587 6.936-.354 9.542 2.42.113 5.856-.635 8.412-.882z"/><path d="M233.712 237.593c-.055-.04 4.3-9.106 4.3-9.106l-6.088 7.824.017 2.102 1.772-.82z"/><path d="M241.538 236.216c-3.136.733-8.013 1.675-10.987 2.716 1.282-3.333 2.82-8.69 3.773-11.98-.408 2.916-1.23 6.886-1.24 9.507 2.4.296 5.888-.19 8.455-.244z"/><path d="M232.91 238.51c-.04-.056 6.903-7.116 6.903-7.116l-8.148 5.25-.66 2.008 1.904-.142z"/><path d="M239.776 237.332c-3.143.42-8.022.878-11.024 1.627 1.463-3.232 3.3-8.476 4.437-11.698-.577 2.898-1.623 6.818-1.788 9.46 2.354.542 5.832.404 8.375.61z"/><path d="M231.703 238.444c-.05-.042 4.693-9.005 4.693-9.005l-6.364 7.605-.1 2.134 1.77-.736z"/><path d="M240.36 236.445c-3.4 1.408-8.712 3.372-11.898 5.105 1.044-4.058 2.145-10.485 2.828-14.435-.122 3.42-.582 8.127-.296 11.138 2.7-.093 6.52-1.283 9.366-1.81z"/><path d="M230.572 240.57c-.054-.047 5.784-10.263 5.784-10.263l-7.57 8.67-.24 2.433 2.026-.84z"/><path d="M238.768 237.368c-3.363 1.544-8.625 3.727-11.76 5.58.89-4.03 1.74-10.39 2.27-14.297.013 3.363-.262 8.002.145 10.942 2.71-.22 6.504-1.572 9.345-2.225z"/><path d="M229.462 242.336c-.062-.035 4.152-11.02 4.152-11.02l-6.21 9.855.156 2.38 1.902-1.214z"/><path d="M237.696 238.3c-3.315 1.574-8.504 3.805-11.59 5.68.838-4.003 1.61-10.312 2.094-14.19.05 3.33-.173 7.928.262 10.835 2.683-.254 6.426-1.642 9.234-2.325z"/><path d="M228.18 243.607c-.05-.052 6.508-9.69 6.508-9.69l-8.177 7.942-.41 2.397 2.08-.65z"/><path d="M237.274 238.046c-2.97 2.373-7.67 5.863-10.35 8.465.004-4.05-.53-10.29-.85-14.127.736 3.173 1.465 7.632 2.5 10.3 2.614-.943 6.05-3.25 8.7-4.638z"/><path d="M228.642 244.345c-.07-.01.87-11.71.87-11.71l-3.2 11.4.832 2.137 1.498-1.827z"/><path d="M236.52 239.01c-2.97 2.344-7.67 5.786-10.35 8.364.004-4.077-.53-10.366-.85-14.233.736 3.206 1.465 7.706 2.5 10.407 2.614-.91 6.05-3.18 8.7-4.537z"/><path d="M227.815 245.812c-.066-.028 3.1-11.388 3.1-11.388l-5.276 10.456.385 2.345 1.79-1.413z"/><path d="M236.266 239.312c-2.8 2.76-7.253 6.857-9.73 9.824-.412-4.178-1.6-10.558-2.324-14.48 1.082 3.194 2.286 7.716 3.62 10.36 2.58-1.25 5.862-3.993 8.434-5.705z"/><path d="M228.024 247.185c-.073-.01.664-12.06.664-12.06l-3.073 11.71.902 2.215 1.507-1.865z"/><path d="M235.503 241.394c-2.98 2.488-7.704 6.15-10.38 8.876-.1-4.233-.81-10.75-1.237-14.76.837 3.314 1.7 7.97 2.825 10.756 2.655-.994 6.115-3.414 8.793-4.873z"/><path d="M227.178 249.093c-.063-.04 4.296-11.414 4.296-11.414l-6.394 10.13.15 2.498 1.948-1.215z"/><path d="M235.217 241.382c-2.662 2.81-6.898 6.98-9.255 9.996-.385-4.23-1.503-10.687-2.184-14.657 1.022 3.232 2.16 7.807 3.42 10.477 2.453-1.278 5.574-4.07 8.02-5.816z"/><path d="M227.66 249.55c-.075 0-.512-12.054-.512-12.054l-1.936 12.016 1.12 2.083 1.327-2.044z"/><path d="M233.75 242.055c-2.595 2.81-6.734 6.98-9.016 9.996-.514-4.23-1.834-10.686-2.64-14.656 1.127 3.23 2.41 7.806 3.76 10.476 2.43-1.278 5.487-4.07 7.896-5.816z"/><path d="M226.546 250.608c-.068-.02 1.408-12.23 1.408-12.23l-3.66 11.57.707 2.374 1.546-1.714z"/><path d="M233.577 242.894c-2.334 3.082-6.083 7.687-8.092 10.944-.852-4.176-2.68-10.493-3.797-14.38 1.374 3.114 3.012 7.553 4.562 10.082 2.297-1.534 5.09-4.648 7.328-6.647z"/><path d="M226.73 251.928c-.07-.003-.776-12.24-.776-12.24L224.4 251.85l1.116 2.13 1.215-2.052z"/><path d="M233.064 243.525c-2.22 3.22-5.797 8.043-7.68 11.42-1.035-4.15-3.14-10.397-4.43-14.24 1.515 3.053 3.35 7.425 5.018 9.882 2.246-1.66 4.925-4.936 7.092-7.062z"/><path d="M227.683 252.79c-.068-.022 1.244-12.27 1.244-12.27l-3.497 11.532.737 2.415 1.516-1.677z"/><path d="M232.68 244.642c-1.91 3.503-5.026 8.786-6.588 12.4-1.422-3.99-4.112-9.925-5.76-13.577 1.798 2.835 4.043 6.94 5.937 9.16 2.084-1.955 4.45-5.576 6.41-7.983z"/><path d="M226.876 253.917c-.07.02-3.393-11.694-3.393-11.694l1.1 12.316 1.55 1.74.743-2.363z"/><path d="M232.355 245.646c-2.018 3.455-5.303 8.664-6.96 12.23-1.424-3.94-4.135-9.798-5.796-13.403 1.825 2.8 4.097 6.85 6.03 9.045 2.18-1.93 4.667-5.5 6.725-7.873z"/><path d="M226.82 256.45c-.073 0-1.15-12.363-1.15-12.363l-1.26 12.363 1.214 2.12 1.196-2.12z"/><path d="M232.622 246.87c-2.066 3.426-5.424 8.587-7.13 12.128-1.373-3.965-4.007-9.872-5.62-13.506 1.79 2.83 4.008 6.923 5.913 9.15 2.208-1.896 4.746-5.43 6.837-7.772z"/><path d="M227.1 257.238c-.073.01-2.303-12.03-2.303-12.03l-.106 12.34 1.41 1.932 1-2.242z"/><path d="M232.14 248.867c-2.18 3.307-5.71 8.275-7.542 11.722-1.19-4.07-3.546-10.172-4.99-13.926 1.65 2.958 3.673 7.21 5.46 9.568 2.26-1.76 4.91-5.147 7.072-7.366z"/><path d="M226.134 258.826c-.07-.02 1.036-12.372 1.036-12.372l-3.367 11.75.805 2.384 1.526-1.762z"/><path d="M232.207 249.292c-1.873 3.59-4.94 9.018-6.45 12.703-1.577-3.912-4.518-9.7-6.32-13.262 1.935 2.74 4.364 6.724 6.38 8.846 2.096-2.057 4.434-5.788 6.39-8.29z"/><path d="M225.55 259.544c-.07.023-3.743-11.466-3.743-11.466l1.413 12.204 1.625 1.655.706-2.393z"/><path d="M231.647 249.892c-1.313 3.907-3.528 9.864-4.47 13.78-2.122-3.44-5.856-8.395-8.146-11.445 2.3 2.222 5.27 5.54 7.558 7.146 1.757-2.467 3.505-6.614 5.06-9.482z"/><path d="M229.092 260.15c-.07.026-4.053-11.257-4.053-11.257l1.76 12.074 1.66 1.586.632-2.402z"/><path d="M231.346 250.978c-1.313 3.907-3.528 9.864-4.47 13.78-2.122-3.44-5.856-8.395-8.146-11.445 2.3 2.222 5.268 5.54 7.558 7.146 1.756-2.468 3.504-6.615 5.058-9.483z"/><path d="M228.608 262.274c-.067.035-5.164-10.573-5.164-10.573l2.95 11.74 1.818 1.32.396-2.486z"/><path d="M231.25 252.142c-.82 4.075-2.28 10.32-2.73 14.35-2.535-3.1-6.86-7.463-9.515-10.15 2.56 1.863 5.922 4.716 8.397 5.97 1.44-2.713 2.66-7.092 3.85-10.17z"/><path d="M229.252 264.41c-.072.015-2.777-11.943-2.777-11.943l.406 12.41 1.477 1.85.895-2.316z"/><path d="M231.175 253.4c-.44 4.165-1.32 10.577-1.402 14.647-2.768-2.734-7.407-6.48-10.254-8.787 2.68 1.502 6.238 3.877 8.78 4.783 1.172-2.896 1.982-7.42 2.875-10.645z"/><path d="M229.226 265.06c-.056.054-7.446-8.566-7.446-8.566l5.58 10.39 2.064.7-.198-2.525z"/><path d="M231.23 254.627c-.47 4.136-1.397 10.5-1.503 14.546-2.794-2.76-7.48-6.553-10.36-8.89 2.716 1.532 6.312 3.948 8.888 4.886 1.205-2.863 2.052-7.35 2.975-10.544z"/><path d="M230.57 267.11c-.064.038-5.78-10.346-5.78-10.346l3.644 11.627 1.892 1.234.245-2.515z"/><path d="M231.813 256.747c-.267 4.206-.878 10.69-.79 14.78-2.896-2.603-7.715-6.125-10.675-8.296 2.76 1.37 6.434 3.574 9.027 4.353 1.055-2.968 1.677-7.552 2.438-10.837z"/><path d="M231.145 268.746c-.06.052-7.158-8.958-7.158-8.958l5.216 10.667 2.046.815-.105-2.524z"/><path d="M231.647 258.667c-.267 4.206-.878 10.69-.79 14.78-2.896-2.603-7.715-6.125-10.675-8.296 2.76 1.37 6.434 3.574 9.027 4.353 1.054-2.968 1.676-7.552 2.437-10.837z"/><path d="M231.657 270.778c-.068.03-5.02-10.967-5.02-10.967l2.766 12.017 1.81 1.437.444-2.486z"/><path d="M231.715 259.916c.11 4.22.083 10.75.54 14.807-3.13-2.212-8.262-5.087-11.415-6.862 2.88 1.005 6.75 2.717 9.412 3.153.788-3.09.998-7.73 1.463-11.097z"/><path d="M232.723 269.802c-.043.07-9.17-6.167-9.17-6.167l7.77 8.46 2.163.09-.763-2.383z"/><path d="M231.844 260.193c.315 4.18.602 10.662 1.254 14.668-3.23-2.055-8.496-4.68-11.73-6.3 2.925.867 6.873 2.394 9.552 2.71.637-3.102.623-7.716.924-11.077z"/><path d="M233.46 272.3c-.056.054-7.61-8.77-7.61-8.77l5.745 10.52 2.09.766-.225-2.515z"/><path d="M232.765 261.882c.518 4.172 1.12 10.652 1.968 14.63-3.334-1.874-8.73-4.2-12.047-5.636 2.97.7 6.995 2 9.692 2.16.487-3.144.248-7.768.386-11.155z"/><path d="M234.828 273.585c-.044.068-9.026-6.353-9.026-6.353l7.588 8.607 2.154.138-.716-2.393z"/><path d="M232.916 263.67c.78 4.127 1.796 10.556 2.886 14.453-3.385-1.535-8.817-3.31-12.155-4.41 2.95.397 6.974 1.288 9.623 1.172.27-3.2-.267-7.81-.355-11.216z"/><path d="M236.043 275.198c-.056.052-7.446-8.958-7.446-8.958l5.58 10.667 2.064.815-.197-2.524z"/><path d="M233.512 264.814c1.17 4.014 2.79 10.294 4.246 14.036-3.512-1.066-9.084-2.09-12.508-2.728 2.973-.01 7.06.324 9.682-.157-.036-3.234-1.01-7.76-1.42-11.152z"/><path d="M236.7 275.448c-.014.082-10.495-2.308-10.495-2.308l9.99 5.028 2.013-.752-1.507-1.968z"/><path d="M234.34 265.747c1.17 3.985 2.79 10.217 4.246 13.935-3.512-1.092-9.084-2.165-12.508-2.833 2.973.02 7.06.395 9.682-.053-.036-3.2-1.01-7.69-1.42-11.05z"/><path d="M237.9 275.916c-.03.074-9.967-4.764-9.967-4.764l8.92 7.212 2.15-.216-1.102-2.232z"/><path d="M233.56 266.573c1.958 3.64 4.816 9.383 6.998 12.697-3.662-.26-9.34-.026-12.83.11 2.918-.667 6.996-1.243 9.474-2.29-.687-3.132-2.555-7.315-3.642-10.517z"/><path d="M239.613 277.004c-.02.08-10.416-2.844-10.416-2.844l9.755 5.487 2.064-.627-1.403-2.016z"/><path d="M234.687 268.268c1.987 3.64 4.893 9.383 7.1 12.697-3.637-.26-9.265-.026-12.725.11 2.884-.667 6.923-1.243 9.368-2.29-.72-3.132-2.625-7.315-3.743-10.517z"/><path d="M241.115 278.077c-.038.07-9.745-5.837-9.745-5.837l8.5 8.13 2.196.034-.95-2.327z"/><path d="M235.534 269.396c2.308 3.42 5.723 8.845 8.22 11.906-3.635.207-9.2 1.172-12.623 1.758 2.803-1.047 6.76-2.15 9.09-3.525-1.005-3.07-3.28-7.05-4.686-10.14z"/><path d="M241.664 278.957c-.003.084-10.448-.288-10.448-.288l10.332 3.084 1.84-1.13-1.724-1.667z"/><path d="M247.63 228.098c0-.033 7.603-1.253 7.603-1.253l-7.565.165-1.32.673 1.28.415z"/><path d="M251.958 229.8c-2.19-.66-5.5-1.768-7.752-2.254 2.41-.97 5.978-2.687 8.175-3.74-1.692 1.066-4.15 2.437-5.466 3.505 1.248.857 3.522 1.726 5.044 2.49z"/><path d="M247.535 228.53c-.008-.033 7.27-2.057 7.27-2.057l-7.54 1.007-1.133.794 1.403.255z"/><path d="M252.532 230.442c-2.536-.23-6.424-.702-8.93-.712 1.912-1.723 4.598-4.602 6.253-6.37-1.144 1.66-2.898 3.862-3.662 5.428 1.693.69 4.42 1.14 6.34 1.653z"/><path d="M245.03 229.24c.007-.032 7.525-.922 7.525-.922l-7.33-.165-1.372.617 1.178.47z"/><path d="M250.755 230.474c-2.29-.456-5.768-1.25-8.088-1.538 2.226-1.073 5.476-2.923 7.476-4.058-1.498 1.11-3.704 2.56-4.826 3.645 1.387.706 3.795 1.35 5.44 1.95z"/><path d="M244.06 228.77c-.018-.027 6.75-2.815 6.75-2.815l-7.37 1.884-.895.875 1.516.056z"/><path d="M250.19 231.357c-1.935-.81-4.9-2.182-6.817-2.754 1.5-1.388 3.614-3.822 4.917-5.315-.91 1.493-2.297 3.422-2.915 4.903 1.28 1.107 3.358 2.194 4.816 3.167z"/><path d="M244.526 229.505c-.015-.044 5.185-2.29 5.185-2.29l-5.65.814-.693 1.014 1.16.46z"/><path d="M240.254 278.422c.004.083-10.816.02-10.816.02l10.933 2.738 1.806-1.167-1.922-1.59z"/><path d="M242.34 278.738c-.012.078-10.947-2.537-10.947-2.537l10.52 5.14 2.057-.662-1.63-1.94z"/><path d="M244.09 279.25c0 .084-10.88-.493-10.88-.493l10.88 3.214 1.864-1.06-1.865-1.66z"/><path d="M237.028 271.54c2.814 3.084 7.028 7.997 9.983 10.712-3.655.57-9.165 2.07-12.555 2.986 2.697-1.3 6.555-2.772 8.73-4.34-1.445-2.876-4.305-6.503-6.158-9.357z"/><path d="M245.055 280.25c-.02.077-10.746-3.567-10.746-3.567l10.084 6.093 2.12-.454-1.46-2.072z"/><path d="M238.034 272.513c3.07 2.803 7.694 7.302 10.863 9.72-3.524.984-8.77 3.117-11.998 4.422 2.51-1.616 6.14-3.537 8.11-5.366-1.704-2.748-4.872-6.098-6.976-8.777z"/><path d="M246.084 280.748c.016.084-10.253 2-10.253 2l10.798.76 1.528-1.507-2.072-1.252z"/><path d="M243.78 279.982c.01.082-10.71.824-10.71.824l11.02 1.896 1.706-1.288-2.016-1.432z"/><path d="M245.904 280.482c-.007.08-11.007-1.69-11.007-1.69l10.774 4.332 1.986-.824-1.752-1.818z"/><path d="M247.558 281.417c.006.082-10.773.164-10.773.164l10.967 2.556 1.765-1.175-1.96-1.543z"/><path d="M240.196 274.16c3.01 2.92 7.54 7.588 10.66 10.13-3.576.803-8.92 2.658-12.207 3.792 2.573-1.476 6.284-3.2 8.32-4.91-1.638-2.8-4.732-6.262-6.774-9.012z"/><path d="M249.71 281.59c-.015.08-11.135-2.72-11.135-2.72l10.667 5.286 2.106-.615-1.64-1.95z"/><path d="M241.732 274.49c3.294 2.562 8.282 6.696 11.642 8.864-3.42 1.245-8.45 3.76-11.545 5.3 2.354-1.795 5.798-3.98 7.6-5.947-1.935-2.61-5.375-5.707-7.698-8.218z"/><path d="M250.324 282.04c.022.083-10.147 2.803-10.147 2.803l10.885-.083 1.428-1.627-2.166-1.092z"/></g><g><path d="M277.504 254.73c0 11.72-9.34 21.22-20.86 21.22-11.522 0-20.862-9.5-20.862-21.22 0-11.72 9.34-21.22 20.86-21.22 11.522 0 20.862 9.5 20.862 21.22z" fill-rule="evenodd" fill="#3d25ca"/><path d="M268.823 267.518l-11.515-7.072-11.514 7.072 4.318-11.314-10.076-7.07h12.954l4.318-11.315 4.318 11.313h12.955l-10.074 7.07 4.318 11.314z" fill-rule="evenodd" fill="#ffd900"/><path d="M240.03 249.2l17.22 4.253" fill="none"/><path d="M257.25 237.863v15.59" fill="none"/><path d="M257.25 253.453v7.087" fill="none"/><path d="M257.25 253.453l7.175 2.835" fill="none"/><path d="M252.944 249.2l4.305 4.253" fill="none"/><path d="M257.25 253.453l4.305-4.252" fill="none"/><path d="M274.47 249.2l-17.22 4.253" fill="none"/><path d="M257.25 253.453l11.48 14.174" fill="none"/><path d="M257.25 253.453l-11.48 14.174" fill="none"/><path d="M250.074 256.29l7.175-2.836" fill="none"/></g></g><g><path d="M297.99 255.925c0 23.237-18.858 42.095-42.094 42.095S213.8 279.162 213.8 255.925c0-23.235 18.86-42.095 42.096-42.095 23.235 0 42.094 18.86 42.094 42.095zm14.032 0c0 30.98-25.144 56.125-56.125 56.125s-56.125-25.144-56.125-56.125 25.144-56.125 56.125-56.125 56.125 25.144 56.125 56.125z" fill-rule="evenodd" stroke="#000" stroke-width=".198.033pt" fill="#d60000"/><path d="M298.747 266.07l3.7 1.372 6.143-1.12-.462 1.248-3.2.55c-.597.1-1.187.18-1.77.24.37.4.78.874 1.23 1.417l2.014 2.453-.443 1.193-3.892-4.956-3.7-1.372.38-1.025z" stroke-width=".181pt" fill="#ffe600"/><path d="M309.464 251.8l.12 1.085-5.344.593c-.93.104-1.68.092-2.247-.033-.567-.127-1.05-.414-1.45-.865-.395-.447-.636-1.065-.724-1.856-.086-.768-.007-1.413.238-1.934.244-.522.637-.918 1.177-1.19.545-.272 1.308-.462 2.288-.57l5.345-.595.12 1.084-5.34.593c-.802.09-1.388.22-1.756.394-.364.176-.63.435-.802.78-.17.347-.23.753-.177 1.22.09.797.356 1.343.802 1.638.446.293 1.25.376 2.41.247l5.34-.593z" stroke-width=".181pt" fill="#ffe600"/><path d="M301.7 241.27l1.074-.216.7 3.433-3.394.686c-.58-.43-1.05-.902-1.404-1.414-.35-.514-.585-1.065-.704-1.655-.162-.797-.117-1.56.134-2.29.256-.728.714-1.33 1.375-1.81.662-.48 1.442-.81 2.34-.99.89-.18 1.754-.185 2.59-.012.84.175 1.51.535 2.01 1.078.5.545.832 1.22.995 2.03.12.585.118 1.136-.003 1.65-.116.52-.338.953-.666 1.3-.33.346-.787.652-1.374.916l-.495-.907c.44-.217.777-.442 1.006-.676.23-.235.39-.536.48-.904.095-.368.1-.757.018-1.166-.1-.49-.27-.897-.513-1.22-.238-.325-.517-.57-.837-.736-.318-.16-.654-.27-1.008-.326-.607-.092-1.242-.07-1.903.063-.817.165-1.474.427-1.973.784-.498.362-.833.807-1.003 1.337-.17.53-.2 1.062-.093 1.596.095.464.287.898.576 1.3.293.4.578.694.853.876l1.702-.346-.482-2.383z" stroke-width=".182pt" fill="#ffe600"/><path d="M262.96 211.568l1.594-9.2 1.08.187-1.406 8.114 4.016.695-.188 1.085-5.095-.882z" stroke-width=".182pt" fill="#ffe600"/><path d="M253.547 210.93v-9.303h5.963v1.098h-4.87v2.85h4.56v1.09h-4.56v3.167h5.06v1.098h-6.153z" stroke-width=".181pt" fill="#ffe600"/><path d="M227.934 216.81l1.034-.475c.485.92.674 1.778.567 2.572-.107.79-.488 1.465-1.142 2.024-.678.58-1.362.898-2.053.952-.69.05-1.4-.126-2.128-.526-.725-.402-1.376-.942-1.956-1.62-.63-.738-1.057-1.488-1.278-2.248-.22-.767-.22-1.49-.003-2.166.218-.683.604-1.263 1.158-1.736.63-.54 1.313-.81 2.05-.815.738-.005 1.47.248 2.2.758l-.633.918c-.587-.39-1.12-.586-1.598-.585-.48.003-.93.184-1.35.543-.482.413-.775.89-.877 1.43-.1.538-.027 1.083.22 1.638.243.552.565 1.06.965 1.53.516.602 1.044 1.063 1.584 1.383.54.314 1.07.44 1.59.383.52-.06.97-.252 1.353-.58.466-.398.73-.887.795-1.466.064-.58-.103-1.216-.498-1.91z" stroke-width=".182pt" fill="#ffe600"/><path d="M223.945 224.962l-6.938-6.22.73-.813 6.938 6.218-.73.814z" stroke-width=".181pt" fill="#ffe600"/><path d="M219.44 230.177l-7.402-5.653.664-.87 6.527 4.988 2.467-3.23.873.666-3.13 4.1z" stroke-width=".181pt" fill="#ffe600"/><path d="M205.695 235.786l.404-1.02 5.018 1.99c.873.347 1.53.71 1.976 1.087.443.38.737.862.88 1.45.138.58.06 1.243-.233 1.986-.286.72-.66 1.254-1.122 1.602-.462.347-.997.514-1.604.5-.61-.015-1.376-.206-2.297-.57l-5.018-1.99.402-1.018 5.013 1.987c.755.3 1.336.46 1.744.48.404.014.763-.09 1.076-.315.315-.228.56-.56.732-.998.297-.75.317-1.36.06-1.83-.256-.47-.93-.922-2.02-1.354l-5.013-1.987z" stroke-width=".182pt" fill="#ffe600"/><path d="M211 258.253l-9.304.103-.066-5.963 1.098-.012.054 4.873 2.85-.03-.05-4.563 1.09-.012.05 4.562 3.167-.035-.057-5.063 1.098-.012.07 6.153z" stroke-width=".181pt" fill="#ffe600"/><path d="M245.967 212.313l-1.85-9.15 2.793-.564c.63-.13 1.12-.182 1.47-.162.49.027.93.165 1.322.415.51.32.935.78 1.273 1.373.342.59.595 1.29.76 2.106.14.695.194 1.326.16 1.89-.037.567-.13 1.05-.284 1.45-.153.394-.345.72-.573.98-.225.252-.517.47-.876.65-.354.18-.776.32-1.267.42l-2.926.59zm.854-1.297l1.733-.35c.535-.108.942-.25 1.22-.423.285-.174.496-.38.636-.622.195-.337.314-.762.357-1.273.045-.516-.002-1.12-.142-1.81-.193-.956-.482-1.662-.865-2.117-.38-.46-.788-.738-1.222-.832-.313-.066-.788-.035-1.426.094l-1.704.345 1.413 6.99z" stroke-width=".182pt" fill="#ffe600"/><path d="M276.045 216.152l4.318-8.275 2.767 1.444c.487.255.845.475 1.074.66.325.257.56.545.703.864.145.315.202.682.17 1.1-.03.42-.15.837-.364 1.247-.367.705-.876 1.198-1.53 1.48-.65.278-1.493.147-2.53-.395l-1.882-.98-1.754 3.363-.97-.506zm3.236-3.835l1.897.99c.627.327 1.142.428 1.542.302.4-.127.725-.43.975-.907.18-.346.256-.683.227-1.01-.024-.327-.142-.597-.354-.808-.138-.134-.427-.316-.868-.546l-1.876-.98-1.543 2.957z" stroke-width=".182pt" fill="#ffe600"/><path d="M280.76 218.46l8.58-4.822.878.786-3.702 9.195-.927-.832 1.165-2.745-2.572-2.305-2.56 1.496-.863-.774zm4.328-1.26l2.086 1.87 1.08-2.497c.328-.76.612-1.37.854-1.83-.478.374-.984.717-1.52 1.028l-2.5 1.43z" stroke-width=".181pt" fill="#ffe600"/><path d="M287.127 224.78l7.4-5.653 2.223 2.91c.447.583.72 1.08.817 1.486.1.405.053.827-.144 1.266-.198.438-.5.813-.908 1.124-.525.402-1.082.59-1.673.563-.59-.026-1.175-.317-1.753-.872.05.325.06.593.03.805-.068.454-.213.945-.434 1.473l-1.142 2.68-.835-1.093.876-2.044c.25-.593.43-1.06.54-1.406.112-.343.164-.617.158-.82-.004-.2-.04-.382-.104-.544-.052-.117-.163-.287-.334-.51l-.77-1.007-3.285 2.51-.663-.87zm4.798-2.29l1.426 1.867c.303.396.586.672.848.826.265.152.543.21.834.17.294-.04.56-.15.8-.334.35-.268.55-.6.603-1 .055-.396-.104-.837-.475-1.324l-1.586-2.076-2.45 1.87z" stroke-width=".181pt" fill="#ffe600"/><path d="M292.156 230.878l9.66-1.758.57 1.025-6.478 7.47-.605-1.086 1.992-2.21-1.676-3.01-2.9.58-.564-1.012zm4.49.22l1.36 2.44 1.83-2.004c.557-.61 1.023-1.093 1.4-1.448-.57.198-1.16.357-1.767.476l-2.823.535z" stroke-width=".181pt" fill="#ffe600"/><path d="M300.472 254.985l8.92 4.126-.124 1.17-9.606 2.38.13-1.237 2.903-.66.362-3.43-2.707-1.196.122-1.152zm3.55 2.767l-.294 2.78 2.652-.585c.806-.18 1.466-.306 1.98-.38-.582-.167-1.155-.376-1.72-.627l-2.62-1.188z" stroke-width=".181pt" fill="#ffe600"/><path d="M212.513 266.914l-9.097 2.005-.788-3.576c-.158-.72-.196-1.284-.113-1.694.08-.41.3-.772.665-1.087.364-.315.797-.527 1.298-.638.645-.142 1.23-.077 1.754.197.524.272.932.783 1.222 1.53.09-.317.195-.564.31-.744.255-.383.594-.767 1.016-1.152l2.167-1.948.296 1.342-1.658 1.484c-.477.432-.838.78-1.083 1.047-.246.265-.408.492-.49.68-.08.182-.125.362-.134.536-.002.127.027.33.087.604l.273 1.237 4.04-.89.235 1.067zm-5.317.053l-.506-2.294c-.107-.487-.247-.857-.42-1.107-.176-.25-.404-.418-.684-.507-.284-.088-.572-.1-.866-.034-.43.094-.753.31-.97.65-.216.337-.258.804-.126 1.402l.562 2.552 3.01-.663z" stroke-width=".181pt" fill="#ffe600"/><path d="M211.474 250.168l-9.303-.822.276-3.11c.05-.55.115-.964.2-1.247.112-.4.288-.726.528-.98.236-.256.553-.448.953-.58.4-.135.83-.182 1.29-.14.793.07 1.443.352 1.954.846.507.495.71 1.325.606 2.492l-.187 2.114 3.78.335-.096 1.09zm-4.783-1.523l.19-2.132c.062-.704-.042-1.218-.312-1.54-.27-.323-.674-.508-1.21-.555-.39-.035-.73.024-1.02.175-.295.15-.5.36-.613.638-.07.18-.13.517-.173 1.012l-.186 2.11 3.325.293z" stroke-width=".182pt" fill="#ffe600"/><path d="M215.364 236.388l-7.76-5.19 1.726-2.582c.35-.526.712-.893 1.082-1.103.37-.215.777-.302 1.225-.26.446.035.847.172 1.203.41.332.222.59.51.778.866.186.355.26.753.225 1.196.416-.324.864-.486 1.345-.486.482-.003.95.146 1.4.448.365.243.658.538.88.886.22.342.348.67.384.984s-.005.652-.12 1.014c-.115.357-.32.755-.613 1.192l-1.756 2.624zm-3.89-3.92l.994-1.488c.27-.403.434-.713.49-.928.078-.283.066-.543-.037-.78-.1-.24-.286-.45-.557-.63-.258-.173-.52-.27-.788-.29-.27-.023-.51.044-.716.2-.21.154-.48.478-.812.972l-.92 1.375 2.346 1.567zm3.584 2.397l1.146-1.713c.196-.294.322-.51.377-.644.1-.238.145-.46.14-.667-.005-.206-.07-.418-.196-.634-.13-.218-.32-.41-.566-.575-.29-.192-.583-.294-.883-.305-.303-.012-.576.07-.817.25-.244.17-.512.477-.805.915l-1.063 1.59 2.668 1.785z" stroke-width=".182pt" fill="#ffe600"/><path d="M230.422 218.476l-2.257-9.544.994-.623 7.785 6.073-1.05.658-2.308-1.87-2.914 1.83.728 2.86-.978.616zm-.015-4.492l2.363-1.482-2.094-1.722c-.637-.522-1.143-.962-1.518-1.32.228.56.417 1.14.567 1.738l.682 2.786z" stroke-width=".181pt" fill="#ffe600"/></g></g></g></svg>