<svg xmlns="http://www.w3.org/2000/svg" height="480" width="640" version="1"><defs><clipPath id="a"><path fill-opacity=".67" d="M-26.334 0h682.67v512h-682.67z"/></clipPath></defs><g fill-rule="evenodd" clip-path="url(#a)" transform="matrix(.938 0 0 .938 24.688 0)" stroke-width="1pt"><path fill="#fff" d="M-69 0h768v512H-69z"/><path fill="#01017e" d="M-69 170.67h768V512H-69z"/><path fill="#fe0101" d="M-69 341.33h768V512H-69z"/><path d="M64.736 116.2v143.57c9.833 56.05 35.893 113.09 123.9 142.09 87.52-29.01 115.54-83.586 125.87-143.08V116.19H64.736z" fill="#fff"/><path d="M74.57 127.51v125.38c8.85 45.726 26.058 108.17 114.07 137.18 87.518-29.01 107.68-91.452 115.54-137.18V127.51H74.57z" fill="#fe0101"/><path d="M202.41 203.23v20.16h40.318c5.406 0 10.49-2.624 15.734-3.935v37.86c-5.41-1.148-10.696-3.442-16.226-3.442h-39.334v46.218l-27.043-.983v-45.234h-38.35c-5.765 0-11.145 2.95-16.718 4.425V217.98c5.245 1.64 10.24 4.917 15.734 4.917h39.334v-20.16h-29.01c-5.082 0-9.505 3.607-14.258 5.41v-38.35c5.41 2.295 10.35 6.883 16.226 6.883h27.534v-17.21c0-8.036-4.59-15.405-6.884-23.108h38.842c-1.967 7.867-5.9 15.492-5.9 23.6v16.718h26.06c6.8 0 13.11-3.605 19.667-5.408v37.86c-5.9-1.967-11.482-5.9-17.7-5.9H202.41z" fill="#fff"/><path d="M152.75 305.5c-23.11-11.555-45.184-5.102-55.744 13.398 16.41 31.344 47.632 56.666 91.637 71.17 43.76-14.505 75.596-39.826 93.05-69.695-13.597-25.94-39.457-22.495-56.174-14.38-11.8-29.01-59.986-27.535-72.77-.493z" fill="#01017e"/></g></svg>